<svg width="600" height="410" viewBox="0 0 600 410" fill="none" xmlns="http://www.w3.org/2000/svg">
<rect width="600" height="410" rx="26" fill="white"/>
<path d="M166.9 47.4453L165.56 43.8853H159.56L158.24 47.4453H155.7L161.22 33.2653H164L169.52 47.4453H166.9ZM162.56 35.8653L160.4 41.6653H164.72L162.56 35.8653ZM179.277 37.7053L175.457 47.4453H173.137L169.177 37.7053H171.737L174.317 44.6653L176.837 37.7053H179.277ZM182.311 41.5053H187.091C187.051 40.3653 186.291 39.3453 184.691 39.3453C183.231 39.3453 182.391 40.4653 182.311 41.5053ZM187.351 44.0453L189.311 44.6653C188.791 46.3653 187.251 47.7453 184.911 47.7453C182.271 47.7453 179.931 45.8253 179.931 42.5253C179.931 39.4453 182.211 37.4053 184.671 37.4053C187.671 37.4053 189.431 39.3853 189.431 42.4653C189.431 42.8453 189.391 43.1653 189.371 43.2053H182.251C182.311 44.6853 183.471 45.7453 184.911 45.7453C186.311 45.7453 187.031 45.0053 187.351 44.0453ZM197.348 37.6453V40.0053C197.088 39.9653 196.828 39.9453 196.588 39.9453C194.788 39.9453 193.968 40.9853 193.968 42.8053V47.4453H191.648V37.7053H193.908V39.2653C194.368 38.2053 195.448 37.5853 196.728 37.5853C197.008 37.5853 197.248 37.6253 197.348 37.6453ZM198.705 44.8053C198.705 43.0653 199.985 42.1053 201.645 41.8653L204.145 41.4853C204.705 41.4053 204.865 41.1253 204.865 40.7853C204.865 39.9653 204.305 39.3053 203.025 39.3053C201.805 39.3053 201.125 40.0853 201.025 41.0653L198.905 40.5853C199.085 38.9053 200.605 37.4053 203.005 37.4053C206.005 37.4053 207.145 39.1053 207.145 41.0453V45.8853C207.145 46.7653 207.245 47.3453 207.265 47.4453H205.105C205.085 47.3853 205.005 46.9853 205.005 46.2053C204.545 46.9453 203.585 47.7453 202.005 47.7453C199.965 47.7453 198.705 46.3453 198.705 44.8053ZM202.445 45.9253C203.745 45.9253 204.865 45.3053 204.865 43.4053V42.9653L202.325 43.3453C201.605 43.4653 201.025 43.8653 201.025 44.6653C201.025 45.3253 201.525 45.9253 202.445 45.9253ZM209.23 47.9853L211.37 47.4253C211.53 48.6253 212.47 49.5253 213.81 49.5253C215.65 49.5253 216.57 48.5853 216.57 46.6053V45.5853C216.15 46.3453 215.17 47.0053 213.75 47.0053C211.15 47.0053 209.25 45.0053 209.25 42.2653C209.25 39.6653 211.07 37.5253 213.75 37.5253C215.27 37.5253 216.21 38.1453 216.63 38.9453V37.7053H218.87V46.5253C218.87 49.1253 217.53 51.5453 213.87 51.5453C211.29 51.5453 209.49 49.9453 209.23 47.9853ZM214.13 45.0253C215.61 45.0253 216.63 43.9453 216.63 42.2653C216.63 40.6053 215.57 39.5253 214.13 39.5253C212.65 39.5253 211.59 40.6053 211.59 42.2653C211.59 43.9653 212.61 45.0253 214.13 45.0253ZM223.327 41.5053H228.107C228.067 40.3653 227.307 39.3453 225.707 39.3453C224.247 39.3453 223.407 40.4653 223.327 41.5053ZM228.367 44.0453L230.327 44.6653C229.807 46.3653 228.267 47.7453 225.927 47.7453C223.287 47.7453 220.947 45.8253 220.947 42.5253C220.947 39.4453 223.227 37.4053 225.687 37.4053C228.687 37.4053 230.447 39.3853 230.447 42.4653C230.447 42.8453 230.407 43.1653 230.387 43.2053H223.267C223.327 44.6853 224.487 45.7453 225.927 45.7453C227.327 45.7453 228.047 45.0053 228.367 44.0453ZM244.985 47.4453L242.005 41.8453H240.245V47.4453H237.825V33.2653H243.265C246.005 33.2653 247.705 35.1653 247.705 37.5653C247.705 39.5853 246.485 41.1253 244.505 41.6053L247.705 47.4453H244.985ZM240.245 39.7253H242.825C244.305 39.7253 245.265 38.8653 245.265 37.5653C245.265 36.2453 244.305 35.3853 242.825 35.3853H240.245V39.7253ZM259.908 47.4453L258.568 43.8853H252.568L251.248 47.4453H248.708L254.228 33.2653H257.008L262.528 47.4453H259.908ZM255.568 35.8653L253.408 41.6653H257.728L255.568 35.8653ZM268.328 44.8053L270.348 44.2453C270.428 45.1253 271.088 45.9053 272.328 45.9053C273.288 45.9053 273.788 45.3853 273.788 44.7853C273.788 44.2653 273.428 43.8653 272.648 43.7053L271.208 43.3853C269.488 43.0053 268.588 41.8853 268.588 40.5453C268.588 38.8453 270.148 37.4053 272.168 37.4053C274.888 37.4053 275.768 39.1653 275.928 40.1253L273.968 40.6853C273.888 40.1253 273.468 39.2253 272.168 39.2253C271.348 39.2253 270.768 39.7453 270.768 40.3453C270.768 40.8653 271.148 41.2453 271.748 41.3653L273.228 41.6653C275.068 42.0653 276.028 43.1853 276.028 44.6253C276.028 46.1053 274.828 47.7453 272.348 47.7453C269.528 47.7453 268.448 45.9053 268.328 44.8053ZM282.51 39.5453C281.09 39.5453 279.83 40.6053 279.83 42.5653C279.83 44.5253 281.09 45.6253 282.55 45.6253C284.07 45.6253 284.77 44.5653 284.99 43.8253L287.03 44.5653C286.57 46.0853 285.11 47.7453 282.55 47.7453C279.69 47.7453 277.51 45.5253 277.51 42.5653C277.51 39.5653 279.69 37.4053 282.49 37.4053C285.11 37.4053 286.55 39.0453 286.95 40.6053L284.87 41.3653C284.65 40.5053 283.99 39.5453 282.51 39.5453ZM293.272 45.6653C294.712 45.6653 295.992 44.6053 295.992 42.5653C295.992 40.5453 294.712 39.5053 293.272 39.5053C291.852 39.5053 290.552 40.5453 290.552 42.5653C290.552 44.5853 291.852 45.6653 293.272 45.6653ZM293.272 37.4053C296.192 37.4053 298.332 39.5853 298.332 42.5653C298.332 45.5653 296.192 47.7453 293.272 47.7453C290.372 47.7453 288.232 45.5653 288.232 42.5653C288.232 39.5853 290.372 37.4053 293.272 37.4053ZM306.274 37.6453V40.0053C306.014 39.9653 305.754 39.9453 305.514 39.9453C303.714 39.9453 302.894 40.9853 302.894 42.8053V47.4453H300.574V37.7053H302.834V39.2653C303.294 38.2053 304.374 37.5853 305.654 37.5853C305.934 37.5853 306.174 37.6253 306.274 37.6453ZM309.733 41.5053H314.513C314.473 40.3653 313.713 39.3453 312.113 39.3453C310.653 39.3453 309.813 40.4653 309.733 41.5053ZM314.773 44.0453L316.733 44.6653C316.213 46.3653 314.673 47.7453 312.333 47.7453C309.693 47.7453 307.353 45.8253 307.353 42.5253C307.353 39.4453 309.633 37.4053 312.093 37.4053C315.093 37.4053 316.853 39.3853 316.853 42.4653C316.853 42.8453 316.813 43.1653 316.793 43.2053H309.673C309.733 44.6853 310.893 45.7453 312.333 45.7453C313.733 45.7453 314.453 45.0053 314.773 44.0453ZM318.21 44.8053L320.23 44.2453C320.31 45.1253 320.97 45.9053 322.21 45.9053C323.17 45.9053 323.67 45.3853 323.67 44.7853C323.67 44.2653 323.31 43.8653 322.53 43.7053L321.09 43.3853C319.37 43.0053 318.47 41.8853 318.47 40.5453C318.47 38.8453 320.03 37.4053 322.05 37.4053C324.77 37.4053 325.65 39.1653 325.81 40.1253L323.85 40.6853C323.77 40.1253 323.35 39.2253 322.05 39.2253C321.23 39.2253 320.65 39.7453 320.65 40.3453C320.65 40.8653 321.03 41.2453 321.63 41.3653L323.11 41.6653C324.95 42.0653 325.91 43.1853 325.91 44.6253C325.91 46.1053 324.71 47.7453 322.23 47.7453C319.41 47.7453 318.33 45.9053 318.21 44.8053ZM337.492 34.9453C336.872 34.9453 336.052 35.2253 336.052 36.4253V37.7053H338.312V39.7253H336.052V47.4453H333.712V39.7253H332.012V37.7053H333.712V36.3653C333.712 34.1853 335.112 32.8653 337.112 32.8653C337.692 32.8653 338.172 32.9853 338.332 33.0653V35.0453C338.192 35.0053 337.932 34.9453 337.492 34.9453ZM344.151 45.6653C345.591 45.6653 346.871 44.6053 346.871 42.5653C346.871 40.5453 345.591 39.5053 344.151 39.5053C342.731 39.5053 341.431 40.5453 341.431 42.5653C341.431 44.5853 342.731 45.6653 344.151 45.6653ZM344.151 37.4053C347.071 37.4053 349.211 39.5853 349.211 42.5653C349.211 45.5653 347.071 47.7453 344.151 47.7453C341.251 47.7453 339.111 45.5653 339.111 42.5653C339.111 39.5853 341.251 37.4053 344.151 37.4053ZM357.153 37.6453V40.0053C356.893 39.9653 356.633 39.9453 356.393 39.9453C354.593 39.9453 353.773 40.9853 353.773 42.8053V47.4453H351.453V37.7053H353.713V39.2653C354.173 38.2053 355.253 37.5853 356.533 37.5853C356.813 37.5853 357.053 37.6253 357.153 37.6453ZM365.812 40.3453C365.812 43.7653 368.172 45.4653 370.552 45.4653C372.952 45.4653 375.312 43.7653 375.312 40.3453C375.312 36.9253 372.952 35.2253 370.552 35.2253C368.172 35.2253 365.812 36.9253 365.812 40.3453ZM363.352 40.3453C363.352 35.7053 366.832 32.9653 370.552 32.9653C374.272 32.9653 377.772 35.7053 377.772 40.3453C377.772 45.0053 374.272 47.7453 370.552 47.7453C366.832 47.7453 363.352 45.0053 363.352 40.3453ZM385.805 37.6453V40.0053C385.545 39.9653 385.285 39.9453 385.045 39.9453C383.245 39.9453 382.425 40.9853 382.425 42.8053V47.4453H380.105V37.7053H382.365V39.2653C382.825 38.2053 383.905 37.5853 385.185 37.5853C385.465 37.5853 385.705 37.6253 385.805 37.6453ZM389.205 42.5453C389.205 44.4053 390.245 45.6453 391.825 45.6453C393.345 45.6453 394.405 44.3853 394.405 42.5253C394.405 40.6653 393.365 39.5053 391.845 39.5053C390.325 39.5053 389.205 40.6853 389.205 42.5453ZM396.645 32.9653V45.6653C396.645 46.5453 396.725 47.2853 396.745 47.4453H394.525C394.485 47.2253 394.425 46.5853 394.425 46.1853C393.965 47.0053 392.945 47.6853 391.565 47.6853C388.765 47.6853 386.885 45.4853 386.885 42.5453C386.885 39.7453 388.785 37.4453 391.525 37.4453C393.225 37.4453 394.085 38.2253 394.385 38.8453V32.9653H396.645ZM401.976 47.4453H399.676V37.7053H401.976V47.4453ZM399.316 34.2853C399.316 33.4453 399.996 32.7653 400.816 32.7653C401.656 32.7653 402.336 33.4453 402.336 34.2853C402.336 35.1253 401.656 35.7853 400.816 35.7853C399.996 35.7853 399.316 35.1253 399.316 34.2853ZM407.289 41.8253V47.4453H404.969V37.7053H407.229V39.0053C407.869 37.8853 409.029 37.4253 410.109 37.4253C412.489 37.4253 413.629 39.1453 413.629 41.2853V47.4453H411.309V41.6853C411.309 40.4853 410.769 39.5253 409.309 39.5253C407.989 39.5253 407.289 40.5453 407.289 41.8253ZM415.853 44.8053C415.853 43.0653 417.133 42.1053 418.793 41.8653L421.293 41.4853C421.853 41.4053 422.013 41.1253 422.013 40.7853C422.013 39.9653 421.453 39.3053 420.173 39.3053C418.953 39.3053 418.273 40.0853 418.173 41.0653L416.053 40.5853C416.233 38.9053 417.753 37.4053 420.153 37.4053C423.153 37.4053 424.293 39.1053 424.293 41.0453V45.8853C424.293 46.7653 424.393 47.3453 424.413 47.4453H422.253C422.233 47.3853 422.153 46.9853 422.153 46.2053C421.693 46.9453 420.733 47.7453 419.153 47.7453C417.113 47.7453 415.853 46.3453 415.853 44.8053ZM419.593 45.9253C420.893 45.9253 422.013 45.3053 422.013 43.4053V42.9653L419.473 43.3453C418.753 43.4653 418.173 43.8653 418.173 44.6653C418.173 45.3253 418.673 45.9253 419.593 45.9253ZM432.798 37.6453V40.0053C432.538 39.9653 432.278 39.9453 432.038 39.9453C430.238 39.9453 429.418 40.9853 429.418 42.8053V47.4453H427.098V37.7053H429.358V39.2653C429.818 38.2053 430.898 37.5853 432.178 37.5853C432.458 37.5853 432.698 37.6253 432.798 37.6453ZM438.046 51.3853H435.566L437.906 46.2853L433.746 37.7053H436.366L439.166 43.8653L441.786 37.7053H444.246L438.046 51.3853Z" fill="#020202"/>
<circle cx="223" cy="72.9453" r="6" fill="#49D5B2"/>
<path d="M243.801 70.8089C243.741 70.3052 243.5 69.9141 243.075 69.6357C242.651 69.3572 242.131 69.218 241.514 69.218C241.063 69.218 240.669 69.291 240.331 69.4368C239.996 69.5826 239.734 69.7831 239.545 70.0384C239.36 70.2936 239.267 70.5836 239.267 70.9084C239.267 71.1802 239.332 71.4138 239.461 71.6094C239.594 71.8016 239.763 71.9624 239.968 72.0916C240.174 72.2176 240.389 72.322 240.614 72.4048C240.84 72.4844 241.047 72.549 241.236 72.5987L242.27 72.8771C242.535 72.9467 242.83 73.0429 243.155 73.1655C243.483 73.2881 243.796 73.4555 244.094 73.6676C244.396 73.8764 244.645 74.1449 244.84 74.473C245.036 74.8011 245.134 75.2038 245.134 75.6811C245.134 76.2313 244.989 76.7285 244.701 77.1726C244.416 77.6167 243.998 77.9697 243.448 78.2315C242.901 78.4934 242.237 78.6243 241.455 78.6243C240.725 78.6243 240.094 78.5066 239.56 78.2713C239.03 78.036 238.612 77.7079 238.308 77.2869C238.006 76.866 237.835 76.3771 237.795 75.8203H239.068C239.101 76.2048 239.231 76.523 239.456 76.7749C239.685 77.0234 239.973 77.209 240.321 77.3317C240.672 77.451 241.05 77.5107 241.455 77.5107C241.925 77.5107 242.348 77.4344 242.722 77.282C243.097 77.1262 243.393 76.9107 243.612 76.6357C243.831 76.3572 243.94 76.0324 243.94 75.6612C243.94 75.3232 243.846 75.0481 243.657 74.8359C243.468 74.6238 243.219 74.4515 242.911 74.3189C242.603 74.1863 242.27 74.0703 241.912 73.9709L240.659 73.6129C239.864 73.3842 239.234 73.0578 238.77 72.6335C238.306 72.2093 238.074 71.6541 238.074 70.968C238.074 70.398 238.228 69.9008 238.536 69.4766C238.848 69.049 239.265 68.7176 239.789 68.4822C240.316 68.2436 240.904 68.1243 241.554 68.1243C242.21 68.1243 242.794 68.242 243.304 68.4773C243.814 68.7093 244.219 69.0275 244.517 69.4318C244.819 69.8362 244.978 70.2952 244.994 70.8089H243.801ZM250.343 78.6044C249.608 78.6044 248.973 78.442 248.439 78.1172C247.909 77.7891 247.5 77.3317 247.211 76.745C246.926 76.1551 246.784 75.469 246.784 74.6868C246.784 73.9046 246.926 73.2152 247.211 72.6186C247.5 72.0187 247.901 71.5514 248.414 71.2166C248.931 70.8786 249.535 70.7095 250.224 70.7095C250.622 70.7095 251.014 70.7758 251.402 70.9084C251.79 71.041 252.143 71.2564 252.461 71.5547C252.779 71.8497 253.033 72.2408 253.222 72.728C253.411 73.2152 253.505 73.8151 253.505 74.5277V75.0249H247.619V74.0107H252.312C252.312 73.5798 252.226 73.1953 252.054 72.8572C251.884 72.5192 251.643 72.2524 251.328 72.0568C251.016 71.8613 250.648 71.7635 250.224 71.7635C249.757 71.7635 249.352 71.8795 249.011 72.1115C248.673 72.3402 248.413 72.6385 248.23 73.0064C248.048 73.3743 247.957 73.7687 247.957 74.1896V74.8658C247.957 75.4425 248.056 75.9313 248.255 76.3324C248.457 76.7301 248.737 77.0334 249.095 77.2422C249.453 77.4477 249.869 77.5504 250.343 77.5504C250.652 77.5504 250.93 77.5073 251.179 77.4212C251.43 77.3317 251.648 77.1991 251.83 77.0234C252.012 76.8445 252.153 76.6224 252.252 76.3572L253.386 76.6754C253.267 77.0599 253.066 77.398 252.784 77.6896C252.503 77.978 252.155 78.2034 251.74 78.3658C251.326 78.5249 250.86 78.6044 250.343 78.6044ZM255.43 78.4453V70.8089H256.564V71.9624H256.643C256.782 71.5845 257.034 71.2779 257.399 71.0426C257.763 70.8073 258.174 70.6896 258.632 70.6896C258.718 70.6896 258.826 70.6913 258.955 70.6946C259.084 70.6979 259.182 70.7029 259.248 70.7095V71.9027C259.208 71.8928 259.117 71.8778 258.975 71.858C258.836 71.8348 258.688 71.8232 258.532 71.8232C258.161 71.8232 257.83 71.901 257.538 72.0568C257.25 72.2093 257.021 72.4214 256.852 72.6932C256.686 72.9616 256.603 73.2682 256.603 73.6129V78.4453H255.43ZM267.256 70.8089L264.432 78.4453H263.239L260.415 70.8089H261.688L263.796 76.8942H263.875L265.983 70.8089H267.256ZM268.944 78.4453V70.8089H270.118V78.4453H268.944ZM269.541 69.5362C269.312 69.5362 269.115 69.4583 268.949 69.3026C268.787 69.1468 268.706 68.9595 268.706 68.7408C268.706 68.522 268.787 68.3348 268.949 68.179C269.115 68.0232 269.312 67.9453 269.541 67.9453C269.77 67.9453 269.965 68.0232 270.128 68.179C270.293 68.3348 270.376 68.522 270.376 68.7408C270.376 68.9595 270.293 69.1468 270.128 69.3026C269.965 69.4583 269.77 69.5362 269.541 69.5362ZM275.509 78.6044C274.793 78.6044 274.177 78.4354 273.66 78.0973C273.142 77.7592 272.745 77.2936 272.466 76.7003C272.188 76.107 272.049 75.4292 272.049 74.6669C272.049 73.8913 272.191 73.2069 272.476 72.6136C272.765 72.017 273.166 71.5514 273.679 71.2166C274.196 70.8786 274.8 70.7095 275.489 70.7095C276.026 70.7095 276.51 70.8089 276.941 71.0078C277.372 71.2067 277.725 71.4851 278 71.843C278.275 72.201 278.446 72.6186 278.512 73.0959H277.338C277.249 72.7479 277.05 72.4396 276.742 72.1712C276.437 71.8994 276.026 71.7635 275.509 71.7635C275.052 71.7635 274.651 71.8828 274.306 72.1214C273.964 72.3568 273.698 72.6899 273.505 73.1207C273.316 73.5483 273.222 74.0504 273.222 74.6271C273.222 75.2171 273.315 75.7308 273.5 76.1683C273.689 76.6058 273.954 76.9455 274.296 77.1875C274.641 77.4295 275.045 77.5504 275.509 77.5504C275.814 77.5504 276.091 77.4974 276.339 77.3913C276.588 77.2853 276.798 77.1328 276.971 76.9339C277.143 76.7351 277.266 76.4964 277.338 76.218H278.512C278.446 76.6688 278.281 77.0748 278.02 77.4361C277.761 77.794 277.418 78.0791 276.99 78.2912C276.566 78.5 276.072 78.6044 275.509 78.6044ZM283.569 78.6044C282.833 78.6044 282.198 78.442 281.665 78.1172C281.134 77.7891 280.725 77.3317 280.437 76.745C280.152 76.1551 280.009 75.469 280.009 74.6868C280.009 73.9046 280.152 73.2152 280.437 72.6186C280.725 72.0187 281.126 71.5514 281.64 71.2166C282.157 70.8786 282.76 70.7095 283.449 70.7095C283.847 70.7095 284.24 70.7758 284.628 70.9084C285.015 71.041 285.368 71.2564 285.687 71.5547C286.005 71.8497 286.258 72.2408 286.447 72.728C286.636 73.2152 286.731 73.8151 286.731 74.5277V75.0249H280.844V74.0107H285.537C285.537 73.5798 285.451 73.1953 285.279 72.8572C285.11 72.5192 284.868 72.2524 284.553 72.0568C284.242 71.8613 283.874 71.7635 283.449 71.7635C282.982 71.7635 282.578 71.8795 282.236 72.1115C281.898 72.3402 281.638 72.6385 281.456 73.0064C281.273 73.3743 281.182 73.7687 281.182 74.1896V74.8658C281.182 75.4425 281.282 75.9313 281.481 76.3324C281.683 76.7301 281.963 77.0334 282.321 77.2422C282.679 77.4477 283.095 77.5504 283.569 77.5504C283.877 77.5504 284.155 77.5073 284.404 77.4212C284.656 77.3317 284.873 77.1991 285.055 77.0234C285.237 76.8445 285.378 76.6224 285.478 76.3572L286.611 76.6754C286.492 77.0599 286.291 77.398 286.01 77.6896C285.728 77.978 285.38 78.2034 284.966 78.3658C284.551 78.5249 284.086 78.6044 283.569 78.6044Z" fill="#848484"/>
<circle cx="314" cy="72.9453" r="6" fill="#020202"/>
<path d="M329.651 78.4453H328.358L332.097 68.2635H333.369L337.108 78.4453H335.815L332.773 69.8743H332.693L329.651 78.4453ZM330.128 74.468H335.338V75.5618H330.128V74.468ZM343.962 70.8089L341.138 78.4453H339.945L337.121 70.8089H338.394L340.502 76.8942H340.581L342.689 70.8089H343.962ZM348.579 78.6044C347.843 78.6044 347.209 78.442 346.675 78.1172C346.145 77.7891 345.735 77.3317 345.447 76.745C345.162 76.1551 345.019 75.469 345.019 74.6868C345.019 73.9046 345.162 73.2152 345.447 72.6186C345.735 72.0187 346.136 71.5514 346.65 71.2166C347.167 70.8786 347.77 70.7095 348.46 70.7095C348.857 70.7095 349.25 70.7758 349.638 70.9084C350.026 71.041 350.379 71.2564 350.697 71.5547C351.015 71.8497 351.269 72.2408 351.458 72.728C351.646 73.2152 351.741 73.8151 351.741 74.5277V75.0249H345.855V74.0107H350.548C350.548 73.5798 350.462 73.1953 350.289 72.8572C350.12 72.5192 349.878 72.2524 349.563 72.0568C349.252 71.8613 348.884 71.7635 348.46 71.7635C347.992 71.7635 347.588 71.8795 347.247 72.1115C346.909 72.3402 346.648 72.6385 346.466 73.0064C346.284 73.3743 346.193 73.7687 346.193 74.1896V74.8658C346.193 75.4425 346.292 75.9313 346.491 76.3324C346.693 76.7301 346.973 77.0334 347.331 77.2422C347.689 77.4477 348.105 77.5504 348.579 77.5504C348.887 77.5504 349.166 77.5073 349.414 77.4212C349.666 77.3317 349.883 77.1991 350.066 77.0234C350.248 76.8445 350.389 76.6224 350.488 76.3572L351.622 76.6754C351.502 77.0599 351.302 77.398 351.02 77.6896C350.738 77.978 350.39 78.2034 349.976 78.3658C349.562 78.5249 349.096 78.6044 348.579 78.6044ZM353.666 78.4453V70.8089H354.799V71.9624H354.879C355.018 71.5845 355.27 71.2779 355.634 71.0426C355.999 70.8073 356.41 70.6896 356.867 70.6896C356.954 70.6896 357.061 70.6913 357.191 70.6946C357.32 70.6979 357.418 70.7029 357.484 70.7095V71.9027C357.444 71.8928 357.353 71.8778 357.21 71.858C357.071 71.8348 356.924 71.8232 356.768 71.8232C356.397 71.8232 356.065 71.901 355.774 72.0568C355.485 72.2093 355.257 72.4214 355.088 72.6932C354.922 72.9616 354.839 73.2682 354.839 73.6129V78.4453H353.666ZM361.262 78.6243C360.778 78.6243 360.339 78.5331 359.944 78.3509C359.55 78.1652 359.237 77.8984 359.005 77.5504C358.773 77.1991 358.657 76.7749 358.657 76.2777C358.657 75.8402 358.743 75.4856 358.915 75.2138C359.088 74.9387 359.318 74.7232 359.606 74.5675C359.895 74.4117 360.213 74.2957 360.561 74.2195C360.912 74.1399 361.265 74.0769 361.62 74.0305C362.084 73.9709 362.46 73.9261 362.748 73.8963C363.04 73.8632 363.252 73.8085 363.385 73.7322C363.521 73.656 363.589 73.5234 363.589 73.3345V73.2947C363.589 72.8042 363.454 72.4231 363.186 72.1513C362.921 71.8795 362.518 71.7436 361.978 71.7436C361.418 71.7436 360.979 71.8662 360.66 72.1115C360.342 72.3568 360.118 72.6186 359.989 72.897L358.876 72.4993C359.074 72.0353 359.34 71.674 359.671 71.4155C360.006 71.1536 360.37 70.9714 360.765 70.8686C361.162 70.7625 361.554 70.7095 361.938 70.7095C362.183 70.7095 362.465 70.7393 362.783 70.799C363.105 70.8553 363.415 70.973 363.713 71.152C364.014 71.331 364.265 71.6011 364.464 71.9624C364.662 72.3236 364.762 72.8075 364.762 73.4141V78.4453H363.589V77.4112H363.529C363.449 77.5769 363.317 77.7543 363.131 77.9432C362.946 78.1321 362.699 78.2929 362.39 78.4254C362.082 78.558 361.706 78.6243 361.262 78.6243ZM361.441 77.5703C361.905 77.5703 362.296 77.4792 362.614 77.2969C362.936 77.1146 363.178 76.8793 363.34 76.5909C363.506 76.3026 363.589 75.9993 363.589 75.6811V74.6072C363.539 74.6669 363.429 74.7216 363.26 74.7713C363.095 74.8177 362.903 74.8591 362.684 74.8956C362.468 74.9287 362.258 74.9586 362.052 74.9851C361.85 75.0083 361.686 75.0282 361.56 75.0447C361.255 75.0845 360.97 75.1491 360.705 75.2386C360.443 75.3248 360.231 75.4557 360.069 75.6314C359.91 75.8037 359.83 76.0391 359.83 76.3374C359.83 76.745 359.981 77.0533 360.282 77.2621C360.587 77.4676 360.974 77.5703 361.441 77.5703ZM370.126 81.468C369.559 81.468 369.072 81.3951 368.664 81.2493C368.256 81.1068 367.917 80.9179 367.645 80.6825C367.376 80.4505 367.163 80.2019 367.004 79.9368L367.938 79.2805C368.044 79.4197 368.179 79.5788 368.341 79.7578C368.503 79.9401 368.725 80.0975 369.007 80.2301C369.292 80.366 369.665 80.4339 370.126 80.4339C370.742 80.4339 371.251 80.2848 371.652 79.9865C372.053 79.6882 372.254 79.2209 372.254 78.5845V77.0334H372.154C372.068 77.1726 371.945 77.3449 371.786 77.5504C371.631 77.7526 371.405 77.9332 371.11 78.0923C370.818 78.2481 370.424 78.326 369.927 78.326C369.31 78.326 368.757 78.1802 368.266 77.8885C367.779 77.5968 367.393 77.1726 367.108 76.6158C366.826 76.0589 366.685 75.3828 366.685 74.5874C366.685 73.8052 366.823 73.1241 367.098 72.544C367.373 71.9607 367.756 71.5099 368.247 71.1918C368.737 70.8703 369.304 70.7095 369.947 70.7095C370.444 70.7095 370.838 70.7924 371.13 70.9581C371.425 71.1205 371.65 71.3061 371.806 71.5149C371.965 71.7204 372.088 71.8894 372.174 72.022H372.293V70.8089H373.427V78.6641C373.427 79.3203 373.278 79.8539 372.979 80.2649C372.684 80.6792 372.287 80.9825 371.786 81.1747C371.289 81.3703 370.736 81.468 370.126 81.468ZM370.086 77.272C370.557 77.272 370.954 77.1643 371.279 76.9489C371.604 76.7334 371.851 76.4235 372.02 76.0192C372.189 75.6148 372.274 75.1309 372.274 74.5675C372.274 74.0173 372.191 73.5317 372.025 73.1108C371.859 72.6899 371.614 72.3601 371.289 72.1214C370.964 71.8828 370.563 71.7635 370.086 71.7635C369.589 71.7635 369.175 71.8894 368.843 72.1413C368.515 72.3932 368.268 72.7313 368.102 73.1555C367.94 73.5798 367.859 74.0504 367.859 74.5675C367.859 75.0978 367.942 75.5668 368.107 75.9744C368.276 76.3788 368.525 76.697 368.853 76.929C369.184 77.1577 369.595 77.272 370.086 77.272ZM378.916 78.6044C378.181 78.6044 377.546 78.442 377.012 78.1172C376.482 77.7891 376.073 77.3317 375.784 76.745C375.499 76.1551 375.357 75.469 375.357 74.6868C375.357 73.9046 375.499 73.2152 375.784 72.6186C376.073 72.0187 376.474 71.5514 376.987 71.2166C377.504 70.8786 378.108 70.7095 378.797 70.7095C379.195 70.7095 379.588 70.7758 379.975 70.9084C380.363 71.041 380.716 71.2564 381.034 71.5547C381.352 71.8497 381.606 72.2408 381.795 72.728C381.984 73.2152 382.078 73.8151 382.078 74.5277V75.0249H376.192V74.0107H380.885C380.885 73.5798 380.799 73.1953 380.627 72.8572C380.458 72.5192 380.216 72.2524 379.901 72.0568C379.589 71.8613 379.221 71.7635 378.797 71.7635C378.33 71.7635 377.925 71.8795 377.584 72.1115C377.246 72.3402 376.986 72.6385 376.803 73.0064C376.621 73.3743 376.53 73.7687 376.53 74.1896V74.8658C376.53 75.4425 376.629 75.9313 376.828 76.3324C377.03 76.7301 377.311 77.0334 377.668 77.2422C378.026 77.4477 378.442 77.5504 378.916 77.5504C379.225 77.5504 379.503 77.5073 379.752 77.4212C380.003 77.3317 380.221 77.1991 380.403 77.0234C380.585 76.8445 380.726 76.6224 380.825 76.3572L381.959 76.6754C381.84 77.0599 381.639 77.398 381.357 77.6896C381.076 77.978 380.728 78.2034 380.313 78.3658C379.899 78.5249 379.433 78.6044 378.916 78.6044Z" fill="#848484"/>
<path d="M552.812 250.34H126.552V251.313H552.812V250.34Z" fill="#E0E1E0"/>
<path d="M552.937 151.072H126.677V152.045H552.937V151.072Z" fill="#E0E1E0"/>
<path d="M553 342.793H126.739V343.766H553V342.793Z" fill="#E0E1E0"/>
<path d="M75.8203 342.528C75.8203 341.033 76.0811 339.89 76.6898 339.011C77.3853 337.955 78.3417 337.428 79.6459 337.428C80.95 337.428 81.9064 337.955 82.602 339.011C83.2106 339.89 83.4714 341.033 83.4714 342.528C83.4714 344.024 83.2106 345.167 82.602 346.046C81.9064 347.102 80.95 347.629 79.6459 347.629C78.3417 347.629 77.3853 347.102 76.6898 346.046C76.0811 345.167 75.8203 344.024 75.8203 342.528ZM77.2984 342.528C77.2984 344.024 77.5592 345.079 78.1678 345.694C78.6025 346.134 79.0373 346.31 79.7328 346.31C80.4284 346.31 80.8631 346.134 81.2978 345.694C81.9064 345.079 82.1672 344.024 82.1672 342.528C82.1672 341.033 81.9064 339.978 81.2978 339.362C80.8631 338.923 80.4284 338.747 79.7328 338.747C79.0373 338.747 78.6025 338.923 78.1678 339.362C77.5592 339.978 77.2984 341.033 77.2984 342.528Z" fill="#595959"/>
<path d="M79.1435 254.982H77.907V248.411H75.8203V247.4C76.4386 247.4 76.9023 247.232 77.2887 246.895C77.6751 246.558 77.907 246.136 78.0615 245.631H79.2208V254.982H79.1435Z" fill="#595959"/>
<path d="M77.3462 148.114L76.0492 147.935C76.0492 147.845 76.0492 147.666 76.0492 147.577C76.0492 146.682 76.2781 145.966 76.8121 145.34C77.3462 144.713 78.0328 144.355 78.9483 144.355C79.8638 144.355 80.5505 144.624 81.0082 145.25C81.5423 145.877 81.7712 146.593 81.7712 147.398C81.7712 148.651 81.2371 149.725 80.169 150.441L78.4906 151.693C77.8802 152.141 77.5751 152.588 77.4225 153.125H81.7712V154.557H75.8203C75.8203 153.752 75.9729 152.946 76.2781 152.32C76.5832 151.693 77.1173 151.067 77.8039 150.53L79.2535 149.456C80.0164 148.83 80.3979 148.203 80.3979 147.398C80.3979 146.593 80.2453 146.503 80.0164 146.145C79.7113 145.787 79.3298 145.608 78.872 145.608C78.4143 145.608 77.9565 145.787 77.6513 146.145C77.3462 146.503 77.2699 147.04 77.2699 147.577C77.2699 148.114 77.2699 147.845 77.2699 148.024L77.3462 148.114Z" fill="#595959"/>
<path d="M126.301 198.83H550.615" stroke="#595959" stroke-width="1.2" stroke-linecap="round" stroke-linejoin="round" stroke-dasharray="1 3"/>
<path d="M153.217 369.564V360.837H158.484V361.775H154.274V364.724H158.212V365.661H154.274V368.627H158.552V369.564H153.217ZM164.123 364.732V365.67H160.305V364.732H164.123ZM168.842 369.684C168.2 369.684 167.653 369.509 167.201 369.16C166.749 368.807 166.404 368.297 166.166 367.63C165.927 366.959 165.808 366.15 165.808 365.201C165.808 364.258 165.927 363.452 166.166 362.785C166.407 362.114 166.754 361.603 167.205 361.251C167.66 360.895 168.205 360.718 168.842 360.718C169.478 360.718 170.022 360.895 170.474 361.251C170.928 361.603 171.275 362.114 171.514 362.785C171.755 363.452 171.876 364.258 171.876 365.201C171.876 366.15 171.757 366.959 171.518 367.63C171.279 368.297 170.934 368.807 170.482 369.16C170.031 369.509 169.484 369.684 168.842 369.684ZM168.842 368.746C169.478 368.746 169.973 368.439 170.325 367.826C170.677 367.212 170.853 366.337 170.853 365.201C170.853 364.445 170.772 363.802 170.61 363.27C170.451 362.739 170.221 362.334 169.92 362.056C169.622 361.778 169.262 361.638 168.842 361.638C168.211 361.638 167.718 361.949 167.363 362.572C167.008 363.191 166.83 364.067 166.83 365.201C166.83 365.956 166.91 366.599 167.069 367.127C167.228 367.655 167.457 368.057 167.755 368.333C168.056 368.608 168.419 368.746 168.842 368.746ZM176.462 369.684C175.82 369.684 175.273 369.509 174.821 369.16C174.369 368.807 174.024 368.297 173.786 367.63C173.547 366.959 173.428 366.15 173.428 365.201C173.428 364.258 173.547 363.452 173.786 362.785C174.027 362.114 174.374 361.603 174.825 361.251C175.28 360.895 175.825 360.718 176.462 360.718C177.098 360.718 177.642 360.895 178.094 361.251C178.548 361.603 178.895 362.114 179.134 362.785C179.375 363.452 179.496 364.258 179.496 365.201C179.496 366.15 179.377 366.959 179.138 367.63C178.899 368.297 178.554 368.807 178.102 369.16C177.651 369.509 177.104 369.684 176.462 369.684ZM176.462 368.746C177.098 368.746 177.593 368.439 177.945 367.826C178.297 367.212 178.473 366.337 178.473 365.201C178.473 364.445 178.392 363.802 178.23 363.27C178.071 362.739 177.841 362.334 177.54 362.056C177.242 361.778 176.882 361.638 176.462 361.638C175.831 361.638 175.338 361.949 174.983 362.572C174.628 363.191 174.45 364.067 174.45 365.201C174.45 365.956 174.53 366.599 174.689 367.127C174.848 367.655 175.077 368.057 175.375 368.333C175.676 368.608 176.039 368.746 176.462 368.746ZM184.082 369.684C183.44 369.684 182.893 369.509 182.441 369.16C181.989 368.807 181.644 368.297 181.406 367.63C181.167 366.959 181.048 366.15 181.048 365.201C181.048 364.258 181.167 363.452 181.406 362.785C181.647 362.114 181.994 361.603 182.445 361.251C182.9 360.895 183.445 360.718 184.082 360.718C184.718 360.718 185.262 360.895 185.714 361.251C186.168 361.603 186.515 362.114 186.754 362.785C186.995 363.452 187.116 364.258 187.116 365.201C187.116 366.15 186.997 366.959 186.758 367.63C186.519 368.297 186.174 368.807 185.722 369.16C185.271 369.509 184.724 369.684 184.082 369.684ZM184.082 368.746C184.718 368.746 185.213 368.439 185.565 367.826C185.917 367.212 186.093 366.337 186.093 365.201C186.093 364.445 186.012 363.802 185.85 363.27C185.691 362.739 185.461 362.334 185.16 362.056C184.862 361.778 184.502 361.638 184.082 361.638C183.451 361.638 182.958 361.949 182.603 362.572C182.248 363.191 182.07 364.067 182.07 365.201C182.07 365.956 182.15 366.599 182.309 367.127C182.468 367.655 182.697 368.057 182.995 368.333C183.296 368.608 183.659 368.746 184.082 368.746ZM191.702 369.684C191.06 369.684 190.513 369.509 190.061 369.16C189.609 368.807 189.264 368.297 189.026 367.63C188.787 366.959 188.668 366.15 188.668 365.201C188.668 364.258 188.787 363.452 189.026 362.785C189.267 362.114 189.614 361.603 190.065 361.251C190.52 360.895 191.065 360.718 191.702 360.718C192.338 360.718 192.882 360.895 193.334 361.251C193.788 361.603 194.135 362.114 194.374 362.785C194.615 363.452 194.736 364.258 194.736 365.201C194.736 366.15 194.617 366.959 194.378 367.63C194.139 368.297 193.794 368.807 193.342 369.16C192.891 369.509 192.344 369.684 191.702 369.684ZM191.702 368.746C192.338 368.746 192.833 368.439 193.185 367.826C193.537 367.212 193.713 366.337 193.713 365.201C193.713 364.445 193.632 363.802 193.47 363.27C193.311 362.739 193.081 362.334 192.78 362.056C192.482 361.778 192.122 361.638 191.702 361.638C191.071 361.638 190.578 361.949 190.223 362.572C189.868 363.191 189.69 364.067 189.69 365.201C189.69 365.956 189.77 366.599 189.929 367.127C190.088 367.655 190.317 368.057 190.615 368.333C190.916 368.608 191.279 368.746 191.702 368.746ZM199.271 369.684C198.685 369.684 198.168 369.58 197.72 369.373C197.274 369.162 196.926 368.874 196.676 368.508C196.426 368.138 196.302 367.718 196.305 367.246C196.302 366.877 196.374 366.536 196.522 366.224C196.67 365.908 196.872 365.645 197.127 365.435C197.386 365.222 197.674 365.087 197.992 365.03V364.979C197.575 364.871 197.242 364.637 196.995 364.276C196.748 363.912 196.626 363.499 196.629 363.036C196.626 362.593 196.738 362.197 196.965 361.847C197.193 361.498 197.505 361.222 197.903 361.02C198.303 360.819 198.759 360.718 199.271 360.718C199.776 360.718 200.228 360.819 200.626 361.02C201.024 361.222 201.336 361.498 201.563 361.847C201.793 362.197 201.91 362.593 201.913 363.036C201.91 363.499 201.783 363.912 201.533 364.276C201.286 364.637 200.958 364.871 200.549 364.979V365.03C200.864 365.087 201.149 365.222 201.401 365.435C201.654 365.645 201.856 365.908 202.006 366.224C202.157 366.536 202.234 366.877 202.237 367.246C202.234 367.718 202.106 368.138 201.853 368.508C201.603 368.874 201.255 369.162 200.809 369.373C200.366 369.58 199.853 369.684 199.271 369.684ZM199.271 368.746C199.666 368.746 200.006 368.682 200.293 368.555C200.58 368.427 200.802 368.246 200.958 368.013C201.114 367.78 201.194 367.508 201.197 367.195C201.194 366.866 201.109 366.574 200.941 366.322C200.774 366.069 200.545 365.87 200.255 365.725C199.968 365.58 199.64 365.508 199.271 365.508C198.899 365.508 198.566 365.58 198.274 365.725C197.984 365.87 197.755 366.069 197.587 366.322C197.423 366.574 197.342 366.866 197.345 367.195C197.342 367.508 197.417 367.78 197.57 368.013C197.727 368.246 197.95 368.427 198.239 368.555C198.529 368.682 198.873 368.746 199.271 368.746ZM199.271 364.604C199.583 364.604 199.86 364.542 200.102 364.417C200.346 364.292 200.538 364.117 200.677 363.893C200.816 363.668 200.887 363.405 200.89 363.104C200.887 362.809 200.818 362.552 200.681 362.333C200.545 362.111 200.356 361.941 200.114 361.822C199.873 361.699 199.592 361.638 199.271 361.638C198.944 361.638 198.658 361.699 198.414 361.822C198.17 361.941 197.981 362.111 197.847 362.333C197.714 362.552 197.649 362.809 197.651 363.104C197.649 363.405 197.715 363.668 197.852 363.893C197.991 364.117 198.183 364.292 198.427 364.417C198.671 364.542 198.953 364.604 199.271 364.604Z" fill="#848484"/>
<path d="M254.709 369.564V360.837H259.976V361.775H255.766V364.724H259.704V365.661H255.766V368.627H260.045V369.564H254.709ZM265.615 364.732V365.67H261.797V364.732H265.615ZM270.334 369.684C269.692 369.684 269.145 369.509 268.693 369.16C268.242 368.807 267.897 368.297 267.658 367.63C267.419 366.959 267.3 366.15 267.3 365.201C267.3 364.258 267.419 363.452 267.658 362.785C267.899 362.114 268.246 361.603 268.698 361.251C269.152 360.895 269.698 360.718 270.334 360.718C270.97 360.718 271.514 360.895 271.966 361.251C272.421 361.603 272.767 362.114 273.006 362.785C273.247 363.452 273.368 364.258 273.368 365.201C273.368 366.15 273.249 366.959 273.01 367.63C272.772 368.297 272.426 368.807 271.975 369.16C271.523 369.509 270.976 369.684 270.334 369.684ZM270.334 368.746C270.97 368.746 271.465 368.439 271.817 367.826C272.169 367.212 272.345 366.337 272.345 365.201C272.345 364.445 272.264 363.802 272.102 363.27C271.943 362.739 271.713 362.334 271.412 362.056C271.114 361.778 270.754 361.638 270.334 361.638C269.703 361.638 269.21 361.949 268.855 362.572C268.5 363.191 268.323 364.067 268.323 365.201C268.323 365.956 268.402 366.599 268.561 367.127C268.72 367.655 268.949 368.057 269.247 368.333C269.548 368.608 269.911 368.746 270.334 368.746ZM277.954 369.684C277.312 369.684 276.765 369.509 276.313 369.16C275.862 368.807 275.517 368.297 275.278 367.63C275.039 366.959 274.92 366.15 274.92 365.201C274.92 364.258 275.039 363.452 275.278 362.785C275.519 362.114 275.866 361.603 276.318 361.251C276.772 360.895 277.318 360.718 277.954 360.718C278.59 360.718 279.134 360.895 279.586 361.251C280.041 361.603 280.387 362.114 280.626 362.785C280.867 363.452 280.988 364.258 280.988 365.201C280.988 366.15 280.869 366.959 280.63 367.63C280.392 368.297 280.046 368.807 279.595 369.16C279.143 369.509 278.596 369.684 277.954 369.684ZM277.954 368.746C278.59 368.746 279.085 368.439 279.437 367.826C279.789 367.212 279.965 366.337 279.965 365.201C279.965 364.445 279.884 363.802 279.722 363.27C279.563 362.739 279.333 362.334 279.032 362.056C278.734 361.778 278.374 361.638 277.954 361.638C277.323 361.638 276.83 361.949 276.475 362.572C276.12 363.191 275.943 364.067 275.943 365.201C275.943 365.956 276.022 366.599 276.181 367.127C276.34 367.655 276.569 368.057 276.867 368.333C277.168 368.608 277.531 368.746 277.954 368.746ZM285.574 369.684C284.932 369.684 284.385 369.509 283.933 369.16C283.482 368.807 283.137 368.297 282.898 367.63C282.659 366.959 282.54 366.15 282.54 365.201C282.54 364.258 282.659 363.452 282.898 362.785C283.139 362.114 283.486 361.603 283.938 361.251C284.392 360.895 284.938 360.718 285.574 360.718C286.21 360.718 286.754 360.895 287.206 361.251C287.661 361.603 288.007 362.114 288.246 362.785C288.487 363.452 288.608 364.258 288.608 365.201C288.608 366.15 288.489 366.959 288.25 367.63C288.012 368.297 287.666 368.807 287.215 369.16C286.763 369.509 286.216 369.684 285.574 369.684ZM285.574 368.746C286.21 368.746 286.705 368.439 287.057 367.826C287.409 367.212 287.585 366.337 287.585 365.201C287.585 364.445 287.504 363.802 287.342 363.27C287.183 362.739 286.953 362.334 286.652 362.056C286.354 361.778 285.994 361.638 285.574 361.638C284.943 361.638 284.45 361.949 284.095 362.572C283.74 363.191 283.563 364.067 283.563 365.201C283.563 365.956 283.642 366.599 283.801 367.127C283.96 367.655 284.189 368.057 284.487 368.333C284.788 368.608 285.151 368.746 285.574 368.746ZM293.194 369.684C292.552 369.684 292.005 369.509 291.553 369.16C291.102 368.807 290.757 368.297 290.518 367.63C290.279 366.959 290.16 366.15 290.16 365.201C290.16 364.258 290.279 363.452 290.518 362.785C290.759 362.114 291.106 361.603 291.558 361.251C292.012 360.895 292.558 360.718 293.194 360.718C293.83 360.718 294.374 360.895 294.826 361.251C295.281 361.603 295.627 362.114 295.866 362.785C296.107 363.452 296.228 364.258 296.228 365.201C296.228 366.15 296.109 366.959 295.87 367.63C295.632 368.297 295.286 368.807 294.835 369.16C294.383 369.509 293.836 369.684 293.194 369.684ZM293.194 368.746C293.83 368.746 294.325 368.439 294.677 367.826C295.029 367.212 295.205 366.337 295.205 365.201C295.205 364.445 295.124 363.802 294.962 363.27C294.803 362.739 294.573 362.334 294.272 362.056C293.974 361.778 293.614 361.638 293.194 361.638C292.563 361.638 292.07 361.949 291.715 362.572C291.36 363.191 291.183 364.067 291.183 365.201C291.183 365.956 291.262 366.599 291.421 367.127C291.58 367.655 291.809 368.057 292.107 368.333C292.408 368.608 292.771 368.746 293.194 368.746ZM300.746 360.718C301.104 360.721 301.462 360.789 301.82 360.922C302.178 361.056 302.504 361.278 302.8 361.587C303.095 361.894 303.332 362.313 303.511 362.844C303.69 363.376 303.78 364.042 303.78 364.843C303.78 365.618 303.706 366.307 303.558 366.91C303.413 367.509 303.203 368.015 302.928 368.427C302.655 368.839 302.323 369.151 301.93 369.364C301.541 369.577 301.101 369.684 300.609 369.684C300.121 369.684 299.685 369.587 299.301 369.394C298.921 369.198 298.608 368.927 298.364 368.58C298.122 368.231 297.967 367.826 297.899 367.366H298.939C299.033 367.766 299.219 368.097 299.497 368.358C299.778 368.617 300.149 368.746 300.609 368.746C301.283 368.746 301.814 368.452 302.203 367.864C302.595 367.276 302.791 366.445 302.791 365.371H302.723C302.564 365.61 302.375 365.816 302.156 365.989C301.938 366.162 301.695 366.296 301.428 366.39C301.161 366.483 300.877 366.53 300.575 366.53C300.075 366.53 299.617 366.407 299.199 366.16C298.784 365.91 298.452 365.567 298.202 365.133C297.955 364.695 297.831 364.195 297.831 363.633C297.831 363.099 297.95 362.61 298.189 362.167C298.43 361.721 298.769 361.366 299.203 361.101C299.641 360.837 300.155 360.709 300.746 360.718ZM300.746 361.655C300.388 361.655 300.065 361.745 299.778 361.924C299.494 362.1 299.269 362.339 299.101 362.64C298.936 362.938 298.854 363.269 298.854 363.633C298.854 363.996 298.933 364.327 299.092 364.626C299.254 364.921 299.475 365.157 299.753 365.333C300.034 365.506 300.354 365.593 300.712 365.593C300.982 365.593 301.233 365.54 301.466 365.435C301.699 365.327 301.902 365.181 302.075 364.996C302.252 364.809 302.389 364.597 302.489 364.361C302.588 364.123 302.638 363.874 302.638 363.616C302.638 363.275 302.555 362.955 302.391 362.657C302.229 362.358 302.004 362.117 301.717 361.932C301.433 361.748 301.109 361.655 300.746 361.655Z" fill="#848484"/>
<path d="M357.19 369.564V360.837H362.457V361.775H358.247V364.724H362.184V365.661H358.247V368.627H362.525V369.564H357.19ZM368.096 364.732V365.67H364.277V364.732H368.096ZM372.815 369.684C372.173 369.684 371.626 369.509 371.174 369.16C370.722 368.807 370.377 368.297 370.139 367.63C369.9 366.959 369.781 366.15 369.781 365.201C369.781 364.258 369.9 363.452 370.139 362.785C370.38 362.114 370.727 361.603 371.178 361.251C371.633 360.895 372.178 360.718 372.815 360.718C373.451 360.718 373.995 360.895 374.447 361.251C374.901 361.603 375.248 362.114 375.487 362.785C375.728 363.452 375.849 364.258 375.849 365.201C375.849 366.15 375.729 366.959 375.491 367.63C375.252 368.297 374.907 368.807 374.455 369.16C374.004 369.509 373.457 369.684 372.815 369.684ZM372.815 368.746C373.451 368.746 373.945 368.439 374.298 367.826C374.65 367.212 374.826 366.337 374.826 365.201C374.826 364.445 374.745 363.802 374.583 363.27C374.424 362.739 374.194 362.334 373.893 362.056C373.595 361.778 373.235 361.638 372.815 361.638C372.184 361.638 371.691 361.949 371.336 362.572C370.981 363.191 370.803 364.067 370.803 365.201C370.803 365.956 370.883 366.599 371.042 367.127C371.201 367.655 371.43 368.057 371.728 368.333C372.029 368.608 372.391 368.746 372.815 368.746ZM380.435 369.684C379.793 369.684 379.246 369.509 378.794 369.16C378.342 368.807 377.997 368.297 377.759 367.63C377.52 366.959 377.401 366.15 377.401 365.201C377.401 364.258 377.52 363.452 377.759 362.785C378 362.114 378.347 361.603 378.798 361.251C379.253 360.895 379.798 360.718 380.435 360.718C381.071 360.718 381.615 360.895 382.067 361.251C382.521 361.603 382.868 362.114 383.107 362.785C383.348 363.452 383.469 364.258 383.469 365.201C383.469 366.15 383.349 366.959 383.111 367.63C382.872 368.297 382.527 368.807 382.075 369.16C381.624 369.509 381.077 369.684 380.435 369.684ZM380.435 368.746C381.071 368.746 381.565 368.439 381.918 367.826C382.27 367.212 382.446 366.337 382.446 365.201C382.446 364.445 382.365 363.802 382.203 363.27C382.044 362.739 381.814 362.334 381.513 362.056C381.215 361.778 380.855 361.638 380.435 361.638C379.804 361.638 379.311 361.949 378.956 362.572C378.601 363.191 378.423 364.067 378.423 365.201C378.423 365.956 378.503 366.599 378.662 367.127C378.821 367.655 379.05 368.057 379.348 368.333C379.649 368.608 380.011 368.746 380.435 368.746ZM388.055 369.684C387.413 369.684 386.866 369.509 386.414 369.16C385.962 368.807 385.617 368.297 385.379 367.63C385.14 366.959 385.021 366.15 385.021 365.201C385.021 364.258 385.14 363.452 385.379 362.785C385.62 362.114 385.967 361.603 386.418 361.251C386.873 360.895 387.418 360.718 388.055 360.718C388.691 360.718 389.235 360.895 389.687 361.251C390.141 361.603 390.488 362.114 390.727 362.785C390.968 363.452 391.089 364.258 391.089 365.201C391.089 366.15 390.969 366.959 390.731 367.63C390.492 368.297 390.147 368.807 389.695 369.16C389.244 369.509 388.697 369.684 388.055 369.684ZM388.055 368.746C388.691 368.746 389.185 368.439 389.538 367.826C389.89 367.212 390.066 366.337 390.066 365.201C390.066 364.445 389.985 363.802 389.823 363.27C389.664 362.739 389.434 362.334 389.133 362.056C388.835 361.778 388.475 361.638 388.055 361.638C387.424 361.638 386.931 361.949 386.576 362.572C386.221 363.191 386.043 364.067 386.043 365.201C386.043 365.956 386.123 366.599 386.282 367.127C386.441 367.655 386.67 368.057 386.968 368.333C387.269 368.608 387.631 368.746 388.055 368.746ZM395.896 360.837V369.564H394.839V361.945H394.788L392.658 363.36V362.286L394.839 360.837H395.896ZM401.373 369.684C400.731 369.684 400.184 369.509 399.732 369.16C399.28 368.807 398.935 368.297 398.697 367.63C398.458 366.959 398.339 366.15 398.339 365.201C398.339 364.258 398.458 363.452 398.697 362.785C398.938 362.114 399.285 361.603 399.736 361.251C400.191 360.895 400.736 360.718 401.373 360.718C402.009 360.718 402.553 360.895 403.005 361.251C403.459 361.603 403.806 362.114 404.045 362.785C404.286 363.452 404.407 364.258 404.407 365.201C404.407 366.15 404.288 366.959 404.049 367.63C403.81 368.297 403.465 368.807 403.013 369.16C402.562 369.509 402.015 369.684 401.373 369.684ZM401.373 368.746C402.009 368.746 402.503 368.439 402.856 367.826C403.208 367.212 403.384 366.337 403.384 365.201C403.384 364.445 403.303 363.802 403.141 363.27C402.982 362.739 402.752 362.334 402.451 362.056C402.153 361.778 401.793 361.638 401.373 361.638C400.742 361.638 400.249 361.949 399.894 362.572C399.539 363.191 399.361 364.067 399.361 365.201C399.361 365.956 399.441 366.599 399.6 367.127C399.759 367.655 399.988 368.057 400.286 368.333C400.587 368.608 400.95 368.746 401.373 368.746Z" fill="#848484"/>
<path d="M462.008 369.564V360.837H467.275V361.775H463.064V364.724H467.002V365.661H463.064V368.627H467.343V369.564H462.008ZM472.913 364.732V365.67H469.095V364.732H472.913ZM477.632 369.684C476.99 369.684 476.443 369.509 475.992 369.16C475.54 368.807 475.195 368.297 474.956 367.63C474.717 366.959 474.598 366.15 474.598 365.201C474.598 364.258 474.717 363.452 474.956 362.785C475.197 362.114 475.544 361.603 475.996 361.251C476.45 360.895 476.996 360.718 477.632 360.718C478.269 360.718 478.813 360.895 479.264 361.251C479.719 361.603 480.065 362.114 480.304 362.785C480.546 363.452 480.666 364.258 480.666 365.201C480.666 366.15 480.547 366.959 480.308 367.63C480.07 368.297 479.724 368.807 479.273 369.16C478.821 369.509 478.274 369.684 477.632 369.684ZM477.632 368.746C478.269 368.746 478.763 368.439 479.115 367.826C479.467 367.212 479.644 366.337 479.644 365.201C479.644 364.445 479.563 363.802 479.401 363.27C479.242 362.739 479.011 362.334 478.71 362.056C478.412 361.778 478.053 361.638 477.632 361.638C477.001 361.638 476.509 361.949 476.153 362.572C475.798 363.191 475.621 364.067 475.621 365.201C475.621 365.956 475.7 366.599 475.859 367.127C476.019 367.655 476.247 368.057 476.546 368.333C476.847 368.608 477.209 368.746 477.632 368.746ZM485.252 369.684C484.61 369.684 484.063 369.509 483.612 369.16C483.16 368.807 482.815 368.297 482.576 367.63C482.337 366.959 482.218 366.15 482.218 365.201C482.218 364.258 482.337 363.452 482.576 362.785C482.817 362.114 483.164 361.603 483.616 361.251C484.07 360.895 484.616 360.718 485.252 360.718C485.889 360.718 486.433 360.895 486.884 361.251C487.339 361.603 487.685 362.114 487.924 362.785C488.166 363.452 488.286 364.258 488.286 365.201C488.286 366.15 488.167 366.959 487.928 367.63C487.69 368.297 487.344 368.807 486.893 369.16C486.441 369.509 485.894 369.684 485.252 369.684ZM485.252 368.746C485.889 368.746 486.383 368.439 486.735 367.826C487.087 367.212 487.264 366.337 487.264 365.201C487.264 364.445 487.183 363.802 487.021 363.27C486.862 362.739 486.631 362.334 486.33 362.056C486.032 361.778 485.673 361.638 485.252 361.638C484.621 361.638 484.129 361.949 483.773 362.572C483.418 363.191 483.241 364.067 483.241 365.201C483.241 365.956 483.32 366.599 483.479 367.127C483.639 367.655 483.867 368.057 484.166 368.333C484.467 368.608 484.829 368.746 485.252 368.746ZM492.872 369.684C492.23 369.684 491.683 369.509 491.232 369.16C490.78 368.807 490.435 368.297 490.196 367.63C489.957 366.959 489.838 366.15 489.838 365.201C489.838 364.258 489.957 363.452 490.196 362.785C490.437 362.114 490.784 361.603 491.236 361.251C491.69 360.895 492.236 360.718 492.872 360.718C493.509 360.718 494.053 360.895 494.504 361.251C494.959 361.603 495.305 362.114 495.544 362.785C495.786 363.452 495.906 364.258 495.906 365.201C495.906 366.15 495.787 366.959 495.548 367.63C495.31 368.297 494.964 368.807 494.513 369.16C494.061 369.509 493.514 369.684 492.872 369.684ZM492.872 368.746C493.509 368.746 494.003 368.439 494.355 367.826C494.707 367.212 494.884 366.337 494.884 365.201C494.884 364.445 494.803 363.802 494.641 363.27C494.482 362.739 494.251 362.334 493.95 362.056C493.652 361.778 493.293 361.638 492.872 361.638C492.241 361.638 491.749 361.949 491.393 362.572C491.038 363.191 490.861 364.067 490.861 365.201C490.861 365.956 490.94 366.599 491.099 367.127C491.259 367.655 491.487 368.057 491.786 368.333C492.087 368.608 492.449 368.746 492.872 368.746ZM500.714 360.837V369.564H499.657V361.945H499.606L497.475 363.36V362.286L499.657 360.837H500.714ZM506.412 360.837V369.564H505.355V361.945H505.304L503.173 363.36V362.286L505.355 360.837H506.412Z" fill="#848484"/>
<rect x="350.339" y="153.914" width="62.9766" height="35.7865" rx="17.8933" fill="white"/>
<rect x="350.339" y="153.914" width="62.9766" height="35.7865" rx="17.8933" stroke="#E0E1E0"/>
<path d="M373.799 167.579V176.307H372.742V168.687H372.691L370.56 170.102V169.028L372.742 167.579H373.799ZM376.663 176.375C376.453 176.375 376.272 176.3 376.122 176.149C375.971 175.998 375.896 175.818 375.896 175.608C375.896 175.398 375.971 175.217 376.122 175.067C376.272 174.916 376.453 174.841 376.663 174.841C376.873 174.841 377.054 174.916 377.204 175.067C377.355 175.217 377.43 175.398 377.43 175.608C377.43 175.747 377.395 175.875 377.324 175.991C377.255 176.108 377.163 176.202 377.047 176.273C376.933 176.341 376.805 176.375 376.663 176.375ZM381.889 176.426C381.389 176.426 380.939 176.327 380.538 176.128C380.138 175.929 379.817 175.656 379.575 175.309C379.334 174.963 379.202 174.568 379.179 174.125H380.202C380.242 174.52 380.42 174.846 380.739 175.105C381.06 175.361 381.443 175.488 381.889 175.488C382.247 175.488 382.565 175.405 382.844 175.237C383.125 175.069 383.345 174.839 383.504 174.547C383.666 174.251 383.747 173.917 383.747 173.545C383.747 173.165 383.663 172.825 383.496 172.527C383.331 172.226 383.104 171.988 382.814 171.815C382.524 171.642 382.193 171.554 381.821 171.551C381.554 171.548 381.28 171.589 380.999 171.675C380.717 171.757 380.486 171.863 380.304 171.994L379.315 171.875L379.844 167.579H384.378V168.517H380.73L380.423 171.091H380.474C380.653 170.949 380.878 170.831 381.148 170.737C381.418 170.643 381.699 170.596 381.992 170.596C382.526 170.596 383.001 170.724 383.419 170.98C383.84 171.233 384.169 171.579 384.408 172.02C384.649 172.46 384.77 172.963 384.77 173.528C384.77 174.085 384.645 174.582 384.395 175.02C384.148 175.454 383.807 175.798 383.372 176.051C382.938 176.301 382.443 176.426 381.889 176.426ZM386.583 176.307V175.54L389.463 172.386C389.801 172.017 390.08 171.696 390.299 171.423C390.517 171.148 390.679 170.889 390.784 170.648C390.892 170.403 390.946 170.148 390.946 169.881C390.946 169.574 390.873 169.308 390.725 169.084C390.58 168.859 390.381 168.686 390.128 168.564C389.875 168.442 389.591 168.381 389.276 168.381C388.941 168.381 388.648 168.45 388.398 168.589C388.151 168.726 387.959 168.917 387.823 169.165C387.689 169.412 387.623 169.702 387.623 170.034H386.617C386.617 169.523 386.735 169.074 386.971 168.687C387.206 168.301 387.527 168 387.934 167.784C388.343 167.568 388.801 167.46 389.31 167.46C389.821 167.46 390.275 167.568 390.669 167.784C391.064 168 391.374 168.291 391.598 168.657C391.823 169.024 391.935 169.432 391.935 169.881C391.935 170.202 391.877 170.515 391.76 170.822C391.647 171.126 391.448 171.466 391.164 171.841C390.882 172.213 390.492 172.667 389.992 173.204L388.032 175.301V175.369H392.088V176.307H386.583Z" fill="black"/>
<rect x="149.025" y="160.312" width="62.9766" height="35.7865" rx="17.8933" fill="white"/>
<rect x="149.025" y="160.312" width="62.9766" height="35.7865" rx="17.8933" stroke="#E0E1E0"/>
<path d="M172.485 173.978V182.705H171.428V175.086H171.377L169.247 176.501V175.427L171.428 173.978H172.485ZM175.35 182.773C175.139 182.773 174.959 182.698 174.808 182.547C174.658 182.397 174.583 182.216 174.583 182.006C174.583 181.796 174.658 181.616 174.808 181.465C174.959 181.314 175.139 181.239 175.35 181.239C175.56 181.239 175.74 181.314 175.891 181.465C176.041 181.616 176.117 181.796 176.117 182.006C176.117 182.145 176.081 182.273 176.01 182.39C175.942 182.506 175.85 182.6 175.733 182.671C175.619 182.739 175.492 182.773 175.35 182.773ZM177.82 180.915V180.046L181.655 173.978H182.286V175.324H181.859L178.962 179.91V179.978H184.127V180.915H177.82ZM181.928 182.705V180.651V180.246V173.978H182.933V182.705H181.928ZM188.571 182.824C188.071 182.824 187.62 182.725 187.22 182.526C186.819 182.327 186.498 182.055 186.257 181.708C186.015 181.361 185.883 180.966 185.861 180.523H186.883C186.923 180.918 187.102 181.245 187.42 181.503C187.741 181.759 188.125 181.887 188.571 181.887C188.929 181.887 189.247 181.803 189.525 181.635C189.807 181.468 190.027 181.238 190.186 180.945C190.348 180.65 190.429 180.316 190.429 179.944C190.429 179.563 190.345 179.224 190.177 178.925C190.013 178.624 189.785 178.387 189.495 178.214C189.206 178.04 188.875 177.952 188.503 177.949C188.236 177.947 187.961 177.988 187.68 178.073C187.399 178.155 187.167 178.262 186.986 178.393L185.997 178.273L186.525 173.978H191.059V174.915H187.412L187.105 177.489H187.156C187.335 177.347 187.559 177.229 187.829 177.135C188.099 177.042 188.38 176.995 188.673 176.995C189.207 176.995 189.683 177.123 190.101 177.378C190.521 177.631 190.851 177.978 191.089 178.418C191.331 178.858 191.451 179.361 191.451 179.927C191.451 180.483 191.326 180.981 191.076 181.418C190.829 181.853 190.488 182.197 190.054 182.449C189.619 182.699 189.125 182.824 188.571 182.824Z" fill="black"/>
<rect x="47.5" y="179.854" width="62.9766" height="35.7865" rx="17.8933" fill="#595959"/>
<rect x="47.5" y="179.854" width="62.9766" height="35.7865" rx="17.8933" stroke="#595959"/>
<path d="M70.9599 193.519V202.246H69.9031V194.627H69.8519L67.7212 196.042V194.968L69.9031 193.519H70.9599ZM73.8242 202.314C73.614 202.314 73.4336 202.239 73.283 202.088C73.1324 201.938 73.0571 201.757 73.0571 201.547C73.0571 201.337 73.1324 201.157 73.283 201.006C73.4336 200.855 73.614 200.78 73.8242 200.78C74.0344 200.78 74.2148 200.855 74.3654 201.006C74.516 201.157 74.5912 201.337 74.5912 201.547C74.5912 201.686 74.5557 201.814 74.4847 201.931C74.4165 202.047 74.3242 202.141 74.2077 202.212C74.0941 202.28 73.9662 202.314 73.8242 202.314ZM79.0919 202.365C78.734 202.36 78.376 202.292 78.0181 202.161C77.6601 202.03 77.3334 201.81 77.0379 201.5C76.7425 201.188 76.5053 200.766 76.3263 200.235C76.1473 199.701 76.0578 199.03 76.0578 198.223C76.0578 197.451 76.1303 196.766 76.2752 196.169C76.42 195.57 76.6303 195.066 76.9058 194.657C77.1814 194.245 77.5138 193.932 77.903 193.719C78.295 193.506 78.7368 193.4 79.2283 193.4C79.7169 193.4 80.1516 193.498 80.5323 193.694C80.9158 193.887 81.2283 194.157 81.4698 194.503C81.7112 194.85 81.8675 195.249 81.9385 195.701H80.8987C80.8021 195.309 80.6146 194.983 80.3362 194.725C80.0578 194.466 79.6885 194.337 79.2283 194.337C78.5521 194.337 78.0195 194.631 77.6303 195.219C77.2439 195.807 77.0493 196.632 77.0465 197.695H77.1146C77.2737 197.453 77.4627 197.248 77.6814 197.077C77.903 196.904 78.1473 196.77 78.4144 196.676C78.6814 196.583 78.9641 196.536 79.2624 196.536C79.7624 196.536 80.2198 196.661 80.6345 196.911C81.0493 197.158 81.3817 197.5 81.6317 197.938C81.8817 198.373 82.0067 198.871 82.0067 199.434C82.0067 199.973 81.886 200.468 81.6445 200.917C81.403 201.363 81.0635 201.718 80.626 201.982C80.1913 202.243 79.68 202.371 79.0919 202.365ZM79.0919 201.428C79.4499 201.428 79.7709 201.338 80.055 201.159C80.3419 200.98 80.5678 200.74 80.7325 200.439C80.9002 200.138 80.984 199.803 80.984 199.434C80.984 199.073 80.903 198.745 80.7411 198.449C80.582 198.151 80.3618 197.914 80.0806 197.738C79.8021 197.561 79.484 197.473 79.126 197.473C78.8561 197.473 78.6047 197.527 78.3717 197.635C78.1388 197.74 77.9342 197.885 77.7581 198.07C77.5848 198.255 77.4485 198.466 77.349 198.705C77.2496 198.941 77.1999 199.189 77.1999 199.451C77.1999 199.797 77.2808 200.121 77.4428 200.422C77.6075 200.723 77.832 200.966 78.1161 201.151C78.403 201.336 78.7283 201.428 79.0919 201.428ZM86.6491 202.365C86.007 202.365 85.4601 202.191 85.0084 201.841C84.5567 201.489 84.2116 200.979 83.9729 200.311C83.7343 199.641 83.615 198.831 83.615 197.882C83.615 196.939 83.7343 196.134 83.9729 195.466C84.2144 194.796 84.561 194.284 85.0127 193.932C85.4672 193.577 86.0127 193.4 86.6491 193.4C87.2854 193.4 87.8295 193.577 88.2812 193.932C88.7357 194.284 89.0823 194.796 89.3209 195.466C89.5624 196.134 89.6832 196.939 89.6832 197.882C89.6832 198.831 89.5638 199.641 89.3252 200.311C89.0866 200.979 88.7414 201.489 88.2897 201.841C87.838 202.191 87.2911 202.365 86.6491 202.365ZM86.6491 201.428C87.2854 201.428 87.7797 201.121 88.132 200.507C88.4843 199.894 88.6604 199.019 88.6604 197.882C88.6604 197.127 88.5795 196.483 88.4175 195.952C88.2584 195.421 88.0283 195.016 87.7272 194.738C87.4289 194.459 87.0695 194.32 86.6491 194.32C86.0184 194.32 85.5255 194.631 85.1704 195.253C84.8153 195.873 84.6377 196.749 84.6377 197.882C84.6377 198.638 84.7172 199.28 84.8763 199.809C85.0354 200.337 85.2641 200.739 85.5624 201.015C85.8636 201.29 86.2258 201.428 86.6491 201.428Z" fill="white"/>
<rect x="250.482" y="113.93" width="59.7777" height="35.7865" rx="17.8933" fill="white"/>
<rect x="250.482" y="113.93" width="59.7777" height="35.7865" rx="17.8933" stroke="#E0E1E0"/>
<path d="M273.343 127.595V136.322H272.286V128.703H272.235L270.104 130.118V129.044L272.286 127.595H273.343ZM276.207 136.39C275.997 136.39 275.816 136.315 275.666 136.165C275.515 136.014 275.44 135.834 275.44 135.623C275.44 135.413 275.515 135.233 275.666 135.082C275.816 134.932 275.997 134.856 276.207 134.856C276.417 134.856 276.598 134.932 276.748 135.082C276.899 135.233 276.974 135.413 276.974 135.623C276.974 135.763 276.939 135.89 276.868 136.007C276.799 136.123 276.707 136.217 276.591 136.288C276.477 136.356 276.349 136.39 276.207 136.39ZM281.408 136.442C280.822 136.442 280.305 136.338 279.856 136.131C279.41 135.92 279.062 135.632 278.812 135.265C278.562 134.896 278.439 134.476 278.442 134.004C278.439 133.635 278.511 133.294 278.659 132.981C278.807 132.666 279.008 132.403 279.264 132.193C279.523 131.98 279.811 131.845 280.129 131.788V131.737C279.712 131.629 279.379 131.395 279.132 131.034C278.885 130.67 278.763 130.257 278.766 129.794C278.763 129.351 278.875 128.954 279.102 128.605C279.329 128.256 279.642 127.98 280.04 127.778C280.44 127.577 280.896 127.476 281.408 127.476C281.913 127.476 282.365 127.577 282.763 127.778C283.16 127.98 283.473 128.256 283.7 128.605C283.93 128.954 284.047 129.351 284.05 129.794C284.047 130.257 283.92 130.67 283.67 131.034C283.423 131.395 283.095 131.629 282.686 131.737V131.788C283.001 131.845 283.285 131.98 283.538 132.193C283.791 132.403 283.993 132.666 284.143 132.981C284.294 133.294 284.371 133.635 284.374 134.004C284.371 134.476 284.243 134.896 283.99 135.265C283.74 135.632 283.392 135.92 282.946 136.131C282.503 136.338 281.99 136.442 281.408 136.442ZM281.408 135.504C281.802 135.504 282.143 135.44 282.43 135.312C282.717 135.184 282.939 135.004 283.095 134.771C283.251 134.538 283.331 134.265 283.334 133.953C283.331 133.623 283.246 133.332 283.078 133.079C282.91 132.827 282.682 132.628 282.392 132.483C282.105 132.338 281.777 132.265 281.408 132.265C281.035 132.265 280.703 132.338 280.41 132.483C280.121 132.628 279.892 132.827 279.724 133.079C279.56 133.332 279.479 133.623 279.481 133.953C279.479 134.265 279.554 134.538 279.707 134.771C279.864 135.004 280.087 135.184 280.376 135.312C280.666 135.44 281.01 135.504 281.408 135.504ZM281.408 131.362C281.72 131.362 281.997 131.3 282.239 131.175C282.483 131.05 282.675 130.875 282.814 130.65C282.953 130.426 283.024 130.163 283.027 129.862C283.024 129.567 282.954 129.309 282.818 129.091C282.682 128.869 282.493 128.699 282.251 128.579C282.01 128.457 281.729 128.396 281.408 128.396C281.081 128.396 280.795 128.457 280.551 128.579C280.307 128.699 280.118 128.869 279.984 129.091C279.851 129.309 279.785 129.567 279.788 129.862C279.785 130.163 279.852 130.426 279.989 130.65C280.128 130.875 280.32 131.05 280.564 131.175C280.808 131.3 281.089 131.362 281.408 131.362ZM289.195 127.595V136.322H288.138V128.703H288.087L285.956 130.118V129.044L288.138 127.595H289.195Z" fill="black"/>
<rect x="451.797" y="144.318" width="62.9766" height="35.7865" rx="17.8933" fill="white"/>
<rect x="451.797" y="144.318" width="62.9766" height="35.7865" rx="17.8933" stroke="#E0E1E0"/>
<path d="M475.257 157.984V166.711H474.2V159.092H474.149L472.018 160.506V159.433L474.2 157.984H475.257ZM478.121 166.779C477.911 166.779 477.73 166.704 477.58 166.553C477.429 166.403 477.354 166.222 477.354 166.012C477.354 165.802 477.429 165.621 477.58 165.471C477.73 165.32 477.911 165.245 478.121 165.245C478.331 165.245 478.512 165.32 478.662 165.471C478.813 165.621 478.888 165.802 478.888 166.012C478.888 166.151 478.853 166.279 478.782 166.396C478.713 166.512 478.621 166.606 478.505 166.677C478.391 166.745 478.263 166.779 478.121 166.779ZM483.389 166.83C483.031 166.825 482.673 166.756 482.315 166.626C481.957 166.495 481.63 166.275 481.335 165.965C481.039 165.653 480.802 165.231 480.623 164.7C480.444 164.165 480.355 163.495 480.355 162.688C480.355 161.915 480.427 161.231 480.572 160.634C480.717 160.035 480.927 159.531 481.203 159.121C481.478 158.71 481.811 158.397 482.2 158.184C482.592 157.971 483.034 157.864 483.525 157.864C484.014 157.864 484.448 157.962 484.829 158.158C485.213 158.352 485.525 158.621 485.767 158.968C486.008 159.315 486.164 159.714 486.235 160.165H485.196C485.099 159.773 484.912 159.448 484.633 159.19C484.355 158.931 483.985 158.802 483.525 158.802C482.849 158.802 482.316 159.096 481.927 159.684C481.541 160.272 481.346 161.097 481.343 162.16H481.412C481.571 161.918 481.76 161.712 481.978 161.542C482.2 161.369 482.444 161.235 482.711 161.141C482.978 161.048 483.261 161.001 483.559 161.001C484.059 161.001 484.517 161.126 484.931 161.376C485.346 161.623 485.679 161.965 485.929 162.403C486.179 162.837 486.304 163.336 486.304 163.898C486.304 164.438 486.183 164.933 485.941 165.381C485.7 165.827 485.36 166.183 484.923 166.447C484.488 166.708 483.977 166.836 483.389 166.83ZM483.389 165.893C483.747 165.893 484.068 165.803 484.352 165.624C484.639 165.445 484.865 165.205 485.029 164.904C485.197 164.603 485.281 164.268 485.281 163.898C485.281 163.538 485.2 163.21 485.038 162.914C484.879 162.616 484.659 162.379 484.377 162.202C484.099 162.026 483.781 161.938 483.423 161.938C483.153 161.938 482.902 161.992 482.669 162.1C482.436 162.205 482.231 162.35 482.055 162.535C481.882 162.719 481.745 162.931 481.646 163.17C481.546 163.406 481.497 163.654 481.497 163.915C481.497 164.262 481.578 164.586 481.74 164.887C481.904 165.188 482.129 165.431 482.413 165.616C482.7 165.8 483.025 165.893 483.389 165.893ZM490.827 166.83C490.327 166.83 489.876 166.731 489.476 166.532C489.075 166.333 488.754 166.06 488.513 165.714C488.271 165.367 488.139 164.972 488.116 164.529H489.139C489.179 164.924 489.358 165.251 489.676 165.509C489.997 165.765 490.381 165.893 490.827 165.893C491.185 165.893 491.503 165.809 491.781 165.641C492.062 165.474 492.283 165.244 492.442 164.951C492.604 164.656 492.685 164.322 492.685 163.95C492.685 163.569 492.601 163.229 492.433 162.931C492.268 162.63 492.041 162.393 491.751 162.219C491.462 162.046 491.131 161.958 490.758 161.955C490.491 161.952 490.217 161.994 489.936 162.079C489.655 162.161 489.423 162.268 489.241 162.398L488.253 162.279L488.781 157.984H493.315V158.921H489.668L489.361 161.495H489.412C489.591 161.353 489.815 161.235 490.085 161.141C490.355 161.048 490.636 161.001 490.929 161.001C491.463 161.001 491.939 161.129 492.356 161.384C492.777 161.637 493.106 161.984 493.345 162.424C493.587 162.864 493.707 163.367 493.707 163.933C493.707 164.489 493.582 164.987 493.332 165.424C493.085 165.859 492.744 166.202 492.31 166.455C491.875 166.705 491.381 166.83 490.827 166.83Z" fill="black"/>
<path d="M206.103 343.558V238.384C206.103 224.029 194.639 212.406 180.513 212.406C166.386 212.406 154.922 224.029 154.922 238.384V343.558H206.103Z" fill="url(#paint0_linear_1657_7103)"/>
<path d="M307.561 343.56V188.923C307.561 174.502 295.738 162.826 281.171 162.826C266.588 162.826 254.78 174.517 254.78 188.923V343.56H307.561Z" fill="url(#paint1_linear_1657_7103)"/>
<path d="M409.017 343.559V230.388C409.017 216.033 397.194 204.41 382.627 204.41C368.044 204.41 356.236 216.048 356.236 230.388V343.559H409.017Z" fill="url(#paint2_linear_1657_7103)"/>
<path d="M510.475 343.558V221.925C510.475 206.059 498.652 193.213 484.085 193.213C469.502 193.213 457.694 206.076 457.694 221.925V343.558H510.475Z" fill="url(#paint3_linear_1657_7103)"/>
<defs>
<linearGradient id="paint0_linear_1657_7103" x1="169.089" y1="207.885" x2="169.072" y2="343.901" gradientUnits="userSpaceOnUse">
<stop offset="0.0673077" stop-color="#3AE28E"/>
<stop offset="1" stop-color="#00D6E1"/>
</linearGradient>
<linearGradient id="paint1_linear_1657_7103" x1="269.39" y1="156.596" x2="269.359" y2="344.033" gradientUnits="userSpaceOnUse">
<stop offset="0.0673077" stop-color="#3AE28E"/>
<stop offset="1" stop-color="#00D6E1"/>
</linearGradient>
<linearGradient id="paint2_linear_1657_7103" x1="370.846" y1="199.614" x2="370.828" y2="343.923" gradientUnits="userSpaceOnUse">
<stop offset="0.0673077" stop-color="#3AE28E"/>
<stop offset="1" stop-color="#00D6E1"/>
</linearGradient>
<linearGradient id="paint3_linear_1657_7103" x1="472.304" y1="188.03" x2="472.283" y2="343.951" gradientUnits="userSpaceOnUse">
<stop offset="0.0673077" stop-color="#3AE28E"/>
<stop offset="1" stop-color="#00D6E1"/>
</linearGradient>
</defs>
</svg>
