<svg width="250" height="86" viewBox="0 0 250 86" fill="none" xmlns="http://www.w3.org/2000/svg">
<rect width="250" height="86" rx="16" fill="white"/>
<path d="M16.8239 28.8409V27.1648L21.7614 19.3636H23.1591V21.75H22.3068L18.983 27.017V27.108H25.875V28.8409H16.8239ZM22.375 31V28.3295L22.3977 27.5795V19.3636H24.3864V31H22.375ZM32.4631 18.8182L28.7131 32.75H26.9119L30.6619 18.8182H32.4631ZM37.7983 31.1591C37.0407 31.1591 36.3627 31.017 35.7642 30.733C35.1657 30.4451 34.6903 30.0511 34.3381 29.5511C33.9896 29.0511 33.804 28.4792 33.7812 27.8352H35.8267C35.8646 28.3125 36.071 28.7027 36.446 29.0057C36.821 29.3049 37.2718 29.4545 37.7983 29.4545C38.2112 29.4545 38.5786 29.3598 38.9006 29.1705C39.2225 28.9811 39.4763 28.7178 39.6619 28.3807C39.8475 28.0436 39.9384 27.6591 39.9347 27.2273C39.9384 26.7879 39.8456 26.3977 39.6562 26.0568C39.4669 25.7159 39.2074 25.4489 38.8778 25.2557C38.5483 25.0587 38.1695 24.9602 37.7415 24.9602C37.393 24.9564 37.0502 25.0208 36.7131 25.1534C36.3759 25.286 36.1089 25.4602 35.9119 25.6761L34.0085 25.3636L34.6165 19.3636H41.3665V21.125H36.3608L36.0256 24.2102H36.0938C36.3097 23.9564 36.6146 23.7462 37.0085 23.5795C37.4025 23.4091 37.8343 23.3239 38.304 23.3239C39.0085 23.3239 39.6373 23.4905 40.1903 23.8239C40.7434 24.1534 41.179 24.608 41.4972 25.1875C41.8153 25.767 41.9744 26.4299 41.9744 27.1761C41.9744 27.9451 41.7964 28.6307 41.4403 29.233C41.0881 29.8314 40.5975 30.303 39.9688 30.6477C39.3438 30.9886 38.6203 31.1591 37.7983 31.1591ZM47.9602 31V19.3636H52.3239C53.2178 19.3636 53.9678 19.5189 54.5739 19.8295C55.1837 20.1402 55.6439 20.5758 55.9545 21.1364C56.2689 21.6932 56.4261 22.3428 56.4261 23.0852C56.4261 23.8314 56.267 24.4792 55.9489 25.0284C55.6345 25.5739 55.1705 25.9962 54.5568 26.2955C53.9432 26.5909 53.1894 26.7386 52.2955 26.7386H49.1875V24.9886H52.0114C52.5341 24.9886 52.9621 24.9167 53.2955 24.7727C53.6288 24.625 53.875 24.411 54.0341 24.1307C54.197 23.8466 54.2784 23.4981 54.2784 23.0852C54.2784 22.6723 54.197 22.3201 54.0341 22.0284C53.8712 21.733 53.6231 21.5095 53.2898 21.358C52.9564 21.2027 52.5265 21.125 52 21.125H50.0682V31H47.9602ZM53.9716 25.7273L56.8523 31H54.5L51.6705 25.7273H53.9716ZM58.2756 31V22.2727H60.3324V31H58.2756ZM59.3097 21.0341C58.9839 21.0341 58.7036 20.9261 58.4688 20.7102C58.2339 20.4905 58.1165 20.2273 58.1165 19.9205C58.1165 19.6098 58.2339 19.3466 58.4688 19.1307C58.7036 18.911 58.9839 18.8011 59.3097 18.8011C59.6392 18.8011 59.9195 18.911 60.1506 19.1307C60.3854 19.3466 60.5028 19.6098 60.5028 19.9205C60.5028 20.2273 60.3854 20.4905 60.1506 20.7102C59.9195 20.9261 59.6392 21.0341 59.3097 21.0341ZM69.3452 24.5795L67.4702 24.7841C67.4171 24.5947 67.3243 24.4167 67.1918 24.25C67.063 24.0833 66.8887 23.9489 66.669 23.8466C66.4493 23.7443 66.1804 23.6932 65.8622 23.6932C65.4342 23.6932 65.0743 23.786 64.7827 23.9716C64.4948 24.1572 64.3527 24.3977 64.3565 24.6932C64.3527 24.947 64.4455 25.1534 64.6349 25.3125C64.8281 25.4716 65.1463 25.6023 65.5895 25.7045L67.0781 26.0227C67.9039 26.2008 68.5175 26.483 68.919 26.8693C69.3243 27.2557 69.5289 27.7614 69.5327 28.3864C69.5289 28.9356 69.3679 29.4205 69.0497 29.8409C68.7353 30.2576 68.2978 30.5833 67.7372 30.8182C67.1766 31.053 66.5327 31.1705 65.8054 31.1705C64.7372 31.1705 63.8774 30.947 63.2259 30.5C62.5743 30.0492 62.1861 29.4223 62.0611 28.6193L64.0668 28.4261C64.1577 28.8201 64.3509 29.1174 64.6463 29.3182C64.9418 29.5189 65.3262 29.6193 65.7997 29.6193C66.2884 29.6193 66.6804 29.5189 66.9759 29.3182C67.2751 29.1174 67.4247 28.8693 67.4247 28.5739C67.4247 28.3239 67.3281 28.1174 67.1349 27.9545C66.9455 27.7917 66.6501 27.6667 66.2486 27.5795L64.7599 27.267C63.9228 27.0928 63.3035 26.7992 62.902 26.3864C62.5005 25.9697 62.3016 25.4432 62.3054 24.8068C62.3016 24.2689 62.4474 23.803 62.7429 23.4091C63.0421 23.0114 63.4569 22.7045 63.9872 22.4886C64.5213 22.2689 65.1368 22.1591 65.8338 22.1591C66.8565 22.1591 67.6615 22.3769 68.2486 22.8125C68.8395 23.2481 69.205 23.8371 69.3452 24.5795ZM73.1037 28.2614L73.098 25.7784H73.4276L76.5639 22.2727H78.9673L75.1094 26.5682H74.6832L73.1037 28.2614ZM71.2287 31V19.3636H73.2855V31H71.2287ZM76.706 31L73.8651 27.0284L75.2514 25.5795L79.1662 31H76.706ZM85.892 31H83.642L87.7386 19.3636H90.3409L94.4432 31H92.1932L89.0852 21.75H88.9943L85.892 31ZM85.9659 26.4375H92.1023V28.1307H85.9659V26.4375ZM102.642 24.5795L100.767 24.7841C100.714 24.5947 100.621 24.4167 100.489 24.25C100.36 24.0833 100.186 23.9489 99.9659 23.8466C99.7462 23.7443 99.4773 23.6932 99.1591 23.6932C98.7311 23.6932 98.3712 23.786 98.0795 23.9716C97.7917 24.1572 97.6496 24.3977 97.6534 24.6932C97.6496 24.947 97.7424 25.1534 97.9318 25.3125C98.125 25.4716 98.4432 25.6023 98.8864 25.7045L100.375 26.0227C101.201 26.2008 101.814 26.483 102.216 26.8693C102.621 27.2557 102.826 27.7614 102.83 28.3864C102.826 28.9356 102.665 29.4205 102.347 29.8409C102.032 30.2576 101.595 30.5833 101.034 30.8182C100.473 31.053 99.8295 31.1705 99.1023 31.1705C98.0341 31.1705 97.1742 30.947 96.5227 30.5C95.8712 30.0492 95.483 29.4223 95.358 28.6193L97.3636 28.4261C97.4545 28.8201 97.6477 29.1174 97.9432 29.3182C98.2386 29.5189 98.6231 29.6193 99.0966 29.6193C99.5852 29.6193 99.9773 29.5189 100.273 29.3182C100.572 29.1174 100.722 28.8693 100.722 28.5739C100.722 28.3239 100.625 28.1174 100.432 27.9545C100.242 27.7917 99.947 27.6667 99.5455 27.5795L98.0568 27.267C97.2197 27.0928 96.6004 26.7992 96.1989 26.3864C95.7973 25.9697 95.5985 25.4432 95.6023 24.8068C95.5985 24.2689 95.7443 23.803 96.0398 23.4091C96.339 23.0114 96.7538 22.7045 97.2841 22.4886C97.8182 22.2689 98.4337 22.1591 99.1307 22.1591C100.153 22.1591 100.958 22.3769 101.545 22.8125C102.136 23.2481 102.502 23.8371 102.642 24.5795ZM111.423 24.5795L109.548 24.7841C109.495 24.5947 109.402 24.4167 109.27 24.25C109.141 24.0833 108.967 23.9489 108.747 23.8466C108.527 23.7443 108.259 23.6932 107.94 23.6932C107.512 23.6932 107.152 23.786 106.861 23.9716C106.573 24.1572 106.431 24.3977 106.435 24.6932C106.431 24.947 106.524 25.1534 106.713 25.3125C106.906 25.4716 107.224 25.6023 107.668 25.7045L109.156 26.0227C109.982 26.2008 110.596 26.483 110.997 26.8693C111.402 27.2557 111.607 27.7614 111.611 28.3864C111.607 28.9356 111.446 29.4205 111.128 29.8409C110.813 30.2576 110.376 30.5833 109.815 30.8182C109.255 31.053 108.611 31.1705 107.884 31.1705C106.815 31.1705 105.955 30.947 105.304 30.5C104.652 30.0492 104.264 29.4223 104.139 28.6193L106.145 28.4261C106.236 28.8201 106.429 29.1174 106.724 29.3182C107.02 29.5189 107.404 29.6193 107.878 29.6193C108.366 29.6193 108.759 29.5189 109.054 29.3182C109.353 29.1174 109.503 28.8693 109.503 28.5739C109.503 28.3239 109.406 28.1174 109.213 27.9545C109.024 27.7917 108.728 27.6667 108.327 27.5795L106.838 27.267C106.001 27.0928 105.382 26.7992 104.98 26.3864C104.579 25.9697 104.38 25.4432 104.384 24.8068C104.38 24.2689 104.526 23.803 104.821 23.4091C105.12 23.0114 105.535 22.7045 106.065 22.4886C106.599 22.2689 107.215 22.1591 107.912 22.1591C108.935 22.1591 109.74 22.3769 110.327 22.8125C110.918 23.2481 111.283 23.8371 111.423 24.5795ZM117.17 31.1705C116.295 31.1705 115.54 30.9886 114.903 30.625C114.271 30.2576 113.784 29.7386 113.443 29.0682C113.102 28.3939 112.932 27.6004 112.932 26.6875C112.932 25.7898 113.102 25.0019 113.443 24.3239C113.788 23.642 114.269 23.1117 114.886 22.733C115.504 22.3504 116.229 22.1591 117.062 22.1591C117.6 22.1591 118.108 22.2462 118.585 22.4205C119.066 22.5909 119.491 22.8561 119.858 23.2159C120.229 23.5758 120.521 24.0341 120.733 24.5909C120.945 25.1439 121.051 25.803 121.051 26.5682V27.1989H113.898V25.8125H119.08C119.076 25.4186 118.991 25.0682 118.824 24.7614C118.657 24.4508 118.424 24.2064 118.125 24.0284C117.83 23.8504 117.485 23.7614 117.091 23.7614C116.67 23.7614 116.301 23.8636 115.983 24.0682C115.665 24.2689 115.417 24.5341 115.239 24.8636C115.064 25.1894 114.975 25.5473 114.972 25.9375V27.1477C114.972 27.6553 115.064 28.0909 115.25 28.4545C115.436 28.8144 115.695 29.0909 116.028 29.2841C116.362 29.4735 116.752 29.5682 117.199 29.5682C117.498 29.5682 117.769 29.5265 118.011 29.4432C118.254 29.3561 118.464 29.2292 118.642 29.0625C118.82 28.8958 118.955 28.6894 119.045 28.4432L120.966 28.6591C120.845 29.1667 120.614 29.6098 120.273 29.9886C119.936 30.3636 119.504 30.6553 118.977 30.8636C118.451 31.0682 117.848 31.1705 117.17 31.1705ZM129.689 24.5795L127.814 24.7841C127.761 24.5947 127.668 24.4167 127.536 24.25C127.407 24.0833 127.232 23.9489 127.013 23.8466C126.793 23.7443 126.524 23.6932 126.206 23.6932C125.778 23.6932 125.418 23.786 125.126 23.9716C124.839 24.1572 124.696 24.3977 124.7 24.6932C124.696 24.947 124.789 25.1534 124.979 25.3125C125.172 25.4716 125.49 25.6023 125.933 25.7045L127.422 26.0227C128.248 26.2008 128.861 26.483 129.263 26.8693C129.668 27.2557 129.873 27.7614 129.876 28.3864C129.873 28.9356 129.712 29.4205 129.393 29.8409C129.079 30.2576 128.642 30.5833 128.081 30.8182C127.52 31.053 126.876 31.1705 126.149 31.1705C125.081 31.1705 124.221 30.947 123.57 30.5C122.918 30.0492 122.53 29.4223 122.405 28.6193L124.411 28.4261C124.501 28.8201 124.695 29.1174 124.99 29.3182C125.286 29.5189 125.67 29.6193 126.143 29.6193C126.632 29.6193 127.024 29.5189 127.32 29.3182C127.619 29.1174 127.768 28.8693 127.768 28.5739C127.768 28.3239 127.672 28.1174 127.479 27.9545C127.289 27.7917 126.994 27.6667 126.592 27.5795L125.104 27.267C124.267 27.0928 123.647 26.7992 123.246 26.3864C122.844 25.9697 122.645 25.4432 122.649 24.8068C122.645 24.2689 122.791 23.803 123.087 23.4091C123.386 23.0114 123.801 22.7045 124.331 22.4886C124.865 22.2689 125.481 22.1591 126.178 22.1591C127.2 22.1591 128.005 22.3769 128.592 22.8125C129.183 23.2481 129.549 23.8371 129.689 24.5795ZM138.47 24.5795L136.595 24.7841C136.542 24.5947 136.449 24.4167 136.317 24.25C136.188 24.0833 136.014 23.9489 135.794 23.8466C135.574 23.7443 135.305 23.6932 134.987 23.6932C134.559 23.6932 134.199 23.786 133.908 23.9716C133.62 24.1572 133.478 24.3977 133.482 24.6932C133.478 24.947 133.571 25.1534 133.76 25.3125C133.953 25.4716 134.271 25.6023 134.714 25.7045L136.203 26.0227C137.029 26.2008 137.643 26.483 138.044 26.8693C138.449 27.2557 138.654 27.7614 138.658 28.3864C138.654 28.9356 138.493 29.4205 138.175 29.8409C137.86 30.2576 137.423 30.5833 136.862 30.8182C136.302 31.053 135.658 31.1705 134.93 31.1705C133.862 31.1705 133.002 30.947 132.351 30.5C131.699 30.0492 131.311 29.4223 131.186 28.6193L133.192 28.4261C133.283 28.8201 133.476 29.1174 133.771 29.3182C134.067 29.5189 134.451 29.6193 134.925 29.6193C135.413 29.6193 135.805 29.5189 136.101 29.3182C136.4 29.1174 136.55 28.8693 136.55 28.5739C136.55 28.3239 136.453 28.1174 136.26 27.9545C136.071 27.7917 135.775 27.6667 135.374 27.5795L133.885 27.267C133.048 27.0928 132.429 26.7992 132.027 26.3864C131.625 25.9697 131.427 25.4432 131.43 24.8068C131.427 24.2689 131.572 23.803 131.868 23.4091C132.167 23.0114 132.582 22.7045 133.112 22.4886C133.646 22.2689 134.262 22.1591 134.959 22.1591C135.982 22.1591 136.786 22.3769 137.374 22.8125C137.964 23.2481 138.33 23.8371 138.47 24.5795ZM140.354 31V22.2727H142.32V23.7557H142.422C142.604 23.2557 142.905 22.8655 143.325 22.5852C143.746 22.3011 144.248 22.1591 144.831 22.1591C145.422 22.1591 145.92 22.303 146.325 22.5909C146.734 22.875 147.022 23.2633 147.189 23.7557H147.28C147.473 23.2708 147.799 22.8845 148.257 22.5966C148.719 22.3049 149.267 22.1591 149.899 22.1591C150.702 22.1591 151.357 22.4129 151.865 22.9205C152.373 23.428 152.626 24.1686 152.626 25.142V31H150.564V25.4602C150.564 24.9186 150.42 24.5227 150.132 24.2727C149.844 24.0189 149.492 23.892 149.075 23.892C148.579 23.892 148.191 24.0473 147.911 24.358C147.634 24.6648 147.496 25.0644 147.496 25.5568V31H145.479V25.375C145.479 24.9242 145.342 24.5644 145.07 24.2955C144.801 24.0265 144.448 23.892 144.013 23.892C143.717 23.892 143.448 23.9678 143.206 24.1193C142.964 24.267 142.77 24.4773 142.626 24.75C142.482 25.0189 142.411 25.3333 142.411 25.6932V31H140.354ZM158.577 31.1705C157.702 31.1705 156.946 30.9886 156.31 30.625C155.677 30.2576 155.19 29.7386 154.849 29.0682C154.509 28.3939 154.338 27.6004 154.338 26.6875C154.338 25.7898 154.509 25.0019 154.849 24.3239C155.194 23.642 155.675 23.1117 156.293 22.733C156.91 22.3504 157.635 22.1591 158.469 22.1591C159.007 22.1591 159.514 22.2462 159.991 22.4205C160.473 22.5909 160.897 22.8561 161.264 23.2159C161.635 23.5758 161.927 24.0341 162.139 24.5909C162.351 25.1439 162.457 25.803 162.457 26.5682V27.1989H155.304V25.8125H160.486C160.482 25.4186 160.397 25.0682 160.23 24.7614C160.063 24.4508 159.83 24.2064 159.531 24.0284C159.236 23.8504 158.891 23.7614 158.497 23.7614C158.077 23.7614 157.707 23.8636 157.389 24.0682C157.071 24.2689 156.823 24.5341 156.645 24.8636C156.471 25.1894 156.382 25.5473 156.378 25.9375V27.1477C156.378 27.6553 156.471 28.0909 156.656 28.4545C156.842 28.8144 157.101 29.0909 157.435 29.2841C157.768 29.4735 158.158 29.5682 158.605 29.5682C158.904 29.5682 159.175 29.5265 159.418 29.4432C159.66 29.3561 159.87 29.2292 160.048 29.0625C160.226 28.8958 160.361 28.6894 160.452 28.4432L162.372 28.6591C162.251 29.1667 162.02 29.6098 161.679 29.9886C161.342 30.3636 160.91 30.6553 160.384 30.8636C159.857 31.0682 159.255 31.1705 158.577 31.1705ZM166.254 25.8864V31H164.197V22.2727H166.163V23.7557H166.266C166.466 23.267 166.786 22.8788 167.226 22.5909C167.669 22.303 168.216 22.1591 168.868 22.1591C169.47 22.1591 169.995 22.2879 170.442 22.5455C170.893 22.803 171.241 23.1761 171.487 23.6648C171.737 24.1534 171.86 24.7462 171.857 25.4432V31H169.8V25.7614C169.8 25.178 169.648 24.7216 169.345 24.392C169.046 24.0625 168.631 23.8977 168.101 23.8977C167.741 23.8977 167.421 23.9773 167.141 24.1364C166.864 24.2917 166.646 24.517 166.487 24.8125C166.332 25.108 166.254 25.4659 166.254 25.8864ZM178.305 22.2727V23.8636H173.288V22.2727H178.305ZM174.527 20.1818H176.584V28.375C176.584 28.6515 176.625 28.8636 176.709 29.0114C176.796 29.1553 176.91 29.2538 177.05 29.3068C177.19 29.3598 177.345 29.3864 177.516 29.3864C177.644 29.3864 177.762 29.3769 177.868 29.358C177.978 29.339 178.061 29.322 178.118 29.3068L178.464 30.9148C178.355 30.9527 178.197 30.9943 177.993 31.0398C177.792 31.0852 177.546 31.1117 177.254 31.1193C176.739 31.1345 176.275 31.0568 175.862 30.8864C175.449 30.7121 175.122 30.4432 174.879 30.0795C174.641 29.7159 174.523 29.2614 174.527 28.7159V20.1818Z" fill="white"/>
<path d="M16.8239 28.8409V27.1648L21.7614 19.3636H23.1591V21.75H22.3068L18.983 27.017V27.108H25.875V28.8409H16.8239ZM22.375 31V28.3295L22.3977 27.5795V19.3636H24.3864V31H22.375ZM32.4631 18.8182L28.7131 32.75H26.9119L30.6619 18.8182H32.4631ZM37.7983 31.1591C37.0407 31.1591 36.3627 31.017 35.7642 30.733C35.1657 30.4451 34.6903 30.0511 34.3381 29.5511C33.9896 29.0511 33.804 28.4792 33.7812 27.8352H35.8267C35.8646 28.3125 36.071 28.7027 36.446 29.0057C36.821 29.3049 37.2718 29.4545 37.7983 29.4545C38.2112 29.4545 38.5786 29.3598 38.9006 29.1705C39.2225 28.9811 39.4763 28.7178 39.6619 28.3807C39.8475 28.0436 39.9384 27.6591 39.9347 27.2273C39.9384 26.7879 39.8456 26.3977 39.6562 26.0568C39.4669 25.7159 39.2074 25.4489 38.8778 25.2557C38.5483 25.0587 38.1695 24.9602 37.7415 24.9602C37.393 24.9564 37.0502 25.0208 36.7131 25.1534C36.3759 25.286 36.1089 25.4602 35.9119 25.6761L34.0085 25.3636L34.6165 19.3636H41.3665V21.125H36.3608L36.0256 24.2102H36.0938C36.3097 23.9564 36.6146 23.7462 37.0085 23.5795C37.4025 23.4091 37.8343 23.3239 38.304 23.3239C39.0085 23.3239 39.6373 23.4905 40.1903 23.8239C40.7434 24.1534 41.179 24.608 41.4972 25.1875C41.8153 25.767 41.9744 26.4299 41.9744 27.1761C41.9744 27.9451 41.7964 28.6307 41.4403 29.233C41.0881 29.8314 40.5975 30.303 39.9688 30.6477C39.3438 30.9886 38.6203 31.1591 37.7983 31.1591ZM47.9602 31V19.3636H52.3239C53.2178 19.3636 53.9678 19.5189 54.5739 19.8295C55.1837 20.1402 55.6439 20.5758 55.9545 21.1364C56.2689 21.6932 56.4261 22.3428 56.4261 23.0852C56.4261 23.8314 56.267 24.4792 55.9489 25.0284C55.6345 25.5739 55.1705 25.9962 54.5568 26.2955C53.9432 26.5909 53.1894 26.7386 52.2955 26.7386H49.1875V24.9886H52.0114C52.5341 24.9886 52.9621 24.9167 53.2955 24.7727C53.6288 24.625 53.875 24.411 54.0341 24.1307C54.197 23.8466 54.2784 23.4981 54.2784 23.0852C54.2784 22.6723 54.197 22.3201 54.0341 22.0284C53.8712 21.733 53.6231 21.5095 53.2898 21.358C52.9564 21.2027 52.5265 21.125 52 21.125H50.0682V31H47.9602ZM53.9716 25.7273L56.8523 31H54.5L51.6705 25.7273H53.9716ZM58.2756 31V22.2727H60.3324V31H58.2756ZM59.3097 21.0341C58.9839 21.0341 58.7036 20.9261 58.4688 20.7102C58.2339 20.4905 58.1165 20.2273 58.1165 19.9205C58.1165 19.6098 58.2339 19.3466 58.4688 19.1307C58.7036 18.911 58.9839 18.8011 59.3097 18.8011C59.6392 18.8011 59.9195 18.911 60.1506 19.1307C60.3854 19.3466 60.5028 19.6098 60.5028 19.9205C60.5028 20.2273 60.3854 20.4905 60.1506 20.7102C59.9195 20.9261 59.6392 21.0341 59.3097 21.0341ZM69.3452 24.5795L67.4702 24.7841C67.4171 24.5947 67.3243 24.4167 67.1918 24.25C67.063 24.0833 66.8887 23.9489 66.669 23.8466C66.4493 23.7443 66.1804 23.6932 65.8622 23.6932C65.4342 23.6932 65.0743 23.786 64.7827 23.9716C64.4948 24.1572 64.3527 24.3977 64.3565 24.6932C64.3527 24.947 64.4455 25.1534 64.6349 25.3125C64.8281 25.4716 65.1463 25.6023 65.5895 25.7045L67.0781 26.0227C67.9039 26.2008 68.5175 26.483 68.919 26.8693C69.3243 27.2557 69.5289 27.7614 69.5327 28.3864C69.5289 28.9356 69.3679 29.4205 69.0497 29.8409C68.7353 30.2576 68.2978 30.5833 67.7372 30.8182C67.1766 31.053 66.5327 31.1705 65.8054 31.1705C64.7372 31.1705 63.8774 30.947 63.2259 30.5C62.5743 30.0492 62.1861 29.4223 62.0611 28.6193L64.0668 28.4261C64.1577 28.8201 64.3509 29.1174 64.6463 29.3182C64.9418 29.5189 65.3262 29.6193 65.7997 29.6193C66.2884 29.6193 66.6804 29.5189 66.9759 29.3182C67.2751 29.1174 67.4247 28.8693 67.4247 28.5739C67.4247 28.3239 67.3281 28.1174 67.1349 27.9545C66.9455 27.7917 66.6501 27.6667 66.2486 27.5795L64.7599 27.267C63.9228 27.0928 63.3035 26.7992 62.902 26.3864C62.5005 25.9697 62.3016 25.4432 62.3054 24.8068C62.3016 24.2689 62.4474 23.803 62.7429 23.4091C63.0421 23.0114 63.4569 22.7045 63.9872 22.4886C64.5213 22.2689 65.1368 22.1591 65.8338 22.1591C66.8565 22.1591 67.6615 22.3769 68.2486 22.8125C68.8395 23.2481 69.205 23.8371 69.3452 24.5795ZM73.1037 28.2614L73.098 25.7784H73.4276L76.5639 22.2727H78.9673L75.1094 26.5682H74.6832L73.1037 28.2614ZM71.2287 31V19.3636H73.2855V31H71.2287ZM76.706 31L73.8651 27.0284L75.2514 25.5795L79.1662 31H76.706ZM85.892 31H83.642L87.7386 19.3636H90.3409L94.4432 31H92.1932L89.0852 21.75H88.9943L85.892 31ZM85.9659 26.4375H92.1023V28.1307H85.9659V26.4375ZM102.642 24.5795L100.767 24.7841C100.714 24.5947 100.621 24.4167 100.489 24.25C100.36 24.0833 100.186 23.9489 99.9659 23.8466C99.7462 23.7443 99.4773 23.6932 99.1591 23.6932C98.7311 23.6932 98.3712 23.786 98.0795 23.9716C97.7917 24.1572 97.6496 24.3977 97.6534 24.6932C97.6496 24.947 97.7424 25.1534 97.9318 25.3125C98.125 25.4716 98.4432 25.6023 98.8864 25.7045L100.375 26.0227C101.201 26.2008 101.814 26.483 102.216 26.8693C102.621 27.2557 102.826 27.7614 102.83 28.3864C102.826 28.9356 102.665 29.4205 102.347 29.8409C102.032 30.2576 101.595 30.5833 101.034 30.8182C100.473 31.053 99.8295 31.1705 99.1023 31.1705C98.0341 31.1705 97.1742 30.947 96.5227 30.5C95.8712 30.0492 95.483 29.4223 95.358 28.6193L97.3636 28.4261C97.4545 28.8201 97.6477 29.1174 97.9432 29.3182C98.2386 29.5189 98.6231 29.6193 99.0966 29.6193C99.5852 29.6193 99.9773 29.5189 100.273 29.3182C100.572 29.1174 100.722 28.8693 100.722 28.5739C100.722 28.3239 100.625 28.1174 100.432 27.9545C100.242 27.7917 99.947 27.6667 99.5455 27.5795L98.0568 27.267C97.2197 27.0928 96.6004 26.7992 96.1989 26.3864C95.7973 25.9697 95.5985 25.4432 95.6023 24.8068C95.5985 24.2689 95.7443 23.803 96.0398 23.4091C96.339 23.0114 96.7538 22.7045 97.2841 22.4886C97.8182 22.2689 98.4337 22.1591 99.1307 22.1591C100.153 22.1591 100.958 22.3769 101.545 22.8125C102.136 23.2481 102.502 23.8371 102.642 24.5795ZM111.423 24.5795L109.548 24.7841C109.495 24.5947 109.402 24.4167 109.27 24.25C109.141 24.0833 108.967 23.9489 108.747 23.8466C108.527 23.7443 108.259 23.6932 107.94 23.6932C107.512 23.6932 107.152 23.786 106.861 23.9716C106.573 24.1572 106.431 24.3977 106.435 24.6932C106.431 24.947 106.524 25.1534 106.713 25.3125C106.906 25.4716 107.224 25.6023 107.668 25.7045L109.156 26.0227C109.982 26.2008 110.596 26.483 110.997 26.8693C111.402 27.2557 111.607 27.7614 111.611 28.3864C111.607 28.9356 111.446 29.4205 111.128 29.8409C110.813 30.2576 110.376 30.5833 109.815 30.8182C109.255 31.053 108.611 31.1705 107.884 31.1705C106.815 31.1705 105.955 30.947 105.304 30.5C104.652 30.0492 104.264 29.4223 104.139 28.6193L106.145 28.4261C106.236 28.8201 106.429 29.1174 106.724 29.3182C107.02 29.5189 107.404 29.6193 107.878 29.6193C108.366 29.6193 108.759 29.5189 109.054 29.3182C109.353 29.1174 109.503 28.8693 109.503 28.5739C109.503 28.3239 109.406 28.1174 109.213 27.9545C109.024 27.7917 108.728 27.6667 108.327 27.5795L106.838 27.267C106.001 27.0928 105.382 26.7992 104.98 26.3864C104.579 25.9697 104.38 25.4432 104.384 24.8068C104.38 24.2689 104.526 23.803 104.821 23.4091C105.12 23.0114 105.535 22.7045 106.065 22.4886C106.599 22.2689 107.215 22.1591 107.912 22.1591C108.935 22.1591 109.74 22.3769 110.327 22.8125C110.918 23.2481 111.283 23.8371 111.423 24.5795ZM117.17 31.1705C116.295 31.1705 115.54 30.9886 114.903 30.625C114.271 30.2576 113.784 29.7386 113.443 29.0682C113.102 28.3939 112.932 27.6004 112.932 26.6875C112.932 25.7898 113.102 25.0019 113.443 24.3239C113.788 23.642 114.269 23.1117 114.886 22.733C115.504 22.3504 116.229 22.1591 117.062 22.1591C117.6 22.1591 118.108 22.2462 118.585 22.4205C119.066 22.5909 119.491 22.8561 119.858 23.2159C120.229 23.5758 120.521 24.0341 120.733 24.5909C120.945 25.1439 121.051 25.803 121.051 26.5682V27.1989H113.898V25.8125H119.08C119.076 25.4186 118.991 25.0682 118.824 24.7614C118.657 24.4508 118.424 24.2064 118.125 24.0284C117.83 23.8504 117.485 23.7614 117.091 23.7614C116.67 23.7614 116.301 23.8636 115.983 24.0682C115.665 24.2689 115.417 24.5341 115.239 24.8636C115.064 25.1894 114.975 25.5473 114.972 25.9375V27.1477C114.972 27.6553 115.064 28.0909 115.25 28.4545C115.436 28.8144 115.695 29.0909 116.028 29.2841C116.362 29.4735 116.752 29.5682 117.199 29.5682C117.498 29.5682 117.769 29.5265 118.011 29.4432C118.254 29.3561 118.464 29.2292 118.642 29.0625C118.82 28.8958 118.955 28.6894 119.045 28.4432L120.966 28.6591C120.845 29.1667 120.614 29.6098 120.273 29.9886C119.936 30.3636 119.504 30.6553 118.977 30.8636C118.451 31.0682 117.848 31.1705 117.17 31.1705ZM129.689 24.5795L127.814 24.7841C127.761 24.5947 127.668 24.4167 127.536 24.25C127.407 24.0833 127.232 23.9489 127.013 23.8466C126.793 23.7443 126.524 23.6932 126.206 23.6932C125.778 23.6932 125.418 23.786 125.126 23.9716C124.839 24.1572 124.696 24.3977 124.7 24.6932C124.696 24.947 124.789 25.1534 124.979 25.3125C125.172 25.4716 125.49 25.6023 125.933 25.7045L127.422 26.0227C128.248 26.2008 128.861 26.483 129.263 26.8693C129.668 27.2557 129.873 27.7614 129.876 28.3864C129.873 28.9356 129.712 29.4205 129.393 29.8409C129.079 30.2576 128.642 30.5833 128.081 30.8182C127.52 31.053 126.876 31.1705 126.149 31.1705C125.081 31.1705 124.221 30.947 123.57 30.5C122.918 30.0492 122.53 29.4223 122.405 28.6193L124.411 28.4261C124.501 28.8201 124.695 29.1174 124.99 29.3182C125.286 29.5189 125.67 29.6193 126.143 29.6193C126.632 29.6193 127.024 29.5189 127.32 29.3182C127.619 29.1174 127.768 28.8693 127.768 28.5739C127.768 28.3239 127.672 28.1174 127.479 27.9545C127.289 27.7917 126.994 27.6667 126.592 27.5795L125.104 27.267C124.267 27.0928 123.647 26.7992 123.246 26.3864C122.844 25.9697 122.645 25.4432 122.649 24.8068C122.645 24.2689 122.791 23.803 123.087 23.4091C123.386 23.0114 123.801 22.7045 124.331 22.4886C124.865 22.2689 125.481 22.1591 126.178 22.1591C127.2 22.1591 128.005 22.3769 128.592 22.8125C129.183 23.2481 129.549 23.8371 129.689 24.5795ZM138.47 24.5795L136.595 24.7841C136.542 24.5947 136.449 24.4167 136.317 24.25C136.188 24.0833 136.014 23.9489 135.794 23.8466C135.574 23.7443 135.305 23.6932 134.987 23.6932C134.559 23.6932 134.199 23.786 133.908 23.9716C133.62 24.1572 133.478 24.3977 133.482 24.6932C133.478 24.947 133.571 25.1534 133.76 25.3125C133.953 25.4716 134.271 25.6023 134.714 25.7045L136.203 26.0227C137.029 26.2008 137.643 26.483 138.044 26.8693C138.449 27.2557 138.654 27.7614 138.658 28.3864C138.654 28.9356 138.493 29.4205 138.175 29.8409C137.86 30.2576 137.423 30.5833 136.862 30.8182C136.302 31.053 135.658 31.1705 134.93 31.1705C133.862 31.1705 133.002 30.947 132.351 30.5C131.699 30.0492 131.311 29.4223 131.186 28.6193L133.192 28.4261C133.283 28.8201 133.476 29.1174 133.771 29.3182C134.067 29.5189 134.451 29.6193 134.925 29.6193C135.413 29.6193 135.805 29.5189 136.101 29.3182C136.4 29.1174 136.55 28.8693 136.55 28.5739C136.55 28.3239 136.453 28.1174 136.26 27.9545C136.071 27.7917 135.775 27.6667 135.374 27.5795L133.885 27.267C133.048 27.0928 132.429 26.7992 132.027 26.3864C131.625 25.9697 131.427 25.4432 131.43 24.8068C131.427 24.2689 131.572 23.803 131.868 23.4091C132.167 23.0114 132.582 22.7045 133.112 22.4886C133.646 22.2689 134.262 22.1591 134.959 22.1591C135.982 22.1591 136.786 22.3769 137.374 22.8125C137.964 23.2481 138.33 23.8371 138.47 24.5795ZM140.354 31V22.2727H142.32V23.7557H142.422C142.604 23.2557 142.905 22.8655 143.325 22.5852C143.746 22.3011 144.248 22.1591 144.831 22.1591C145.422 22.1591 145.92 22.303 146.325 22.5909C146.734 22.875 147.022 23.2633 147.189 23.7557H147.28C147.473 23.2708 147.799 22.8845 148.257 22.5966C148.719 22.3049 149.267 22.1591 149.899 22.1591C150.702 22.1591 151.357 22.4129 151.865 22.9205C152.373 23.428 152.626 24.1686 152.626 25.142V31H150.564V25.4602C150.564 24.9186 150.42 24.5227 150.132 24.2727C149.844 24.0189 149.492 23.892 149.075 23.892C148.579 23.892 148.191 24.0473 147.911 24.358C147.634 24.6648 147.496 25.0644 147.496 25.5568V31H145.479V25.375C145.479 24.9242 145.342 24.5644 145.07 24.2955C144.801 24.0265 144.448 23.892 144.013 23.892C143.717 23.892 143.448 23.9678 143.206 24.1193C142.964 24.267 142.77 24.4773 142.626 24.75C142.482 25.0189 142.411 25.3333 142.411 25.6932V31H140.354ZM158.577 31.1705C157.702 31.1705 156.946 30.9886 156.31 30.625C155.677 30.2576 155.19 29.7386 154.849 29.0682C154.509 28.3939 154.338 27.6004 154.338 26.6875C154.338 25.7898 154.509 25.0019 154.849 24.3239C155.194 23.642 155.675 23.1117 156.293 22.733C156.91 22.3504 157.635 22.1591 158.469 22.1591C159.007 22.1591 159.514 22.2462 159.991 22.4205C160.473 22.5909 160.897 22.8561 161.264 23.2159C161.635 23.5758 161.927 24.0341 162.139 24.5909C162.351 25.1439 162.457 25.803 162.457 26.5682V27.1989H155.304V25.8125H160.486C160.482 25.4186 160.397 25.0682 160.23 24.7614C160.063 24.4508 159.83 24.2064 159.531 24.0284C159.236 23.8504 158.891 23.7614 158.497 23.7614C158.077 23.7614 157.707 23.8636 157.389 24.0682C157.071 24.2689 156.823 24.5341 156.645 24.8636C156.471 25.1894 156.382 25.5473 156.378 25.9375V27.1477C156.378 27.6553 156.471 28.0909 156.656 28.4545C156.842 28.8144 157.101 29.0909 157.435 29.2841C157.768 29.4735 158.158 29.5682 158.605 29.5682C158.904 29.5682 159.175 29.5265 159.418 29.4432C159.66 29.3561 159.87 29.2292 160.048 29.0625C160.226 28.8958 160.361 28.6894 160.452 28.4432L162.372 28.6591C162.251 29.1667 162.02 29.6098 161.679 29.9886C161.342 30.3636 160.91 30.6553 160.384 30.8636C159.857 31.0682 159.255 31.1705 158.577 31.1705ZM166.254 25.8864V31H164.197V22.2727H166.163V23.7557H166.266C166.466 23.267 166.786 22.8788 167.226 22.5909C167.669 22.303 168.216 22.1591 168.868 22.1591C169.47 22.1591 169.995 22.2879 170.442 22.5455C170.893 22.803 171.241 23.1761 171.487 23.6648C171.737 24.1534 171.86 24.7462 171.857 25.4432V31H169.8V25.7614C169.8 25.178 169.648 24.7216 169.345 24.392C169.046 24.0625 168.631 23.8977 168.101 23.8977C167.741 23.8977 167.421 23.9773 167.141 24.1364C166.864 24.2917 166.646 24.517 166.487 24.8125C166.332 25.108 166.254 25.4659 166.254 25.8864ZM178.305 22.2727V23.8636H173.288V22.2727H178.305ZM174.527 20.1818H176.584V28.375C176.584 28.6515 176.625 28.8636 176.709 29.0114C176.796 29.1553 176.91 29.2538 177.05 29.3068C177.19 29.3598 177.345 29.3864 177.516 29.3864C177.644 29.3864 177.762 29.3769 177.868 29.358C177.978 29.339 178.061 29.322 178.118 29.3068L178.464 30.9148C178.355 30.9527 178.197 30.9943 177.993 31.0398C177.792 31.0852 177.546 31.1117 177.254 31.1193C176.739 31.1345 176.275 31.0568 175.862 30.8864C175.449 30.7121 175.122 30.4432 174.879 30.0795C174.641 29.7159 174.523 29.2614 174.527 28.7159V20.1818Z" fill="#3D3D4F"/>
<path d="M16 44C16 42.3431 17.3431 41 19 41H88V47H19C17.3431 47 16 45.6569 16 44Z" fill="#25D192"/>
<path d="M88 41H231C232.657 41 234 42.3431 234 44C234 45.6569 232.657 47 231 47H88V41Z" fill="#DEE2F5"/>
<path d="M19.0824 67L16.2983 56.8182H17.5511L19.679 65.1108H19.7784L21.946 56.8182H23.3381L25.5057 65.1108H25.6051L27.733 56.8182H28.9858L26.2017 67H24.929L22.6818 58.8864H22.6023L20.3551 67H19.0824ZM31.8991 67.179C31.4152 67.179 30.9761 67.0878 30.5817 66.9055C30.1873 66.7199 29.8741 66.4531 29.642 66.1051C29.41 65.7538 29.294 65.3295 29.294 64.8324C29.294 64.3949 29.3802 64.0402 29.5526 63.7685C29.7249 63.4934 29.9553 63.2779 30.2436 63.1222C30.532 62.9664 30.8501 62.8504 31.1982 62.7741C31.5495 62.6946 31.9025 62.6316 32.2571 62.5852C32.7211 62.5256 33.0973 62.4808 33.3857 62.451C33.6773 62.4179 33.8894 62.3632 34.022 62.2869C34.1579 62.2107 34.2259 62.0781 34.2259 61.8892V61.8494C34.2259 61.3589 34.0916 60.9777 33.8232 60.706C33.558 60.4342 33.1553 60.2983 32.6151 60.2983C32.0549 60.2983 31.6158 60.4209 31.2976 60.6662C30.9794 60.9115 30.7557 61.1733 30.6264 61.4517L29.5128 61.054C29.7116 60.59 29.9768 60.2287 30.3082 59.9702C30.643 59.7083 31.0076 59.526 31.402 59.4233C31.7997 59.3172 32.1908 59.2642 32.5753 59.2642C32.8205 59.2642 33.1023 59.294 33.4205 59.3537C33.742 59.41 34.0518 59.5277 34.3501 59.7067C34.6518 59.8857 34.902 60.1558 35.1009 60.517C35.2997 60.8783 35.3991 61.3622 35.3991 61.9688V67H34.2259V65.9659H34.1662C34.0866 66.1316 33.9541 66.3089 33.7685 66.4979C33.5829 66.6868 33.3359 66.8475 33.0277 66.9801C32.7195 67.1127 32.3433 67.179 31.8991 67.179ZM32.0781 66.125C32.5421 66.125 32.9332 66.0339 33.2514 65.8516C33.5729 65.6693 33.8149 65.4339 33.9773 65.1456C34.143 64.8572 34.2259 64.554 34.2259 64.2358V63.1619C34.1761 63.2216 34.0668 63.2763 33.8977 63.326C33.732 63.3724 33.5398 63.4138 33.321 63.4503C33.1056 63.4834 32.8951 63.5133 32.6896 63.5398C32.4875 63.563 32.3234 63.5829 32.1974 63.5994C31.8925 63.6392 31.6075 63.7038 31.3423 63.7933C31.0805 63.8795 30.8684 64.0104 30.706 64.1861C30.5469 64.3584 30.4673 64.5937 30.4673 64.892C30.4673 65.2997 30.6181 65.608 30.9197 65.8168C31.2247 66.0223 31.6108 66.125 32.0781 66.125ZM37.5407 67V59.3636H38.714V67H37.5407ZM38.1373 58.0909C37.9086 58.0909 37.7114 58.013 37.5456 57.8572C37.3832 57.7015 37.302 57.5142 37.302 57.2955C37.302 57.0767 37.3832 56.8894 37.5456 56.7337C37.7114 56.5779 37.9086 56.5 38.1373 56.5C38.3659 56.5 38.5615 56.5779 38.7239 56.7337C38.8896 56.8894 38.9725 57.0767 38.9725 57.2955C38.9725 57.5142 38.8896 57.7015 38.7239 57.8572C38.5615 58.013 38.3659 58.0909 38.1373 58.0909ZM44.1839 59.3636V60.358H40.2266V59.3636H44.1839ZM41.38 57.5341H42.5533V64.8125C42.5533 65.1439 42.6013 65.3925 42.6974 65.5582C42.7969 65.7206 42.9228 65.83 43.0753 65.8864C43.2311 65.9394 43.3951 65.9659 43.5675 65.9659C43.6967 65.9659 43.8028 65.9593 43.8857 65.946C43.9685 65.9295 44.0348 65.9162 44.0845 65.9062L44.3232 66.9602C44.2436 66.9901 44.1326 67.0199 43.9901 67.0497C43.8475 67.0829 43.6669 67.0994 43.4482 67.0994C43.1167 67.0994 42.7919 67.0282 42.4737 66.8857C42.1589 66.7431 41.897 66.526 41.6882 66.2344C41.4827 65.9427 41.38 65.5748 41.38 65.1307V57.5341ZM45.9489 67V59.3636H47.1222V67H45.9489ZM46.5455 58.0909C46.3168 58.0909 46.1196 58.013 45.9538 57.8572C45.7914 57.7015 45.7102 57.5142 45.7102 57.2955C45.7102 57.0767 45.7914 56.8894 45.9538 56.7337C46.1196 56.5779 46.3168 56.5 46.5455 56.5C46.7741 56.5 46.9697 56.5779 47.1321 56.7337C47.2978 56.8894 47.3807 57.0767 47.3807 57.2955C47.3807 57.5142 47.2978 57.7015 47.1321 57.8572C46.9697 58.013 46.7741 58.0909 46.5455 58.0909ZM50.4444 62.4062V67H49.2711V59.3636H50.4047V60.5568H50.5041C50.6831 60.169 50.9548 59.8575 51.3194 59.6222C51.684 59.3835 52.1547 59.2642 52.7314 59.2642C53.2484 59.2642 53.7008 59.3703 54.0886 59.5824C54.4764 59.7912 54.778 60.1094 54.9934 60.5369C55.2089 60.9612 55.3166 61.4981 55.3166 62.1477V67H54.1433V62.2273C54.1433 61.6274 53.9875 61.16 53.676 60.8253C53.3644 60.4872 52.9368 60.3182 52.3933 60.3182C52.0188 60.3182 51.684 60.3994 51.389 60.5618C51.0974 60.7242 50.867 60.9612 50.698 61.2727C50.5289 61.5843 50.4444 61.9621 50.4444 62.4062ZM60.543 70.0227C59.9762 70.0227 59.489 69.9498 59.0813 69.804C58.6737 69.6615 58.3339 69.4725 58.0621 69.2372C57.7937 69.0052 57.5799 68.7566 57.4208 68.4915L58.3555 67.8352C58.4615 67.9744 58.5958 68.1335 58.7582 68.3125C58.9206 68.4948 59.1426 68.6522 59.4244 68.7848C59.7094 68.9207 60.0823 68.9886 60.543 68.9886C61.1594 68.9886 61.6682 68.8395 62.0692 68.5412C62.4703 68.2429 62.6708 67.7756 62.6708 67.1392V65.5881H62.5714C62.4852 65.7273 62.3626 65.8996 62.2035 66.1051C62.0477 66.3073 61.8223 66.4879 61.5273 66.647C61.2357 66.8028 60.8413 66.8807 60.3441 66.8807C59.7276 66.8807 59.1741 66.7348 58.6836 66.4432C58.1964 66.1515 57.8103 65.7273 57.5252 65.1705C57.2435 64.6136 57.1026 63.9375 57.1026 63.142C57.1026 62.3598 57.2402 61.6787 57.5153 61.0987C57.7904 60.5154 58.1732 60.0646 58.6637 59.7464C59.1542 59.425 59.721 59.2642 60.364 59.2642C60.8612 59.2642 61.2556 59.3471 61.5472 59.5128C61.8422 59.6752 62.0676 59.8608 62.2234 60.0696C62.3825 60.2751 62.5051 60.4441 62.5913 60.5767H62.7106V59.3636H63.8441V67.2188C63.8441 67.875 63.695 68.4086 63.3967 68.8196C63.1017 69.2339 62.704 69.5372 62.2035 69.7294C61.7063 69.925 61.1528 70.0227 60.543 70.0227ZM60.5032 65.8267C60.9738 65.8267 61.3716 65.719 61.6964 65.5036C62.0212 65.2881 62.2681 64.9782 62.4371 64.5739C62.6062 64.1695 62.6907 63.6856 62.6907 63.1222C62.6907 62.572 62.6078 62.0864 62.4421 61.6655C62.2764 61.2446 62.0311 60.9148 61.7063 60.6761C61.3815 60.4375 60.9805 60.3182 60.5032 60.3182C60.006 60.3182 59.5917 60.4441 59.2603 60.696C58.9322 60.9479 58.6853 61.286 58.5195 61.7102C58.3571 62.1345 58.2759 62.6051 58.2759 63.1222C58.2759 63.6525 58.3588 64.1214 58.5245 64.5291C58.6935 64.9335 58.9421 65.2517 59.2702 65.4837C59.6017 65.7124 60.0127 65.8267 60.5032 65.8267ZM73.3299 59.3636V60.358H69.2134V59.3636H73.3299ZM70.4464 67V58.3097C70.4464 57.8722 70.5491 57.5076 70.7546 57.2159C70.9601 56.9242 71.2269 56.7055 71.555 56.5597C71.8832 56.4138 72.2295 56.3409 72.5941 56.3409C72.8825 56.3409 73.1178 56.3641 73.3001 56.4105C73.4824 56.4569 73.6183 56.5 73.7077 56.5398L73.3697 57.554C73.31 57.5341 73.2272 57.5092 73.1211 57.4794C73.0183 57.4496 72.8825 57.4347 72.7134 57.4347C72.3256 57.4347 72.0456 57.5324 71.8732 57.728C71.7042 57.9235 71.6197 58.2102 71.6197 58.5881V67H70.4464ZM77.7621 67.1591C77.0727 67.1591 76.4678 66.995 75.9474 66.6669C75.4304 66.3388 75.026 65.8797 74.7344 65.2898C74.446 64.6998 74.3018 64.0104 74.3018 63.2216C74.3018 62.4261 74.446 61.7318 74.7344 61.1385C75.026 60.5452 75.4304 60.0845 75.9474 59.7564C76.4678 59.4283 77.0727 59.2642 77.7621 59.2642C78.4515 59.2642 79.0547 59.4283 79.5717 59.7564C80.0921 60.0845 80.4964 60.5452 80.7848 61.1385C81.0765 61.7318 81.2223 62.4261 81.2223 63.2216C81.2223 64.0104 81.0765 64.6998 80.7848 65.2898C80.4964 65.8797 80.0921 66.3388 79.5717 66.6669C79.0547 66.995 78.4515 67.1591 77.7621 67.1591ZM77.7621 66.1051C78.2857 66.1051 78.7166 65.9709 79.0547 65.7024C79.3928 65.4339 79.643 65.081 79.8054 64.6435C79.9678 64.206 80.049 63.732 80.049 63.2216C80.049 62.7112 79.9678 62.2356 79.8054 61.7947C79.643 61.3539 79.3928 60.9976 79.0547 60.7259C78.7166 60.4541 78.2857 60.3182 77.7621 60.3182C77.2384 60.3182 76.8075 60.4541 76.4695 60.7259C76.1314 60.9976 75.8812 61.3539 75.7188 61.7947C75.5563 62.2356 75.4751 62.7112 75.4751 63.2216C75.4751 63.732 75.5563 64.206 75.7188 64.6435C75.8812 65.081 76.1314 65.4339 76.4695 65.7024C76.8075 65.9709 77.2384 66.1051 77.7621 66.1051ZM83.0133 67V59.3636H84.1468V60.517H84.2264C84.3656 60.1392 84.6175 59.8326 84.9821 59.5973C85.3467 59.362 85.7576 59.2443 86.215 59.2443C86.3012 59.2443 86.4089 59.246 86.5382 59.2493C86.6674 59.2526 86.7652 59.2576 86.8315 59.2642V60.4574C86.7917 60.4474 86.7006 60.4325 86.5581 60.4126C86.4189 60.3894 86.2714 60.3778 86.1156 60.3778C85.7444 60.3778 85.4129 60.4557 85.1213 60.6115C84.8329 60.764 84.6042 60.9761 84.4352 61.2479C84.2695 61.5163 84.1866 61.8229 84.1866 62.1676V67H83.0133ZM92.3189 67V56.8182H95.7592C96.5547 56.8182 97.2076 56.9541 97.718 57.2259C98.2285 57.4943 98.6063 57.8639 98.8516 58.3345C99.0968 58.8052 99.2195 59.3404 99.2195 59.9403C99.2195 60.5402 99.0968 61.0722 98.8516 61.5362C98.6063 62.0002 98.2301 62.3648 97.723 62.63C97.2159 62.8918 96.5679 63.0227 95.7791 63.0227H92.995V61.9091H95.7393C96.2829 61.9091 96.7204 61.8295 97.0518 61.6705C97.3866 61.5114 97.6286 61.286 97.7777 60.9943C97.9302 60.6993 98.0064 60.348 98.0064 59.9403C98.0064 59.5327 97.9302 59.1764 97.7777 58.8714C97.6252 58.5665 97.3816 58.3312 97.0469 58.1655C96.7121 57.9964 96.2696 57.9119 95.7195 57.9119H93.5518V67H92.3189ZM97.1115 62.4261L99.6172 67H98.1854L95.7195 62.4261H97.1115ZM101.692 67H100.399L104.138 56.8182H105.41L109.149 67H107.856L104.814 58.429H104.734L101.692 67ZM102.169 63.0227H107.379V64.1165H102.169V63.0227ZM123.263 61.9091C123.263 62.983 123.069 63.911 122.682 64.6932C122.294 65.4754 121.762 66.0786 121.086 66.5028C120.41 66.9271 119.637 67.1392 118.769 67.1392C117.901 67.1392 117.128 66.9271 116.452 66.5028C115.776 66.0786 115.244 65.4754 114.856 64.6932C114.469 63.911 114.275 62.983 114.275 61.9091C114.275 60.8352 114.469 59.9072 114.856 59.125C115.244 58.3428 115.776 57.7396 116.452 57.3153C117.128 56.8911 117.901 56.679 118.769 56.679C119.637 56.679 120.41 56.8911 121.086 57.3153C121.762 57.7396 122.294 58.3428 122.682 59.125C123.069 59.9072 123.263 60.8352 123.263 61.9091ZM122.07 61.9091C122.07 61.0275 121.923 60.2834 121.628 59.6768C121.336 59.0703 120.94 58.6113 120.439 58.2997C119.942 57.9882 119.385 57.8324 118.769 57.8324C118.153 57.8324 117.594 57.9882 117.094 58.2997C116.596 58.6113 116.2 59.0703 115.905 59.6768C115.614 60.2834 115.468 61.0275 115.468 61.9091C115.468 62.7907 115.614 63.5348 115.905 64.1413C116.2 64.7479 116.596 65.2069 117.094 65.5185C117.594 65.83 118.153 65.9858 118.769 65.9858C119.385 65.9858 119.942 65.83 120.439 65.5185C120.94 65.2069 121.336 64.7479 121.628 64.1413C121.923 63.5348 122.07 62.7907 122.07 61.9091ZM128.578 59.3636V60.358H124.461V59.3636H128.578ZM125.694 67V58.3097C125.694 57.8722 125.797 57.5076 126.003 57.2159C126.208 56.9242 126.475 56.7055 126.803 56.5597C127.131 56.4138 127.478 56.3409 127.842 56.3409C128.131 56.3409 128.366 56.3641 128.548 56.4105C128.73 56.4569 128.866 56.5 128.956 56.5398L128.618 57.554C128.558 57.5341 128.475 57.5092 128.369 57.4794C128.266 57.4496 128.131 57.4347 127.961 57.4347C127.574 57.4347 127.294 57.5324 127.121 57.728C126.952 57.9235 126.868 58.2102 126.868 58.5881V67H125.694ZM133.623 59.3636V60.358H129.506V59.3636H133.623ZM130.739 67V58.3097C130.739 57.8722 130.842 57.5076 131.048 57.2159C131.253 56.9242 131.52 56.7055 131.848 56.5597C132.176 56.4138 132.522 56.3409 132.887 56.3409C133.175 56.3409 133.411 56.3641 133.593 56.4105C133.775 56.4569 133.911 56.5 134.001 56.5398L133.663 57.554C133.603 57.5341 133.52 57.5092 133.414 57.4794C133.311 57.4496 133.175 57.4347 133.006 57.4347C132.619 57.4347 132.339 57.5324 132.166 57.728C131.997 57.9235 131.913 58.2102 131.913 58.5881V67H130.739ZM135.267 67V59.3636H136.441V67H135.267ZM135.864 58.0909C135.635 58.0909 135.438 58.013 135.272 57.8572C135.11 57.7015 135.029 57.5142 135.029 57.2955C135.029 57.0767 135.11 56.8894 135.272 56.7337C135.438 56.5779 135.635 56.5 135.864 56.5C136.093 56.5 136.288 56.5779 136.45 56.7337C136.616 56.8894 136.699 57.0767 136.699 57.2955C136.699 57.5142 136.616 57.7015 136.45 57.8572C136.288 58.013 136.093 58.0909 135.864 58.0909ZM141.692 67.1591C140.976 67.1591 140.359 66.9901 139.842 66.652C139.325 66.3139 138.928 65.8482 138.649 65.255C138.371 64.6617 138.232 63.9839 138.232 63.2216C138.232 62.446 138.374 61.7616 138.659 61.1683C138.947 60.5717 139.348 60.1061 139.862 59.7713C140.379 59.4332 140.982 59.2642 141.672 59.2642C142.209 59.2642 142.693 59.3636 143.124 59.5625C143.554 59.7614 143.907 60.0398 144.183 60.3977C144.458 60.7557 144.628 61.1733 144.695 61.6506H143.521C143.432 61.3026 143.233 60.9943 142.925 60.7259C142.62 60.4541 142.209 60.3182 141.692 60.3182C141.234 60.3182 140.833 60.4375 140.489 60.6761C140.147 60.9115 139.88 61.2446 139.688 61.6754C139.499 62.103 139.405 62.6051 139.405 63.1818C139.405 63.7718 139.498 64.2855 139.683 64.723C139.872 65.1605 140.137 65.5002 140.479 65.7422C140.823 65.9841 141.228 66.1051 141.692 66.1051C141.997 66.1051 142.273 66.0521 142.522 65.946C142.771 65.84 142.981 65.6875 143.153 65.4886C143.326 65.2898 143.448 65.0511 143.521 64.7727H144.695C144.628 65.2235 144.464 65.6295 144.202 65.9908C143.944 66.3487 143.601 66.6338 143.173 66.8459C142.749 67.0547 142.255 67.1591 141.692 67.1591ZM149.612 67.1591C148.876 67.1591 148.241 66.9967 147.707 66.6719C147.177 66.3438 146.768 65.8864 146.479 65.2997C146.194 64.7098 146.052 64.0237 146.052 63.2415C146.052 62.4593 146.194 61.7699 146.479 61.1733C146.768 60.5734 147.169 60.1061 147.683 59.7713C148.2 59.4332 148.803 59.2642 149.492 59.2642C149.89 59.2642 150.283 59.3305 150.67 59.4631C151.058 59.5956 151.411 59.8111 151.729 60.1094C152.048 60.4044 152.301 60.7955 152.49 61.2827C152.679 61.7699 152.773 62.3698 152.773 63.0824V63.5795H146.887V62.5653H151.58C151.58 62.1345 151.494 61.75 151.322 61.4119C151.153 61.0739 150.911 60.8071 150.596 60.6115C150.284 60.416 149.916 60.3182 149.492 60.3182C149.025 60.3182 148.621 60.4342 148.279 60.6662C147.941 60.8949 147.681 61.1932 147.499 61.5611C147.316 61.929 147.225 62.3234 147.225 62.7443V63.4205C147.225 63.9972 147.325 64.486 147.523 64.8871C147.726 65.2848 148.006 65.5881 148.364 65.7969C148.722 66.0024 149.138 66.1051 149.612 66.1051C149.92 66.1051 150.198 66.062 150.447 65.9759C150.699 65.8864 150.916 65.7538 151.098 65.5781C151.28 65.3991 151.421 65.1771 151.521 64.9119L152.654 65.2301C152.535 65.6146 152.334 65.9527 152.053 66.2443C151.771 66.5327 151.423 66.758 151.009 66.9205C150.594 67.0795 150.129 67.1591 149.612 67.1591ZM154.558 67V59.3636H155.692V60.517H155.771C155.911 60.1392 156.162 59.8326 156.527 59.5973C156.892 59.362 157.303 59.2443 157.76 59.2443C157.846 59.2443 157.954 59.246 158.083 59.2493C158.212 59.2526 158.31 59.2576 158.376 59.2642V60.4574C158.337 60.4474 158.246 60.4325 158.103 60.4126C157.964 60.3894 157.816 60.3778 157.661 60.3778C157.289 60.3778 156.958 60.4557 156.666 60.6115C156.378 60.764 156.149 60.9761 155.98 61.2479C155.814 61.5163 155.732 61.8229 155.732 62.1676V67H154.558Z" fill="white"/>
<path d="M19.0824 67L16.2983 56.8182H17.5511L19.679 65.1108H19.7784L21.946 56.8182H23.3381L25.5057 65.1108H25.6051L27.733 56.8182H28.9858L26.2017 67H24.929L22.6818 58.8864H22.6023L20.3551 67H19.0824ZM31.8991 67.179C31.4152 67.179 30.9761 67.0878 30.5817 66.9055C30.1873 66.7199 29.8741 66.4531 29.642 66.1051C29.41 65.7538 29.294 65.3295 29.294 64.8324C29.294 64.3949 29.3802 64.0402 29.5526 63.7685C29.7249 63.4934 29.9553 63.2779 30.2436 63.1222C30.532 62.9664 30.8501 62.8504 31.1982 62.7741C31.5495 62.6946 31.9025 62.6316 32.2571 62.5852C32.7211 62.5256 33.0973 62.4808 33.3857 62.451C33.6773 62.4179 33.8894 62.3632 34.022 62.2869C34.1579 62.2107 34.2259 62.0781 34.2259 61.8892V61.8494C34.2259 61.3589 34.0916 60.9777 33.8232 60.706C33.558 60.4342 33.1553 60.2983 32.6151 60.2983C32.0549 60.2983 31.6158 60.4209 31.2976 60.6662C30.9794 60.9115 30.7557 61.1733 30.6264 61.4517L29.5128 61.054C29.7116 60.59 29.9768 60.2287 30.3082 59.9702C30.643 59.7083 31.0076 59.526 31.402 59.4233C31.7997 59.3172 32.1908 59.2642 32.5753 59.2642C32.8205 59.2642 33.1023 59.294 33.4205 59.3537C33.742 59.41 34.0518 59.5277 34.3501 59.7067C34.6518 59.8857 34.902 60.1558 35.1009 60.517C35.2997 60.8783 35.3991 61.3622 35.3991 61.9688V67H34.2259V65.9659H34.1662C34.0866 66.1316 33.9541 66.3089 33.7685 66.4979C33.5829 66.6868 33.3359 66.8475 33.0277 66.9801C32.7195 67.1127 32.3433 67.179 31.8991 67.179ZM32.0781 66.125C32.5421 66.125 32.9332 66.0339 33.2514 65.8516C33.5729 65.6693 33.8149 65.4339 33.9773 65.1456C34.143 64.8572 34.2259 64.554 34.2259 64.2358V63.1619C34.1761 63.2216 34.0668 63.2763 33.8977 63.326C33.732 63.3724 33.5398 63.4138 33.321 63.4503C33.1056 63.4834 32.8951 63.5133 32.6896 63.5398C32.4875 63.563 32.3234 63.5829 32.1974 63.5994C31.8925 63.6392 31.6075 63.7038 31.3423 63.7933C31.0805 63.8795 30.8684 64.0104 30.706 64.1861C30.5469 64.3584 30.4673 64.5937 30.4673 64.892C30.4673 65.2997 30.6181 65.608 30.9197 65.8168C31.2247 66.0223 31.6108 66.125 32.0781 66.125ZM37.5407 67V59.3636H38.714V67H37.5407ZM38.1373 58.0909C37.9086 58.0909 37.7114 58.013 37.5456 57.8572C37.3832 57.7015 37.302 57.5142 37.302 57.2955C37.302 57.0767 37.3832 56.8894 37.5456 56.7337C37.7114 56.5779 37.9086 56.5 38.1373 56.5C38.3659 56.5 38.5615 56.5779 38.7239 56.7337C38.8896 56.8894 38.9725 57.0767 38.9725 57.2955C38.9725 57.5142 38.8896 57.7015 38.7239 57.8572C38.5615 58.013 38.3659 58.0909 38.1373 58.0909ZM44.1839 59.3636V60.358H40.2266V59.3636H44.1839ZM41.38 57.5341H42.5533V64.8125C42.5533 65.1439 42.6013 65.3925 42.6974 65.5582C42.7969 65.7206 42.9228 65.83 43.0753 65.8864C43.2311 65.9394 43.3951 65.9659 43.5675 65.9659C43.6967 65.9659 43.8028 65.9593 43.8857 65.946C43.9685 65.9295 44.0348 65.9162 44.0845 65.9062L44.3232 66.9602C44.2436 66.9901 44.1326 67.0199 43.9901 67.0497C43.8475 67.0829 43.6669 67.0994 43.4482 67.0994C43.1167 67.0994 42.7919 67.0282 42.4737 66.8857C42.1589 66.7431 41.897 66.526 41.6882 66.2344C41.4827 65.9427 41.38 65.5748 41.38 65.1307V57.5341ZM45.9489 67V59.3636H47.1222V67H45.9489ZM46.5455 58.0909C46.3168 58.0909 46.1196 58.013 45.9538 57.8572C45.7914 57.7015 45.7102 57.5142 45.7102 57.2955C45.7102 57.0767 45.7914 56.8894 45.9538 56.7337C46.1196 56.5779 46.3168 56.5 46.5455 56.5C46.7741 56.5 46.9697 56.5779 47.1321 56.7337C47.2978 56.8894 47.3807 57.0767 47.3807 57.2955C47.3807 57.5142 47.2978 57.7015 47.1321 57.8572C46.9697 58.013 46.7741 58.0909 46.5455 58.0909ZM50.4444 62.4062V67H49.2711V59.3636H50.4047V60.5568H50.5041C50.6831 60.169 50.9548 59.8575 51.3194 59.6222C51.684 59.3835 52.1547 59.2642 52.7314 59.2642C53.2484 59.2642 53.7008 59.3703 54.0886 59.5824C54.4764 59.7912 54.778 60.1094 54.9934 60.5369C55.2089 60.9612 55.3166 61.4981 55.3166 62.1477V67H54.1433V62.2273C54.1433 61.6274 53.9875 61.16 53.676 60.8253C53.3644 60.4872 52.9368 60.3182 52.3933 60.3182C52.0188 60.3182 51.684 60.3994 51.389 60.5618C51.0974 60.7242 50.867 60.9612 50.698 61.2727C50.5289 61.5843 50.4444 61.9621 50.4444 62.4062ZM60.543 70.0227C59.9762 70.0227 59.489 69.9498 59.0813 69.804C58.6737 69.6615 58.3339 69.4725 58.0621 69.2372C57.7937 69.0052 57.5799 68.7566 57.4208 68.4915L58.3555 67.8352C58.4615 67.9744 58.5958 68.1335 58.7582 68.3125C58.9206 68.4948 59.1426 68.6522 59.4244 68.7848C59.7094 68.9207 60.0823 68.9886 60.543 68.9886C61.1594 68.9886 61.6682 68.8395 62.0692 68.5412C62.4703 68.2429 62.6708 67.7756 62.6708 67.1392V65.5881H62.5714C62.4852 65.7273 62.3626 65.8996 62.2035 66.1051C62.0477 66.3073 61.8223 66.4879 61.5273 66.647C61.2357 66.8028 60.8413 66.8807 60.3441 66.8807C59.7276 66.8807 59.1741 66.7348 58.6836 66.4432C58.1964 66.1515 57.8103 65.7273 57.5252 65.1705C57.2435 64.6136 57.1026 63.9375 57.1026 63.142C57.1026 62.3598 57.2402 61.6787 57.5153 61.0987C57.7904 60.5154 58.1732 60.0646 58.6637 59.7464C59.1542 59.425 59.721 59.2642 60.364 59.2642C60.8612 59.2642 61.2556 59.3471 61.5472 59.5128C61.8422 59.6752 62.0676 59.8608 62.2234 60.0696C62.3825 60.2751 62.5051 60.4441 62.5913 60.5767H62.7106V59.3636H63.8441V67.2188C63.8441 67.875 63.695 68.4086 63.3967 68.8196C63.1017 69.2339 62.704 69.5372 62.2035 69.7294C61.7063 69.925 61.1528 70.0227 60.543 70.0227ZM60.5032 65.8267C60.9738 65.8267 61.3716 65.719 61.6964 65.5036C62.0212 65.2881 62.2681 64.9782 62.4371 64.5739C62.6062 64.1695 62.6907 63.6856 62.6907 63.1222C62.6907 62.572 62.6078 62.0864 62.4421 61.6655C62.2764 61.2446 62.0311 60.9148 61.7063 60.6761C61.3815 60.4375 60.9805 60.3182 60.5032 60.3182C60.006 60.3182 59.5917 60.4441 59.2603 60.696C58.9322 60.9479 58.6853 61.286 58.5195 61.7102C58.3571 62.1345 58.2759 62.6051 58.2759 63.1222C58.2759 63.6525 58.3588 64.1214 58.5245 64.5291C58.6935 64.9335 58.9421 65.2517 59.2702 65.4837C59.6017 65.7124 60.0127 65.8267 60.5032 65.8267ZM73.3299 59.3636V60.358H69.2134V59.3636H73.3299ZM70.4464 67V58.3097C70.4464 57.8722 70.5491 57.5076 70.7546 57.2159C70.9601 56.9242 71.2269 56.7055 71.555 56.5597C71.8832 56.4138 72.2295 56.3409 72.5941 56.3409C72.8825 56.3409 73.1178 56.3641 73.3001 56.4105C73.4824 56.4569 73.6183 56.5 73.7077 56.5398L73.3697 57.554C73.31 57.5341 73.2272 57.5092 73.1211 57.4794C73.0183 57.4496 72.8825 57.4347 72.7134 57.4347C72.3256 57.4347 72.0456 57.5324 71.8732 57.728C71.7042 57.9235 71.6197 58.2102 71.6197 58.5881V67H70.4464ZM77.7621 67.1591C77.0727 67.1591 76.4678 66.995 75.9474 66.6669C75.4304 66.3388 75.026 65.8797 74.7344 65.2898C74.446 64.6998 74.3018 64.0104 74.3018 63.2216C74.3018 62.4261 74.446 61.7318 74.7344 61.1385C75.026 60.5452 75.4304 60.0845 75.9474 59.7564C76.4678 59.4283 77.0727 59.2642 77.7621 59.2642C78.4515 59.2642 79.0547 59.4283 79.5717 59.7564C80.0921 60.0845 80.4964 60.5452 80.7848 61.1385C81.0765 61.7318 81.2223 62.4261 81.2223 63.2216C81.2223 64.0104 81.0765 64.6998 80.7848 65.2898C80.4964 65.8797 80.0921 66.3388 79.5717 66.6669C79.0547 66.995 78.4515 67.1591 77.7621 67.1591ZM77.7621 66.1051C78.2857 66.1051 78.7166 65.9709 79.0547 65.7024C79.3928 65.4339 79.643 65.081 79.8054 64.6435C79.9678 64.206 80.049 63.732 80.049 63.2216C80.049 62.7112 79.9678 62.2356 79.8054 61.7947C79.643 61.3539 79.3928 60.9976 79.0547 60.7259C78.7166 60.4541 78.2857 60.3182 77.7621 60.3182C77.2384 60.3182 76.8075 60.4541 76.4695 60.7259C76.1314 60.9976 75.8812 61.3539 75.7188 61.7947C75.5563 62.2356 75.4751 62.7112 75.4751 63.2216C75.4751 63.732 75.5563 64.206 75.7188 64.6435C75.8812 65.081 76.1314 65.4339 76.4695 65.7024C76.8075 65.9709 77.2384 66.1051 77.7621 66.1051ZM83.0133 67V59.3636H84.1468V60.517H84.2264C84.3656 60.1392 84.6175 59.8326 84.9821 59.5973C85.3467 59.362 85.7576 59.2443 86.215 59.2443C86.3012 59.2443 86.4089 59.246 86.5382 59.2493C86.6674 59.2526 86.7652 59.2576 86.8315 59.2642V60.4574C86.7917 60.4474 86.7006 60.4325 86.5581 60.4126C86.4189 60.3894 86.2714 60.3778 86.1156 60.3778C85.7444 60.3778 85.4129 60.4557 85.1213 60.6115C84.8329 60.764 84.6042 60.9761 84.4352 61.2479C84.2695 61.5163 84.1866 61.8229 84.1866 62.1676V67H83.0133ZM92.3189 67V56.8182H95.7592C96.5547 56.8182 97.2076 56.9541 97.718 57.2259C98.2285 57.4943 98.6063 57.8639 98.8516 58.3345C99.0968 58.8052 99.2195 59.3404 99.2195 59.9403C99.2195 60.5402 99.0968 61.0722 98.8516 61.5362C98.6063 62.0002 98.2301 62.3648 97.723 62.63C97.2159 62.8918 96.5679 63.0227 95.7791 63.0227H92.995V61.9091H95.7393C96.2829 61.9091 96.7204 61.8295 97.0518 61.6705C97.3866 61.5114 97.6286 61.286 97.7777 60.9943C97.9302 60.6993 98.0064 60.348 98.0064 59.9403C98.0064 59.5327 97.9302 59.1764 97.7777 58.8714C97.6252 58.5665 97.3816 58.3312 97.0469 58.1655C96.7121 57.9964 96.2696 57.9119 95.7195 57.9119H93.5518V67H92.3189ZM97.1115 62.4261L99.6172 67H98.1854L95.7195 62.4261H97.1115ZM101.692 67H100.399L104.138 56.8182H105.41L109.149 67H107.856L104.814 58.429H104.734L101.692 67ZM102.169 63.0227H107.379V64.1165H102.169V63.0227ZM123.263 61.9091C123.263 62.983 123.069 63.911 122.682 64.6932C122.294 65.4754 121.762 66.0786 121.086 66.5028C120.41 66.9271 119.637 67.1392 118.769 67.1392C117.901 67.1392 117.128 66.9271 116.452 66.5028C115.776 66.0786 115.244 65.4754 114.856 64.6932C114.469 63.911 114.275 62.983 114.275 61.9091C114.275 60.8352 114.469 59.9072 114.856 59.125C115.244 58.3428 115.776 57.7396 116.452 57.3153C117.128 56.8911 117.901 56.679 118.769 56.679C119.637 56.679 120.41 56.8911 121.086 57.3153C121.762 57.7396 122.294 58.3428 122.682 59.125C123.069 59.9072 123.263 60.8352 123.263 61.9091ZM122.07 61.9091C122.07 61.0275 121.923 60.2834 121.628 59.6768C121.336 59.0703 120.94 58.6113 120.439 58.2997C119.942 57.9882 119.385 57.8324 118.769 57.8324C118.153 57.8324 117.594 57.9882 117.094 58.2997C116.596 58.6113 116.2 59.0703 115.905 59.6768C115.614 60.2834 115.468 61.0275 115.468 61.9091C115.468 62.7907 115.614 63.5348 115.905 64.1413C116.2 64.7479 116.596 65.2069 117.094 65.5185C117.594 65.83 118.153 65.9858 118.769 65.9858C119.385 65.9858 119.942 65.83 120.439 65.5185C120.94 65.2069 121.336 64.7479 121.628 64.1413C121.923 63.5348 122.07 62.7907 122.07 61.9091ZM128.578 59.3636V60.358H124.461V59.3636H128.578ZM125.694 67V58.3097C125.694 57.8722 125.797 57.5076 126.003 57.2159C126.208 56.9242 126.475 56.7055 126.803 56.5597C127.131 56.4138 127.478 56.3409 127.842 56.3409C128.131 56.3409 128.366 56.3641 128.548 56.4105C128.73 56.4569 128.866 56.5 128.956 56.5398L128.618 57.554C128.558 57.5341 128.475 57.5092 128.369 57.4794C128.266 57.4496 128.131 57.4347 127.961 57.4347C127.574 57.4347 127.294 57.5324 127.121 57.728C126.952 57.9235 126.868 58.2102 126.868 58.5881V67H125.694ZM133.623 59.3636V60.358H129.506V59.3636H133.623ZM130.739 67V58.3097C130.739 57.8722 130.842 57.5076 131.048 57.2159C131.253 56.9242 131.52 56.7055 131.848 56.5597C132.176 56.4138 132.522 56.3409 132.887 56.3409C133.175 56.3409 133.411 56.3641 133.593 56.4105C133.775 56.4569 133.911 56.5 134.001 56.5398L133.663 57.554C133.603 57.5341 133.52 57.5092 133.414 57.4794C133.311 57.4496 133.175 57.4347 133.006 57.4347C132.619 57.4347 132.339 57.5324 132.166 57.728C131.997 57.9235 131.913 58.2102 131.913 58.5881V67H130.739ZM135.267 67V59.3636H136.441V67H135.267ZM135.864 58.0909C135.635 58.0909 135.438 58.013 135.272 57.8572C135.11 57.7015 135.029 57.5142 135.029 57.2955C135.029 57.0767 135.11 56.8894 135.272 56.7337C135.438 56.5779 135.635 56.5 135.864 56.5C136.093 56.5 136.288 56.5779 136.45 56.7337C136.616 56.8894 136.699 57.0767 136.699 57.2955C136.699 57.5142 136.616 57.7015 136.45 57.8572C136.288 58.013 136.093 58.0909 135.864 58.0909ZM141.692 67.1591C140.976 67.1591 140.359 66.9901 139.842 66.652C139.325 66.3139 138.928 65.8482 138.649 65.255C138.371 64.6617 138.232 63.9839 138.232 63.2216C138.232 62.446 138.374 61.7616 138.659 61.1683C138.947 60.5717 139.348 60.1061 139.862 59.7713C140.379 59.4332 140.982 59.2642 141.672 59.2642C142.209 59.2642 142.693 59.3636 143.124 59.5625C143.554 59.7614 143.907 60.0398 144.183 60.3977C144.458 60.7557 144.628 61.1733 144.695 61.6506H143.521C143.432 61.3026 143.233 60.9943 142.925 60.7259C142.62 60.4541 142.209 60.3182 141.692 60.3182C141.234 60.3182 140.833 60.4375 140.489 60.6761C140.147 60.9115 139.88 61.2446 139.688 61.6754C139.499 62.103 139.405 62.6051 139.405 63.1818C139.405 63.7718 139.498 64.2855 139.683 64.723C139.872 65.1605 140.137 65.5002 140.479 65.7422C140.823 65.9841 141.228 66.1051 141.692 66.1051C141.997 66.1051 142.273 66.0521 142.522 65.946C142.771 65.84 142.981 65.6875 143.153 65.4886C143.326 65.2898 143.448 65.0511 143.521 64.7727H144.695C144.628 65.2235 144.464 65.6295 144.202 65.9908C143.944 66.3487 143.601 66.6338 143.173 66.8459C142.749 67.0547 142.255 67.1591 141.692 67.1591ZM149.612 67.1591C148.876 67.1591 148.241 66.9967 147.707 66.6719C147.177 66.3438 146.768 65.8864 146.479 65.2997C146.194 64.7098 146.052 64.0237 146.052 63.2415C146.052 62.4593 146.194 61.7699 146.479 61.1733C146.768 60.5734 147.169 60.1061 147.683 59.7713C148.2 59.4332 148.803 59.2642 149.492 59.2642C149.89 59.2642 150.283 59.3305 150.67 59.4631C151.058 59.5956 151.411 59.8111 151.729 60.1094C152.048 60.4044 152.301 60.7955 152.49 61.2827C152.679 61.7699 152.773 62.3698 152.773 63.0824V63.5795H146.887V62.5653H151.58C151.58 62.1345 151.494 61.75 151.322 61.4119C151.153 61.0739 150.911 60.8071 150.596 60.6115C150.284 60.416 149.916 60.3182 149.492 60.3182C149.025 60.3182 148.621 60.4342 148.279 60.6662C147.941 60.8949 147.681 61.1932 147.499 61.5611C147.316 61.929 147.225 62.3234 147.225 62.7443V63.4205C147.225 63.9972 147.325 64.486 147.523 64.8871C147.726 65.2848 148.006 65.5881 148.364 65.7969C148.722 66.0024 149.138 66.1051 149.612 66.1051C149.92 66.1051 150.198 66.062 150.447 65.9759C150.699 65.8864 150.916 65.7538 151.098 65.5781C151.28 65.3991 151.421 65.1771 151.521 64.9119L152.654 65.2301C152.535 65.6146 152.334 65.9527 152.053 66.2443C151.771 66.5327 151.423 66.758 151.009 66.9205C150.594 67.0795 150.129 67.1591 149.612 67.1591ZM154.558 67V59.3636H155.692V60.517H155.771C155.911 60.1392 156.162 59.8326 156.527 59.5973C156.892 59.362 157.303 59.2443 157.76 59.2443C157.846 59.2443 157.954 59.246 158.083 59.2493C158.212 59.2526 158.31 59.2576 158.376 59.2642V60.4574C158.337 60.4474 158.246 60.4325 158.103 60.4126C157.964 60.3894 157.816 60.3778 157.661 60.3778C157.289 60.3778 156.958 60.4557 156.666 60.6115C156.378 60.764 156.149 60.9761 155.98 61.2479C155.814 61.5163 155.732 61.8229 155.732 62.1676V67H154.558Z" fill="#8A8A8A"/>
</svg>
