<svg width="600" height="410" viewBox="0 0 600 410" fill="none" xmlns="http://www.w3.org/2000/svg">
<rect width="600" height="410" rx="30" fill="white"/>
<path d="M300.495 257.539C259.668 257.539 226.45 224.321 226.45 183.494C226.45 142.667 259.668 109.459 300.495 109.459C341.322 109.459 374.54 142.677 374.54 183.494C374.54 224.311 341.322 257.539 300.495 257.539ZM300.495 131.254C271.686 131.254 248.246 154.694 248.246 183.494C248.246 212.294 271.686 235.744 300.495 235.744C329.305 235.744 352.745 212.304 352.745 183.494C352.745 154.684 329.305 131.254 300.495 131.254Z" fill="#F4F4F4"/>
<path d="M300.495 286.082C243.926 286.082 197.908 240.064 197.908 183.495C197.908 126.926 243.936 80.918 300.495 80.918C357.054 80.918 403.082 126.936 403.082 183.495C403.082 240.054 357.064 286.082 300.495 286.082ZM300.495 102.713C255.953 102.713 219.704 138.953 219.704 183.495C219.704 228.037 255.943 264.287 300.495 264.287C345.047 264.287 381.287 228.047 381.287 183.495C381.287 138.943 345.047 102.713 300.495 102.713Z" fill="#F4F4F4"/>
<path d="M300.495 314C228.54 314 170 255.46 170 183.495C170 111.531 228.54 53 300.495 53C372.45 53 430.99 111.54 430.99 183.495C430.99 255.45 372.45 313.99 300.495 313.99V314ZM300.495 74.7954C240.558 74.7954 191.795 123.558 191.795 183.495C191.795 243.432 240.558 292.195 300.495 292.195C360.432 292.195 409.195 243.432 409.195 183.495C409.195 123.558 360.442 74.7954 300.495 74.7954Z" fill="#F4F4F4"/>
<path d="M300.494 53C229.719 53 171.921 109.638 170.049 179.978H191.854C193.717 121.665 241.736 74.7954 300.494 74.7954C359.253 74.7954 409.194 123.558 409.194 183.495C409.194 230.979 378.591 271.439 336.07 286.211L343.283 306.778C394.284 289.024 430.989 240.47 430.989 183.495C430.999 111.54 372.459 53 300.494 53Z" fill="url(#paint0_linear_1700_6352)"/>
<path d="M300.495 80.918C245.105 80.918 199.83 125.054 197.978 180.008H219.793C221.626 137.081 257.112 102.713 300.495 102.713C343.878 102.713 381.287 138.953 381.287 183.495C381.287 193.62 379.395 203.319 375.977 212.255L395.573 221.984C400.407 210.095 403.082 197.107 403.082 183.495C403.082 126.936 357.064 80.918 300.495 80.918Z" fill="url(#paint1_linear_1700_6352)"/>
<path d="M320.329 135.17L328.918 115.138C320.16 111.482 310.56 109.451 300.495 109.451C260.768 109.451 228.263 140.906 226.539 180.217H248.364C250.058 152.933 272.785 131.247 300.495 131.247C307.509 131.247 314.206 132.643 320.319 135.16L320.329 135.17Z" fill="url(#paint2_linear_1700_6352)"/>
<path d="M235.85 165.46C235.85 167.227 237.283 168.66 239.05 168.66C240.817 168.66 242.25 167.227 242.25 165.46C242.25 163.693 240.817 162.26 239.05 162.26C237.283 162.26 235.85 163.693 235.85 165.46ZM134.09 116.5L134.344 115.956L134.223 115.9H134.09V116.5ZM59 116.5V117.1H59.988V116.5V115.9H59V116.5ZM61.9641 116.5V117.1H63.9401V116.5V115.9H61.9641V116.5ZM65.9162 116.5V117.1H67.8922V116.5V115.9H65.9162V116.5ZM69.8683 116.5V117.1H71.8443V116.5V115.9H69.8683V116.5ZM73.8204 116.5V117.1H75.7964V116.5V115.9H73.8204V116.5ZM77.7725 116.5V117.1H79.7486V116.5V115.9H77.7725V116.5ZM81.7246 116.5V117.1H83.7007V116.5V115.9H81.7246V116.5ZM85.6767 116.5V117.1H87.6528V116.5V115.9H85.6767V116.5ZM89.6288 116.5V117.1H91.6049V116.5V115.9H89.6288V116.5ZM93.5809 116.5V117.1H95.557V116.5V115.9H93.5809V116.5ZM97.533 116.5V117.1H99.5091V116.5V115.9H97.533V116.5ZM101.485 116.5V117.1H103.461V116.5V115.9H101.485V116.5ZM105.437 116.5V117.1H107.413V116.5V115.9H105.437V116.5ZM109.389 116.5V117.1H111.365V116.5V115.9H109.389V116.5ZM113.341 116.5V117.1H115.317V116.5V115.9H113.341V116.5ZM117.294 116.5V117.1H119.27V116.5V115.9H117.294V116.5ZM121.246 116.5V117.1H123.222V116.5V115.9H121.246V116.5ZM125.198 116.5V117.1H127.174V116.5V115.9H125.198V116.5ZM129.15 116.5V117.1H131.126V116.5V115.9H129.15V116.5ZM133.102 116.5V117.1H134.09V116.5V115.9H133.102V116.5ZM134.09 116.5L133.836 117.044L134.741 117.466L134.995 116.922L135.248 116.378L134.344 115.956L134.09 116.5ZM136.804 117.766L136.551 118.31L138.36 119.154L138.614 118.61L138.868 118.067L137.058 117.222L136.804 117.766ZM140.424 119.454L140.17 119.998L141.98 120.842L142.233 120.299L142.487 119.755L140.677 118.911L140.424 119.454ZM144.043 121.143L143.789 121.687L145.599 122.531L145.853 121.987L146.106 121.443L144.297 120.599L144.043 121.143ZM147.662 122.831L147.409 123.375L149.218 124.219L149.472 123.675L149.726 123.131L147.916 122.287L147.662 122.831ZM151.282 124.519L151.028 125.063L152.838 125.907L153.091 125.363L153.345 124.82L151.535 123.976L151.282 124.519ZM154.901 126.208L154.647 126.751L156.457 127.595L156.711 127.052L156.964 126.508L155.155 125.664L154.901 126.208ZM158.52 127.896L158.267 128.44L160.076 129.284L160.33 128.74L160.584 128.196L158.774 127.352L158.52 127.896ZM162.14 129.584L161.886 130.128L163.696 130.972L163.949 130.428L164.203 129.885L162.393 129.04L162.14 129.584ZM165.759 131.272L165.505 131.816L167.315 132.66L167.569 132.117L167.822 131.573L166.013 130.729L165.759 131.272ZM169.378 132.961L169.125 133.504L170.934 134.349L171.188 133.805L171.442 133.261L169.632 132.417L169.378 132.961ZM172.998 134.649L172.744 135.193L174.554 136.037L174.807 135.493L175.061 134.949L173.251 134.105L172.998 134.649ZM176.617 136.337L176.363 136.881L178.173 137.725L178.427 137.181L178.68 136.638L176.871 135.793L176.617 136.337ZM180.236 138.026L179.983 138.569L181.792 139.413L182.046 138.87L182.3 138.326L180.49 137.482L180.236 138.026ZM183.856 139.714L183.602 140.258L185.412 141.102L185.665 140.558L185.919 140.014L184.109 139.17L183.856 139.714ZM187.475 141.402L187.221 141.946L189.031 142.79L189.284 142.246L189.538 141.702L187.728 140.858L187.475 141.402ZM191.094 143.09L190.84 143.634L192.65 144.478L192.904 143.934L193.157 143.391L191.348 142.547L191.094 143.09ZM194.713 144.779L194.46 145.322L196.269 146.167L196.523 145.623L196.777 145.079L194.967 144.235L194.713 144.779ZM198.333 146.467L198.079 147.011L199.889 147.855L200.142 147.311L200.396 146.767L198.586 145.923L198.333 146.467ZM201.952 148.155L201.698 148.699L203.508 149.543L203.762 148.999L204.015 148.456L202.206 147.611L201.952 148.155ZM205.571 149.843L205.318 150.387L207.127 151.231L207.381 150.688L207.635 150.144L205.825 149.3L205.571 149.843ZM209.191 151.532L208.937 152.075L210.747 152.92L211 152.376L211.254 151.832L209.444 150.988L209.191 151.532ZM212.81 153.22L212.556 153.764L214.366 154.608L214.62 154.064L214.873 153.52L213.064 152.676L212.81 153.22ZM216.429 154.908L216.176 155.452L217.985 156.296L218.239 155.752L218.493 155.209L216.683 154.365L216.429 154.908ZM220.049 156.597L219.795 157.14L221.605 157.984L221.858 157.441L222.112 156.897L220.302 156.053L220.049 156.597ZM223.668 158.285L223.414 158.829L225.224 159.673L225.478 159.129L225.731 158.585L223.922 157.741L223.668 158.285ZM227.287 159.973L227.034 160.517L228.843 161.361L229.097 160.817L229.35 160.273L227.541 159.429L227.287 159.973ZM230.906 161.661L230.653 162.205L232.462 163.049L232.716 162.505L232.97 161.962L231.16 161.118L230.906 161.661ZM234.526 163.35L234.272 163.893L236.082 164.738L236.335 164.194L236.589 163.65L234.779 162.806L234.526 163.35ZM238.145 165.038L237.891 165.582L238.796 166.004L239.05 165.46L239.304 164.916L238.399 164.494L238.145 165.038Z" fill="white"/>
<path d="M235.85 165.46C235.85 167.227 237.283 168.66 239.05 168.66C240.817 168.66 242.25 167.227 242.25 165.46C242.25 163.693 240.817 162.26 239.05 162.26C237.283 162.26 235.85 163.693 235.85 165.46ZM134.09 116.5L134.344 115.956L134.223 115.9H134.09V116.5ZM59 116.5V117.1H59.988V116.5V115.9H59V116.5ZM61.9641 116.5V117.1H63.9401V116.5V115.9H61.9641V116.5ZM65.9162 116.5V117.1H67.8922V116.5V115.9H65.9162V116.5ZM69.8683 116.5V117.1H71.8443V116.5V115.9H69.8683V116.5ZM73.8204 116.5V117.1H75.7964V116.5V115.9H73.8204V116.5ZM77.7725 116.5V117.1H79.7486V116.5V115.9H77.7725V116.5ZM81.7246 116.5V117.1H83.7007V116.5V115.9H81.7246V116.5ZM85.6767 116.5V117.1H87.6528V116.5V115.9H85.6767V116.5ZM89.6288 116.5V117.1H91.6049V116.5V115.9H89.6288V116.5ZM93.5809 116.5V117.1H95.557V116.5V115.9H93.5809V116.5ZM97.533 116.5V117.1H99.5091V116.5V115.9H97.533V116.5ZM101.485 116.5V117.1H103.461V116.5V115.9H101.485V116.5ZM105.437 116.5V117.1H107.413V116.5V115.9H105.437V116.5ZM109.389 116.5V117.1H111.365V116.5V115.9H109.389V116.5ZM113.341 116.5V117.1H115.317V116.5V115.9H113.341V116.5ZM117.294 116.5V117.1H119.27V116.5V115.9H117.294V116.5ZM121.246 116.5V117.1H123.222V116.5V115.9H121.246V116.5ZM125.198 116.5V117.1H127.174V116.5V115.9H125.198V116.5ZM129.15 116.5V117.1H131.126V116.5V115.9H129.15V116.5ZM133.102 116.5V117.1H134.09V116.5V115.9H133.102V116.5ZM134.09 116.5L133.836 117.044L134.741 117.466L134.995 116.922L135.248 116.378L134.344 115.956L134.09 116.5ZM136.804 117.766L136.551 118.31L138.36 119.154L138.614 118.61L138.868 118.067L137.058 117.222L136.804 117.766ZM140.424 119.454L140.17 119.998L141.98 120.842L142.233 120.299L142.487 119.755L140.677 118.911L140.424 119.454ZM144.043 121.143L143.789 121.687L145.599 122.531L145.853 121.987L146.106 121.443L144.297 120.599L144.043 121.143ZM147.662 122.831L147.409 123.375L149.218 124.219L149.472 123.675L149.726 123.131L147.916 122.287L147.662 122.831ZM151.282 124.519L151.028 125.063L152.838 125.907L153.091 125.363L153.345 124.82L151.535 123.976L151.282 124.519ZM154.901 126.208L154.647 126.751L156.457 127.595L156.711 127.052L156.964 126.508L155.155 125.664L154.901 126.208ZM158.52 127.896L158.267 128.44L160.076 129.284L160.33 128.74L160.584 128.196L158.774 127.352L158.52 127.896ZM162.14 129.584L161.886 130.128L163.696 130.972L163.949 130.428L164.203 129.885L162.393 129.04L162.14 129.584ZM165.759 131.272L165.505 131.816L167.315 132.66L167.569 132.117L167.822 131.573L166.013 130.729L165.759 131.272ZM169.378 132.961L169.125 133.504L170.934 134.349L171.188 133.805L171.442 133.261L169.632 132.417L169.378 132.961ZM172.998 134.649L172.744 135.193L174.554 136.037L174.807 135.493L175.061 134.949L173.251 134.105L172.998 134.649ZM176.617 136.337L176.363 136.881L178.173 137.725L178.427 137.181L178.68 136.638L176.871 135.793L176.617 136.337ZM180.236 138.026L179.983 138.569L181.792 139.413L182.046 138.87L182.3 138.326L180.49 137.482L180.236 138.026ZM183.856 139.714L183.602 140.258L185.412 141.102L185.665 140.558L185.919 140.014L184.109 139.17L183.856 139.714ZM187.475 141.402L187.221 141.946L189.031 142.79L189.284 142.246L189.538 141.702L187.728 140.858L187.475 141.402ZM191.094 143.09L190.84 143.634L192.65 144.478L192.904 143.934L193.157 143.391L191.348 142.547L191.094 143.09ZM194.713 144.779L194.46 145.322L196.269 146.167L196.523 145.623L196.777 145.079L194.967 144.235L194.713 144.779ZM198.333 146.467L198.079 147.011L199.889 147.855L200.142 147.311L200.396 146.767L198.586 145.923L198.333 146.467ZM201.952 148.155L201.698 148.699L203.508 149.543L203.762 148.999L204.015 148.456L202.206 147.611L201.952 148.155ZM205.571 149.843L205.318 150.387L207.127 151.231L207.381 150.688L207.635 150.144L205.825 149.3L205.571 149.843ZM209.191 151.532L208.937 152.075L210.747 152.92L211 152.376L211.254 151.832L209.444 150.988L209.191 151.532ZM212.81 153.22L212.556 153.764L214.366 154.608L214.62 154.064L214.873 153.52L213.064 152.676L212.81 153.22ZM216.429 154.908L216.176 155.452L217.985 156.296L218.239 155.752L218.493 155.209L216.683 154.365L216.429 154.908ZM220.049 156.597L219.795 157.14L221.605 157.984L221.858 157.441L222.112 156.897L220.302 156.053L220.049 156.597ZM223.668 158.285L223.414 158.829L225.224 159.673L225.478 159.129L225.731 158.585L223.922 157.741L223.668 158.285ZM227.287 159.973L227.034 160.517L228.843 161.361L229.097 160.817L229.35 160.273L227.541 159.429L227.287 159.973ZM230.906 161.661L230.653 162.205L232.462 163.049L232.716 162.505L232.97 161.962L231.16 161.118L230.906 161.661ZM234.526 163.35L234.272 163.893L236.082 164.738L236.335 164.194L236.589 163.65L234.779 162.806L234.526 163.35ZM238.145 165.038L237.891 165.582L238.796 166.004L239.05 165.46L239.304 164.916L238.399 164.494L238.145 165.038Z" fill="#3D3D4F"/>
<path d="M369.12 282.38C369.12 284.147 370.553 285.58 372.32 285.58C374.088 285.58 375.52 284.147 375.52 282.38C375.52 280.613 374.088 279.18 372.32 279.18C370.553 279.18 369.12 280.613 369.12 282.38ZM454.75 344.81L454.388 345.288L454.549 345.41H454.75V344.81ZM372.32 282.38L371.958 282.858L372.751 283.458L373.113 282.98L373.475 282.502L372.683 281.902L372.32 282.38ZM374.698 284.181L374.336 284.659L375.921 285.86L376.283 285.381L376.646 284.903L375.06 283.702L374.698 284.181ZM377.868 286.582L377.506 287.06L379.091 288.261L379.454 287.782L379.816 287.304L378.231 286.104L377.868 286.582ZM381.039 288.983L380.677 289.461L382.262 290.662L382.624 290.184L382.986 289.705L381.401 288.505L381.039 288.983ZM384.209 291.384L383.847 291.863L385.432 293.063L385.794 292.585L386.157 292.106L384.572 290.906L384.209 291.384ZM387.38 293.785L387.017 294.264L388.603 295.464L388.965 294.986L389.327 294.508L387.742 293.307L387.38 293.785ZM390.55 296.187L390.188 296.665L391.773 297.865L392.135 297.387L392.497 296.909L390.912 295.708L390.55 296.187ZM393.72 298.588L393.358 299.066L394.943 300.267L395.306 299.788L395.668 299.31L394.083 298.109L393.72 298.588ZM396.891 300.989L396.529 301.467L398.114 302.668L398.476 302.189L398.838 301.711L397.253 300.511L396.891 300.989ZM400.061 303.39L399.699 303.868L401.284 305.069L401.646 304.591L402.009 304.112L400.423 302.912L400.061 303.39ZM403.232 305.791L402.869 306.269L404.454 307.47L404.817 306.992L405.179 306.513L403.594 305.313L403.232 305.791ZM406.402 308.192L406.04 308.671L407.625 309.871L407.987 309.393L408.349 308.915L406.764 307.714L406.402 308.192ZM409.572 310.593L409.21 311.072L410.795 312.272L411.158 311.794L411.52 311.316L409.935 310.115L409.572 310.593ZM412.743 312.995L412.38 313.473L413.966 314.673L414.328 314.195L414.69 313.717L413.105 312.516L412.743 312.995ZM415.913 315.396L415.551 315.874L417.136 317.075L417.498 316.596L417.861 316.118L416.275 314.917L415.913 315.396ZM419.083 317.797L418.721 318.275L420.306 319.476L420.669 318.997L421.031 318.519L419.446 317.319L419.083 317.797ZM422.254 320.198L421.892 320.676L423.477 321.877L423.839 321.399L424.201 320.92L422.616 319.72L422.254 320.198ZM425.424 322.599L425.062 323.078L426.647 324.278L427.009 323.8L427.372 323.321L425.786 322.121L425.424 322.599ZM428.595 325L428.232 325.479L429.818 326.679L430.18 326.201L430.542 325.723L428.957 324.522L428.595 325ZM431.765 327.402L431.403 327.88L432.988 329.08L433.35 328.602L433.712 328.124L432.127 326.923L431.765 327.402ZM434.935 329.803L434.573 330.281L436.158 331.482L436.521 331.003L436.883 330.525L435.298 329.324L434.935 329.803ZM438.106 332.204L437.744 332.682L439.329 333.883L439.691 333.404L440.053 332.926L438.468 331.726L438.106 332.204ZM441.276 334.605L440.914 335.083L442.499 336.284L442.861 335.806L443.224 335.327L441.638 334.127L441.276 334.605ZM444.447 337.006L444.084 337.484L445.67 338.685L446.032 338.207L446.394 337.728L444.809 336.528L444.447 337.006ZM447.617 339.407L447.255 339.886L448.84 341.086L449.202 340.608L449.564 340.13L447.979 338.929L447.617 339.407ZM450.787 341.808L450.425 342.287L452.01 343.487L452.373 343.009L452.735 342.531L451.15 341.33L450.787 341.808ZM453.958 344.21L453.596 344.688L454.388 345.288L454.75 344.81L455.113 344.332L454.32 343.731L453.958 344.21ZM454.75 344.81V345.41H455.726V344.81V344.21H454.75V344.81ZM457.677 344.81V345.41H459.628V344.81V344.21H457.677V344.81ZM461.579 344.81V345.41H463.53V344.81V344.21H461.579V344.81ZM465.481 344.81V345.41H467.432V344.81V344.21H465.481V344.81ZM469.383 344.81V345.41H471.334V344.81V344.21H469.383V344.81ZM473.285 344.81V345.41H475.236V344.81V344.21H473.285V344.81ZM477.187 344.81V345.41H479.138V344.81V344.21H477.187V344.81ZM481.089 344.81V345.41H483.04V344.81V344.21H481.089V344.81ZM484.991 344.81V345.41H486.942V344.81V344.21H484.991V344.81ZM488.893 344.81V345.41H490.844V344.81V344.21H488.893V344.81ZM492.795 344.81V345.41H494.746V344.81V344.21H492.795V344.81ZM496.697 344.81V345.41H498.648V344.81V344.21H496.697V344.81ZM500.599 344.81V345.41H502.55V344.81V344.21H500.599V344.81ZM504.501 344.81V345.41H506.452V344.81V344.21H504.501V344.81ZM508.403 344.81V345.41H510.354V344.81V344.21H508.403V344.81ZM512.305 344.81V345.41H514.256V344.81V344.21H512.305V344.81ZM516.207 344.81V345.41H518.158V344.81V344.21H516.207V344.81ZM520.109 344.81V345.41H522.06V344.81V344.21H520.109V344.81ZM524.011 344.81V345.41H525.962V344.81V344.21H524.011V344.81ZM527.913 344.81V345.41H529.864V344.81V344.21H527.913V344.81ZM531.815 344.81V345.41H532.79V344.81V344.21H531.815V344.81Z" fill="white"/>
<path d="M369.12 282.38C369.12 284.147 370.553 285.58 372.32 285.58C374.088 285.58 375.52 284.147 375.52 282.38C375.52 280.613 374.088 279.18 372.32 279.18C370.553 279.18 369.12 280.613 369.12 282.38ZM454.75 344.81L454.388 345.288L454.549 345.41H454.75V344.81ZM372.32 282.38L371.958 282.858L372.751 283.458L373.113 282.98L373.475 282.502L372.683 281.902L372.32 282.38ZM374.698 284.181L374.336 284.659L375.921 285.86L376.283 285.381L376.646 284.903L375.06 283.702L374.698 284.181ZM377.868 286.582L377.506 287.06L379.091 288.261L379.454 287.782L379.816 287.304L378.231 286.104L377.868 286.582ZM381.039 288.983L380.677 289.461L382.262 290.662L382.624 290.184L382.986 289.705L381.401 288.505L381.039 288.983ZM384.209 291.384L383.847 291.863L385.432 293.063L385.794 292.585L386.157 292.106L384.572 290.906L384.209 291.384ZM387.38 293.785L387.017 294.264L388.603 295.464L388.965 294.986L389.327 294.508L387.742 293.307L387.38 293.785ZM390.55 296.187L390.188 296.665L391.773 297.865L392.135 297.387L392.497 296.909L390.912 295.708L390.55 296.187ZM393.72 298.588L393.358 299.066L394.943 300.267L395.306 299.788L395.668 299.31L394.083 298.109L393.72 298.588ZM396.891 300.989L396.529 301.467L398.114 302.668L398.476 302.189L398.838 301.711L397.253 300.511L396.891 300.989ZM400.061 303.39L399.699 303.868L401.284 305.069L401.646 304.591L402.009 304.112L400.423 302.912L400.061 303.39ZM403.232 305.791L402.869 306.269L404.454 307.47L404.817 306.992L405.179 306.513L403.594 305.313L403.232 305.791ZM406.402 308.192L406.04 308.671L407.625 309.871L407.987 309.393L408.349 308.915L406.764 307.714L406.402 308.192ZM409.572 310.593L409.21 311.072L410.795 312.272L411.158 311.794L411.52 311.316L409.935 310.115L409.572 310.593ZM412.743 312.995L412.38 313.473L413.966 314.673L414.328 314.195L414.69 313.717L413.105 312.516L412.743 312.995ZM415.913 315.396L415.551 315.874L417.136 317.075L417.498 316.596L417.861 316.118L416.275 314.917L415.913 315.396ZM419.083 317.797L418.721 318.275L420.306 319.476L420.669 318.997L421.031 318.519L419.446 317.319L419.083 317.797ZM422.254 320.198L421.892 320.676L423.477 321.877L423.839 321.399L424.201 320.92L422.616 319.72L422.254 320.198ZM425.424 322.599L425.062 323.078L426.647 324.278L427.009 323.8L427.372 323.321L425.786 322.121L425.424 322.599ZM428.595 325L428.232 325.479L429.818 326.679L430.18 326.201L430.542 325.723L428.957 324.522L428.595 325ZM431.765 327.402L431.403 327.88L432.988 329.08L433.35 328.602L433.712 328.124L432.127 326.923L431.765 327.402ZM434.935 329.803L434.573 330.281L436.158 331.482L436.521 331.003L436.883 330.525L435.298 329.324L434.935 329.803ZM438.106 332.204L437.744 332.682L439.329 333.883L439.691 333.404L440.053 332.926L438.468 331.726L438.106 332.204ZM441.276 334.605L440.914 335.083L442.499 336.284L442.861 335.806L443.224 335.327L441.638 334.127L441.276 334.605ZM444.447 337.006L444.084 337.484L445.67 338.685L446.032 338.207L446.394 337.728L444.809 336.528L444.447 337.006ZM447.617 339.407L447.255 339.886L448.84 341.086L449.202 340.608L449.564 340.13L447.979 338.929L447.617 339.407ZM450.787 341.808L450.425 342.287L452.01 343.487L452.373 343.009L452.735 342.531L451.15 341.33L450.787 341.808ZM453.958 344.21L453.596 344.688L454.388 345.288L454.75 344.81L455.113 344.332L454.32 343.731L453.958 344.21ZM454.75 344.81V345.41H455.726V344.81V344.21H454.75V344.81ZM457.677 344.81V345.41H459.628V344.81V344.21H457.677V344.81ZM461.579 344.81V345.41H463.53V344.81V344.21H461.579V344.81ZM465.481 344.81V345.41H467.432V344.81V344.21H465.481V344.81ZM469.383 344.81V345.41H471.334V344.81V344.21H469.383V344.81ZM473.285 344.81V345.41H475.236V344.81V344.21H473.285V344.81ZM477.187 344.81V345.41H479.138V344.81V344.21H477.187V344.81ZM481.089 344.81V345.41H483.04V344.81V344.21H481.089V344.81ZM484.991 344.81V345.41H486.942V344.81V344.21H484.991V344.81ZM488.893 344.81V345.41H490.844V344.81V344.21H488.893V344.81ZM492.795 344.81V345.41H494.746V344.81V344.21H492.795V344.81ZM496.697 344.81V345.41H498.648V344.81V344.21H496.697V344.81ZM500.599 344.81V345.41H502.55V344.81V344.21H500.599V344.81ZM504.501 344.81V345.41H506.452V344.81V344.21H504.501V344.81ZM508.403 344.81V345.41H510.354V344.81V344.21H508.403V344.81ZM512.305 344.81V345.41H514.256V344.81V344.21H512.305V344.81ZM516.207 344.81V345.41H518.158V344.81V344.21H516.207V344.81ZM520.109 344.81V345.41H522.06V344.81V344.21H520.109V344.81ZM524.011 344.81V345.41H525.962V344.81V344.21H524.011V344.81ZM527.913 344.81V345.41H529.864V344.81V344.21H527.913V344.81ZM531.815 344.81V345.41H532.79V344.81V344.21H531.815V344.81Z" fill="#3D3D4F"/>
<path d="M388.05 168.98C388.05 170.747 389.483 172.18 391.25 172.18C393.017 172.18 394.45 170.747 394.45 168.98C394.45 167.213 393.017 165.78 391.25 165.78C389.483 165.78 388.05 167.213 388.05 168.98ZM464.07 135.5V134.9H463.939L463.819 134.955L464.07 135.5ZM391.25 168.98L391.501 169.525L392.411 169.107L392.16 168.562L391.91 168.016L390.999 168.435L391.25 168.98ZM393.981 167.724L394.231 168.27L396.052 167.433L395.801 166.887L395.551 166.342L393.73 167.179L393.981 167.724ZM397.622 166.05L397.872 166.596L399.693 165.759L399.442 165.213L399.192 164.668L397.371 165.505L397.622 166.05ZM401.263 164.376L401.513 164.922L403.334 164.085L403.083 163.539L402.833 162.994L401.012 163.831L401.263 164.376ZM404.904 162.702L405.154 163.248L406.975 162.411L406.724 161.865L406.474 161.32L404.653 162.157L404.904 162.702ZM408.545 161.028L408.795 161.574L410.616 160.737L410.365 160.191L410.115 159.646L408.294 160.483L408.545 161.028ZM412.186 159.354L412.436 159.9L414.257 159.063L414.006 158.517L413.756 157.972L411.935 158.809L412.186 159.354ZM415.827 157.68L416.077 158.226L417.898 157.389L417.647 156.843L417.397 156.298L415.576 157.135L415.827 157.68ZM419.468 156.006L419.718 156.552L421.539 155.715L421.288 155.169L421.038 154.624L419.217 155.461L419.468 156.006ZM423.109 154.332L423.359 154.878L425.18 154.041L424.929 153.495L424.679 152.95L422.858 153.787L423.109 154.332ZM426.75 152.658L427 153.204L428.821 152.367L428.57 151.822L428.32 151.276L426.499 152.113L426.75 152.658ZM430.391 150.985L430.641 151.53L432.462 150.693L432.211 150.148L431.961 149.602L430.14 150.439L430.391 150.985ZM434.032 149.311L434.282 149.856L436.103 149.019L435.852 148.474L435.602 147.928L433.781 148.765L434.032 149.311ZM437.673 147.637L437.923 148.182L439.744 147.345L439.493 146.8L439.243 146.254L437.422 147.091L437.673 147.637ZM441.314 145.963L441.564 146.508L443.385 145.671L443.134 145.126L442.884 144.58L441.063 145.417L441.314 145.963ZM444.955 144.289L445.205 144.834L447.026 143.997L446.775 143.452L446.525 142.906L444.704 143.743L444.955 144.289ZM448.596 142.615L448.846 143.16L450.667 142.323L450.416 141.778L450.166 141.232L448.345 142.069L448.596 142.615ZM452.237 140.941L452.487 141.486L454.308 140.649L454.057 140.104L453.807 139.558L451.986 140.395L452.237 140.941ZM455.878 139.267L456.128 139.812L457.949 138.975L457.698 138.43L457.448 137.884L455.627 138.721L455.878 139.267ZM459.519 137.593L459.769 138.138L461.59 137.301L461.339 136.756L461.089 136.21L459.268 137.047L459.519 137.593ZM463.16 135.919L463.41 136.464L464.321 136.045L464.07 135.5L463.819 134.955L462.909 135.373L463.16 135.919ZM464.07 135.5V136.1H465.081V135.5V134.9H464.07V135.5ZM467.102 135.5V136.1H469.123V135.5V134.9H467.102V135.5ZM471.144 135.5V136.1H473.165V135.5V134.9H471.144V135.5ZM475.186 135.5V136.1H477.207V135.5V134.9H475.186V135.5ZM479.228 135.5V136.1H481.249V135.5V134.9H479.228V135.5ZM483.271 135.5V136.1H485.292V135.5V134.9H483.271V135.5ZM487.313 135.5V136.1H489.334V135.5V134.9H487.313V135.5ZM491.355 135.5V136.1H493.376V135.5V134.9H491.355V135.5ZM495.397 135.5V136.1H497.418V135.5V134.9H495.397V135.5ZM499.439 135.5V136.1H501.461V135.5V134.9H499.439V135.5ZM503.482 135.5V136.1H505.503V135.5V134.9H503.482V135.5ZM507.524 135.5V136.1H509.545V135.5V134.9H507.524V135.5ZM511.566 135.5V136.1H513.587V135.5V134.9H511.566V135.5ZM515.608 135.5V136.1H517.629V135.5V134.9H515.608V135.5ZM519.651 135.5V136.1H521.672V135.5V134.9H519.651V135.5ZM523.693 135.5V136.1H525.714V135.5V134.9H523.693V135.5ZM527.735 135.5V136.1H529.756V135.5V134.9H527.735V135.5ZM531.777 135.5V136.1H533.798V135.5V134.9H531.777V135.5ZM535.819 135.5V136.1H536.83V135.5V134.9H535.819V135.5Z" fill="white"/>
<path d="M388.05 168.98C388.05 170.747 389.483 172.18 391.25 172.18C393.017 172.18 394.45 170.747 394.45 168.98C394.45 167.213 393.017 165.78 391.25 165.78C389.483 165.78 388.05 167.213 388.05 168.98ZM464.07 135.5V134.9H463.939L463.819 134.955L464.07 135.5ZM391.25 168.98L391.501 169.525L392.411 169.107L392.16 168.562L391.91 168.016L390.999 168.435L391.25 168.98ZM393.981 167.724L394.231 168.27L396.052 167.433L395.801 166.887L395.551 166.342L393.73 167.179L393.981 167.724ZM397.622 166.05L397.872 166.596L399.693 165.759L399.442 165.213L399.192 164.668L397.371 165.505L397.622 166.05ZM401.263 164.376L401.513 164.922L403.334 164.085L403.083 163.539L402.833 162.994L401.012 163.831L401.263 164.376ZM404.904 162.702L405.154 163.248L406.975 162.411L406.724 161.865L406.474 161.32L404.653 162.157L404.904 162.702ZM408.545 161.028L408.795 161.574L410.616 160.737L410.365 160.191L410.115 159.646L408.294 160.483L408.545 161.028ZM412.186 159.354L412.436 159.9L414.257 159.063L414.006 158.517L413.756 157.972L411.935 158.809L412.186 159.354ZM415.827 157.68L416.077 158.226L417.898 157.389L417.647 156.843L417.397 156.298L415.576 157.135L415.827 157.68ZM419.468 156.006L419.718 156.552L421.539 155.715L421.288 155.169L421.038 154.624L419.217 155.461L419.468 156.006ZM423.109 154.332L423.359 154.878L425.18 154.041L424.929 153.495L424.679 152.95L422.858 153.787L423.109 154.332ZM426.75 152.658L427 153.204L428.821 152.367L428.57 151.822L428.32 151.276L426.499 152.113L426.75 152.658ZM430.391 150.985L430.641 151.53L432.462 150.693L432.211 150.148L431.961 149.602L430.14 150.439L430.391 150.985ZM434.032 149.311L434.282 149.856L436.103 149.019L435.852 148.474L435.602 147.928L433.781 148.765L434.032 149.311ZM437.673 147.637L437.923 148.182L439.744 147.345L439.493 146.8L439.243 146.254L437.422 147.091L437.673 147.637ZM441.314 145.963L441.564 146.508L443.385 145.671L443.134 145.126L442.884 144.58L441.063 145.417L441.314 145.963ZM444.955 144.289L445.205 144.834L447.026 143.997L446.775 143.452L446.525 142.906L444.704 143.743L444.955 144.289ZM448.596 142.615L448.846 143.16L450.667 142.323L450.416 141.778L450.166 141.232L448.345 142.069L448.596 142.615ZM452.237 140.941L452.487 141.486L454.308 140.649L454.057 140.104L453.807 139.558L451.986 140.395L452.237 140.941ZM455.878 139.267L456.128 139.812L457.949 138.975L457.698 138.43L457.448 137.884L455.627 138.721L455.878 139.267ZM459.519 137.593L459.769 138.138L461.59 137.301L461.339 136.756L461.089 136.21L459.268 137.047L459.519 137.593ZM463.16 135.919L463.41 136.464L464.321 136.045L464.07 135.5L463.819 134.955L462.909 135.373L463.16 135.919ZM464.07 135.5V136.1H465.081V135.5V134.9H464.07V135.5ZM467.102 135.5V136.1H469.123V135.5V134.9H467.102V135.5ZM471.144 135.5V136.1H473.165V135.5V134.9H471.144V135.5ZM475.186 135.5V136.1H477.207V135.5V134.9H475.186V135.5ZM479.228 135.5V136.1H481.249V135.5V134.9H479.228V135.5ZM483.271 135.5V136.1H485.292V135.5V134.9H483.271V135.5ZM487.313 135.5V136.1H489.334V135.5V134.9H487.313V135.5ZM491.355 135.5V136.1H493.376V135.5V134.9H491.355V135.5ZM495.397 135.5V136.1H497.418V135.5V134.9H495.397V135.5ZM499.439 135.5V136.1H501.461V135.5V134.9H499.439V135.5ZM503.482 135.5V136.1H505.503V135.5V134.9H503.482V135.5ZM507.524 135.5V136.1H509.545V135.5V134.9H507.524V135.5ZM511.566 135.5V136.1H513.587V135.5V134.9H511.566V135.5ZM515.608 135.5V136.1H517.629V135.5V134.9H515.608V135.5ZM519.651 135.5V136.1H521.672V135.5V134.9H519.651V135.5ZM523.693 135.5V136.1H525.714V135.5V134.9H523.693V135.5ZM527.735 135.5V136.1H529.756V135.5V134.9H527.735V135.5ZM531.777 135.5V136.1H533.798V135.5V134.9H531.777V135.5ZM535.819 135.5V136.1H536.83V135.5V134.9H535.819V135.5Z" fill="#3D3D4F"/>
<path d="M46.4 349L45.06 345.44H39.06L37.74 349H35.2L40.72 334.82H43.5L49.02 349H46.4ZM42.06 337.42L39.9 343.22H44.22L42.06 337.42ZM56.3602 339.2V341.56C56.1002 341.52 55.8402 341.5 55.6002 341.5C53.8002 341.5 52.9802 342.54 52.9802 344.36V349H50.6602V339.26H52.9202V340.82C53.3802 339.76 54.4602 339.14 55.7402 339.14C56.0202 339.14 56.2602 339.18 56.3602 339.2ZM63.9969 339.2V341.56C63.7369 341.52 63.4769 341.5 63.2369 341.5C61.4369 341.5 60.6169 342.54 60.6169 344.36V349H58.2969V339.26H60.5569V340.82C61.0169 339.76 62.0969 339.14 63.3769 339.14C63.6569 339.14 63.8969 339.18 63.9969 339.2ZM65.3531 346.36C65.3531 344.62 66.6331 343.66 68.2931 343.42L70.7931 343.04C71.3531 342.96 71.5131 342.68 71.5131 342.34C71.5131 341.52 70.9531 340.86 69.6731 340.86C68.4531 340.86 67.7731 341.64 67.6731 342.62L65.5531 342.14C65.7331 340.46 67.2531 338.96 69.6531 338.96C72.6531 338.96 73.7931 340.66 73.7931 342.6V347.44C73.7931 348.32 73.8931 348.9 73.9131 349H71.7531C71.7331 348.94 71.6531 348.54 71.6531 347.76C71.1931 348.5 70.2331 349.3 68.6531 349.3C66.6131 349.3 65.3531 347.9 65.3531 346.36ZM69.0931 347.48C70.3931 347.48 71.5131 346.86 71.5131 344.96V344.52L68.9731 344.9C68.2531 345.02 67.6731 345.42 67.6731 346.22C67.6731 346.88 68.1731 347.48 69.0931 347.48ZM78.9177 343.38V349H76.5977V339.26H78.8577V340.56C79.4977 339.44 80.6577 338.98 81.7377 338.98C84.1177 338.98 85.2577 340.7 85.2577 342.84V349H82.9377V343.24C82.9377 342.04 82.3977 341.08 80.9377 341.08C79.6177 341.08 78.9177 342.1 78.9177 343.38ZM87.382 349.54L89.522 348.98C89.682 350.18 90.622 351.08 91.962 351.08C93.802 351.08 94.722 350.14 94.722 348.16V347.14C94.302 347.9 93.322 348.56 91.902 348.56C89.302 348.56 87.402 346.56 87.402 343.82C87.402 341.22 89.222 339.08 91.902 339.08C93.422 339.08 94.362 339.7 94.782 340.5V339.26H97.022V348.08C97.022 350.68 95.682 353.1 92.022 353.1C89.442 353.1 87.642 351.5 87.382 349.54ZM92.282 346.58C93.762 346.58 94.782 345.5 94.782 343.82C94.782 342.16 93.722 341.08 92.282 341.08C90.802 341.08 89.742 342.16 89.742 343.82C89.742 345.52 90.762 346.58 92.282 346.58ZM101.479 343.06H106.259C106.219 341.92 105.459 340.9 103.859 340.9C102.399 340.9 101.559 342.02 101.479 343.06ZM106.519 345.6L108.479 346.22C107.959 347.92 106.419 349.3 104.079 349.3C101.439 349.3 99.0994 347.38 99.0994 344.08C99.0994 341 101.379 338.96 103.839 338.96C106.839 338.96 108.599 340.94 108.599 344.02C108.599 344.4 108.559 344.72 108.539 344.76H101.419C101.479 346.24 102.639 347.3 104.079 347.3C105.479 347.3 106.199 346.56 106.519 345.6ZM113.116 349H110.816V339.26H113.036V340.5C113.596 339.5 114.816 338.98 115.916 338.98C117.196 338.98 118.316 339.56 118.836 340.7C119.596 339.42 120.736 338.98 121.996 338.98C123.756 338.98 125.436 340.1 125.436 342.68V349H123.196V343.06C123.196 341.92 122.616 341.06 121.316 341.06C120.096 341.06 119.296 342.02 119.296 343.22V349H117.016V343.06C117.016 341.94 116.456 341.06 115.136 341.06C113.896 341.06 113.116 341.98 113.116 343.22V349ZM129.897 343.06H134.677C134.637 341.92 133.877 340.9 132.277 340.9C130.817 340.9 129.977 342.02 129.897 343.06ZM134.937 345.6L136.897 346.22C136.377 347.92 134.837 349.3 132.497 349.3C129.857 349.3 127.517 347.38 127.517 344.08C127.517 341 129.797 338.96 132.257 338.96C135.257 338.96 137.017 340.94 137.017 344.02C137.017 344.4 136.977 344.72 136.957 344.76H129.837C129.897 346.24 131.057 347.3 132.497 347.3C133.897 347.3 134.617 346.56 134.937 345.6ZM141.554 343.38V349H139.234V339.26H141.494V340.56C142.134 339.44 143.294 338.98 144.374 338.98C146.754 338.98 147.894 340.7 147.894 342.84V349H145.574V343.24C145.574 342.04 145.034 341.08 143.574 341.08C142.254 341.08 141.554 342.1 141.554 343.38ZM153.659 336.28V339.26H155.679V341.32H153.659V345.84C153.659 346.7 154.039 347.06 154.899 347.06C155.219 347.06 155.599 347 155.699 346.98V348.9C155.559 348.96 155.119 349.12 154.279 349.12C152.479 349.12 151.359 348.04 151.359 346.22V341.32H149.559V339.26H150.059C151.099 339.26 151.559 338.6 151.559 337.74V336.28H153.659ZM157.359 346.36L159.379 345.8C159.459 346.68 160.119 347.46 161.359 347.46C162.319 347.46 162.819 346.94 162.819 346.34C162.819 345.82 162.459 345.42 161.679 345.26L160.239 344.94C158.519 344.56 157.619 343.44 157.619 342.1C157.619 340.4 159.179 338.96 161.199 338.96C163.919 338.96 164.799 340.72 164.959 341.68L162.999 342.24C162.919 341.68 162.499 340.78 161.199 340.78C160.379 340.78 159.799 341.3 159.799 341.9C159.799 342.42 160.179 342.8 160.779 342.92L162.259 343.22C164.099 343.62 165.059 344.74 165.059 346.18C165.059 347.66 163.859 349.3 161.379 349.3C158.559 349.3 157.479 347.46 157.359 346.36ZM179.68 349L176.7 343.4H174.94V349H172.52V334.82H177.96C180.7 334.82 182.4 336.72 182.4 339.12C182.4 341.14 181.18 342.68 179.2 343.16L182.4 349H179.68ZM174.94 341.28H177.52C179 341.28 179.96 340.42 179.96 339.12C179.96 337.8 179 336.94 177.52 336.94H174.94V341.28ZM187.062 349H184.762V339.26H187.062V349ZM184.402 335.84C184.402 335 185.082 334.32 185.902 334.32C186.742 334.32 187.422 335 187.422 335.84C187.422 336.68 186.742 337.34 185.902 337.34C185.082 337.34 184.402 336.68 184.402 335.84ZM189.195 346.36L191.215 345.8C191.295 346.68 191.955 347.46 193.195 347.46C194.155 347.46 194.655 346.94 194.655 346.34C194.655 345.82 194.295 345.42 193.515 345.26L192.075 344.94C190.355 344.56 189.455 343.44 189.455 342.1C189.455 340.4 191.015 338.96 193.035 338.96C195.755 338.96 196.635 340.72 196.795 341.68L194.835 342.24C194.755 341.68 194.335 340.78 193.035 340.78C192.215 340.78 191.635 341.3 191.635 341.9C191.635 342.42 192.015 342.8 192.615 342.92L194.095 343.22C195.935 343.62 196.895 344.74 196.895 346.18C196.895 347.66 195.695 349.3 193.215 349.3C190.395 349.3 189.315 347.46 189.195 346.36ZM208.315 339.26L204.315 343.38L208.395 349H205.555L202.695 345.02L201.495 346.28V349H199.195V334.52H201.495V343.2L205.235 339.26H208.315ZM45.6 374H36.7V359.82H39.1V371.72H45.6V374ZM49.1747 368.06H53.9547C53.9147 366.92 53.1547 365.9 51.5547 365.9C50.0947 365.9 49.2547 367.02 49.1747 368.06ZM54.2147 370.6L56.1747 371.22C55.6547 372.92 54.1147 374.3 51.7747 374.3C49.1347 374.3 46.7947 372.38 46.7947 369.08C46.7947 366 49.0747 363.96 51.5347 363.96C54.5347 363.96 56.2947 365.94 56.2947 369.02C56.2947 369.4 56.2547 369.72 56.2347 369.76H49.1147C49.1747 371.24 50.3347 372.3 51.7747 372.3C53.1747 372.3 53.8947 371.56 54.2147 370.6ZM67.1164 364.26L63.2964 374H60.9764L57.0164 364.26H59.5764L62.1564 371.22L64.6764 364.26H67.1164ZM70.1513 368.06H74.9313C74.8913 366.92 74.1313 365.9 72.5313 365.9C71.0713 365.9 70.2313 367.02 70.1513 368.06ZM75.1913 370.6L77.1513 371.22C76.6313 372.92 75.0913 374.3 72.7513 374.3C70.1113 374.3 67.7713 372.38 67.7713 369.08C67.7713 366 70.0513 363.96 72.5113 363.96C75.5113 363.96 77.2713 365.94 77.2713 369.02C77.2713 369.4 77.2313 369.72 77.2113 369.76H70.0913C70.1513 371.24 71.3113 372.3 72.7513 372.3C74.1513 372.3 74.8713 371.56 75.1913 370.6ZM81.8083 374H79.4883V359.52H81.8083V374ZM99.2817 363.14L97.1217 363.82C96.9817 362.94 96.2417 361.64 94.3417 361.64C92.9017 361.64 91.9017 362.6 91.9017 363.68C91.9017 364.58 92.4617 365.26 93.5617 365.5L95.6017 365.92C98.1017 366.42 99.4417 368 99.4417 370C99.4417 372.2 97.6617 374.3 94.4217 374.3C90.8217 374.3 89.1617 371.98 88.9417 369.94L91.1817 369.3C91.3217 370.78 92.3817 372.14 94.4217 372.14C96.1217 372.14 97.0017 371.28 97.0017 370.18C97.0017 369.26 96.3217 368.52 95.1017 368.26L93.1017 367.84C90.9417 367.4 89.5017 365.98 89.5017 363.86C89.5017 361.48 91.6817 359.52 94.3217 359.52C97.6617 359.52 98.9617 361.56 99.2817 363.14ZM104.635 361.28V364.26H106.655V366.32H104.635V370.84C104.635 371.7 105.015 372.06 105.875 372.06C106.195 372.06 106.575 372 106.675 371.98V373.9C106.535 373.96 106.095 374.12 105.255 374.12C103.455 374.12 102.335 373.04 102.335 371.22V366.32H100.535V364.26H101.035C102.075 364.26 102.535 363.6 102.535 362.74V361.28H104.635ZM108.459 371.36C108.459 369.62 109.739 368.66 111.399 368.42L113.899 368.04C114.459 367.96 114.619 367.68 114.619 367.34C114.619 366.52 114.059 365.86 112.779 365.86C111.559 365.86 110.879 366.64 110.779 367.62L108.659 367.14C108.839 365.46 110.359 363.96 112.759 363.96C115.759 363.96 116.899 365.66 116.899 367.6V372.44C116.899 373.32 116.999 373.9 117.019 374H114.859C114.839 373.94 114.759 373.54 114.759 372.76C114.299 373.5 113.339 374.3 111.759 374.3C109.719 374.3 108.459 372.9 108.459 371.36ZM112.199 372.48C113.499 372.48 114.619 371.86 114.619 369.96V369.52L112.079 369.9C111.359 370.02 110.779 370.42 110.779 371.22C110.779 371.88 111.279 372.48 112.199 372.48ZM122.604 361.28V364.26H124.624V366.32H122.604V370.84C122.604 371.7 122.984 372.06 123.844 372.06C124.164 372.06 124.544 372 124.644 371.98V373.9C124.504 373.96 124.064 374.12 123.224 374.12C121.424 374.12 120.304 373.04 120.304 371.22V366.32H118.504V364.26H119.004C120.044 364.26 120.504 363.6 120.504 362.74V361.28H122.604ZM129.308 374H127.008V364.26H129.308V374ZM126.648 360.84C126.648 360 127.328 359.32 128.148 359.32C128.988 359.32 129.668 360 129.668 360.84C129.668 361.68 128.988 362.34 128.148 362.34C127.328 362.34 126.648 361.68 126.648 360.84ZM131.441 371.36L133.461 370.8C133.541 371.68 134.201 372.46 135.441 372.46C136.401 372.46 136.901 371.94 136.901 371.34C136.901 370.82 136.541 370.42 135.761 370.26L134.321 369.94C132.601 369.56 131.701 368.44 131.701 367.1C131.701 365.4 133.261 363.96 135.281 363.96C138.001 363.96 138.881 365.72 139.041 366.68L137.081 367.24C137.001 366.68 136.581 365.78 135.281 365.78C134.461 365.78 133.881 366.3 133.881 366.9C133.881 367.42 134.261 367.8 134.861 367.92L136.341 368.22C138.181 368.62 139.141 369.74 139.141 371.18C139.141 372.66 137.941 374.3 135.461 374.3C132.641 374.3 131.561 372.46 131.441 371.36ZM144.381 361.28V364.26H146.401V366.32H144.381V370.84C144.381 371.7 144.761 372.06 145.621 372.06C145.941 372.06 146.321 372 146.421 371.98V373.9C146.281 373.96 145.841 374.12 145.001 374.12C143.201 374.12 142.081 373.04 142.081 371.22V366.32H140.281V364.26H140.781C141.821 364.26 142.281 363.6 142.281 362.74V361.28H144.381ZM151.085 374H148.785V364.26H151.085V374ZM148.425 360.84C148.425 360 149.105 359.32 149.925 359.32C150.765 359.32 151.445 360 151.445 360.84C151.445 361.68 150.765 362.34 149.925 362.34C149.105 362.34 148.425 361.68 148.425 360.84ZM158.318 366.1C156.898 366.1 155.638 367.16 155.638 369.12C155.638 371.08 156.898 372.18 158.358 372.18C159.878 372.18 160.578 371.12 160.798 370.38L162.838 371.12C162.378 372.64 160.918 374.3 158.358 374.3C155.498 374.3 153.318 372.08 153.318 369.12C153.318 366.12 155.498 363.96 158.298 363.96C160.918 363.96 162.358 365.6 162.758 367.16L160.678 367.92C160.458 367.06 159.798 366.1 158.318 366.1ZM164.038 371.36L166.058 370.8C166.138 371.68 166.798 372.46 168.038 372.46C168.998 372.46 169.498 371.94 169.498 371.34C169.498 370.82 169.138 370.42 168.358 370.26L166.918 369.94C165.198 369.56 164.298 368.44 164.298 367.1C164.298 365.4 165.858 363.96 167.878 363.96C170.598 363.96 171.478 365.72 171.638 366.68L169.678 367.24C169.598 366.68 169.178 365.78 167.878 365.78C167.058 365.78 166.478 366.3 166.478 366.9C166.478 367.42 166.858 367.8 167.458 367.92L168.938 368.22C170.778 368.62 171.738 369.74 171.738 371.18C171.738 372.66 170.538 374.3 168.058 374.3C165.238 374.3 164.158 372.46 164.038 371.36Z" fill="white"/>
<path d="M46.4 349L45.06 345.44H39.06L37.74 349H35.2L40.72 334.82H43.5L49.02 349H46.4ZM42.06 337.42L39.9 343.22H44.22L42.06 337.42ZM56.3602 339.2V341.56C56.1002 341.52 55.8402 341.5 55.6002 341.5C53.8002 341.5 52.9802 342.54 52.9802 344.36V349H50.6602V339.26H52.9202V340.82C53.3802 339.76 54.4602 339.14 55.7402 339.14C56.0202 339.14 56.2602 339.18 56.3602 339.2ZM63.9969 339.2V341.56C63.7369 341.52 63.4769 341.5 63.2369 341.5C61.4369 341.5 60.6169 342.54 60.6169 344.36V349H58.2969V339.26H60.5569V340.82C61.0169 339.76 62.0969 339.14 63.3769 339.14C63.6569 339.14 63.8969 339.18 63.9969 339.2ZM65.3531 346.36C65.3531 344.62 66.6331 343.66 68.2931 343.42L70.7931 343.04C71.3531 342.96 71.5131 342.68 71.5131 342.34C71.5131 341.52 70.9531 340.86 69.6731 340.86C68.4531 340.86 67.7731 341.64 67.6731 342.62L65.5531 342.14C65.7331 340.46 67.2531 338.96 69.6531 338.96C72.6531 338.96 73.7931 340.66 73.7931 342.6V347.44C73.7931 348.32 73.8931 348.9 73.9131 349H71.7531C71.7331 348.94 71.6531 348.54 71.6531 347.76C71.1931 348.5 70.2331 349.3 68.6531 349.3C66.6131 349.3 65.3531 347.9 65.3531 346.36ZM69.0931 347.48C70.3931 347.48 71.5131 346.86 71.5131 344.96V344.52L68.9731 344.9C68.2531 345.02 67.6731 345.42 67.6731 346.22C67.6731 346.88 68.1731 347.48 69.0931 347.48ZM78.9177 343.38V349H76.5977V339.26H78.8577V340.56C79.4977 339.44 80.6577 338.98 81.7377 338.98C84.1177 338.98 85.2577 340.7 85.2577 342.84V349H82.9377V343.24C82.9377 342.04 82.3977 341.08 80.9377 341.08C79.6177 341.08 78.9177 342.1 78.9177 343.38ZM87.382 349.54L89.522 348.98C89.682 350.18 90.622 351.08 91.962 351.08C93.802 351.08 94.722 350.14 94.722 348.16V347.14C94.302 347.9 93.322 348.56 91.902 348.56C89.302 348.56 87.402 346.56 87.402 343.82C87.402 341.22 89.222 339.08 91.902 339.08C93.422 339.08 94.362 339.7 94.782 340.5V339.26H97.022V348.08C97.022 350.68 95.682 353.1 92.022 353.1C89.442 353.1 87.642 351.5 87.382 349.54ZM92.282 346.58C93.762 346.58 94.782 345.5 94.782 343.82C94.782 342.16 93.722 341.08 92.282 341.08C90.802 341.08 89.742 342.16 89.742 343.82C89.742 345.52 90.762 346.58 92.282 346.58ZM101.479 343.06H106.259C106.219 341.92 105.459 340.9 103.859 340.9C102.399 340.9 101.559 342.02 101.479 343.06ZM106.519 345.6L108.479 346.22C107.959 347.92 106.419 349.3 104.079 349.3C101.439 349.3 99.0994 347.38 99.0994 344.08C99.0994 341 101.379 338.96 103.839 338.96C106.839 338.96 108.599 340.94 108.599 344.02C108.599 344.4 108.559 344.72 108.539 344.76H101.419C101.479 346.24 102.639 347.3 104.079 347.3C105.479 347.3 106.199 346.56 106.519 345.6ZM113.116 349H110.816V339.26H113.036V340.5C113.596 339.5 114.816 338.98 115.916 338.98C117.196 338.98 118.316 339.56 118.836 340.7C119.596 339.42 120.736 338.98 121.996 338.98C123.756 338.98 125.436 340.1 125.436 342.68V349H123.196V343.06C123.196 341.92 122.616 341.06 121.316 341.06C120.096 341.06 119.296 342.02 119.296 343.22V349H117.016V343.06C117.016 341.94 116.456 341.06 115.136 341.06C113.896 341.06 113.116 341.98 113.116 343.22V349ZM129.897 343.06H134.677C134.637 341.92 133.877 340.9 132.277 340.9C130.817 340.9 129.977 342.02 129.897 343.06ZM134.937 345.6L136.897 346.22C136.377 347.92 134.837 349.3 132.497 349.3C129.857 349.3 127.517 347.38 127.517 344.08C127.517 341 129.797 338.96 132.257 338.96C135.257 338.96 137.017 340.94 137.017 344.02C137.017 344.4 136.977 344.72 136.957 344.76H129.837C129.897 346.24 131.057 347.3 132.497 347.3C133.897 347.3 134.617 346.56 134.937 345.6ZM141.554 343.38V349H139.234V339.26H141.494V340.56C142.134 339.44 143.294 338.98 144.374 338.98C146.754 338.98 147.894 340.7 147.894 342.84V349H145.574V343.24C145.574 342.04 145.034 341.08 143.574 341.08C142.254 341.08 141.554 342.1 141.554 343.38ZM153.659 336.28V339.26H155.679V341.32H153.659V345.84C153.659 346.7 154.039 347.06 154.899 347.06C155.219 347.06 155.599 347 155.699 346.98V348.9C155.559 348.96 155.119 349.12 154.279 349.12C152.479 349.12 151.359 348.04 151.359 346.22V341.32H149.559V339.26H150.059C151.099 339.26 151.559 338.6 151.559 337.74V336.28H153.659ZM157.359 346.36L159.379 345.8C159.459 346.68 160.119 347.46 161.359 347.46C162.319 347.46 162.819 346.94 162.819 346.34C162.819 345.82 162.459 345.42 161.679 345.26L160.239 344.94C158.519 344.56 157.619 343.44 157.619 342.1C157.619 340.4 159.179 338.96 161.199 338.96C163.919 338.96 164.799 340.72 164.959 341.68L162.999 342.24C162.919 341.68 162.499 340.78 161.199 340.78C160.379 340.78 159.799 341.3 159.799 341.9C159.799 342.42 160.179 342.8 160.779 342.92L162.259 343.22C164.099 343.62 165.059 344.74 165.059 346.18C165.059 347.66 163.859 349.3 161.379 349.3C158.559 349.3 157.479 347.46 157.359 346.36ZM179.68 349L176.7 343.4H174.94V349H172.52V334.82H177.96C180.7 334.82 182.4 336.72 182.4 339.12C182.4 341.14 181.18 342.68 179.2 343.16L182.4 349H179.68ZM174.94 341.28H177.52C179 341.28 179.96 340.42 179.96 339.12C179.96 337.8 179 336.94 177.52 336.94H174.94V341.28ZM187.062 349H184.762V339.26H187.062V349ZM184.402 335.84C184.402 335 185.082 334.32 185.902 334.32C186.742 334.32 187.422 335 187.422 335.84C187.422 336.68 186.742 337.34 185.902 337.34C185.082 337.34 184.402 336.68 184.402 335.84ZM189.195 346.36L191.215 345.8C191.295 346.68 191.955 347.46 193.195 347.46C194.155 347.46 194.655 346.94 194.655 346.34C194.655 345.82 194.295 345.42 193.515 345.26L192.075 344.94C190.355 344.56 189.455 343.44 189.455 342.1C189.455 340.4 191.015 338.96 193.035 338.96C195.755 338.96 196.635 340.72 196.795 341.68L194.835 342.24C194.755 341.68 194.335 340.78 193.035 340.78C192.215 340.78 191.635 341.3 191.635 341.9C191.635 342.42 192.015 342.8 192.615 342.92L194.095 343.22C195.935 343.62 196.895 344.74 196.895 346.18C196.895 347.66 195.695 349.3 193.215 349.3C190.395 349.3 189.315 347.46 189.195 346.36ZM208.315 339.26L204.315 343.38L208.395 349H205.555L202.695 345.02L201.495 346.28V349H199.195V334.52H201.495V343.2L205.235 339.26H208.315ZM45.6 374H36.7V359.82H39.1V371.72H45.6V374ZM49.1747 368.06H53.9547C53.9147 366.92 53.1547 365.9 51.5547 365.9C50.0947 365.9 49.2547 367.02 49.1747 368.06ZM54.2147 370.6L56.1747 371.22C55.6547 372.92 54.1147 374.3 51.7747 374.3C49.1347 374.3 46.7947 372.38 46.7947 369.08C46.7947 366 49.0747 363.96 51.5347 363.96C54.5347 363.96 56.2947 365.94 56.2947 369.02C56.2947 369.4 56.2547 369.72 56.2347 369.76H49.1147C49.1747 371.24 50.3347 372.3 51.7747 372.3C53.1747 372.3 53.8947 371.56 54.2147 370.6ZM67.1164 364.26L63.2964 374H60.9764L57.0164 364.26H59.5764L62.1564 371.22L64.6764 364.26H67.1164ZM70.1513 368.06H74.9313C74.8913 366.92 74.1313 365.9 72.5313 365.9C71.0713 365.9 70.2313 367.02 70.1513 368.06ZM75.1913 370.6L77.1513 371.22C76.6313 372.92 75.0913 374.3 72.7513 374.3C70.1113 374.3 67.7713 372.38 67.7713 369.08C67.7713 366 70.0513 363.96 72.5113 363.96C75.5113 363.96 77.2713 365.94 77.2713 369.02C77.2713 369.4 77.2313 369.72 77.2113 369.76H70.0913C70.1513 371.24 71.3113 372.3 72.7513 372.3C74.1513 372.3 74.8713 371.56 75.1913 370.6ZM81.8083 374H79.4883V359.52H81.8083V374ZM99.2817 363.14L97.1217 363.82C96.9817 362.94 96.2417 361.64 94.3417 361.64C92.9017 361.64 91.9017 362.6 91.9017 363.68C91.9017 364.58 92.4617 365.26 93.5617 365.5L95.6017 365.92C98.1017 366.42 99.4417 368 99.4417 370C99.4417 372.2 97.6617 374.3 94.4217 374.3C90.8217 374.3 89.1617 371.98 88.9417 369.94L91.1817 369.3C91.3217 370.78 92.3817 372.14 94.4217 372.14C96.1217 372.14 97.0017 371.28 97.0017 370.18C97.0017 369.26 96.3217 368.52 95.1017 368.26L93.1017 367.84C90.9417 367.4 89.5017 365.98 89.5017 363.86C89.5017 361.48 91.6817 359.52 94.3217 359.52C97.6617 359.52 98.9617 361.56 99.2817 363.14ZM104.635 361.28V364.26H106.655V366.32H104.635V370.84C104.635 371.7 105.015 372.06 105.875 372.06C106.195 372.06 106.575 372 106.675 371.98V373.9C106.535 373.96 106.095 374.12 105.255 374.12C103.455 374.12 102.335 373.04 102.335 371.22V366.32H100.535V364.26H101.035C102.075 364.26 102.535 363.6 102.535 362.74V361.28H104.635ZM108.459 371.36C108.459 369.62 109.739 368.66 111.399 368.42L113.899 368.04C114.459 367.96 114.619 367.68 114.619 367.34C114.619 366.52 114.059 365.86 112.779 365.86C111.559 365.86 110.879 366.64 110.779 367.62L108.659 367.14C108.839 365.46 110.359 363.96 112.759 363.96C115.759 363.96 116.899 365.66 116.899 367.6V372.44C116.899 373.32 116.999 373.9 117.019 374H114.859C114.839 373.94 114.759 373.54 114.759 372.76C114.299 373.5 113.339 374.3 111.759 374.3C109.719 374.3 108.459 372.9 108.459 371.36ZM112.199 372.48C113.499 372.48 114.619 371.86 114.619 369.96V369.52L112.079 369.9C111.359 370.02 110.779 370.42 110.779 371.22C110.779 371.88 111.279 372.48 112.199 372.48ZM122.604 361.28V364.26H124.624V366.32H122.604V370.84C122.604 371.7 122.984 372.06 123.844 372.06C124.164 372.06 124.544 372 124.644 371.98V373.9C124.504 373.96 124.064 374.12 123.224 374.12C121.424 374.12 120.304 373.04 120.304 371.22V366.32H118.504V364.26H119.004C120.044 364.26 120.504 363.6 120.504 362.74V361.28H122.604ZM129.308 374H127.008V364.26H129.308V374ZM126.648 360.84C126.648 360 127.328 359.32 128.148 359.32C128.988 359.32 129.668 360 129.668 360.84C129.668 361.68 128.988 362.34 128.148 362.34C127.328 362.34 126.648 361.68 126.648 360.84ZM131.441 371.36L133.461 370.8C133.541 371.68 134.201 372.46 135.441 372.46C136.401 372.46 136.901 371.94 136.901 371.34C136.901 370.82 136.541 370.42 135.761 370.26L134.321 369.94C132.601 369.56 131.701 368.44 131.701 367.1C131.701 365.4 133.261 363.96 135.281 363.96C138.001 363.96 138.881 365.72 139.041 366.68L137.081 367.24C137.001 366.68 136.581 365.78 135.281 365.78C134.461 365.78 133.881 366.3 133.881 366.9C133.881 367.42 134.261 367.8 134.861 367.92L136.341 368.22C138.181 368.62 139.141 369.74 139.141 371.18C139.141 372.66 137.941 374.3 135.461 374.3C132.641 374.3 131.561 372.46 131.441 371.36ZM144.381 361.28V364.26H146.401V366.32H144.381V370.84C144.381 371.7 144.761 372.06 145.621 372.06C145.941 372.06 146.321 372 146.421 371.98V373.9C146.281 373.96 145.841 374.12 145.001 374.12C143.201 374.12 142.081 373.04 142.081 371.22V366.32H140.281V364.26H140.781C141.821 364.26 142.281 363.6 142.281 362.74V361.28H144.381ZM151.085 374H148.785V364.26H151.085V374ZM148.425 360.84C148.425 360 149.105 359.32 149.925 359.32C150.765 359.32 151.445 360 151.445 360.84C151.445 361.68 150.765 362.34 149.925 362.34C149.105 362.34 148.425 361.68 148.425 360.84ZM158.318 366.1C156.898 366.1 155.638 367.16 155.638 369.12C155.638 371.08 156.898 372.18 158.358 372.18C159.878 372.18 160.578 371.12 160.798 370.38L162.838 371.12C162.378 372.64 160.918 374.3 158.358 374.3C155.498 374.3 153.318 372.08 153.318 369.12C153.318 366.12 155.498 363.96 158.298 363.96C160.918 363.96 162.358 365.6 162.758 367.16L160.678 367.92C160.458 367.06 159.798 366.1 158.318 366.1ZM164.038 371.36L166.058 370.8C166.138 371.68 166.798 372.46 168.038 372.46C168.998 372.46 169.498 371.94 169.498 371.34C169.498 370.82 169.138 370.42 168.358 370.26L166.918 369.94C165.198 369.56 164.298 368.44 164.298 367.1C164.298 365.4 165.858 363.96 167.878 363.96C170.598 363.96 171.478 365.72 171.638 366.68L169.678 367.24C169.598 366.68 169.178 365.78 167.878 365.78C167.058 365.78 166.478 366.3 166.478 366.9C166.478 367.42 166.858 367.8 167.458 367.92L168.938 368.22C170.778 368.62 171.738 369.74 171.738 371.18C171.738 372.66 170.538 374.3 168.058 374.3C165.238 374.3 164.158 372.46 164.038 371.36Z" fill="#3D3D4F"/>
<path d="M472.751 97.4119V93.8501L483.243 77.2727H486.213V82.3438H484.402L477.339 93.5362V93.7294H491.984V97.4119H472.751ZM484.547 102V96.3253L484.595 94.7315V77.2727H488.821V102H484.547Z" fill="white"/>
<path d="M472.751 97.4119V93.8501L483.243 77.2727H486.213V82.3438H484.402L477.339 93.5362V93.7294H491.984V97.4119H472.751ZM484.547 102V96.3253L484.595 94.7315V77.2727H488.821V102H484.547Z" fill="#FFB854"/>
<path d="M472.119 111.818H473.983L477.224 119.733H477.344L480.585 111.818H482.45V122H480.988V114.632H480.893L477.891 121.985H476.678L473.675 114.627H473.58V122H472.119V111.818ZM484.564 122V114.364H486.05V122H484.564ZM485.314 113.185C485.056 113.185 484.834 113.099 484.648 112.927C484.466 112.751 484.375 112.542 484.375 112.3C484.375 112.055 484.466 111.846 484.648 111.674C484.834 111.498 485.056 111.411 485.314 111.411C485.573 111.411 485.793 111.498 485.976 111.674C486.161 111.846 486.254 112.055 486.254 112.3C486.254 112.542 486.161 112.751 485.976 112.927C485.793 113.099 485.573 113.185 485.314 113.185ZM490.909 122.149C490.292 122.149 489.742 121.992 489.258 121.677C488.778 121.359 488.4 120.906 488.125 120.32C487.853 119.73 487.717 119.022 487.717 118.197C487.717 117.371 487.855 116.665 488.13 116.079C488.408 115.492 488.789 115.043 489.273 114.732C489.757 114.42 490.306 114.264 490.919 114.264C491.393 114.264 491.774 114.344 492.062 114.503C492.354 114.659 492.579 114.841 492.738 115.05C492.901 115.259 493.027 115.442 493.116 115.602H493.206V111.818H494.692V122H493.24V120.812H493.116C493.027 120.974 492.897 121.16 492.728 121.369C492.563 121.577 492.334 121.76 492.042 121.915C491.751 122.071 491.373 122.149 490.909 122.149ZM491.237 120.881C491.664 120.881 492.026 120.769 492.321 120.543C492.619 120.315 492.844 119.998 492.997 119.594C493.153 119.189 493.23 118.719 493.23 118.182C493.23 117.652 493.154 117.187 493.002 116.79C492.849 116.392 492.626 116.082 492.331 115.86C492.036 115.638 491.671 115.527 491.237 115.527C490.789 115.527 490.417 115.643 490.118 115.875C489.82 116.107 489.595 116.424 489.442 116.825C489.293 117.226 489.218 117.678 489.218 118.182C489.218 118.692 489.295 119.151 489.447 119.559C489.6 119.967 489.825 120.29 490.123 120.528C490.425 120.764 490.796 120.881 491.237 120.881ZM500.519 122V114.364H501.956V115.577H502.035C502.174 115.166 502.42 114.843 502.771 114.607C503.126 114.369 503.527 114.249 503.974 114.249C504.067 114.249 504.176 114.253 504.302 114.259C504.431 114.266 504.533 114.274 504.605 114.284V115.706C504.546 115.689 504.44 115.671 504.287 115.651C504.135 115.628 503.982 115.616 503.83 115.616C503.479 115.616 503.165 115.691 502.89 115.84C502.618 115.986 502.403 116.19 502.244 116.452C502.085 116.71 502.005 117.005 502.005 117.337V122H500.519ZM505.892 122V114.364H507.378V122H505.892ZM506.643 113.185C506.384 113.185 506.162 113.099 505.976 112.927C505.794 112.751 505.703 112.542 505.703 112.3C505.703 112.055 505.794 111.846 505.976 111.674C506.162 111.498 506.384 111.411 506.643 111.411C506.901 111.411 507.122 111.498 507.304 111.674C507.489 111.846 507.582 112.055 507.582 112.3C507.582 112.542 507.489 112.751 507.304 112.927C507.122 113.099 506.901 113.185 506.643 113.185ZM515.1 116.228L513.753 116.467C513.697 116.294 513.607 116.13 513.485 115.974C513.365 115.819 513.203 115.691 512.998 115.592C512.792 115.492 512.535 115.442 512.227 115.442C511.806 115.442 511.455 115.537 511.173 115.726C510.891 115.911 510.75 116.152 510.75 116.447C510.75 116.702 510.845 116.907 511.034 117.063C511.223 117.219 511.528 117.347 511.949 117.446L513.162 117.724C513.864 117.887 514.388 118.137 514.733 118.475C515.077 118.813 515.25 119.252 515.25 119.793C515.25 120.25 515.117 120.658 514.852 121.016C514.59 121.37 514.224 121.649 513.753 121.851C513.286 122.053 512.744 122.154 512.127 122.154C511.272 122.154 510.575 121.972 510.034 121.607C509.494 121.239 509.163 120.717 509.04 120.041L510.477 119.822C510.566 120.197 510.75 120.48 511.029 120.673C511.307 120.862 511.67 120.956 512.118 120.956C512.605 120.956 512.994 120.855 513.286 120.653C513.578 120.447 513.723 120.197 513.723 119.902C513.723 119.663 513.634 119.463 513.455 119.3C513.279 119.138 513.009 119.015 512.645 118.933L511.352 118.649C510.639 118.487 510.112 118.228 509.771 117.874C509.433 117.519 509.264 117.07 509.264 116.526C509.264 116.076 509.39 115.681 509.642 115.343C509.894 115.005 510.242 114.741 510.686 114.553C511.13 114.36 511.639 114.264 512.212 114.264C513.037 114.264 513.687 114.443 514.161 114.801C514.635 115.156 514.948 115.631 515.1 116.228ZM518.251 119.41L518.241 117.595H518.5L521.542 114.364H523.322L519.852 118.043H519.618L518.251 119.41ZM516.884 122V111.818H518.371V122H516.884ZM521.706 122L518.972 118.371L519.996 117.332L523.531 122H521.706Z" fill="white"/>
<path d="M472.119 111.818H473.983L477.224 119.733H477.344L480.585 111.818H482.45V122H480.988V114.632H480.893L477.891 121.985H476.678L473.675 114.627H473.58V122H472.119V111.818ZM484.564 122V114.364H486.05V122H484.564ZM485.314 113.185C485.056 113.185 484.834 113.099 484.648 112.927C484.466 112.751 484.375 112.542 484.375 112.3C484.375 112.055 484.466 111.846 484.648 111.674C484.834 111.498 485.056 111.411 485.314 111.411C485.573 111.411 485.793 111.498 485.976 111.674C486.161 111.846 486.254 112.055 486.254 112.3C486.254 112.542 486.161 112.751 485.976 112.927C485.793 113.099 485.573 113.185 485.314 113.185ZM490.909 122.149C490.292 122.149 489.742 121.992 489.258 121.677C488.778 121.359 488.4 120.906 488.125 120.32C487.853 119.73 487.717 119.022 487.717 118.197C487.717 117.371 487.855 116.665 488.13 116.079C488.408 115.492 488.789 115.043 489.273 114.732C489.757 114.42 490.306 114.264 490.919 114.264C491.393 114.264 491.774 114.344 492.062 114.503C492.354 114.659 492.579 114.841 492.738 115.05C492.901 115.259 493.027 115.442 493.116 115.602H493.206V111.818H494.692V122H493.24V120.812H493.116C493.027 120.974 492.897 121.16 492.728 121.369C492.563 121.577 492.334 121.76 492.042 121.915C491.751 122.071 491.373 122.149 490.909 122.149ZM491.237 120.881C491.664 120.881 492.026 120.769 492.321 120.543C492.619 120.315 492.844 119.998 492.997 119.594C493.153 119.189 493.23 118.719 493.23 118.182C493.23 117.652 493.154 117.187 493.002 116.79C492.849 116.392 492.626 116.082 492.331 115.86C492.036 115.638 491.671 115.527 491.237 115.527C490.789 115.527 490.417 115.643 490.118 115.875C489.82 116.107 489.595 116.424 489.442 116.825C489.293 117.226 489.218 117.678 489.218 118.182C489.218 118.692 489.295 119.151 489.447 119.559C489.6 119.967 489.825 120.29 490.123 120.528C490.425 120.764 490.796 120.881 491.237 120.881ZM500.519 122V114.364H501.956V115.577H502.035C502.174 115.166 502.42 114.843 502.771 114.607C503.126 114.369 503.527 114.249 503.974 114.249C504.067 114.249 504.176 114.253 504.302 114.259C504.431 114.266 504.533 114.274 504.605 114.284V115.706C504.546 115.689 504.44 115.671 504.287 115.651C504.135 115.628 503.982 115.616 503.83 115.616C503.479 115.616 503.165 115.691 502.89 115.84C502.618 115.986 502.403 116.19 502.244 116.452C502.085 116.71 502.005 117.005 502.005 117.337V122H500.519ZM505.892 122V114.364H507.378V122H505.892ZM506.643 113.185C506.384 113.185 506.162 113.099 505.976 112.927C505.794 112.751 505.703 112.542 505.703 112.3C505.703 112.055 505.794 111.846 505.976 111.674C506.162 111.498 506.384 111.411 506.643 111.411C506.901 111.411 507.122 111.498 507.304 111.674C507.489 111.846 507.582 112.055 507.582 112.3C507.582 112.542 507.489 112.751 507.304 112.927C507.122 113.099 506.901 113.185 506.643 113.185ZM515.1 116.228L513.753 116.467C513.697 116.294 513.607 116.13 513.485 115.974C513.365 115.819 513.203 115.691 512.998 115.592C512.792 115.492 512.535 115.442 512.227 115.442C511.806 115.442 511.455 115.537 511.173 115.726C510.891 115.911 510.75 116.152 510.75 116.447C510.75 116.702 510.845 116.907 511.034 117.063C511.223 117.219 511.528 117.347 511.949 117.446L513.162 117.724C513.864 117.887 514.388 118.137 514.733 118.475C515.077 118.813 515.25 119.252 515.25 119.793C515.25 120.25 515.117 120.658 514.852 121.016C514.59 121.37 514.224 121.649 513.753 121.851C513.286 122.053 512.744 122.154 512.127 122.154C511.272 122.154 510.575 121.972 510.034 121.607C509.494 121.239 509.163 120.717 509.04 120.041L510.477 119.822C510.566 120.197 510.75 120.48 511.029 120.673C511.307 120.862 511.67 120.956 512.118 120.956C512.605 120.956 512.994 120.855 513.286 120.653C513.578 120.447 513.723 120.197 513.723 119.902C513.723 119.663 513.634 119.463 513.455 119.3C513.279 119.138 513.009 119.015 512.645 118.933L511.352 118.649C510.639 118.487 510.112 118.228 509.771 117.874C509.433 117.519 509.264 117.07 509.264 116.526C509.264 116.076 509.39 115.681 509.642 115.343C509.894 115.005 510.242 114.741 510.686 114.553C511.13 114.36 511.639 114.264 512.212 114.264C513.037 114.264 513.687 114.443 514.161 114.801C514.635 115.156 514.948 115.631 515.1 116.228ZM518.251 119.41L518.241 117.595H518.5L521.542 114.364H523.322L519.852 118.043H519.618L518.251 119.41ZM516.884 122V111.818H518.371V122H516.884ZM521.706 122L518.972 118.371L519.996 117.332L523.531 122H521.706Z" fill="#3D3D4F"/>
<path d="M473.253 312.338C472.07 312.33 470.915 312.125 469.788 311.722C468.661 311.312 467.647 310.648 466.745 309.73C465.844 308.804 465.127 307.577 464.596 306.048C464.065 304.51 463.803 302.607 463.811 300.337C463.811 298.22 464.036 296.332 464.487 294.674C464.938 293.016 465.586 291.615 466.431 290.472C467.276 289.321 468.295 288.444 469.486 287.84C470.685 287.237 472.025 286.935 473.506 286.935C475.06 286.935 476.436 287.241 477.636 287.852C478.843 288.464 479.817 289.301 480.558 290.364C481.298 291.418 481.757 292.609 481.934 293.938H477.527C477.302 292.988 476.839 292.231 476.138 291.668C475.446 291.096 474.569 290.81 473.506 290.81C471.792 290.81 470.472 291.555 469.546 293.044C468.629 294.533 468.166 296.578 468.158 299.178H468.327C468.721 298.469 469.232 297.862 469.86 297.354C470.488 296.847 471.196 296.457 471.985 296.183C472.782 295.902 473.623 295.761 474.509 295.761C475.957 295.761 477.257 296.107 478.408 296.799C479.567 297.491 480.485 298.445 481.161 299.661C481.837 300.868 482.171 302.252 482.163 303.814C482.171 305.44 481.801 306.901 481.053 308.197C480.304 309.485 479.262 310.499 477.925 311.239C476.589 311.98 475.032 312.346 473.253 312.338ZM473.229 308.716C474.106 308.716 474.891 308.503 475.583 308.076C476.275 307.649 476.823 307.074 477.225 306.349C477.628 305.625 477.825 304.812 477.817 303.911C477.825 303.025 477.632 302.224 477.237 301.508C476.851 300.791 476.316 300.224 475.631 299.805C474.947 299.387 474.166 299.178 473.289 299.178C472.637 299.178 472.029 299.302 471.466 299.552C470.902 299.801 470.411 300.147 469.993 300.59C469.574 301.025 469.244 301.532 469.003 302.112C468.769 302.683 468.649 303.295 468.641 303.947C468.649 304.808 468.85 305.601 469.244 306.325C469.639 307.05 470.182 307.629 470.874 308.064C471.567 308.499 472.351 308.716 473.229 308.716Z" fill="white"/>
<path d="M473.253 312.338C472.07 312.33 470.915 312.125 469.788 311.722C468.661 311.312 467.647 310.648 466.745 309.73C465.844 308.804 465.127 307.577 464.596 306.048C464.065 304.51 463.803 302.607 463.811 300.337C463.811 298.22 464.036 296.332 464.487 294.674C464.938 293.016 465.586 291.615 466.431 290.472C467.276 289.321 468.295 288.444 469.486 287.84C470.685 287.237 472.025 286.935 473.506 286.935C475.06 286.935 476.436 287.241 477.636 287.852C478.843 288.464 479.817 289.301 480.558 290.364C481.298 291.418 481.757 292.609 481.934 293.938H477.527C477.302 292.988 476.839 292.231 476.138 291.668C475.446 291.096 474.569 290.81 473.506 290.81C471.792 290.81 470.472 291.555 469.546 293.044C468.629 294.533 468.166 296.578 468.158 299.178H468.327C468.721 298.469 469.232 297.862 469.86 297.354C470.488 296.847 471.196 296.457 471.985 296.183C472.782 295.902 473.623 295.761 474.509 295.761C475.957 295.761 477.257 296.107 478.408 296.799C479.567 297.491 480.485 298.445 481.161 299.661C481.837 300.868 482.171 302.252 482.163 303.814C482.171 305.44 481.801 306.901 481.053 308.197C480.304 309.485 479.262 310.499 477.925 311.239C476.589 311.98 475.032 312.346 473.253 312.338ZM473.229 308.716C474.106 308.716 474.891 308.503 475.583 308.076C476.275 307.649 476.823 307.074 477.225 306.349C477.628 305.625 477.825 304.812 477.817 303.911C477.825 303.025 477.632 302.224 477.237 301.508C476.851 300.791 476.316 300.224 475.631 299.805C474.947 299.387 474.166 299.178 473.289 299.178C472.637 299.178 472.029 299.302 471.466 299.552C470.902 299.801 470.411 300.147 469.993 300.59C469.574 301.025 469.244 301.532 469.003 302.112C468.769 302.683 468.649 303.295 468.641 303.947C468.649 304.808 468.85 305.601 469.244 306.325C469.639 307.05 470.182 307.629 470.874 308.064C471.567 308.499 472.351 308.716 473.229 308.716Z" fill="#22D099"/>
<path d="M463.119 332V321.818H464.655V330.678H469.268V332H463.119ZM474.118 332.154C473.402 332.154 472.778 331.99 472.244 331.662C471.71 331.334 471.296 330.875 471.001 330.285C470.706 329.695 470.559 329.005 470.559 328.217C470.559 327.424 470.706 326.732 471.001 326.138C471.296 325.545 471.71 325.085 472.244 324.756C472.778 324.428 473.402 324.264 474.118 324.264C474.834 324.264 475.459 324.428 475.993 324.756C476.526 325.085 476.94 325.545 477.235 326.138C477.53 326.732 477.678 327.424 477.678 328.217C477.678 329.005 477.53 329.695 477.235 330.285C476.94 330.875 476.526 331.334 475.993 331.662C475.459 331.99 474.834 332.154 474.118 332.154ZM474.123 330.906C474.587 330.906 474.972 330.784 475.277 330.538C475.582 330.293 475.807 329.967 475.953 329.559C476.102 329.151 476.176 328.702 476.176 328.212C476.176 327.724 476.102 327.277 475.953 326.869C475.807 326.458 475.582 326.129 475.277 325.88C474.972 325.631 474.587 325.507 474.123 325.507C473.656 325.507 473.268 325.631 472.96 325.88C472.655 326.129 472.428 326.458 472.279 326.869C472.133 327.277 472.06 327.724 472.06 328.212C472.06 328.702 472.133 329.151 472.279 329.559C472.428 329.967 472.655 330.293 472.96 330.538C473.268 330.784 473.656 330.906 474.123 330.906ZM480.76 332L478.513 324.364H480.049L481.546 329.972H481.62L483.122 324.364H484.658L486.15 329.947H486.224L487.711 324.364H489.247L487.005 332H485.488L483.937 326.487H483.823L482.272 332H480.76ZM494.363 332V324.364H495.799V325.577H495.879C496.018 325.166 496.263 324.843 496.615 324.607C496.969 324.369 497.37 324.249 497.818 324.249C497.911 324.249 498.02 324.253 498.146 324.259C498.275 324.266 498.376 324.274 498.449 324.284V325.706C498.39 325.689 498.283 325.671 498.131 325.651C497.979 325.628 497.826 325.616 497.674 325.616C497.322 325.616 497.009 325.691 496.734 325.84C496.462 325.986 496.247 326.19 496.088 326.452C495.929 326.71 495.849 327.005 495.849 327.337V332H494.363ZM499.736 332V324.364H501.222V332H499.736ZM500.486 323.185C500.228 323.185 500.006 323.099 499.82 322.927C499.638 322.751 499.547 322.542 499.547 322.3C499.547 322.055 499.638 321.846 499.82 321.674C500.006 321.498 500.228 321.411 500.486 321.411C500.745 321.411 500.965 321.498 501.148 321.674C501.333 321.846 501.426 322.055 501.426 322.3C501.426 322.542 501.333 322.751 501.148 322.927C500.965 323.099 500.745 323.185 500.486 323.185ZM508.944 326.228L507.597 326.467C507.541 326.294 507.451 326.13 507.328 325.974C507.209 325.819 507.047 325.691 506.841 325.592C506.636 325.492 506.379 325.442 506.071 325.442C505.65 325.442 505.298 325.537 505.017 325.726C504.735 325.911 504.594 326.152 504.594 326.447C504.594 326.702 504.689 326.907 504.877 327.063C505.066 327.219 505.371 327.347 505.792 327.446L507.005 327.724C507.708 327.887 508.232 328.137 508.576 328.475C508.921 328.813 509.093 329.252 509.093 329.793C509.093 330.25 508.961 330.658 508.696 331.016C508.434 331.37 508.068 331.649 507.597 331.851C507.13 332.053 506.588 332.154 505.971 332.154C505.116 332.154 504.418 331.972 503.878 331.607C503.338 331.239 503.007 330.717 502.884 330.041L504.321 329.822C504.41 330.197 504.594 330.48 504.873 330.673C505.151 330.862 505.514 330.956 505.961 330.956C506.449 330.956 506.838 330.855 507.13 330.653C507.421 330.447 507.567 330.197 507.567 329.902C507.567 329.663 507.478 329.463 507.299 329.3C507.123 329.138 506.853 329.015 506.488 328.933L505.196 328.649C504.483 328.487 503.956 328.228 503.615 327.874C503.277 327.519 503.108 327.07 503.108 326.526C503.108 326.076 503.234 325.681 503.485 325.343C503.737 325.005 504.085 324.741 504.529 324.553C504.974 324.36 505.482 324.264 506.056 324.264C506.881 324.264 507.531 324.443 508.005 324.801C508.479 325.156 508.792 325.631 508.944 326.228ZM512.095 329.41L512.085 327.595H512.344L515.386 324.364H517.166L513.696 328.043H513.462L512.095 329.41ZM510.728 332V321.818H512.214V332H510.728ZM515.55 332L512.816 328.371L513.84 327.332L517.375 332H515.55Z" fill="white"/>
<path d="M463.119 332V321.818H464.655V330.678H469.268V332H463.119ZM474.118 332.154C473.402 332.154 472.778 331.99 472.244 331.662C471.71 331.334 471.296 330.875 471.001 330.285C470.706 329.695 470.559 329.005 470.559 328.217C470.559 327.424 470.706 326.732 471.001 326.138C471.296 325.545 471.71 325.085 472.244 324.756C472.778 324.428 473.402 324.264 474.118 324.264C474.834 324.264 475.459 324.428 475.993 324.756C476.526 325.085 476.94 325.545 477.235 326.138C477.53 326.732 477.678 327.424 477.678 328.217C477.678 329.005 477.53 329.695 477.235 330.285C476.94 330.875 476.526 331.334 475.993 331.662C475.459 331.99 474.834 332.154 474.118 332.154ZM474.123 330.906C474.587 330.906 474.972 330.784 475.277 330.538C475.582 330.293 475.807 329.967 475.953 329.559C476.102 329.151 476.176 328.702 476.176 328.212C476.176 327.724 476.102 327.277 475.953 326.869C475.807 326.458 475.582 326.129 475.277 325.88C474.972 325.631 474.587 325.507 474.123 325.507C473.656 325.507 473.268 325.631 472.96 325.88C472.655 326.129 472.428 326.458 472.279 326.869C472.133 327.277 472.06 327.724 472.06 328.212C472.06 328.702 472.133 329.151 472.279 329.559C472.428 329.967 472.655 330.293 472.96 330.538C473.268 330.784 473.656 330.906 474.123 330.906ZM480.76 332L478.513 324.364H480.049L481.546 329.972H481.62L483.122 324.364H484.658L486.15 329.947H486.224L487.711 324.364H489.247L487.005 332H485.488L483.937 326.487H483.823L482.272 332H480.76ZM494.363 332V324.364H495.799V325.577H495.879C496.018 325.166 496.263 324.843 496.615 324.607C496.969 324.369 497.37 324.249 497.818 324.249C497.911 324.249 498.02 324.253 498.146 324.259C498.275 324.266 498.376 324.274 498.449 324.284V325.706C498.39 325.689 498.283 325.671 498.131 325.651C497.979 325.628 497.826 325.616 497.674 325.616C497.322 325.616 497.009 325.691 496.734 325.84C496.462 325.986 496.247 326.19 496.088 326.452C495.929 326.71 495.849 327.005 495.849 327.337V332H494.363ZM499.736 332V324.364H501.222V332H499.736ZM500.486 323.185C500.228 323.185 500.006 323.099 499.82 322.927C499.638 322.751 499.547 322.542 499.547 322.3C499.547 322.055 499.638 321.846 499.82 321.674C500.006 321.498 500.228 321.411 500.486 321.411C500.745 321.411 500.965 321.498 501.148 321.674C501.333 321.846 501.426 322.055 501.426 322.3C501.426 322.542 501.333 322.751 501.148 322.927C500.965 323.099 500.745 323.185 500.486 323.185ZM508.944 326.228L507.597 326.467C507.541 326.294 507.451 326.13 507.328 325.974C507.209 325.819 507.047 325.691 506.841 325.592C506.636 325.492 506.379 325.442 506.071 325.442C505.65 325.442 505.298 325.537 505.017 325.726C504.735 325.911 504.594 326.152 504.594 326.447C504.594 326.702 504.689 326.907 504.877 327.063C505.066 327.219 505.371 327.347 505.792 327.446L507.005 327.724C507.708 327.887 508.232 328.137 508.576 328.475C508.921 328.813 509.093 329.252 509.093 329.793C509.093 330.25 508.961 330.658 508.696 331.016C508.434 331.37 508.068 331.649 507.597 331.851C507.13 332.053 506.588 332.154 505.971 332.154C505.116 332.154 504.418 331.972 503.878 331.607C503.338 331.239 503.007 330.717 502.884 330.041L504.321 329.822C504.41 330.197 504.594 330.48 504.873 330.673C505.151 330.862 505.514 330.956 505.961 330.956C506.449 330.956 506.838 330.855 507.13 330.653C507.421 330.447 507.567 330.197 507.567 329.902C507.567 329.663 507.478 329.463 507.299 329.3C507.123 329.138 506.853 329.015 506.488 328.933L505.196 328.649C504.483 328.487 503.956 328.228 503.615 327.874C503.277 327.519 503.108 327.07 503.108 326.526C503.108 326.076 503.234 325.681 503.485 325.343C503.737 325.005 504.085 324.741 504.529 324.553C504.974 324.36 505.482 324.264 506.056 324.264C506.881 324.264 507.531 324.443 508.005 324.801C508.479 325.156 508.792 325.631 508.944 326.228ZM512.095 329.41L512.085 327.595H512.344L515.386 324.364H517.166L513.696 328.043H513.462L512.095 329.41ZM510.728 332V321.818H512.214V332H510.728ZM515.55 332L512.816 328.371L513.84 327.332L517.375 332H515.55Z" fill="#3D3D4F"/>
<path d="M63.1974 85V81.7642L71.782 73.3487C72.603 72.5196 73.2872 71.7831 73.8345 71.1392C74.3819 70.4953 74.7924 69.8714 75.0661 69.2678C75.3397 68.6641 75.4766 68.0201 75.4766 67.3359C75.4766 66.5552 75.2995 65.8871 74.9453 65.3317C74.5911 64.7682 74.1042 64.3336 73.4844 64.0277C72.8646 63.7218 72.1603 63.5689 71.3714 63.5689C70.5585 63.5689 69.8461 63.7379 69.2344 64.076C68.6226 64.406 68.1477 64.8769 67.8097 65.4886C67.4796 66.1004 67.3146 66.8288 67.3146 67.674H63.0526C63.0526 66.1044 63.4107 64.7401 64.1271 63.581C64.8435 62.4219 65.8295 61.5244 67.0852 60.8885C68.349 60.2526 69.7978 59.9347 71.4318 59.9347C73.09 59.9347 74.5469 60.2446 75.8026 60.8643C77.0582 61.4841 78.0322 62.3333 78.7244 63.4119C79.4247 64.4905 79.7749 65.7221 79.7749 67.1065C79.7749 68.0322 79.5978 68.9418 79.2436 69.8352C78.8894 70.7287 78.2656 71.7187 77.3722 72.8054C76.4867 73.892 75.2431 75.2081 73.6413 76.7536L69.3793 81.0881V81.2571H80.1491V85H63.1974Z" fill="white"/>
<path d="M63.1974 85V81.7642L71.782 73.3487C72.603 72.5196 73.2872 71.7831 73.8345 71.1392C74.3819 70.4953 74.7924 69.8714 75.0661 69.2678C75.3397 68.6641 75.4766 68.0201 75.4766 67.3359C75.4766 66.5552 75.2995 65.8871 74.9453 65.3317C74.5911 64.7682 74.1042 64.3336 73.4844 64.0277C72.8646 63.7218 72.1603 63.5689 71.3714 63.5689C70.5585 63.5689 69.8461 63.7379 69.2344 64.076C68.6226 64.406 68.1477 64.8769 67.8097 65.4886C67.4796 66.1004 67.3146 66.8288 67.3146 67.674H63.0526C63.0526 66.1044 63.4107 64.7401 64.1271 63.581C64.8435 62.4219 65.8295 61.5244 67.0852 60.8885C68.349 60.2526 69.7978 59.9347 71.4318 59.9347C73.09 59.9347 74.5469 60.2446 75.8026 60.8643C77.0582 61.4841 78.0322 62.3333 78.7244 63.4119C79.4247 64.4905 79.7749 65.7221 79.7749 67.1065C79.7749 68.0322 79.5978 68.9418 79.2436 69.8352C78.8894 70.7287 78.2656 71.7187 77.3722 72.8054C76.4867 73.892 75.2431 75.2081 73.6413 76.7536L69.3793 81.0881V81.2571H80.1491V85H63.1974Z" fill="#FF6E54"/>
<path d="M62.1186 105V94.8182H63.6548V99.2429H68.7308V94.8182H70.272V105H68.7308V100.56H63.6548V105H62.1186ZM72.3899 105V97.3636H73.8764V105H72.3899ZM73.1406 96.1854C72.8821 96.1854 72.66 96.0992 72.4744 95.9268C72.2921 95.7512 72.201 95.5424 72.201 95.3004C72.201 95.0552 72.2921 94.8464 72.4744 94.674C72.66 94.4983 72.8821 94.4105 73.1406 94.4105C73.3991 94.4105 73.6196 94.4983 73.8018 94.674C73.9875 94.8464 74.0803 95.0552 74.0803 95.3004C74.0803 95.5424 73.9875 95.7512 73.8018 95.9268C73.6196 96.0992 73.3991 96.1854 73.1406 96.1854ZM79.0779 108.023C78.4714 108.023 77.9494 107.943 77.5119 107.784C77.0777 107.625 76.7231 107.415 76.448 107.153C76.1729 106.891 75.9674 106.604 75.8315 106.293L77.1092 105.766C77.1987 105.911 77.318 106.066 77.4672 106.228C77.6196 106.394 77.8251 106.535 78.0836 106.651C78.3455 106.767 78.6819 106.825 79.0929 106.825C79.6563 106.825 80.122 106.687 80.4899 106.412C80.8578 106.14 81.0417 105.706 81.0417 105.109V103.608H80.9473C80.8578 103.77 80.7285 103.951 80.5595 104.15C80.3938 104.349 80.1651 104.521 79.8734 104.667C79.5817 104.813 79.2022 104.886 78.7349 104.886C78.1317 104.886 77.5881 104.745 77.1042 104.463C76.6236 104.178 76.2425 103.759 75.9608 103.205C75.6824 102.648 75.5431 101.964 75.5431 101.152C75.5431 100.34 75.6807 99.6439 75.9558 99.0639C76.2342 98.4839 76.6154 98.0398 77.0993 97.7315C77.5832 97.42 78.1317 97.2642 78.7449 97.2642C79.2188 97.2642 79.6016 97.3438 79.8933 97.5028C80.185 97.6586 80.412 97.8409 80.5744 98.0497C80.7401 98.2585 80.8677 98.4425 80.9572 98.6016H81.0666V97.3636H82.5233V105.169C82.5233 105.825 82.3708 106.364 82.0659 106.785C81.7609 107.206 81.3483 107.517 80.8279 107.719C80.3109 107.922 79.7276 108.023 79.0779 108.023ZM79.063 103.653C79.4906 103.653 79.8519 103.553 80.1468 103.354C80.4451 103.152 80.6705 102.864 80.823 102.489C80.9788 102.112 81.0566 101.659 81.0566 101.132C81.0566 100.618 80.9804 100.166 80.8279 99.7749C80.6755 99.3838 80.4518 99.0788 80.1568 98.8601C79.8618 98.638 79.4972 98.527 79.063 98.527C78.6156 98.527 78.2427 98.643 77.9444 98.875C77.6461 99.1037 77.4208 99.4152 77.2683 99.8097C77.1191 100.204 77.0446 100.645 77.0446 101.132C77.0446 101.633 77.1208 102.072 77.2733 102.45C77.4257 102.827 77.6511 103.122 77.9494 103.335C78.251 103.547 78.6222 103.653 79.063 103.653ZM86.0034 100.466V105H84.5169V94.8182H85.9835V98.6065H86.0779C86.2569 98.1955 86.5304 97.8691 86.8983 97.6271C87.2662 97.3852 87.7467 97.2642 88.34 97.2642C88.8637 97.2642 89.3211 97.3719 89.7122 97.5874C90.1066 97.8028 90.4115 98.1243 90.627 98.5518C90.8457 98.9761 90.9551 99.5064 90.9551 100.143V105H89.4686V100.322C89.4686 99.7616 89.3244 99.3274 89.036 99.0192C88.7477 98.7076 88.3467 98.5518 87.8329 98.5518C87.4816 98.5518 87.1667 98.6264 86.8883 98.7756C86.6132 98.9247 86.3961 99.1435 86.237 99.4318C86.0813 99.7169 86.0034 100.062 86.0034 100.466ZM96.6438 105V97.3636H98.0806V98.5767H98.1602C98.2994 98.1657 98.5446 97.8426 98.896 97.6072C99.2506 97.3686 99.6516 97.2493 100.099 97.2493C100.192 97.2493 100.301 97.2526 100.427 97.2592C100.556 97.2659 100.658 97.2741 100.73 97.2841V98.706C100.671 98.6894 100.565 98.6712 100.412 98.6513C100.26 98.6281 100.107 98.6165 99.9549 98.6165C99.6036 98.6165 99.2904 98.6911 99.0153 98.8402C98.7435 98.986 98.5281 99.1899 98.369 99.4517C98.2099 99.7102 98.1303 100.005 98.1303 100.337V105H96.6438ZM102.017 105V97.3636H103.503V105H102.017ZM102.768 96.1854C102.509 96.1854 102.287 96.0992 102.101 95.9268C101.919 95.7512 101.828 95.5424 101.828 95.3004C101.828 95.0552 101.919 94.8464 102.101 94.674C102.287 94.4983 102.509 94.4105 102.768 94.4105C103.026 94.4105 103.247 94.4983 103.429 94.674C103.614 94.8464 103.707 95.0552 103.707 95.3004C103.707 95.5424 103.614 95.7512 103.429 95.9268C103.247 96.0992 103.026 96.1854 102.768 96.1854ZM111.225 99.228L109.878 99.4666C109.822 99.2943 109.732 99.1302 109.61 98.9744C109.49 98.8187 109.328 98.6911 109.123 98.5916C108.917 98.4922 108.66 98.4425 108.352 98.4425C107.931 98.4425 107.58 98.5369 107.298 98.7259C107.016 98.9115 106.875 99.1518 106.875 99.4467C106.875 99.7019 106.97 99.9074 107.159 100.063C107.348 100.219 107.653 100.347 108.074 100.446L109.287 100.724C109.989 100.887 110.513 101.137 110.858 101.475C111.202 101.813 111.375 102.252 111.375 102.793C111.375 103.25 111.242 103.658 110.977 104.016C110.715 104.37 110.349 104.649 109.878 104.851C109.411 105.053 108.869 105.154 108.252 105.154C107.397 105.154 106.7 104.972 106.159 104.607C105.619 104.239 105.288 103.717 105.165 103.041L106.602 102.822C106.691 103.197 106.875 103.48 107.154 103.673C107.432 103.862 107.795 103.956 108.243 103.956C108.73 103.956 109.119 103.855 109.411 103.653C109.703 103.447 109.848 103.197 109.848 102.902C109.848 102.663 109.759 102.463 109.58 102.3C109.404 102.138 109.134 102.015 108.77 101.933L107.477 101.649C106.764 101.487 106.237 101.228 105.896 100.874C105.558 100.519 105.389 100.07 105.389 99.5263C105.389 99.0755 105.515 98.6811 105.767 98.343C106.019 98.005 106.367 97.7415 106.811 97.5526C107.255 97.3603 107.764 97.2642 108.337 97.2642C109.162 97.2642 109.812 97.4432 110.286 97.8011C110.76 98.1558 111.073 98.6314 111.225 99.228ZM114.376 102.41L114.366 100.595H114.625L117.667 97.3636H119.447L115.977 101.043H115.743L114.376 102.41ZM113.009 105V94.8182H114.496V105H113.009ZM117.831 105L115.097 101.371L116.121 100.332L119.656 105H117.831Z" fill="white"/>
<path d="M62.1186 105V94.8182H63.6548V99.2429H68.7308V94.8182H70.272V105H68.7308V100.56H63.6548V105H62.1186ZM72.3899 105V97.3636H73.8764V105H72.3899ZM73.1406 96.1854C72.8821 96.1854 72.66 96.0992 72.4744 95.9268C72.2921 95.7512 72.201 95.5424 72.201 95.3004C72.201 95.0552 72.2921 94.8464 72.4744 94.674C72.66 94.4983 72.8821 94.4105 73.1406 94.4105C73.3991 94.4105 73.6196 94.4983 73.8018 94.674C73.9875 94.8464 74.0803 95.0552 74.0803 95.3004C74.0803 95.5424 73.9875 95.7512 73.8018 95.9268C73.6196 96.0992 73.3991 96.1854 73.1406 96.1854ZM79.0779 108.023C78.4714 108.023 77.9494 107.943 77.5119 107.784C77.0777 107.625 76.7231 107.415 76.448 107.153C76.1729 106.891 75.9674 106.604 75.8315 106.293L77.1092 105.766C77.1987 105.911 77.318 106.066 77.4672 106.228C77.6196 106.394 77.8251 106.535 78.0836 106.651C78.3455 106.767 78.6819 106.825 79.0929 106.825C79.6563 106.825 80.122 106.687 80.4899 106.412C80.8578 106.14 81.0417 105.706 81.0417 105.109V103.608H80.9473C80.8578 103.77 80.7285 103.951 80.5595 104.15C80.3938 104.349 80.1651 104.521 79.8734 104.667C79.5817 104.813 79.2022 104.886 78.7349 104.886C78.1317 104.886 77.5881 104.745 77.1042 104.463C76.6236 104.178 76.2425 103.759 75.9608 103.205C75.6824 102.648 75.5431 101.964 75.5431 101.152C75.5431 100.34 75.6807 99.6439 75.9558 99.0639C76.2342 98.4839 76.6154 98.0398 77.0993 97.7315C77.5832 97.42 78.1317 97.2642 78.7449 97.2642C79.2188 97.2642 79.6016 97.3438 79.8933 97.5028C80.185 97.6586 80.412 97.8409 80.5744 98.0497C80.7401 98.2585 80.8677 98.4425 80.9572 98.6016H81.0666V97.3636H82.5233V105.169C82.5233 105.825 82.3708 106.364 82.0659 106.785C81.7609 107.206 81.3483 107.517 80.8279 107.719C80.3109 107.922 79.7276 108.023 79.0779 108.023ZM79.063 103.653C79.4906 103.653 79.8519 103.553 80.1468 103.354C80.4451 103.152 80.6705 102.864 80.823 102.489C80.9788 102.112 81.0566 101.659 81.0566 101.132C81.0566 100.618 80.9804 100.166 80.8279 99.7749C80.6755 99.3838 80.4518 99.0788 80.1568 98.8601C79.8618 98.638 79.4972 98.527 79.063 98.527C78.6156 98.527 78.2427 98.643 77.9444 98.875C77.6461 99.1037 77.4208 99.4152 77.2683 99.8097C77.1191 100.204 77.0446 100.645 77.0446 101.132C77.0446 101.633 77.1208 102.072 77.2733 102.45C77.4257 102.827 77.6511 103.122 77.9494 103.335C78.251 103.547 78.6222 103.653 79.063 103.653ZM86.0034 100.466V105H84.5169V94.8182H85.9835V98.6065H86.0779C86.2569 98.1955 86.5304 97.8691 86.8983 97.6271C87.2662 97.3852 87.7467 97.2642 88.34 97.2642C88.8637 97.2642 89.3211 97.3719 89.7122 97.5874C90.1066 97.8028 90.4115 98.1243 90.627 98.5518C90.8457 98.9761 90.9551 99.5064 90.9551 100.143V105H89.4686V100.322C89.4686 99.7616 89.3244 99.3274 89.036 99.0192C88.7477 98.7076 88.3467 98.5518 87.8329 98.5518C87.4816 98.5518 87.1667 98.6264 86.8883 98.7756C86.6132 98.9247 86.3961 99.1435 86.237 99.4318C86.0813 99.7169 86.0034 100.062 86.0034 100.466ZM96.6438 105V97.3636H98.0806V98.5767H98.1602C98.2994 98.1657 98.5446 97.8426 98.896 97.6072C99.2506 97.3686 99.6516 97.2493 100.099 97.2493C100.192 97.2493 100.301 97.2526 100.427 97.2592C100.556 97.2659 100.658 97.2741 100.73 97.2841V98.706C100.671 98.6894 100.565 98.6712 100.412 98.6513C100.26 98.6281 100.107 98.6165 99.9549 98.6165C99.6036 98.6165 99.2904 98.6911 99.0153 98.8402C98.7435 98.986 98.5281 99.1899 98.369 99.4517C98.2099 99.7102 98.1303 100.005 98.1303 100.337V105H96.6438ZM102.017 105V97.3636H103.503V105H102.017ZM102.768 96.1854C102.509 96.1854 102.287 96.0992 102.101 95.9268C101.919 95.7512 101.828 95.5424 101.828 95.3004C101.828 95.0552 101.919 94.8464 102.101 94.674C102.287 94.4983 102.509 94.4105 102.768 94.4105C103.026 94.4105 103.247 94.4983 103.429 94.674C103.614 94.8464 103.707 95.0552 103.707 95.3004C103.707 95.5424 103.614 95.7512 103.429 95.9268C103.247 96.0992 103.026 96.1854 102.768 96.1854ZM111.225 99.228L109.878 99.4666C109.822 99.2943 109.732 99.1302 109.61 98.9744C109.49 98.8187 109.328 98.6911 109.123 98.5916C108.917 98.4922 108.66 98.4425 108.352 98.4425C107.931 98.4425 107.58 98.5369 107.298 98.7259C107.016 98.9115 106.875 99.1518 106.875 99.4467C106.875 99.7019 106.97 99.9074 107.159 100.063C107.348 100.219 107.653 100.347 108.074 100.446L109.287 100.724C109.989 100.887 110.513 101.137 110.858 101.475C111.202 101.813 111.375 102.252 111.375 102.793C111.375 103.25 111.242 103.658 110.977 104.016C110.715 104.37 110.349 104.649 109.878 104.851C109.411 105.053 108.869 105.154 108.252 105.154C107.397 105.154 106.7 104.972 106.159 104.607C105.619 104.239 105.288 103.717 105.165 103.041L106.602 102.822C106.691 103.197 106.875 103.48 107.154 103.673C107.432 103.862 107.795 103.956 108.243 103.956C108.73 103.956 109.119 103.855 109.411 103.653C109.703 103.447 109.848 103.197 109.848 102.902C109.848 102.663 109.759 102.463 109.58 102.3C109.404 102.138 109.134 102.015 108.77 101.933L107.477 101.649C106.764 101.487 106.237 101.228 105.896 100.874C105.558 100.519 105.389 100.07 105.389 99.5263C105.389 99.0755 105.515 98.6811 105.767 98.343C106.019 98.005 106.367 97.7415 106.811 97.5526C107.255 97.3603 107.764 97.2642 108.337 97.2642C109.162 97.2642 109.812 97.4432 110.286 97.8011C110.76 98.1558 111.073 98.6314 111.225 99.228ZM114.376 102.41L114.366 100.595H114.625L117.667 97.3636H119.447L115.977 101.043H115.743L114.376 102.41ZM113.009 105V94.8182H114.496V105H113.009ZM117.831 105L115.097 101.371L116.121 100.332L119.656 105H117.831Z" fill="#3D3D4F"/>
<defs>
<linearGradient id="paint0_linear_1700_6352" x1="429.131" y1="53" x2="129.503" y2="121.62" gradientUnits="userSpaceOnUse">
<stop stop-color="#23D192"/>
<stop offset="1" stop-color="#18C5C8"/>
</linearGradient>
<linearGradient id="paint1_linear_1700_6352" x1="118.269" y1="9.34598" x2="197.432" y2="240.235" gradientUnits="userSpaceOnUse">
<stop stop-color="#FF7733"/>
<stop offset="1" stop-color="#FFDD66"/>
</linearGradient>
<linearGradient id="paint2_linear_1700_6352" x1="446.9" y1="178.798" x2="157.616" y2="178.798" gradientUnits="userSpaceOnUse">
<stop stop-color="#FF5A5A"/>
<stop offset="1" stop-color="#FF7752"/>
</linearGradient>
</defs>
</svg>
