<svg width="251" height="87" viewBox="0 0 251 87" fill="none" xmlns="http://www.w3.org/2000/svg">
<rect x="0.186523" y="0.611328" width="250" height="86" rx="16" fill="white"/>
<path d="M17.2206 31.6113V30.0886L21.2604 26.1284C21.6468 25.7382 21.9687 25.3916 22.2263 25.0886C22.4839 24.7856 22.6771 24.492 22.8058 24.2079C22.9346 23.9238 22.999 23.6208 22.999 23.2988C22.999 22.9314 22.9157 22.617 22.749 22.3556C22.5824 22.0905 22.3532 21.8859 22.0615 21.742C21.7699 21.5981 21.4384 21.5261 21.0672 21.5261C20.6846 21.5261 20.3494 21.6056 20.0615 21.7647C19.7736 21.92 19.5502 22.1416 19.3911 22.4295C19.2358 22.7174 19.1581 23.0602 19.1581 23.4579H17.1524C17.1524 22.7193 17.321 22.0772 17.6581 21.5318C17.9952 20.9863 18.4593 20.564 19.0502 20.2647C19.6449 19.9655 20.3267 19.8159 21.0956 19.8159C21.8759 19.8159 22.5615 19.9617 23.1524 20.2534C23.7433 20.545 24.2017 20.9447 24.5274 21.4522C24.857 21.9598 25.0218 22.5394 25.0218 23.1909C25.0218 23.6265 24.9384 24.0545 24.7718 24.475C24.6051 24.8954 24.3115 25.3613 23.8911 25.8727C23.4744 26.3841 22.8892 27.0034 22.1354 27.7306L20.1297 29.7704V29.85H25.1979V31.6113H17.2206ZM31.9308 19.4295L28.1808 33.3613H26.3797L30.1297 19.4295H31.9308ZM37.2661 31.7704C36.5085 31.7704 35.8305 31.6284 35.232 31.3443C34.6335 31.0564 34.1581 30.6625 33.8058 30.1625C33.4574 29.6625 33.2718 29.0905 33.249 28.4466H35.2945C35.3324 28.9238 35.5388 29.314 35.9138 29.617C36.2888 29.9163 36.7396 30.0659 37.2661 30.0659C37.6789 30.0659 38.0464 29.9712 38.3683 29.7818C38.6903 29.5924 38.9441 29.3291 39.1297 28.992C39.3153 28.6549 39.4062 28.2704 39.4024 27.8386C39.4062 27.3992 39.3134 27.0091 39.124 26.6681C38.9346 26.3272 38.6752 26.0602 38.3456 25.867C38.0161 25.67 37.6373 25.5716 37.2093 25.5716C36.8608 25.5678 36.518 25.6322 36.1808 25.7647C35.8437 25.8973 35.5767 26.0716 35.3797 26.2875L33.4763 25.975L34.0843 19.975H40.8343V21.7363H35.8286L35.4933 24.8216H35.5615C35.7774 24.5678 36.0824 24.3575 36.4763 24.1909C36.8702 24.0204 37.3021 23.9352 37.7718 23.9352C38.4763 23.9352 39.1051 24.1019 39.6581 24.4352C40.2111 24.7647 40.6468 25.2193 40.9649 25.7988C41.2831 26.3784 41.4422 27.0413 41.4422 27.7875C41.4422 28.5564 41.2642 29.242 40.9081 29.8443C40.5558 30.4428 40.0653 30.9144 39.4365 31.2591C38.8115 31.6 38.088 31.7704 37.2661 31.7704ZM47.428 31.6113V19.975H54.9962V21.742H49.536V24.9011H54.6041V26.6681H49.536V29.8443H55.0416V31.6113H47.428ZM64.8513 22.8841L61.7433 31.6113H59.4706L56.3627 22.8841H58.5558L60.5615 29.367H60.6524L62.6638 22.8841H64.8513ZM68.536 31.7875C67.9829 31.7875 67.4848 31.689 67.0416 31.492C66.6022 31.2913 66.2538 30.9958 65.9962 30.6056C65.7424 30.2155 65.6155 29.7344 65.6155 29.1625C65.6155 28.67 65.7064 28.2628 65.8882 27.9409C66.07 27.6189 66.3182 27.3613 66.6325 27.1681C66.9469 26.975 67.3011 26.8291 67.695 26.7306C68.0928 26.6284 68.5038 26.5545 68.928 26.5091C69.4394 26.456 69.8541 26.4087 70.1723 26.367C70.4905 26.3216 70.7216 26.2534 70.8655 26.1625C71.0132 26.0678 71.0871 25.9219 71.0871 25.725V25.6909C71.0871 25.2628 70.9602 24.9314 70.7064 24.6966C70.4526 24.4617 70.0871 24.3443 69.6098 24.3443C69.106 24.3443 68.7064 24.4541 68.411 24.6738C68.1193 24.8935 67.9223 25.153 67.82 25.4522L65.8996 25.1795C66.0511 24.6492 66.3011 24.206 66.6496 23.85C66.9981 23.4901 67.4242 23.2212 67.928 23.0431C68.4318 22.8613 68.9886 22.7704 69.5985 22.7704C70.0189 22.7704 70.4375 22.8197 70.8541 22.9181C71.2708 23.0166 71.6515 23.1795 71.9962 23.4068C72.3409 23.6303 72.6174 23.9352 72.8257 24.3216C73.0378 24.7079 73.1439 25.1909 73.1439 25.7704V31.6113H71.1666V30.4125H71.0985C70.9735 30.6549 70.7973 30.8822 70.57 31.0943C70.3466 31.3026 70.0644 31.4712 69.7235 31.6C69.3863 31.725 68.9905 31.7875 68.536 31.7875ZM69.07 30.2761C69.4829 30.2761 69.8409 30.1947 70.1439 30.0318C70.4469 29.8651 70.6799 29.6454 70.8428 29.3727C71.0094 29.1 71.0928 28.8026 71.0928 28.4806V27.4522C71.0284 27.5053 70.9185 27.5545 70.7632 27.6C70.6117 27.6454 70.4413 27.6852 70.2519 27.7193C70.0625 27.7534 69.875 27.7837 69.6894 27.8102C69.5038 27.8367 69.3428 27.8594 69.2064 27.8784C68.8996 27.92 68.625 27.9882 68.3825 28.0829C68.1401 28.1776 67.9488 28.3102 67.8087 28.4806C67.6685 28.6473 67.5985 28.8632 67.5985 29.1284C67.5985 29.5072 67.7367 29.7931 68.0132 29.9863C68.2897 30.1795 68.642 30.2761 69.07 30.2761ZM77.2689 19.975V31.6113H75.2121V19.975H77.2689ZM84.9465 27.9409V22.8841H87.0033V31.6113H85.009V30.0602H84.9181C84.7211 30.5488 84.3972 30.9484 83.9465 31.2591C83.4995 31.5697 82.9484 31.725 82.2931 31.725C81.7211 31.725 81.2154 31.5981 80.776 31.3443C80.3404 31.0867 79.9995 30.7136 79.7533 30.225C79.5071 29.7325 79.384 29.1378 79.384 28.4409V22.8841H81.4408V28.1227C81.4408 28.6757 81.5923 29.1151 81.8953 29.4409C82.1984 29.7666 82.5961 29.9295 83.0885 29.9295C83.3915 29.9295 83.6851 29.8556 83.9692 29.7079C84.2533 29.5602 84.4862 29.3405 84.6681 29.0488C84.8537 28.7534 84.9465 28.3841 84.9465 27.9409ZM91.6297 31.7875C91.0767 31.7875 90.5786 31.689 90.1354 31.492C89.696 31.2913 89.3475 30.9958 89.0899 30.6056C88.8361 30.2155 88.7093 29.7344 88.7093 29.1625C88.7093 28.67 88.8002 28.2628 88.982 27.9409C89.1638 27.6189 89.4119 27.3613 89.7263 27.1681C90.0407 26.975 90.3949 26.8291 90.7888 26.7306C91.1865 26.6284 91.5975 26.5545 92.0218 26.5091C92.5331 26.456 92.9479 26.4087 93.2661 26.367C93.5843 26.3216 93.8153 26.2534 93.9593 26.1625C94.107 26.0678 94.1808 25.9219 94.1808 25.725V25.6909C94.1808 25.2628 94.0539 24.9314 93.8002 24.6966C93.5464 24.4617 93.1808 24.3443 92.7036 24.3443C92.1998 24.3443 91.8002 24.4541 91.5047 24.6738C91.213 24.8935 91.0161 25.153 90.9138 25.4522L88.9933 25.1795C89.1449 24.6492 89.3949 24.206 89.7433 23.85C90.0918 23.4901 90.518 23.2212 91.0218 23.0431C91.5255 22.8613 92.0824 22.7704 92.6922 22.7704C93.1127 22.7704 93.5312 22.8197 93.9479 22.9181C94.3646 23.0166 94.7452 23.1795 95.0899 23.4068C95.4346 23.6303 95.7111 23.9352 95.9195 24.3216C96.1316 24.7079 96.2377 25.1909 96.2377 25.7704V31.6113H94.2604V30.4125H94.1922C94.0672 30.6549 93.8911 30.8822 93.6638 31.0943C93.4403 31.3026 93.1581 31.4712 92.8172 31.6C92.4801 31.725 92.0843 31.7875 91.6297 31.7875ZM92.1638 30.2761C92.5767 30.2761 92.9346 30.1947 93.2377 30.0318C93.5407 29.8651 93.7736 29.6454 93.9365 29.3727C94.1032 29.1 94.1865 28.8026 94.1865 28.4806V27.4522C94.1221 27.5053 94.0123 27.5545 93.857 27.6C93.7055 27.6454 93.535 27.6852 93.3456 27.7193C93.1562 27.7534 92.9687 27.7837 92.7831 27.8102C92.5975 27.8367 92.4365 27.8594 92.3002 27.8784C91.9933 27.92 91.7187 27.9882 91.4763 28.0829C91.2339 28.1776 91.0426 28.3102 90.9024 28.4806C90.7623 28.6473 90.6922 28.8632 90.6922 29.1284C90.6922 29.5072 90.8305 29.7931 91.107 29.9863C91.3835 30.1795 91.7358 30.2761 92.1638 30.2761ZM102.664 22.8841V24.475H97.6468V22.8841H102.664ZM98.8854 20.7931H100.942V28.9863C100.942 29.2628 100.984 29.475 101.067 29.6227C101.154 29.7666 101.268 29.8651 101.408 29.9181C101.548 29.9712 101.704 29.9977 101.874 29.9977C102.003 29.9977 102.12 29.9882 102.226 29.9693C102.336 29.9503 102.419 29.9333 102.476 29.9181L102.823 31.5261C102.713 31.564 102.556 31.6056 102.351 31.6511C102.151 31.6966 101.904 31.7231 101.613 31.7306C101.098 31.7458 100.633 31.6681 100.221 31.4977C99.8077 31.3234 99.4801 31.0545 99.2377 30.6909C98.999 30.3272 98.8816 29.8727 98.8854 29.3272V20.7931ZM104.384 31.6113V22.8841H106.441V31.6113H104.384ZM105.418 21.6454C105.092 21.6454 104.812 21.5375 104.577 21.3216C104.342 21.1019 104.225 20.8386 104.225 20.5318C104.225 20.2212 104.342 19.9579 104.577 19.742C104.812 19.5223 105.092 19.4125 105.418 19.4125C105.748 19.4125 106.028 19.5223 106.259 19.742C106.494 19.9579 106.611 20.2212 106.611 20.5318C106.611 20.8386 106.494 21.1019 106.259 21.3216C106.028 21.5375 105.748 21.6454 105.418 21.6454ZM112.363 31.7818C111.51 31.7818 110.772 31.5943 110.147 31.2193C109.522 30.8443 109.037 30.3197 108.692 29.6454C108.351 28.9712 108.181 28.1833 108.181 27.2818C108.181 26.3803 108.351 25.5905 108.692 24.9125C109.037 24.2344 109.522 23.7079 110.147 23.3329C110.772 22.9579 111.51 22.7704 112.363 22.7704C113.215 22.7704 113.954 22.9579 114.579 23.3329C115.204 23.7079 115.687 24.2344 116.027 24.9125C116.372 25.5905 116.544 26.3803 116.544 27.2818C116.544 28.1833 116.372 28.9712 116.027 29.6454C115.687 30.3197 115.204 30.8443 114.579 31.2193C113.954 31.5943 113.215 31.7818 112.363 31.7818ZM112.374 30.1341C112.836 30.1341 113.223 30.0072 113.533 29.7534C113.844 29.4958 114.075 29.1511 114.226 28.7193C114.382 28.2875 114.459 27.8064 114.459 27.2761C114.459 26.742 114.382 26.2591 114.226 25.8272C114.075 25.3916 113.844 25.045 113.533 24.7875C113.223 24.5299 112.836 24.4011 112.374 24.4011C111.901 24.4011 111.507 24.5299 111.192 24.7875C110.882 25.045 110.649 25.3916 110.493 25.8272C110.342 26.2591 110.266 26.742 110.266 27.2761C110.266 27.8064 110.342 28.2875 110.493 28.7193C110.649 29.1511 110.882 29.4958 111.192 29.7534C111.507 30.0072 111.901 30.1341 112.374 30.1341ZM120.347 26.4977V31.6113H118.29V22.8841H120.256V24.367H120.358C120.559 23.8784 120.879 23.4901 121.319 23.2022C121.762 22.9144 122.309 22.7704 122.961 22.7704C123.563 22.7704 124.088 22.8992 124.535 23.1568C124.985 23.4144 125.334 23.7875 125.58 24.2761C125.83 24.7647 125.953 25.3575 125.949 26.0545V31.6113H123.892V26.3727C123.892 25.7894 123.741 25.3329 123.438 25.0034C123.139 24.6738 122.724 24.5091 122.194 24.5091C121.834 24.5091 121.514 24.5886 121.233 24.7477C120.957 24.903 120.739 25.1284 120.58 25.4238C120.425 25.7193 120.347 26.0772 120.347 26.4977Z" fill="white"/>
<path d="M17.2206 31.6113V30.0886L21.2604 26.1284C21.6468 25.7382 21.9687 25.3916 22.2263 25.0886C22.4839 24.7856 22.6771 24.492 22.8058 24.2079C22.9346 23.9238 22.999 23.6208 22.999 23.2988C22.999 22.9314 22.9157 22.617 22.749 22.3556C22.5824 22.0905 22.3532 21.8859 22.0615 21.742C21.7699 21.5981 21.4384 21.5261 21.0672 21.5261C20.6846 21.5261 20.3494 21.6056 20.0615 21.7647C19.7736 21.92 19.5502 22.1416 19.3911 22.4295C19.2358 22.7174 19.1581 23.0602 19.1581 23.4579H17.1524C17.1524 22.7193 17.321 22.0772 17.6581 21.5318C17.9952 20.9863 18.4593 20.564 19.0502 20.2647C19.6449 19.9655 20.3267 19.8159 21.0956 19.8159C21.8759 19.8159 22.5615 19.9617 23.1524 20.2534C23.7433 20.545 24.2017 20.9447 24.5274 21.4522C24.857 21.9598 25.0218 22.5394 25.0218 23.1909C25.0218 23.6265 24.9384 24.0545 24.7718 24.475C24.6051 24.8954 24.3115 25.3613 23.8911 25.8727C23.4744 26.3841 22.8892 27.0034 22.1354 27.7306L20.1297 29.7704V29.85H25.1979V31.6113H17.2206ZM31.9308 19.4295L28.1808 33.3613H26.3797L30.1297 19.4295H31.9308ZM37.2661 31.7704C36.5085 31.7704 35.8305 31.6284 35.232 31.3443C34.6335 31.0564 34.1581 30.6625 33.8058 30.1625C33.4574 29.6625 33.2718 29.0905 33.249 28.4466H35.2945C35.3324 28.9238 35.5388 29.314 35.9138 29.617C36.2888 29.9163 36.7396 30.0659 37.2661 30.0659C37.6789 30.0659 38.0464 29.9712 38.3683 29.7818C38.6903 29.5924 38.9441 29.3291 39.1297 28.992C39.3153 28.6549 39.4062 28.2704 39.4024 27.8386C39.4062 27.3992 39.3134 27.0091 39.124 26.6681C38.9346 26.3272 38.6752 26.0602 38.3456 25.867C38.0161 25.67 37.6373 25.5716 37.2093 25.5716C36.8608 25.5678 36.518 25.6322 36.1808 25.7647C35.8437 25.8973 35.5767 26.0716 35.3797 26.2875L33.4763 25.975L34.0843 19.975H40.8343V21.7363H35.8286L35.4933 24.8216H35.5615C35.7774 24.5678 36.0824 24.3575 36.4763 24.1909C36.8702 24.0204 37.3021 23.9352 37.7718 23.9352C38.4763 23.9352 39.1051 24.1019 39.6581 24.4352C40.2111 24.7647 40.6468 25.2193 40.9649 25.7988C41.2831 26.3784 41.4422 27.0413 41.4422 27.7875C41.4422 28.5564 41.2642 29.242 40.9081 29.8443C40.5558 30.4428 40.0653 30.9144 39.4365 31.2591C38.8115 31.6 38.088 31.7704 37.2661 31.7704ZM47.428 31.6113V19.975H54.9962V21.742H49.536V24.9011H54.6041V26.6681H49.536V29.8443H55.0416V31.6113H47.428ZM64.8513 22.8841L61.7433 31.6113H59.4706L56.3627 22.8841H58.5558L60.5615 29.367H60.6524L62.6638 22.8841H64.8513ZM68.536 31.7875C67.9829 31.7875 67.4848 31.689 67.0416 31.492C66.6022 31.2913 66.2538 30.9958 65.9962 30.6056C65.7424 30.2155 65.6155 29.7344 65.6155 29.1625C65.6155 28.67 65.7064 28.2628 65.8882 27.9409C66.07 27.6189 66.3182 27.3613 66.6325 27.1681C66.9469 26.975 67.3011 26.8291 67.695 26.7306C68.0928 26.6284 68.5038 26.5545 68.928 26.5091C69.4394 26.456 69.8541 26.4087 70.1723 26.367C70.4905 26.3216 70.7216 26.2534 70.8655 26.1625C71.0132 26.0678 71.0871 25.9219 71.0871 25.725V25.6909C71.0871 25.2628 70.9602 24.9314 70.7064 24.6966C70.4526 24.4617 70.0871 24.3443 69.6098 24.3443C69.106 24.3443 68.7064 24.4541 68.411 24.6738C68.1193 24.8935 67.9223 25.153 67.82 25.4522L65.8996 25.1795C66.0511 24.6492 66.3011 24.206 66.6496 23.85C66.9981 23.4901 67.4242 23.2212 67.928 23.0431C68.4318 22.8613 68.9886 22.7704 69.5985 22.7704C70.0189 22.7704 70.4375 22.8197 70.8541 22.9181C71.2708 23.0166 71.6515 23.1795 71.9962 23.4068C72.3409 23.6303 72.6174 23.9352 72.8257 24.3216C73.0378 24.7079 73.1439 25.1909 73.1439 25.7704V31.6113H71.1666V30.4125H71.0985C70.9735 30.6549 70.7973 30.8822 70.57 31.0943C70.3466 31.3026 70.0644 31.4712 69.7235 31.6C69.3863 31.725 68.9905 31.7875 68.536 31.7875ZM69.07 30.2761C69.4829 30.2761 69.8409 30.1947 70.1439 30.0318C70.4469 29.8651 70.6799 29.6454 70.8428 29.3727C71.0094 29.1 71.0928 28.8026 71.0928 28.4806V27.4522C71.0284 27.5053 70.9185 27.5545 70.7632 27.6C70.6117 27.6454 70.4413 27.6852 70.2519 27.7193C70.0625 27.7534 69.875 27.7837 69.6894 27.8102C69.5038 27.8367 69.3428 27.8594 69.2064 27.8784C68.8996 27.92 68.625 27.9882 68.3825 28.0829C68.1401 28.1776 67.9488 28.3102 67.8087 28.4806C67.6685 28.6473 67.5985 28.8632 67.5985 29.1284C67.5985 29.5072 67.7367 29.7931 68.0132 29.9863C68.2897 30.1795 68.642 30.2761 69.07 30.2761ZM77.2689 19.975V31.6113H75.2121V19.975H77.2689ZM84.9465 27.9409V22.8841H87.0033V31.6113H85.009V30.0602H84.9181C84.7211 30.5488 84.3972 30.9484 83.9465 31.2591C83.4995 31.5697 82.9484 31.725 82.2931 31.725C81.7211 31.725 81.2154 31.5981 80.776 31.3443C80.3404 31.0867 79.9995 30.7136 79.7533 30.225C79.5071 29.7325 79.384 29.1378 79.384 28.4409V22.8841H81.4408V28.1227C81.4408 28.6757 81.5923 29.1151 81.8953 29.4409C82.1984 29.7666 82.5961 29.9295 83.0885 29.9295C83.3915 29.9295 83.6851 29.8556 83.9692 29.7079C84.2533 29.5602 84.4862 29.3405 84.6681 29.0488C84.8537 28.7534 84.9465 28.3841 84.9465 27.9409ZM91.6297 31.7875C91.0767 31.7875 90.5786 31.689 90.1354 31.492C89.696 31.2913 89.3475 30.9958 89.0899 30.6056C88.8361 30.2155 88.7093 29.7344 88.7093 29.1625C88.7093 28.67 88.8002 28.2628 88.982 27.9409C89.1638 27.6189 89.4119 27.3613 89.7263 27.1681C90.0407 26.975 90.3949 26.8291 90.7888 26.7306C91.1865 26.6284 91.5975 26.5545 92.0218 26.5091C92.5331 26.456 92.9479 26.4087 93.2661 26.367C93.5843 26.3216 93.8153 26.2534 93.9593 26.1625C94.107 26.0678 94.1808 25.9219 94.1808 25.725V25.6909C94.1808 25.2628 94.0539 24.9314 93.8002 24.6966C93.5464 24.4617 93.1808 24.3443 92.7036 24.3443C92.1998 24.3443 91.8002 24.4541 91.5047 24.6738C91.213 24.8935 91.0161 25.153 90.9138 25.4522L88.9933 25.1795C89.1449 24.6492 89.3949 24.206 89.7433 23.85C90.0918 23.4901 90.518 23.2212 91.0218 23.0431C91.5255 22.8613 92.0824 22.7704 92.6922 22.7704C93.1127 22.7704 93.5312 22.8197 93.9479 22.9181C94.3646 23.0166 94.7452 23.1795 95.0899 23.4068C95.4346 23.6303 95.7111 23.9352 95.9195 24.3216C96.1316 24.7079 96.2377 25.1909 96.2377 25.7704V31.6113H94.2604V30.4125H94.1922C94.0672 30.6549 93.8911 30.8822 93.6638 31.0943C93.4403 31.3026 93.1581 31.4712 92.8172 31.6C92.4801 31.725 92.0843 31.7875 91.6297 31.7875ZM92.1638 30.2761C92.5767 30.2761 92.9346 30.1947 93.2377 30.0318C93.5407 29.8651 93.7736 29.6454 93.9365 29.3727C94.1032 29.1 94.1865 28.8026 94.1865 28.4806V27.4522C94.1221 27.5053 94.0123 27.5545 93.857 27.6C93.7055 27.6454 93.535 27.6852 93.3456 27.7193C93.1562 27.7534 92.9687 27.7837 92.7831 27.8102C92.5975 27.8367 92.4365 27.8594 92.3002 27.8784C91.9933 27.92 91.7187 27.9882 91.4763 28.0829C91.2339 28.1776 91.0426 28.3102 90.9024 28.4806C90.7623 28.6473 90.6922 28.8632 90.6922 29.1284C90.6922 29.5072 90.8305 29.7931 91.107 29.9863C91.3835 30.1795 91.7358 30.2761 92.1638 30.2761ZM102.664 22.8841V24.475H97.6468V22.8841H102.664ZM98.8854 20.7931H100.942V28.9863C100.942 29.2628 100.984 29.475 101.067 29.6227C101.154 29.7666 101.268 29.8651 101.408 29.9181C101.548 29.9712 101.704 29.9977 101.874 29.9977C102.003 29.9977 102.12 29.9882 102.226 29.9693C102.336 29.9503 102.419 29.9333 102.476 29.9181L102.823 31.5261C102.713 31.564 102.556 31.6056 102.351 31.6511C102.151 31.6966 101.904 31.7231 101.613 31.7306C101.098 31.7458 100.633 31.6681 100.221 31.4977C99.8077 31.3234 99.4801 31.0545 99.2377 30.6909C98.999 30.3272 98.8816 29.8727 98.8854 29.3272V20.7931ZM104.384 31.6113V22.8841H106.441V31.6113H104.384ZM105.418 21.6454C105.092 21.6454 104.812 21.5375 104.577 21.3216C104.342 21.1019 104.225 20.8386 104.225 20.5318C104.225 20.2212 104.342 19.9579 104.577 19.742C104.812 19.5223 105.092 19.4125 105.418 19.4125C105.748 19.4125 106.028 19.5223 106.259 19.742C106.494 19.9579 106.611 20.2212 106.611 20.5318C106.611 20.8386 106.494 21.1019 106.259 21.3216C106.028 21.5375 105.748 21.6454 105.418 21.6454ZM112.363 31.7818C111.51 31.7818 110.772 31.5943 110.147 31.2193C109.522 30.8443 109.037 30.3197 108.692 29.6454C108.351 28.9712 108.181 28.1833 108.181 27.2818C108.181 26.3803 108.351 25.5905 108.692 24.9125C109.037 24.2344 109.522 23.7079 110.147 23.3329C110.772 22.9579 111.51 22.7704 112.363 22.7704C113.215 22.7704 113.954 22.9579 114.579 23.3329C115.204 23.7079 115.687 24.2344 116.027 24.9125C116.372 25.5905 116.544 26.3803 116.544 27.2818C116.544 28.1833 116.372 28.9712 116.027 29.6454C115.687 30.3197 115.204 30.8443 114.579 31.2193C113.954 31.5943 113.215 31.7818 112.363 31.7818ZM112.374 30.1341C112.836 30.1341 113.223 30.0072 113.533 29.7534C113.844 29.4958 114.075 29.1511 114.226 28.7193C114.382 28.2875 114.459 27.8064 114.459 27.2761C114.459 26.742 114.382 26.2591 114.226 25.8272C114.075 25.3916 113.844 25.045 113.533 24.7875C113.223 24.5299 112.836 24.4011 112.374 24.4011C111.901 24.4011 111.507 24.5299 111.192 24.7875C110.882 25.045 110.649 25.3916 110.493 25.8272C110.342 26.2591 110.266 26.742 110.266 27.2761C110.266 27.8064 110.342 28.2875 110.493 28.7193C110.649 29.1511 110.882 29.4958 111.192 29.7534C111.507 30.0072 111.901 30.1341 112.374 30.1341ZM120.347 26.4977V31.6113H118.29V22.8841H120.256V24.367H120.358C120.559 23.8784 120.879 23.4901 121.319 23.2022C121.762 22.9144 122.309 22.7704 122.961 22.7704C123.563 22.7704 124.088 22.8992 124.535 23.1568C124.985 23.4144 125.334 23.7875 125.58 24.2761C125.83 24.7647 125.953 25.3575 125.949 26.0545V31.6113H123.892V26.3727C123.892 25.7894 123.741 25.3329 123.438 25.0034C123.139 24.6738 122.724 24.5091 122.194 24.5091C121.834 24.5091 121.514 24.5886 121.233 24.7477C120.957 24.903 120.739 25.1284 120.58 25.4238C120.425 25.7193 120.347 26.0772 120.347 26.4977Z" fill="#3D3D4F"/>
<path d="M16.1865 44.6113C16.1865 42.9545 17.5297 41.6113 19.1865 41.6113H88.1865V47.6113H19.1865C17.5297 47.6113 16.1865 46.2682 16.1865 44.6113Z" fill="#25D192"/>
<path d="M88.1865 41.6113H231.187C232.843 41.6113 234.187 42.9545 234.187 44.6113C234.187 46.2682 232.843 47.6113 231.187 47.6113H88.1865V41.6113Z" fill="#DEE2F5"/>
<path d="M19.2689 67.6113L16.4848 57.4295H17.7377L19.8655 65.7221H19.9649L22.1325 57.4295H23.5246L25.6922 65.7221H25.7916L27.9195 57.4295H29.1723L26.3882 67.6113H25.1155L22.8683 59.4977H22.7888L20.5416 67.6113H19.2689ZM32.0857 67.7903C31.6018 67.7903 31.1626 67.6992 30.7682 67.5169C30.3738 67.3313 30.0606 67.0645 29.8286 66.7164C29.5966 66.3651 29.4806 65.9409 29.4806 65.4437C29.4806 65.0062 29.5667 64.6516 29.7391 64.3798C29.9114 64.1047 30.1418 63.8893 30.4301 63.7335C30.7185 63.5777 31.0367 63.4617 31.3847 63.3855C31.736 63.3059 32.089 63.243 32.4436 63.1966C32.9076 63.1369 33.2838 63.0922 33.5722 63.0623C33.8638 63.0292 34.076 62.9745 34.2085 62.8983C34.3444 62.822 34.4124 62.6895 34.4124 62.5005V62.4608C34.4124 61.9702 34.2781 61.5891 34.0097 61.3173C33.7445 61.0455 33.3418 60.9096 32.8016 60.9096C32.2414 60.9096 31.8023 61.0323 31.4841 61.2775C31.1659 61.5228 30.9422 61.7846 30.8129 62.063L29.6993 61.6653C29.8982 61.2013 30.1633 60.84 30.4948 60.5815C30.8295 60.3197 31.1941 60.1374 31.5885 60.0346C31.9862 59.9286 32.3773 59.8755 32.7618 59.8755C33.0071 59.8755 33.2888 59.9054 33.607 59.965C33.9285 60.0214 34.2384 60.139 34.5367 60.318C34.8383 60.497 35.0885 60.7671 35.2874 61.1284C35.4862 61.4896 35.5857 61.9735 35.5857 62.5801V67.6113H34.4124V66.5772H34.3527C34.2732 66.743 34.1406 66.9203 33.955 67.1092C33.7694 67.2981 33.5225 67.4589 33.2142 67.5914C32.906 67.724 32.5298 67.7903 32.0857 67.7903ZM32.2646 66.7363C32.7287 66.7363 33.1198 66.6452 33.4379 66.4629C33.7594 66.2806 34.0014 66.0453 34.1638 65.7569C34.3295 65.4686 34.4124 65.1653 34.4124 64.8471V63.7733C34.3627 63.8329 34.2533 63.8876 34.0843 63.9373C33.9185 63.9837 33.7263 64.0252 33.5075 64.0616C33.2921 64.0948 33.0816 64.1246 32.8762 64.1511C32.674 64.1743 32.5099 64.1942 32.384 64.2108C32.079 64.2505 31.794 64.3152 31.5289 64.4047C31.267 64.4908 31.0549 64.6217 30.8925 64.7974C30.7334 64.9698 30.6539 65.2051 30.6539 65.5034C30.6539 65.911 30.8047 66.2193 31.1063 66.4281C31.4112 66.6336 31.7973 66.7363 32.2646 66.7363ZM37.7272 67.6113V59.975H38.9005V67.6113H37.7272ZM38.3238 58.7022C38.0951 58.7022 37.8979 58.6243 37.7322 58.4686C37.5698 58.3128 37.4885 58.1255 37.4885 57.9068C37.4885 57.688 37.5698 57.5008 37.7322 57.345C37.8979 57.1892 38.0951 57.1113 38.3238 57.1113C38.5525 57.1113 38.748 57.1892 38.9104 57.345C39.0761 57.5008 39.159 57.688 39.159 57.9068C39.159 58.1255 39.0761 58.3128 38.9104 58.4686C38.748 58.6243 38.5525 58.7022 38.3238 58.7022ZM44.3705 59.975V60.9693H40.4131V59.975H44.3705ZM41.5665 58.1454H42.7398V65.4238C42.7398 65.7553 42.7878 66.0038 42.884 66.1696C42.9834 66.332 43.1093 66.4413 43.2618 66.4977C43.4176 66.5507 43.5816 66.5772 43.754 66.5772C43.8833 66.5772 43.9893 66.5706 44.0722 66.5574C44.155 66.5408 44.2213 66.5275 44.271 66.5176L44.5097 67.5716C44.4301 67.6014 44.3191 67.6312 44.1766 67.661C44.0341 67.6942 43.8534 67.7108 43.6347 67.7108C43.3032 67.7108 42.9784 67.6395 42.6602 67.497C42.3454 67.3545 42.0835 67.1374 41.8747 66.8457C41.6692 66.554 41.5665 66.1861 41.5665 65.742V58.1454ZM46.1354 67.6113V59.975H47.3087V67.6113H46.1354ZM46.732 58.7022C46.5033 58.7022 46.3061 58.6243 46.1404 58.4686C45.978 58.3128 45.8968 58.1255 45.8968 57.9068C45.8968 57.688 45.978 57.5008 46.1404 57.345C46.3061 57.1892 46.5033 57.1113 46.732 57.1113C46.9607 57.1113 47.1562 57.1892 47.3186 57.345C47.4843 57.5008 47.5672 57.688 47.5672 57.9068C47.5672 58.1255 47.4843 58.3128 47.3186 58.4686C47.1562 58.6243 46.9607 58.7022 46.732 58.7022ZM50.6309 63.0176V67.6113H49.4577V59.975H50.5912V61.1681H50.6906C50.8696 60.7804 51.1414 60.4688 51.5059 60.2335C51.8705 59.9949 52.3412 59.8755 52.9179 59.8755C53.4349 59.8755 53.8873 59.9816 54.2751 60.1937C54.6629 60.4025 54.9645 60.7207 55.18 61.1483C55.3954 61.5725 55.5031 62.1094 55.5031 62.7591V67.6113H54.3298V62.8386C54.3298 62.2387 54.174 61.7714 53.8625 61.4366C53.5509 61.0985 53.1234 60.9295 52.5798 60.9295C52.2053 60.9295 51.8705 61.0107 51.5756 61.1731C51.2839 61.3355 51.0535 61.5725 50.8845 61.8841C50.7155 62.1956 50.6309 62.5734 50.6309 63.0176ZM60.7295 70.6341C60.1627 70.6341 59.6755 70.5611 59.2678 70.4153C58.8602 70.2728 58.5204 70.0839 58.2487 69.8485C57.9802 69.6165 57.7664 69.368 57.6073 69.1028L58.542 68.4466C58.6481 68.5858 58.7823 68.7449 58.9447 68.9238C59.1071 69.1061 59.3292 69.2636 59.6109 69.3961C59.8959 69.532 60.2688 69.6 60.7295 69.6C61.346 69.6 61.8547 69.4508 62.2558 69.1525C62.6568 68.8542 62.8573 68.3869 62.8573 67.7505V66.1994H62.7579C62.6717 66.3386 62.5491 66.5109 62.39 66.7164C62.2342 66.9186 62.0088 67.0993 61.7139 67.2583C61.4222 67.4141 61.0278 67.492 60.5306 67.492C59.9142 67.492 59.3606 67.3462 58.8701 67.0545C58.3829 66.7628 57.9968 66.3386 57.7117 65.7818C57.43 65.225 57.2892 64.5488 57.2892 63.7534C57.2892 62.9712 57.4267 62.2901 57.7018 61.71C57.9769 61.1267 58.3597 60.676 58.8502 60.3578C59.3408 60.0363 59.9075 59.8755 60.5505 59.8755C61.0477 59.8755 61.4421 59.9584 61.7338 60.1241C62.0287 60.2865 62.2541 60.4721 62.4099 60.6809C62.569 60.8864 62.6916 61.0555 62.7778 61.188H62.8971V59.975H64.0306V67.8301C64.0306 68.4863 63.8815 69.0199 63.5832 69.4309C63.2882 69.8452 62.8905 70.1485 62.39 70.3407C61.8928 70.5363 61.3393 70.6341 60.7295 70.6341ZM60.6897 66.438C61.1604 66.438 61.5581 66.3303 61.8829 66.1149C62.2077 65.8994 62.4546 65.5895 62.6237 65.1852C62.7927 64.7808 62.8772 64.2969 62.8772 63.7335C62.8772 63.1833 62.7944 62.6977 62.6286 62.2768C62.4629 61.8559 62.2177 61.5261 61.8928 61.2875C61.568 61.0488 61.167 60.9295 60.6897 60.9295C60.1926 60.9295 59.7783 61.0555 59.4468 61.3074C59.1187 61.5592 58.8718 61.8973 58.7061 62.3216C58.5436 62.7458 58.4624 63.2164 58.4624 63.7335C58.4624 64.2638 58.5453 64.7328 58.711 65.1404C58.8801 65.5448 59.1286 65.863 59.4568 66.095C59.7882 66.3237 60.1992 66.438 60.6897 66.438ZM73.5164 59.975V60.9693H69.3999V59.975H73.5164ZM70.6329 67.6113V58.921C70.6329 58.4835 70.7356 58.1189 70.9411 57.8272C71.1466 57.5356 71.4134 57.3168 71.7416 57.171C72.0697 57.0252 72.416 56.9522 72.7806 56.9522C73.069 56.9522 73.3043 56.9754 73.4866 57.0218C73.6689 57.0682 73.8048 57.1113 73.8943 57.1511L73.5562 58.1653C73.4965 58.1454 73.4137 58.1206 73.3076 58.0907C73.2049 58.0609 73.069 58.046 72.8999 58.046C72.5122 58.046 72.2321 58.1438 72.0597 58.3393C71.8907 58.5349 71.8062 58.8216 71.8062 59.1994V67.6113H70.6329ZM77.9486 67.7704C77.2592 67.7704 76.6543 67.6064 76.134 67.2782C75.6169 66.9501 75.2126 66.4911 74.9209 65.9011C74.6325 65.3111 74.4884 64.6217 74.4884 63.8329C74.4884 63.0375 74.6325 62.3431 74.9209 61.7498C75.2126 61.1565 75.6169 60.6958 76.134 60.3677C76.6543 60.0396 77.2592 59.8755 77.9486 59.8755C78.638 59.8755 79.2412 60.0396 79.7583 60.3677C80.2786 60.6958 80.683 61.1565 80.9713 61.7498C81.263 62.3431 81.4088 63.0375 81.4088 63.8329C81.4088 64.6217 81.263 65.3111 80.9713 65.9011C80.683 66.4911 80.2786 66.9501 79.7583 67.2782C79.2412 67.6064 78.638 67.7704 77.9486 67.7704ZM77.9486 66.7164C78.4723 66.7164 78.9031 66.5822 79.2412 66.3137C79.5793 66.0453 79.8295 65.6923 79.9919 65.2548C80.1543 64.8173 80.2355 64.3433 80.2355 63.8329C80.2355 63.3225 80.1543 62.8469 79.9919 62.4061C79.8295 61.9653 79.5793 61.609 79.2412 61.3372C78.9031 61.0654 78.4723 60.9295 77.9486 60.9295C77.4249 60.9295 76.9941 61.0654 76.656 61.3372C76.3179 61.609 76.0677 61.9653 75.9053 62.4061C75.7429 62.8469 75.6617 63.3225 75.6617 63.8329C75.6617 64.3433 75.7429 64.8173 75.9053 65.2548C76.0677 65.6923 76.3179 66.0453 76.656 66.3137C76.9941 66.5822 77.4249 66.7164 77.9486 66.7164ZM83.1998 67.6113V59.975H84.3334V61.1284H84.4129C84.5521 60.7505 84.804 60.444 85.1686 60.2086C85.5332 59.9733 85.9442 59.8556 86.4015 59.8556C86.4877 59.8556 86.5954 59.8573 86.7247 59.8606C86.854 59.8639 86.9517 59.8689 87.018 59.8755V61.0687C86.9782 61.0588 86.8871 61.0439 86.7446 61.024C86.6054 61.0008 86.4579 60.9892 86.3021 60.9892C85.9309 60.9892 85.5995 61.0671 85.3078 61.2228C85.0194 61.3753 84.7907 61.5874 84.6217 61.8592C84.456 62.1277 84.3731 62.4342 84.3731 62.7789V67.6113H83.1998ZM92.5054 57.4295H93.977L97.4372 65.8812H97.5566L101.017 57.4295H102.488V67.6113H101.335V59.8755H101.236L98.0537 67.6113H96.9401L93.7583 59.8755H93.6588V67.6113H92.5054V57.4295ZM107.049 67.7903C106.565 67.7903 106.126 67.6992 105.731 67.5169C105.337 67.3313 105.023 67.0645 104.791 66.7164C104.559 66.3651 104.443 65.9409 104.443 65.4437C104.443 65.0062 104.53 64.6516 104.702 64.3798C104.874 64.1047 105.105 63.8893 105.393 63.7335C105.681 63.5777 106 63.4617 106.348 63.3855C106.699 63.3059 107.052 63.243 107.407 63.1966C107.871 63.1369 108.247 63.0922 108.535 63.0623C108.827 63.0292 109.039 62.9745 109.171 62.8983C109.307 62.822 109.375 62.6895 109.375 62.5005V62.4608C109.375 61.9702 109.241 61.5891 108.973 61.3173C108.707 61.0455 108.305 60.9096 107.764 60.9096C107.204 60.9096 106.765 61.0323 106.447 61.2775C106.129 61.5228 105.905 61.7846 105.776 62.063L104.662 61.6653C104.861 61.2013 105.126 60.84 105.458 60.5815C105.792 60.3197 106.157 60.1374 106.551 60.0346C106.949 59.9286 107.34 59.8755 107.725 59.8755C107.97 59.8755 108.252 59.9054 108.57 59.965C108.891 60.0214 109.201 60.139 109.5 60.318C109.801 60.497 110.051 60.7671 110.25 61.1284C110.449 61.4896 110.549 61.9735 110.549 62.5801V67.6113H109.375V66.5772H109.316C109.236 66.743 109.103 66.9203 108.918 67.1092C108.732 67.2981 108.485 67.4589 108.177 67.5914C107.869 67.724 107.493 67.7903 107.049 67.7903ZM107.228 66.7363C107.692 66.7363 108.083 66.6452 108.401 66.4629C108.722 66.2806 108.964 66.0453 109.127 65.7569C109.292 65.4686 109.375 65.1653 109.375 64.8471V63.7733C109.326 63.8329 109.216 63.8876 109.047 63.9373C108.881 63.9837 108.689 64.0252 108.47 64.0616C108.255 64.0948 108.045 64.1246 107.839 64.1511C107.637 64.1743 107.473 64.1942 107.347 64.2108C107.042 64.2505 106.757 64.3152 106.492 64.4047C106.23 64.4908 106.018 64.6217 105.855 64.7974C105.696 64.9698 105.617 65.2051 105.617 65.5034C105.617 65.911 105.768 66.2193 106.069 66.4281C106.374 66.6336 106.76 66.7363 107.228 66.7363ZM113.863 63.0176V67.6113H112.69V59.975H113.824V61.1681H113.923C114.102 60.7804 114.374 60.4688 114.738 60.2335C115.103 59.9949 115.574 59.8755 116.15 59.8755C116.667 59.8755 117.12 59.9816 117.508 60.1937C117.895 60.4025 118.197 60.7207 118.412 61.1483C118.628 61.5725 118.736 62.1094 118.736 62.7591V67.6113H117.562V62.8386C117.562 62.2387 117.406 61.7714 117.095 61.4366C116.783 61.0985 116.356 60.9295 115.812 60.9295C115.438 60.9295 115.103 61.0107 114.808 61.1731C114.516 61.3355 114.286 61.5725 114.117 61.8841C113.948 62.1956 113.863 62.5734 113.863 63.0176ZM123.127 67.7903C122.643 67.7903 122.204 67.6992 121.809 67.5169C121.415 67.3313 121.102 67.0645 120.87 66.7164C120.638 66.3651 120.522 65.9409 120.522 65.4437C120.522 65.0062 120.608 64.6516 120.78 64.3798C120.952 64.1047 121.183 63.8893 121.471 63.7335C121.759 63.5777 122.078 63.4617 122.426 63.3855C122.777 63.3059 123.13 63.243 123.485 63.1966C123.949 63.1369 124.325 63.0922 124.613 63.0623C124.905 63.0292 125.117 62.9745 125.25 62.8983C125.385 62.822 125.453 62.6895 125.453 62.5005V62.4608C125.453 61.9702 125.319 61.5891 125.051 61.3173C124.786 61.0455 124.383 60.9096 123.843 60.9096C123.282 60.9096 122.843 61.0323 122.525 61.2775C122.207 61.5228 121.983 61.7846 121.854 62.063L120.74 61.6653C120.939 61.2013 121.204 60.84 121.536 60.5815C121.871 60.3197 122.235 60.1374 122.63 60.0346C123.027 59.9286 123.418 59.8755 123.803 59.8755C124.048 59.8755 124.33 59.9054 124.648 59.965C124.969 60.0214 125.279 60.139 125.578 60.318C125.879 60.497 126.13 60.7671 126.328 61.1284C126.527 61.4896 126.627 61.9735 126.627 62.5801V67.6113H125.453V66.5772H125.394C125.314 66.743 125.182 66.9203 124.996 67.1092C124.81 67.2981 124.563 67.4589 124.255 67.5914C123.947 67.724 123.571 67.7903 123.127 67.7903ZM123.306 66.7363C123.77 66.7363 124.161 66.6452 124.479 66.4629C124.8 66.2806 125.042 66.0453 125.205 65.7569C125.371 65.4686 125.453 65.1653 125.453 64.8471V63.7733C125.404 63.8329 125.294 63.8876 125.125 63.9373C124.96 63.9837 124.767 64.0252 124.549 64.0616C124.333 64.0948 124.123 64.1246 123.917 64.1511C123.715 64.1743 123.551 64.1942 123.425 64.2108C123.12 64.2505 122.835 64.3152 122.57 64.4047C122.308 64.4908 122.096 64.6217 121.934 64.7974C121.774 64.9698 121.695 65.2051 121.695 65.5034C121.695 65.911 121.846 66.2193 122.147 66.4281C122.452 66.6336 122.838 66.7363 123.306 66.7363ZM131.851 70.6341C131.284 70.6341 130.797 70.5611 130.389 70.4153C129.981 70.2728 129.642 70.0839 129.37 69.8485C129.101 69.6165 128.888 69.368 128.728 69.1028L129.663 68.4466C129.769 68.5858 129.903 68.7449 130.066 68.9238C130.228 69.1061 130.45 69.2636 130.732 69.3961C131.017 69.532 131.39 69.6 131.851 69.6C132.467 69.6 132.976 69.4508 133.377 69.1525C133.778 68.8542 133.978 68.3869 133.978 67.7505V66.1994H133.879C133.793 66.3386 133.67 66.5109 133.511 66.7164C133.355 66.9186 133.13 67.0993 132.835 67.2583C132.543 67.4141 132.149 67.492 131.652 67.492C131.035 67.492 130.482 67.3462 129.991 67.0545C129.504 66.7628 129.118 66.3386 128.833 65.7818C128.551 65.225 128.41 64.5488 128.41 63.7534C128.41 62.9712 128.548 62.2901 128.823 61.71C129.098 61.1267 129.481 60.676 129.971 60.3578C130.462 60.0363 131.029 59.8755 131.672 59.8755C132.169 59.8755 132.563 59.9584 132.855 60.1241C133.15 60.2865 133.375 60.4721 133.531 60.6809C133.69 60.8864 133.813 61.0555 133.899 61.188H134.018V59.975H135.152V67.8301C135.152 68.4863 135.003 69.0199 134.704 69.4309C134.409 69.8452 134.012 70.1485 133.511 70.3407C133.014 70.5363 132.46 70.6341 131.851 70.6341ZM131.811 66.438C132.281 66.438 132.679 66.3303 133.004 66.1149C133.329 65.8994 133.576 65.5895 133.745 65.1852C133.914 64.7808 133.998 64.2969 133.998 63.7335C133.998 63.1833 133.915 62.6977 133.75 62.2768C133.584 61.8559 133.339 61.5261 133.014 61.2875C132.689 61.0488 132.288 60.9295 131.811 60.9295C131.314 60.9295 130.899 61.0555 130.568 61.3074C130.24 61.5592 129.993 61.8973 129.827 62.3216C129.665 62.7458 129.584 63.2164 129.584 63.7335C129.584 64.2638 129.666 64.7328 129.832 65.1404C130.001 65.5448 130.25 65.863 130.578 66.095C130.909 66.3237 131.32 66.438 131.811 66.438ZM140.501 67.7704C139.765 67.7704 139.131 67.608 138.597 67.2832C138.067 66.9551 137.657 66.4977 137.369 65.911C137.084 65.3211 136.941 64.635 136.941 63.8528C136.941 63.0706 137.084 62.3812 137.369 61.7846C137.657 61.1847 138.058 60.7174 138.572 60.3826C139.089 60.0446 139.692 59.8755 140.382 59.8755C140.78 59.8755 141.172 59.9418 141.56 60.0744C141.948 60.207 142.301 60.4224 142.619 60.7207C142.937 61.0157 143.191 61.4068 143.38 61.894C143.569 62.3812 143.663 62.9811 143.663 63.6937V64.1909H137.777V63.1767H142.47C142.47 62.7458 142.384 62.3613 142.211 62.0233C142.042 61.6852 141.8 61.4184 141.486 61.2228C141.174 61.0273 140.806 60.9295 140.382 60.9295C139.915 60.9295 139.51 61.0455 139.169 61.2775C138.831 61.5062 138.571 61.8045 138.388 62.1724C138.206 62.5403 138.115 62.9347 138.115 63.3556V64.0318C138.115 64.6085 138.214 65.0974 138.413 65.4984C138.615 65.8961 138.895 66.1994 139.253 66.4082C139.611 66.6137 140.027 66.7164 140.501 66.7164C140.809 66.7164 141.088 66.6734 141.336 66.5872C141.588 66.4977 141.805 66.3651 141.988 66.1895C142.17 66.0105 142.311 65.7884 142.41 65.5233L143.544 65.8414C143.424 66.2259 143.224 66.564 142.942 66.8556C142.66 67.144 142.312 67.3694 141.898 67.5318C141.484 67.6909 141.018 67.7704 140.501 67.7704ZM145.448 67.6113V59.975H146.581V61.1284H146.661C146.8 60.7505 147.052 60.444 147.417 60.2086C147.781 59.9733 148.192 59.8556 148.65 59.8556C148.736 59.8556 148.843 59.8573 148.973 59.8606C149.102 59.8639 149.2 59.8689 149.266 59.8755V61.0687C149.226 61.0588 149.135 61.0439 148.993 61.024C148.853 61.0008 148.706 60.9892 148.55 60.9892C148.179 60.9892 147.848 61.0671 147.556 61.2228C147.267 61.3753 147.039 61.5874 146.87 61.8592C146.704 62.1277 146.621 62.4342 146.621 62.7789V67.6113H145.448Z" fill="white"/>
<path d="M19.2689 67.6113L16.4848 57.4295H17.7377L19.8655 65.7221H19.9649L22.1325 57.4295H23.5246L25.6922 65.7221H25.7916L27.9195 57.4295H29.1723L26.3882 67.6113H25.1155L22.8683 59.4977H22.7888L20.5416 67.6113H19.2689ZM32.0857 67.7903C31.6018 67.7903 31.1626 67.6992 30.7682 67.5169C30.3738 67.3313 30.0606 67.0645 29.8286 66.7164C29.5966 66.3651 29.4806 65.9409 29.4806 65.4437C29.4806 65.0062 29.5667 64.6516 29.7391 64.3798C29.9114 64.1047 30.1418 63.8893 30.4301 63.7335C30.7185 63.5777 31.0367 63.4617 31.3847 63.3855C31.736 63.3059 32.089 63.243 32.4436 63.1966C32.9076 63.1369 33.2838 63.0922 33.5722 63.0623C33.8638 63.0292 34.076 62.9745 34.2085 62.8983C34.3444 62.822 34.4124 62.6895 34.4124 62.5005V62.4608C34.4124 61.9702 34.2781 61.5891 34.0097 61.3173C33.7445 61.0455 33.3418 60.9096 32.8016 60.9096C32.2414 60.9096 31.8023 61.0323 31.4841 61.2775C31.1659 61.5228 30.9422 61.7846 30.8129 62.063L29.6993 61.6653C29.8982 61.2013 30.1633 60.84 30.4948 60.5815C30.8295 60.3197 31.1941 60.1374 31.5885 60.0346C31.9862 59.9286 32.3773 59.8755 32.7618 59.8755C33.0071 59.8755 33.2888 59.9054 33.607 59.965C33.9285 60.0214 34.2384 60.139 34.5367 60.318C34.8383 60.497 35.0885 60.7671 35.2874 61.1284C35.4862 61.4896 35.5857 61.9735 35.5857 62.5801V67.6113H34.4124V66.5772H34.3527C34.2732 66.743 34.1406 66.9203 33.955 67.1092C33.7694 67.2981 33.5225 67.4589 33.2142 67.5914C32.906 67.724 32.5298 67.7903 32.0857 67.7903ZM32.2646 66.7363C32.7287 66.7363 33.1198 66.6452 33.4379 66.4629C33.7594 66.2806 34.0014 66.0453 34.1638 65.7569C34.3295 65.4686 34.4124 65.1653 34.4124 64.8471V63.7733C34.3627 63.8329 34.2533 63.8876 34.0843 63.9373C33.9185 63.9837 33.7263 64.0252 33.5075 64.0616C33.2921 64.0948 33.0816 64.1246 32.8762 64.1511C32.674 64.1743 32.5099 64.1942 32.384 64.2108C32.079 64.2505 31.794 64.3152 31.5289 64.4047C31.267 64.4908 31.0549 64.6217 30.8925 64.7974C30.7334 64.9698 30.6539 65.2051 30.6539 65.5034C30.6539 65.911 30.8047 66.2193 31.1063 66.4281C31.4112 66.6336 31.7973 66.7363 32.2646 66.7363ZM37.7272 67.6113V59.975H38.9005V67.6113H37.7272ZM38.3238 58.7022C38.0951 58.7022 37.8979 58.6243 37.7322 58.4686C37.5698 58.3128 37.4885 58.1255 37.4885 57.9068C37.4885 57.688 37.5698 57.5008 37.7322 57.345C37.8979 57.1892 38.0951 57.1113 38.3238 57.1113C38.5525 57.1113 38.748 57.1892 38.9104 57.345C39.0761 57.5008 39.159 57.688 39.159 57.9068C39.159 58.1255 39.0761 58.3128 38.9104 58.4686C38.748 58.6243 38.5525 58.7022 38.3238 58.7022ZM44.3705 59.975V60.9693H40.4131V59.975H44.3705ZM41.5665 58.1454H42.7398V65.4238C42.7398 65.7553 42.7878 66.0038 42.884 66.1696C42.9834 66.332 43.1093 66.4413 43.2618 66.4977C43.4176 66.5507 43.5816 66.5772 43.754 66.5772C43.8833 66.5772 43.9893 66.5706 44.0722 66.5574C44.155 66.5408 44.2213 66.5275 44.271 66.5176L44.5097 67.5716C44.4301 67.6014 44.3191 67.6312 44.1766 67.661C44.0341 67.6942 43.8534 67.7108 43.6347 67.7108C43.3032 67.7108 42.9784 67.6395 42.6602 67.497C42.3454 67.3545 42.0835 67.1374 41.8747 66.8457C41.6692 66.554 41.5665 66.1861 41.5665 65.742V58.1454ZM46.1354 67.6113V59.975H47.3087V67.6113H46.1354ZM46.732 58.7022C46.5033 58.7022 46.3061 58.6243 46.1404 58.4686C45.978 58.3128 45.8968 58.1255 45.8968 57.9068C45.8968 57.688 45.978 57.5008 46.1404 57.345C46.3061 57.1892 46.5033 57.1113 46.732 57.1113C46.9607 57.1113 47.1562 57.1892 47.3186 57.345C47.4843 57.5008 47.5672 57.688 47.5672 57.9068C47.5672 58.1255 47.4843 58.3128 47.3186 58.4686C47.1562 58.6243 46.9607 58.7022 46.732 58.7022ZM50.6309 63.0176V67.6113H49.4577V59.975H50.5912V61.1681H50.6906C50.8696 60.7804 51.1414 60.4688 51.5059 60.2335C51.8705 59.9949 52.3412 59.8755 52.9179 59.8755C53.4349 59.8755 53.8873 59.9816 54.2751 60.1937C54.6629 60.4025 54.9645 60.7207 55.18 61.1483C55.3954 61.5725 55.5031 62.1094 55.5031 62.7591V67.6113H54.3298V62.8386C54.3298 62.2387 54.174 61.7714 53.8625 61.4366C53.5509 61.0985 53.1234 60.9295 52.5798 60.9295C52.2053 60.9295 51.8705 61.0107 51.5756 61.1731C51.2839 61.3355 51.0535 61.5725 50.8845 61.8841C50.7155 62.1956 50.6309 62.5734 50.6309 63.0176ZM60.7295 70.6341C60.1627 70.6341 59.6755 70.5611 59.2678 70.4153C58.8602 70.2728 58.5204 70.0839 58.2487 69.8485C57.9802 69.6165 57.7664 69.368 57.6073 69.1028L58.542 68.4466C58.6481 68.5858 58.7823 68.7449 58.9447 68.9238C59.1071 69.1061 59.3292 69.2636 59.6109 69.3961C59.8959 69.532 60.2688 69.6 60.7295 69.6C61.346 69.6 61.8547 69.4508 62.2558 69.1525C62.6568 68.8542 62.8573 68.3869 62.8573 67.7505V66.1994H62.7579C62.6717 66.3386 62.5491 66.5109 62.39 66.7164C62.2342 66.9186 62.0088 67.0993 61.7139 67.2583C61.4222 67.4141 61.0278 67.492 60.5306 67.492C59.9142 67.492 59.3606 67.3462 58.8701 67.0545C58.3829 66.7628 57.9968 66.3386 57.7117 65.7818C57.43 65.225 57.2892 64.5488 57.2892 63.7534C57.2892 62.9712 57.4267 62.2901 57.7018 61.71C57.9769 61.1267 58.3597 60.676 58.8502 60.3578C59.3408 60.0363 59.9075 59.8755 60.5505 59.8755C61.0477 59.8755 61.4421 59.9584 61.7338 60.1241C62.0287 60.2865 62.2541 60.4721 62.4099 60.6809C62.569 60.8864 62.6916 61.0555 62.7778 61.188H62.8971V59.975H64.0306V67.8301C64.0306 68.4863 63.8815 69.0199 63.5832 69.4309C63.2882 69.8452 62.8905 70.1485 62.39 70.3407C61.8928 70.5363 61.3393 70.6341 60.7295 70.6341ZM60.6897 66.438C61.1604 66.438 61.5581 66.3303 61.8829 66.1149C62.2077 65.8994 62.4546 65.5895 62.6237 65.1852C62.7927 64.7808 62.8772 64.2969 62.8772 63.7335C62.8772 63.1833 62.7944 62.6977 62.6286 62.2768C62.4629 61.8559 62.2177 61.5261 61.8928 61.2875C61.568 61.0488 61.167 60.9295 60.6897 60.9295C60.1926 60.9295 59.7783 61.0555 59.4468 61.3074C59.1187 61.5592 58.8718 61.8973 58.7061 62.3216C58.5436 62.7458 58.4624 63.2164 58.4624 63.7335C58.4624 64.2638 58.5453 64.7328 58.711 65.1404C58.8801 65.5448 59.1286 65.863 59.4568 66.095C59.7882 66.3237 60.1992 66.438 60.6897 66.438ZM73.5164 59.975V60.9693H69.3999V59.975H73.5164ZM70.6329 67.6113V58.921C70.6329 58.4835 70.7356 58.1189 70.9411 57.8272C71.1466 57.5356 71.4134 57.3168 71.7416 57.171C72.0697 57.0252 72.416 56.9522 72.7806 56.9522C73.069 56.9522 73.3043 56.9754 73.4866 57.0218C73.6689 57.0682 73.8048 57.1113 73.8943 57.1511L73.5562 58.1653C73.4965 58.1454 73.4137 58.1206 73.3076 58.0907C73.2049 58.0609 73.069 58.046 72.8999 58.046C72.5122 58.046 72.2321 58.1438 72.0597 58.3393C71.8907 58.5349 71.8062 58.8216 71.8062 59.1994V67.6113H70.6329ZM77.9486 67.7704C77.2592 67.7704 76.6543 67.6064 76.134 67.2782C75.6169 66.9501 75.2126 66.4911 74.9209 65.9011C74.6325 65.3111 74.4884 64.6217 74.4884 63.8329C74.4884 63.0375 74.6325 62.3431 74.9209 61.7498C75.2126 61.1565 75.6169 60.6958 76.134 60.3677C76.6543 60.0396 77.2592 59.8755 77.9486 59.8755C78.638 59.8755 79.2412 60.0396 79.7583 60.3677C80.2786 60.6958 80.683 61.1565 80.9713 61.7498C81.263 62.3431 81.4088 63.0375 81.4088 63.8329C81.4088 64.6217 81.263 65.3111 80.9713 65.9011C80.683 66.4911 80.2786 66.9501 79.7583 67.2782C79.2412 67.6064 78.638 67.7704 77.9486 67.7704ZM77.9486 66.7164C78.4723 66.7164 78.9031 66.5822 79.2412 66.3137C79.5793 66.0453 79.8295 65.6923 79.9919 65.2548C80.1543 64.8173 80.2355 64.3433 80.2355 63.8329C80.2355 63.3225 80.1543 62.8469 79.9919 62.4061C79.8295 61.9653 79.5793 61.609 79.2412 61.3372C78.9031 61.0654 78.4723 60.9295 77.9486 60.9295C77.4249 60.9295 76.9941 61.0654 76.656 61.3372C76.3179 61.609 76.0677 61.9653 75.9053 62.4061C75.7429 62.8469 75.6617 63.3225 75.6617 63.8329C75.6617 64.3433 75.7429 64.8173 75.9053 65.2548C76.0677 65.6923 76.3179 66.0453 76.656 66.3137C76.9941 66.5822 77.4249 66.7164 77.9486 66.7164ZM83.1998 67.6113V59.975H84.3334V61.1284H84.4129C84.5521 60.7505 84.804 60.444 85.1686 60.2086C85.5332 59.9733 85.9442 59.8556 86.4015 59.8556C86.4877 59.8556 86.5954 59.8573 86.7247 59.8606C86.854 59.8639 86.9517 59.8689 87.018 59.8755V61.0687C86.9782 61.0588 86.8871 61.0439 86.7446 61.024C86.6054 61.0008 86.4579 60.9892 86.3021 60.9892C85.9309 60.9892 85.5995 61.0671 85.3078 61.2228C85.0194 61.3753 84.7907 61.5874 84.6217 61.8592C84.456 62.1277 84.3731 62.4342 84.3731 62.7789V67.6113H83.1998ZM92.5054 57.4295H93.977L97.4372 65.8812H97.5566L101.017 57.4295H102.488V67.6113H101.335V59.8755H101.236L98.0537 67.6113H96.9401L93.7583 59.8755H93.6588V67.6113H92.5054V57.4295ZM107.049 67.7903C106.565 67.7903 106.126 67.6992 105.731 67.5169C105.337 67.3313 105.023 67.0645 104.791 66.7164C104.559 66.3651 104.443 65.9409 104.443 65.4437C104.443 65.0062 104.53 64.6516 104.702 64.3798C104.874 64.1047 105.105 63.8893 105.393 63.7335C105.681 63.5777 106 63.4617 106.348 63.3855C106.699 63.3059 107.052 63.243 107.407 63.1966C107.871 63.1369 108.247 63.0922 108.535 63.0623C108.827 63.0292 109.039 62.9745 109.171 62.8983C109.307 62.822 109.375 62.6895 109.375 62.5005V62.4608C109.375 61.9702 109.241 61.5891 108.973 61.3173C108.707 61.0455 108.305 60.9096 107.764 60.9096C107.204 60.9096 106.765 61.0323 106.447 61.2775C106.129 61.5228 105.905 61.7846 105.776 62.063L104.662 61.6653C104.861 61.2013 105.126 60.84 105.458 60.5815C105.792 60.3197 106.157 60.1374 106.551 60.0346C106.949 59.9286 107.34 59.8755 107.725 59.8755C107.97 59.8755 108.252 59.9054 108.57 59.965C108.891 60.0214 109.201 60.139 109.5 60.318C109.801 60.497 110.051 60.7671 110.25 61.1284C110.449 61.4896 110.549 61.9735 110.549 62.5801V67.6113H109.375V66.5772H109.316C109.236 66.743 109.103 66.9203 108.918 67.1092C108.732 67.2981 108.485 67.4589 108.177 67.5914C107.869 67.724 107.493 67.7903 107.049 67.7903ZM107.228 66.7363C107.692 66.7363 108.083 66.6452 108.401 66.4629C108.722 66.2806 108.964 66.0453 109.127 65.7569C109.292 65.4686 109.375 65.1653 109.375 64.8471V63.7733C109.326 63.8329 109.216 63.8876 109.047 63.9373C108.881 63.9837 108.689 64.0252 108.47 64.0616C108.255 64.0948 108.045 64.1246 107.839 64.1511C107.637 64.1743 107.473 64.1942 107.347 64.2108C107.042 64.2505 106.757 64.3152 106.492 64.4047C106.23 64.4908 106.018 64.6217 105.855 64.7974C105.696 64.9698 105.617 65.2051 105.617 65.5034C105.617 65.911 105.768 66.2193 106.069 66.4281C106.374 66.6336 106.76 66.7363 107.228 66.7363ZM113.863 63.0176V67.6113H112.69V59.975H113.824V61.1681H113.923C114.102 60.7804 114.374 60.4688 114.738 60.2335C115.103 59.9949 115.574 59.8755 116.15 59.8755C116.667 59.8755 117.12 59.9816 117.508 60.1937C117.895 60.4025 118.197 60.7207 118.412 61.1483C118.628 61.5725 118.736 62.1094 118.736 62.7591V67.6113H117.562V62.8386C117.562 62.2387 117.406 61.7714 117.095 61.4366C116.783 61.0985 116.356 60.9295 115.812 60.9295C115.438 60.9295 115.103 61.0107 114.808 61.1731C114.516 61.3355 114.286 61.5725 114.117 61.8841C113.948 62.1956 113.863 62.5734 113.863 63.0176ZM123.127 67.7903C122.643 67.7903 122.204 67.6992 121.809 67.5169C121.415 67.3313 121.102 67.0645 120.87 66.7164C120.638 66.3651 120.522 65.9409 120.522 65.4437C120.522 65.0062 120.608 64.6516 120.78 64.3798C120.952 64.1047 121.183 63.8893 121.471 63.7335C121.759 63.5777 122.078 63.4617 122.426 63.3855C122.777 63.3059 123.13 63.243 123.485 63.1966C123.949 63.1369 124.325 63.0922 124.613 63.0623C124.905 63.0292 125.117 62.9745 125.25 62.8983C125.385 62.822 125.453 62.6895 125.453 62.5005V62.4608C125.453 61.9702 125.319 61.5891 125.051 61.3173C124.786 61.0455 124.383 60.9096 123.843 60.9096C123.282 60.9096 122.843 61.0323 122.525 61.2775C122.207 61.5228 121.983 61.7846 121.854 62.063L120.74 61.6653C120.939 61.2013 121.204 60.84 121.536 60.5815C121.871 60.3197 122.235 60.1374 122.63 60.0346C123.027 59.9286 123.418 59.8755 123.803 59.8755C124.048 59.8755 124.33 59.9054 124.648 59.965C124.969 60.0214 125.279 60.139 125.578 60.318C125.879 60.497 126.13 60.7671 126.328 61.1284C126.527 61.4896 126.627 61.9735 126.627 62.5801V67.6113H125.453V66.5772H125.394C125.314 66.743 125.182 66.9203 124.996 67.1092C124.81 67.2981 124.563 67.4589 124.255 67.5914C123.947 67.724 123.571 67.7903 123.127 67.7903ZM123.306 66.7363C123.77 66.7363 124.161 66.6452 124.479 66.4629C124.8 66.2806 125.042 66.0453 125.205 65.7569C125.371 65.4686 125.453 65.1653 125.453 64.8471V63.7733C125.404 63.8329 125.294 63.8876 125.125 63.9373C124.96 63.9837 124.767 64.0252 124.549 64.0616C124.333 64.0948 124.123 64.1246 123.917 64.1511C123.715 64.1743 123.551 64.1942 123.425 64.2108C123.12 64.2505 122.835 64.3152 122.57 64.4047C122.308 64.4908 122.096 64.6217 121.934 64.7974C121.774 64.9698 121.695 65.2051 121.695 65.5034C121.695 65.911 121.846 66.2193 122.147 66.4281C122.452 66.6336 122.838 66.7363 123.306 66.7363ZM131.851 70.6341C131.284 70.6341 130.797 70.5611 130.389 70.4153C129.981 70.2728 129.642 70.0839 129.37 69.8485C129.101 69.6165 128.888 69.368 128.728 69.1028L129.663 68.4466C129.769 68.5858 129.903 68.7449 130.066 68.9238C130.228 69.1061 130.45 69.2636 130.732 69.3961C131.017 69.532 131.39 69.6 131.851 69.6C132.467 69.6 132.976 69.4508 133.377 69.1525C133.778 68.8542 133.978 68.3869 133.978 67.7505V66.1994H133.879C133.793 66.3386 133.67 66.5109 133.511 66.7164C133.355 66.9186 133.13 67.0993 132.835 67.2583C132.543 67.4141 132.149 67.492 131.652 67.492C131.035 67.492 130.482 67.3462 129.991 67.0545C129.504 66.7628 129.118 66.3386 128.833 65.7818C128.551 65.225 128.41 64.5488 128.41 63.7534C128.41 62.9712 128.548 62.2901 128.823 61.71C129.098 61.1267 129.481 60.676 129.971 60.3578C130.462 60.0363 131.029 59.8755 131.672 59.8755C132.169 59.8755 132.563 59.9584 132.855 60.1241C133.15 60.2865 133.375 60.4721 133.531 60.6809C133.69 60.8864 133.813 61.0555 133.899 61.188H134.018V59.975H135.152V67.8301C135.152 68.4863 135.003 69.0199 134.704 69.4309C134.409 69.8452 134.012 70.1485 133.511 70.3407C133.014 70.5363 132.46 70.6341 131.851 70.6341ZM131.811 66.438C132.281 66.438 132.679 66.3303 133.004 66.1149C133.329 65.8994 133.576 65.5895 133.745 65.1852C133.914 64.7808 133.998 64.2969 133.998 63.7335C133.998 63.1833 133.915 62.6977 133.75 62.2768C133.584 61.8559 133.339 61.5261 133.014 61.2875C132.689 61.0488 132.288 60.9295 131.811 60.9295C131.314 60.9295 130.899 61.0555 130.568 61.3074C130.24 61.5592 129.993 61.8973 129.827 62.3216C129.665 62.7458 129.584 63.2164 129.584 63.7335C129.584 64.2638 129.666 64.7328 129.832 65.1404C130.001 65.5448 130.25 65.863 130.578 66.095C130.909 66.3237 131.32 66.438 131.811 66.438ZM140.501 67.7704C139.765 67.7704 139.131 67.608 138.597 67.2832C138.067 66.9551 137.657 66.4977 137.369 65.911C137.084 65.3211 136.941 64.635 136.941 63.8528C136.941 63.0706 137.084 62.3812 137.369 61.7846C137.657 61.1847 138.058 60.7174 138.572 60.3826C139.089 60.0446 139.692 59.8755 140.382 59.8755C140.78 59.8755 141.172 59.9418 141.56 60.0744C141.948 60.207 142.301 60.4224 142.619 60.7207C142.937 61.0157 143.191 61.4068 143.38 61.894C143.569 62.3812 143.663 62.9811 143.663 63.6937V64.1909H137.777V63.1767H142.47C142.47 62.7458 142.384 62.3613 142.211 62.0233C142.042 61.6852 141.8 61.4184 141.486 61.2228C141.174 61.0273 140.806 60.9295 140.382 60.9295C139.915 60.9295 139.51 61.0455 139.169 61.2775C138.831 61.5062 138.571 61.8045 138.388 62.1724C138.206 62.5403 138.115 62.9347 138.115 63.3556V64.0318C138.115 64.6085 138.214 65.0974 138.413 65.4984C138.615 65.8961 138.895 66.1994 139.253 66.4082C139.611 66.6137 140.027 66.7164 140.501 66.7164C140.809 66.7164 141.088 66.6734 141.336 66.5872C141.588 66.4977 141.805 66.3651 141.988 66.1895C142.17 66.0105 142.311 65.7884 142.41 65.5233L143.544 65.8414C143.424 66.2259 143.224 66.564 142.942 66.8556C142.66 67.144 142.312 67.3694 141.898 67.5318C141.484 67.6909 141.018 67.7704 140.501 67.7704ZM145.448 67.6113V59.975H146.581V61.1284H146.661C146.8 60.7505 147.052 60.444 147.417 60.2086C147.781 59.9733 148.192 59.8556 148.65 59.8556C148.736 59.8556 148.843 59.8573 148.973 59.8606C149.102 59.8639 149.2 59.8689 149.266 59.8755V61.0687C149.226 61.0588 149.135 61.0439 148.993 61.024C148.853 61.0008 148.706 60.9892 148.55 60.9892C148.179 60.9892 147.848 61.0671 147.556 61.2228C147.267 61.3753 147.039 61.5874 146.87 61.8592C146.704 62.1277 146.621 62.4342 146.621 62.7789V67.6113H145.448Z" fill="#8A8A8A"/>
</svg>
