<svg width="1080" height="76" viewBox="0 0 1080 76" fill="none" xmlns="http://www.w3.org/2000/svg">
<path d="M0 18C0 8.05887 8.05888 0 18 0H1062C1071.94 0 1080 8.05888 1080 18V58C1080 67.9411 1071.94 76 1062 76H18C8.05886 76 0 67.9411 0 58V18Z" fill="white"/>
<circle cx="36" cy="37" r="18" fill="url(#paint0_linear_1849_747)" stroke="#D4F9F0" stroke-width="6"/>
<path d="M35.1525 42.334V32.126L35.3285 31.134H36.9445V42.334H35.1525ZM32.7205 34.414V32.734C32.9658 32.7447 33.2432 32.6753 33.5525 32.526C33.8725 32.366 34.1872 32.158 34.4965 31.902C34.8058 31.646 35.0832 31.3847 35.3285 31.118L36.4805 32.318C36.1072 32.7127 35.7178 33.0753 35.3125 33.406C34.9072 33.7367 34.4858 33.9927 34.0485 34.174C33.6218 34.3553 33.1792 34.4353 32.7205 34.414Z" fill="white"/>
<path d="M35.1525 42.334V32.126L35.3285 31.134H36.9445V42.334H35.1525ZM32.7205 34.414V32.734C32.9658 32.7447 33.2432 32.6753 33.5525 32.526C33.8725 32.366 34.1872 32.158 34.4965 31.902C34.8058 31.646 35.0832 31.3847 35.3285 31.118L36.4805 32.318C36.1072 32.7127 35.7178 33.0753 35.3125 33.406C34.9072 33.7367 34.4858 33.9927 34.0485 34.174C33.6218 34.3553 33.1792 34.4353 32.7205 34.414Z" fill="url(#paint1_linear_1849_747)"/>
<path d="M66.328 44V32.8H68.184V44H66.328ZM70.8276 44V36H72.5076L72.6196 37.472V44H70.8276ZM76.2516 44V39.904H78.0436V44H76.2516ZM76.2516 39.904C76.2516 39.264 76.177 38.7733 76.0276 38.432C75.889 38.08 75.6863 37.8347 75.4196 37.696C75.1636 37.5573 74.8596 37.488 74.5076 37.488C73.9103 37.4773 73.4463 37.6747 73.1156 38.08C72.785 38.4853 72.6196 39.0667 72.6196 39.824H71.9476C71.9476 38.9813 72.0703 38.2613 72.3156 37.664C72.561 37.056 72.913 36.5973 73.3716 36.288C73.8303 35.968 74.3743 35.808 75.0036 35.808C75.6436 35.808 76.1876 35.936 76.6356 36.192C77.0943 36.448 77.441 36.848 77.6756 37.392C77.921 37.9253 78.0436 38.624 78.0436 39.488V39.904H76.2516ZM80.2909 44V36H82.0669V44H80.2909ZM81.1869 34.48C80.8989 34.48 80.6482 34.3787 80.4349 34.176C80.2322 33.9627 80.1309 33.712 80.1309 33.424C80.1309 33.136 80.2322 32.8907 80.4349 32.688C80.6482 32.4853 80.8989 32.384 81.1869 32.384C81.4749 32.384 81.7202 32.4853 81.9229 32.688C82.1362 32.8907 82.2429 33.136 82.2429 33.424C82.2429 33.712 82.1362 33.9627 81.9229 34.176C81.7202 34.3787 81.4749 34.48 81.1869 34.48ZM87.6829 44.192C86.8402 44.192 86.1949 43.984 85.7469 43.568C85.3095 43.1413 85.0909 42.5333 85.0909 41.744V33.504H86.8669V41.408C86.8669 41.7813 86.9522 42.064 87.1229 42.256C87.3042 42.448 87.5655 42.544 87.9069 42.544C88.0135 42.544 88.1309 42.5227 88.2589 42.48C88.3869 42.4373 88.5309 42.3573 88.6909 42.24L89.3469 43.6C89.0695 43.792 88.7922 43.936 88.5149 44.032C88.2375 44.1387 87.9602 44.192 87.6829 44.192ZM83.7629 37.536V36H89.0269V37.536H83.7629ZM91.2121 44V36H92.9881V44H91.2121ZM92.1081 34.48C91.8201 34.48 91.5695 34.3787 91.3561 34.176C91.1535 33.9627 91.0521 33.712 91.0521 33.424C91.0521 33.136 91.1535 32.8907 91.3561 32.688C91.5695 32.4853 91.8201 32.384 92.1081 32.384C92.3961 32.384 92.6415 32.4853 92.8441 32.688C93.0575 32.8907 93.1641 33.136 93.1641 33.424C93.1641 33.712 93.0575 33.9627 92.8441 34.176C92.6415 34.3787 92.3961 34.48 92.1081 34.48ZM100.3 44L100.22 42.496V39.888C100.22 39.344 100.161 38.8907 100.044 38.528C99.9375 38.1547 99.7561 37.872 99.5001 37.68C99.2548 37.4773 98.9241 37.376 98.5081 37.376C98.1241 37.376 97.7881 37.456 97.5001 37.616C97.2121 37.776 96.9668 38.0267 96.7641 38.368L95.1961 37.792C95.3668 37.44 95.5908 37.1147 95.8681 36.816C96.1561 36.5067 96.5135 36.2613 96.9401 36.08C97.3775 35.8987 97.9001 35.808 98.5081 35.808C99.2868 35.808 99.9375 35.9627 100.46 36.272C100.983 36.5707 101.367 37.0027 101.612 37.568C101.868 38.1333 101.996 38.816 101.996 39.616L101.948 44H100.3ZM97.9961 44.192C97.0361 44.192 96.2895 43.9787 95.7561 43.552C95.2335 43.1253 94.9721 42.5227 94.9721 41.744C94.9721 40.912 95.2495 40.2773 95.8041 39.84C96.3695 39.4027 97.1535 39.184 98.1561 39.184H100.3V40.56H98.7321C98.0175 40.56 97.5161 40.6613 97.2281 40.864C96.9401 41.056 96.7961 41.3333 96.7961 41.696C96.7961 42.0053 96.9188 42.2507 97.1641 42.432C97.4201 42.6027 97.7721 42.688 98.2201 42.688C98.6255 42.688 98.9775 42.5973 99.2761 42.416C99.5748 42.2347 99.8041 41.9947 99.9641 41.696C100.135 41.3973 100.22 41.0613 100.22 40.688H100.748C100.748 41.776 100.529 42.6347 100.092 43.264C99.6548 43.8827 98.9561 44.192 97.9961 44.192ZM107.315 44.192C106.472 44.192 105.827 43.984 105.379 43.568C104.941 43.1413 104.723 42.5333 104.723 41.744V33.504H106.499V41.408C106.499 41.7813 106.584 42.064 106.755 42.256C106.936 42.448 107.197 42.544 107.539 42.544C107.645 42.544 107.763 42.5227 107.891 42.48C108.019 42.4373 108.163 42.3573 108.323 42.24L108.979 43.6C108.701 43.792 108.424 43.936 108.147 44.032C107.869 44.1387 107.592 44.192 107.315 44.192ZM103.395 37.536V36H108.659V37.536H103.395ZM110.844 44V36H112.62V44H110.844ZM111.74 34.48C111.452 34.48 111.201 34.3787 110.988 34.176C110.785 33.9627 110.684 33.712 110.684 33.424C110.684 33.136 110.785 32.8907 110.988 32.688C111.201 32.4853 111.452 32.384 111.74 32.384C112.028 32.384 112.273 32.4853 112.476 32.688C112.689 32.8907 112.796 33.136 112.796 33.424C112.796 33.712 112.689 33.9627 112.476 34.176C112.273 34.3787 112.028 34.48 111.74 34.48ZM118.732 44.192C117.932 44.192 117.217 44.016 116.588 43.664C115.969 43.3013 115.484 42.8053 115.132 42.176C114.78 41.5467 114.604 40.8213 114.604 40C114.604 39.1787 114.775 38.4533 115.116 37.824C115.468 37.1947 115.953 36.704 116.572 36.352C117.191 35.9893 117.9 35.808 118.7 35.808C119.5 35.808 120.209 35.9893 120.828 36.352C121.447 36.704 121.927 37.1947 122.268 37.824C122.62 38.4533 122.796 39.1787 122.796 40C122.796 40.8213 122.625 41.5467 122.284 42.176C121.943 42.8053 121.463 43.3013 120.844 43.664C120.225 44.016 119.521 44.192 118.732 44.192ZM118.732 42.544C119.169 42.544 119.559 42.4373 119.9 42.224C120.241 42 120.508 41.7013 120.7 41.328C120.892 40.944 120.988 40.5013 120.988 40C120.988 39.4987 120.887 39.0613 120.684 38.688C120.492 38.304 120.225 38.0053 119.884 37.792C119.543 37.568 119.148 37.456 118.7 37.456C118.252 37.456 117.857 37.5627 117.516 37.776C117.175 37.9893 116.908 38.288 116.716 38.672C116.524 39.056 116.428 39.4987 116.428 40C116.428 40.5013 116.524 40.944 116.716 41.328C116.919 41.7013 117.191 42 117.532 42.224C117.884 42.4373 118.284 42.544 118.732 42.544ZM124.669 44V36H126.349L126.461 37.472V44H124.669ZM130.093 44V39.904H131.885V44H130.093ZM130.093 39.904C130.093 39.264 130.018 38.7733 129.869 38.432C129.73 38.08 129.528 37.8347 129.261 37.696C129.005 37.5573 128.701 37.488 128.349 37.488C127.752 37.4773 127.288 37.6747 126.957 38.08C126.626 38.4853 126.461 39.0667 126.461 39.824H125.789C125.789 38.9813 125.912 38.2613 126.157 37.664C126.402 37.056 126.754 36.5973 127.213 36.288C127.672 35.968 128.216 35.808 128.845 35.808C129.485 35.808 130.029 35.936 130.477 36.192C130.936 36.448 131.282 36.848 131.517 37.392C131.762 37.9253 131.885 38.624 131.885 39.488V39.904H130.093Z" fill="white"/>
<path d="M66.328 44V32.8H68.184V44H66.328ZM70.8276 44V36H72.5076L72.6196 37.472V44H70.8276ZM76.2516 44V39.904H78.0436V44H76.2516ZM76.2516 39.904C76.2516 39.264 76.177 38.7733 76.0276 38.432C75.889 38.08 75.6863 37.8347 75.4196 37.696C75.1636 37.5573 74.8596 37.488 74.5076 37.488C73.9103 37.4773 73.4463 37.6747 73.1156 38.08C72.785 38.4853 72.6196 39.0667 72.6196 39.824H71.9476C71.9476 38.9813 72.0703 38.2613 72.3156 37.664C72.561 37.056 72.913 36.5973 73.3716 36.288C73.8303 35.968 74.3743 35.808 75.0036 35.808C75.6436 35.808 76.1876 35.936 76.6356 36.192C77.0943 36.448 77.441 36.848 77.6756 37.392C77.921 37.9253 78.0436 38.624 78.0436 39.488V39.904H76.2516ZM80.2909 44V36H82.0669V44H80.2909ZM81.1869 34.48C80.8989 34.48 80.6482 34.3787 80.4349 34.176C80.2322 33.9627 80.1309 33.712 80.1309 33.424C80.1309 33.136 80.2322 32.8907 80.4349 32.688C80.6482 32.4853 80.8989 32.384 81.1869 32.384C81.4749 32.384 81.7202 32.4853 81.9229 32.688C82.1362 32.8907 82.2429 33.136 82.2429 33.424C82.2429 33.712 82.1362 33.9627 81.9229 34.176C81.7202 34.3787 81.4749 34.48 81.1869 34.48ZM87.6829 44.192C86.8402 44.192 86.1949 43.984 85.7469 43.568C85.3095 43.1413 85.0909 42.5333 85.0909 41.744V33.504H86.8669V41.408C86.8669 41.7813 86.9522 42.064 87.1229 42.256C87.3042 42.448 87.5655 42.544 87.9069 42.544C88.0135 42.544 88.1309 42.5227 88.2589 42.48C88.3869 42.4373 88.5309 42.3573 88.6909 42.24L89.3469 43.6C89.0695 43.792 88.7922 43.936 88.5149 44.032C88.2375 44.1387 87.9602 44.192 87.6829 44.192ZM83.7629 37.536V36H89.0269V37.536H83.7629ZM91.2121 44V36H92.9881V44H91.2121ZM92.1081 34.48C91.8201 34.48 91.5695 34.3787 91.3561 34.176C91.1535 33.9627 91.0521 33.712 91.0521 33.424C91.0521 33.136 91.1535 32.8907 91.3561 32.688C91.5695 32.4853 91.8201 32.384 92.1081 32.384C92.3961 32.384 92.6415 32.4853 92.8441 32.688C93.0575 32.8907 93.1641 33.136 93.1641 33.424C93.1641 33.712 93.0575 33.9627 92.8441 34.176C92.6415 34.3787 92.3961 34.48 92.1081 34.48ZM100.3 44L100.22 42.496V39.888C100.22 39.344 100.161 38.8907 100.044 38.528C99.9375 38.1547 99.7561 37.872 99.5001 37.68C99.2548 37.4773 98.9241 37.376 98.5081 37.376C98.1241 37.376 97.7881 37.456 97.5001 37.616C97.2121 37.776 96.9668 38.0267 96.7641 38.368L95.1961 37.792C95.3668 37.44 95.5908 37.1147 95.8681 36.816C96.1561 36.5067 96.5135 36.2613 96.9401 36.08C97.3775 35.8987 97.9001 35.808 98.5081 35.808C99.2868 35.808 99.9375 35.9627 100.46 36.272C100.983 36.5707 101.367 37.0027 101.612 37.568C101.868 38.1333 101.996 38.816 101.996 39.616L101.948 44H100.3ZM97.9961 44.192C97.0361 44.192 96.2895 43.9787 95.7561 43.552C95.2335 43.1253 94.9721 42.5227 94.9721 41.744C94.9721 40.912 95.2495 40.2773 95.8041 39.84C96.3695 39.4027 97.1535 39.184 98.1561 39.184H100.3V40.56H98.7321C98.0175 40.56 97.5161 40.6613 97.2281 40.864C96.9401 41.056 96.7961 41.3333 96.7961 41.696C96.7961 42.0053 96.9188 42.2507 97.1641 42.432C97.4201 42.6027 97.7721 42.688 98.2201 42.688C98.6255 42.688 98.9775 42.5973 99.2761 42.416C99.5748 42.2347 99.8041 41.9947 99.9641 41.696C100.135 41.3973 100.22 41.0613 100.22 40.688H100.748C100.748 41.776 100.529 42.6347 100.092 43.264C99.6548 43.8827 98.9561 44.192 97.9961 44.192ZM107.315 44.192C106.472 44.192 105.827 43.984 105.379 43.568C104.941 43.1413 104.723 42.5333 104.723 41.744V33.504H106.499V41.408C106.499 41.7813 106.584 42.064 106.755 42.256C106.936 42.448 107.197 42.544 107.539 42.544C107.645 42.544 107.763 42.5227 107.891 42.48C108.019 42.4373 108.163 42.3573 108.323 42.24L108.979 43.6C108.701 43.792 108.424 43.936 108.147 44.032C107.869 44.1387 107.592 44.192 107.315 44.192ZM103.395 37.536V36H108.659V37.536H103.395ZM110.844 44V36H112.62V44H110.844ZM111.74 34.48C111.452 34.48 111.201 34.3787 110.988 34.176C110.785 33.9627 110.684 33.712 110.684 33.424C110.684 33.136 110.785 32.8907 110.988 32.688C111.201 32.4853 111.452 32.384 111.74 32.384C112.028 32.384 112.273 32.4853 112.476 32.688C112.689 32.8907 112.796 33.136 112.796 33.424C112.796 33.712 112.689 33.9627 112.476 34.176C112.273 34.3787 112.028 34.48 111.74 34.48ZM118.732 44.192C117.932 44.192 117.217 44.016 116.588 43.664C115.969 43.3013 115.484 42.8053 115.132 42.176C114.78 41.5467 114.604 40.8213 114.604 40C114.604 39.1787 114.775 38.4533 115.116 37.824C115.468 37.1947 115.953 36.704 116.572 36.352C117.191 35.9893 117.9 35.808 118.7 35.808C119.5 35.808 120.209 35.9893 120.828 36.352C121.447 36.704 121.927 37.1947 122.268 37.824C122.62 38.4533 122.796 39.1787 122.796 40C122.796 40.8213 122.625 41.5467 122.284 42.176C121.943 42.8053 121.463 43.3013 120.844 43.664C120.225 44.016 119.521 44.192 118.732 44.192ZM118.732 42.544C119.169 42.544 119.559 42.4373 119.9 42.224C120.241 42 120.508 41.7013 120.7 41.328C120.892 40.944 120.988 40.5013 120.988 40C120.988 39.4987 120.887 39.0613 120.684 38.688C120.492 38.304 120.225 38.0053 119.884 37.792C119.543 37.568 119.148 37.456 118.7 37.456C118.252 37.456 117.857 37.5627 117.516 37.776C117.175 37.9893 116.908 38.288 116.716 38.672C116.524 39.056 116.428 39.4987 116.428 40C116.428 40.5013 116.524 40.944 116.716 41.328C116.919 41.7013 117.191 42 117.532 42.224C117.884 42.4373 118.284 42.544 118.732 42.544ZM124.669 44V36H126.349L126.461 37.472V44H124.669ZM130.093 44V39.904H131.885V44H130.093ZM130.093 39.904C130.093 39.264 130.018 38.7733 129.869 38.432C129.73 38.08 129.528 37.8347 129.261 37.696C129.005 37.5573 128.701 37.488 128.349 37.488C127.752 37.4773 127.288 37.6747 126.957 38.08C126.626 38.4853 126.461 39.0667 126.461 39.824H125.789C125.789 38.9813 125.912 38.2613 126.157 37.664C126.402 37.056 126.754 36.5973 127.213 36.288C127.672 35.968 128.216 35.808 128.845 35.808C129.485 35.808 130.029 35.936 130.477 36.192C130.936 36.448 131.282 36.848 131.517 37.392C131.762 37.9253 131.885 38.624 131.885 39.488V39.904H130.093Z" fill="#3D3D4F"/>
<g opacity="0.32">
<line x1="147" y1="37.5" x2="219.25" y2="37.5" stroke="white"/>
<line x1="147" y1="37.5" x2="219.25" y2="37.5" stroke="#8A8A8A"/>
</g>
<circle cx="248" cy="37" r="18" fill="url(#paint2_linear_1849_747)" stroke="#D4F9F0" stroke-width="6"/>
<path d="M243.784 42.334V40.91C243.784 40.5793 243.869 40.238 244.04 39.886C244.21 39.5233 244.45 39.1607 244.76 38.798C245.08 38.4353 245.453 38.094 245.88 37.774L247.832 36.366C248.077 36.1953 248.301 35.998 248.504 35.774C248.717 35.55 248.888 35.3153 249.016 35.07C249.144 34.814 249.208 34.5633 249.208 34.318C249.208 34.0087 249.128 33.726 248.968 33.47C248.818 33.214 248.6 33.0113 248.312 32.862C248.034 32.7127 247.693 32.638 247.288 32.638C246.925 32.638 246.6 32.7127 246.312 32.862C246.034 33.0007 245.805 33.1873 245.624 33.422C245.442 33.6567 245.314 33.9127 245.24 34.19L243.336 33.838C243.442 33.326 243.666 32.8513 244.008 32.414C244.36 31.966 244.808 31.6087 245.352 31.342C245.906 31.0753 246.536 30.942 247.24 30.942C248.029 30.942 248.712 31.086 249.288 31.374C249.874 31.662 250.322 32.062 250.632 32.574C250.952 33.0753 251.112 33.6513 251.112 34.302C251.112 34.9633 250.93 35.5607 250.568 36.094C250.216 36.6167 249.72 37.118 249.08 37.598L247.288 38.926C246.936 39.182 246.648 39.4593 246.424 39.758C246.2 40.046 246.045 40.3553 245.96 40.686H251.256V42.334H243.784Z" fill="white"/>
<path d="M243.784 42.334V40.91C243.784 40.5793 243.869 40.238 244.04 39.886C244.21 39.5233 244.45 39.1607 244.76 38.798C245.08 38.4353 245.453 38.094 245.88 37.774L247.832 36.366C248.077 36.1953 248.301 35.998 248.504 35.774C248.717 35.55 248.888 35.3153 249.016 35.07C249.144 34.814 249.208 34.5633 249.208 34.318C249.208 34.0087 249.128 33.726 248.968 33.47C248.818 33.214 248.6 33.0113 248.312 32.862C248.034 32.7127 247.693 32.638 247.288 32.638C246.925 32.638 246.6 32.7127 246.312 32.862C246.034 33.0007 245.805 33.1873 245.624 33.422C245.442 33.6567 245.314 33.9127 245.24 34.19L243.336 33.838C243.442 33.326 243.666 32.8513 244.008 32.414C244.36 31.966 244.808 31.6087 245.352 31.342C245.906 31.0753 246.536 30.942 247.24 30.942C248.029 30.942 248.712 31.086 249.288 31.374C249.874 31.662 250.322 32.062 250.632 32.574C250.952 33.0753 251.112 33.6513 251.112 34.302C251.112 34.9633 250.93 35.5607 250.568 36.094C250.216 36.6167 249.72 37.118 249.08 37.598L247.288 38.926C246.936 39.182 246.648 39.4593 246.424 39.758C246.2 40.046 246.045 40.3553 245.96 40.686H251.256V42.334H243.784Z" fill="url(#paint3_linear_1849_747)"/>
<path d="M278.578 44V32.8H285.474V34.496H280.434V37.472H284.882V39.136H280.434V42.304H285.522V44H278.578ZM290.575 44L293.695 36H295.552L292.255 44H290.575ZM290.447 44L287.135 36H288.975L292.111 44H290.447ZM301.653 44L301.573 42.496V39.888C301.573 39.344 301.514 38.8907 301.397 38.528C301.29 38.1547 301.109 37.872 300.853 37.68C300.607 37.4773 300.277 37.376 299.861 37.376C299.477 37.376 299.141 37.456 298.853 37.616C298.565 37.776 298.319 38.0267 298.117 38.368L296.549 37.792C296.719 37.44 296.943 37.1147 297.221 36.816C297.509 36.5067 297.866 36.2613 298.293 36.08C298.73 35.8987 299.253 35.808 299.861 35.808C300.639 35.808 301.29 35.9627 301.813 36.272C302.335 36.5707 302.719 37.0027 302.965 37.568C303.221 38.1333 303.349 38.816 303.349 39.616L303.301 44H301.653ZM299.349 44.192C298.389 44.192 297.642 43.9787 297.109 43.552C296.586 43.1253 296.325 42.5227 296.325 41.744C296.325 40.912 296.602 40.2773 297.157 39.84C297.722 39.4027 298.506 39.184 299.509 39.184H301.653V40.56H300.085C299.37 40.56 298.869 40.6613 298.581 40.864C298.293 41.056 298.149 41.3333 298.149 41.696C298.149 42.0053 298.271 42.2507 298.517 42.432C298.773 42.6027 299.125 42.688 299.573 42.688C299.978 42.688 300.33 42.5973 300.629 42.416C300.927 42.2347 301.157 41.9947 301.317 41.696C301.487 41.3973 301.573 41.0613 301.573 40.688H302.101C302.101 41.776 301.882 42.6347 301.445 43.264C301.007 43.8827 300.309 44.192 299.349 44.192ZM305.483 44V32.8H307.275V44H305.483ZM314.945 44L314.849 42.528V36H316.625V44H314.945ZM309.409 40.096V36H311.201V40.096H309.409ZM311.201 40.096C311.201 40.7253 311.275 41.216 311.425 41.568C311.574 41.92 311.777 42.1653 312.033 42.304C312.299 42.4427 312.603 42.512 312.945 42.512C313.553 42.5227 314.022 42.3253 314.353 41.92C314.683 41.5147 314.849 40.9333 314.849 40.176H315.521C315.521 41.0187 315.393 41.744 315.137 42.352C314.891 42.9493 314.539 43.408 314.081 43.728C313.633 44.0373 313.089 44.192 312.449 44.192C311.819 44.192 311.275 44.064 310.817 43.808C310.369 43.552 310.022 43.152 309.777 42.608C309.531 42.064 309.409 41.3653 309.409 40.512V40.096H311.201ZM323.816 44L323.736 42.496V39.888C323.736 39.344 323.677 38.8907 323.56 38.528C323.453 38.1547 323.272 37.872 323.016 37.68C322.77 37.4773 322.44 37.376 322.024 37.376C321.64 37.376 321.304 37.456 321.016 37.616C320.728 37.776 320.482 38.0267 320.28 38.368L318.712 37.792C318.882 37.44 319.106 37.1147 319.384 36.816C319.672 36.5067 320.029 36.2613 320.456 36.08C320.893 35.8987 321.416 35.808 322.024 35.808C322.802 35.808 323.453 35.9627 323.976 36.272C324.498 36.5707 324.882 37.0027 325.128 37.568C325.384 38.1333 325.512 38.816 325.512 39.616L325.464 44H323.816ZM321.512 44.192C320.552 44.192 319.805 43.9787 319.272 43.552C318.749 43.1253 318.488 42.5227 318.488 41.744C318.488 40.912 318.765 40.2773 319.32 39.84C319.885 39.4027 320.669 39.184 321.672 39.184H323.816V40.56H322.248C321.533 40.56 321.032 40.6613 320.744 40.864C320.456 41.056 320.312 41.3333 320.312 41.696C320.312 42.0053 320.434 42.2507 320.68 42.432C320.936 42.6027 321.288 42.688 321.736 42.688C322.141 42.688 322.493 42.5973 322.792 42.416C323.09 42.2347 323.32 41.9947 323.48 41.696C323.65 41.3973 323.736 41.0613 323.736 40.688H324.264C324.264 41.776 324.045 42.6347 323.608 43.264C323.17 43.8827 322.472 44.192 321.512 44.192ZM330.83 44.192C329.988 44.192 329.342 43.984 328.894 43.568C328.457 43.1413 328.238 42.5333 328.238 41.744V33.504H330.014V41.408C330.014 41.7813 330.1 42.064 330.27 42.256C330.452 42.448 330.713 42.544 331.054 42.544C331.161 42.544 331.278 42.5227 331.406 42.48C331.534 42.4373 331.678 42.3573 331.838 42.24L332.494 43.6C332.217 43.792 331.94 43.936 331.662 44.032C331.385 44.1387 331.108 44.192 330.83 44.192ZM326.91 37.536V36H332.174V37.536H326.91ZM334.36 44V36H336.136V44H334.36ZM335.256 34.48C334.968 34.48 334.717 34.3787 334.504 34.176C334.301 33.9627 334.2 33.712 334.2 33.424C334.2 33.136 334.301 32.8907 334.504 32.688C334.717 32.4853 334.968 32.384 335.256 32.384C335.544 32.384 335.789 32.4853 335.992 32.688C336.205 32.8907 336.312 33.136 336.312 33.424C336.312 33.712 336.205 33.9627 335.992 34.176C335.789 34.3787 335.544 34.48 335.256 34.48ZM342.248 44.192C341.448 44.192 340.733 44.016 340.104 43.664C339.485 43.3013 339 42.8053 338.648 42.176C338.296 41.5467 338.12 40.8213 338.12 40C338.12 39.1787 338.29 38.4533 338.632 37.824C338.984 37.1947 339.469 36.704 340.088 36.352C340.706 35.9893 341.416 35.808 342.216 35.808C343.016 35.808 343.725 35.9893 344.344 36.352C344.962 36.704 345.442 37.1947 345.784 37.824C346.136 38.4533 346.312 39.1787 346.312 40C346.312 40.8213 346.141 41.5467 345.8 42.176C345.458 42.8053 344.978 43.3013 344.36 43.664C343.741 44.016 343.037 44.192 342.248 44.192ZM342.248 42.544C342.685 42.544 343.074 42.4373 343.416 42.224C343.757 42 344.024 41.7013 344.216 41.328C344.408 40.944 344.504 40.5013 344.504 40C344.504 39.4987 344.402 39.0613 344.2 38.688C344.008 38.304 343.741 38.0053 343.4 37.792C343.058 37.568 342.664 37.456 342.216 37.456C341.768 37.456 341.373 37.5627 341.032 37.776C340.69 37.9893 340.424 38.288 340.232 38.672C340.04 39.056 339.944 39.4987 339.944 40C339.944 40.5013 340.04 40.944 340.232 41.328C340.434 41.7013 340.706 42 341.048 42.224C341.4 42.4373 341.8 42.544 342.248 42.544ZM348.184 44V36H349.864L349.976 37.472V44H348.184ZM353.608 44V39.904H355.4V44H353.608ZM353.608 39.904C353.608 39.264 353.534 38.7733 353.384 38.432C353.246 38.08 353.043 37.8347 352.776 37.696C352.52 37.5573 352.216 37.488 351.864 37.488C351.267 37.4773 350.803 37.6747 350.472 38.08C350.142 38.4853 349.976 39.0667 349.976 39.824H349.304C349.304 38.9813 349.427 38.2613 349.672 37.664C349.918 37.056 350.27 36.5973 350.728 36.288C351.187 35.968 351.731 35.808 352.36 35.808C353 35.808 353.544 35.936 353.992 36.192C354.451 36.448 354.798 36.848 355.032 37.392C355.278 37.9253 355.4 38.624 355.4 39.488V39.904H353.608Z" fill="white"/>
<path d="M278.578 44V32.8H285.474V34.496H280.434V37.472H284.882V39.136H280.434V42.304H285.522V44H278.578ZM290.575 44L293.695 36H295.552L292.255 44H290.575ZM290.447 44L287.135 36H288.975L292.111 44H290.447ZM301.653 44L301.573 42.496V39.888C301.573 39.344 301.514 38.8907 301.397 38.528C301.29 38.1547 301.109 37.872 300.853 37.68C300.607 37.4773 300.277 37.376 299.861 37.376C299.477 37.376 299.141 37.456 298.853 37.616C298.565 37.776 298.319 38.0267 298.117 38.368L296.549 37.792C296.719 37.44 296.943 37.1147 297.221 36.816C297.509 36.5067 297.866 36.2613 298.293 36.08C298.73 35.8987 299.253 35.808 299.861 35.808C300.639 35.808 301.29 35.9627 301.813 36.272C302.335 36.5707 302.719 37.0027 302.965 37.568C303.221 38.1333 303.349 38.816 303.349 39.616L303.301 44H301.653ZM299.349 44.192C298.389 44.192 297.642 43.9787 297.109 43.552C296.586 43.1253 296.325 42.5227 296.325 41.744C296.325 40.912 296.602 40.2773 297.157 39.84C297.722 39.4027 298.506 39.184 299.509 39.184H301.653V40.56H300.085C299.37 40.56 298.869 40.6613 298.581 40.864C298.293 41.056 298.149 41.3333 298.149 41.696C298.149 42.0053 298.271 42.2507 298.517 42.432C298.773 42.6027 299.125 42.688 299.573 42.688C299.978 42.688 300.33 42.5973 300.629 42.416C300.927 42.2347 301.157 41.9947 301.317 41.696C301.487 41.3973 301.573 41.0613 301.573 40.688H302.101C302.101 41.776 301.882 42.6347 301.445 43.264C301.007 43.8827 300.309 44.192 299.349 44.192ZM305.483 44V32.8H307.275V44H305.483ZM314.945 44L314.849 42.528V36H316.625V44H314.945ZM309.409 40.096V36H311.201V40.096H309.409ZM311.201 40.096C311.201 40.7253 311.275 41.216 311.425 41.568C311.574 41.92 311.777 42.1653 312.033 42.304C312.299 42.4427 312.603 42.512 312.945 42.512C313.553 42.5227 314.022 42.3253 314.353 41.92C314.683 41.5147 314.849 40.9333 314.849 40.176H315.521C315.521 41.0187 315.393 41.744 315.137 42.352C314.891 42.9493 314.539 43.408 314.081 43.728C313.633 44.0373 313.089 44.192 312.449 44.192C311.819 44.192 311.275 44.064 310.817 43.808C310.369 43.552 310.022 43.152 309.777 42.608C309.531 42.064 309.409 41.3653 309.409 40.512V40.096H311.201ZM323.816 44L323.736 42.496V39.888C323.736 39.344 323.677 38.8907 323.56 38.528C323.453 38.1547 323.272 37.872 323.016 37.68C322.77 37.4773 322.44 37.376 322.024 37.376C321.64 37.376 321.304 37.456 321.016 37.616C320.728 37.776 320.482 38.0267 320.28 38.368L318.712 37.792C318.882 37.44 319.106 37.1147 319.384 36.816C319.672 36.5067 320.029 36.2613 320.456 36.08C320.893 35.8987 321.416 35.808 322.024 35.808C322.802 35.808 323.453 35.9627 323.976 36.272C324.498 36.5707 324.882 37.0027 325.128 37.568C325.384 38.1333 325.512 38.816 325.512 39.616L325.464 44H323.816ZM321.512 44.192C320.552 44.192 319.805 43.9787 319.272 43.552C318.749 43.1253 318.488 42.5227 318.488 41.744C318.488 40.912 318.765 40.2773 319.32 39.84C319.885 39.4027 320.669 39.184 321.672 39.184H323.816V40.56H322.248C321.533 40.56 321.032 40.6613 320.744 40.864C320.456 41.056 320.312 41.3333 320.312 41.696C320.312 42.0053 320.434 42.2507 320.68 42.432C320.936 42.6027 321.288 42.688 321.736 42.688C322.141 42.688 322.493 42.5973 322.792 42.416C323.09 42.2347 323.32 41.9947 323.48 41.696C323.65 41.3973 323.736 41.0613 323.736 40.688H324.264C324.264 41.776 324.045 42.6347 323.608 43.264C323.17 43.8827 322.472 44.192 321.512 44.192ZM330.83 44.192C329.988 44.192 329.342 43.984 328.894 43.568C328.457 43.1413 328.238 42.5333 328.238 41.744V33.504H330.014V41.408C330.014 41.7813 330.1 42.064 330.27 42.256C330.452 42.448 330.713 42.544 331.054 42.544C331.161 42.544 331.278 42.5227 331.406 42.48C331.534 42.4373 331.678 42.3573 331.838 42.24L332.494 43.6C332.217 43.792 331.94 43.936 331.662 44.032C331.385 44.1387 331.108 44.192 330.83 44.192ZM326.91 37.536V36H332.174V37.536H326.91ZM334.36 44V36H336.136V44H334.36ZM335.256 34.48C334.968 34.48 334.717 34.3787 334.504 34.176C334.301 33.9627 334.2 33.712 334.2 33.424C334.2 33.136 334.301 32.8907 334.504 32.688C334.717 32.4853 334.968 32.384 335.256 32.384C335.544 32.384 335.789 32.4853 335.992 32.688C336.205 32.8907 336.312 33.136 336.312 33.424C336.312 33.712 336.205 33.9627 335.992 34.176C335.789 34.3787 335.544 34.48 335.256 34.48ZM342.248 44.192C341.448 44.192 340.733 44.016 340.104 43.664C339.485 43.3013 339 42.8053 338.648 42.176C338.296 41.5467 338.12 40.8213 338.12 40C338.12 39.1787 338.29 38.4533 338.632 37.824C338.984 37.1947 339.469 36.704 340.088 36.352C340.706 35.9893 341.416 35.808 342.216 35.808C343.016 35.808 343.725 35.9893 344.344 36.352C344.962 36.704 345.442 37.1947 345.784 37.824C346.136 38.4533 346.312 39.1787 346.312 40C346.312 40.8213 346.141 41.5467 345.8 42.176C345.458 42.8053 344.978 43.3013 344.36 43.664C343.741 44.016 343.037 44.192 342.248 44.192ZM342.248 42.544C342.685 42.544 343.074 42.4373 343.416 42.224C343.757 42 344.024 41.7013 344.216 41.328C344.408 40.944 344.504 40.5013 344.504 40C344.504 39.4987 344.402 39.0613 344.2 38.688C344.008 38.304 343.741 38.0053 343.4 37.792C343.058 37.568 342.664 37.456 342.216 37.456C341.768 37.456 341.373 37.5627 341.032 37.776C340.69 37.9893 340.424 38.288 340.232 38.672C340.04 39.056 339.944 39.4987 339.944 40C339.944 40.5013 340.04 40.944 340.232 41.328C340.434 41.7013 340.706 42 341.048 42.224C341.4 42.4373 341.8 42.544 342.248 42.544ZM348.184 44V36H349.864L349.976 37.472V44H348.184ZM353.608 44V39.904H355.4V44H353.608ZM353.608 39.904C353.608 39.264 353.534 38.7733 353.384 38.432C353.246 38.08 353.043 37.8347 352.776 37.696C352.52 37.5573 352.216 37.488 351.864 37.488C351.267 37.4773 350.803 37.6747 350.472 38.08C350.142 38.4853 349.976 39.0667 349.976 39.824H349.304C349.304 38.9813 349.427 38.2613 349.672 37.664C349.918 37.056 350.27 36.5973 350.728 36.288C351.187 35.968 351.731 35.808 352.36 35.808C353 35.808 353.544 35.936 353.992 36.192C354.451 36.448 354.798 36.848 355.032 37.392C355.278 37.9253 355.4 38.624 355.4 39.488V39.904H353.608Z" fill="#3D3D4F"/>
<g opacity="0.32">
<line x1="370.25" y1="37.5" x2="442.5" y2="37.5" stroke="white"/>
<line x1="370.25" y1="37.5" x2="442.5" y2="37.5" stroke="#8A8A8A"/>
</g>
<circle cx="472" cy="38" r="18" fill="url(#paint4_linear_1849_747)" stroke="#D4F9F0" stroke-width="6"/>
<path d="M471.75 43.526C471.142 43.526 470.587 43.4353 470.086 43.254C469.584 43.0727 469.163 42.8167 468.822 42.486C468.48 42.1553 468.235 41.782 468.086 41.366L469.75 40.742C469.835 40.8913 469.952 41.0567 470.102 41.238C470.251 41.4193 470.448 41.5793 470.694 41.718C470.939 41.846 471.254 41.91 471.638 41.91C472.246 41.91 472.726 41.7393 473.078 41.398C473.44 41.046 473.622 40.6033 473.622 40.07C473.622 39.686 473.52 39.3553 473.318 39.078C473.126 38.8007 472.822 38.5873 472.406 38.438C472 38.2887 471.488 38.214 470.87 38.214H470.358V36.902H470.822C471.472 36.902 472.075 36.9767 472.63 37.126C473.195 37.2753 473.691 37.4993 474.118 37.798C474.555 38.086 474.891 38.438 475.126 38.854C475.371 39.27 475.494 39.7393 475.494 40.262C475.494 40.934 475.318 41.5153 474.966 42.006C474.624 42.4967 474.171 42.8753 473.606 43.142C473.04 43.398 472.422 43.526 471.75 43.526ZM470.358 37.926V36.678H470.87C471.691 36.678 472.315 36.5393 472.742 36.262C473.168 35.9847 473.382 35.5953 473.382 35.094C473.382 34.806 473.307 34.55 473.158 34.326C473.019 34.0913 472.816 33.9047 472.55 33.766C472.283 33.6273 471.968 33.558 471.606 33.558C471.371 33.558 471.142 33.5953 470.918 33.67C470.694 33.7447 470.486 33.862 470.294 34.022C470.102 34.182 469.942 34.39 469.814 34.646L468.198 34.054C468.358 33.606 468.614 33.2273 468.966 32.918C469.318 32.598 469.728 32.358 470.198 32.198C470.667 32.0273 471.158 31.942 471.67 31.942C472.352 31.942 472.96 32.07 473.494 32.326C474.038 32.582 474.464 32.9393 474.774 33.398C475.094 33.846 475.254 34.3633 475.254 34.95C475.254 35.4407 475.131 35.8727 474.886 36.246C474.651 36.6193 474.326 36.934 473.91 37.19C473.494 37.4353 473.019 37.622 472.486 37.75C471.963 37.8673 471.403 37.926 470.806 37.926H470.358Z" fill="white"/>
<path d="M471.75 43.526C471.142 43.526 470.587 43.4353 470.086 43.254C469.584 43.0727 469.163 42.8167 468.822 42.486C468.48 42.1553 468.235 41.782 468.086 41.366L469.75 40.742C469.835 40.8913 469.952 41.0567 470.102 41.238C470.251 41.4193 470.448 41.5793 470.694 41.718C470.939 41.846 471.254 41.91 471.638 41.91C472.246 41.91 472.726 41.7393 473.078 41.398C473.44 41.046 473.622 40.6033 473.622 40.07C473.622 39.686 473.52 39.3553 473.318 39.078C473.126 38.8007 472.822 38.5873 472.406 38.438C472 38.2887 471.488 38.214 470.87 38.214H470.358V36.902H470.822C471.472 36.902 472.075 36.9767 472.63 37.126C473.195 37.2753 473.691 37.4993 474.118 37.798C474.555 38.086 474.891 38.438 475.126 38.854C475.371 39.27 475.494 39.7393 475.494 40.262C475.494 40.934 475.318 41.5153 474.966 42.006C474.624 42.4967 474.171 42.8753 473.606 43.142C473.04 43.398 472.422 43.526 471.75 43.526ZM470.358 37.926V36.678H470.87C471.691 36.678 472.315 36.5393 472.742 36.262C473.168 35.9847 473.382 35.5953 473.382 35.094C473.382 34.806 473.307 34.55 473.158 34.326C473.019 34.0913 472.816 33.9047 472.55 33.766C472.283 33.6273 471.968 33.558 471.606 33.558C471.371 33.558 471.142 33.5953 470.918 33.67C470.694 33.7447 470.486 33.862 470.294 34.022C470.102 34.182 469.942 34.39 469.814 34.646L468.198 34.054C468.358 33.606 468.614 33.2273 468.966 32.918C469.318 32.598 469.728 32.358 470.198 32.198C470.667 32.0273 471.158 31.942 471.67 31.942C472.352 31.942 472.96 32.07 473.494 32.326C474.038 32.582 474.464 32.9393 474.774 33.398C475.094 33.846 475.254 34.3633 475.254 34.95C475.254 35.4407 475.131 35.8727 474.886 36.246C474.651 36.6193 474.326 36.934 473.91 37.19C473.494 37.4353 473.019 37.622 472.486 37.75C471.963 37.8673 471.403 37.926 470.806 37.926H470.358Z" fill="url(#paint5_linear_1849_747)"/>
<path d="M501.828 44V32.8H505.348C506.447 32.8 507.417 33.04 508.26 33.52C509.113 33.9893 509.78 34.6453 510.26 35.488C510.751 36.3307 510.996 37.3013 510.996 38.4C510.996 39.488 510.751 40.4533 510.26 41.296C509.78 42.1387 509.113 42.8 508.26 43.28C507.417 43.76 506.447 44 505.348 44H501.828ZM503.684 42.272H505.348C505.871 42.272 506.361 42.176 506.82 41.984C507.279 41.7813 507.679 41.504 508.02 41.152C508.361 40.8 508.628 40.3893 508.82 39.92C509.012 39.4507 509.108 38.944 509.108 38.4C509.108 37.856 509.012 37.3493 508.82 36.88C508.628 36.4107 508.361 36 508.02 35.648C507.679 35.296 507.279 35.024 506.82 34.832C506.361 34.6293 505.871 34.528 505.348 34.528H503.684V42.272ZM516.617 44.192C515.817 44.192 515.102 44.016 514.473 43.664C513.854 43.3013 513.369 42.8053 513.017 42.176C512.665 41.5467 512.489 40.8213 512.489 40C512.489 39.1787 512.66 38.4533 513.001 37.824C513.353 37.1947 513.838 36.704 514.457 36.352C515.076 35.9893 515.785 35.808 516.585 35.808C517.385 35.808 518.094 35.9893 518.713 36.352C519.332 36.704 519.812 37.1947 520.153 37.824C520.505 38.4533 520.681 39.1787 520.681 40C520.681 40.8213 520.51 41.5467 520.169 42.176C519.828 42.8053 519.348 43.3013 518.729 43.664C518.11 44.016 517.406 44.192 516.617 44.192ZM516.617 42.544C517.054 42.544 517.444 42.4373 517.785 42.224C518.126 42 518.393 41.7013 518.585 41.328C518.777 40.944 518.873 40.5013 518.873 40C518.873 39.4987 518.772 39.0613 518.569 38.688C518.377 38.304 518.11 38.0053 517.769 37.792C517.428 37.568 517.033 37.456 516.585 37.456C516.137 37.456 515.742 37.5627 515.401 37.776C515.06 37.9893 514.793 38.288 514.601 38.672C514.409 39.056 514.313 39.4987 514.313 40C514.313 40.5013 514.409 40.944 514.601 41.328C514.804 41.7013 515.076 42 515.417 42.224C515.769 42.4373 516.169 42.544 516.617 42.544ZM526.298 44.192C525.477 44.192 524.751 44.016 524.122 43.664C523.493 43.3013 522.997 42.8053 522.634 42.176C522.282 41.5467 522.106 40.8213 522.106 40C522.106 39.1787 522.282 38.4533 522.634 37.824C522.997 37.1947 523.487 36.704 524.106 36.352C524.735 35.9893 525.455 35.808 526.266 35.808C527.055 35.808 527.77 36 528.41 36.384C529.05 36.7573 529.525 37.296 529.834 38L528.17 38.64C527.999 38.288 527.738 38.0053 527.386 37.792C527.034 37.5787 526.634 37.472 526.186 37.472C525.749 37.472 525.359 37.584 525.018 37.808C524.677 38.0213 524.41 38.32 524.218 38.704C524.026 39.0773 523.93 39.5093 523.93 40C523.93 40.4907 524.026 40.928 524.218 41.312C524.421 41.6853 524.693 41.984 525.034 42.208C525.386 42.4213 525.781 42.528 526.218 42.528C526.666 42.528 527.066 42.416 527.418 42.192C527.77 41.9573 528.031 41.6427 528.202 41.248L529.866 41.888C529.557 42.6133 529.082 43.1787 528.442 43.584C527.813 43.9893 527.098 44.192 526.298 44.192ZM536.937 44L536.841 42.528V36H538.617V44H536.937ZM531.401 40.096V36H533.193V40.096H531.401ZM533.193 40.096C533.193 40.7253 533.268 41.216 533.417 41.568C533.566 41.92 533.769 42.1653 534.025 42.304C534.292 42.4427 534.596 42.512 534.937 42.512C535.545 42.5227 536.014 42.3253 536.345 41.92C536.676 41.5147 536.841 40.9333 536.841 40.176H537.513C537.513 41.0187 537.385 41.744 537.129 42.352C536.884 42.9493 536.532 43.408 536.073 43.728C535.625 44.0373 535.081 44.192 534.441 44.192C533.812 44.192 533.268 44.064 532.809 43.808C532.361 43.552 532.014 43.152 531.769 42.608C531.524 42.064 531.401 41.3653 531.401 40.512V40.096H533.193ZM540.928 44V36H542.608L542.688 37.072C542.934 36.656 543.248 36.3413 543.632 36.128C544.016 35.9147 544.454 35.808 544.944 35.808C545.584 35.808 546.128 35.952 546.576 36.24C547.024 36.528 547.35 36.9653 547.552 37.552C547.787 36.9867 548.118 36.5547 548.544 36.256C548.971 35.9573 549.472 35.808 550.048 35.808C550.976 35.808 551.691 36.1067 552.192 36.704C552.694 37.2907 552.939 38.1973 552.928 39.424V44H551.152V39.904C551.152 39.264 551.083 38.7733 550.944 38.432C550.806 38.08 550.619 37.8347 550.384 37.696C550.15 37.5573 549.878 37.488 549.568 37.488C549.014 37.4773 548.582 37.6747 548.272 38.08C547.974 38.4853 547.824 39.0667 547.824 39.824V44H546.032V39.904C546.032 39.264 545.963 38.7733 545.824 38.432C545.696 38.08 545.515 37.8347 545.28 37.696C545.046 37.5573 544.774 37.488 544.464 37.488C543.91 37.4773 543.478 37.6747 543.168 38.08C542.87 38.4853 542.72 39.0667 542.72 39.824V44H540.928ZM558.644 44.192C557.866 44.192 557.172 44.016 556.564 43.664C555.967 43.3013 555.492 42.8053 555.14 42.176C554.799 41.5467 554.628 40.8213 554.628 40C554.628 39.1787 554.804 38.4533 555.156 37.824C555.508 37.1947 555.988 36.704 556.596 36.352C557.215 35.9893 557.919 35.808 558.708 35.808C559.423 35.808 560.068 35.9947 560.644 36.368C561.22 36.7307 561.674 37.2587 562.004 37.952C562.346 38.6453 562.516 39.472 562.516 40.432H556.228L556.468 40.208C556.468 40.6987 556.575 41.1253 556.788 41.488C557.002 41.84 557.284 42.112 557.636 42.304C557.988 42.496 558.378 42.592 558.804 42.592C559.295 42.592 559.7 42.4853 560.02 42.272C560.34 42.048 560.591 41.76 560.772 41.408L562.356 42.08C562.132 42.5067 561.844 42.88 561.492 43.2C561.151 43.52 560.74 43.7653 560.26 43.936C559.791 44.1067 559.252 44.192 558.644 44.192ZM556.58 39.28L556.324 39.056H560.836L560.596 39.28C560.596 38.8427 560.5 38.4853 560.308 38.208C560.116 37.92 559.871 37.7067 559.572 37.568C559.284 37.4187 558.98 37.344 558.66 37.344C558.34 37.344 558.02 37.4187 557.7 37.568C557.38 37.7067 557.114 37.92 556.9 38.208C556.687 38.4853 556.58 38.8427 556.58 39.28ZM564.209 44V36H565.889L566.001 37.472V44H564.209ZM569.633 44V39.904H571.425V44H569.633ZM569.633 39.904C569.633 39.264 569.558 38.7733 569.409 38.432C569.27 38.08 569.068 37.8347 568.801 37.696C568.545 37.5573 568.241 37.488 567.889 37.488C567.292 37.4773 566.828 37.6747 566.497 38.08C566.166 38.4853 566.001 39.0667 566.001 39.824H565.329C565.329 38.9813 565.452 38.2613 565.697 37.664C565.942 37.056 566.294 36.5973 566.753 36.288C567.212 35.968 567.756 35.808 568.385 35.808C569.025 35.808 569.569 35.936 570.017 36.192C570.476 36.448 570.822 36.848 571.057 37.392C571.302 37.9253 571.425 38.624 571.425 39.488V39.904H569.633ZM576.744 44.192C575.901 44.192 575.256 43.984 574.808 43.568C574.371 43.1413 574.152 42.5333 574.152 41.744V33.504H575.928V41.408C575.928 41.7813 576.013 42.064 576.184 42.256C576.365 42.448 576.627 42.544 576.968 42.544C577.075 42.544 577.192 42.5227 577.32 42.48C577.448 42.4373 577.592 42.3573 577.752 42.24L578.408 43.6C578.131 43.792 577.853 43.936 577.576 44.032C577.299 44.1387 577.021 44.192 576.744 44.192ZM572.824 37.536V36H578.088V37.536H572.824ZM584.932 44L584.852 42.496V39.888C584.852 39.344 584.793 38.8907 584.676 38.528C584.569 38.1547 584.388 37.872 584.132 37.68C583.887 37.4773 583.556 37.376 583.14 37.376C582.756 37.376 582.42 37.456 582.132 37.616C581.844 37.776 581.599 38.0267 581.396 38.368L579.828 37.792C579.999 37.44 580.223 37.1147 580.5 36.816C580.788 36.5067 581.145 36.2613 581.572 36.08C582.009 35.8987 582.532 35.808 583.14 35.808C583.919 35.808 584.569 35.9627 585.092 36.272C585.615 36.5707 585.999 37.0027 586.244 37.568C586.5 38.1333 586.628 38.816 586.628 39.616L586.58 44H584.932ZM582.628 44.192C581.668 44.192 580.921 43.9787 580.388 43.552C579.865 43.1253 579.604 42.5227 579.604 41.744C579.604 40.912 579.881 40.2773 580.436 39.84C581.001 39.4027 581.785 39.184 582.788 39.184H584.932V40.56H583.364C582.649 40.56 582.148 40.6613 581.86 40.864C581.572 41.056 581.428 41.3333 581.428 41.696C581.428 42.0053 581.551 42.2507 581.796 42.432C582.052 42.6027 582.404 42.688 582.852 42.688C583.257 42.688 583.609 42.5973 583.908 42.416C584.207 42.2347 584.436 41.9947 584.596 41.696C584.767 41.3973 584.852 41.0613 584.852 40.688H585.38C585.38 41.776 585.161 42.6347 584.724 43.264C584.287 43.8827 583.588 44.192 582.628 44.192ZM591.947 44.192C591.104 44.192 590.459 43.984 590.011 43.568C589.573 43.1413 589.355 42.5333 589.355 41.744V33.504H591.131V41.408C591.131 41.7813 591.216 42.064 591.387 42.256C591.568 42.448 591.829 42.544 592.171 42.544C592.277 42.544 592.395 42.5227 592.523 42.48C592.651 42.4373 592.795 42.3573 592.955 42.24L593.611 43.6C593.333 43.792 593.056 43.936 592.779 44.032C592.501 44.1387 592.224 44.192 591.947 44.192ZM588.027 37.536V36H593.291V37.536H588.027ZM595.476 44V36H597.252V44H595.476ZM596.372 34.48C596.084 34.48 595.833 34.3787 595.62 34.176C595.417 33.9627 595.316 33.712 595.316 33.424C595.316 33.136 595.417 32.8907 595.62 32.688C595.833 32.4853 596.084 32.384 596.372 32.384C596.66 32.384 596.905 32.4853 597.108 32.688C597.321 32.8907 597.428 33.136 597.428 33.424C597.428 33.712 597.321 33.9627 597.108 34.176C596.905 34.3787 596.66 34.48 596.372 34.48ZM603.364 44.192C602.564 44.192 601.849 44.016 601.22 43.664C600.601 43.3013 600.116 42.8053 599.764 42.176C599.412 41.5467 599.236 40.8213 599.236 40C599.236 39.1787 599.407 38.4533 599.748 37.824C600.1 37.1947 600.585 36.704 601.204 36.352C601.823 35.9893 602.532 35.808 603.332 35.808C604.132 35.808 604.841 35.9893 605.46 36.352C606.079 36.704 606.559 37.1947 606.9 37.824C607.252 38.4533 607.428 39.1787 607.428 40C607.428 40.8213 607.257 41.5467 606.916 42.176C606.575 42.8053 606.095 43.3013 605.476 43.664C604.857 44.016 604.153 44.192 603.364 44.192ZM603.364 42.544C603.801 42.544 604.191 42.4373 604.532 42.224C604.873 42 605.14 41.7013 605.332 41.328C605.524 40.944 605.62 40.5013 605.62 40C605.62 39.4987 605.519 39.0613 605.316 38.688C605.124 38.304 604.857 38.0053 604.516 37.792C604.175 37.568 603.78 37.456 603.332 37.456C602.884 37.456 602.489 37.5627 602.148 37.776C601.807 37.9893 601.54 38.288 601.348 38.672C601.156 39.056 601.06 39.4987 601.06 40C601.06 40.5013 601.156 40.944 601.348 41.328C601.551 41.7013 601.823 42 602.164 42.224C602.516 42.4373 602.916 42.544 603.364 42.544ZM609.301 44V36H610.981L611.093 37.472V44H609.301ZM614.725 44V39.904H616.517V44H614.725ZM614.725 39.904C614.725 39.264 614.65 38.7733 614.501 38.432C614.362 38.08 614.159 37.8347 613.893 37.696C613.637 37.5573 613.333 37.488 612.981 37.488C612.383 37.4773 611.919 37.6747 611.589 38.08C611.258 38.4853 611.093 39.0667 611.093 39.824H610.421C610.421 38.9813 610.543 38.2613 610.789 37.664C611.034 37.056 611.386 36.5973 611.845 36.288C612.303 35.968 612.847 35.808 613.477 35.808C614.117 35.808 614.661 35.936 615.109 36.192C615.567 36.448 615.914 36.848 616.149 37.392C616.394 37.9253 616.517 38.624 616.517 39.488V39.904H614.725Z" fill="white"/>
<path d="M501.828 44V32.8H505.348C506.447 32.8 507.417 33.04 508.26 33.52C509.113 33.9893 509.78 34.6453 510.26 35.488C510.751 36.3307 510.996 37.3013 510.996 38.4C510.996 39.488 510.751 40.4533 510.26 41.296C509.78 42.1387 509.113 42.8 508.26 43.28C507.417 43.76 506.447 44 505.348 44H501.828ZM503.684 42.272H505.348C505.871 42.272 506.361 42.176 506.82 41.984C507.279 41.7813 507.679 41.504 508.02 41.152C508.361 40.8 508.628 40.3893 508.82 39.92C509.012 39.4507 509.108 38.944 509.108 38.4C509.108 37.856 509.012 37.3493 508.82 36.88C508.628 36.4107 508.361 36 508.02 35.648C507.679 35.296 507.279 35.024 506.82 34.832C506.361 34.6293 505.871 34.528 505.348 34.528H503.684V42.272ZM516.617 44.192C515.817 44.192 515.102 44.016 514.473 43.664C513.854 43.3013 513.369 42.8053 513.017 42.176C512.665 41.5467 512.489 40.8213 512.489 40C512.489 39.1787 512.66 38.4533 513.001 37.824C513.353 37.1947 513.838 36.704 514.457 36.352C515.076 35.9893 515.785 35.808 516.585 35.808C517.385 35.808 518.094 35.9893 518.713 36.352C519.332 36.704 519.812 37.1947 520.153 37.824C520.505 38.4533 520.681 39.1787 520.681 40C520.681 40.8213 520.51 41.5467 520.169 42.176C519.828 42.8053 519.348 43.3013 518.729 43.664C518.11 44.016 517.406 44.192 516.617 44.192ZM516.617 42.544C517.054 42.544 517.444 42.4373 517.785 42.224C518.126 42 518.393 41.7013 518.585 41.328C518.777 40.944 518.873 40.5013 518.873 40C518.873 39.4987 518.772 39.0613 518.569 38.688C518.377 38.304 518.11 38.0053 517.769 37.792C517.428 37.568 517.033 37.456 516.585 37.456C516.137 37.456 515.742 37.5627 515.401 37.776C515.06 37.9893 514.793 38.288 514.601 38.672C514.409 39.056 514.313 39.4987 514.313 40C514.313 40.5013 514.409 40.944 514.601 41.328C514.804 41.7013 515.076 42 515.417 42.224C515.769 42.4373 516.169 42.544 516.617 42.544ZM526.298 44.192C525.477 44.192 524.751 44.016 524.122 43.664C523.493 43.3013 522.997 42.8053 522.634 42.176C522.282 41.5467 522.106 40.8213 522.106 40C522.106 39.1787 522.282 38.4533 522.634 37.824C522.997 37.1947 523.487 36.704 524.106 36.352C524.735 35.9893 525.455 35.808 526.266 35.808C527.055 35.808 527.77 36 528.41 36.384C529.05 36.7573 529.525 37.296 529.834 38L528.17 38.64C527.999 38.288 527.738 38.0053 527.386 37.792C527.034 37.5787 526.634 37.472 526.186 37.472C525.749 37.472 525.359 37.584 525.018 37.808C524.677 38.0213 524.41 38.32 524.218 38.704C524.026 39.0773 523.93 39.5093 523.93 40C523.93 40.4907 524.026 40.928 524.218 41.312C524.421 41.6853 524.693 41.984 525.034 42.208C525.386 42.4213 525.781 42.528 526.218 42.528C526.666 42.528 527.066 42.416 527.418 42.192C527.77 41.9573 528.031 41.6427 528.202 41.248L529.866 41.888C529.557 42.6133 529.082 43.1787 528.442 43.584C527.813 43.9893 527.098 44.192 526.298 44.192ZM536.937 44L536.841 42.528V36H538.617V44H536.937ZM531.401 40.096V36H533.193V40.096H531.401ZM533.193 40.096C533.193 40.7253 533.268 41.216 533.417 41.568C533.566 41.92 533.769 42.1653 534.025 42.304C534.292 42.4427 534.596 42.512 534.937 42.512C535.545 42.5227 536.014 42.3253 536.345 41.92C536.676 41.5147 536.841 40.9333 536.841 40.176H537.513C537.513 41.0187 537.385 41.744 537.129 42.352C536.884 42.9493 536.532 43.408 536.073 43.728C535.625 44.0373 535.081 44.192 534.441 44.192C533.812 44.192 533.268 44.064 532.809 43.808C532.361 43.552 532.014 43.152 531.769 42.608C531.524 42.064 531.401 41.3653 531.401 40.512V40.096H533.193ZM540.928 44V36H542.608L542.688 37.072C542.934 36.656 543.248 36.3413 543.632 36.128C544.016 35.9147 544.454 35.808 544.944 35.808C545.584 35.808 546.128 35.952 546.576 36.24C547.024 36.528 547.35 36.9653 547.552 37.552C547.787 36.9867 548.118 36.5547 548.544 36.256C548.971 35.9573 549.472 35.808 550.048 35.808C550.976 35.808 551.691 36.1067 552.192 36.704C552.694 37.2907 552.939 38.1973 552.928 39.424V44H551.152V39.904C551.152 39.264 551.083 38.7733 550.944 38.432C550.806 38.08 550.619 37.8347 550.384 37.696C550.15 37.5573 549.878 37.488 549.568 37.488C549.014 37.4773 548.582 37.6747 548.272 38.08C547.974 38.4853 547.824 39.0667 547.824 39.824V44H546.032V39.904C546.032 39.264 545.963 38.7733 545.824 38.432C545.696 38.08 545.515 37.8347 545.28 37.696C545.046 37.5573 544.774 37.488 544.464 37.488C543.91 37.4773 543.478 37.6747 543.168 38.08C542.87 38.4853 542.72 39.0667 542.72 39.824V44H540.928ZM558.644 44.192C557.866 44.192 557.172 44.016 556.564 43.664C555.967 43.3013 555.492 42.8053 555.14 42.176C554.799 41.5467 554.628 40.8213 554.628 40C554.628 39.1787 554.804 38.4533 555.156 37.824C555.508 37.1947 555.988 36.704 556.596 36.352C557.215 35.9893 557.919 35.808 558.708 35.808C559.423 35.808 560.068 35.9947 560.644 36.368C561.22 36.7307 561.674 37.2587 562.004 37.952C562.346 38.6453 562.516 39.472 562.516 40.432H556.228L556.468 40.208C556.468 40.6987 556.575 41.1253 556.788 41.488C557.002 41.84 557.284 42.112 557.636 42.304C557.988 42.496 558.378 42.592 558.804 42.592C559.295 42.592 559.7 42.4853 560.02 42.272C560.34 42.048 560.591 41.76 560.772 41.408L562.356 42.08C562.132 42.5067 561.844 42.88 561.492 43.2C561.151 43.52 560.74 43.7653 560.26 43.936C559.791 44.1067 559.252 44.192 558.644 44.192ZM556.58 39.28L556.324 39.056H560.836L560.596 39.28C560.596 38.8427 560.5 38.4853 560.308 38.208C560.116 37.92 559.871 37.7067 559.572 37.568C559.284 37.4187 558.98 37.344 558.66 37.344C558.34 37.344 558.02 37.4187 557.7 37.568C557.38 37.7067 557.114 37.92 556.9 38.208C556.687 38.4853 556.58 38.8427 556.58 39.28ZM564.209 44V36H565.889L566.001 37.472V44H564.209ZM569.633 44V39.904H571.425V44H569.633ZM569.633 39.904C569.633 39.264 569.558 38.7733 569.409 38.432C569.27 38.08 569.068 37.8347 568.801 37.696C568.545 37.5573 568.241 37.488 567.889 37.488C567.292 37.4773 566.828 37.6747 566.497 38.08C566.166 38.4853 566.001 39.0667 566.001 39.824H565.329C565.329 38.9813 565.452 38.2613 565.697 37.664C565.942 37.056 566.294 36.5973 566.753 36.288C567.212 35.968 567.756 35.808 568.385 35.808C569.025 35.808 569.569 35.936 570.017 36.192C570.476 36.448 570.822 36.848 571.057 37.392C571.302 37.9253 571.425 38.624 571.425 39.488V39.904H569.633ZM576.744 44.192C575.901 44.192 575.256 43.984 574.808 43.568C574.371 43.1413 574.152 42.5333 574.152 41.744V33.504H575.928V41.408C575.928 41.7813 576.013 42.064 576.184 42.256C576.365 42.448 576.627 42.544 576.968 42.544C577.075 42.544 577.192 42.5227 577.32 42.48C577.448 42.4373 577.592 42.3573 577.752 42.24L578.408 43.6C578.131 43.792 577.853 43.936 577.576 44.032C577.299 44.1387 577.021 44.192 576.744 44.192ZM572.824 37.536V36H578.088V37.536H572.824ZM584.932 44L584.852 42.496V39.888C584.852 39.344 584.793 38.8907 584.676 38.528C584.569 38.1547 584.388 37.872 584.132 37.68C583.887 37.4773 583.556 37.376 583.14 37.376C582.756 37.376 582.42 37.456 582.132 37.616C581.844 37.776 581.599 38.0267 581.396 38.368L579.828 37.792C579.999 37.44 580.223 37.1147 580.5 36.816C580.788 36.5067 581.145 36.2613 581.572 36.08C582.009 35.8987 582.532 35.808 583.14 35.808C583.919 35.808 584.569 35.9627 585.092 36.272C585.615 36.5707 585.999 37.0027 586.244 37.568C586.5 38.1333 586.628 38.816 586.628 39.616L586.58 44H584.932ZM582.628 44.192C581.668 44.192 580.921 43.9787 580.388 43.552C579.865 43.1253 579.604 42.5227 579.604 41.744C579.604 40.912 579.881 40.2773 580.436 39.84C581.001 39.4027 581.785 39.184 582.788 39.184H584.932V40.56H583.364C582.649 40.56 582.148 40.6613 581.86 40.864C581.572 41.056 581.428 41.3333 581.428 41.696C581.428 42.0053 581.551 42.2507 581.796 42.432C582.052 42.6027 582.404 42.688 582.852 42.688C583.257 42.688 583.609 42.5973 583.908 42.416C584.207 42.2347 584.436 41.9947 584.596 41.696C584.767 41.3973 584.852 41.0613 584.852 40.688H585.38C585.38 41.776 585.161 42.6347 584.724 43.264C584.287 43.8827 583.588 44.192 582.628 44.192ZM591.947 44.192C591.104 44.192 590.459 43.984 590.011 43.568C589.573 43.1413 589.355 42.5333 589.355 41.744V33.504H591.131V41.408C591.131 41.7813 591.216 42.064 591.387 42.256C591.568 42.448 591.829 42.544 592.171 42.544C592.277 42.544 592.395 42.5227 592.523 42.48C592.651 42.4373 592.795 42.3573 592.955 42.24L593.611 43.6C593.333 43.792 593.056 43.936 592.779 44.032C592.501 44.1387 592.224 44.192 591.947 44.192ZM588.027 37.536V36H593.291V37.536H588.027ZM595.476 44V36H597.252V44H595.476ZM596.372 34.48C596.084 34.48 595.833 34.3787 595.62 34.176C595.417 33.9627 595.316 33.712 595.316 33.424C595.316 33.136 595.417 32.8907 595.62 32.688C595.833 32.4853 596.084 32.384 596.372 32.384C596.66 32.384 596.905 32.4853 597.108 32.688C597.321 32.8907 597.428 33.136 597.428 33.424C597.428 33.712 597.321 33.9627 597.108 34.176C596.905 34.3787 596.66 34.48 596.372 34.48ZM603.364 44.192C602.564 44.192 601.849 44.016 601.22 43.664C600.601 43.3013 600.116 42.8053 599.764 42.176C599.412 41.5467 599.236 40.8213 599.236 40C599.236 39.1787 599.407 38.4533 599.748 37.824C600.1 37.1947 600.585 36.704 601.204 36.352C601.823 35.9893 602.532 35.808 603.332 35.808C604.132 35.808 604.841 35.9893 605.46 36.352C606.079 36.704 606.559 37.1947 606.9 37.824C607.252 38.4533 607.428 39.1787 607.428 40C607.428 40.8213 607.257 41.5467 606.916 42.176C606.575 42.8053 606.095 43.3013 605.476 43.664C604.857 44.016 604.153 44.192 603.364 44.192ZM603.364 42.544C603.801 42.544 604.191 42.4373 604.532 42.224C604.873 42 605.14 41.7013 605.332 41.328C605.524 40.944 605.62 40.5013 605.62 40C605.62 39.4987 605.519 39.0613 605.316 38.688C605.124 38.304 604.857 38.0053 604.516 37.792C604.175 37.568 603.78 37.456 603.332 37.456C602.884 37.456 602.489 37.5627 602.148 37.776C601.807 37.9893 601.54 38.288 601.348 38.672C601.156 39.056 601.06 39.4987 601.06 40C601.06 40.5013 601.156 40.944 601.348 41.328C601.551 41.7013 601.823 42 602.164 42.224C602.516 42.4373 602.916 42.544 603.364 42.544ZM609.301 44V36H610.981L611.093 37.472V44H609.301ZM614.725 44V39.904H616.517V44H614.725ZM614.725 39.904C614.725 39.264 614.65 38.7733 614.501 38.432C614.362 38.08 614.159 37.8347 613.893 37.696C613.637 37.5573 613.333 37.488 612.981 37.488C612.383 37.4773 611.919 37.6747 611.589 38.08C611.258 38.4853 611.093 39.0667 611.093 39.824H610.421C610.421 38.9813 610.543 38.2613 610.789 37.664C611.034 37.056 611.386 36.5973 611.845 36.288C612.303 35.968 612.847 35.808 613.477 35.808C614.117 35.808 614.661 35.936 615.109 36.192C615.567 36.448 615.914 36.848 616.149 37.392C616.394 37.9253 616.517 38.624 616.517 39.488V39.904H614.725Z" fill="#3D3D4F"/>
<g opacity="0.32">
<line x1="631.5" y1="37.5" x2="703.75" y2="37.5" stroke="white"/>
<line x1="631.5" y1="37.5" x2="703.75" y2="37.5" stroke="#8A8A8A"/>
</g>
<circle cx="733" cy="38" r="18" fill="url(#paint6_linear_1849_747)" stroke="#D4F9F0" stroke-width="6"/>
<path d="M733.679 43.334V40.934H728.495V39.462L733.503 32.134H735.455V39.318H737.535V40.934H735.455V43.334H733.679ZM730.463 39.318H733.679V34.598L730.463 39.318Z" fill="white"/>
<path d="M733.679 43.334V40.934H728.495V39.462L733.503 32.134H735.455V39.318H737.535V40.934H735.455V43.334H733.679ZM730.463 39.318H733.679V34.598L730.463 39.318Z" fill="url(#paint7_linear_1849_747)"/>
<path d="M770.838 44L766.47 32.8H768.326L772.806 44H770.838ZM761.894 44L766.358 32.8H768.23L763.862 44H761.894ZM763.99 41.248V39.6H770.694V41.248H763.99ZM777.161 44.192C776.628 44.192 776.137 44.112 775.689 43.952C775.241 43.792 774.857 43.568 774.537 43.28C774.217 42.9813 773.972 42.6347 773.801 42.24L775.353 41.552C775.513 41.8507 775.748 42.1013 776.057 42.304C776.377 42.5067 776.729 42.608 777.113 42.608C777.529 42.608 777.86 42.5387 778.105 42.4C778.361 42.2507 778.49 42.048 778.49 41.792C778.49 41.5467 778.394 41.36 778.201 41.232C778.009 41.0933 777.737 40.9813 777.385 40.896L776.633 40.688C775.876 40.496 775.284 40.192 774.857 39.776C774.431 39.3493 774.217 38.864 774.217 38.32C774.217 37.52 774.473 36.9013 774.985 36.464C775.508 36.0267 776.255 35.808 777.225 35.808C777.716 35.808 778.164 35.8827 778.569 36.032C778.986 36.1707 779.343 36.3733 779.641 36.64C779.94 36.896 780.148 37.2 780.266 37.552L778.778 38.224C778.671 37.9573 778.468 37.7547 778.169 37.616C777.871 37.4667 777.54 37.392 777.177 37.392C776.815 37.392 776.532 37.472 776.329 37.632C776.127 37.7813 776.025 37.9947 776.025 38.272C776.025 38.432 776.116 38.5813 776.297 38.72C776.479 38.848 776.74 38.9547 777.081 39.04L778.025 39.264C778.548 39.392 778.975 39.5947 779.306 39.872C779.636 40.1387 779.881 40.4427 780.042 40.784C780.201 41.1147 780.281 41.4507 780.281 41.792C780.281 42.272 780.143 42.6933 779.865 43.056C779.599 43.4187 779.231 43.7013 778.761 43.904C778.292 44.096 777.759 44.192 777.161 44.192ZM784.919 44.192C784.386 44.192 783.895 44.112 783.447 43.952C782.999 43.792 782.615 43.568 782.295 43.28C781.975 42.9813 781.73 42.6347 781.559 42.24L783.111 41.552C783.271 41.8507 783.506 42.1013 783.815 42.304C784.135 42.5067 784.487 42.608 784.871 42.608C785.287 42.608 785.618 42.5387 785.863 42.4C786.119 42.2507 786.247 42.048 786.247 41.792C786.247 41.5467 786.151 41.36 785.959 41.232C785.767 41.0933 785.495 40.9813 785.143 40.896L784.391 40.688C783.634 40.496 783.042 40.192 782.615 39.776C782.188 39.3493 781.975 38.864 781.975 38.32C781.975 37.52 782.231 36.9013 782.743 36.464C783.266 36.0267 784.012 35.808 784.983 35.808C785.474 35.808 785.922 35.8827 786.327 36.032C786.743 36.1707 787.1 36.3733 787.399 36.64C787.698 36.896 787.906 37.2 788.023 37.552L786.535 38.224C786.428 37.9573 786.226 37.7547 785.927 37.616C785.628 37.4667 785.298 37.392 784.935 37.392C784.572 37.392 784.29 37.472 784.087 37.632C783.884 37.7813 783.783 37.9947 783.783 38.272C783.783 38.432 783.874 38.5813 784.055 38.72C784.236 38.848 784.498 38.9547 784.839 39.04L785.783 39.264C786.306 39.392 786.732 39.5947 787.063 39.872C787.394 40.1387 787.639 40.4427 787.799 40.784C787.959 41.1147 788.039 41.4507 788.039 41.792C788.039 42.272 787.9 42.6933 787.623 43.056C787.356 43.4187 786.988 43.7013 786.519 43.904C786.05 44.096 785.516 44.192 784.919 44.192ZM793.348 44.192C792.569 44.192 791.876 44.016 791.268 43.664C790.671 43.3013 790.196 42.8053 789.844 42.176C789.503 41.5467 789.332 40.8213 789.332 40C789.332 39.1787 789.508 38.4533 789.86 37.824C790.212 37.1947 790.692 36.704 791.3 36.352C791.919 35.9893 792.623 35.808 793.412 35.808C794.127 35.808 794.772 35.9947 795.348 36.368C795.924 36.7307 796.377 37.2587 796.708 37.952C797.049 38.6453 797.22 39.472 797.22 40.432H790.932L791.172 40.208C791.172 40.6987 791.279 41.1253 791.492 41.488C791.705 41.84 791.988 42.112 792.34 42.304C792.692 42.496 793.081 42.592 793.508 42.592C793.999 42.592 794.404 42.4853 794.724 42.272C795.044 42.048 795.295 41.76 795.476 41.408L797.06 42.08C796.836 42.5067 796.548 42.88 796.196 43.2C795.855 43.52 795.444 43.7653 794.964 43.936C794.495 44.1067 793.956 44.192 793.348 44.192ZM791.284 39.28L791.028 39.056H795.54L795.3 39.28C795.3 38.8427 795.204 38.4853 795.012 38.208C794.82 37.92 794.575 37.7067 794.276 37.568C793.988 37.4187 793.684 37.344 793.364 37.344C793.044 37.344 792.724 37.4187 792.404 37.568C792.084 37.7067 791.817 37.92 791.604 38.208C791.391 38.4853 791.284 38.8427 791.284 39.28ZM801.825 44.192C801.291 44.192 800.801 44.112 800.353 43.952C799.905 43.792 799.521 43.568 799.201 43.28C798.881 42.9813 798.635 42.6347 798.465 42.24L800.017 41.552C800.177 41.8507 800.411 42.1013 800.721 42.304C801.041 42.5067 801.393 42.608 801.777 42.608C802.193 42.608 802.523 42.5387 802.769 42.4C803.025 42.2507 803.153 42.048 803.153 41.792C803.153 41.5467 803.057 41.36 802.865 41.232C802.673 41.0933 802.401 40.9813 802.049 40.896L801.297 40.688C800.539 40.496 799.947 40.192 799.521 39.776C799.094 39.3493 798.881 38.864 798.881 38.32C798.881 37.52 799.137 36.9013 799.649 36.464C800.171 36.0267 800.918 35.808 801.889 35.808C802.379 35.808 802.827 35.8827 803.233 36.032C803.649 36.1707 804.006 36.3733 804.305 36.64C804.603 36.896 804.811 37.2 804.929 37.552L803.441 38.224C803.334 37.9573 803.131 37.7547 802.833 37.616C802.534 37.4667 802.203 37.392 801.841 37.392C801.478 37.392 801.195 37.472 800.993 37.632C800.79 37.7813 800.689 37.9947 800.689 38.272C800.689 38.432 800.779 38.5813 800.961 38.72C801.142 38.848 801.403 38.9547 801.745 39.04L802.689 39.264C803.211 39.392 803.638 39.5947 803.969 39.872C804.299 40.1387 804.545 40.4427 804.705 40.784C804.865 41.1147 804.945 41.4507 804.945 41.792C804.945 42.272 804.806 42.6933 804.529 43.056C804.262 43.4187 803.894 43.7013 803.425 43.904C802.955 44.096 802.422 44.192 801.825 44.192ZM809.582 44.192C809.049 44.192 808.558 44.112 808.11 43.952C807.662 43.792 807.278 43.568 806.958 43.28C806.638 42.9813 806.393 42.6347 806.222 42.24L807.774 41.552C807.934 41.8507 808.169 42.1013 808.478 42.304C808.798 42.5067 809.15 42.608 809.534 42.608C809.95 42.608 810.281 42.5387 810.526 42.4C810.782 42.2507 810.91 42.048 810.91 41.792C810.91 41.5467 810.814 41.36 810.622 41.232C810.43 41.0933 810.158 40.9813 809.806 40.896L809.054 40.688C808.297 40.496 807.705 40.192 807.278 39.776C806.851 39.3493 806.638 38.864 806.638 38.32C806.638 37.52 806.894 36.9013 807.406 36.464C807.929 36.0267 808.675 35.808 809.646 35.808C810.137 35.808 810.585 35.8827 810.99 36.032C811.406 36.1707 811.763 36.3733 812.062 36.64C812.361 36.896 812.569 37.2 812.686 37.552L811.198 38.224C811.091 37.9573 810.889 37.7547 810.59 37.616C810.291 37.4667 809.961 37.392 809.598 37.392C809.235 37.392 808.953 37.472 808.75 37.632C808.547 37.7813 808.446 37.9947 808.446 38.272C808.446 38.432 808.537 38.5813 808.718 38.72C808.899 38.848 809.161 38.9547 809.502 39.04L810.446 39.264C810.969 39.392 811.395 39.5947 811.726 39.872C812.057 40.1387 812.302 40.4427 812.462 40.784C812.622 41.1147 812.702 41.4507 812.702 41.792C812.702 42.272 812.563 42.6933 812.286 43.056C812.019 43.4187 811.651 43.7013 811.182 43.904C810.713 44.096 810.179 44.192 809.582 44.192ZM814.443 44V36H816.123L816.203 37.072C816.449 36.656 816.763 36.3413 817.147 36.128C817.531 35.9147 817.969 35.808 818.459 35.808C819.099 35.808 819.643 35.952 820.091 36.24C820.539 36.528 820.865 36.9653 821.067 37.552C821.302 36.9867 821.633 36.5547 822.059 36.256C822.486 35.9573 822.987 35.808 823.563 35.808C824.491 35.808 825.206 36.1067 825.707 36.704C826.209 37.2907 826.454 38.1973 826.443 39.424V44H824.667V39.904C824.667 39.264 824.598 38.7733 824.459 38.432C824.321 38.08 824.134 37.8347 823.899 37.696C823.665 37.5573 823.393 37.488 823.083 37.488C822.529 37.4773 822.097 37.6747 821.787 38.08C821.489 38.4853 821.339 39.0667 821.339 39.824V44H819.547V39.904C819.547 39.264 819.478 38.7733 819.339 38.432C819.211 38.08 819.03 37.8347 818.795 37.696C818.561 37.5573 818.289 37.488 817.979 37.488C817.425 37.4773 816.993 37.6747 816.683 38.08C816.385 38.4853 816.235 39.0667 816.235 39.824V44H814.443ZM832.159 44.192C831.381 44.192 830.687 44.016 830.079 43.664C829.482 43.3013 829.007 42.8053 828.655 42.176C828.314 41.5467 828.143 40.8213 828.143 40C828.143 39.1787 828.319 38.4533 828.671 37.824C829.023 37.1947 829.503 36.704 830.111 36.352C830.73 35.9893 831.434 35.808 832.223 35.808C832.938 35.808 833.583 35.9947 834.159 36.368C834.735 36.7307 835.189 37.2587 835.519 37.952C835.861 38.6453 836.031 39.472 836.031 40.432H829.743L829.983 40.208C829.983 40.6987 830.09 41.1253 830.303 41.488C830.517 41.84 830.799 42.112 831.151 42.304C831.503 42.496 831.893 42.592 832.319 42.592C832.81 42.592 833.215 42.4853 833.535 42.272C833.855 42.048 834.106 41.76 834.287 41.408L835.871 42.08C835.647 42.5067 835.359 42.88 835.007 43.2C834.666 43.52 834.255 43.7653 833.775 43.936C833.306 44.1067 832.767 44.192 832.159 44.192ZM830.095 39.28L829.839 39.056H834.351L834.111 39.28C834.111 38.8427 834.015 38.4853 833.823 38.208C833.631 37.92 833.386 37.7067 833.087 37.568C832.799 37.4187 832.495 37.344 832.175 37.344C831.855 37.344 831.535 37.4187 831.215 37.568C830.895 37.7067 830.629 37.92 830.415 38.208C830.202 38.4853 830.095 38.8427 830.095 39.28ZM837.724 44V36H839.404L839.516 37.472V44H837.724ZM843.148 44V39.904H844.94V44H843.148ZM843.148 39.904C843.148 39.264 843.073 38.7733 842.924 38.432C842.785 38.08 842.583 37.8347 842.316 37.696C842.06 37.5573 841.756 37.488 841.404 37.488C840.807 37.4773 840.343 37.6747 840.012 38.08C839.681 38.4853 839.516 39.0667 839.516 39.824H838.844C838.844 38.9813 838.967 38.2613 839.212 37.664C839.457 37.056 839.809 36.5973 840.268 36.288C840.727 35.968 841.271 35.808 841.9 35.808C842.54 35.808 843.084 35.936 843.532 36.192C843.991 36.448 844.337 36.848 844.572 37.392C844.817 37.9253 844.94 38.624 844.94 39.488V39.904H843.148ZM850.259 44.192C849.416 44.192 848.771 43.984 848.323 43.568C847.886 43.1413 847.667 42.5333 847.667 41.744V33.504H849.443V41.408C849.443 41.7813 849.528 42.064 849.699 42.256C849.88 42.448 850.142 42.544 850.483 42.544C850.59 42.544 850.707 42.5227 850.835 42.48C850.963 42.4373 851.107 42.3573 851.267 42.24L851.923 43.6C851.646 43.792 851.368 43.936 851.091 44.032C850.814 44.1387 850.536 44.192 850.259 44.192ZM846.339 37.536V36H851.603V37.536H846.339Z" fill="white"/>
<path d="M770.838 44L766.47 32.8H768.326L772.806 44H770.838ZM761.894 44L766.358 32.8H768.23L763.862 44H761.894ZM763.99 41.248V39.6H770.694V41.248H763.99ZM777.161 44.192C776.628 44.192 776.137 44.112 775.689 43.952C775.241 43.792 774.857 43.568 774.537 43.28C774.217 42.9813 773.972 42.6347 773.801 42.24L775.353 41.552C775.513 41.8507 775.748 42.1013 776.057 42.304C776.377 42.5067 776.729 42.608 777.113 42.608C777.529 42.608 777.86 42.5387 778.105 42.4C778.361 42.2507 778.49 42.048 778.49 41.792C778.49 41.5467 778.394 41.36 778.201 41.232C778.009 41.0933 777.737 40.9813 777.385 40.896L776.633 40.688C775.876 40.496 775.284 40.192 774.857 39.776C774.431 39.3493 774.217 38.864 774.217 38.32C774.217 37.52 774.473 36.9013 774.985 36.464C775.508 36.0267 776.255 35.808 777.225 35.808C777.716 35.808 778.164 35.8827 778.569 36.032C778.986 36.1707 779.343 36.3733 779.641 36.64C779.94 36.896 780.148 37.2 780.266 37.552L778.778 38.224C778.671 37.9573 778.468 37.7547 778.169 37.616C777.871 37.4667 777.54 37.392 777.177 37.392C776.815 37.392 776.532 37.472 776.329 37.632C776.127 37.7813 776.025 37.9947 776.025 38.272C776.025 38.432 776.116 38.5813 776.297 38.72C776.479 38.848 776.74 38.9547 777.081 39.04L778.025 39.264C778.548 39.392 778.975 39.5947 779.306 39.872C779.636 40.1387 779.881 40.4427 780.042 40.784C780.201 41.1147 780.281 41.4507 780.281 41.792C780.281 42.272 780.143 42.6933 779.865 43.056C779.599 43.4187 779.231 43.7013 778.761 43.904C778.292 44.096 777.759 44.192 777.161 44.192ZM784.919 44.192C784.386 44.192 783.895 44.112 783.447 43.952C782.999 43.792 782.615 43.568 782.295 43.28C781.975 42.9813 781.73 42.6347 781.559 42.24L783.111 41.552C783.271 41.8507 783.506 42.1013 783.815 42.304C784.135 42.5067 784.487 42.608 784.871 42.608C785.287 42.608 785.618 42.5387 785.863 42.4C786.119 42.2507 786.247 42.048 786.247 41.792C786.247 41.5467 786.151 41.36 785.959 41.232C785.767 41.0933 785.495 40.9813 785.143 40.896L784.391 40.688C783.634 40.496 783.042 40.192 782.615 39.776C782.188 39.3493 781.975 38.864 781.975 38.32C781.975 37.52 782.231 36.9013 782.743 36.464C783.266 36.0267 784.012 35.808 784.983 35.808C785.474 35.808 785.922 35.8827 786.327 36.032C786.743 36.1707 787.1 36.3733 787.399 36.64C787.698 36.896 787.906 37.2 788.023 37.552L786.535 38.224C786.428 37.9573 786.226 37.7547 785.927 37.616C785.628 37.4667 785.298 37.392 784.935 37.392C784.572 37.392 784.29 37.472 784.087 37.632C783.884 37.7813 783.783 37.9947 783.783 38.272C783.783 38.432 783.874 38.5813 784.055 38.72C784.236 38.848 784.498 38.9547 784.839 39.04L785.783 39.264C786.306 39.392 786.732 39.5947 787.063 39.872C787.394 40.1387 787.639 40.4427 787.799 40.784C787.959 41.1147 788.039 41.4507 788.039 41.792C788.039 42.272 787.9 42.6933 787.623 43.056C787.356 43.4187 786.988 43.7013 786.519 43.904C786.05 44.096 785.516 44.192 784.919 44.192ZM793.348 44.192C792.569 44.192 791.876 44.016 791.268 43.664C790.671 43.3013 790.196 42.8053 789.844 42.176C789.503 41.5467 789.332 40.8213 789.332 40C789.332 39.1787 789.508 38.4533 789.86 37.824C790.212 37.1947 790.692 36.704 791.3 36.352C791.919 35.9893 792.623 35.808 793.412 35.808C794.127 35.808 794.772 35.9947 795.348 36.368C795.924 36.7307 796.377 37.2587 796.708 37.952C797.049 38.6453 797.22 39.472 797.22 40.432H790.932L791.172 40.208C791.172 40.6987 791.279 41.1253 791.492 41.488C791.705 41.84 791.988 42.112 792.34 42.304C792.692 42.496 793.081 42.592 793.508 42.592C793.999 42.592 794.404 42.4853 794.724 42.272C795.044 42.048 795.295 41.76 795.476 41.408L797.06 42.08C796.836 42.5067 796.548 42.88 796.196 43.2C795.855 43.52 795.444 43.7653 794.964 43.936C794.495 44.1067 793.956 44.192 793.348 44.192ZM791.284 39.28L791.028 39.056H795.54L795.3 39.28C795.3 38.8427 795.204 38.4853 795.012 38.208C794.82 37.92 794.575 37.7067 794.276 37.568C793.988 37.4187 793.684 37.344 793.364 37.344C793.044 37.344 792.724 37.4187 792.404 37.568C792.084 37.7067 791.817 37.92 791.604 38.208C791.391 38.4853 791.284 38.8427 791.284 39.28ZM801.825 44.192C801.291 44.192 800.801 44.112 800.353 43.952C799.905 43.792 799.521 43.568 799.201 43.28C798.881 42.9813 798.635 42.6347 798.465 42.24L800.017 41.552C800.177 41.8507 800.411 42.1013 800.721 42.304C801.041 42.5067 801.393 42.608 801.777 42.608C802.193 42.608 802.523 42.5387 802.769 42.4C803.025 42.2507 803.153 42.048 803.153 41.792C803.153 41.5467 803.057 41.36 802.865 41.232C802.673 41.0933 802.401 40.9813 802.049 40.896L801.297 40.688C800.539 40.496 799.947 40.192 799.521 39.776C799.094 39.3493 798.881 38.864 798.881 38.32C798.881 37.52 799.137 36.9013 799.649 36.464C800.171 36.0267 800.918 35.808 801.889 35.808C802.379 35.808 802.827 35.8827 803.233 36.032C803.649 36.1707 804.006 36.3733 804.305 36.64C804.603 36.896 804.811 37.2 804.929 37.552L803.441 38.224C803.334 37.9573 803.131 37.7547 802.833 37.616C802.534 37.4667 802.203 37.392 801.841 37.392C801.478 37.392 801.195 37.472 800.993 37.632C800.79 37.7813 800.689 37.9947 800.689 38.272C800.689 38.432 800.779 38.5813 800.961 38.72C801.142 38.848 801.403 38.9547 801.745 39.04L802.689 39.264C803.211 39.392 803.638 39.5947 803.969 39.872C804.299 40.1387 804.545 40.4427 804.705 40.784C804.865 41.1147 804.945 41.4507 804.945 41.792C804.945 42.272 804.806 42.6933 804.529 43.056C804.262 43.4187 803.894 43.7013 803.425 43.904C802.955 44.096 802.422 44.192 801.825 44.192ZM809.582 44.192C809.049 44.192 808.558 44.112 808.11 43.952C807.662 43.792 807.278 43.568 806.958 43.28C806.638 42.9813 806.393 42.6347 806.222 42.24L807.774 41.552C807.934 41.8507 808.169 42.1013 808.478 42.304C808.798 42.5067 809.15 42.608 809.534 42.608C809.95 42.608 810.281 42.5387 810.526 42.4C810.782 42.2507 810.91 42.048 810.91 41.792C810.91 41.5467 810.814 41.36 810.622 41.232C810.43 41.0933 810.158 40.9813 809.806 40.896L809.054 40.688C808.297 40.496 807.705 40.192 807.278 39.776C806.851 39.3493 806.638 38.864 806.638 38.32C806.638 37.52 806.894 36.9013 807.406 36.464C807.929 36.0267 808.675 35.808 809.646 35.808C810.137 35.808 810.585 35.8827 810.99 36.032C811.406 36.1707 811.763 36.3733 812.062 36.64C812.361 36.896 812.569 37.2 812.686 37.552L811.198 38.224C811.091 37.9573 810.889 37.7547 810.59 37.616C810.291 37.4667 809.961 37.392 809.598 37.392C809.235 37.392 808.953 37.472 808.75 37.632C808.547 37.7813 808.446 37.9947 808.446 38.272C808.446 38.432 808.537 38.5813 808.718 38.72C808.899 38.848 809.161 38.9547 809.502 39.04L810.446 39.264C810.969 39.392 811.395 39.5947 811.726 39.872C812.057 40.1387 812.302 40.4427 812.462 40.784C812.622 41.1147 812.702 41.4507 812.702 41.792C812.702 42.272 812.563 42.6933 812.286 43.056C812.019 43.4187 811.651 43.7013 811.182 43.904C810.713 44.096 810.179 44.192 809.582 44.192ZM814.443 44V36H816.123L816.203 37.072C816.449 36.656 816.763 36.3413 817.147 36.128C817.531 35.9147 817.969 35.808 818.459 35.808C819.099 35.808 819.643 35.952 820.091 36.24C820.539 36.528 820.865 36.9653 821.067 37.552C821.302 36.9867 821.633 36.5547 822.059 36.256C822.486 35.9573 822.987 35.808 823.563 35.808C824.491 35.808 825.206 36.1067 825.707 36.704C826.209 37.2907 826.454 38.1973 826.443 39.424V44H824.667V39.904C824.667 39.264 824.598 38.7733 824.459 38.432C824.321 38.08 824.134 37.8347 823.899 37.696C823.665 37.5573 823.393 37.488 823.083 37.488C822.529 37.4773 822.097 37.6747 821.787 38.08C821.489 38.4853 821.339 39.0667 821.339 39.824V44H819.547V39.904C819.547 39.264 819.478 38.7733 819.339 38.432C819.211 38.08 819.03 37.8347 818.795 37.696C818.561 37.5573 818.289 37.488 817.979 37.488C817.425 37.4773 816.993 37.6747 816.683 38.08C816.385 38.4853 816.235 39.0667 816.235 39.824V44H814.443ZM832.159 44.192C831.381 44.192 830.687 44.016 830.079 43.664C829.482 43.3013 829.007 42.8053 828.655 42.176C828.314 41.5467 828.143 40.8213 828.143 40C828.143 39.1787 828.319 38.4533 828.671 37.824C829.023 37.1947 829.503 36.704 830.111 36.352C830.73 35.9893 831.434 35.808 832.223 35.808C832.938 35.808 833.583 35.9947 834.159 36.368C834.735 36.7307 835.189 37.2587 835.519 37.952C835.861 38.6453 836.031 39.472 836.031 40.432H829.743L829.983 40.208C829.983 40.6987 830.09 41.1253 830.303 41.488C830.517 41.84 830.799 42.112 831.151 42.304C831.503 42.496 831.893 42.592 832.319 42.592C832.81 42.592 833.215 42.4853 833.535 42.272C833.855 42.048 834.106 41.76 834.287 41.408L835.871 42.08C835.647 42.5067 835.359 42.88 835.007 43.2C834.666 43.52 834.255 43.7653 833.775 43.936C833.306 44.1067 832.767 44.192 832.159 44.192ZM830.095 39.28L829.839 39.056H834.351L834.111 39.28C834.111 38.8427 834.015 38.4853 833.823 38.208C833.631 37.92 833.386 37.7067 833.087 37.568C832.799 37.4187 832.495 37.344 832.175 37.344C831.855 37.344 831.535 37.4187 831.215 37.568C830.895 37.7067 830.629 37.92 830.415 38.208C830.202 38.4853 830.095 38.8427 830.095 39.28ZM837.724 44V36H839.404L839.516 37.472V44H837.724ZM843.148 44V39.904H844.94V44H843.148ZM843.148 39.904C843.148 39.264 843.073 38.7733 842.924 38.432C842.785 38.08 842.583 37.8347 842.316 37.696C842.06 37.5573 841.756 37.488 841.404 37.488C840.807 37.4773 840.343 37.6747 840.012 38.08C839.681 38.4853 839.516 39.0667 839.516 39.824H838.844C838.844 38.9813 838.967 38.2613 839.212 37.664C839.457 37.056 839.809 36.5973 840.268 36.288C840.727 35.968 841.271 35.808 841.9 35.808C842.54 35.808 843.084 35.936 843.532 36.192C843.991 36.448 844.337 36.848 844.572 37.392C844.817 37.9253 844.94 38.624 844.94 39.488V39.904H843.148ZM850.259 44.192C849.416 44.192 848.771 43.984 848.323 43.568C847.886 43.1413 847.667 42.5333 847.667 41.744V33.504H849.443V41.408C849.443 41.7813 849.528 42.064 849.699 42.256C849.88 42.448 850.142 42.544 850.483 42.544C850.59 42.544 850.707 42.5227 850.835 42.48C850.963 42.4373 851.107 42.3573 851.267 42.24L851.923 43.6C851.646 43.792 851.368 43.936 851.091 44.032C850.814 44.1387 850.536 44.192 850.259 44.192ZM846.339 37.536V36H851.603V37.536H846.339Z" fill="#3D3D4F"/>
<g opacity="0.32">
<line x1="865.75" y1="37.5" x2="938" y2="37.5" stroke="white"/>
<line x1="865.75" y1="37.5" x2="938" y2="37.5" stroke="#8A8A8A"/>
</g>
<circle cx="967" cy="37" r="18" fill="url(#paint8_linear_1849_747)" stroke="#D4F9F0" stroke-width="6"/>
<path d="M967.287 42.526C966.796 42.526 966.295 42.4513 965.783 42.302C965.282 42.142 964.818 41.9073 964.391 41.598C963.964 41.278 963.639 40.878 963.415 40.398L965.063 39.79C965.34 40.1847 965.666 40.4727 966.039 40.654C966.412 40.8247 966.796 40.91 967.191 40.91C967.82 40.91 968.332 40.7233 968.727 40.35C969.122 39.966 969.319 39.4593 969.319 38.83C969.319 38.222 969.127 37.7207 968.743 37.326C968.359 36.9313 967.858 36.734 967.239 36.734C966.876 36.734 966.535 36.814 966.215 36.974C965.906 37.134 965.666 37.326 965.495 37.55L963.815 37.182L964.439 31.134H970.631V32.814H966.039L965.719 35.854C966.007 35.6833 966.327 35.55 966.679 35.454C967.042 35.3473 967.42 35.294 967.815 35.294C968.455 35.294 969.031 35.4433 969.543 35.742C970.055 36.0407 970.46 36.4513 970.759 36.974C971.058 37.486 971.207 38.078 971.207 38.75C971.207 39.4967 971.036 40.1527 970.695 40.718C970.364 41.2833 969.906 41.726 969.319 42.046C968.732 42.366 968.055 42.526 967.287 42.526Z" fill="white"/>
<path d="M967.287 42.526C966.796 42.526 966.295 42.4513 965.783 42.302C965.282 42.142 964.818 41.9073 964.391 41.598C963.964 41.278 963.639 40.878 963.415 40.398L965.063 39.79C965.34 40.1847 965.666 40.4727 966.039 40.654C966.412 40.8247 966.796 40.91 967.191 40.91C967.82 40.91 968.332 40.7233 968.727 40.35C969.122 39.966 969.319 39.4593 969.319 38.83C969.319 38.222 969.127 37.7207 968.743 37.326C968.359 36.9313 967.858 36.734 967.239 36.734C966.876 36.734 966.535 36.814 966.215 36.974C965.906 37.134 965.666 37.326 965.495 37.55L963.815 37.182L964.439 31.134H970.631V32.814H966.039L965.719 35.854C966.007 35.6833 966.327 35.55 966.679 35.454C967.042 35.3473 967.42 35.294 967.815 35.294C968.455 35.294 969.031 35.4433 969.543 35.742C970.055 36.0407 970.46 36.4513 970.759 36.974C971.058 37.486 971.207 38.078 971.207 38.75C971.207 39.4967 971.036 40.1527 970.695 40.718C970.364 41.2833 969.906 41.726 969.319 42.046C968.732 42.366 968.055 42.526 967.287 42.526Z" fill="url(#paint9_linear_1849_747)"/>
<path d="M997.328 44V32.8H1001.28C1002.05 32.8 1002.73 32.9493 1003.31 33.248C1003.9 33.5467 1004.36 33.9627 1004.69 34.496C1005.02 35.0187 1005.18 35.6267 1005.18 36.32C1005.18 37.0133 1005.01 37.6267 1004.66 38.16C1004.31 38.6933 1003.84 39.1147 1003.23 39.424C1002.62 39.7227 1001.94 39.872 1001.17 39.872H999.184V44H997.328ZM1003.54 44L1000.91 39.456L1002.35 38.464L1005.63 44H1003.54ZM999.184 38.16H1001.36C1001.72 38.16 1002.04 38.08 1002.32 37.92C1002.61 37.76 1002.84 37.5413 1003.01 37.264C1003.19 36.9867 1003.28 36.672 1003.28 36.32C1003.28 35.7867 1003.09 35.3493 1002.7 35.008C1002.32 34.6667 1001.82 34.496 1001.22 34.496H999.184V38.16ZM1011.07 44.192C1010.29 44.192 1009.6 44.016 1008.99 43.664C1008.39 43.3013 1007.92 42.8053 1007.56 42.176C1007.22 41.5467 1007.05 40.8213 1007.05 40C1007.05 39.1787 1007.23 38.4533 1007.58 37.824C1007.93 37.1947 1008.41 36.704 1009.02 36.352C1009.64 35.9893 1010.34 35.808 1011.13 35.808C1011.85 35.808 1012.49 35.9947 1013.07 36.368C1013.64 36.7307 1014.1 37.2587 1014.43 37.952C1014.77 38.6453 1014.94 39.472 1014.94 40.432H1008.65L1008.89 40.208C1008.89 40.6987 1009 41.1253 1009.21 41.488C1009.42 41.84 1009.71 42.112 1010.06 42.304C1010.41 42.496 1010.8 42.592 1011.23 42.592C1011.72 42.592 1012.12 42.4853 1012.44 42.272C1012.76 42.048 1013.01 41.76 1013.2 41.408L1014.78 42.08C1014.56 42.5067 1014.27 42.88 1013.92 43.2C1013.57 43.52 1013.16 43.7653 1012.68 43.936C1012.21 44.1067 1011.68 44.192 1011.07 44.192ZM1009 39.28L1008.75 39.056H1013.26L1013.02 39.28C1013.02 38.8427 1012.92 38.4853 1012.73 38.208C1012.54 37.92 1012.29 37.7067 1012 37.568C1011.71 37.4187 1011.4 37.344 1011.08 37.344C1010.76 37.344 1010.44 37.4187 1010.12 37.568C1009.8 37.7067 1009.54 37.92 1009.32 38.208C1009.11 38.4853 1009 38.8427 1009 39.28ZM1020.07 47.408C1019.51 47.408 1018.99 47.36 1018.54 47.264C1018.09 47.168 1017.71 47.056 1017.4 46.928C1017.09 46.8 1016.85 46.6773 1016.68 46.56L1017.37 45.12C1017.52 45.1947 1017.71 45.2853 1017.96 45.392C1018.22 45.5093 1018.51 45.6107 1018.86 45.696C1019.2 45.7813 1019.58 45.824 1020.01 45.824C1020.47 45.824 1020.88 45.728 1021.24 45.536C1021.6 45.3547 1021.89 45.072 1022.09 44.688C1022.29 44.304 1022.39 43.8133 1022.39 43.216V36H1024.18V43.168C1024.18 44.0747 1024.01 44.8427 1023.67 45.472C1023.33 46.112 1022.85 46.592 1022.23 46.912C1021.61 47.2427 1020.89 47.408 1020.07 47.408ZM1019.8 43.84C1019.07 43.84 1018.44 43.6747 1017.9 43.344C1017.36 43.0133 1016.94 42.5547 1016.63 41.968C1016.33 41.3707 1016.18 40.6827 1016.18 39.904C1016.18 39.072 1016.33 38.352 1016.63 37.744C1016.94 37.136 1017.36 36.6613 1017.9 36.32C1018.44 35.9787 1019.07 35.808 1019.8 35.808C1020.45 35.808 1021.02 35.9787 1021.5 36.32C1021.99 36.6613 1022.37 37.1413 1022.63 37.76C1022.9 38.368 1023.03 39.088 1023.03 39.92C1023.03 40.7093 1022.9 41.3973 1022.63 41.984C1022.37 42.5707 1021.99 43.0293 1021.5 43.36C1021.02 43.68 1020.45 43.84 1019.8 43.84ZM1020.3 42.32C1020.7 42.32 1021.05 42.2133 1021.35 42C1021.66 41.7867 1021.9 41.4987 1022.07 41.136C1022.24 40.7627 1022.33 40.336 1022.33 39.856C1022.33 39.3653 1022.24 38.9387 1022.07 38.576C1021.9 38.2027 1021.66 37.9147 1021.35 37.712C1021.04 37.4987 1020.69 37.392 1020.28 37.392C1019.85 37.392 1019.47 37.4987 1019.14 37.712C1018.82 37.9147 1018.57 38.2027 1018.38 38.576C1018.19 38.9387 1018.1 39.3653 1018.1 39.856C1018.1 40.336 1018.19 40.7627 1018.38 41.136C1018.57 41.4987 1018.83 41.7867 1019.16 42C1019.49 42.2133 1019.87 42.32 1020.3 42.32ZM1026.6 44V36H1028.37V44H1026.6ZM1027.49 34.48C1027.2 34.48 1026.95 34.3787 1026.74 34.176C1026.54 33.9627 1026.44 33.712 1026.44 33.424C1026.44 33.136 1026.54 32.8907 1026.74 32.688C1026.95 32.4853 1027.2 32.384 1027.49 32.384C1027.78 32.384 1028.02 32.4853 1028.23 32.688C1028.44 32.8907 1028.55 33.136 1028.55 33.424C1028.55 33.712 1028.44 33.9627 1028.23 34.176C1028.02 34.3787 1027.78 34.48 1027.49 34.48ZM1033.72 44.192C1033.18 44.192 1032.69 44.112 1032.24 43.952C1031.8 43.792 1031.41 43.568 1031.09 43.28C1030.77 42.9813 1030.53 42.6347 1030.36 42.24L1031.91 41.552C1032.07 41.8507 1032.3 42.1013 1032.61 42.304C1032.93 42.5067 1033.28 42.608 1033.67 42.608C1034.08 42.608 1034.41 42.5387 1034.66 42.4C1034.92 42.2507 1035.04 42.048 1035.04 41.792C1035.04 41.5467 1034.95 41.36 1034.76 41.232C1034.56 41.0933 1034.29 40.9813 1033.94 40.896L1033.19 40.688C1032.43 40.496 1031.84 40.192 1031.41 39.776C1030.98 39.3493 1030.77 38.864 1030.77 38.32C1030.77 37.52 1031.03 36.9013 1031.54 36.464C1032.06 36.0267 1032.81 35.808 1033.78 35.808C1034.27 35.808 1034.72 35.8827 1035.12 36.032C1035.54 36.1707 1035.9 36.3733 1036.2 36.64C1036.49 36.896 1036.7 37.2 1036.82 37.552L1035.33 38.224C1035.22 37.9573 1035.02 37.7547 1034.72 37.616C1034.42 37.4667 1034.09 37.392 1033.73 37.392C1033.37 37.392 1033.09 37.472 1032.88 37.632C1032.68 37.7813 1032.58 37.9947 1032.58 38.272C1032.58 38.432 1032.67 38.5813 1032.85 38.72C1033.03 38.848 1033.29 38.9547 1033.64 39.04L1034.58 39.264C1035.1 39.392 1035.53 39.5947 1035.86 39.872C1036.19 40.1387 1036.44 40.4427 1036.6 40.784C1036.76 41.1147 1036.84 41.4507 1036.84 41.792C1036.84 42.272 1036.7 42.6933 1036.42 43.056C1036.15 43.4187 1035.78 43.7013 1035.32 43.904C1034.85 44.096 1034.31 44.192 1033.72 44.192ZM1041.76 44.192C1040.92 44.192 1040.27 43.984 1039.82 43.568C1039.39 43.1413 1039.17 42.5333 1039.17 41.744V33.504H1040.94V41.408C1040.94 41.7813 1041.03 42.064 1041.2 42.256C1041.38 42.448 1041.64 42.544 1041.98 42.544C1042.09 42.544 1042.21 42.5227 1042.34 42.48C1042.46 42.4373 1042.61 42.3573 1042.77 42.24L1043.42 43.6C1043.15 43.792 1042.87 43.936 1042.59 44.032C1042.32 44.1387 1042.04 44.192 1041.76 44.192ZM1037.84 37.536V36H1043.1V37.536H1037.84ZM1046.36 39.744C1046.36 38.88 1046.53 38.1707 1046.86 37.616C1047.19 37.0613 1047.61 36.6507 1048.14 36.384C1048.67 36.1067 1049.23 35.968 1049.8 35.968V37.68C1049.31 37.68 1048.85 37.7493 1048.41 37.888C1047.98 38.016 1047.64 38.2293 1047.37 38.528C1047.1 38.8267 1046.97 39.2213 1046.97 39.712L1046.36 39.744ZM1045.18 44V36H1046.97V44H1045.18ZM1052.57 47.392C1052.32 47.392 1052.03 47.344 1051.71 47.248C1051.4 47.152 1051.1 47.0293 1050.81 46.88L1051.49 45.424C1051.69 45.52 1051.88 45.5947 1052.05 45.648C1052.22 45.712 1052.36 45.744 1052.46 45.744C1052.72 45.744 1052.93 45.6747 1053.1 45.536C1053.28 45.408 1053.43 45.216 1053.53 44.96L1054.48 42.752L1057.18 36H1059.13L1055.42 44.848C1055.2 45.36 1054.97 45.808 1054.73 46.192C1054.51 46.576 1054.23 46.8693 1053.89 47.072C1053.54 47.2853 1053.11 47.392 1052.57 47.392ZM1054 44L1050.41 36H1052.37L1055.15 42.736L1055.73 44H1054Z" fill="white"/>
<path d="M997.328 44V32.8H1001.28C1002.05 32.8 1002.73 32.9493 1003.31 33.248C1003.9 33.5467 1004.36 33.9627 1004.69 34.496C1005.02 35.0187 1005.18 35.6267 1005.18 36.32C1005.18 37.0133 1005.01 37.6267 1004.66 38.16C1004.31 38.6933 1003.84 39.1147 1003.23 39.424C1002.62 39.7227 1001.94 39.872 1001.17 39.872H999.184V44H997.328ZM1003.54 44L1000.91 39.456L1002.35 38.464L1005.63 44H1003.54ZM999.184 38.16H1001.36C1001.72 38.16 1002.04 38.08 1002.32 37.92C1002.61 37.76 1002.84 37.5413 1003.01 37.264C1003.19 36.9867 1003.28 36.672 1003.28 36.32C1003.28 35.7867 1003.09 35.3493 1002.7 35.008C1002.32 34.6667 1001.82 34.496 1001.22 34.496H999.184V38.16ZM1011.07 44.192C1010.29 44.192 1009.6 44.016 1008.99 43.664C1008.39 43.3013 1007.92 42.8053 1007.56 42.176C1007.22 41.5467 1007.05 40.8213 1007.05 40C1007.05 39.1787 1007.23 38.4533 1007.58 37.824C1007.93 37.1947 1008.41 36.704 1009.02 36.352C1009.64 35.9893 1010.34 35.808 1011.13 35.808C1011.85 35.808 1012.49 35.9947 1013.07 36.368C1013.64 36.7307 1014.1 37.2587 1014.43 37.952C1014.77 38.6453 1014.94 39.472 1014.94 40.432H1008.65L1008.89 40.208C1008.89 40.6987 1009 41.1253 1009.21 41.488C1009.42 41.84 1009.71 42.112 1010.06 42.304C1010.41 42.496 1010.8 42.592 1011.23 42.592C1011.72 42.592 1012.12 42.4853 1012.44 42.272C1012.76 42.048 1013.01 41.76 1013.2 41.408L1014.78 42.08C1014.56 42.5067 1014.27 42.88 1013.92 43.2C1013.57 43.52 1013.16 43.7653 1012.68 43.936C1012.21 44.1067 1011.68 44.192 1011.07 44.192ZM1009 39.28L1008.75 39.056H1013.26L1013.02 39.28C1013.02 38.8427 1012.92 38.4853 1012.73 38.208C1012.54 37.92 1012.29 37.7067 1012 37.568C1011.71 37.4187 1011.4 37.344 1011.08 37.344C1010.76 37.344 1010.44 37.4187 1010.12 37.568C1009.8 37.7067 1009.54 37.92 1009.32 38.208C1009.11 38.4853 1009 38.8427 1009 39.28ZM1020.07 47.408C1019.51 47.408 1018.99 47.36 1018.54 47.264C1018.09 47.168 1017.71 47.056 1017.4 46.928C1017.09 46.8 1016.85 46.6773 1016.68 46.56L1017.37 45.12C1017.52 45.1947 1017.71 45.2853 1017.96 45.392C1018.22 45.5093 1018.51 45.6107 1018.86 45.696C1019.2 45.7813 1019.58 45.824 1020.01 45.824C1020.47 45.824 1020.88 45.728 1021.24 45.536C1021.6 45.3547 1021.89 45.072 1022.09 44.688C1022.29 44.304 1022.39 43.8133 1022.39 43.216V36H1024.18V43.168C1024.18 44.0747 1024.01 44.8427 1023.67 45.472C1023.33 46.112 1022.85 46.592 1022.23 46.912C1021.61 47.2427 1020.89 47.408 1020.07 47.408ZM1019.8 43.84C1019.07 43.84 1018.44 43.6747 1017.9 43.344C1017.36 43.0133 1016.94 42.5547 1016.63 41.968C1016.33 41.3707 1016.18 40.6827 1016.18 39.904C1016.18 39.072 1016.33 38.352 1016.63 37.744C1016.94 37.136 1017.36 36.6613 1017.9 36.32C1018.44 35.9787 1019.07 35.808 1019.8 35.808C1020.45 35.808 1021.02 35.9787 1021.5 36.32C1021.99 36.6613 1022.37 37.1413 1022.63 37.76C1022.9 38.368 1023.03 39.088 1023.03 39.92C1023.03 40.7093 1022.9 41.3973 1022.63 41.984C1022.37 42.5707 1021.99 43.0293 1021.5 43.36C1021.02 43.68 1020.45 43.84 1019.8 43.84ZM1020.3 42.32C1020.7 42.32 1021.05 42.2133 1021.35 42C1021.66 41.7867 1021.9 41.4987 1022.07 41.136C1022.24 40.7627 1022.33 40.336 1022.33 39.856C1022.33 39.3653 1022.24 38.9387 1022.07 38.576C1021.9 38.2027 1021.66 37.9147 1021.35 37.712C1021.04 37.4987 1020.69 37.392 1020.28 37.392C1019.85 37.392 1019.47 37.4987 1019.14 37.712C1018.82 37.9147 1018.57 38.2027 1018.38 38.576C1018.19 38.9387 1018.1 39.3653 1018.1 39.856C1018.1 40.336 1018.19 40.7627 1018.38 41.136C1018.57 41.4987 1018.83 41.7867 1019.16 42C1019.49 42.2133 1019.87 42.32 1020.3 42.32ZM1026.6 44V36H1028.37V44H1026.6ZM1027.49 34.48C1027.2 34.48 1026.95 34.3787 1026.74 34.176C1026.54 33.9627 1026.44 33.712 1026.44 33.424C1026.44 33.136 1026.54 32.8907 1026.74 32.688C1026.95 32.4853 1027.2 32.384 1027.49 32.384C1027.78 32.384 1028.02 32.4853 1028.23 32.688C1028.44 32.8907 1028.55 33.136 1028.55 33.424C1028.55 33.712 1028.44 33.9627 1028.23 34.176C1028.02 34.3787 1027.78 34.48 1027.49 34.48ZM1033.72 44.192C1033.18 44.192 1032.69 44.112 1032.24 43.952C1031.8 43.792 1031.41 43.568 1031.09 43.28C1030.77 42.9813 1030.53 42.6347 1030.36 42.24L1031.91 41.552C1032.07 41.8507 1032.3 42.1013 1032.61 42.304C1032.93 42.5067 1033.28 42.608 1033.67 42.608C1034.08 42.608 1034.41 42.5387 1034.66 42.4C1034.92 42.2507 1035.04 42.048 1035.04 41.792C1035.04 41.5467 1034.95 41.36 1034.76 41.232C1034.56 41.0933 1034.29 40.9813 1033.94 40.896L1033.19 40.688C1032.43 40.496 1031.84 40.192 1031.41 39.776C1030.98 39.3493 1030.77 38.864 1030.77 38.32C1030.77 37.52 1031.03 36.9013 1031.54 36.464C1032.06 36.0267 1032.81 35.808 1033.78 35.808C1034.27 35.808 1034.72 35.8827 1035.12 36.032C1035.54 36.1707 1035.9 36.3733 1036.2 36.64C1036.49 36.896 1036.7 37.2 1036.82 37.552L1035.33 38.224C1035.22 37.9573 1035.02 37.7547 1034.72 37.616C1034.42 37.4667 1034.09 37.392 1033.73 37.392C1033.37 37.392 1033.09 37.472 1032.88 37.632C1032.68 37.7813 1032.58 37.9947 1032.58 38.272C1032.58 38.432 1032.67 38.5813 1032.85 38.72C1033.03 38.848 1033.29 38.9547 1033.64 39.04L1034.58 39.264C1035.1 39.392 1035.53 39.5947 1035.86 39.872C1036.19 40.1387 1036.44 40.4427 1036.6 40.784C1036.76 41.1147 1036.84 41.4507 1036.84 41.792C1036.84 42.272 1036.7 42.6933 1036.42 43.056C1036.15 43.4187 1035.78 43.7013 1035.32 43.904C1034.85 44.096 1034.31 44.192 1033.72 44.192ZM1041.76 44.192C1040.92 44.192 1040.27 43.984 1039.82 43.568C1039.39 43.1413 1039.17 42.5333 1039.17 41.744V33.504H1040.94V41.408C1040.94 41.7813 1041.03 42.064 1041.2 42.256C1041.38 42.448 1041.64 42.544 1041.98 42.544C1042.09 42.544 1042.21 42.5227 1042.34 42.48C1042.46 42.4373 1042.61 42.3573 1042.77 42.24L1043.42 43.6C1043.15 43.792 1042.87 43.936 1042.59 44.032C1042.32 44.1387 1042.04 44.192 1041.76 44.192ZM1037.84 37.536V36H1043.1V37.536H1037.84ZM1046.36 39.744C1046.36 38.88 1046.53 38.1707 1046.86 37.616C1047.19 37.0613 1047.61 36.6507 1048.14 36.384C1048.67 36.1067 1049.23 35.968 1049.8 35.968V37.68C1049.31 37.68 1048.85 37.7493 1048.41 37.888C1047.98 38.016 1047.64 38.2293 1047.37 38.528C1047.1 38.8267 1046.97 39.2213 1046.97 39.712L1046.36 39.744ZM1045.18 44V36H1046.97V44H1045.18ZM1052.57 47.392C1052.32 47.392 1052.03 47.344 1051.71 47.248C1051.4 47.152 1051.1 47.0293 1050.81 46.88L1051.49 45.424C1051.69 45.52 1051.88 45.5947 1052.05 45.648C1052.22 45.712 1052.36 45.744 1052.46 45.744C1052.72 45.744 1052.93 45.6747 1053.1 45.536C1053.28 45.408 1053.43 45.216 1053.53 44.96L1054.48 42.752L1057.18 36H1059.13L1055.42 44.848C1055.2 45.36 1054.97 45.808 1054.73 46.192C1054.51 46.576 1054.23 46.8693 1053.89 47.072C1053.54 47.2853 1053.11 47.392 1052.57 47.392ZM1054 44L1050.41 36H1052.37L1055.15 42.736L1055.73 44H1054Z" fill="#3D3D4F"/>
<defs>
<linearGradient id="paint0_linear_1849_747" x1="50.7863" y1="22" x2="16.2453" y2="29.6934" gradientUnits="userSpaceOnUse">
<stop stop-color="#23D192"/>
<stop offset="1" stop-color="#18C5C8"/>
</linearGradient>
<linearGradient id="paint1_linear_1849_747" x1="35.4001" y1="26.334" x2="35.4001" y2="47.6673" gradientUnits="userSpaceOnUse">
<stop stop-color="white"/>
<stop offset="1" stop-color="white" stop-opacity="0"/>
</linearGradient>
<linearGradient id="paint2_linear_1849_747" x1="262.786" y1="22" x2="228.245" y2="29.6934" gradientUnits="userSpaceOnUse">
<stop stop-color="#23D192"/>
<stop offset="1" stop-color="#18C5C8"/>
</linearGradient>
<linearGradient id="paint3_linear_1849_747" x1="247.65" y1="26.334" x2="247.65" y2="47.6673" gradientUnits="userSpaceOnUse">
<stop stop-color="white"/>
<stop offset="1" stop-color="white" stop-opacity="0"/>
</linearGradient>
<linearGradient id="paint4_linear_1849_747" x1="486.786" y1="23" x2="452.245" y2="30.6934" gradientUnits="userSpaceOnUse">
<stop stop-color="#23D192"/>
<stop offset="1" stop-color="#18C5C8"/>
</linearGradient>
<linearGradient id="paint5_linear_1849_747" x1="471.9" y1="27.334" x2="471.9" y2="48.6673" gradientUnits="userSpaceOnUse">
<stop stop-color="white"/>
<stop offset="1" stop-color="white" stop-opacity="0"/>
</linearGradient>
<linearGradient id="paint6_linear_1849_747" x1="747.786" y1="23" x2="713.245" y2="30.6934" gradientUnits="userSpaceOnUse">
<stop stop-color="#23D192"/>
<stop offset="1" stop-color="#18C5C8"/>
</linearGradient>
<linearGradient id="paint7_linear_1849_747" x1="733.15" y1="27.334" x2="733.15" y2="48.6673" gradientUnits="userSpaceOnUse">
<stop stop-color="white"/>
<stop offset="1" stop-color="white" stop-opacity="0"/>
</linearGradient>
<linearGradient id="paint8_linear_1849_747" x1="981.786" y1="22" x2="947.245" y2="29.6934" gradientUnits="userSpaceOnUse">
<stop stop-color="#23D192"/>
<stop offset="1" stop-color="#18C5C8"/>
</linearGradient>
<linearGradient id="paint9_linear_1849_747" x1="967.4" y1="26.334" x2="967.4" y2="47.6673" gradientUnits="userSpaceOnUse">
<stop stop-color="white"/>
<stop offset="1" stop-color="white" stop-opacity="0"/>
</linearGradient>
</defs>
</svg>
