<svg width="442" height="510" viewBox="0 0 442 510" fill="none" xmlns="http://www.w3.org/2000/svg">
<g clip-path="url(#clip0_1692_5151)">
<path d="M0.808594 509.405L290.178 0.953125L494.145 359.275H328.74L290.103 291.586L165.706 509.405H0.808594Z" stroke="#E4E7F5" stroke-miterlimit="10"/>
<path d="M8.90918 504.685L290.179 10.4678L486.046 354.555H331.469L290.104 282.09L162.978 504.685H8.90918Z" stroke="#E4E7F5" stroke-miterlimit="10"/>
<path d="M17.0186 499.966L290.179 19.9824L477.946 349.835H334.197L290.104 272.594L160.25 499.966H17.0186Z" stroke="#E4E7F5" stroke-miterlimit="10"/>
<path d="M25.1182 495.246L290.178 29.5068L469.836 345.116H336.925L290.103 263.108L157.531 495.246H25.1182Z" stroke="#E4E7F5" stroke-miterlimit="10"/>
<path d="M33.2188 490.527L290.179 39.0215L461.737 340.396H339.654L290.104 253.612L154.803 490.527H33.2188Z" stroke="#E4E7F5" stroke-miterlimit="10"/>
<path d="M41.3184 485.807L290.179 48.5361L453.627 335.677H342.382L290.103 244.116L152.075 485.807H41.3184Z" stroke="#E4E7F5" stroke-miterlimit="10"/>
<path d="M49.4277 481.087L290.179 58.0508L445.527 330.957H345.1L290.103 234.62L149.346 481.087H49.4277Z" stroke="#E4E7F5" stroke-miterlimit="10"/>
<path d="M57.5273 476.368L290.178 67.5752L437.427 326.238H347.828L290.112 225.125L146.627 476.368H57.5273Z" stroke="#E4E7F5" stroke-miterlimit="10"/>
<path d="M65.6279 471.648L290.179 77.0898L429.318 321.518H350.557L290.113 215.638L143.9 471.648H65.6279Z" stroke="#E4E7F5" stroke-miterlimit="10"/>
<path d="M73.7373 466.929L290.179 86.6045L421.218 316.798H353.285L290.113 206.143L141.171 466.929H73.7373Z" stroke="#E4E7F5" stroke-miterlimit="10"/>
<path d="M81.8369 462.209L290.179 96.1191L413.118 312.079H356.013L290.113 196.647L138.443 462.209H81.8369Z" stroke="#E4E7F5" stroke-miterlimit="10"/>
<path d="M89.9375 457.49L290.179 105.644L405.009 307.359H358.733L290.113 187.151L135.725 457.49H89.9375Z" stroke="#E4E7F5" stroke-miterlimit="10"/>
<path d="M98.0371 452.77L290.179 115.158L396.909 302.64H361.461L290.113 177.655L132.996 452.77H98.0371Z" stroke="#E4E7F5" stroke-miterlimit="10"/>
<path d="M106.146 448.05L290.179 124.673L388.799 297.92H364.189L290.113 168.159L130.268 448.05H106.146Z" stroke="#E4E7F5" stroke-miterlimit="10"/>
<path d="M115.188 443.331L290.179 136.075L379.759 293.2H367.858L290.113 157.729L127.54 443.331H115.188Z" stroke="#E4E7F5" stroke-miterlimit="10"/>
<path d="M271.571 385.346H507.242L579.182 509.018L200.882 509.528L271.571 385.346Z" stroke="#E4E7F5" stroke-miterlimit="10"/>
<path d="M274.299 390.065H504.542L570.997 504.318L208.991 504.799L274.299 390.065Z" stroke="#E4E7F5" stroke-miterlimit="10"/>
<path d="M277.027 394.785H501.842L562.803 499.607L217.101 500.07L277.027 394.785Z" stroke="#E4E7F5" stroke-miterlimit="10"/>
<path d="M279.765 399.505H499.132L554.619 494.897L225.21 495.332L279.765 399.505Z" stroke="#E4E7F5" stroke-miterlimit="10"/>
<path d="M282.493 404.225H496.432L546.434 490.187L233.319 490.603L282.493 404.225Z" stroke="#E4E7F5" stroke-miterlimit="10"/>
<path d="M285.221 408.944H493.732L538.249 485.477L241.429 485.874L285.221 408.944Z" stroke="#E4E7F5" stroke-miterlimit="10"/>
<path d="M287.949 413.663H491.032L530.065 480.766L249.538 481.144L287.949 413.663Z" stroke="#E4E7F5" stroke-miterlimit="10"/>
<path d="M290.687 418.383H488.332L521.88 476.066L257.647 476.415L290.687 418.383Z" stroke="#E4E7F5" stroke-miterlimit="10"/>
<path d="M293.415 423.103H485.632L513.695 471.356L265.757 471.686L293.415 423.103Z" stroke="#E4E7F5" stroke-miterlimit="10"/>
<path d="M296.144 427.822H482.932L505.511 466.646L273.866 466.957L296.144 427.822Z" stroke="#E4E7F5" stroke-miterlimit="10"/>
<path d="M298.872 432.542H480.232L497.326 461.936L281.976 462.219L298.872 432.542Z" stroke="#E4E7F5" stroke-miterlimit="10"/>
<path d="M301.609 437.262H477.532L489.141 457.226L290.085 457.49L301.609 437.262Z" stroke="#E4E7F5" stroke-miterlimit="10"/>
<path d="M304.338 441.981H474.823L480.957 452.516L298.194 452.761L304.338 441.981Z" stroke="#E4E7F5" stroke-miterlimit="10"/>
<path d="M123.983 438.366L290.329 147.346L371.188 288.934" stroke="#E4E7F5" stroke-miterlimit="10"/>
<path d="M305.711 447.626H472.659" stroke="#E4E7F5" stroke-miterlimit="10"/>
</g>
<defs>
<clipPath id="clip0_1692_5151">
<rect width="580" height="510" fill="white"/>
</clipPath>
</defs>
</svg>
