<svg width="451" height="186" viewBox="0 0 451 186" fill="none" xmlns="http://www.w3.org/2000/svg">
<rect width="451" height="186" rx="18" fill="white"/>
<g filter="url(#filter0_d_2085_774)">
<path d="M40.464 64.504C38 64.504 35.816 63.86 33.912 62.572C32.008 61.256 30.524 59.464 29.46 57.196C28.396 54.9 27.864 52.268 27.864 49.3C27.864 46.332 28.396 43.714 29.46 41.446C30.524 39.15 31.994 37.358 33.87 36.07C35.774 34.754 37.944 34.096 40.38 34.096C42.004 34.096 43.53 34.432 44.958 35.104C46.414 35.748 47.674 36.672 48.738 37.876C49.83 39.052 50.684 40.424 51.3 41.992L47.058 43.798C46.638 42.762 46.078 41.852 45.378 41.068C44.706 40.284 43.936 39.668 43.068 39.22C42.228 38.772 41.332 38.548 40.38 38.548C38.924 38.548 37.622 39.01 36.474 39.934C35.326 40.858 34.43 42.132 33.786 43.756C33.142 45.352 32.82 47.2 32.82 49.3C32.82 51.4 33.142 53.262 33.786 54.886C34.458 56.51 35.368 57.784 36.516 58.708C37.664 59.604 38.994 60.052 40.506 60.052C41.486 60.052 42.396 59.814 43.236 59.338C44.104 58.862 44.86 58.218 45.504 57.406C46.176 56.566 46.722 55.6 47.142 54.508L51.384 56.314C50.796 57.91 49.956 59.338 48.864 60.598C47.772 61.83 46.512 62.796 45.084 63.496C43.656 64.168 42.116 64.504 40.464 64.504ZM24.672 53.248V50.518H43.488V53.248H24.672ZM24.672 48.082V45.352H43.488V48.082H24.672ZM64.6409 64.504C63.0449 64.504 61.5889 64.266 60.2729 63.79C58.9569 63.314 57.8509 62.642 56.9549 61.774C56.0589 60.906 55.4149 59.926 55.0229 58.834L59.3909 57.196C59.6149 57.588 59.9229 58.022 60.3149 58.498C60.7069 58.974 61.2249 59.394 61.8689 59.758C62.5129 60.094 63.3389 60.262 64.3469 60.262C65.9429 60.262 67.2029 59.814 68.1269 58.918C69.0789 57.994 69.5549 56.832 69.5549 55.432C69.5549 54.424 69.2889 53.556 68.7569 52.828C68.2529 52.1 67.4549 51.54 66.3629 51.148C65.2989 50.756 63.9549 50.56 62.3309 50.56H60.9869V47.116H62.2049C63.9129 47.116 65.4949 47.312 66.9509 47.704C68.4349 48.096 69.7369 48.684 70.8569 49.468C72.0049 50.224 72.8869 51.148 73.5029 52.24C74.1469 53.332 74.4689 54.564 74.4689 55.936C74.4689 57.7 74.0069 59.226 73.0829 60.514C72.1869 61.802 70.9969 62.796 69.5129 63.496C68.0289 64.168 66.4049 64.504 64.6409 64.504ZM60.9869 49.804V46.528H62.3309C64.4869 46.528 66.1249 46.164 67.2449 45.436C68.3649 44.708 68.9249 43.686 68.9249 42.37C68.9249 41.614 68.7289 40.942 68.3369 40.354C67.9729 39.738 67.4409 39.248 66.7409 38.884C66.0409 38.52 65.2149 38.338 64.2629 38.338C63.6469 38.338 63.0449 38.436 62.4569 38.632C61.8689 38.828 61.3229 39.136 60.8189 39.556C60.3149 39.976 59.8949 40.522 59.5589 41.194L55.3169 39.64C55.7369 38.464 56.4089 37.47 57.3329 36.658C58.2569 35.818 59.3349 35.188 60.5669 34.768C61.7989 34.32 63.0869 34.096 64.4309 34.096C66.2229 34.096 67.8189 34.432 69.2189 35.104C70.6469 35.776 71.7669 36.714 72.5789 37.918C73.4189 39.094 73.8389 40.452 73.8389 41.992C73.8389 43.28 73.5169 44.414 72.8729 45.394C72.2569 46.374 71.4029 47.2 70.3109 47.872C69.2189 48.516 67.9729 49.006 66.5729 49.342C65.2009 49.65 63.7309 49.804 62.1629 49.804H60.9869ZM85.1697 64V37.204L85.6317 34.6H89.8737V64H85.1697ZM78.7857 43.21V38.8C79.4297 38.828 80.1577 38.646 80.9697 38.254C81.8097 37.834 82.6357 37.288 83.4477 36.616C84.2597 35.944 84.9877 35.258 85.6317 34.558L88.6557 37.708C87.6757 38.744 86.6537 39.696 85.5897 40.564C84.5257 41.432 83.4197 42.104 82.2717 42.58C81.1517 43.056 79.9897 43.266 78.7857 43.21ZM96.0034 68.83L98.5234 59.296H103.479L99.6994 68.83H96.0034ZM117.848 64.504C115.86 64.504 114.166 64.14 112.766 63.412C111.394 62.656 110.288 61.648 109.448 60.388C108.608 59.1 107.992 57.616 107.6 55.936C107.208 54.228 107.012 52.408 107.012 50.476C107.012 48.124 107.25 45.954 107.726 43.966C108.23 41.978 108.972 40.242 109.952 38.758C110.932 37.274 112.15 36.126 113.606 35.314C115.09 34.502 116.812 34.096 118.772 34.096C120.284 34.096 121.768 34.334 123.224 34.81C124.708 35.258 126.024 35.888 127.172 36.7L124.652 40.228C123.784 39.612 122.832 39.15 121.796 38.842C120.788 38.534 119.85 38.38 118.982 38.38C116.546 38.38 114.656 39.43 113.312 41.53C111.996 43.63 111.394 46.892 111.506 51.316L110.498 50.56C111.142 48.964 112.164 47.69 113.564 46.738C114.964 45.758 116.63 45.268 118.562 45.268C120.438 45.268 122.104 45.702 123.56 46.57C125.016 47.41 126.15 48.572 126.962 50.056C127.774 51.512 128.18 53.178 128.18 55.054C128.18 56.874 127.746 58.498 126.878 59.926C126.038 61.354 124.834 62.474 123.266 63.286C121.726 64.098 119.92 64.504 117.848 64.504ZM117.89 60.346C118.926 60.346 119.85 60.108 120.662 59.632C121.502 59.156 122.16 58.512 122.636 57.7C123.112 56.86 123.35 55.908 123.35 54.844C123.35 53.78 123.112 52.828 122.636 51.988C122.16 51.148 121.502 50.504 120.662 50.056C119.85 49.58 118.926 49.342 117.89 49.342C116.826 49.342 115.874 49.58 115.034 50.056C114.222 50.504 113.578 51.148 113.102 51.988C112.626 52.828 112.388 53.78 112.388 54.844C112.388 55.908 112.626 56.86 113.102 57.7C113.578 58.512 114.222 59.156 115.034 59.632C115.874 60.108 116.826 60.346 117.89 60.346ZM133.356 64V34.6H138.564L147.804 48.208L156.96 34.6H162.21V64H157.338V42.286L147.762 56.44L138.228 42.37V64H133.356Z" fill="#1A1919"/>
<path d="M25.674 90V77.4H29.778C30.594 77.4 31.314 77.562 31.938 77.886C32.574 78.21 33.066 78.66 33.414 79.236C33.774 79.812 33.954 80.472 33.954 81.216C33.954 81.96 33.762 82.62 33.378 83.196C32.994 83.772 32.472 84.228 31.812 84.564C31.152 84.888 30.408 85.05 29.58 85.05H27.204V90H25.674ZM32.784 90L29.76 84.834L30.966 84.042L34.458 90H32.784ZM27.204 83.646H29.994C30.45 83.646 30.858 83.544 31.218 83.34C31.578 83.124 31.866 82.836 32.082 82.476C32.31 82.104 32.424 81.684 32.424 81.216C32.424 80.496 32.172 79.914 31.668 79.47C31.176 79.014 30.534 78.786 29.742 78.786H27.204V83.646ZM40.6496 90.216C39.7736 90.216 38.9996 90.018 38.3276 89.622C37.6556 89.214 37.1276 88.656 36.7436 87.948C36.3716 87.24 36.1856 86.424 36.1856 85.5C36.1856 84.576 36.3716 83.76 36.7436 83.052C37.1276 82.344 37.6496 81.792 38.3096 81.396C38.9816 80.988 39.7496 80.784 40.6136 80.784C41.4536 80.784 42.1796 80.994 42.7916 81.414C43.4036 81.822 43.8776 82.398 44.2136 83.142C44.5496 83.886 44.7176 84.762 44.7176 85.77H37.2836L37.6436 85.464C37.6436 86.184 37.7696 86.802 38.0216 87.318C38.2856 87.834 38.6516 88.23 39.1196 88.506C39.5876 88.77 40.1216 88.902 40.7216 88.902C41.3576 88.902 41.8916 88.752 42.3236 88.452C42.7676 88.152 43.1096 87.756 43.3496 87.264L44.5916 87.894C44.3636 88.362 44.0576 88.77 43.6736 89.118C43.3016 89.466 42.8576 89.736 42.3416 89.928C41.8376 90.12 41.2736 90.216 40.6496 90.216ZM37.7336 84.852L37.3556 84.564H43.5656L43.1876 84.87C43.1876 84.294 43.0736 83.796 42.8456 83.376C42.6176 82.956 42.3116 82.632 41.9276 82.404C41.5436 82.176 41.0996 82.062 40.5956 82.062C40.1036 82.062 39.6356 82.176 39.1916 82.404C38.7596 82.632 38.4056 82.956 38.1296 83.376C37.8656 83.784 37.7336 84.276 37.7336 84.852ZM49.2392 90L52.9112 81H54.4232L50.6612 90H49.2392ZM49.1492 90L45.3872 81H46.8812L50.5532 90H49.1492ZM59.7479 90.216C58.8719 90.216 58.0979 90.018 57.4259 89.622C56.7539 89.214 56.2259 88.656 55.8419 87.948C55.4699 87.24 55.2839 86.424 55.2839 85.5C55.2839 84.576 55.4699 83.76 55.8419 83.052C56.2259 82.344 56.7479 81.792 57.4079 81.396C58.0799 80.988 58.8479 80.784 59.7119 80.784C60.5519 80.784 61.2779 80.994 61.8899 81.414C62.5019 81.822 62.9759 82.398 63.3119 83.142C63.6479 83.886 63.8159 84.762 63.8159 85.77H56.3819L56.7419 85.464C56.7419 86.184 56.8679 86.802 57.1199 87.318C57.3839 87.834 57.7499 88.23 58.2179 88.506C58.6859 88.77 59.2199 88.902 59.8199 88.902C60.4559 88.902 60.9899 88.752 61.4219 88.452C61.8659 88.152 62.2079 87.756 62.4479 87.264L63.6899 87.894C63.4619 88.362 63.1559 88.77 62.7719 89.118C62.3999 89.466 61.9559 89.736 61.4399 89.928C60.9359 90.12 60.3719 90.216 59.7479 90.216ZM56.8319 84.852L56.4539 84.564H62.6639L62.2859 84.87C62.2859 84.294 62.1719 83.796 61.9439 83.376C61.7159 82.956 61.4099 82.632 61.0259 82.404C60.6419 82.176 60.1979 82.062 59.6939 82.062C59.2019 82.062 58.7339 82.176 58.2899 82.404C57.8579 82.632 57.5039 82.956 57.2279 83.376C56.9639 83.784 56.8319 84.276 56.8319 84.852ZM65.812 90V81H67.162L67.252 82.656V90H65.812ZM72.13 90V85.392H73.57V90H72.13ZM72.13 85.392C72.13 84.504 72.028 83.826 71.824 83.358C71.62 82.89 71.338 82.572 70.978 82.404C70.618 82.224 70.21 82.134 69.754 82.134C68.962 82.134 68.344 82.416 67.9 82.98C67.468 83.532 67.252 84.318 67.252 85.338H66.55C66.55 84.39 66.688 83.574 66.964 82.89C67.24 82.206 67.642 81.684 68.17 81.324C68.698 80.964 69.334 80.784 70.078 80.784C70.786 80.784 71.398 80.928 71.914 81.216C72.442 81.492 72.85 81.936 73.138 82.548C73.438 83.16 73.582 83.964 73.57 84.96V85.392H72.13ZM82.2031 90L82.1131 88.344V81H83.5531V90H82.2031ZM75.7951 85.608V81H77.2351V85.608H75.7951ZM77.2351 85.608C77.2351 86.496 77.3371 87.174 77.5411 87.642C77.7451 88.11 78.0271 88.434 78.3871 88.614C78.7591 88.782 79.1731 88.866 79.6291 88.866C80.4091 88.866 81.0151 88.584 81.4471 88.02C81.8911 87.456 82.1131 86.67 82.1131 85.662H82.8151C82.8151 86.61 82.6771 87.426 82.4011 88.11C82.1251 88.794 81.7231 89.316 81.1951 89.676C80.6791 90.036 80.0431 90.216 79.2871 90.216C78.5911 90.216 77.9791 90.078 77.4511 89.802C76.9231 89.514 76.5151 89.064 76.2271 88.452C75.9391 87.828 75.7951 87.024 75.7951 86.04V85.608H77.2351ZM90.1883 90.216C89.3123 90.216 88.5383 90.018 87.8663 89.622C87.1943 89.214 86.6663 88.656 86.2823 87.948C85.9103 87.24 85.7243 86.424 85.7243 85.5C85.7243 84.576 85.9103 83.76 86.2823 83.052C86.6663 82.344 87.1883 81.792 87.8483 81.396C88.5203 80.988 89.2883 80.784 90.1523 80.784C90.9923 80.784 91.7183 80.994 92.3303 81.414C92.9423 81.822 93.4163 82.398 93.7523 83.142C94.0883 83.886 94.2563 84.762 94.2563 85.77H86.8223L87.1823 85.464C87.1823 86.184 87.3083 86.802 87.5603 87.318C87.8243 87.834 88.1903 88.23 88.6583 88.506C89.1263 88.77 89.6603 88.902 90.2603 88.902C90.8963 88.902 91.4303 88.752 91.8623 88.452C92.3063 88.152 92.6483 87.756 92.8883 87.264L94.1303 87.894C93.9023 88.362 93.5963 88.77 93.2123 89.118C92.8403 89.466 92.3963 89.736 91.8803 89.928C91.3763 90.12 90.8123 90.216 90.1883 90.216ZM87.2723 84.852L86.8943 84.564H93.1043L92.7263 84.87C92.7263 84.294 92.6123 83.796 92.3843 83.376C92.1563 82.956 91.8503 82.632 91.4663 82.404C91.0823 82.176 90.6383 82.062 90.1343 82.062C89.6423 82.062 89.1743 82.176 88.7303 82.404C88.2983 82.632 87.9443 82.956 87.6683 83.376C87.4043 83.784 87.2723 84.276 87.2723 84.852ZM104.264 90.216C103.388 90.216 102.71 89.988 102.23 89.532C101.75 89.076 101.51 88.434 101.51 87.606V78.192H102.95V87.462C102.95 87.918 103.07 88.272 103.31 88.524C103.562 88.764 103.91 88.884 104.354 88.884C104.498 88.884 104.636 88.866 104.768 88.83C104.912 88.782 105.098 88.674 105.326 88.506L105.884 89.676C105.572 89.88 105.29 90.018 105.038 90.09C104.786 90.174 104.528 90.216 104.264 90.216ZM99.9437 82.278V81H105.65V82.278H99.9437ZM107.862 90V77.4H109.302V90H107.862ZM114.198 90V85.392H115.638V90H114.198ZM114.198 85.392C114.198 84.504 114.09 83.826 113.874 83.358C113.67 82.89 113.388 82.572 113.028 82.404C112.668 82.224 112.26 82.134 111.804 82.134C111.012 82.134 110.394 82.416 109.95 82.98C109.518 83.532 109.302 84.318 109.302 85.338H108.6C108.6 84.39 108.738 83.574 109.014 82.89C109.302 82.206 109.71 81.684 110.238 81.324C110.766 80.964 111.402 80.784 112.146 80.784C112.842 80.784 113.454 80.928 113.982 81.216C114.51 81.492 114.918 81.936 115.206 82.548C115.506 83.16 115.65 83.964 115.638 84.96V85.392H114.198ZM118.17 90V81H119.61V90H118.17ZM118.908 78.912C118.668 78.912 118.458 78.822 118.278 78.642C118.098 78.462 118.008 78.252 118.008 78.012C118.008 77.76 118.098 77.55 118.278 77.382C118.458 77.202 118.668 77.112 118.908 77.112C119.16 77.112 119.37 77.202 119.538 77.382C119.718 77.55 119.808 77.76 119.808 78.012C119.808 78.252 119.718 78.462 119.538 78.642C119.37 78.822 119.16 78.912 118.908 78.912ZM125.593 90.216C124.933 90.216 124.357 90.12 123.865 89.928C123.373 89.724 122.959 89.46 122.623 89.136C122.299 88.812 122.065 88.458 121.921 88.074L123.181 87.552C123.385 87.96 123.691 88.29 124.099 88.542C124.507 88.794 124.957 88.92 125.449 88.92C126.013 88.92 126.487 88.812 126.871 88.596C127.255 88.368 127.447 88.05 127.447 87.642C127.447 87.27 127.303 86.97 127.015 86.742C126.739 86.514 126.325 86.328 125.773 86.184L124.909 85.95C124.093 85.734 123.457 85.41 123.001 84.978C122.545 84.534 122.317 84.036 122.317 83.484C122.317 82.632 122.593 81.972 123.145 81.504C123.709 81.024 124.543 80.784 125.647 80.784C126.175 80.784 126.655 80.862 127.087 81.018C127.519 81.174 127.891 81.396 128.203 81.684C128.515 81.96 128.743 82.29 128.887 82.674L127.627 83.232C127.471 82.824 127.213 82.53 126.853 82.35C126.493 82.17 126.055 82.08 125.539 82.08C124.987 82.08 124.555 82.2 124.243 82.44C123.931 82.668 123.775 82.992 123.775 83.412C123.775 83.652 123.901 83.88 124.153 84.096C124.417 84.3 124.801 84.468 125.305 84.6L126.205 84.834C126.793 84.978 127.285 85.194 127.681 85.482C128.077 85.758 128.377 86.076 128.581 86.436C128.785 86.796 128.887 87.18 128.887 87.588C128.887 88.128 128.743 88.596 128.455 88.992C128.167 89.388 127.777 89.694 127.285 89.91C126.793 90.114 126.229 90.216 125.593 90.216ZM136.445 93.816C136.217 93.816 135.953 93.768 135.653 93.672C135.353 93.588 135.035 93.474 134.699 93.33L135.239 92.124C135.515 92.244 135.755 92.334 135.959 92.394C136.175 92.454 136.343 92.484 136.463 92.484C136.787 92.484 137.051 92.394 137.255 92.214C137.471 92.046 137.651 91.8 137.795 91.476L138.821 89.028L142.151 81H143.699L139.379 91.26C139.151 91.788 138.911 92.244 138.659 92.628C138.419 93.012 138.125 93.306 137.777 93.51C137.429 93.714 136.985 93.816 136.445 93.816ZM138.425 90L134.537 81H136.067L139.415 89.01L139.847 90H138.425ZM149.021 90.216C148.145 90.216 147.371 90.018 146.699 89.622C146.027 89.214 145.499 88.656 145.115 87.948C144.743 87.24 144.557 86.424 144.557 85.5C144.557 84.576 144.743 83.76 145.115 83.052C145.499 82.344 146.021 81.792 146.681 81.396C147.353 80.988 148.121 80.784 148.985 80.784C149.825 80.784 150.551 80.994 151.163 81.414C151.775 81.822 152.249 82.398 152.585 83.142C152.921 83.886 153.089 84.762 153.089 85.77H145.655L146.015 85.464C146.015 86.184 146.141 86.802 146.393 87.318C146.657 87.834 147.023 88.23 147.491 88.506C147.959 88.77 148.493 88.902 149.093 88.902C149.729 88.902 150.263 88.752 150.695 88.452C151.139 88.152 151.481 87.756 151.721 87.264L152.963 87.894C152.735 88.362 152.429 88.77 152.045 89.118C151.673 89.466 151.229 89.736 150.713 89.928C150.209 90.12 149.645 90.216 149.021 90.216ZM146.105 84.852L145.727 84.564H151.937L151.559 84.87C151.559 84.294 151.445 83.796 151.217 83.376C150.989 82.956 150.683 82.632 150.299 82.404C149.915 82.176 149.471 82.062 148.967 82.062C148.475 82.062 148.007 82.176 147.563 82.404C147.131 82.632 146.777 82.956 146.501 83.376C146.237 83.784 146.105 84.276 146.105 84.852ZM160.629 90L160.557 88.524V85.248C160.557 84.54 160.479 83.958 160.323 83.502C160.167 83.034 159.921 82.68 159.585 82.44C159.249 82.2 158.811 82.08 158.271 82.08C157.779 82.08 157.353 82.182 156.993 82.386C156.645 82.578 156.357 82.89 156.129 83.322L154.833 82.818C155.061 82.398 155.337 82.038 155.661 81.738C155.985 81.426 156.363 81.192 156.795 81.036C157.227 80.868 157.719 80.784 158.271 80.784C159.111 80.784 159.801 80.952 160.341 81.288C160.893 81.612 161.307 82.098 161.583 82.746C161.859 83.382 161.991 84.174 161.979 85.122L161.961 90H160.629ZM157.929 90.216C156.873 90.216 156.045 89.976 155.445 89.496C154.857 89.004 154.563 88.326 154.563 87.462C154.563 86.55 154.863 85.854 155.463 85.374C156.075 84.882 156.927 84.636 158.019 84.636H160.593V85.842H158.343C157.503 85.842 156.903 85.98 156.543 86.256C156.195 86.532 156.021 86.928 156.021 87.444C156.021 87.912 156.195 88.284 156.543 88.56C156.891 88.824 157.377 88.956 158.001 88.956C158.517 88.956 158.967 88.848 159.351 88.632C159.735 88.404 160.029 88.086 160.233 87.678C160.449 87.258 160.557 86.766 160.557 86.202H161.169C161.169 87.426 160.893 88.404 160.341 89.136C159.789 89.856 158.985 90.216 157.929 90.216ZM165.233 85.122C165.233 84.15 165.419 83.364 165.791 82.764C166.163 82.152 166.637 81.702 167.213 81.414C167.801 81.114 168.419 80.964 169.067 80.964V82.314C168.539 82.314 168.029 82.404 167.537 82.584C167.057 82.752 166.661 83.034 166.349 83.43C166.037 83.826 165.881 84.366 165.881 85.05L165.233 85.122ZM164.441 90V81H165.881V90H164.441Z" fill="#1A1919"/>
<rect opacity="0.3" x="24" y="131" width="181" height="9" rx="4.5" fill="#AFAFAF"/>
<rect x="24" y="131" width="99.9709" height="9" rx="4.5" fill="url(#paint0_linear_2085_774)"/>
<path d="M28.38 158.18C27.92 158.18 27.45 158.11 26.97 157.97C26.5 157.82 26.065 157.6 25.665 157.31C25.265 157.01 24.96 156.635 24.75 156.185L26.295 155.615C26.555 155.985 26.86 156.255 27.21 156.425C27.56 156.585 27.92 156.665 28.29 156.665C28.88 156.665 29.36 156.49 29.73 156.14C30.1 155.78 30.285 155.305 30.285 154.715C30.285 154.145 30.105 153.675 29.745 153.305C29.385 152.935 28.915 152.75 28.335 152.75C27.995 152.75 27.675 152.825 27.375 152.975C27.085 153.125 26.86 153.305 26.7 153.515L25.125 153.17L25.71 147.5H31.515V149.075H27.21L26.91 151.925C27.18 151.765 27.48 151.64 27.81 151.55C28.15 151.45 28.505 151.4 28.875 151.4C29.475 151.4 30.015 151.54 30.495 151.82C30.975 152.1 31.355 152.485 31.635 152.975C31.915 153.455 32.055 154.01 32.055 154.64C32.055 155.34 31.895 155.955 31.575 156.485C31.265 157.015 30.835 157.43 30.285 157.73C29.735 158.03 29.1 158.18 28.38 158.18ZM37.6519 158.18C36.8319 158.18 36.1019 157.95 35.4619 157.49C34.8219 157.02 34.3169 156.38 33.9469 155.57C33.5869 154.75 33.4069 153.81 33.4069 152.75C33.4069 151.69 33.5869 150.755 33.9469 149.945C34.3169 149.125 34.8169 148.485 35.4469 148.025C36.0869 147.555 36.8219 147.32 37.6519 147.32C38.4819 147.32 39.2169 147.555 39.8569 148.025C40.4969 148.485 40.9969 149.125 41.3569 149.945C41.7269 150.755 41.9119 151.69 41.9119 152.75C41.9119 153.81 41.7269 154.75 41.3569 155.57C40.9969 156.38 40.4969 157.02 39.8569 157.49C39.2269 157.95 38.4919 158.18 37.6519 158.18ZM37.6669 156.605C38.1569 156.605 38.5919 156.44 38.9719 156.11C39.3619 155.78 39.6619 155.325 39.8719 154.745C40.0919 154.165 40.2019 153.5 40.2019 152.75C40.2019 152 40.0919 151.335 39.8719 150.755C39.6619 150.165 39.3619 149.705 38.9719 149.375C38.5919 149.045 38.1519 148.88 37.6519 148.88C37.1519 148.88 36.7119 149.045 36.3319 149.375C35.9519 149.705 35.6519 150.16 35.4319 150.74C35.2219 151.32 35.1169 151.99 35.1169 152.75C35.1169 153.5 35.2219 154.165 35.4319 154.745C35.6519 155.325 35.9519 155.78 36.3319 156.11C36.7219 156.44 37.1669 156.605 37.6669 156.605ZM44.0348 158L51.4898 147.5H53.2298L45.7298 158H44.0348ZM51.6248 158.24C51.1548 158.24 50.7398 158.13 50.3798 157.91C50.0198 157.69 49.7348 157.385 49.5248 156.995C49.3248 156.605 49.2248 156.165 49.2248 155.675C49.2248 155.175 49.3248 154.735 49.5248 154.355C49.7248 153.975 50.0048 153.675 50.3648 153.455C50.7348 153.235 51.1548 153.125 51.6248 153.125C52.0948 153.125 52.5098 153.235 52.8698 153.455C53.2298 153.675 53.5098 153.975 53.7098 154.355C53.9198 154.735 54.0248 155.175 54.0248 155.675C54.0248 156.165 53.9198 156.605 53.7098 156.995C53.5098 157.385 53.2298 157.69 52.8698 157.91C52.5098 158.13 52.0948 158.24 51.6248 158.24ZM51.6248 157.055C51.9548 157.055 52.2248 156.925 52.4348 156.665C52.6448 156.405 52.7498 156.075 52.7498 155.675C52.7498 155.285 52.6448 154.96 52.4348 154.7C52.2248 154.43 51.9548 154.295 51.6248 154.295C51.2948 154.295 51.0198 154.43 50.7998 154.7C50.5898 154.96 50.4848 155.285 50.4848 155.675C50.4848 156.075 50.5898 156.405 50.7998 156.665C51.0198 156.925 51.2948 157.055 51.6248 157.055ZM45.6848 152.375C45.2248 152.375 44.8098 152.265 44.4398 152.045C44.0798 151.825 43.7998 151.52 43.5998 151.13C43.3998 150.74 43.2998 150.3 43.2998 149.81C43.2998 149.31 43.3998 148.87 43.5998 148.49C43.7998 148.11 44.0798 147.81 44.4398 147.59C44.8098 147.37 45.2298 147.26 45.6998 147.26C46.1698 147.26 46.5848 147.37 46.9448 147.59C47.3048 147.81 47.5848 148.11 47.7848 148.49C47.9848 148.87 48.0848 149.31 48.0848 149.81C48.0848 150.3 47.9848 150.74 47.7848 151.13C47.5848 151.52 47.2998 151.825 46.9298 152.045C46.5698 152.265 46.1548 152.375 45.6848 152.375ZM45.6848 151.19C46.0248 151.19 46.2998 151.06 46.5098 150.8C46.7198 150.54 46.8248 150.21 46.8248 149.81C46.8248 149.42 46.7198 149.095 46.5098 148.835C46.2998 148.575 46.0248 148.445 45.6848 148.445C45.3548 148.445 45.0848 148.575 44.8748 148.835C44.6648 149.095 44.5598 149.42 44.5598 149.81C44.5598 150.21 44.6648 150.54 44.8748 150.8C45.0848 151.06 45.3548 151.19 45.6848 151.19Z" fill="#1A1919"/>
<path d="M160.281 158.18C159.401 158.18 158.621 157.95 157.941 157.49C157.261 157.02 156.731 156.38 156.351 155.57C155.971 154.75 155.781 153.81 155.781 152.75C155.781 151.69 155.971 150.755 156.351 149.945C156.731 149.125 157.256 148.485 157.926 148.025C158.606 147.555 159.381 147.32 160.251 147.32C160.831 147.32 161.376 147.44 161.886 147.68C162.406 147.91 162.856 148.24 163.236 148.67C163.626 149.09 163.931 149.58 164.151 150.14L162.636 150.785C162.486 150.415 162.286 150.09 162.036 149.81C161.796 149.53 161.521 149.31 161.211 149.15C160.911 148.99 160.591 148.91 160.251 148.91C159.731 148.91 159.266 149.075 158.856 149.405C158.446 149.735 158.126 150.19 157.896 150.77C157.666 151.34 157.551 152 157.551 152.75C157.551 153.5 157.666 154.165 157.896 154.745C158.136 155.325 158.461 155.78 158.871 156.11C159.281 156.43 159.756 156.59 160.296 156.59C160.646 156.59 160.971 156.505 161.271 156.335C161.581 156.165 161.851 155.935 162.081 155.645C162.321 155.345 162.516 155 162.666 154.61L164.181 155.255C163.971 155.825 163.671 156.335 163.281 156.785C162.891 157.225 162.441 157.57 161.931 157.82C161.421 158.06 160.871 158.18 160.281 158.18ZM154.641 154.16V153.185H161.361V154.16H154.641ZM154.641 152.315V151.34H161.361V152.315H154.641ZM168.916 158.18C168.346 158.18 167.826 158.095 167.356 157.925C166.886 157.755 166.491 157.515 166.171 157.205C165.851 156.895 165.621 156.545 165.481 156.155L167.041 155.57C167.121 155.71 167.231 155.865 167.371 156.035C167.511 156.205 167.696 156.355 167.926 156.485C168.156 156.605 168.451 156.665 168.811 156.665C169.381 156.665 169.831 156.505 170.161 156.185C170.501 155.855 170.671 155.44 170.671 154.94C170.671 154.58 170.576 154.27 170.386 154.01C170.206 153.75 169.921 153.55 169.531 153.41C169.151 153.27 168.671 153.2 168.091 153.2H167.611V151.97H168.046C168.656 151.97 169.221 152.04 169.741 152.18C170.271 152.32 170.736 152.53 171.136 152.81C171.546 153.08 171.861 153.41 172.081 153.8C172.311 154.19 172.426 154.63 172.426 155.12C172.426 155.75 172.261 156.295 171.931 156.755C171.611 157.215 171.186 157.57 170.656 157.82C170.126 158.06 169.546 158.18 168.916 158.18ZM167.611 152.93V151.76H168.091C168.861 151.76 169.446 151.63 169.846 151.37C170.246 151.11 170.446 150.745 170.446 150.275C170.446 150.005 170.376 149.765 170.236 149.555C170.106 149.335 169.916 149.16 169.666 149.03C169.416 148.9 169.121 148.835 168.781 148.835C168.561 148.835 168.346 148.87 168.136 148.94C167.926 149.01 167.731 149.12 167.551 149.27C167.371 149.42 167.221 149.615 167.101 149.855L165.586 149.3C165.736 148.88 165.976 148.525 166.306 148.235C166.636 147.935 167.021 147.71 167.461 147.56C167.901 147.4 168.361 147.32 168.841 147.32C169.481 147.32 170.051 147.44 170.551 147.68C171.061 147.92 171.461 148.255 171.751 148.685C172.051 149.105 172.201 149.59 172.201 150.14C172.201 150.6 172.086 151.005 171.856 151.355C171.636 151.705 171.331 152 170.941 152.24C170.551 152.47 170.106 152.645 169.606 152.765C169.116 152.875 168.591 152.93 168.031 152.93H167.611ZM176.248 158V148.43L176.413 147.5H177.928V158H176.248ZM173.968 150.575V149C174.198 149.01 174.458 148.945 174.748 148.805C175.048 148.655 175.343 148.46 175.633 148.22C175.923 147.98 176.183 147.735 176.413 147.485L177.493 148.61C177.143 148.98 176.778 149.32 176.398 149.63C176.018 149.94 175.623 150.18 175.213 150.35C174.813 150.52 174.398 150.595 173.968 150.575ZM180.117 159.725L181.017 156.32H182.787L181.437 159.725H180.117ZM187.919 158.18C187.209 158.18 186.604 158.05 186.104 157.79C185.614 157.52 185.219 157.16 184.919 156.71C184.619 156.25 184.399 155.72 184.259 155.12C184.119 154.51 184.049 153.86 184.049 153.17C184.049 152.33 184.134 151.555 184.304 150.845C184.484 150.135 184.749 149.515 185.099 148.985C185.449 148.455 185.884 148.045 186.404 147.755C186.934 147.465 187.549 147.32 188.249 147.32C188.789 147.32 189.319 147.405 189.839 147.575C190.369 147.735 190.839 147.96 191.249 148.25L190.349 149.51C190.039 149.29 189.699 149.125 189.329 149.015C188.969 148.905 188.634 148.85 188.324 148.85C187.454 148.85 186.779 149.225 186.299 149.975C185.829 150.725 185.614 151.89 185.654 153.47L185.294 153.2C185.524 152.63 185.889 152.175 186.389 151.835C186.889 151.485 187.484 151.31 188.174 151.31C188.844 151.31 189.439 151.465 189.959 151.775C190.479 152.075 190.884 152.49 191.174 153.02C191.464 153.54 191.609 154.135 191.609 154.805C191.609 155.455 191.454 156.035 191.144 156.545C190.844 157.055 190.414 157.455 189.854 157.745C189.304 158.035 188.659 158.18 187.919 158.18ZM187.934 156.695C188.304 156.695 188.634 156.61 188.924 156.44C189.224 156.27 189.459 156.04 189.629 155.75C189.799 155.45 189.884 155.11 189.884 154.73C189.884 154.35 189.799 154.01 189.629 153.71C189.459 153.41 189.224 153.18 188.924 153.02C188.634 152.85 188.304 152.765 187.934 152.765C187.554 152.765 187.214 152.85 186.914 153.02C186.624 153.18 186.394 153.41 186.224 153.71C186.054 154.01 185.969 154.35 185.969 154.73C185.969 155.11 186.054 155.45 186.224 155.75C186.394 156.04 186.624 156.27 186.914 156.44C187.214 156.61 187.554 156.695 187.934 156.695ZM193.457 158V147.5H195.317L198.617 152.36L201.887 147.5H203.762V158H202.022V150.245L198.602 155.3L195.197 150.275V158H193.457Z" fill="#1A1919"/>
</g>
<path d="M252.079 37V27.9H255.082C255.706 27.9 256.243 27.9953 256.694 28.186C257.153 28.3767 257.509 28.6627 257.76 29.044C258.011 29.4167 258.137 29.8847 258.137 30.448C258.137 30.838 258.042 31.189 257.851 31.501C257.669 31.813 257.409 32.073 257.071 32.281C257.513 32.4977 257.851 32.788 258.085 33.152C258.319 33.516 258.436 33.9493 258.436 34.452C258.436 34.9893 258.315 35.4487 258.072 35.83C257.829 36.2113 257.487 36.5017 257.045 36.701C256.603 36.9003 256.079 37 255.472 37H252.079ZM253.561 35.648H255.355C255.832 35.648 256.209 35.531 256.486 35.297C256.763 35.063 256.902 34.7467 256.902 34.348C256.902 33.9147 256.746 33.5767 256.434 33.334C256.131 33.0913 255.702 32.97 255.147 32.97H253.561V35.648ZM253.561 31.722H255.212C255.645 31.722 255.983 31.6093 256.226 31.384C256.477 31.15 256.603 30.8293 256.603 30.422C256.603 30.006 256.46 29.6897 256.174 29.473C255.897 29.2477 255.507 29.135 255.004 29.135H253.561V31.722ZM263.9 33.23L262.509 32.788L265.447 27.9H267.176L263.9 33.23ZM262.431 37V32.632H263.939V37H262.431ZM262.47 33.23L259.194 27.9H260.923L263.861 32.788L262.47 33.23ZM271.753 37V27.9H274.964C275.588 27.9 276.139 28.0257 276.615 28.277C277.092 28.5283 277.465 28.8793 277.733 29.33C278.002 29.772 278.136 30.2877 278.136 30.877C278.136 31.449 278.011 31.9603 277.759 32.411C277.508 32.8617 277.157 33.217 276.706 33.477C276.264 33.7283 275.749 33.854 275.159 33.854H273.261V37H271.753ZM273.261 32.463H275.133C275.567 32.463 275.922 32.3157 276.199 32.021C276.477 31.7263 276.615 31.345 276.615 30.877C276.615 30.4003 276.459 30.0147 276.147 29.72C275.835 29.4253 275.432 29.278 274.938 29.278H273.261V32.463ZM279.602 37V27.9H282.813C283.437 27.9 283.987 28.0213 284.464 28.264C284.941 28.5067 285.313 28.8447 285.582 29.278C285.851 29.7027 285.985 30.1967 285.985 30.76C285.985 31.3233 285.842 31.8217 285.556 32.255C285.279 32.6883 284.893 33.0307 284.399 33.282C283.905 33.5247 283.346 33.646 282.722 33.646H281.11V37H279.602ZM284.646 37L282.514 33.308L283.684 32.502L286.349 37H284.646ZM281.11 32.255H282.878C283.173 32.255 283.433 32.19 283.658 32.06C283.892 31.93 284.078 31.7523 284.217 31.527C284.364 31.3017 284.438 31.046 284.438 30.76C284.438 30.3267 284.282 29.9713 283.97 29.694C283.658 29.4167 283.255 29.278 282.761 29.278H281.11V32.255ZM292.052 37.156C291.151 37.156 290.354 36.9567 289.66 36.558C288.967 36.1593 288.421 35.6047 288.022 34.894C287.632 34.1833 287.437 33.3687 287.437 32.45C287.437 31.5313 287.632 30.721 288.022 30.019C288.421 29.3083 288.963 28.7537 289.647 28.355C290.332 27.9477 291.121 27.744 292.013 27.744C292.915 27.744 293.708 27.9477 294.392 28.355C295.086 28.7537 295.623 29.3083 296.004 30.019C296.394 30.721 296.589 31.5313 296.589 32.45C296.589 33.3687 296.394 34.1833 296.004 34.894C295.623 35.6047 295.09 36.1593 294.405 36.558C293.729 36.9567 292.945 37.156 292.052 37.156ZM292.052 35.778C292.642 35.778 293.162 35.635 293.612 35.349C294.063 35.063 294.414 34.673 294.665 34.179C294.925 33.6763 295.055 33.1 295.055 32.45C295.055 31.8087 294.925 31.2367 294.665 30.734C294.405 30.2313 294.046 29.8413 293.586 29.564C293.136 29.278 292.611 29.135 292.013 29.135C291.424 29.135 290.9 29.278 290.44 29.564C289.99 29.8413 289.63 30.2313 289.361 30.734C289.101 31.228 288.971 31.8 288.971 32.45C288.971 33.1 289.101 33.6763 289.361 34.179C289.63 34.673 289.994 35.063 290.453 35.349C290.921 35.635 291.454 35.778 292.052 35.778ZM298.321 37V27.9H301.181C302.074 27.9 302.862 28.095 303.547 28.485C304.24 28.8663 304.782 29.3993 305.172 30.084C305.571 30.7687 305.77 31.5573 305.77 32.45C305.77 33.334 305.571 34.1183 305.172 34.803C304.782 35.4877 304.24 36.025 303.547 36.415C302.862 36.805 302.074 37 301.181 37H298.321ZM299.829 35.596H301.181C301.606 35.596 302.004 35.518 302.377 35.362C302.75 35.1973 303.075 34.972 303.352 34.686C303.629 34.4 303.846 34.0663 304.002 33.685C304.158 33.3037 304.236 32.892 304.236 32.45C304.236 32.008 304.158 31.5963 304.002 31.215C303.846 30.8337 303.629 30.5 303.352 30.214C303.075 29.928 302.75 29.707 302.377 29.551C302.004 29.3863 301.606 29.304 301.181 29.304H299.829V35.596ZM310.961 37.182C310.242 37.182 309.609 37.039 309.063 36.753C308.526 36.4583 308.105 36.0467 307.802 35.518C307.507 34.9893 307.36 34.374 307.36 33.672V27.9H308.868V33.672C308.868 34.0967 308.955 34.4693 309.128 34.79C309.31 35.102 309.561 35.349 309.882 35.531C310.203 35.7043 310.571 35.791 310.987 35.791C311.412 35.791 311.784 35.7043 312.105 35.531C312.434 35.349 312.686 35.102 312.859 34.79C313.032 34.4693 313.119 34.0967 313.119 33.672V27.9H314.627V33.672C314.627 34.374 314.475 34.9893 314.172 35.518C313.877 36.0467 313.453 36.4583 312.898 36.753C312.352 37.039 311.706 37.182 310.961 37.182ZM320.725 37.156C319.85 37.156 319.07 36.9567 318.385 36.558C317.709 36.1507 317.176 35.596 316.786 34.894C316.405 34.1833 316.214 33.3687 316.214 32.45C316.214 31.5313 316.405 30.721 316.786 30.019C317.176 29.3083 317.709 28.7537 318.385 28.355C319.061 27.9477 319.837 27.744 320.712 27.744C321.301 27.744 321.856 27.8523 322.376 28.069C322.896 28.277 323.355 28.5673 323.754 28.94C324.161 29.3127 324.473 29.746 324.69 30.24L323.312 30.799C323.156 30.4697 322.944 30.1793 322.675 29.928C322.415 29.668 322.116 29.4687 321.778 29.33C321.44 29.1913 321.085 29.122 320.712 29.122C320.14 29.122 319.629 29.265 319.178 29.551C318.736 29.837 318.385 30.2313 318.125 30.734C317.874 31.228 317.748 31.8 317.748 32.45C317.748 33.1 317.874 33.6763 318.125 34.179C318.385 34.6817 318.74 35.076 319.191 35.362C319.65 35.648 320.17 35.791 320.751 35.791C321.132 35.791 321.488 35.7173 321.817 35.57C322.155 35.414 322.454 35.2017 322.714 34.933C322.983 34.6643 323.195 34.3523 323.351 33.997L324.729 34.556C324.512 35.0673 324.205 35.5223 323.806 35.921C323.407 36.311 322.944 36.6143 322.415 36.831C321.886 37.0477 321.323 37.156 320.725 37.156ZM328.196 37V29.278H325.401V27.9H332.499V29.278H329.704V37H328.196Z" fill="#1C1F37"/>
<path d="M256 48.5H381.5V57.5H256C253.515 57.5 251.5 55.4853 251.5 53C251.5 50.5147 253.515 48.5 256 48.5Z" fill="#017EFA" stroke="white"/>
<path d="M399.5 48.5V57.5H382.5V48.5H399.5Z" fill="#FD1F9B" stroke="white"/>
<rect x="400.5" y="48.5" width="17" height="9" fill="#30D987" stroke="white"/>
<path d="M422 48.5C424.485 48.5 426.5 50.5147 426.5 53C426.5 55.4853 424.485 57.5 422 57.5H418.5V48.5H422Z" fill="#6342FF" stroke="white"/>
<rect x="251" y="76.5" width="9" height="9" rx="4.5" fill="#017EFA"/>
<path d="M275.432 86.168C274.499 86.168 273.673 85.9533 272.954 85.524C272.235 85.0853 271.671 84.488 271.26 83.732C270.849 82.9667 270.644 82.0893 270.644 81.1C270.644 80.1107 270.845 79.238 271.246 78.482C271.657 77.7167 272.217 77.1193 272.926 76.69C273.645 76.2513 274.466 76.032 275.39 76.032C275.978 76.032 276.543 76.1393 277.084 76.354C277.625 76.5593 278.111 76.8533 278.54 77.236C278.969 77.6093 279.301 78.0433 279.534 78.538L278.512 79.056C278.325 78.664 278.069 78.3233 277.742 78.034C277.415 77.7447 277.051 77.5207 276.65 77.362C276.249 77.194 275.829 77.11 275.39 77.11C274.709 77.11 274.097 77.2827 273.556 77.628C273.015 77.964 272.59 78.4307 272.282 79.028C271.983 79.6253 271.834 80.316 271.834 81.1C271.834 81.884 271.988 82.5793 272.296 83.186C272.604 83.7927 273.029 84.2687 273.57 84.614C274.121 84.95 274.741 85.118 275.432 85.118C275.88 85.118 276.305 85.0293 276.706 84.852C277.107 84.6653 277.467 84.4133 277.784 84.096C278.111 83.7787 278.367 83.4147 278.554 83.004L279.59 83.522C279.347 84.0353 279.011 84.4927 278.582 84.894C278.162 85.2953 277.677 85.608 277.126 85.832C276.585 86.056 276.02 86.168 275.432 86.168ZM285.522 86L285.466 84.852V82.304C285.466 81.7533 285.405 81.3007 285.284 80.946C285.163 80.582 284.971 80.3067 284.71 80.12C284.449 79.9333 284.108 79.84 283.688 79.84C283.305 79.84 282.974 79.9193 282.694 80.078C282.423 80.2273 282.199 80.47 282.022 80.806L281.014 80.414C281.191 80.0873 281.406 79.8073 281.658 79.574C281.91 79.3313 282.204 79.1493 282.54 79.028C282.876 78.8973 283.259 78.832 283.688 78.832C284.341 78.832 284.878 78.9627 285.298 79.224C285.727 79.476 286.049 79.854 286.264 80.358C286.479 80.8527 286.581 81.4687 286.572 82.206L286.558 86H285.522ZM283.422 86.168C282.601 86.168 281.957 85.9813 281.49 85.608C281.033 85.2253 280.804 84.698 280.804 84.026C280.804 83.3167 281.037 82.7753 281.504 82.402C281.98 82.0193 282.643 81.828 283.492 81.828H285.494V82.766H283.744C283.091 82.766 282.624 82.8733 282.344 83.088C282.073 83.3027 281.938 83.6107 281.938 84.012C281.938 84.376 282.073 84.6653 282.344 84.88C282.615 85.0853 282.993 85.188 283.478 85.188C283.879 85.188 284.229 85.104 284.528 84.936C284.827 84.7587 285.055 84.5113 285.214 84.194C285.382 83.8673 285.466 83.4847 285.466 83.046H285.942C285.942 83.998 285.727 84.7587 285.298 85.328C284.869 85.888 284.243 86.168 283.422 86.168ZM290.937 86.168C290.423 86.168 289.975 86.0933 289.593 85.944C289.21 85.7853 288.888 85.58 288.627 85.328C288.375 85.076 288.193 84.8007 288.081 84.502L289.061 84.096C289.219 84.4133 289.457 84.67 289.775 84.866C290.092 85.062 290.442 85.16 290.825 85.16C291.263 85.16 291.632 85.076 291.931 84.908C292.229 84.7307 292.379 84.4833 292.379 84.166C292.379 83.8767 292.267 83.6433 292.043 83.466C291.828 83.2887 291.506 83.144 291.077 83.032L290.405 82.85C289.77 82.682 289.275 82.43 288.921 82.094C288.566 81.7487 288.389 81.3613 288.389 80.932C288.389 80.2693 288.603 79.756 289.033 79.392C289.471 79.0187 290.12 78.832 290.979 78.832C291.389 78.832 291.763 78.8927 292.099 79.014C292.435 79.1353 292.724 79.308 292.967 79.532C293.209 79.7467 293.387 80.0033 293.499 80.302L292.519 80.736C292.397 80.4187 292.197 80.19 291.917 80.05C291.637 79.91 291.296 79.84 290.895 79.84C290.465 79.84 290.129 79.9333 289.887 80.12C289.644 80.2973 289.523 80.5493 289.523 80.876C289.523 81.0627 289.621 81.24 289.817 81.408C290.022 81.5667 290.321 81.6973 290.713 81.8L291.413 81.982C291.87 82.094 292.253 82.262 292.561 82.486C292.869 82.7007 293.102 82.948 293.261 83.228C293.419 83.508 293.499 83.8067 293.499 84.124C293.499 84.544 293.387 84.908 293.163 85.216C292.939 85.524 292.635 85.762 292.253 85.93C291.87 86.0887 291.431 86.168 290.937 86.168ZM295.148 86V76.2H296.268V86H295.148ZM300.076 86V82.416H301.196V86H300.076ZM300.076 82.416C300.076 81.7253 299.992 81.198 299.824 80.834C299.665 80.47 299.446 80.2227 299.166 80.092C298.886 79.952 298.569 79.882 298.214 79.882C297.598 79.882 297.117 80.1013 296.772 80.54C296.436 80.9693 296.268 81.5807 296.268 82.374H295.722C295.722 81.6367 295.829 81.002 296.044 80.47C296.268 79.938 296.585 79.532 296.996 79.252C297.407 78.972 297.901 78.832 298.48 78.832C299.021 78.832 299.497 78.944 299.908 79.168C300.319 79.3827 300.636 79.728 300.86 80.204C301.093 80.68 301.205 81.3053 301.196 82.08V82.416H300.076ZM306.694 86V76.2H307.814V86H306.694ZM313.004 86.168C312.323 86.168 311.716 86.014 311.184 85.706C310.661 85.3887 310.251 84.9547 309.952 84.404C309.653 83.8533 309.504 83.2187 309.504 82.5C309.504 81.7813 309.649 81.1467 309.938 80.596C310.237 80.0453 310.647 79.616 311.17 79.308C311.702 78.9907 312.304 78.832 312.976 78.832C313.667 78.832 314.273 78.9907 314.796 79.308C315.328 79.616 315.739 80.0453 316.028 80.596C316.327 81.1467 316.476 81.7813 316.476 82.5C316.476 83.2187 316.327 83.8533 316.028 84.404C315.739 84.9547 315.333 85.3887 314.81 85.706C314.287 86.014 313.685 86.168 313.004 86.168ZM313.004 85.132C313.471 85.132 313.877 85.02 314.222 84.796C314.567 84.572 314.838 84.264 315.034 83.872C315.239 83.48 315.342 83.0227 315.342 82.5C315.342 81.9773 315.239 81.52 315.034 81.128C314.838 80.736 314.563 80.428 314.208 80.204C313.853 79.98 313.443 79.868 312.976 79.868C312.519 79.868 312.113 79.98 311.758 80.204C311.413 80.428 311.137 80.736 310.932 81.128C310.736 81.52 310.638 81.9773 310.638 82.5C310.638 83.0133 310.736 83.4707 310.932 83.872C311.137 84.264 311.417 84.572 311.772 84.796C312.136 85.02 312.547 85.132 313.004 85.132ZM322.483 86L322.427 84.852V82.304C322.427 81.7533 322.366 81.3007 322.245 80.946C322.124 80.582 321.932 80.3067 321.671 80.12C321.41 79.9333 321.069 79.84 320.649 79.84C320.266 79.84 319.935 79.9193 319.655 80.078C319.384 80.2273 319.16 80.47 318.983 80.806L317.975 80.414C318.152 80.0873 318.367 79.8073 318.619 79.574C318.871 79.3313 319.165 79.1493 319.501 79.028C319.837 78.8973 320.22 78.832 320.649 78.832C321.302 78.832 321.839 78.9627 322.259 79.224C322.688 79.476 323.01 79.854 323.225 80.358C323.44 80.8527 323.542 81.4687 323.533 82.206L323.519 86H322.483ZM320.383 86.168C319.562 86.168 318.918 85.9813 318.451 85.608C317.994 85.2253 317.765 84.698 317.765 84.026C317.765 83.3167 317.998 82.7753 318.465 82.402C318.941 82.0193 319.604 81.828 320.453 81.828H322.455V82.766H320.705C320.052 82.766 319.585 82.8733 319.305 83.088C319.034 83.3027 318.899 83.6107 318.899 84.012C318.899 84.376 319.034 84.6653 319.305 84.88C319.576 85.0853 319.954 85.188 320.439 85.188C320.84 85.188 321.19 85.104 321.489 84.936C321.788 84.7587 322.016 84.5113 322.175 84.194C322.343 83.8673 322.427 83.4847 322.427 83.046H322.903C322.903 83.998 322.688 84.7587 322.259 85.328C321.83 85.888 321.204 86.168 320.383 86.168ZM325.448 86V79H326.498L326.568 80.288V86H325.448ZM330.362 86V82.416H331.482V86H330.362ZM330.362 82.416C330.362 81.7253 330.282 81.198 330.124 80.834C329.965 80.47 329.746 80.2227 329.466 80.092C329.186 79.952 328.868 79.882 328.514 79.882C327.898 79.882 327.417 80.1013 327.072 80.54C326.736 80.9693 326.568 81.5807 326.568 82.374H326.022C326.022 81.6367 326.129 81.002 326.344 80.47C326.558 79.938 326.871 79.532 327.282 79.252C327.692 78.972 328.187 78.832 328.766 78.832C329.316 78.832 329.792 78.944 330.194 79.168C330.604 79.3827 330.922 79.728 331.146 80.204C331.379 80.68 331.491 81.3053 331.482 82.08V82.416H330.362Z" fill="#525256"/>
<path d="M373.419 86.168C372.598 86.168 371.87 85.9533 371.235 85.524C370.601 85.0853 370.106 84.488 369.751 83.732C369.397 82.9667 369.219 82.0893 369.219 81.1C369.219 80.1107 369.397 79.238 369.751 78.482C370.106 77.7167 370.596 77.1193 371.221 76.69C371.856 76.2513 372.579 76.032 373.391 76.032C373.933 76.032 374.441 76.144 374.917 76.368C375.403 76.5827 375.823 76.8907 376.177 77.292C376.541 77.684 376.826 78.1413 377.031 78.664L375.617 79.266C375.477 78.9207 375.291 78.6173 375.057 78.356C374.833 78.0947 374.577 77.8893 374.287 77.74C374.007 77.5907 373.709 77.516 373.391 77.516C372.906 77.516 372.472 77.67 372.089 77.978C371.707 78.286 371.408 78.7107 371.193 79.252C370.979 79.784 370.871 80.4 370.871 81.1C370.871 81.8 370.979 82.4207 371.193 82.962C371.417 83.5033 371.721 83.928 372.103 84.236C372.486 84.5347 372.929 84.684 373.433 84.684C373.76 84.684 374.063 84.6047 374.343 84.446C374.633 84.2873 374.885 84.0727 375.099 83.802C375.323 83.522 375.505 83.2 375.645 82.836L377.059 83.438C376.863 83.97 376.583 84.446 376.219 84.866C375.855 85.2767 375.435 85.5987 374.959 85.832C374.483 86.056 373.97 86.168 373.419 86.168ZM368.155 82.416V81.506H374.427V82.416H368.155ZM368.155 80.694V79.784H374.427V80.694H368.155ZM378.37 86V84.754C378.37 84.4647 378.445 84.166 378.594 83.858C378.744 83.5407 378.954 83.2233 379.224 82.906C379.504 82.5887 379.831 82.29 380.204 82.01L381.912 80.778C382.127 80.6287 382.323 80.456 382.5 80.26C382.687 80.064 382.836 79.8587 382.948 79.644C383.06 79.42 383.116 79.2007 383.116 78.986C383.116 78.7153 383.046 78.468 382.906 78.244C382.776 78.02 382.584 77.8427 382.332 77.712C382.09 77.5813 381.791 77.516 381.436 77.516C381.119 77.516 380.834 77.5813 380.582 77.712C380.34 77.8333 380.139 77.9967 379.98 78.202C379.822 78.4073 379.71 78.6313 379.644 78.874L377.978 78.566C378.072 78.118 378.268 77.7027 378.566 77.32C378.874 76.928 379.266 76.6153 379.742 76.382C380.228 76.1487 380.778 76.032 381.394 76.032C382.085 76.032 382.682 76.158 383.186 76.41C383.7 76.662 384.092 77.012 384.362 77.46C384.642 77.8987 384.782 78.4027 384.782 78.972C384.782 79.5507 384.624 80.0733 384.306 80.54C383.998 80.9973 383.564 81.436 383.004 81.856L381.436 83.018C381.128 83.242 380.876 83.4847 380.68 83.746C380.484 83.998 380.349 84.2687 380.274 84.558H384.908V86H378.37ZM390.261 86.168C389.495 86.168 388.814 85.9533 388.217 85.524C387.619 85.0853 387.148 84.488 386.803 83.732C386.467 82.9667 386.299 82.0893 386.299 81.1C386.299 80.1107 386.467 79.238 386.803 78.482C387.148 77.7167 387.615 77.1193 388.203 76.69C388.8 76.2513 389.486 76.032 390.261 76.032C391.035 76.032 391.721 76.2513 392.319 76.69C392.916 77.1193 393.383 77.7167 393.719 78.482C394.064 79.238 394.237 80.1107 394.237 81.1C394.237 82.0893 394.064 82.9667 393.719 83.732C393.383 84.488 392.916 85.0853 392.319 85.524C391.731 85.9533 391.045 86.168 390.261 86.168ZM390.275 84.698C390.732 84.698 391.138 84.544 391.493 84.236C391.857 83.928 392.137 83.5033 392.333 82.962C392.538 82.4207 392.641 81.8 392.641 81.1C392.641 80.4 392.538 79.7793 392.333 79.238C392.137 78.6873 391.857 78.258 391.493 77.95C391.138 77.642 390.727 77.488 390.261 77.488C389.794 77.488 389.383 77.642 389.029 77.95C388.674 78.258 388.394 78.6827 388.189 79.224C387.993 79.7653 387.895 80.3907 387.895 81.1C387.895 81.8 387.993 82.4207 388.189 82.962C388.394 83.5033 388.674 83.928 389.029 84.236C389.393 84.544 389.808 84.698 390.275 84.698ZM395.378 87.61L396.218 84.432H397.87L396.61 87.61H395.378ZM402.576 86.168C402.146 86.168 401.708 86.1027 401.26 85.972C400.821 85.832 400.415 85.6267 400.042 85.356C399.668 85.076 399.384 84.726 399.188 84.306L400.63 83.774C400.872 84.1193 401.157 84.3713 401.484 84.53C401.81 84.6793 402.146 84.754 402.492 84.754C403.042 84.754 403.49 84.5907 403.836 84.264C404.181 83.928 404.354 83.4847 404.354 82.934C404.354 82.402 404.186 81.9633 403.85 81.618C403.514 81.2727 403.075 81.1 402.534 81.1C402.216 81.1 401.918 81.17 401.638 81.31C401.367 81.45 401.157 81.618 401.008 81.814L399.538 81.492L400.084 76.2H405.502V77.67H401.484L401.204 80.33C401.456 80.1807 401.736 80.064 402.044 79.98C402.361 79.8867 402.692 79.84 403.038 79.84C403.598 79.84 404.102 79.9707 404.55 80.232C404.998 80.4933 405.352 80.8527 405.614 81.31C405.875 81.758 406.006 82.276 406.006 82.864C406.006 83.5173 405.856 84.0913 405.558 84.586C405.268 85.0807 404.867 85.468 404.354 85.748C403.84 86.028 403.248 86.168 402.576 86.168ZM410.893 86.168C410.231 86.168 409.666 86.0467 409.199 85.804C408.742 85.552 408.373 85.216 408.093 84.796C407.813 84.3667 407.608 83.872 407.477 83.312C407.347 82.7427 407.281 82.136 407.281 81.492C407.281 80.708 407.361 79.9847 407.519 79.322C407.687 78.6593 407.935 78.0807 408.261 77.586C408.588 77.0913 408.994 76.7087 409.479 76.438C409.974 76.1673 410.548 76.032 411.201 76.032C411.705 76.032 412.2 76.1113 412.685 76.27C413.18 76.4193 413.619 76.6293 414.001 76.9L413.161 78.076C412.872 77.8707 412.555 77.7167 412.209 77.614C411.873 77.5113 411.561 77.46 411.271 77.46C410.459 77.46 409.829 77.81 409.381 78.51C408.943 79.21 408.742 80.2973 408.779 81.772L408.443 81.52C408.658 80.988 408.999 80.5633 409.465 80.246C409.932 79.9193 410.487 79.756 411.131 79.756C411.757 79.756 412.312 79.9007 412.797 80.19C413.283 80.47 413.661 80.8573 413.931 81.352C414.202 81.8373 414.337 82.3927 414.337 83.018C414.337 83.6247 414.193 84.166 413.903 84.642C413.623 85.118 413.222 85.4913 412.699 85.762C412.186 86.0327 411.584 86.168 410.893 86.168ZM410.907 84.782C411.253 84.782 411.561 84.7027 411.831 84.544C412.111 84.3853 412.331 84.1707 412.489 83.9C412.648 83.62 412.727 83.3027 412.727 82.948C412.727 82.5933 412.648 82.276 412.489 81.996C412.331 81.716 412.111 81.5013 411.831 81.352C411.561 81.1933 411.253 81.114 410.907 81.114C410.553 81.114 410.235 81.1933 409.955 81.352C409.685 81.5013 409.47 81.716 409.311 81.996C409.153 82.276 409.073 82.5933 409.073 82.948C409.073 83.3027 409.153 83.62 409.311 83.9C409.47 84.1707 409.685 84.3853 409.955 84.544C410.235 84.7027 410.553 84.782 410.907 84.782ZM415.768 86V79H417.238L417.308 79.938C417.523 79.574 417.798 79.2987 418.134 79.112C418.47 78.9253 418.853 78.832 419.282 78.832C419.842 78.832 420.318 78.958 420.71 79.21C421.102 79.462 421.387 79.8447 421.564 80.358C421.77 79.8633 422.059 79.4853 422.432 79.224C422.806 78.9627 423.244 78.832 423.748 78.832C424.56 78.832 425.186 79.0933 425.624 79.616C426.063 80.1293 426.278 80.9227 426.268 81.996V86H424.714V82.416C424.714 81.856 424.654 81.4267 424.532 81.128C424.411 80.82 424.248 80.6053 424.042 80.484C423.837 80.3627 423.599 80.302 423.328 80.302C422.843 80.2927 422.465 80.4653 422.194 80.82C421.933 81.1747 421.802 81.6833 421.802 82.346V86H420.234V82.416C420.234 81.856 420.174 81.4267 420.052 81.128C419.94 80.82 419.782 80.6053 419.576 80.484C419.371 80.3627 419.133 80.302 418.862 80.302C418.377 80.2927 417.999 80.4653 417.728 80.82C417.467 81.1747 417.336 81.6833 417.336 82.346V86H415.768Z" fill="#525256"/>
<rect x="251" y="100.5" width="9" height="9" rx="4.5" fill="#FD1F9B"/>
<path d="M275.432 110.168C274.499 110.168 273.673 109.953 272.954 109.524C272.235 109.085 271.671 108.488 271.26 107.732C270.849 106.967 270.644 106.089 270.644 105.1C270.644 104.111 270.845 103.238 271.246 102.482C271.657 101.717 272.217 101.119 272.926 100.69C273.645 100.251 274.466 100.032 275.39 100.032C275.978 100.032 276.543 100.139 277.084 100.354C277.625 100.559 278.111 100.853 278.54 101.236C278.969 101.609 279.301 102.043 279.534 102.538L278.512 103.056C278.325 102.664 278.069 102.323 277.742 102.034C277.415 101.745 277.051 101.521 276.65 101.362C276.249 101.194 275.829 101.11 275.39 101.11C274.709 101.11 274.097 101.283 273.556 101.628C273.015 101.964 272.59 102.431 272.282 103.028C271.983 103.625 271.834 104.316 271.834 105.1C271.834 105.884 271.988 106.579 272.296 107.186C272.604 107.793 273.029 108.269 273.57 108.614C274.121 108.95 274.741 109.118 275.432 109.118C275.88 109.118 276.305 109.029 276.706 108.852C277.107 108.665 277.467 108.413 277.784 108.096C278.111 107.779 278.367 107.415 278.554 107.004L279.59 107.522C279.347 108.035 279.011 108.493 278.582 108.894C278.162 109.295 277.677 109.608 277.126 109.832C276.585 110.056 276.02 110.168 275.432 110.168ZM285.522 110L285.466 108.852V106.304C285.466 105.753 285.405 105.301 285.284 104.946C285.163 104.582 284.971 104.307 284.71 104.12C284.449 103.933 284.108 103.84 283.688 103.84C283.305 103.84 282.974 103.919 282.694 104.078C282.423 104.227 282.199 104.47 282.022 104.806L281.014 104.414C281.191 104.087 281.406 103.807 281.658 103.574C281.91 103.331 282.204 103.149 282.54 103.028C282.876 102.897 283.259 102.832 283.688 102.832C284.341 102.832 284.878 102.963 285.298 103.224C285.727 103.476 286.049 103.854 286.264 104.358C286.479 104.853 286.581 105.469 286.572 106.206L286.558 110H285.522ZM283.422 110.168C282.601 110.168 281.957 109.981 281.49 109.608C281.033 109.225 280.804 108.698 280.804 108.026C280.804 107.317 281.037 106.775 281.504 106.402C281.98 106.019 282.643 105.828 283.492 105.828H285.494V106.766H283.744C283.091 106.766 282.624 106.873 282.344 107.088C282.073 107.303 281.938 107.611 281.938 108.012C281.938 108.376 282.073 108.665 282.344 108.88C282.615 109.085 282.993 109.188 283.478 109.188C283.879 109.188 284.229 109.104 284.528 108.936C284.827 108.759 285.055 108.511 285.214 108.194C285.382 107.867 285.466 107.485 285.466 107.046H285.942C285.942 107.998 285.727 108.759 285.298 109.328C284.869 109.888 284.243 110.168 283.422 110.168ZM290.937 110.168C290.423 110.168 289.975 110.093 289.593 109.944C289.21 109.785 288.888 109.58 288.627 109.328C288.375 109.076 288.193 108.801 288.081 108.502L289.061 108.096C289.219 108.413 289.457 108.67 289.775 108.866C290.092 109.062 290.442 109.16 290.825 109.16C291.263 109.16 291.632 109.076 291.931 108.908C292.229 108.731 292.379 108.483 292.379 108.166C292.379 107.877 292.267 107.643 292.043 107.466C291.828 107.289 291.506 107.144 291.077 107.032L290.405 106.85C289.77 106.682 289.275 106.43 288.921 106.094C288.566 105.749 288.389 105.361 288.389 104.932C288.389 104.269 288.603 103.756 289.033 103.392C289.471 103.019 290.12 102.832 290.979 102.832C291.389 102.832 291.763 102.893 292.099 103.014C292.435 103.135 292.724 103.308 292.967 103.532C293.209 103.747 293.387 104.003 293.499 104.302L292.519 104.736C292.397 104.419 292.197 104.19 291.917 104.05C291.637 103.91 291.296 103.84 290.895 103.84C290.465 103.84 290.129 103.933 289.887 104.12C289.644 104.297 289.523 104.549 289.523 104.876C289.523 105.063 289.621 105.24 289.817 105.408C290.022 105.567 290.321 105.697 290.713 105.8L291.413 105.982C291.87 106.094 292.253 106.262 292.561 106.486C292.869 106.701 293.102 106.948 293.261 107.228C293.419 107.508 293.499 107.807 293.499 108.124C293.499 108.544 293.387 108.908 293.163 109.216C292.939 109.524 292.635 109.762 292.253 109.93C291.87 110.089 291.431 110.168 290.937 110.168ZM295.148 110V100.2H296.268V110H295.148ZM300.076 110V106.416H301.196V110H300.076ZM300.076 106.416C300.076 105.725 299.992 105.198 299.824 104.834C299.665 104.47 299.446 104.223 299.166 104.092C298.886 103.952 298.569 103.882 298.214 103.882C297.598 103.882 297.117 104.101 296.772 104.54C296.436 104.969 296.268 105.581 296.268 106.374H295.722C295.722 105.637 295.829 105.002 296.044 104.47C296.268 103.938 296.585 103.532 296.996 103.252C297.407 102.972 297.901 102.832 298.48 102.832C299.021 102.832 299.497 102.944 299.908 103.168C300.319 103.383 300.636 103.728 300.86 104.204C301.093 104.68 301.205 105.305 301.196 106.08V106.416H300.076ZM307.016 110V100.2H310.11C310.782 100.2 311.356 100.303 311.832 100.508C312.308 100.713 312.676 101.017 312.938 101.418C313.199 101.81 313.33 102.291 313.33 102.86C313.33 103.336 313.222 103.756 313.008 104.12C312.793 104.475 312.49 104.764 312.098 104.988C312.583 105.221 312.956 105.534 313.218 105.926C313.488 106.318 313.624 106.785 313.624 107.326C313.624 107.895 313.498 108.381 313.246 108.782C312.994 109.174 312.634 109.477 312.168 109.692C311.71 109.897 311.16 110 310.516 110H307.016ZM308.192 108.936H310.46C311.076 108.936 311.556 108.791 311.902 108.502C312.256 108.203 312.434 107.797 312.434 107.284C312.434 106.733 312.233 106.304 311.832 105.996C311.43 105.679 310.87 105.52 310.152 105.52H308.192V108.936ZM308.192 104.498H310.404C310.945 104.498 311.37 104.353 311.678 104.064C311.986 103.775 312.14 103.373 312.14 102.86C312.14 102.328 311.958 101.922 311.594 101.642C311.239 101.353 310.735 101.208 310.082 101.208H308.192V104.498ZM319.704 110L319.648 108.852V106.304C319.648 105.753 319.588 105.301 319.466 104.946C319.345 104.582 319.154 104.307 318.892 104.12C318.631 103.933 318.29 103.84 317.87 103.84C317.488 103.84 317.156 103.919 316.876 104.078C316.606 104.227 316.382 104.47 316.204 104.806L315.196 104.414C315.374 104.087 315.588 103.807 315.84 103.574C316.092 103.331 316.386 103.149 316.722 103.028C317.058 102.897 317.441 102.832 317.87 102.832C318.524 102.832 319.06 102.963 319.48 103.224C319.91 103.476 320.232 103.854 320.446 104.358C320.661 104.853 320.764 105.469 320.754 106.206L320.74 110H319.704ZM317.604 110.168C316.783 110.168 316.139 109.981 315.672 109.608C315.215 109.225 314.986 108.698 314.986 108.026C314.986 107.317 315.22 106.775 315.686 106.402C316.162 106.019 316.825 105.828 317.674 105.828H319.676V106.766H317.926C317.273 106.766 316.806 106.873 316.526 107.088C316.256 107.303 316.12 107.611 316.12 108.012C316.12 108.376 316.256 108.665 316.526 108.88C316.797 109.085 317.175 109.188 317.66 109.188C318.062 109.188 318.412 109.104 318.71 108.936C319.009 108.759 319.238 108.511 319.396 108.194C319.564 107.867 319.648 107.485 319.648 107.046H320.124C320.124 107.998 319.91 108.759 319.48 109.328C319.051 109.888 318.426 110.168 317.604 110.168ZM325.791 110.168C325.1 110.168 324.489 110.014 323.957 109.706C323.425 109.389 323.01 108.955 322.711 108.404C322.412 107.853 322.263 107.219 322.263 106.5C322.263 105.781 322.408 105.147 322.697 104.596C322.996 104.045 323.411 103.616 323.943 103.308C324.475 102.991 325.082 102.832 325.763 102.832C326.435 102.832 327.037 102.986 327.569 103.294C328.101 103.602 328.507 104.036 328.787 104.596L327.765 105.058C327.578 104.685 327.308 104.395 326.953 104.19C326.598 103.975 326.192 103.868 325.735 103.868C325.278 103.868 324.872 103.98 324.517 104.204C324.172 104.428 323.896 104.741 323.691 105.142C323.495 105.534 323.397 105.987 323.397 106.5C323.397 107.013 323.495 107.471 323.691 107.872C323.896 108.264 324.176 108.572 324.531 108.796C324.895 109.02 325.306 109.132 325.763 109.132C326.22 109.132 326.626 109.015 326.981 108.782C327.345 108.549 327.62 108.222 327.807 107.802L328.829 108.264C328.549 108.861 328.143 109.328 327.611 109.664C327.079 110 326.472 110.168 325.791 110.168ZM331.475 107.746L330.761 106.976L334.485 103H335.899L331.475 107.746ZM330.383 110V100.2H331.503V110H330.383ZM334.793 110L332.133 105.982L332.861 105.198L336.179 110H334.793Z" fill="#525256"/>
<path d="M381.79 110.168C380.969 110.168 380.241 109.953 379.606 109.524C378.971 109.085 378.477 108.488 378.122 107.732C377.767 106.967 377.59 106.089 377.59 105.1C377.59 104.111 377.767 103.238 378.122 102.482C378.477 101.717 378.967 101.119 379.592 100.69C380.227 100.251 380.95 100.032 381.762 100.032C382.303 100.032 382.812 100.144 383.288 100.368C383.773 100.583 384.193 100.891 384.548 101.292C384.912 101.684 385.197 102.141 385.402 102.664L383.988 103.266C383.848 102.921 383.661 102.617 383.428 102.356C383.204 102.095 382.947 101.889 382.658 101.74C382.378 101.591 382.079 101.516 381.762 101.516C381.277 101.516 380.843 101.67 380.46 101.978C380.077 102.286 379.779 102.711 379.564 103.252C379.349 103.784 379.242 104.4 379.242 105.1C379.242 105.8 379.349 106.421 379.564 106.962C379.788 107.503 380.091 107.928 380.474 108.236C380.857 108.535 381.3 108.684 381.804 108.684C382.131 108.684 382.434 108.605 382.714 108.446C383.003 108.287 383.255 108.073 383.47 107.802C383.694 107.522 383.876 107.2 384.016 106.836L385.43 107.438C385.234 107.97 384.954 108.446 384.59 108.866C384.226 109.277 383.806 109.599 383.33 109.832C382.854 110.056 382.341 110.168 381.79 110.168ZM376.526 106.416V105.506H382.798V106.416H376.526ZM376.526 104.694V103.784H382.798V104.694H376.526ZM390.983 110V107.9H386.447V106.612L390.829 100.2H392.537V106.486H394.357V107.9H392.537V110H390.983ZM388.169 106.486H390.983V102.356L388.169 106.486ZM395.378 111.61L396.218 108.432H397.87L396.61 111.61H395.378ZM402.576 110.168C402.146 110.168 401.708 110.103 401.26 109.972C400.821 109.832 400.415 109.627 400.042 109.356C399.668 109.076 399.384 108.726 399.188 108.306L400.63 107.774C400.872 108.119 401.157 108.371 401.484 108.53C401.81 108.679 402.146 108.754 402.492 108.754C403.042 108.754 403.49 108.591 403.836 108.264C404.181 107.928 404.354 107.485 404.354 106.934C404.354 106.402 404.186 105.963 403.85 105.618C403.514 105.273 403.075 105.1 402.534 105.1C402.216 105.1 401.918 105.17 401.638 105.31C401.367 105.45 401.157 105.618 401.008 105.814L399.538 105.492L400.084 100.2H405.502V101.67H401.484L401.204 104.33C401.456 104.181 401.736 104.064 402.044 103.98C402.361 103.887 402.692 103.84 403.038 103.84C403.598 103.84 404.102 103.971 404.55 104.232C404.998 104.493 405.352 104.853 405.614 105.31C405.875 105.758 406.006 106.276 406.006 106.864C406.006 107.517 405.856 108.091 405.558 108.586C405.268 109.081 404.867 109.468 404.354 109.748C403.84 110.028 403.248 110.168 402.576 110.168ZM410.893 110.168C410.231 110.168 409.666 110.047 409.199 109.804C408.742 109.552 408.373 109.216 408.093 108.796C407.813 108.367 407.608 107.872 407.477 107.312C407.347 106.743 407.281 106.136 407.281 105.492C407.281 104.708 407.361 103.985 407.519 103.322C407.687 102.659 407.935 102.081 408.261 101.586C408.588 101.091 408.994 100.709 409.479 100.438C409.974 100.167 410.548 100.032 411.201 100.032C411.705 100.032 412.2 100.111 412.685 100.27C413.18 100.419 413.619 100.629 414.001 100.9L413.161 102.076C412.872 101.871 412.555 101.717 412.209 101.614C411.873 101.511 411.561 101.46 411.271 101.46C410.459 101.46 409.829 101.81 409.381 102.51C408.943 103.21 408.742 104.297 408.779 105.772L408.443 105.52C408.658 104.988 408.999 104.563 409.465 104.246C409.932 103.919 410.487 103.756 411.131 103.756C411.757 103.756 412.312 103.901 412.797 104.19C413.283 104.47 413.661 104.857 413.931 105.352C414.202 105.837 414.337 106.393 414.337 107.018C414.337 107.625 414.193 108.166 413.903 108.642C413.623 109.118 413.222 109.491 412.699 109.762C412.186 110.033 411.584 110.168 410.893 110.168ZM410.907 108.782C411.253 108.782 411.561 108.703 411.831 108.544C412.111 108.385 412.331 108.171 412.489 107.9C412.648 107.62 412.727 107.303 412.727 106.948C412.727 106.593 412.648 106.276 412.489 105.996C412.331 105.716 412.111 105.501 411.831 105.352C411.561 105.193 411.253 105.114 410.907 105.114C410.553 105.114 410.235 105.193 409.955 105.352C409.685 105.501 409.47 105.716 409.311 105.996C409.153 106.276 409.073 106.593 409.073 106.948C409.073 107.303 409.153 107.62 409.311 107.9C409.47 108.171 409.685 108.385 409.955 108.544C410.235 108.703 410.553 108.782 410.907 108.782ZM415.768 110V103H417.238L417.308 103.938C417.523 103.574 417.798 103.299 418.134 103.112C418.47 102.925 418.853 102.832 419.282 102.832C419.842 102.832 420.318 102.958 420.71 103.21C421.102 103.462 421.387 103.845 421.564 104.358C421.77 103.863 422.059 103.485 422.432 103.224C422.806 102.963 423.244 102.832 423.748 102.832C424.56 102.832 425.186 103.093 425.624 103.616C426.063 104.129 426.278 104.923 426.268 105.996V110H424.714V106.416C424.714 105.856 424.654 105.427 424.532 105.128C424.411 104.82 424.248 104.605 424.042 104.484C423.837 104.363 423.599 104.302 423.328 104.302C422.843 104.293 422.465 104.465 422.194 104.82C421.933 105.175 421.802 105.683 421.802 106.346V110H420.234V106.416C420.234 105.856 420.174 105.427 420.052 105.128C419.94 104.82 419.782 104.605 419.576 104.484C419.371 104.363 419.133 104.302 418.862 104.302C418.377 104.293 417.999 104.465 417.728 104.82C417.467 105.175 417.336 105.683 417.336 106.346V110H415.768Z" fill="#525256"/>
<rect x="251" y="124.5" width="9" height="9" rx="4.5" fill="#30D987"/>
<path d="M275.474 134.168C274.531 134.168 273.696 133.953 272.968 133.524C272.24 133.095 271.671 132.497 271.26 131.732C270.849 130.967 270.644 130.089 270.644 129.1C270.644 128.101 270.845 127.224 271.246 126.468C271.657 125.703 272.221 125.105 272.94 124.676C273.659 124.247 274.489 124.032 275.432 124.032C276.375 124.032 277.205 124.251 277.924 124.69C278.652 125.119 279.217 125.717 279.618 126.482C280.019 127.238 280.22 128.111 280.22 129.1C280.22 130.089 280.019 130.967 279.618 131.732C279.217 132.497 278.657 133.095 277.938 133.524C277.229 133.953 276.407 134.168 275.474 134.168ZM275.474 133.09C276.174 133.09 276.79 132.922 277.322 132.586C277.854 132.241 278.269 131.769 278.568 131.172C278.876 130.575 279.03 129.884 279.03 129.1C279.03 128.325 278.876 127.639 278.568 127.042C278.26 126.435 277.835 125.964 277.294 125.628C276.762 125.283 276.141 125.11 275.432 125.11C274.732 125.11 274.111 125.283 273.57 125.628C273.029 125.964 272.604 126.435 272.296 127.042C271.988 127.639 271.834 128.325 271.834 129.1C271.834 129.884 271.988 130.575 272.296 131.172C272.604 131.769 273.033 132.241 273.584 132.586C274.135 132.922 274.765 133.09 275.474 133.09ZM281.989 134V127H283.039L283.109 128.288V134H281.989ZM286.903 134V130.416H288.023V134H286.903ZM286.903 130.416C286.903 129.725 286.824 129.198 286.665 128.834C286.506 128.47 286.287 128.223 286.007 128.092C285.727 127.952 285.41 127.882 285.055 127.882C284.439 127.882 283.958 128.101 283.613 128.54C283.277 128.969 283.109 129.581 283.109 130.374H282.563C282.563 129.637 282.67 129.002 282.885 128.47C283.1 127.938 283.412 127.532 283.823 127.252C284.234 126.972 284.728 126.832 285.307 126.832C285.858 126.832 286.334 126.944 286.735 127.168C287.146 127.383 287.463 127.728 287.687 128.204C287.92 128.68 288.032 129.305 288.023 130.08V130.416H286.903ZM289.936 134V124.2H291.056V134H289.936ZM293.222 134V127H294.342V134H293.222ZM293.796 125.376C293.609 125.376 293.446 125.306 293.306 125.166C293.166 125.026 293.096 124.863 293.096 124.676C293.096 124.48 293.166 124.317 293.306 124.186C293.446 124.046 293.609 123.976 293.796 123.976C293.992 123.976 294.155 124.046 294.286 124.186C294.426 124.317 294.496 124.48 294.496 124.676C294.496 124.863 294.426 125.026 294.286 125.166C294.155 125.306 293.992 125.376 293.796 125.376ZM296.546 134V127H297.596L297.666 128.288V134H296.546ZM301.46 134V130.416H302.58V134H301.46ZM301.46 130.416C301.46 129.725 301.381 129.198 301.222 128.834C301.063 128.47 300.844 128.223 300.564 128.092C300.284 127.952 299.967 127.882 299.612 127.882C298.996 127.882 298.515 128.101 298.17 128.54C297.834 128.969 297.666 129.581 297.666 130.374H297.12C297.12 129.637 297.227 129.002 297.442 128.47C297.657 127.938 297.969 127.532 298.38 127.252C298.791 126.972 299.285 126.832 299.864 126.832C300.415 126.832 300.891 126.944 301.292 127.168C301.703 127.383 302.02 127.728 302.244 128.204C302.477 128.68 302.589 129.305 302.58 130.08V130.416H301.46ZM307.559 134.168C306.877 134.168 306.275 134.014 305.753 133.706C305.23 133.389 304.819 132.955 304.521 132.404C304.231 131.853 304.087 131.219 304.087 130.5C304.087 129.781 304.231 129.147 304.521 128.596C304.819 128.045 305.225 127.616 305.739 127.308C306.261 126.991 306.859 126.832 307.531 126.832C308.184 126.832 308.749 126.995 309.225 127.322C309.701 127.639 310.069 128.087 310.331 128.666C310.592 129.245 310.723 129.926 310.723 130.71H304.941L305.221 130.472C305.221 131.032 305.319 131.513 305.515 131.914C305.72 132.315 306.005 132.623 306.369 132.838C306.733 133.043 307.148 133.146 307.615 133.146C308.109 133.146 308.525 133.029 308.861 132.796C309.206 132.563 309.472 132.255 309.659 131.872L310.625 132.362C310.447 132.726 310.209 133.043 309.911 133.314C309.621 133.585 309.276 133.795 308.875 133.944C308.483 134.093 308.044 134.168 307.559 134.168ZM305.291 129.996L304.997 129.772H309.827L309.533 130.01C309.533 129.562 309.444 129.175 309.267 128.848C309.089 128.521 308.851 128.269 308.553 128.092C308.254 127.915 307.909 127.826 307.517 127.826C307.134 127.826 306.77 127.915 306.425 128.092C306.089 128.269 305.813 128.521 305.599 128.848C305.393 129.165 305.291 129.548 305.291 129.996ZM315.874 134V124.2H316.994V134H315.874ZM322.184 134.168C321.503 134.168 320.896 134.014 320.364 133.706C319.842 133.389 319.431 132.955 319.132 132.404C318.834 131.853 318.684 131.219 318.684 130.5C318.684 129.781 318.829 129.147 319.118 128.596C319.417 128.045 319.828 127.616 320.35 127.308C320.882 126.991 321.484 126.832 322.156 126.832C322.847 126.832 323.454 126.991 323.976 127.308C324.508 127.616 324.919 128.045 325.208 128.596C325.507 129.147 325.656 129.781 325.656 130.5C325.656 131.219 325.507 131.853 325.208 132.404C324.919 132.955 324.513 133.389 323.99 133.706C323.468 134.014 322.866 134.168 322.184 134.168ZM322.184 133.132C322.651 133.132 323.057 133.02 323.402 132.796C323.748 132.572 324.018 132.264 324.214 131.872C324.42 131.48 324.522 131.023 324.522 130.5C324.522 129.977 324.42 129.52 324.214 129.128C324.018 128.736 323.743 128.428 323.388 128.204C323.034 127.98 322.623 127.868 322.156 127.868C321.699 127.868 321.293 127.98 320.938 128.204C320.593 128.428 320.318 128.736 320.112 129.128C319.916 129.52 319.818 129.977 319.818 130.5C319.818 131.013 319.916 131.471 320.112 131.872C320.318 132.264 320.598 132.572 320.952 132.796C321.316 133.02 321.727 133.132 322.184 133.132ZM331.663 134L331.607 132.852V130.304C331.607 129.753 331.547 129.301 331.425 128.946C331.304 128.582 331.113 128.307 330.851 128.12C330.59 127.933 330.249 127.84 329.829 127.84C329.447 127.84 329.115 127.919 328.835 128.078C328.565 128.227 328.341 128.47 328.163 128.806L327.155 128.414C327.333 128.087 327.547 127.807 327.799 127.574C328.051 127.331 328.345 127.149 328.681 127.028C329.017 126.897 329.4 126.832 329.829 126.832C330.483 126.832 331.019 126.963 331.439 127.224C331.869 127.476 332.191 127.854 332.405 128.358C332.62 128.853 332.723 129.469 332.713 130.206L332.699 134H331.663ZM329.563 134.168C328.742 134.168 328.098 133.981 327.631 133.608C327.174 133.225 326.945 132.698 326.945 132.026C326.945 131.317 327.179 130.775 327.645 130.402C328.121 130.019 328.784 129.828 329.633 129.828H331.635V130.766H329.885C329.232 130.766 328.765 130.873 328.485 131.088C328.215 131.303 328.079 131.611 328.079 132.012C328.079 132.376 328.215 132.665 328.485 132.88C328.756 133.085 329.134 133.188 329.619 133.188C330.021 133.188 330.371 133.104 330.669 132.936C330.968 132.759 331.197 132.511 331.355 132.194C331.523 131.867 331.607 131.485 331.607 131.046H332.083C332.083 131.998 331.869 132.759 331.439 133.328C331.01 133.888 330.385 134.168 329.563 134.168ZM334.628 134V127H335.678L335.748 128.288V134H334.628ZM339.542 134V130.416H340.662V134H339.542ZM339.542 130.416C339.542 129.725 339.463 129.198 339.304 128.834C339.145 128.47 338.926 128.223 338.646 128.092C338.366 127.952 338.049 127.882 337.694 127.882C337.078 127.882 336.597 128.101 336.252 128.54C335.916 128.969 335.748 129.581 335.748 130.374H335.202C335.202 129.637 335.309 129.002 335.524 128.47C335.739 127.938 336.051 127.532 336.462 127.252C336.873 126.972 337.367 126.832 337.946 126.832C338.497 126.832 338.973 126.944 339.374 127.168C339.785 127.383 340.102 127.728 340.326 128.204C340.559 128.68 340.671 129.305 340.662 130.08V130.416H339.542Z" fill="#525256"/>
<path d="M381.79 134.168C380.969 134.168 380.241 133.953 379.606 133.524C378.971 133.085 378.477 132.488 378.122 131.732C377.767 130.967 377.59 130.089 377.59 129.1C377.59 128.111 377.767 127.238 378.122 126.482C378.477 125.717 378.967 125.119 379.592 124.69C380.227 124.251 380.95 124.032 381.762 124.032C382.303 124.032 382.812 124.144 383.288 124.368C383.773 124.583 384.193 124.891 384.548 125.292C384.912 125.684 385.197 126.141 385.402 126.664L383.988 127.266C383.848 126.921 383.661 126.617 383.428 126.356C383.204 126.095 382.947 125.889 382.658 125.74C382.378 125.591 382.079 125.516 381.762 125.516C381.277 125.516 380.843 125.67 380.46 125.978C380.077 126.286 379.779 126.711 379.564 127.252C379.349 127.784 379.242 128.4 379.242 129.1C379.242 129.8 379.349 130.421 379.564 130.962C379.788 131.503 380.091 131.928 380.474 132.236C380.857 132.535 381.3 132.684 381.804 132.684C382.131 132.684 382.434 132.605 382.714 132.446C383.003 132.287 383.255 132.073 383.47 131.802C383.694 131.522 383.876 131.2 384.016 130.836L385.43 131.438C385.234 131.97 384.954 132.446 384.59 132.866C384.226 133.277 383.806 133.599 383.33 133.832C382.854 134.056 382.341 134.168 381.79 134.168ZM376.526 130.416V129.506H382.798V130.416H376.526ZM376.526 128.694V127.784H382.798V128.694H376.526ZM390.983 134V131.9H386.447V130.612L390.829 124.2H392.537V130.486H394.357V131.9H392.537V134H390.983ZM388.169 130.486H390.983V126.356L388.169 130.486ZM395.378 135.61L396.218 132.432H397.87L396.61 135.61H395.378ZM402.576 134.168C402.146 134.168 401.708 134.103 401.26 133.972C400.821 133.832 400.415 133.627 400.042 133.356C399.668 133.076 399.384 132.726 399.188 132.306L400.63 131.774C400.872 132.119 401.157 132.371 401.484 132.53C401.81 132.679 402.146 132.754 402.492 132.754C403.042 132.754 403.49 132.591 403.836 132.264C404.181 131.928 404.354 131.485 404.354 130.934C404.354 130.402 404.186 129.963 403.85 129.618C403.514 129.273 403.075 129.1 402.534 129.1C402.216 129.1 401.918 129.17 401.638 129.31C401.367 129.45 401.157 129.618 401.008 129.814L399.538 129.492L400.084 124.2H405.502V125.67H401.484L401.204 128.33C401.456 128.181 401.736 128.064 402.044 127.98C402.361 127.887 402.692 127.84 403.038 127.84C403.598 127.84 404.102 127.971 404.55 128.232C404.998 128.493 405.352 128.853 405.614 129.31C405.875 129.758 406.006 130.276 406.006 130.864C406.006 131.517 405.856 132.091 405.558 132.586C405.268 133.081 404.867 133.468 404.354 133.748C403.84 134.028 403.248 134.168 402.576 134.168ZM410.893 134.168C410.231 134.168 409.666 134.047 409.199 133.804C408.742 133.552 408.373 133.216 408.093 132.796C407.813 132.367 407.608 131.872 407.477 131.312C407.347 130.743 407.281 130.136 407.281 129.492C407.281 128.708 407.361 127.985 407.519 127.322C407.687 126.659 407.935 126.081 408.261 125.586C408.588 125.091 408.994 124.709 409.479 124.438C409.974 124.167 410.548 124.032 411.201 124.032C411.705 124.032 412.2 124.111 412.685 124.27C413.18 124.419 413.619 124.629 414.001 124.9L413.161 126.076C412.872 125.871 412.555 125.717 412.209 125.614C411.873 125.511 411.561 125.46 411.271 125.46C410.459 125.46 409.829 125.81 409.381 126.51C408.943 127.21 408.742 128.297 408.779 129.772L408.443 129.52C408.658 128.988 408.999 128.563 409.465 128.246C409.932 127.919 410.487 127.756 411.131 127.756C411.757 127.756 412.312 127.901 412.797 128.19C413.283 128.47 413.661 128.857 413.931 129.352C414.202 129.837 414.337 130.393 414.337 131.018C414.337 131.625 414.193 132.166 413.903 132.642C413.623 133.118 413.222 133.491 412.699 133.762C412.186 134.033 411.584 134.168 410.893 134.168ZM410.907 132.782C411.253 132.782 411.561 132.703 411.831 132.544C412.111 132.385 412.331 132.171 412.489 131.9C412.648 131.62 412.727 131.303 412.727 130.948C412.727 130.593 412.648 130.276 412.489 129.996C412.331 129.716 412.111 129.501 411.831 129.352C411.561 129.193 411.253 129.114 410.907 129.114C410.553 129.114 410.235 129.193 409.955 129.352C409.685 129.501 409.47 129.716 409.311 129.996C409.153 130.276 409.073 130.593 409.073 130.948C409.073 131.303 409.153 131.62 409.311 131.9C409.47 132.171 409.685 132.385 409.955 132.544C410.235 132.703 410.553 132.782 410.907 132.782ZM415.768 134V127H417.238L417.308 127.938C417.523 127.574 417.798 127.299 418.134 127.112C418.47 126.925 418.853 126.832 419.282 126.832C419.842 126.832 420.318 126.958 420.71 127.21C421.102 127.462 421.387 127.845 421.564 128.358C421.77 127.863 422.059 127.485 422.432 127.224C422.806 126.963 423.244 126.832 423.748 126.832C424.56 126.832 425.186 127.093 425.624 127.616C426.063 128.129 426.278 128.923 426.268 129.996V134H424.714V130.416C424.714 129.856 424.654 129.427 424.532 129.128C424.411 128.82 424.248 128.605 424.042 128.484C423.837 128.363 423.599 128.302 423.328 128.302C422.843 128.293 422.465 128.465 422.194 128.82C421.933 129.175 421.802 129.683 421.802 130.346V134H420.234V130.416C420.234 129.856 420.174 129.427 420.052 129.128C419.94 128.82 419.782 128.605 419.576 128.484C419.371 128.363 419.133 128.302 418.862 128.302C418.377 128.293 417.999 128.465 417.728 128.82C417.467 129.175 417.336 129.683 417.336 130.346V134H415.768Z" fill="#525256"/>
<rect x="251" y="148.5" width="9" height="9" rx="4.5" fill="#6342FF"/>
<path d="M273.276 158V149.278H270.154V148.2H277.574V149.278H274.452V158H273.276ZM281.077 158.168C280.396 158.168 279.789 158.014 279.257 157.706C278.735 157.389 278.324 156.955 278.025 156.404C277.727 155.853 277.577 155.219 277.577 154.5C277.577 153.781 277.722 153.147 278.011 152.596C278.31 152.045 278.721 151.616 279.243 151.308C279.775 150.991 280.377 150.832 281.049 150.832C281.74 150.832 282.347 150.991 282.869 151.308C283.401 151.616 283.812 152.045 284.101 152.596C284.4 153.147 284.549 153.781 284.549 154.5C284.549 155.219 284.4 155.853 284.101 156.404C283.812 156.955 283.406 157.389 282.883 157.706C282.361 158.014 281.759 158.168 281.077 158.168ZM281.077 157.132C281.544 157.132 281.95 157.02 282.295 156.796C282.641 156.572 282.911 156.264 283.107 155.872C283.313 155.48 283.415 155.023 283.415 154.5C283.415 153.977 283.313 153.52 283.107 153.128C282.911 152.736 282.636 152.428 282.281 152.204C281.927 151.98 281.516 151.868 281.049 151.868C280.592 151.868 280.186 151.98 279.831 152.204C279.486 152.428 279.211 152.736 279.005 153.128C278.809 153.52 278.711 153.977 278.711 154.5C278.711 155.013 278.809 155.471 279.005 155.872C279.211 156.264 279.491 156.572 279.845 156.796C280.209 157.02 280.62 157.132 281.077 157.132ZM286.314 160.8V151H287.364L287.434 152.288V160.8H286.314ZM289.8 158.168C289.212 158.168 288.694 158.014 288.246 157.706C287.808 157.398 287.467 156.969 287.224 156.418C286.982 155.858 286.86 155.219 286.86 154.5C286.86 153.772 286.982 153.133 287.224 152.582C287.467 152.031 287.808 151.602 288.246 151.294C288.694 150.986 289.212 150.832 289.8 150.832C290.426 150.832 290.976 150.986 291.452 151.294C291.928 151.602 292.297 152.031 292.558 152.582C292.829 153.133 292.964 153.772 292.964 154.5C292.964 155.219 292.829 155.858 292.558 156.418C292.297 156.969 291.928 157.398 291.452 157.706C290.976 158.014 290.426 158.168 289.8 158.168ZM289.548 157.146C289.987 157.146 290.374 157.034 290.71 156.81C291.056 156.586 291.326 156.273 291.522 155.872C291.728 155.471 291.83 155.013 291.83 154.5C291.83 153.987 291.732 153.529 291.536 153.128C291.35 152.727 291.084 152.414 290.738 152.19C290.393 151.966 290.001 151.854 289.562 151.854C289.152 151.854 288.783 151.966 288.456 152.19C288.139 152.414 287.887 152.727 287.7 153.128C287.523 153.529 287.434 153.987 287.434 154.5C287.434 155.013 287.523 155.471 287.7 155.872C287.887 156.273 288.139 156.586 288.456 156.81C288.774 157.034 289.138 157.146 289.548 157.146ZM298.255 158V148.2H299.375V158H298.255ZM304.565 158.168C303.884 158.168 303.277 158.014 302.745 157.706C302.222 157.389 301.812 156.955 301.513 156.404C301.214 155.853 301.065 155.219 301.065 154.5C301.065 153.781 301.21 153.147 301.499 152.596C301.798 152.045 302.208 151.616 302.731 151.308C303.263 150.991 303.865 150.832 304.537 150.832C305.228 150.832 305.834 150.991 306.357 151.308C306.889 151.616 307.3 152.045 307.589 152.596C307.888 153.147 308.037 153.781 308.037 154.5C308.037 155.219 307.888 155.853 307.589 156.404C307.3 156.955 306.894 157.389 306.371 157.706C305.848 158.014 305.246 158.168 304.565 158.168ZM304.565 157.132C305.032 157.132 305.438 157.02 305.783 156.796C306.128 156.572 306.399 156.264 306.595 155.872C306.8 155.48 306.903 155.023 306.903 154.5C306.903 153.977 306.8 153.52 306.595 153.128C306.399 152.736 306.124 152.428 305.769 152.204C305.414 151.98 305.004 151.868 304.537 151.868C304.08 151.868 303.674 151.98 303.319 152.204C302.974 152.428 302.698 152.736 302.493 153.128C302.297 153.52 302.199 153.977 302.199 154.5C302.199 155.013 302.297 155.471 302.493 155.872C302.698 156.264 302.978 156.572 303.333 156.796C303.697 157.02 304.108 157.132 304.565 157.132ZM314.044 158L313.988 156.852V154.304C313.988 153.753 313.927 153.301 313.806 152.946C313.685 152.582 313.493 152.307 313.232 152.12C312.971 151.933 312.63 151.84 312.21 151.84C311.827 151.84 311.496 151.919 311.216 152.078C310.945 152.227 310.721 152.47 310.544 152.806L309.536 152.414C309.713 152.087 309.928 151.807 310.18 151.574C310.432 151.331 310.726 151.149 311.062 151.028C311.398 150.897 311.781 150.832 312.21 150.832C312.863 150.832 313.4 150.963 313.82 151.224C314.249 151.476 314.571 151.854 314.786 152.358C315.001 152.853 315.103 153.469 315.094 154.206L315.08 158H314.044ZM311.944 158.168C311.123 158.168 310.479 157.981 310.012 157.608C309.555 157.225 309.326 156.698 309.326 156.026C309.326 155.317 309.559 154.775 310.026 154.402C310.502 154.019 311.165 153.828 312.014 153.828H314.016V154.766H312.266C311.613 154.766 311.146 154.873 310.866 155.088C310.595 155.303 310.46 155.611 310.46 156.012C310.46 156.376 310.595 156.665 310.866 156.88C311.137 157.085 311.515 157.188 312 157.188C312.401 157.188 312.751 157.104 313.05 156.936C313.349 156.759 313.577 156.511 313.736 156.194C313.904 155.867 313.988 155.485 313.988 155.046H314.464C314.464 155.998 314.249 156.759 313.82 157.328C313.391 157.888 312.765 158.168 311.944 158.168ZM317.009 158V151H318.059L318.129 152.288V158H317.009ZM321.923 158V154.416H323.043V158H321.923ZM321.923 154.416C321.923 153.725 321.843 153.198 321.685 152.834C321.526 152.47 321.307 152.223 321.027 152.092C320.747 151.952 320.429 151.882 320.075 151.882C319.459 151.882 318.978 152.101 318.633 152.54C318.297 152.969 318.129 153.581 318.129 154.374H317.583C317.583 153.637 317.69 153.002 317.905 152.47C318.119 151.938 318.432 151.532 318.843 151.252C319.253 150.972 319.748 150.832 320.327 150.832C320.877 150.832 321.353 150.944 321.755 151.168C322.165 151.383 322.483 151.728 322.707 152.204C322.94 152.68 323.052 153.305 323.043 154.08V154.416H321.923Z" fill="#525256"/>
<path d="M384.852 158.168C384.031 158.168 383.303 157.953 382.668 157.524C382.034 157.085 381.539 156.488 381.184 155.732C380.83 154.967 380.652 154.089 380.652 153.1C380.652 152.111 380.83 151.238 381.184 150.482C381.539 149.717 382.029 149.119 382.654 148.69C383.289 148.251 384.012 148.032 384.824 148.032C385.366 148.032 385.874 148.144 386.35 148.368C386.836 148.583 387.256 148.891 387.61 149.292C387.974 149.684 388.259 150.141 388.464 150.664L387.05 151.266C386.91 150.921 386.724 150.617 386.49 150.356C386.266 150.095 386.01 149.889 385.72 149.74C385.44 149.591 385.142 149.516 384.824 149.516C384.339 149.516 383.905 149.67 383.522 149.978C383.14 150.286 382.841 150.711 382.626 151.252C382.412 151.784 382.304 152.4 382.304 153.1C382.304 153.8 382.412 154.421 382.626 154.962C382.85 155.503 383.154 155.928 383.536 156.236C383.919 156.535 384.362 156.684 384.866 156.684C385.193 156.684 385.496 156.605 385.776 156.446C386.066 156.287 386.318 156.073 386.532 155.802C386.756 155.522 386.938 155.2 387.078 154.836L388.492 155.438C388.296 155.97 388.016 156.446 387.652 156.866C387.288 157.277 386.868 157.599 386.392 157.832C385.916 158.056 385.403 158.168 384.852 158.168ZM379.588 154.416V153.506H385.86V154.416H379.588ZM379.588 152.694V151.784H385.86V152.694H379.588ZM389.803 158V156.754C389.803 156.465 389.878 156.166 390.027 155.858C390.177 155.541 390.387 155.223 390.657 154.906C390.937 154.589 391.264 154.29 391.637 154.01L393.345 152.778C393.56 152.629 393.756 152.456 393.933 152.26C394.12 152.064 394.269 151.859 394.381 151.644C394.493 151.42 394.549 151.201 394.549 150.986C394.549 150.715 394.479 150.468 394.339 150.244C394.209 150.02 394.017 149.843 393.765 149.712C393.523 149.581 393.224 149.516 392.869 149.516C392.552 149.516 392.267 149.581 392.015 149.712C391.773 149.833 391.572 149.997 391.413 150.202C391.255 150.407 391.143 150.631 391.077 150.874L389.411 150.566C389.505 150.118 389.701 149.703 389.999 149.32C390.307 148.928 390.699 148.615 391.175 148.382C391.661 148.149 392.211 148.032 392.827 148.032C393.518 148.032 394.115 148.158 394.619 148.41C395.133 148.662 395.525 149.012 395.795 149.46C396.075 149.899 396.215 150.403 396.215 150.972C396.215 151.551 396.057 152.073 395.739 152.54C395.431 152.997 394.997 153.436 394.437 153.856L392.869 155.018C392.561 155.242 392.309 155.485 392.113 155.746C391.917 155.998 391.782 156.269 391.707 156.558H396.341V158H389.803ZM397.647 159.61L398.487 156.432H400.139L398.879 159.61H397.647ZM403.613 158V149.068L403.767 148.2H405.181V158H403.613ZM401.485 151.07V149.6C401.7 149.609 401.942 149.549 402.213 149.418C402.493 149.278 402.768 149.096 403.039 148.872C403.31 148.648 403.552 148.419 403.767 148.186L404.775 149.236C404.448 149.581 404.108 149.899 403.753 150.188C403.398 150.477 403.03 150.701 402.647 150.86C402.274 151.019 401.886 151.089 401.485 151.07ZM407.518 158V156.754C407.518 156.465 407.593 156.166 407.742 155.858C407.892 155.541 408.102 155.223 408.372 154.906C408.652 154.589 408.979 154.29 409.352 154.01L411.06 152.778C411.275 152.629 411.471 152.456 411.648 152.26C411.835 152.064 411.984 151.859 412.096 151.644C412.208 151.42 412.264 151.201 412.264 150.986C412.264 150.715 412.194 150.468 412.054 150.244C411.924 150.02 411.732 149.843 411.48 149.712C411.238 149.581 410.939 149.516 410.584 149.516C410.267 149.516 409.982 149.581 409.73 149.712C409.488 149.833 409.287 149.997 409.128 150.202C408.97 150.407 408.858 150.631 408.792 150.874L407.126 150.566C407.22 150.118 407.416 149.703 407.714 149.32C408.022 148.928 408.414 148.615 408.89 148.382C409.376 148.149 409.926 148.032 410.542 148.032C411.233 148.032 411.83 148.158 412.334 148.41C412.848 148.662 413.24 149.012 413.51 149.46C413.79 149.899 413.93 150.403 413.93 150.972C413.93 151.551 413.772 152.073 413.454 152.54C413.146 152.997 412.712 153.436 412.152 153.856L410.584 155.018C410.276 155.242 410.024 155.485 409.828 155.746C409.632 155.998 409.497 156.269 409.422 156.558H414.056V158H407.518ZM415.768 158V151H417.238L417.308 151.938C417.523 151.574 417.798 151.299 418.134 151.112C418.47 150.925 418.853 150.832 419.282 150.832C419.842 150.832 420.318 150.958 420.71 151.21C421.102 151.462 421.387 151.845 421.564 152.358C421.77 151.863 422.059 151.485 422.432 151.224C422.806 150.963 423.244 150.832 423.748 150.832C424.56 150.832 425.186 151.093 425.624 151.616C426.063 152.129 426.278 152.923 426.268 153.996V158H424.714V154.416C424.714 153.856 424.654 153.427 424.532 153.128C424.411 152.82 424.248 152.605 424.042 152.484C423.837 152.363 423.599 152.302 423.328 152.302C422.843 152.293 422.465 152.465 422.194 152.82C421.933 153.175 421.802 153.683 421.802 154.346V158H420.234V154.416C420.234 153.856 420.174 153.427 420.052 153.128C419.94 152.82 419.782 152.605 419.576 152.484C419.371 152.363 419.133 152.302 418.862 152.302C418.377 152.293 417.999 152.465 417.728 152.82C417.467 153.175 417.336 153.683 417.336 154.346V158H415.768Z" fill="#525256"/>
<defs>
<filter id="filter0_d_2085_774" x="4" y="6" width="221" height="178" filterUnits="userSpaceOnUse" color-interpolation-filters="sRGB">
<feFlood flood-opacity="0" result="BackgroundImageFix"/>
<feColorMatrix in="SourceAlpha" type="matrix" values="0 0 0 0 0 0 0 0 0 0 0 0 0 0 0 0 0 0 127 0" result="hardAlpha"/>
<feOffset dy="2"/>
<feGaussianBlur stdDeviation="10"/>
<feColorMatrix type="matrix" values="0 0 0 0 0 0 0 0 0 0 0 0 0 0 0 0 0 0 0.1 0"/>
<feBlend mode="normal" in2="BackgroundImageFix" result="effect1_dropShadow_2085_774"/>
<feBlend mode="normal" in="SourceGraphic" in2="effect1_dropShadow_2085_774" result="shape"/>
</filter>
<linearGradient id="paint0_linear_2085_774" x1="123.971" y1="131.192" x2="114.5" y2="165.092" gradientUnits="userSpaceOnUse">
<stop stop-color="#1AD1FF"/>
<stop offset="1" stop-color="#369EFF"/>
</linearGradient>
</defs>
</svg>
