<svg width="600" height="410" viewBox="0 0 600 410" fill="none" xmlns="http://www.w3.org/2000/svg">
<rect width="600" height="410" rx="26" fill="white"/>
<g clip-path="url(#clip0_2145_2109)">
<path d="M366.08 364.983H25.5649V384.517H366.08V364.983Z" fill="#F3F3F3"/>
<path d="M357.326 335.249H32.376V353.806H357.326V335.249Z" fill="#F3F3F3"/>
<path d="M353.434 125.838H36.2676V145.372H353.434V125.838Z" fill="#F3F3F3"/>
<path d="M195.823 18L20.7017 115.67H369L195.823 18Z" fill="#F3F3F3"/>
<path d="M114.099 170.803V157.094H42.106V170.768H43.3218C50.1738 170.768 55.7276 176.342 55.7276 183.223V297.005C55.7276 303.882 50.1738 309.46 43.3218 309.46H42.106V323.134H114.099V309.425C107.589 309.044 102.425 303.638 102.425 297.009V183.226C102.425 176.596 107.589 171.19 114.099 170.81V170.803Z" fill="#F3F3F3"/>
<path d="M230.849 170.803V157.094H160.8V170.803C167.31 171.184 172.474 176.59 172.474 183.219V297.002C172.474 303.632 167.31 309.038 160.8 309.418V323.128H230.849V309.418C224.339 309.038 219.175 303.632 219.175 297.002V183.219C219.175 176.59 224.339 171.184 230.849 170.803Z" fill="#F3F3F3"/>
<path d="M347.596 170.803V157.094H277.546V170.803C284.056 171.184 289.221 176.59 289.221 183.219V297.002C289.221 303.632 284.056 309.038 277.546 309.418V323.128H347.596V309.418C341.085 309.038 335.921 303.632 335.921 297.002V183.219C335.921 176.59 341.085 171.184 347.596 170.803Z" fill="#F3F3F3"/>
</g>
<path d="M455.98 84.6201L447.432 83.2308L450.503 91.3283L455.98 84.6201ZM404.06 104.31L404.326 105.011L406.18 104.308L405.914 103.607L405.648 102.906L403.794 103.609L404.06 104.31ZM409.623 102.2L409.889 102.902L413.597 101.495L413.331 100.794L413.066 100.093L409.357 101.499L409.623 102.2ZM417.04 99.3876L417.306 100.089L421.015 98.6825L420.749 97.9812L420.483 97.2799L416.774 98.6863L417.04 99.3876ZM424.457 96.5748L424.723 97.276L428.432 95.8696L428.166 95.1683L427.9 94.4671L424.191 95.8735L424.457 96.5748ZM431.874 93.7619L432.14 94.4632L435.849 93.0567L435.583 92.3555L435.317 91.6542L431.608 93.0606L431.874 93.7619ZM439.291 90.949L439.557 91.6503L443.266 90.2439L443 89.5426L442.734 88.8414L439.026 90.2478L439.291 90.949ZM446.709 88.1362L446.975 88.8375L450.683 87.431L450.417 86.7298L450.151 86.0285L446.443 87.4349L446.709 88.1362Z" fill="#D2D2D2"/>
<path d="M456.81 322.55L451.168 315.98L448.299 324.152L456.81 322.55ZM397.9 301.87L397.651 302.578L399.492 303.224L399.741 302.516L399.989 301.809L398.148 301.162L397.9 301.87ZM403.423 303.809L403.174 304.517L406.856 305.809L407.105 305.101L407.353 304.394L403.671 303.101L403.423 303.809ZM410.786 306.394L410.538 307.102L414.22 308.394L414.468 307.686L414.717 306.979L411.035 305.686L410.786 306.394ZM418.15 308.979L417.902 309.687L421.584 310.979L421.832 310.271L422.081 309.564L418.399 308.271L418.15 308.979ZM425.514 311.564L425.266 312.272L428.947 313.564L429.196 312.856L429.444 312.149L425.762 310.856L425.514 311.564ZM432.878 314.149L432.629 314.857L436.311 316.149L436.56 315.441L436.808 314.734L433.126 313.441L432.878 314.149ZM440.241 316.734L439.993 317.442L443.675 318.734L443.923 318.026L444.172 317.319L440.49 316.026L440.241 316.734ZM447.605 319.319L447.357 320.027L451.039 321.319L451.287 320.611L451.536 319.904L447.854 318.611L447.605 319.319Z" fill="#D2D2D2"/>
<path d="M480.55 164.14L472.515 160.909L473.734 169.483L480.55 164.14ZM399.68 175.64L399.786 176.382L401.808 176.095L401.702 175.352L401.596 174.61L399.575 174.897L399.68 175.64ZM405.745 174.777L405.851 175.52L409.895 174.945L409.789 174.202L409.683 173.46L405.64 174.035L405.745 174.777ZM413.832 173.627L413.938 174.37L417.982 173.795L417.876 173.052L417.77 172.31L413.727 172.885L413.832 173.627ZM421.919 172.477L422.025 173.22L426.069 172.645L425.963 171.902L425.857 171.16L421.814 171.735L421.919 172.477ZM430.006 171.327L430.112 172.07L434.156 171.495L434.05 170.752L433.944 170.01L429.901 170.585L430.006 171.327ZM438.093 170.177L438.199 170.92L442.243 170.345L442.137 169.602L442.031 168.86L437.988 169.435L438.093 170.177ZM446.18 169.027L446.286 169.77L450.33 169.195L450.224 168.452L450.118 167.71L446.075 168.285L446.18 169.027ZM454.267 167.877L454.373 168.62L458.417 168.045L458.311 167.302L458.205 166.56L454.162 167.135L454.267 167.877ZM462.354 166.727L462.46 167.47L466.504 166.895L466.398 166.152L466.292 165.41L462.249 165.985L462.354 166.727ZM470.441 165.577L470.547 166.32L474.591 165.745L474.485 165.002L474.379 164.26L470.336 164.835L470.441 165.577Z" fill="#D2D2D2"/>
<path d="M481.55 242.64L474.525 237.575L473.652 246.191L481.55 242.64ZM397.68 234.14L397.605 234.886L399.511 235.079L399.586 234.333L399.662 233.587L397.756 233.393L397.68 234.14ZM403.399 234.719L403.323 235.465L407.135 235.852L407.211 235.106L407.286 234.359L403.474 233.973L403.399 234.719ZM411.023 235.492L410.948 236.238L414.76 236.624L414.835 235.878L414.911 235.132L411.099 234.746L411.023 235.492ZM418.648 236.265L418.572 237.011L422.384 237.397L422.46 236.651L422.536 235.905L418.723 235.518L418.648 236.265ZM426.272 237.037L426.197 237.784L430.009 238.17L430.084 237.424L430.16 236.678L426.348 236.291L426.272 237.037ZM433.897 237.81L433.821 238.556L437.633 238.943L437.709 238.196L437.785 237.45L433.972 237.064L433.897 237.81ZM441.521 238.583L441.446 239.329L445.258 239.715L445.334 238.969L445.409 238.223L441.597 237.837L441.521 238.583ZM449.146 239.356L449.07 240.102L452.883 240.488L452.958 239.742L453.034 238.996L449.221 238.609L449.146 239.356ZM456.77 240.128L456.695 240.874L460.507 241.261L460.583 240.515L460.658 239.768L456.846 239.382L456.77 240.128ZM464.395 240.901L464.319 241.647L468.132 242.034L468.207 241.287L468.283 240.541L464.471 240.155L464.395 240.901ZM472.02 241.674L471.944 242.42L475.756 242.806L475.832 242.06L475.907 241.314L472.095 240.928L472.02 241.674Z" fill="#D2D2D2"/>
<path d="M527 284C547.435 284 564 267.435 564 247C564 226.565 547.435 210 527 210C506.565 210 490 226.565 490 247C490 267.435 506.565 284 527 284Z" fill="#25BEFF"/>
<path d="M499 107.479C519.435 107.479 536 90.914 536 70.4795C536 50.045 519.435 33.4795 499 33.4795C478.565 33.4795 462 50.045 462 70.4795C462 90.914 478.565 107.479 499 107.479Z" fill="#64DC87"/>
<g clip-path="url(#clip1_2145_2109)">
<path d="M504.376 52.7672C506.464 53.2658 506.93 55.9582 505.216 57.218C505.841 57.6971 506.484 58.1563 507.092 58.658C513.756 64.1623 518.056 72.0884 518.293 80.8625C518.427 85.7955 515.007 87.5252 510.738 88.5255C505.75 89.6945 499.122 89.7428 494.018 89.3438C490.025 89.0316 482.434 87.9622 480.572 83.8249C479.806 82.1223 480.17 79.2152 480.44 77.3735C481.649 69.133 486.533 62.0009 493.199 57.2171L492.846 56.9076C491.51 55.5322 492.181 53.187 494.039 52.7672L492.681 48.2163C492.417 47.1026 493.092 45.9778 494.18 45.6692C497.513 45.5439 500.901 45.5439 504.234 45.6692C505.337 45.9823 506.01 47.1274 505.724 48.2522L504.375 52.7672H504.376ZM494.602 47.0216C494.237 47.0999 493.986 47.4498 494.043 47.8248L495.495 52.6587L502.941 52.6357L504.364 47.8634C504.451 47.4303 504.135 47.0255 503.693 47.0096L494.602 47.022V47.0216ZM494.425 54.1067C493.244 54.4012 493.271 55.9626 494.462 56.2176L503.912 56.2216C505.152 56.0188 505.183 54.3512 503.952 54.0996L494.425 54.1067ZM495.132 57.6493C487.27 62.6266 481.82 71.2758 481.535 80.7301C481.46 83.2187 482.174 84.4325 484.335 85.6325C489.005 88.2266 497.549 88.2501 502.808 88.0167C506.516 87.852 513.379 87.4091 515.928 84.3855C517.211 82.864 516.929 80.6937 516.744 78.8277C515.881 70.0939 510.586 62.325 503.313 57.6626L495.131 57.6493H495.132Z" fill="white"/>
<path d="M498.5 73.2262C496.196 73.2112 494.511 71.0546 495.076 68.7976C495.462 67.257 496.913 66.1358 498.5 66.1411C498.47 65.6106 498.422 64.7772 499.142 64.7227C499.953 64.6612 499.967 65.5597 499.913 66.1411C501.476 66.1234 502.935 67.2543 503.328 68.763C503.399 69.0385 503.484 69.5158 503.444 69.7904C503.358 70.382 502.587 70.6158 502.192 70.1229C501.975 69.8528 502.078 69.7213 502.029 69.445C501.831 68.345 501.052 67.5834 499.914 67.5577V71.8088C501.52 71.803 502.972 72.9415 503.346 74.5011C503.885 76.7458 502.205 78.8824 499.913 78.8939C499.943 79.4244 499.992 80.2578 499.272 80.3123C498.46 80.3738 498.446 79.4753 498.5 78.8939C496.934 78.9059 495.479 77.7842 495.086 76.272C495.014 75.9965 494.93 75.5192 494.97 75.2446C495.055 74.653 495.826 74.4192 496.222 74.9121C496.438 75.1822 496.335 75.3137 496.385 75.59C496.582 76.69 497.361 77.4516 498.5 77.4773V73.2262H498.5ZM498.5 67.5581C495.694 67.6843 495.695 71.6834 498.5 71.8092V67.5581ZM499.914 77.4773C502.72 77.3511 502.719 73.352 499.914 73.2262V77.4773Z" fill="white"/>
</g>
<path d="M499 370C519.435 370 536 353.435 536 333C536 312.565 519.435 296 499 296C478.565 296 462 312.565 462 333C462 353.435 478.565 370 499 370Z" fill="#FFA64B"/>
<g clip-path="url(#clip2_2145_2109)">
<path d="M488.853 350.195C486.886 350.195 485.248 348.862 484.777 346.878L484.721 346.645L484.484 346.621C484.262 346.599 484.027 346.589 483.742 346.589C483.517 346.589 483.288 346.595 483.067 346.601C482.85 346.608 482.625 346.614 482.408 346.614C481.883 346.614 481.498 346.576 481.157 346.489C479.953 346.185 478.93 345.176 478.61 343.979C478.575 343.848 478.549 343.714 478.523 343.573C478.506 343.482 478.488 343.388 478.467 343.294C478.519 342.513 478.487 341.681 478.455 340.877C478.42 339.994 478.384 339.081 478.463 338.263C478.558 337.288 479.217 336.52 480.227 336.209C481.135 335.93 482.103 335.71 483.04 335.497C483.924 335.296 484.839 335.088 485.713 334.829L485.83 334.794L488.652 330.549C489.246 329.854 490.019 329.442 490.888 329.354H504.63C505.454 329.427 506.219 329.807 506.786 330.426L509.697 334.772L509.837 334.797C511.027 335.009 512.24 335.206 513.413 335.396C515.303 335.702 517.257 336.018 519.158 336.409C519.931 336.7 520.555 337.503 520.651 338.333V342.329C520.611 342.436 520.588 342.542 520.567 342.638C520.55 342.717 520.534 342.792 520.512 342.854C520.315 343.394 519.159 345.736 518.866 346.091C518.651 346.351 518.261 346.563 517.934 346.599L513.475 346.604L513.42 346.874C513.139 348.271 512.114 349.475 510.808 349.943C510.347 350.108 509.868 350.192 509.387 350.192C508.455 350.192 507.54 349.873 506.81 349.292C506.054 348.689 505.548 347.865 505.349 346.907L505.31 346.719L504.95 346.597L493.209 346.605L493.157 346.623C492.948 346.694 492.891 346.879 492.722 347.428C492.693 347.524 492.656 347.644 492.642 347.678C492.135 348.912 490.924 349.895 489.631 350.125C489.371 350.171 489.109 350.195 488.853 350.195V350.195ZM488.886 343.015C488.747 343.015 488.604 343.023 488.461 343.039C486.568 343.256 485.789 344.834 485.866 346.21C485.909 346.966 486.195 347.67 486.672 348.191C487.213 348.782 487.952 349.094 488.809 349.094H488.809C488.932 349.094 489.059 349.088 489.186 349.075C490.524 348.939 491.919 347.892 491.82 345.916C491.782 345.156 491.499 344.449 491.023 343.924C490.484 343.329 489.745 343.015 488.886 343.015ZM509.343 343.023C509.234 343.023 509.124 343.028 509.014 343.039C507.934 343.151 507.031 343.844 506.6 344.893C506.171 345.936 506.332 347.107 507.019 347.949C507.618 348.684 508.444 349.089 509.345 349.089C510.268 349.089 511.167 348.66 511.749 347.94C512.319 347.235 512.525 346.333 512.329 345.401C512.035 344 510.807 343.022 509.343 343.022L509.343 343.023ZM491.099 330.449C490.449 330.495 489.944 330.753 489.51 331.263C488.944 331.928 488.451 332.749 487.975 333.542C487.554 334.241 487.12 334.964 486.649 335.552C486.451 335.8 486.264 335.844 485.925 335.926C485.84 335.946 485.753 335.966 485.658 335.993C484.967 336.182 484.229 336.348 483.515 336.509C482.522 336.734 481.496 336.965 480.548 337.267C480.193 337.38 479.765 337.586 479.614 338.178L479.604 338.219L479.612 343.441L479.62 343.476C479.865 344.622 480.789 345.419 481.974 345.506C482.168 345.521 482.375 345.528 482.608 345.528C482.899 345.528 483.193 345.517 483.477 345.506C483.754 345.496 484.04 345.485 484.314 345.485C484.358 345.485 484.402 345.485 484.446 345.486L484.714 345.49L484.777 345.228C485.248 343.243 486.886 341.91 488.853 341.91C489.109 341.91 489.371 341.934 489.631 341.979C490.936 342.211 492.151 343.206 492.654 344.454C492.667 344.485 492.7 344.596 492.727 344.686C492.885 345.213 492.944 345.41 493.157 345.482L493.209 345.499L505.01 345.505L505.315 345.361L505.349 345.197C505.549 344.239 506.054 343.414 506.81 342.812C507.538 342.231 508.452 341.912 509.383 341.912C509.865 341.912 510.345 341.996 510.808 342.162C512.117 342.631 513.143 343.836 513.42 345.23L513.475 345.503L517.994 345.461L519.516 342.344L519.51 342.252C519.47 341.715 519.5 341.098 519.529 340.501C519.563 339.781 519.599 339.037 519.519 338.376C519.452 337.824 518.939 337.446 518.49 337.37L509.127 335.774L508.954 335.638L506.017 331.233L506.003 331.216C505.589 330.742 505.07 330.49 504.415 330.447L504.404 330.446H491.111L491.099 330.447V330.449Z" fill="white"/>
<path d="M509.363 326.867C507.711 326.867 506.189 326.199 505.077 324.988C505.049 324.957 504.983 324.872 504.925 324.797C504.609 324.386 504.473 324.228 504.289 324.191L504.257 324.185L490.554 324.183L490.465 324.247C489.733 324.784 488.871 325.067 487.972 325.067C485.982 325.067 484.315 323.725 483.92 321.804C483.659 320.536 483.948 319.304 484.735 318.335C485.523 317.363 486.725 316.783 487.951 316.783C488.791 316.783 489.616 317.055 490.335 317.571L490.423 317.633L504.497 317.657L504.597 317.512C505.695 315.915 507.438 315 509.379 315C511.32 315 513.26 316.024 514.342 317.739C514.732 318.357 514.991 318.986 514.958 319.236C514.93 319.446 514.703 319.661 514.482 319.686C514.289 319.708 514.073 319.718 513.822 319.718C513.504 319.718 513.167 319.701 512.84 319.684C512.504 319.668 512.157 319.65 511.822 319.65C511.532 319.65 511.28 319.663 511.053 319.69C510.273 319.783 509.927 320.409 509.934 320.95C509.944 321.607 510.405 322.107 511.057 322.165C511.236 322.181 511.433 322.189 511.657 322.189C511.995 322.189 512.35 322.171 512.694 322.154C513.032 322.136 513.38 322.119 513.703 322.119C514.026 322.119 514.279 322.136 514.499 322.171C514.745 322.21 514.953 322.448 514.962 322.702C514.976 323.13 514.263 324.323 513.808 324.846C512.689 326.13 511.068 326.867 509.363 326.867ZM504.684 323.049C505.044 323.052 505.217 323.288 505.494 323.704C505.61 323.879 505.73 324.06 505.882 324.224C506.792 325.21 508.032 325.753 509.373 325.753C510.883 325.753 512.269 325.063 513.176 323.861L513.554 323.359L512.928 323.322C512.671 323.306 512.417 323.305 512.179 323.305H511.974C511.012 323.305 510.282 323.264 509.65 322.728C509.069 322.235 508.774 321.505 508.843 320.726C508.911 319.95 509.327 319.286 509.983 318.905C510.206 318.775 510.677 318.592 510.795 318.589H513.361L513.229 318.155C513.179 317.99 513.062 317.846 512.937 317.701L512.932 317.696C512.059 316.685 510.781 316.105 509.426 316.105C507.979 316.105 506.622 316.741 505.705 317.85C505.597 317.98 505.511 318.116 505.427 318.246C505.221 318.569 505.09 318.757 504.826 318.795L490.265 318.8C490.076 318.776 489.953 318.68 489.784 318.547C489.687 318.471 489.576 318.384 489.444 318.307C488.99 318.042 488.473 317.902 487.95 317.902C486.694 317.902 485.557 318.689 485.12 319.86C484.768 320.804 484.891 321.816 485.459 322.638C486.037 323.475 486.967 323.974 487.946 323.974C488.449 323.974 488.937 323.844 489.397 323.586C489.57 323.489 489.694 323.393 489.804 323.309C490.002 323.157 490.113 323.072 490.425 323.047L504.684 323.049H504.684Z" fill="white"/>
<path d="M487.903 321.491C487.55 321.491 487.418 321.13 487.418 320.903C487.418 320.746 487.469 320.381 487.944 320.38C488.286 320.38 488.45 320.618 488.489 320.842C488.526 321.047 488.465 321.326 488.169 321.437C488.074 321.473 487.984 321.491 487.903 321.491H487.903Z" fill="white"/>
</g>
<path d="M527 192C547.435 192 564 175.435 564 155C564 134.565 547.435 118 527 118C506.565 118 490 134.565 490 155C490 175.435 506.565 192 527 192Z" fill="#4C4743"/>
<g clip-path="url(#clip3_2145_2109)">
<path d="M537.274 156.212H543.891C543.923 156.212 544.22 156.314 544.278 156.337C545.415 156.788 545.82 158.277 545.03 159.237C539.685 164.166 534.36 169.13 528.946 173.978C527.885 174.644 526.556 174.65 525.496 173.978C520.083 169.128 514.76 164.164 509.412 159.237C508.643 158.291 508.995 156.878 510.086 156.377C510.158 156.344 510.502 156.212 510.551 156.212H517.168V136.652C517.168 135.904 518.166 134.985 518.914 134.999L535.565 135.001C537.924 135.372 537.149 137.961 537.271 139.673C537.134 140.366 536.24 140.416 536.035 139.739C535.914 138.827 536.138 137.7 536.014 136.815C535.98 136.571 535.759 136.325 535.517 136.283L519.032 136.272C518.699 136.283 518.434 136.553 518.423 136.889L518.406 157.009C518.305 157.308 518.08 157.454 517.777 157.485L510.751 157.489C510.215 157.605 510.077 158.25 510.531 158.581L526.007 172.784C526.617 173.26 527.435 173.342 528.126 172.988C533.454 168.301 538.597 163.378 543.872 158.621C544.35 158.285 544.269 157.627 543.691 157.489L536.704 157.487C536.379 157.458 536.147 157.33 536.036 157.009L536.027 151.506C536.131 151.064 536.609 150.839 536.997 151.101C537.087 151.162 537.275 151.393 537.275 151.496V156.212L537.274 156.212Z" fill="white"/>
<path d="M540.916 136.284C541.459 136.196 541.839 136.714 541.601 137.217L531.535 155.072C531.155 155.655 530.283 155.347 530.366 154.645C533.671 148.59 537.145 142.612 540.5 136.58C540.602 136.438 540.738 136.313 540.916 136.284Z" fill="white"/>
<path d="M530.001 138.834C532.659 138.594 534.714 141.101 533.986 143.708C533.167 146.638 529.388 147.432 527.458 145.089C525.526 142.745 527.015 139.104 530.001 138.834ZM530.08 140.107C526.884 140.438 527.268 145.446 530.578 145.189C533.853 144.935 533.487 139.755 530.08 140.107Z" fill="white"/>
<path d="M541.311 145.202C543.968 144.962 546.023 147.468 545.295 150.075C544.477 153.006 540.698 153.799 538.768 151.456C536.836 149.112 538.325 145.471 541.311 145.202ZM541.39 146.475C538.193 146.805 538.577 151.813 541.888 151.556C545.163 151.302 544.796 146.122 541.39 146.475Z" fill="white"/>
</g>
<g filter="url(#filter0_d_2145_2109)">
<path d="M127 69.5229C127 60.3915 132.53 53 139.341 53H390.659C397.479 53 403 60.4045 403 69.5229V127.477C403 136.609 397.47 144 390.659 144H139.341C132.521 144 127 136.595 127 127.477V69.5229Z" fill="white"/>
</g>
<path opacity="0.15" d="M287.692 111H236.308C233.922 111 232 112.793 232 115C232 117.207 233.934 119 236.308 119H287.692C290.078 119 292 117.207 292 115C292 112.793 290.066 111 287.692 111Z" fill="#1B3554"/>
<path opacity="0.15" d="M357.688 111H306.312C303.934 111 302 112.793 302 115C302 117.207 303.934 119 306.312 119H357.688C360.066 119 362 117.207 362 115C362 112.793 360.066 111 357.688 111Z" fill="#1B3554"/>
<path d="M182 132C200.22 132 215 117.009 215 98.5C215 79.9912 200.233 65 182 65C163.767 65 149 79.9912 149 98.5C149 117.009 163.767 132 182 132Z" fill="#F3F3F3"/>
<g filter="url(#filter1_d_2145_2109)">
<path d="M97 171.884C97 162.553 103.512 155 111.532 155H407.468C415.499 155 422 162.566 422 171.884V231.103C422 240.434 415.488 248 407.468 248H111.532C103.501 248 97 240.434 97 231.116V171.897V171.884Z" fill="white"/>
</g>
<path d="M152 233C170.22 233 185 218.68 185 201C185 183.32 170.233 169 152 169C133.767 169 119 183.32 119 201C119 218.68 133.767 233 152 233Z" fill="#F3F3F3"/>
<g filter="url(#filter2_d_2145_2109)">
<path d="M127 276.341C127 267.31 132.53 260 139.341 260H390.659C397.479 260 403 267.323 403 276.341V333.659C403 342.69 397.47 350 390.659 350H139.341C132.521 350 127 342.677 127 333.659V276.341Z" fill="white"/>
</g>
<path opacity="0.15" d="M232 320.5C232 318.018 233.954 316 236.358 316H311.642C314.046 316 316 318.018 316 320.5C316 322.982 314.046 325 311.642 325H236.358C233.954 325 232 322.982 232 320.5Z" fill="#1B3554"/>
<path d="M182 339C200.22 339 215 323.556 215 304.5C215 285.444 200.233 270 182 270C163.767 270 149 285.444 149 304.5C149 323.556 163.767 339 182 339Z" fill="#F3F3F3"/>
<mask id="mask0_2145_2109" style="mask-type:luminance" maskUnits="userSpaceOnUse" x="161" y="84" width="42" height="30">
<path d="M202.888 84.3086H161.362V113.143H202.888V84.3086Z" fill="white"/>
</mask>
<g mask="url(#mask0_2145_2109)">
<path fill-rule="evenodd" clip-rule="evenodd" d="M200.365 84.3086H163.886C163.195 84.3086 162.555 84.5848 162.103 85.0367C161.651 85.4886 161.362 86.1163 161.362 86.8067V110.645C161.362 111.336 161.651 111.951 162.103 112.403C162.555 112.855 163.195 113.131 163.886 113.131H200.365C201.056 113.131 201.696 112.855 202.148 112.403C202.6 111.951 202.888 111.323 202.888 110.645V86.8067C202.888 86.1163 202.6 85.5012 202.148 85.0492C201.696 84.5973 201.056 84.3211 200.365 84.3211V84.3086Z" fill="url(#paint0_linear_2145_2109)"/>
<path d="M202.888 89.5186H161.362V92.9958H202.888V89.5186Z" fill="#44525F"/>
<path fill-rule="evenodd" clip-rule="evenodd" d="M175.472 105.598H175.51L175.447 106.05C175.347 106.791 174.995 107.481 174.468 108.009C173.815 108.649 172.949 109.013 172.033 109.013H169.346V109.038L169.196 109.013H169.183L168.857 108.938C168.191 108.799 167.589 108.473 167.099 107.996C166.447 107.356 166.083 106.49 166.083 105.586V103.125C166.083 102.222 166.447 101.355 167.099 100.715C167.639 100.188 168.568 99.7109 169.334 99.7109H172.02C172.937 99.7109 173.815 100.075 174.456 100.715C174.995 101.242 175.334 101.933 175.435 102.674L175.497 103.125H175.46V105.586L175.472 105.598Z" fill="#44525F"/>
<path d="M175.071 103.378H169.585V105.349H175.071V103.378Z" fill="#F8D35E"/>
<path fill-rule="evenodd" clip-rule="evenodd" d="M169.572 102.736H175.033C174.945 102.071 174.631 101.468 174.167 101.004C173.614 100.451 172.849 100.112 172.008 100.112H169.572V102.736Z" fill="#F8D35E"/>
<path fill-rule="evenodd" clip-rule="evenodd" d="M168.932 103.063V100.188C168.342 100.314 167.802 100.603 167.388 101.017C166.836 101.569 166.497 102.323 166.497 103.151V105.611C166.497 106.44 166.836 107.193 167.388 107.746C167.802 108.16 168.342 108.449 168.932 108.574V103.076V103.063Z" fill="#F8D35E"/>
<path fill-rule="evenodd" clip-rule="evenodd" d="M175.033 106.001H169.572V108.625H172.008C172.849 108.625 173.614 108.286 174.167 107.733C174.631 107.281 174.945 106.679 175.033 106.001Z" fill="#F8D35E"/>
<path fill-rule="evenodd" clip-rule="evenodd" d="M190.687 104.368C190.687 103.125 191.151 101.995 191.93 101.129C191.591 100.841 191.202 100.602 190.775 100.439C190.273 100.238 189.733 100.125 189.156 100.125C187.976 100.125 186.896 100.602 186.118 101.368C185.339 102.134 184.862 103.201 184.862 104.368C184.862 105.535 185.339 106.602 186.118 107.368C186.896 108.134 187.963 108.611 189.156 108.611C189.733 108.611 190.285 108.498 190.775 108.297C191.202 108.121 191.578 107.895 191.93 107.607C191.164 106.741 190.687 105.611 190.687 104.368Z" fill="#FF8F00"/>
<path fill-rule="evenodd" clip-rule="evenodd" d="M198.47 104.368C198.47 103.201 197.993 102.134 197.214 101.368C196.436 100.602 195.369 100.125 194.177 100.125C192.984 100.125 191.917 100.602 191.139 101.368C190.36 102.134 189.883 103.201 189.883 104.368C189.883 105.535 190.36 106.602 191.139 107.368C191.917 108.134 192.984 108.611 194.177 108.611C195.369 108.611 196.436 108.134 197.214 107.368C197.993 106.602 198.47 105.535 198.47 104.368Z" fill="#FFD54F"/>
</g>
<mask id="mask1_2145_2109" style="mask-type:luminance" maskUnits="userSpaceOnUse" x="137" y="177" width="38" height="45">
<path d="M174.044 177.278H137.138V221.102H174.044V177.278Z" fill="white"/>
</mask>
<g mask="url(#mask1_2145_2109)">
<path d="M140.879 177.278H157.537C159.608 177.278 161.278 178.973 161.278 181.057V217.323C161.278 219.407 159.595 221.102 157.537 221.102H140.879C138.807 221.102 137.138 219.407 137.138 217.323V181.057C137.138 178.973 138.82 177.278 140.879 177.278Z" fill="#484745"/>
<path fill-rule="evenodd" clip-rule="evenodd" d="M146.702 180.243H154.347C154.561 180.243 154.749 180.419 154.749 180.645C154.749 180.871 154.573 181.047 154.347 181.047H146.702C146.489 181.047 146.301 180.871 146.301 180.645C146.301 180.419 146.477 180.243 146.702 180.243Z" fill="#FEFDFB"/>
<path fill-rule="evenodd" clip-rule="evenodd" d="M144.381 181.345C144.757 181.345 145.071 181.032 145.071 180.642C145.071 180.253 144.757 179.939 144.381 179.939C144.004 179.939 143.69 180.253 143.69 180.642C143.69 181.032 144.004 181.345 144.381 181.345Z" fill="#FEFDFB"/>
<path fill-rule="evenodd" clip-rule="evenodd" d="M149.214 219.231C150.03 219.231 150.708 218.553 150.708 217.724C150.708 216.896 150.043 216.218 149.214 216.218C148.386 216.218 147.72 216.896 147.72 217.724C147.72 218.553 148.386 219.231 149.214 219.231Z" fill="white"/>
<path d="M159.746 183.467H138.669V214.9H159.746V183.467Z" fill="#75C8EC"/>
<path fill-rule="evenodd" clip-rule="evenodd" d="M172.601 192.267H151.699C151.298 192.267 150.946 192.417 150.683 192.681C150.419 192.932 150.256 193.283 150.256 193.673V207.029C150.256 207.418 150.419 207.77 150.683 208.021C150.946 208.272 151.31 208.435 151.699 208.435H172.601C173.002 208.435 173.354 208.285 173.617 208.021C173.881 207.77 174.044 207.418 174.044 207.029V193.673C174.044 193.283 173.881 192.944 173.617 192.681C173.354 192.43 172.99 192.267 172.601 192.267Z" fill="url(#paint1_linear_2145_2109)"/>
<path d="M174.044 195.154H150.256V198.18H174.044V195.154Z" fill="#44525F"/>
</g>
<path fill-rule="evenodd" clip-rule="evenodd" d="M199.938 289.338H162.651C161.945 289.338 161.303 289.612 160.837 290.042C160.371 290.483 160.081 291.08 160.081 291.748V314.836C160.081 315.504 160.371 316.101 160.837 316.542C161.303 316.984 161.945 317.258 162.651 317.258H199.938C200.643 317.258 201.286 316.984 201.764 316.542C202.23 316.101 202.52 315.504 202.52 314.836V291.748C202.52 291.08 202.23 290.483 201.764 290.042C201.298 289.6 200.656 289.338 199.938 289.338Z" fill="url(#paint2_linear_2145_2109)"/>
<path d="M202.52 294.921H160.081V300.505H202.52V294.921Z" fill="#315A78"/>
<path d="M164.548 306.09H178.342C178.743 306.09 179.066 305.841 179.066 305.532C179.066 305.223 178.743 304.974 178.342 304.974H164.548" fill="#315A78"/>
<path d="M164.548 309.439H186.181C186.57 309.439 186.884 309.19 186.884 308.881C186.884 308.572 186.57 308.322 186.181 308.322H164.548" fill="#315A78"/>
<path d="M164.548 312.791H186.181C186.57 312.791 186.884 312.541 186.884 312.232C186.884 311.923 186.57 311.674 186.181 311.674H164.548" fill="#315A78"/>
<path d="M239.334 99.9889C238.107 99.9889 237.016 99.7348 236.049 99.2376C235.107 98.7293 234.351 98.0331 233.806 97.1602C233.273 96.2762 233 95.2597 233 94.1105C233 92.9613 233.273 91.9448 233.806 91.0718C234.351 90.1878 235.095 89.4917 236.049 88.9945C236.991 88.4862 238.082 88.232 239.309 88.232C240.14 88.232 240.908 88.3646 241.64 88.6409C242.371 88.9061 243.016 89.2597 243.573 89.7238C244.144 90.1878 244.577 90.7293 244.887 91.3481L242.954 92.0442C242.731 91.6354 242.433 91.2707 242.061 90.9613C241.702 90.6409 241.28 90.3867 240.809 90.2099C240.338 90.0331 239.842 89.9447 239.309 89.9447C238.504 89.9447 237.797 90.1215 237.165 90.4862C236.545 90.8398 236.049 91.337 235.69 91.9668C235.343 92.5856 235.157 93.3039 235.157 94.1105C235.157 94.9171 235.33 95.6464 235.69 96.2762C236.049 96.9061 236.558 97.3923 237.19 97.7569C237.834 98.1105 238.566 98.2983 239.371 98.2983C239.904 98.2983 240.4 98.2099 240.871 98.0221C241.342 97.8232 241.764 97.558 242.123 97.2265C242.495 96.895 242.793 96.4972 243.016 96.0552L244.949 96.7514C244.639 97.3923 244.218 97.9558 243.66 98.453C243.102 98.9392 242.458 99.3149 241.714 99.5912C240.97 99.8674 240.189 100 239.347 100L239.334 99.9889ZM247.974 95.4807C247.974 94.6077 248.16 93.8785 248.544 93.3149C248.916 92.7514 249.412 92.3315 250.007 92.0663C250.614 91.7901 251.246 91.6464 251.903 91.6464V93.3812C251.345 93.3812 250.812 93.4475 250.317 93.5912C249.833 93.7238 249.437 93.9337 249.127 94.2431C248.817 94.5414 248.668 94.9503 248.668 95.4475L247.974 95.4807ZM246.623 99.8011V91.6796H248.668V99.8011H246.623ZM257.333 99.9889C256.44 99.9889 255.659 99.8122 254.965 99.4475C254.283 99.0829 253.75 98.5746 253.341 97.9337C252.957 97.2928 252.759 96.5635 252.759 95.7238C252.759 94.884 252.957 94.1547 253.366 93.5138C253.763 92.8729 254.308 92.3757 255.002 92.0221C255.709 91.6575 256.514 91.4696 257.407 91.4696C258.225 91.4696 258.956 91.6575 259.613 92.0331C260.27 92.3978 260.791 92.9392 261.163 93.6464C261.547 94.3536 261.745 95.1934 261.745 96.1657H254.581L254.853 95.9337C254.853 96.4309 254.977 96.8619 255.213 97.2376C255.461 97.5912 255.783 97.8674 256.18 98.0663C256.576 98.2652 257.023 98.3536 257.506 98.3536C258.064 98.3536 258.523 98.2431 258.894 98.0331C259.254 97.8011 259.539 97.5138 259.75 97.1602L261.559 97.8453C261.299 98.2762 260.977 98.663 260.58 98.9834C260.196 99.3039 259.725 99.558 259.179 99.7348C258.646 99.9116 258.027 100 257.345 100L257.333 99.9889ZM254.977 95.0055L254.68 94.7735H259.824L259.551 95.0055C259.551 94.5635 259.44 94.1989 259.229 93.9227C259.006 93.6354 258.733 93.4144 258.386 93.2707C258.064 93.116 257.717 93.0387 257.345 93.0387C256.973 93.0387 256.614 93.116 256.254 93.2707C255.895 93.4144 255.585 93.6243 255.337 93.9227C255.089 94.1989 254.977 94.5635 254.977 95.0055ZM269.914 99.8011L269.827 98.2873V88.4309H271.848V99.8011H269.914ZM266.939 99.9889C266.109 99.9889 265.39 99.8122 264.77 99.4696C264.162 99.116 263.679 98.6188 263.332 97.9779C262.997 97.337 262.824 96.5967 262.824 95.7348C262.824 94.8729 262.997 94.1215 263.332 93.4917C263.679 92.8508 264.162 92.3646 264.77 92.011C265.39 91.6575 266.109 91.4696 266.939 91.4696C267.708 91.4696 268.365 91.6464 268.91 92.011C269.468 92.3536 269.889 92.8508 270.187 93.4917C270.484 94.1215 270.621 94.8619 270.621 95.7348C270.621 96.6077 270.472 97.337 270.187 97.9779C269.889 98.6188 269.468 99.116 268.91 99.4696C268.365 99.8122 267.708 99.9889 266.939 99.9889ZM267.447 98.3425C267.906 98.3425 268.315 98.232 268.662 98.0221C269.022 97.7901 269.307 97.4807 269.505 97.0939C269.716 96.7072 269.815 96.2541 269.815 95.7459C269.815 95.2376 269.716 94.7845 269.505 94.3978C269.307 94.0111 269.034 93.7017 268.662 93.4917C268.315 93.2707 267.894 93.1713 267.423 93.1713C266.951 93.1713 266.505 93.2818 266.133 93.4917C265.762 93.7127 265.464 94.0111 265.241 94.3978C265.03 94.7845 264.919 95.2376 264.919 95.7459C264.919 96.2541 265.043 96.7072 265.241 97.0939C265.464 97.4807 265.762 97.7901 266.133 98.0221C266.518 98.2431 266.964 98.3425 267.447 98.3425ZM274.252 99.8011V91.6796H276.273V99.8011H274.252ZM275.281 90.1326C274.959 90.1326 274.662 90.0331 274.426 89.8232C274.191 89.6022 274.079 89.3481 274.079 89.0608C274.079 88.7735 274.191 88.5193 274.426 88.3094C274.674 88.0994 274.959 88 275.281 88C275.604 88 275.889 88.0994 276.124 88.3094C276.372 88.5193 276.484 88.7624 276.484 89.0608C276.484 89.3591 276.36 89.6022 276.124 89.8232C275.889 90.0331 275.616 90.1326 275.281 90.1326ZM282.334 99.9889C281.38 99.9889 280.636 99.779 280.128 99.3591C279.632 98.9282 279.384 98.3094 279.384 97.5028V89.1381H281.405V97.1602C281.405 97.5359 281.504 97.8232 281.702 98.0221C281.913 98.221 282.21 98.3094 282.595 98.3094C282.719 98.3094 282.855 98.2873 282.991 98.2431C283.14 98.1989 283.301 98.1215 283.487 98L284.231 99.3812C283.909 99.5801 283.599 99.7238 283.289 99.8232C282.967 99.9337 282.657 99.9889 282.347 99.9889H282.334ZM277.872 93.2376V91.6796H283.871V93.2376H277.872ZM294.581 99.9889C293.652 99.9889 292.821 99.8122 292.102 99.4475C291.383 99.0829 290.825 98.5746 290.404 97.9337C290.007 97.2928 289.797 96.5635 289.797 95.7238C289.797 94.884 289.995 94.1547 290.404 93.5138C290.813 92.8729 291.371 92.3757 292.077 92.0221C292.796 91.6575 293.614 91.4696 294.532 91.4696C295.449 91.4696 296.242 91.6685 296.974 92.0552C297.705 92.4309 298.238 92.9834 298.597 93.6906L296.701 94.3425C296.503 93.9889 296.205 93.7017 295.808 93.4807C295.412 93.2597 294.953 93.1602 294.445 93.1602C293.937 93.1602 293.503 93.2707 293.119 93.5028C292.734 93.7238 292.424 94.0221 292.201 94.4088C291.978 94.7845 291.879 95.2265 291.879 95.7238C291.879 96.221 291.991 96.663 292.201 97.0608C292.437 97.4365 292.747 97.7459 293.131 97.9668C293.528 98.1878 293.986 98.2873 294.482 98.2873C294.978 98.2873 295.449 98.1768 295.846 97.9448C296.242 97.7017 296.54 97.3923 296.738 96.9834L298.635 97.6354C298.288 98.3757 297.742 98.9503 297.011 99.3591C296.292 99.768 295.486 99.9779 294.569 99.9779L294.581 99.9889ZM305.812 99.8011L305.725 98.2762V95.6243C305.725 95.0718 305.663 94.6077 305.527 94.2431C305.403 93.8674 305.204 93.5801 304.907 93.3812C304.622 93.1713 304.25 93.0718 303.779 93.0718C303.345 93.0718 302.961 93.1492 302.626 93.3149C302.304 93.4807 302.019 93.7348 301.783 94.0773L299.998 93.4917C300.196 93.1381 300.444 92.8066 300.767 92.4972C301.089 92.1878 301.498 91.9337 301.981 91.7459C302.477 91.558 303.072 91.4696 303.766 91.4696C304.659 91.4696 305.39 91.6243 305.985 91.9448C306.58 92.2431 307.014 92.6851 307.299 93.2597C307.597 93.8342 307.733 94.5304 307.733 95.337L307.683 99.7901H305.812V99.8011ZM303.184 99.9889C302.093 99.9889 301.238 99.7679 300.63 99.337C300.035 98.9061 299.738 98.2873 299.738 97.5028C299.738 96.663 300.06 96.011 300.68 95.5691C301.324 95.1271 302.217 94.9061 303.357 94.9061H305.799V96.2983H304.014C303.196 96.2983 302.626 96.3978 302.304 96.6077C301.981 96.8066 301.808 97.0829 301.808 97.4475C301.808 97.7569 301.944 98.011 302.229 98.1989C302.527 98.3757 302.923 98.4641 303.432 98.4641C303.89 98.4641 304.299 98.3757 304.634 98.1878C304.969 98 305.241 97.7569 305.415 97.4586C305.613 97.1602 305.712 96.8177 305.712 96.4309H306.32C306.32 97.5359 306.072 98.4088 305.576 99.0497C305.08 99.6796 304.287 99.9889 303.184 99.9889ZM311.191 95.4807C311.191 94.6077 311.377 93.8785 311.762 93.3149C312.133 92.7514 312.629 92.3315 313.224 92.0663C313.832 91.7901 314.464 91.6464 315.121 91.6464V93.3812C314.563 93.3812 314.03 93.4475 313.534 93.5912C313.051 93.7238 312.654 93.9337 312.344 94.2431C312.034 94.5414 311.885 94.9503 311.885 95.4475L311.191 95.4807ZM309.84 99.8011V91.6796H311.885V99.8011H309.84ZM323.066 99.8011L322.98 98.2873V88.4309H325V99.8011H323.066ZM320.091 99.9889C319.261 99.9889 318.542 99.8122 317.922 99.4696C317.315 99.116 316.831 98.6188 316.484 97.9779C316.15 97.337 315.976 96.5967 315.976 95.7348C315.976 94.8729 316.15 94.1215 316.484 93.4917C316.831 92.8508 317.315 92.3646 317.922 92.011C318.542 91.6575 319.261 91.4696 320.091 91.4696C320.86 91.4696 321.517 91.6464 322.062 92.011C322.62 92.3536 323.042 92.8508 323.339 93.4917C323.636 94.1215 323.773 94.8619 323.773 95.7348C323.773 96.6077 323.624 97.337 323.339 97.9779C323.054 98.6188 322.62 99.116 322.062 99.4696C321.517 99.8122 320.86 99.9889 320.091 99.9889ZM320.6 98.3425C321.058 98.3425 321.467 98.232 321.814 98.0221C322.174 97.7901 322.459 97.4807 322.657 97.0939C322.868 96.7072 322.967 96.2541 322.967 95.7459C322.967 95.2376 322.868 94.7845 322.657 94.3978C322.459 94.0111 322.186 93.7017 321.814 93.4917C321.467 93.2707 321.046 93.1713 320.575 93.1713C320.104 93.1713 319.658 93.2818 319.286 93.4917C318.914 93.7127 318.616 94.0111 318.393 94.3978C318.182 94.7845 318.083 95.2376 318.071 95.7459C318.083 96.2541 318.195 96.7072 318.393 97.0939C318.616 97.4807 318.914 97.7901 319.286 98.0221C319.67 98.2431 320.116 98.3425 320.6 98.3425Z" fill="white"/>
<path d="M239.361 295.988C238.128 295.988 237.033 295.707 236.062 295.158C235.116 294.596 234.357 293.827 233.809 292.863C233.274 291.886 233 290.763 233 289.494C233 288.224 233.274 287.101 233.809 286.137C234.357 285.161 235.104 284.392 236.062 283.842C237.008 283.281 238.103 283 239.336 283C240.17 283 240.941 283.146 241.676 283.452C242.41 283.745 243.057 284.135 243.618 284.648C244.19 285.161 244.626 285.759 244.937 286.442L242.995 287.211C242.771 286.76 242.472 286.357 242.099 286.015C241.738 285.661 241.315 285.38 240.842 285.185C240.369 284.99 239.871 284.892 239.336 284.892C238.527 284.892 237.817 285.087 237.182 285.49C236.56 285.881 236.062 286.43 235.701 287.126C235.353 287.809 235.166 288.603 235.166 289.494C235.166 290.385 235.34 291.191 235.701 291.886C236.062 292.582 236.572 293.119 237.207 293.522C237.854 293.913 238.589 294.12 239.398 294.12C239.933 294.12 240.431 294.023 240.904 293.815C241.377 293.595 241.8 293.302 242.161 292.936C242.535 292.57 242.833 292.131 243.057 291.642L244.999 292.411C244.688 293.119 244.265 293.742 243.705 294.291C243.145 294.828 242.497 295.243 241.751 295.548C241.004 295.854 240.219 296 239.373 296L239.361 295.988ZM252.816 295.78L252.704 294.132V286.808H254.733V295.78H252.816ZM246.481 291.398V286.808H248.534V291.398H246.481ZM248.534 291.398C248.534 292.106 248.621 292.655 248.796 293.046C248.97 293.437 249.194 293.717 249.493 293.876C249.792 294.035 250.14 294.108 250.538 294.108C251.235 294.12 251.771 293.9 252.144 293.449C252.517 292.997 252.717 292.338 252.717 291.496H253.488C253.488 292.436 253.339 293.254 253.053 293.937C252.766 294.608 252.368 295.121 251.845 295.475C251.335 295.817 250.713 296 249.978 296C249.244 296 248.634 295.854 248.111 295.573C247.601 295.28 247.202 294.84 246.916 294.23C246.63 293.62 246.493 292.838 246.493 291.874V291.41H248.547L248.534 291.398ZM258.393 291.008C258.393 290.043 258.579 289.238 258.965 288.615C259.339 287.992 259.837 287.529 260.434 287.236C261.044 286.931 261.679 286.772 262.338 286.772V288.688C261.778 288.688 261.243 288.762 260.745 288.92C260.26 289.067 259.861 289.299 259.55 289.64C259.239 289.97 259.09 290.422 259.09 290.971L258.393 291.008ZM257.036 295.78V286.808H259.09V295.78H257.036ZM265.064 291.008C265.064 290.043 265.251 289.238 265.637 288.615C266.01 287.992 266.508 287.529 267.106 287.236C267.716 286.931 268.351 286.772 269.01 286.772V288.688C268.45 288.688 267.915 288.762 267.417 288.92C266.932 289.067 266.533 289.299 266.222 289.64C265.923 289.97 265.761 290.422 265.761 290.971L265.064 291.008ZM263.708 295.78V286.808H265.761V295.78H263.708ZM274.462 295.988C273.566 295.988 272.782 295.792 272.085 295.39C271.4 294.987 270.865 294.425 270.454 293.717C270.068 293.009 269.869 292.204 269.869 291.276C269.869 290.348 270.068 289.543 270.479 288.835C270.877 288.127 271.425 287.577 272.122 287.187C272.832 286.784 273.628 286.577 274.537 286.577C275.358 286.577 276.093 286.784 276.753 287.199C277.412 287.602 277.935 288.2 278.308 288.981C278.694 289.762 278.893 290.69 278.893 291.764H271.699L271.973 291.508C271.973 292.057 272.097 292.533 272.334 292.948C272.583 293.339 272.906 293.644 273.305 293.864C273.703 294.084 274.151 294.181 274.636 294.181C275.197 294.181 275.657 294.059 276.031 293.827C276.392 293.571 276.678 293.254 276.889 292.863L278.707 293.62C278.445 294.096 278.122 294.523 277.723 294.877C277.338 295.231 276.865 295.512 276.317 295.707C275.782 295.902 275.159 296 274.475 296L274.462 295.988ZM272.11 290.483L271.811 290.226H276.977L276.703 290.483C276.703 289.994 276.591 289.592 276.379 289.286C276.155 288.969 275.881 288.725 275.533 288.566C275.209 288.395 274.861 288.31 274.487 288.31C274.114 288.31 273.753 288.395 273.392 288.566C273.031 288.725 272.72 288.957 272.471 289.286C272.222 289.592 272.11 289.994 272.11 290.483ZM280.487 295.78V286.808H282.404L282.528 288.456V295.78H280.474H280.487ZM286.698 295.78V291.191H288.752V295.78H286.698ZM286.698 291.178C286.698 290.458 286.611 289.909 286.437 289.531C286.275 289.14 286.051 288.859 285.74 288.7C285.441 288.542 285.105 288.469 284.694 288.469C284.009 288.456 283.487 288.676 283.101 289.128C282.727 289.579 282.528 290.239 282.528 291.081H281.756C281.756 290.141 281.893 289.323 282.18 288.664C282.466 287.98 282.864 287.468 283.387 287.126C283.91 286.772 284.532 286.589 285.254 286.589C285.976 286.589 286.611 286.735 287.121 287.016C287.644 287.309 288.042 287.748 288.316 288.359C288.602 288.957 288.739 289.738 288.739 290.715V291.178H286.686H286.698ZM294.49 295.988C293.532 295.988 292.785 295.756 292.274 295.292C291.777 294.816 291.528 294.132 291.528 293.241V284.001H293.556V292.863C293.556 293.278 293.656 293.595 293.855 293.815C294.067 294.035 294.366 294.132 294.751 294.132C294.876 294.132 295.013 294.108 295.15 294.059C295.287 294.01 295.461 293.925 295.648 293.791L296.394 295.316C296.071 295.536 295.76 295.695 295.448 295.805C295.125 295.927 294.814 295.988 294.502 295.988H294.49ZM290.009 288.53V286.808H296.033V288.53H290.009ZM308.083 295.78L307.995 294.096V291.166C307.995 290.556 307.933 290.043 307.796 289.64C307.672 289.225 307.473 288.908 307.174 288.688C306.888 288.456 306.514 288.346 306.041 288.346C305.606 288.346 305.22 288.432 304.884 288.615C304.56 288.798 304.274 289.079 304.037 289.457L302.245 288.81C302.444 288.42 302.693 288.054 303.016 287.712C303.34 287.37 303.751 287.089 304.236 286.882C304.734 286.674 305.332 286.577 306.029 286.577C306.925 286.577 307.659 286.747 308.257 287.101C308.854 287.431 309.29 287.919 309.576 288.554C309.875 289.189 310.012 289.958 310.012 290.849L309.962 295.768H308.083V295.78ZM305.444 295.988C304.348 295.988 303.489 295.744 302.88 295.268C302.282 294.792 301.983 294.108 301.983 293.241C301.983 292.314 302.295 291.593 302.929 291.105C303.577 290.617 304.473 290.373 305.618 290.373H308.07V291.911H306.278C305.456 291.911 304.884 292.021 304.56 292.253C304.236 292.472 304.062 292.777 304.062 293.18C304.062 293.522 304.199 293.803 304.485 294.01C304.784 294.206 305.182 294.303 305.693 294.303C306.153 294.303 306.564 294.206 306.9 293.998C307.236 293.791 307.51 293.522 307.684 293.192C307.883 292.863 307.983 292.484 307.983 292.057H308.593C308.593 293.278 308.344 294.242 307.846 294.95C307.348 295.646 306.552 295.988 305.444 295.988ZM316.41 295.988C315.464 295.988 314.642 295.792 313.92 295.39C313.198 294.987 312.638 294.425 312.215 293.717C311.817 293.009 311.605 292.204 311.605 291.276C311.605 290.348 311.804 289.543 312.215 288.835C312.626 288.127 313.186 287.577 313.895 287.187C314.617 286.784 315.439 286.577 316.36 286.577C317.281 286.577 318.078 286.796 318.812 287.223C319.547 287.639 320.082 288.249 320.443 289.03L318.538 289.75C318.339 289.36 318.04 289.042 317.642 288.798C317.244 288.554 316.783 288.444 316.273 288.444C315.763 288.444 315.327 288.566 314.941 288.823C314.555 289.067 314.244 289.396 314.02 289.823C313.796 290.238 313.696 290.727 313.696 291.276C313.696 291.825 313.808 292.314 314.02 292.753C314.256 293.168 314.568 293.51 314.953 293.754C315.352 293.998 315.812 294.108 316.31 294.108C316.808 294.108 317.281 293.986 317.679 293.73C318.078 293.461 318.377 293.119 318.576 292.668L320.48 293.388C320.132 294.206 319.584 294.84 318.85 295.292C318.128 295.744 317.319 295.976 316.397 295.976L316.41 295.988ZM326.393 295.988C325.459 295.988 324.625 295.792 323.903 295.39C323.181 294.987 322.621 294.425 322.198 293.717C321.8 293.009 321.588 292.204 321.588 291.276C321.588 290.348 321.787 289.543 322.198 288.835C322.609 288.127 323.169 287.577 323.878 287.187C324.6 286.784 325.422 286.577 326.343 286.577C327.264 286.577 328.061 286.796 328.795 287.223C329.529 287.639 330.065 288.249 330.426 289.03L328.521 289.75C328.322 289.36 328.023 289.042 327.625 288.798C327.227 288.554 326.766 288.444 326.256 288.444C325.745 288.444 325.31 288.566 324.924 288.823C324.538 289.067 324.227 289.396 324.003 289.823C323.779 290.238 323.679 290.727 323.679 291.276C323.679 291.825 323.791 292.314 324.003 292.753C324.239 293.168 324.55 293.51 324.936 293.754C325.335 293.998 325.795 294.108 326.293 294.108C326.791 294.108 327.264 293.986 327.662 293.73C328.061 293.461 328.359 293.119 328.558 292.668L330.463 293.388C330.114 294.206 329.567 294.84 328.832 295.292C328.11 295.744 327.301 295.976 326.38 295.976L326.393 295.988ZM336.288 295.988C335.367 295.988 334.558 295.792 333.836 295.39C333.127 294.987 332.579 294.425 332.168 293.717C331.757 293.009 331.558 292.204 331.558 291.276C331.558 290.348 331.757 289.543 332.143 288.835C332.542 288.127 333.102 287.577 333.811 287.187C334.521 286.784 335.33 286.577 336.251 286.577C337.172 286.577 337.981 286.784 338.691 287.187C339.4 287.577 339.948 288.127 340.334 288.835C340.732 289.543 340.944 290.348 340.944 291.276C340.944 292.204 340.744 293.009 340.359 293.717C339.973 294.425 339.425 294.975 338.716 295.39C338.006 295.78 337.197 295.988 336.301 295.988H336.288ZM336.288 294.145C336.786 294.145 337.234 294.023 337.62 293.791C338.006 293.534 338.317 293.205 338.541 292.79C338.765 292.362 338.865 291.862 338.865 291.3C338.865 290.739 338.753 290.251 338.516 289.823C338.292 289.396 337.994 289.054 337.595 288.823C337.209 288.566 336.749 288.444 336.239 288.444C335.728 288.444 335.28 288.566 334.882 288.798C334.483 289.03 334.185 289.372 333.961 289.799C333.737 290.226 333.637 290.727 333.637 291.288C333.637 291.85 333.749 292.35 333.961 292.777C334.197 293.192 334.508 293.534 334.894 293.778C335.293 294.023 335.753 294.132 336.263 294.132L336.288 294.145ZM348.873 295.78L348.761 294.132V286.808H350.789V295.78H348.873ZM342.549 291.398V286.808H344.603V291.398H342.549ZM344.591 291.398C344.591 292.106 344.678 292.655 344.852 293.046C345.026 293.437 345.25 293.717 345.549 293.876C345.86 294.035 346.196 294.108 346.595 294.108C347.292 294.12 347.827 293.9 348.2 293.449C348.574 292.997 348.773 292.338 348.773 291.496H349.545C349.545 292.436 349.395 293.254 349.109 293.937C348.823 294.608 348.424 295.121 347.902 295.475C347.391 295.817 346.769 296 346.035 296C345.3 296 344.69 295.854 344.167 295.573C343.657 295.28 343.259 294.84 342.973 294.23C342.686 293.62 342.549 292.838 342.549 291.874V291.41H344.603L344.591 291.398ZM353.105 295.78V286.808H355.022L355.146 288.456V295.78H353.092H353.105ZM359.303 295.78V291.191H361.357V295.78H359.303ZM359.303 291.178C359.303 290.458 359.216 289.909 359.042 289.531C358.88 289.14 358.656 288.859 358.345 288.7C358.046 288.542 357.71 288.469 357.299 288.469C356.615 288.456 356.092 288.676 355.706 289.128C355.333 289.579 355.134 290.239 355.134 291.081H354.362C354.362 290.141 354.499 289.323 354.785 288.664C355.071 287.98 355.47 287.468 355.992 287.126C356.515 286.772 357.138 286.589 357.86 286.589C358.582 286.589 359.216 286.735 359.727 287.016C360.249 287.309 360.648 287.748 360.922 288.359C361.208 288.957 361.345 289.738 361.345 290.715V291.178H359.291H359.303ZM367.096 295.988C366.137 295.988 365.39 295.756 364.88 295.292C364.382 294.816 364.133 294.132 364.133 293.241V284.001H366.162V292.863C366.162 293.278 366.262 293.595 366.461 293.815C366.672 294.035 366.971 294.132 367.357 294.132C367.481 294.132 367.618 294.108 367.755 294.059C367.905 294.01 368.066 293.925 368.253 293.791L369 295.316C368.689 295.536 368.365 295.695 368.054 295.805C367.743 295.927 367.419 295.988 367.108 295.988H367.096ZM362.615 288.53V286.808H368.639V288.53H362.615Z" fill="white"/>
<path d="M117.95 82.5369C131.907 82.5369 143.219 71.223 143.219 57.2685C143.219 43.3139 131.907 32 117.95 32C103.993 32 92.6816 43.3139 92.6816 57.2685C92.6816 71.223 103.993 82.5369 117.95 82.5369Z" fill="#25BEFF"/>
<path d="M117.509 43.5254C124.86 43.5254 130.806 49.4624 130.806 56.8246C130.806 64.1868 124.87 70.1238 117.509 70.1238C115.652 70.1238 113.804 69.7404 112.104 68.9836C110.404 68.2267 108.881 67.1258 107.633 65.7399C106.384 64.3539 105.441 62.7321 104.861 60.9529C104.281 59.1836 104.085 57.3062 104.281 55.4583C104.616 52.1851 106.149 49.1478 108.596 46.946C111.043 44.7442 114.217 43.5254 117.509 43.5254ZM117.49 48.6269C117.224 48.6367 116.969 48.7546 116.782 48.9512C116.595 49.1478 116.487 49.3936 116.477 49.6688V55.8023H110.345C110.07 55.8023 109.814 55.9203 109.628 56.107C109.431 56.2938 109.323 56.5494 109.313 56.8246C109.323 57.09 109.441 57.3554 109.628 57.5421C109.824 57.7289 110.08 57.837 110.345 57.8468H116.477V63.9804C116.477 64.2458 116.595 64.5112 116.782 64.6979C116.969 64.8945 117.224 65.0027 117.499 65.0125C117.775 65.0027 118.03 64.8945 118.217 64.6979C118.404 64.5014 118.512 64.2458 118.521 63.9804V57.8468H124.654C124.929 57.8468 125.185 57.7289 125.371 57.5421C125.568 57.3554 125.676 57.0998 125.686 56.8246C125.676 56.5494 125.558 56.2938 125.371 56.107C125.175 55.9203 124.919 55.8122 124.654 55.8023H118.521V49.6688C118.521 49.3936 118.404 49.138 118.207 48.9414C118.01 48.7448 117.755 48.6367 117.48 48.6269H117.49Z" fill="white"/>
<path d="M126.768 371C140.726 371 152.037 359.49 152.037 345.288C152.037 331.086 140.726 319.576 126.768 319.576C112.811 319.576 101.5 331.086 101.5 345.288C101.5 359.49 112.811 371 126.768 371Z" fill="url(#paint3_linear_2145_2109)"/>
<path d="M126.328 331.989C133.679 331.989 139.624 337.926 139.624 345.288C139.624 352.651 133.688 358.588 126.328 358.588C124.47 358.588 122.623 358.204 120.922 357.447C119.222 356.691 117.699 355.59 116.451 354.204C115.203 352.818 114.259 351.196 113.68 349.417C113.1 347.647 112.903 345.77 113.1 343.922C113.434 340.649 114.967 337.612 117.414 335.41C119.861 333.208 123.035 331.989 126.328 331.989ZM126.318 337.091C126.052 337.101 125.797 337.218 125.61 337.415C125.423 337.602 125.315 337.857 125.306 338.133V344.266H119.173C118.908 344.266 118.642 344.384 118.456 344.571C118.259 344.758 118.151 345.013 118.141 345.288C118.151 345.554 118.259 345.819 118.456 346.006C118.652 346.193 118.908 346.311 119.173 346.311H125.306V352.444C125.306 352.71 125.423 352.975 125.61 353.162C125.797 353.358 126.052 353.467 126.328 353.476C126.603 353.467 126.858 353.358 127.045 353.162C127.232 352.965 127.34 352.71 127.35 352.444V346.311H133.482C133.757 346.311 134.013 346.193 134.199 346.006C134.396 345.819 134.504 345.564 134.514 345.288C134.504 345.013 134.386 344.758 134.199 344.571C134.003 344.384 133.747 344.266 133.482 344.266H127.35V338.133C127.35 337.857 127.232 337.602 127.035 337.405C126.839 337.209 126.583 337.101 126.308 337.091H126.318Z" fill="white"/>
<path d="M85.3061 227.424C99.2631 227.424 110.575 215.914 110.575 201.712C110.575 187.51 99.2631 176 85.3061 176C71.349 176 60.0376 187.51 60.0376 201.712C60.0376 215.914 71.349 227.424 85.3061 227.424Z" fill="#64DC87"/>
<path d="M85.3138 188.412C92.9193 188.412 99.049 194.349 99.049 201.711C99.049 209.074 92.9095 215.01 85.3138 215.01C83.3853 215.01 81.4864 214.627 79.7252 213.87C77.9641 213.113 76.3898 212.013 75.1009 210.627C73.812 209.241 72.838 207.619 72.2378 205.84C71.6376 204.07 71.4408 202.193 71.6376 200.345C71.982 197.072 73.5759 194.035 76.0947 191.833C78.6233 189.631 81.8997 188.412 85.3039 188.412H85.3138ZM85.2941 193.514C85.0186 193.523 84.7628 193.641 84.566 193.838C84.3692 194.025 84.261 194.28 84.2512 194.555V200.689H77.9149C77.6394 200.689 77.3639 200.807 77.1671 200.994C76.9703 201.181 76.8523 201.436 76.8424 201.711C76.8523 201.977 76.9703 202.242 77.1671 202.429C77.3639 202.616 77.6295 202.734 77.9149 202.734H84.2512V208.867C84.2512 209.142 84.3692 209.398 84.566 209.585C84.7628 209.781 85.0284 209.889 85.3039 209.899C85.5794 209.889 85.8451 209.781 86.0419 209.585C86.2386 209.388 86.3567 209.133 86.3567 208.867V202.734H92.693C92.9685 202.734 93.2341 202.616 93.4407 202.429C93.6375 202.242 93.7556 201.987 93.7655 201.711C93.7556 201.436 93.6375 201.181 93.4407 200.994C93.244 200.807 92.9783 200.689 92.693 200.689H86.3567V194.555C86.3567 194.28 86.2386 194.025 86.032 193.828C85.8352 193.632 85.5598 193.523 85.2843 193.514H85.2941Z" fill="white"/>
<g clip-path="url(#clip4_2145_2109)">
<path d="M533.746 255.435C533.364 255.423 533.082 255.195 533.011 254.838C533.074 254.069 533.037 253.227 533 252.412C532.96 251.522 532.919 250.603 533.011 249.789C533.042 249.514 533.212 249.304 533.491 249.198L542.071 249.21C542.263 249.299 542.49 249.47 542.52 249.785C542.6 250.611 542.564 251.522 542.528 252.403C542.495 253.216 542.461 254.057 542.518 254.838C542.445 255.207 542.209 255.397 541.778 255.435H533.746V255.435ZM534.438 254.013H541.092V250.559H534.438V254.013Z" fill="white"/>
<path d="M512.509 250.56C512.111 250.496 511.943 250.202 511.918 249.947C511.892 249.692 512.001 249.345 512.387 249.198L524.139 249.187C524.531 249.266 524.695 249.604 524.684 249.905C524.674 250.176 524.512 250.51 524.094 250.56H512.509V250.56Z" fill="white"/>
<path d="M512.561 255.43C512.099 255.352 511.92 255.014 511.908 254.746C511.896 254.487 512.038 254.143 512.477 254.026L519.236 254.019C519.653 254.112 519.825 254.454 519.811 254.754C519.797 255.034 519.615 255.38 519.151 255.434L512.561 255.43L512.561 255.43Z" fill="white"/>
<path d="M510.601 260.259C509.013 260.238 507.059 258.373 507.059 256.877V255.432H507.024C506.995 255.241 507.017 254.548 507.058 253.926V253.92L507.061 238.324L507.06 238.317C506.851 236.799 507.192 235.365 507.998 234.384C508.678 233.556 509.66 233.078 510.839 233.003L542.613 233.005C542.723 233.001 542.831 233 542.934 233C545.632 233 546.997 234.035 547.36 236.355C547.437 240.528 547.425 244.778 547.414 248.888C547.407 251.382 547.4 253.96 547.413 256.495C547.345 257.465 546.948 258.375 546.295 259.057C545.636 259.745 544.742 260.173 543.775 260.262L510.601 260.26L510.601 260.259ZM543.684 258.842C544.739 258.838 545.988 257.618 545.988 256.593V244.124H508.485V256.782C508.485 257.183 508.769 257.688 509.245 258.133C509.718 258.576 510.251 258.84 510.672 258.84C510.68 258.84 510.689 258.84 510.697 258.84L543.684 258.843L543.684 258.842ZM508.485 242.705H545.988V239.377L545.861 239.251H508.485V242.705ZM510.751 234.424C509.798 234.424 508.485 235.617 508.485 236.483V237.878H545.861L545.988 237.752V236.672C545.988 235.641 544.699 234.42 543.61 234.42C543.586 234.42 543.563 234.421 543.54 234.422L510.791 234.425C510.781 234.425 510.767 234.424 510.752 234.424H510.751Z" fill="white"/>
</g>
<defs>
<filter id="filter0_d_2145_2109" x="77" y="7" width="376" height="191" filterUnits="userSpaceOnUse" color-interpolation-filters="sRGB">
<feFlood flood-opacity="0" result="BackgroundImageFix"/>
<feColorMatrix in="SourceAlpha" type="matrix" values="0 0 0 0 0 0 0 0 0 0 0 0 0 0 0 0 0 0 127 0" result="hardAlpha"/>
<feOffset dy="4"/>
<feGaussianBlur stdDeviation="25"/>
<feComposite in2="hardAlpha" operator="out"/>
<feColorMatrix type="matrix" values="0 0 0 0 0 0 0 0 0 0 0 0 0 0 0 0 0 0 0.1 0"/>
<feBlend mode="normal" in2="BackgroundImageFix" result="effect1_dropShadow_2145_2109"/>
<feBlend mode="normal" in="SourceGraphic" in2="effect1_dropShadow_2145_2109" result="shape"/>
</filter>
<filter id="filter1_d_2145_2109" x="47" y="109" width="425" height="193" filterUnits="userSpaceOnUse" color-interpolation-filters="sRGB">
<feFlood flood-opacity="0" result="BackgroundImageFix"/>
<feColorMatrix in="SourceAlpha" type="matrix" values="0 0 0 0 0 0 0 0 0 0 0 0 0 0 0 0 0 0 127 0" result="hardAlpha"/>
<feOffset dy="4"/>
<feGaussianBlur stdDeviation="25"/>
<feComposite in2="hardAlpha" operator="out"/>
<feColorMatrix type="matrix" values="0 0 0 0 0 0 0 0 0 0 0 0 0 0 0 0 0 0 0.1 0"/>
<feBlend mode="normal" in2="BackgroundImageFix" result="effect1_dropShadow_2145_2109"/>
<feBlend mode="normal" in="SourceGraphic" in2="effect1_dropShadow_2145_2109" result="shape"/>
</filter>
<filter id="filter2_d_2145_2109" x="77" y="214" width="376" height="190" filterUnits="userSpaceOnUse" color-interpolation-filters="sRGB">
<feFlood flood-opacity="0" result="BackgroundImageFix"/>
<feColorMatrix in="SourceAlpha" type="matrix" values="0 0 0 0 0 0 0 0 0 0 0 0 0 0 0 0 0 0 127 0" result="hardAlpha"/>
<feOffset dy="4"/>
<feGaussianBlur stdDeviation="25"/>
<feComposite in2="hardAlpha" operator="out"/>
<feColorMatrix type="matrix" values="0 0 0 0 0 0 0 0 0 0 0 0 0 0 0 0 0 0 0.1 0"/>
<feBlend mode="normal" in2="BackgroundImageFix" result="effect1_dropShadow_2145_2109"/>
<feBlend mode="normal" in="SourceGraphic" in2="effect1_dropShadow_2145_2109" result="shape"/>
</filter>
<linearGradient id="paint0_linear_2145_2109" x1="204.483" y1="88.3507" x2="159.781" y2="109.101" gradientUnits="userSpaceOnUse">
<stop stop-color="#1AD1FF"/>
<stop offset="1" stop-color="#369EFF"/>
</linearGradient>
<linearGradient id="paint1_linear_2145_2109" x1="155.039" y1="179.324" x2="164.002" y2="205.824" gradientUnits="userSpaceOnUse">
<stop stop-color="#FF7733"/>
<stop offset="1" stop-color="#FFDD66"/>
</linearGradient>
<linearGradient id="paint2_linear_2145_2109" x1="168.08" y1="267.145" x2="183.199" y2="313.243" gradientUnits="userSpaceOnUse">
<stop stop-color="#FF7733"/>
<stop offset="1" stop-color="#FFDD66"/>
</linearGradient>
<linearGradient id="paint3_linear_2145_2109" x1="69.5325" y1="318.835" x2="178.1" y2="367.302" gradientUnits="userSpaceOnUse">
<stop offset="0.26" stop-color="#FF515D"/>
<stop offset="1" stop-color="#FFD12A"/>
</linearGradient>
<clipPath id="clip0_2145_2109">
<rect width="348.298" height="366.517" fill="white" transform="translate(20.7017 18)"/>
</clipPath>
<clipPath id="clip1_2145_2109">
<rect width="38.1842" height="43.9948" fill="white" transform="translate(480.112 45.5752)"/>
</clipPath>
<clipPath id="clip2_2145_2109">
<rect width="42.2346" height="35.1955" fill="white" transform="translate(478.416 315)"/>
</clipPath>
<clipPath id="clip3_2145_2109">
<rect width="36.4437" height="39.4807" fill="white" transform="translate(509 135)"/>
</clipPath>
<clipPath id="clip4_2145_2109">
<rect width="40.4223" height="27.2616" fill="white" transform="translate(507 233)"/>
</clipPath>
</defs>
</svg>
