<svg width="443" height="279" viewBox="0 0 443 279" fill="none" xmlns="http://www.w3.org/2000/svg">
<rect width="442.318" height="278.4" rx="18" fill="white"/>
<path d="M25.672 45V29.6H31.392C32.4773 29.6 33.438 29.82 34.274 30.26C35.11 30.6853 35.7627 31.2867 36.232 32.064C36.7013 32.8267 36.936 33.714 36.936 34.726C36.936 35.7233 36.7087 36.6107 36.254 37.388C35.7993 38.1653 35.176 38.7813 34.384 39.236C33.592 39.676 32.6753 39.896 31.634 39.896H28.686V45H25.672ZM28.686 37.124H31.568C32.2427 37.124 32.7927 36.904 33.218 36.464C33.658 36.0093 33.878 35.43 33.878 34.726C33.878 34.022 33.636 33.45 33.152 33.01C32.6827 32.57 32.074 32.35 31.326 32.35H28.686V37.124ZM40.6629 39.214C40.6629 38.026 40.8902 37.0433 41.3449 36.266C41.8142 35.4887 42.4082 34.9093 43.1269 34.528C43.8602 34.1467 44.6229 33.956 45.4149 33.956V36.772C44.7402 36.772 44.1022 36.8527 43.5009 37.014C42.9142 37.1753 42.4376 37.4393 42.0709 37.806C41.7042 38.1727 41.5209 38.642 41.5209 39.214H40.6629ZM38.6169 45V34H41.5209V45H38.6169ZM52.2728 45.264C51.1582 45.264 50.1608 45.022 49.2808 44.538C48.4155 44.0393 47.7335 43.3573 47.2348 42.492C46.7508 41.6267 46.5088 40.6293 46.5088 39.5C46.5088 38.3707 46.7508 37.3733 47.2348 36.508C47.7188 35.6427 48.3935 34.968 49.2588 34.484C50.1242 33.9853 51.1142 33.736 52.2288 33.736C53.3582 33.736 54.3555 33.9853 55.2208 34.484C56.0862 34.968 56.7608 35.6427 57.2448 36.508C57.7288 37.3733 57.9708 38.3707 57.9708 39.5C57.9708 40.6293 57.7288 41.6267 57.2448 42.492C56.7608 43.3573 56.0862 44.0393 55.2208 44.538C54.3702 45.022 53.3875 45.264 52.2728 45.264ZM52.2728 42.58C52.8155 42.58 53.2922 42.448 53.7028 42.184C54.1135 41.92 54.4288 41.5607 54.6488 41.106C54.8835 40.6367 55.0008 40.1013 55.0008 39.5C55.0008 38.8987 54.8835 38.3707 54.6488 37.916C54.4142 37.4467 54.0842 37.08 53.6588 36.816C53.2482 36.552 52.7715 36.42 52.2288 36.42C51.7008 36.42 51.2242 36.552 50.7988 36.816C50.3882 37.08 50.0655 37.4467 49.8308 37.916C49.5962 38.3707 49.4788 38.8987 49.4788 39.5C49.4788 40.1013 49.5962 40.6367 49.8308 41.106C50.0655 41.5607 50.3955 41.92 50.8208 42.184C51.2462 42.448 51.7302 42.58 52.2728 42.58ZM67.868 45L67.714 42.954V29.6H70.618V45H67.868ZM64.414 45.264C63.402 45.264 62.522 45.0293 61.774 44.56C61.0407 44.0907 60.4687 43.4233 60.058 42.558C59.6474 41.6927 59.442 40.6733 59.442 39.5C59.442 38.312 59.6474 37.2927 60.058 36.442C60.4687 35.5767 61.0407 34.9093 61.774 34.44C62.522 33.9707 63.402 33.736 64.414 33.736C65.338 33.736 66.1154 33.9707 66.746 34.44C67.3914 34.9093 67.8827 35.5767 68.22 36.442C68.5574 37.2927 68.726 38.312 68.726 39.5C68.726 40.6733 68.5574 41.6927 68.22 42.558C67.8827 43.4233 67.3914 44.0907 66.746 44.56C66.1154 45.0293 65.338 45.264 64.414 45.264ZM65.162 42.602C65.6607 42.602 66.1007 42.47 66.482 42.206C66.878 41.942 67.186 41.5753 67.406 41.106C67.626 40.6367 67.736 40.1013 67.736 39.5C67.736 38.8987 67.626 38.3633 67.406 37.894C67.186 37.4247 66.878 37.0653 66.482 36.816C66.1007 36.552 65.6534 36.42 65.14 36.42C64.612 36.42 64.15 36.552 63.754 36.816C63.358 37.0653 63.0427 37.4247 62.808 37.894C62.5734 38.3633 62.456 38.8987 62.456 39.5C62.456 40.1013 62.5734 40.6367 62.808 41.106C63.0427 41.5753 63.358 41.942 63.754 42.206C64.1647 42.47 64.634 42.602 65.162 42.602ZM80.53 45L80.354 42.976V34H83.258V45H80.53ZM73.072 39.632V34H75.976V39.632H73.072ZM75.976 39.632C75.976 40.3653 76.0567 40.9447 76.218 41.37C76.394 41.7807 76.636 42.0813 76.944 42.272C77.2667 42.448 77.626 42.536 78.022 42.536C78.7847 42.5507 79.364 42.3233 79.76 41.854C80.156 41.37 80.354 40.6733 80.354 39.764H81.344C81.344 40.9373 81.168 41.9347 80.816 42.756C80.464 43.5627 79.98 44.186 79.364 44.626C78.748 45.0513 78.022 45.264 77.186 45.264C76.306 45.264 75.558 45.088 74.942 44.736C74.326 44.384 73.8567 43.8413 73.534 43.108C73.226 42.36 73.072 41.3993 73.072 40.226V39.632H75.976ZM91.2259 45.264C90.0819 45.264 89.0626 45.022 88.1679 44.538C87.2733 44.0393 86.5766 43.3573 86.0779 42.492C85.5793 41.612 85.3299 40.6147 85.3299 39.5C85.3299 38.3707 85.5793 37.3733 86.0779 36.508C86.5766 35.6427 87.2659 34.968 88.1459 34.484C89.0259 33.9853 90.0379 33.736 91.1819 33.736C92.2819 33.736 93.2866 34.0073 94.1959 34.55C95.1053 35.0927 95.7653 35.8773 96.1759 36.904L93.4479 37.872C93.2426 37.4467 92.9199 37.1093 92.4799 36.86C92.0546 36.596 91.5779 36.464 91.0499 36.464C90.5073 36.464 90.0306 36.596 89.6199 36.86C89.2093 37.1093 88.8866 37.4613 88.6519 37.916C88.4173 38.3707 88.2999 38.8987 88.2999 39.5C88.2999 40.1013 88.4173 40.6293 88.6519 41.084C88.8866 41.524 89.2166 41.876 89.6419 42.14C90.0673 42.404 90.5513 42.536 91.0939 42.536C91.6219 42.536 92.0986 42.3967 92.5239 42.118C92.9639 41.8393 93.2866 41.4727 93.4919 41.018L96.2419 41.986C95.8166 43.0273 95.1493 43.834 94.2399 44.406C93.3453 44.978 92.3406 45.264 91.2259 45.264ZM102.616 45.264C101.398 45.264 100.474 44.9633 99.8437 44.362C99.2277 43.7607 98.9197 42.9027 98.9197 41.788V30.568H101.824V41.15C101.824 41.6193 101.926 41.9787 102.132 42.228C102.337 42.4627 102.638 42.58 103.034 42.58C103.18 42.58 103.342 42.5507 103.518 42.492C103.694 42.4187 103.877 42.316 104.068 42.184L105.08 44.362C104.728 44.626 104.332 44.8387 103.892 45C103.466 45.176 103.041 45.264 102.616 45.264ZM97.1377 36.464V34H104.574V36.464H97.1377ZM116.591 45.264C115.887 45.264 115.227 45.1613 114.611 44.956C113.995 44.736 113.453 44.428 112.983 44.032C112.514 43.6213 112.147 43.1227 111.883 42.536L114.369 41.392C114.589 41.744 114.89 42.052 115.271 42.316C115.653 42.5653 116.093 42.69 116.591 42.69C117.075 42.69 117.449 42.624 117.713 42.492C117.977 42.3453 118.109 42.14 118.109 41.876C118.109 41.612 117.999 41.4213 117.779 41.304C117.574 41.172 117.288 41.062 116.921 40.974L115.909 40.71C114.853 40.4313 114.017 39.9913 113.401 39.39C112.8 38.774 112.499 38.07 112.499 37.278C112.499 36.1487 112.859 35.276 113.577 34.66C114.311 34.044 115.345 33.736 116.679 33.736C117.369 33.736 118.007 33.8387 118.593 34.044C119.195 34.2493 119.708 34.5353 120.133 34.902C120.559 35.2687 120.852 35.694 121.013 36.178L118.615 37.278C118.513 36.9847 118.263 36.75 117.867 36.574C117.471 36.3833 117.075 36.288 116.679 36.288C116.283 36.288 115.975 36.376 115.755 36.552C115.55 36.7133 115.447 36.9407 115.447 37.234C115.447 37.4247 115.55 37.586 115.755 37.718C115.961 37.8353 116.254 37.938 116.635 38.026L118.065 38.378C118.784 38.554 119.356 38.84 119.781 39.236C120.221 39.6173 120.537 40.05 120.727 40.534C120.933 41.0033 121.035 41.4653 121.035 41.92C121.035 42.58 120.837 43.1667 120.441 43.68C120.06 44.1787 119.532 44.5673 118.857 44.846C118.197 45.1247 117.442 45.264 116.591 45.264ZM129.519 45L129.431 42.778V39.434C129.431 38.774 129.358 38.2093 129.211 37.74C129.079 37.2707 128.859 36.9113 128.551 36.662C128.258 36.398 127.855 36.266 127.341 36.266C126.872 36.266 126.447 36.3687 126.065 36.574C125.684 36.7793 125.361 37.0947 125.097 37.52L122.545 36.64C122.751 36.1707 123.051 35.716 123.447 35.276C123.843 34.8213 124.357 34.4547 124.987 34.176C125.633 33.8827 126.417 33.736 127.341 33.736C128.456 33.736 129.38 33.9487 130.113 34.374C130.861 34.7993 131.411 35.4007 131.763 36.178C132.13 36.9407 132.306 37.85 132.291 38.906L132.225 45H129.519ZM126.439 45.264C125.119 45.264 124.093 44.9707 123.359 44.384C122.641 43.7973 122.281 42.9687 122.281 41.898C122.281 40.7247 122.67 39.8447 123.447 39.258C124.239 38.6567 125.347 38.356 126.769 38.356H129.563V40.512H127.781C126.828 40.512 126.168 40.6293 125.801 40.864C125.435 41.084 125.251 41.3993 125.251 41.81C125.251 42.1327 125.398 42.3893 125.691 42.58C125.985 42.756 126.395 42.844 126.923 42.844C127.407 42.844 127.833 42.734 128.199 42.514C128.581 42.2793 128.881 41.986 129.101 41.634C129.321 41.2673 129.431 40.8933 129.431 40.512H130.135C130.135 42.008 129.849 43.174 129.277 44.01C128.72 44.846 127.774 45.264 126.439 45.264ZM134.756 45V29.6H137.66V45H134.756ZM145.292 45.264C144.207 45.264 143.246 45.022 142.41 44.538C141.574 44.0393 140.914 43.3573 140.43 42.492C139.961 41.6267 139.726 40.6293 139.726 39.5C139.726 38.3707 139.968 37.3733 140.452 36.508C140.951 35.6427 141.625 34.968 142.476 34.484C143.341 33.9853 144.331 33.736 145.446 33.736C146.414 33.736 147.301 33.9927 148.108 34.506C148.929 35.0047 149.582 35.7453 150.066 36.728C150.565 37.696 150.814 38.8767 150.814 40.27H142.476L142.74 40.006C142.74 40.5487 142.872 41.0253 143.136 41.436C143.415 41.832 143.767 42.14 144.192 42.36C144.632 42.5653 145.101 42.668 145.6 42.668C146.201 42.668 146.693 42.5433 147.074 42.294C147.455 42.03 147.749 41.6927 147.954 41.282L150.55 42.294C150.242 42.91 149.839 43.4453 149.34 43.9C148.856 44.34 148.277 44.6773 147.602 44.912C146.927 45.1467 146.157 45.264 145.292 45.264ZM142.894 38.378L142.63 38.114H147.932L147.69 38.378C147.69 37.85 147.565 37.432 147.316 37.124C147.067 36.8013 146.759 36.5667 146.392 36.42C146.04 36.2733 145.695 36.2 145.358 36.2C145.021 36.2 144.661 36.2733 144.28 36.42C143.899 36.5667 143.569 36.8013 143.29 37.124C143.026 37.432 142.894 37.85 142.894 38.378ZM156.766 45.264C156.062 45.264 155.402 45.1613 154.786 44.956C154.17 44.736 153.627 44.428 153.158 44.032C152.688 43.6213 152.322 43.1227 152.058 42.536L154.544 41.392C154.764 41.744 155.064 42.052 155.446 42.316C155.827 42.5653 156.267 42.69 156.766 42.69C157.25 42.69 157.624 42.624 157.888 42.492C158.152 42.3453 158.284 42.14 158.284 41.876C158.284 41.612 158.174 41.4213 157.954 41.304C157.748 41.172 157.462 41.062 157.096 40.974L156.084 40.71C155.028 40.4313 154.192 39.9913 153.576 39.39C152.974 38.774 152.674 38.07 152.674 37.278C152.674 36.1487 153.033 35.276 153.752 34.66C154.485 34.044 155.519 33.736 156.854 33.736C157.543 33.736 158.181 33.8387 158.768 34.044C159.369 34.2493 159.882 34.5353 160.308 34.902C160.733 35.2687 161.026 35.694 161.188 36.178L158.79 37.278C158.687 36.9847 158.438 36.75 158.042 36.574C157.646 36.3833 157.25 36.288 156.854 36.288C156.458 36.288 156.15 36.376 155.93 36.552C155.724 36.7133 155.622 36.9407 155.622 37.234C155.622 37.4247 155.724 37.586 155.93 37.718C156.135 37.8353 156.428 37.938 156.81 38.026L158.24 38.378C158.958 38.554 159.53 38.84 159.956 39.236C160.396 39.6173 160.711 40.05 160.902 40.534C161.107 41.0033 161.21 41.4653 161.21 41.92C161.21 42.58 161.012 43.1667 160.616 43.68C160.234 44.1787 159.706 44.5673 159.032 44.846C158.372 45.1247 157.616 45.264 156.766 45.264Z" fill="white"/>
<path d="M25.672 45V29.6H31.392C32.4773 29.6 33.438 29.82 34.274 30.26C35.11 30.6853 35.7627 31.2867 36.232 32.064C36.7013 32.8267 36.936 33.714 36.936 34.726C36.936 35.7233 36.7087 36.6107 36.254 37.388C35.7993 38.1653 35.176 38.7813 34.384 39.236C33.592 39.676 32.6753 39.896 31.634 39.896H28.686V45H25.672ZM28.686 37.124H31.568C32.2427 37.124 32.7927 36.904 33.218 36.464C33.658 36.0093 33.878 35.43 33.878 34.726C33.878 34.022 33.636 33.45 33.152 33.01C32.6827 32.57 32.074 32.35 31.326 32.35H28.686V37.124ZM40.6629 39.214C40.6629 38.026 40.8902 37.0433 41.3449 36.266C41.8142 35.4887 42.4082 34.9093 43.1269 34.528C43.8602 34.1467 44.6229 33.956 45.4149 33.956V36.772C44.7402 36.772 44.1022 36.8527 43.5009 37.014C42.9142 37.1753 42.4376 37.4393 42.0709 37.806C41.7042 38.1727 41.5209 38.642 41.5209 39.214H40.6629ZM38.6169 45V34H41.5209V45H38.6169ZM52.2728 45.264C51.1582 45.264 50.1608 45.022 49.2808 44.538C48.4155 44.0393 47.7335 43.3573 47.2348 42.492C46.7508 41.6267 46.5088 40.6293 46.5088 39.5C46.5088 38.3707 46.7508 37.3733 47.2348 36.508C47.7188 35.6427 48.3935 34.968 49.2588 34.484C50.1242 33.9853 51.1142 33.736 52.2288 33.736C53.3582 33.736 54.3555 33.9853 55.2208 34.484C56.0862 34.968 56.7608 35.6427 57.2448 36.508C57.7288 37.3733 57.9708 38.3707 57.9708 39.5C57.9708 40.6293 57.7288 41.6267 57.2448 42.492C56.7608 43.3573 56.0862 44.0393 55.2208 44.538C54.3702 45.022 53.3875 45.264 52.2728 45.264ZM52.2728 42.58C52.8155 42.58 53.2922 42.448 53.7028 42.184C54.1135 41.92 54.4288 41.5607 54.6488 41.106C54.8835 40.6367 55.0008 40.1013 55.0008 39.5C55.0008 38.8987 54.8835 38.3707 54.6488 37.916C54.4142 37.4467 54.0842 37.08 53.6588 36.816C53.2482 36.552 52.7715 36.42 52.2288 36.42C51.7008 36.42 51.2242 36.552 50.7988 36.816C50.3882 37.08 50.0655 37.4467 49.8308 37.916C49.5962 38.3707 49.4788 38.8987 49.4788 39.5C49.4788 40.1013 49.5962 40.6367 49.8308 41.106C50.0655 41.5607 50.3955 41.92 50.8208 42.184C51.2462 42.448 51.7302 42.58 52.2728 42.58ZM67.868 45L67.714 42.954V29.6H70.618V45H67.868ZM64.414 45.264C63.402 45.264 62.522 45.0293 61.774 44.56C61.0407 44.0907 60.4687 43.4233 60.058 42.558C59.6474 41.6927 59.442 40.6733 59.442 39.5C59.442 38.312 59.6474 37.2927 60.058 36.442C60.4687 35.5767 61.0407 34.9093 61.774 34.44C62.522 33.9707 63.402 33.736 64.414 33.736C65.338 33.736 66.1154 33.9707 66.746 34.44C67.3914 34.9093 67.8827 35.5767 68.22 36.442C68.5574 37.2927 68.726 38.312 68.726 39.5C68.726 40.6733 68.5574 41.6927 68.22 42.558C67.8827 43.4233 67.3914 44.0907 66.746 44.56C66.1154 45.0293 65.338 45.264 64.414 45.264ZM65.162 42.602C65.6607 42.602 66.1007 42.47 66.482 42.206C66.878 41.942 67.186 41.5753 67.406 41.106C67.626 40.6367 67.736 40.1013 67.736 39.5C67.736 38.8987 67.626 38.3633 67.406 37.894C67.186 37.4247 66.878 37.0653 66.482 36.816C66.1007 36.552 65.6534 36.42 65.14 36.42C64.612 36.42 64.15 36.552 63.754 36.816C63.358 37.0653 63.0427 37.4247 62.808 37.894C62.5734 38.3633 62.456 38.8987 62.456 39.5C62.456 40.1013 62.5734 40.6367 62.808 41.106C63.0427 41.5753 63.358 41.942 63.754 42.206C64.1647 42.47 64.634 42.602 65.162 42.602ZM80.53 45L80.354 42.976V34H83.258V45H80.53ZM73.072 39.632V34H75.976V39.632H73.072ZM75.976 39.632C75.976 40.3653 76.0567 40.9447 76.218 41.37C76.394 41.7807 76.636 42.0813 76.944 42.272C77.2667 42.448 77.626 42.536 78.022 42.536C78.7847 42.5507 79.364 42.3233 79.76 41.854C80.156 41.37 80.354 40.6733 80.354 39.764H81.344C81.344 40.9373 81.168 41.9347 80.816 42.756C80.464 43.5627 79.98 44.186 79.364 44.626C78.748 45.0513 78.022 45.264 77.186 45.264C76.306 45.264 75.558 45.088 74.942 44.736C74.326 44.384 73.8567 43.8413 73.534 43.108C73.226 42.36 73.072 41.3993 73.072 40.226V39.632H75.976ZM91.2259 45.264C90.0819 45.264 89.0626 45.022 88.1679 44.538C87.2733 44.0393 86.5766 43.3573 86.0779 42.492C85.5793 41.612 85.3299 40.6147 85.3299 39.5C85.3299 38.3707 85.5793 37.3733 86.0779 36.508C86.5766 35.6427 87.2659 34.968 88.1459 34.484C89.0259 33.9853 90.0379 33.736 91.1819 33.736C92.2819 33.736 93.2866 34.0073 94.1959 34.55C95.1053 35.0927 95.7653 35.8773 96.1759 36.904L93.4479 37.872C93.2426 37.4467 92.9199 37.1093 92.4799 36.86C92.0546 36.596 91.5779 36.464 91.0499 36.464C90.5073 36.464 90.0306 36.596 89.6199 36.86C89.2093 37.1093 88.8866 37.4613 88.6519 37.916C88.4173 38.3707 88.2999 38.8987 88.2999 39.5C88.2999 40.1013 88.4173 40.6293 88.6519 41.084C88.8866 41.524 89.2166 41.876 89.6419 42.14C90.0673 42.404 90.5513 42.536 91.0939 42.536C91.6219 42.536 92.0986 42.3967 92.5239 42.118C92.9639 41.8393 93.2866 41.4727 93.4919 41.018L96.2419 41.986C95.8166 43.0273 95.1493 43.834 94.2399 44.406C93.3453 44.978 92.3406 45.264 91.2259 45.264ZM102.616 45.264C101.398 45.264 100.474 44.9633 99.8437 44.362C99.2277 43.7607 98.9197 42.9027 98.9197 41.788V30.568H101.824V41.15C101.824 41.6193 101.926 41.9787 102.132 42.228C102.337 42.4627 102.638 42.58 103.034 42.58C103.18 42.58 103.342 42.5507 103.518 42.492C103.694 42.4187 103.877 42.316 104.068 42.184L105.08 44.362C104.728 44.626 104.332 44.8387 103.892 45C103.466 45.176 103.041 45.264 102.616 45.264ZM97.1377 36.464V34H104.574V36.464H97.1377ZM116.591 45.264C115.887 45.264 115.227 45.1613 114.611 44.956C113.995 44.736 113.453 44.428 112.983 44.032C112.514 43.6213 112.147 43.1227 111.883 42.536L114.369 41.392C114.589 41.744 114.89 42.052 115.271 42.316C115.653 42.5653 116.093 42.69 116.591 42.69C117.075 42.69 117.449 42.624 117.713 42.492C117.977 42.3453 118.109 42.14 118.109 41.876C118.109 41.612 117.999 41.4213 117.779 41.304C117.574 41.172 117.288 41.062 116.921 40.974L115.909 40.71C114.853 40.4313 114.017 39.9913 113.401 39.39C112.8 38.774 112.499 38.07 112.499 37.278C112.499 36.1487 112.859 35.276 113.577 34.66C114.311 34.044 115.345 33.736 116.679 33.736C117.369 33.736 118.007 33.8387 118.593 34.044C119.195 34.2493 119.708 34.5353 120.133 34.902C120.559 35.2687 120.852 35.694 121.013 36.178L118.615 37.278C118.513 36.9847 118.263 36.75 117.867 36.574C117.471 36.3833 117.075 36.288 116.679 36.288C116.283 36.288 115.975 36.376 115.755 36.552C115.55 36.7133 115.447 36.9407 115.447 37.234C115.447 37.4247 115.55 37.586 115.755 37.718C115.961 37.8353 116.254 37.938 116.635 38.026L118.065 38.378C118.784 38.554 119.356 38.84 119.781 39.236C120.221 39.6173 120.537 40.05 120.727 40.534C120.933 41.0033 121.035 41.4653 121.035 41.92C121.035 42.58 120.837 43.1667 120.441 43.68C120.06 44.1787 119.532 44.5673 118.857 44.846C118.197 45.1247 117.442 45.264 116.591 45.264ZM129.519 45L129.431 42.778V39.434C129.431 38.774 129.358 38.2093 129.211 37.74C129.079 37.2707 128.859 36.9113 128.551 36.662C128.258 36.398 127.855 36.266 127.341 36.266C126.872 36.266 126.447 36.3687 126.065 36.574C125.684 36.7793 125.361 37.0947 125.097 37.52L122.545 36.64C122.751 36.1707 123.051 35.716 123.447 35.276C123.843 34.8213 124.357 34.4547 124.987 34.176C125.633 33.8827 126.417 33.736 127.341 33.736C128.456 33.736 129.38 33.9487 130.113 34.374C130.861 34.7993 131.411 35.4007 131.763 36.178C132.13 36.9407 132.306 37.85 132.291 38.906L132.225 45H129.519ZM126.439 45.264C125.119 45.264 124.093 44.9707 123.359 44.384C122.641 43.7973 122.281 42.9687 122.281 41.898C122.281 40.7247 122.67 39.8447 123.447 39.258C124.239 38.6567 125.347 38.356 126.769 38.356H129.563V40.512H127.781C126.828 40.512 126.168 40.6293 125.801 40.864C125.435 41.084 125.251 41.3993 125.251 41.81C125.251 42.1327 125.398 42.3893 125.691 42.58C125.985 42.756 126.395 42.844 126.923 42.844C127.407 42.844 127.833 42.734 128.199 42.514C128.581 42.2793 128.881 41.986 129.101 41.634C129.321 41.2673 129.431 40.8933 129.431 40.512H130.135C130.135 42.008 129.849 43.174 129.277 44.01C128.72 44.846 127.774 45.264 126.439 45.264ZM134.756 45V29.6H137.66V45H134.756ZM145.292 45.264C144.207 45.264 143.246 45.022 142.41 44.538C141.574 44.0393 140.914 43.3573 140.43 42.492C139.961 41.6267 139.726 40.6293 139.726 39.5C139.726 38.3707 139.968 37.3733 140.452 36.508C140.951 35.6427 141.625 34.968 142.476 34.484C143.341 33.9853 144.331 33.736 145.446 33.736C146.414 33.736 147.301 33.9927 148.108 34.506C148.929 35.0047 149.582 35.7453 150.066 36.728C150.565 37.696 150.814 38.8767 150.814 40.27H142.476L142.74 40.006C142.74 40.5487 142.872 41.0253 143.136 41.436C143.415 41.832 143.767 42.14 144.192 42.36C144.632 42.5653 145.101 42.668 145.6 42.668C146.201 42.668 146.693 42.5433 147.074 42.294C147.455 42.03 147.749 41.6927 147.954 41.282L150.55 42.294C150.242 42.91 149.839 43.4453 149.34 43.9C148.856 44.34 148.277 44.6773 147.602 44.912C146.927 45.1467 146.157 45.264 145.292 45.264ZM142.894 38.378L142.63 38.114H147.932L147.69 38.378C147.69 37.85 147.565 37.432 147.316 37.124C147.067 36.8013 146.759 36.5667 146.392 36.42C146.04 36.2733 145.695 36.2 145.358 36.2C145.021 36.2 144.661 36.2733 144.28 36.42C143.899 36.5667 143.569 36.8013 143.29 37.124C143.026 37.432 142.894 37.85 142.894 38.378ZM156.766 45.264C156.062 45.264 155.402 45.1613 154.786 44.956C154.17 44.736 153.627 44.428 153.158 44.032C152.688 43.6213 152.322 43.1227 152.058 42.536L154.544 41.392C154.764 41.744 155.064 42.052 155.446 42.316C155.827 42.5653 156.267 42.69 156.766 42.69C157.25 42.69 157.624 42.624 157.888 42.492C158.152 42.3453 158.284 42.14 158.284 41.876C158.284 41.612 158.174 41.4213 157.954 41.304C157.748 41.172 157.462 41.062 157.096 40.974L156.084 40.71C155.028 40.4313 154.192 39.9913 153.576 39.39C152.974 38.774 152.674 38.07 152.674 37.278C152.674 36.1487 153.033 35.276 153.752 34.66C154.485 34.044 155.519 33.736 156.854 33.736C157.543 33.736 158.181 33.8387 158.768 34.044C159.369 34.2493 159.882 34.5353 160.308 34.902C160.733 35.2687 161.026 35.694 161.188 36.178L158.79 37.278C158.687 36.9847 158.438 36.75 158.042 36.574C157.646 36.3833 157.25 36.288 156.854 36.288C156.458 36.288 156.15 36.376 155.93 36.552C155.724 36.7133 155.622 36.9407 155.622 37.234C155.622 37.4247 155.724 37.586 155.93 37.718C156.135 37.8353 156.428 37.938 156.81 38.026L158.24 38.378C158.958 38.554 159.53 38.84 159.956 39.236C160.396 39.6173 160.711 40.05 160.902 40.534C161.107 41.0033 161.21 41.4653 161.21 41.92C161.21 42.58 161.012 43.1667 160.616 43.68C160.234 44.1787 159.706 44.5673 159.032 44.846C158.372 45.1247 157.616 45.264 156.766 45.264Z" fill="#3D3D4F"/>
<path d="M30.007 83.132C29.3984 83.132 28.8557 82.9633 28.379 82.626C27.9097 82.2813 27.5394 81.812 27.268 81.218C27.004 80.6167 26.872 79.9273 26.872 79.15C26.872 78.3727 27.004 77.687 27.268 77.093C27.532 76.4917 27.8987 76.0223 28.368 75.685C28.8374 75.3403 29.3727 75.168 29.974 75.168C30.3554 75.168 30.722 75.2523 31.074 75.421C31.426 75.5823 31.7377 75.8097 32.009 76.103C32.2877 76.3963 32.504 76.7337 32.658 77.115L31.866 77.522C31.7487 77.2213 31.591 76.961 31.393 76.741C31.2024 76.5137 30.9824 76.3377 30.733 76.213C30.4837 76.081 30.2307 76.015 29.974 76.015C29.556 76.015 29.182 76.1507 28.852 76.422C28.5294 76.686 28.2764 77.0527 28.093 77.522C27.9097 77.9913 27.818 78.534 27.818 79.15C27.818 79.7587 27.9097 80.3013 28.093 80.778C28.2764 81.2547 28.533 81.625 28.863 81.889C29.193 82.153 29.5744 82.285 30.007 82.285C30.271 82.285 30.524 82.219 30.766 82.087C31.0154 81.9477 31.2354 81.757 31.426 81.515C31.624 81.2657 31.778 80.9833 31.888 80.668L32.691 81.075C32.537 81.471 32.3207 81.8267 32.042 82.142C31.7634 82.4573 31.448 82.703 31.096 82.879C30.7514 83.0477 30.3884 83.132 30.007 83.132ZM26.003 80.173V79.546H30.81V80.173H26.003ZM26.003 78.754V78.127H30.81V78.754H26.003ZM36.4762 83.132C35.9482 83.132 35.5046 83.033 35.1452 82.835C34.7859 82.6297 34.4999 82.3547 34.2872 82.01C34.0746 81.6653 33.9206 81.2693 33.8252 80.822C33.7372 80.3673 33.6932 79.887 33.6932 79.381C33.6932 78.721 33.7592 78.1307 33.8912 77.61C34.0306 77.0893 34.2286 76.6493 34.4852 76.29C34.7419 75.9233 35.0536 75.6447 35.4202 75.454C35.7869 75.2633 36.2012 75.168 36.6633 75.168C37.0446 75.168 37.4222 75.2303 37.7962 75.355C38.1776 75.4723 38.5149 75.6373 38.8083 75.85L38.2913 76.51C38.0566 76.3487 37.8036 76.224 37.5323 76.136C37.2609 76.0407 37.0006 75.993 36.7512 75.993C36.0032 75.993 35.4349 76.3083 35.0462 76.939C34.6576 77.5697 34.4852 78.5267 34.5292 79.81L34.3312 79.612C34.5072 79.1647 34.7896 78.8127 35.1782 78.556C35.5669 78.292 36.0252 78.16 36.5532 78.16C37.0446 78.16 37.4809 78.2663 37.8623 78.479C38.2509 78.6917 38.5516 78.9887 38.7643 79.37C38.9843 79.744 39.0942 80.173 39.0942 80.657C39.0942 81.1337 38.9843 81.5627 38.7643 81.944C38.5443 82.318 38.2362 82.6113 37.8403 82.824C37.4516 83.0293 36.9969 83.132 36.4762 83.132ZM36.4762 82.318C36.8063 82.318 37.0959 82.2483 37.3452 82.109C37.6019 81.9623 37.7999 81.7643 37.9393 81.515C38.0859 81.2583 38.1593 80.965 38.1593 80.635C38.1593 80.305 38.0859 80.0153 37.9393 79.766C37.7999 79.5093 37.6019 79.3113 37.3452 79.172C37.0959 79.0327 36.8063 78.963 36.4762 78.963C36.1536 78.963 35.8639 79.0327 35.6072 79.172C35.3506 79.3113 35.1489 79.5093 35.0022 79.766C34.8556 80.0153 34.7822 80.305 34.7822 80.635C34.7822 80.965 34.8556 81.2583 35.0022 81.515C35.1489 81.7643 35.3506 81.9623 35.6072 82.109C35.8639 82.2483 36.1536 82.318 36.4762 82.318ZM43.0587 83.132C42.4721 83.132 41.9514 82.9633 41.4967 82.626C41.0421 82.2813 40.6864 81.812 40.4297 81.218C40.1731 80.6167 40.0447 79.9273 40.0447 79.15C40.0447 78.3727 40.1731 77.687 40.4297 77.093C40.6864 76.4917 41.0384 76.0223 41.4857 75.685C41.9404 75.3403 42.4647 75.168 43.0587 75.168C43.6527 75.168 44.1734 75.3403 44.6207 75.685C45.0754 76.0223 45.4311 76.4917 45.6877 77.093C45.9517 77.687 46.0837 78.3727 46.0837 79.15C46.0837 79.9273 45.9554 80.6167 45.6987 81.218C45.4421 81.812 45.0864 82.2813 44.6317 82.626C44.1771 82.9633 43.6527 83.132 43.0587 83.132ZM43.0587 82.296C43.4694 82.296 43.8324 82.1603 44.1477 81.889C44.4704 81.6177 44.7197 81.2473 44.8957 80.778C45.0791 80.3087 45.1707 79.766 45.1707 79.15C45.1707 78.534 45.0791 77.9913 44.8957 77.522C44.7197 77.0453 44.4704 76.675 44.1477 76.411C43.8324 76.1397 43.4694 76.004 43.0587 76.004C42.6481 76.004 42.2851 76.1397 41.9697 76.411C41.6544 76.675 41.4051 77.0453 41.2217 77.522C41.0457 77.9913 40.9577 78.534 40.9577 79.15C40.9577 79.766 41.0457 80.3087 41.2217 80.778C41.4051 81.2473 41.6544 81.6177 41.9697 81.889C42.2924 82.1603 42.6554 82.296 43.0587 82.296ZM48.3676 80.36L47.9826 79.513L52.0306 75.3H53.1966L48.3676 80.36ZM47.7186 83V75.3H48.6096V83H47.7186ZM52.2066 83L49.0496 79.084L49.6546 78.49L53.3396 83H52.2066Z" fill="#8A8A8A"/>
<path d="M30.2541 137.302C29.6455 137.302 29.1028 137.133 28.6261 136.796C28.1568 136.451 27.7864 135.982 27.5151 135.388C27.2511 134.787 27.1191 134.097 27.1191 133.32C27.1191 132.543 27.2511 131.857 27.5151 131.263C27.7791 130.662 28.1458 130.192 28.6151 129.855C29.0844 129.51 29.6198 129.338 30.2211 129.338C30.6024 129.338 30.9691 129.422 31.3211 129.591C31.6731 129.752 31.9848 129.98 32.2561 130.273C32.5348 130.566 32.7511 130.904 32.9051 131.285L32.1131 131.692C31.9958 131.391 31.8381 131.131 31.6401 130.911C31.4494 130.684 31.2294 130.508 30.9801 130.383C30.7308 130.251 30.4778 130.185 30.2211 130.185C29.8031 130.185 29.4291 130.321 29.0991 130.592C28.7764 130.856 28.5234 131.223 28.3401 131.692C28.1568 132.161 28.0651 132.704 28.0651 133.32C28.0651 133.929 28.1568 134.471 28.3401 134.948C28.5234 135.425 28.7801 135.795 29.1101 136.059C29.4401 136.323 29.8214 136.455 30.2541 136.455C30.5181 136.455 30.7711 136.389 31.0131 136.257C31.2624 136.118 31.4824 135.927 31.6731 135.685C31.8711 135.436 32.0251 135.153 32.1351 134.838L32.9381 135.245C32.7841 135.641 32.5678 135.997 32.2891 136.312C32.0105 136.627 31.6951 136.873 31.3431 137.049C30.9984 137.218 30.6354 137.302 30.2541 137.302ZM26.2501 134.343V133.716H31.0571V134.343H26.2501ZM26.2501 132.924V132.297H31.0571V132.924H26.2501ZM36.4043 137.302C36.0303 137.302 35.6893 137.247 35.3813 137.137C35.0807 137.02 34.8203 136.869 34.6003 136.686C34.3877 136.503 34.219 136.308 34.0943 136.103L34.8643 135.674C34.945 135.777 35.044 135.894 35.1613 136.026C35.286 136.151 35.4437 136.257 35.6343 136.345C35.825 136.433 36.0597 136.477 36.3383 136.477C36.837 136.477 37.2367 136.334 37.5373 136.048C37.838 135.762 37.9883 135.403 37.9883 134.97C37.9883 134.64 37.8967 134.361 37.7133 134.134C37.5373 133.907 37.2807 133.734 36.9433 133.617C36.606 133.5 36.2027 133.441 35.7333 133.441H35.5243V132.715H35.7113C36.1733 132.715 36.5987 132.766 36.9873 132.869C37.376 132.972 37.7133 133.122 37.9993 133.32C38.2927 133.518 38.5163 133.76 38.6703 134.046C38.8317 134.332 38.9123 134.662 38.9123 135.036C38.9123 135.491 38.7987 135.89 38.5713 136.235C38.3513 136.572 38.0507 136.836 37.6693 137.027C37.288 137.21 36.8663 137.302 36.4043 137.302ZM35.5243 133.364V132.649H35.7333C36.364 132.649 36.8627 132.543 37.2293 132.33C37.6033 132.11 37.7903 131.798 37.7903 131.395C37.7903 131.175 37.7317 130.973 37.6143 130.79C37.497 130.599 37.3247 130.449 37.0973 130.339C36.8773 130.222 36.6207 130.163 36.3273 130.163C36.1293 130.163 35.9423 130.192 35.7663 130.251C35.5977 130.302 35.44 130.383 35.2933 130.493C35.154 130.596 35.0257 130.728 34.9083 130.889L34.1823 130.471C34.3217 130.244 34.4977 130.046 34.7103 129.877C34.9303 129.708 35.1797 129.576 35.4583 129.481C35.737 129.386 36.0413 129.338 36.3713 129.338C36.8187 129.338 37.2183 129.426 37.5703 129.602C37.9297 129.778 38.212 130.02 38.4173 130.328C38.6227 130.629 38.7253 130.97 38.7253 131.351C38.7253 131.674 38.6483 131.96 38.4943 132.209C38.3403 132.458 38.124 132.671 37.8453 132.847C37.574 133.023 37.255 133.155 36.8883 133.243C36.529 133.324 36.1367 133.364 35.7113 133.364H35.5243ZM43.0587 137.302C42.4721 137.302 41.9514 137.133 41.4967 136.796C41.0421 136.451 40.6864 135.982 40.4297 135.388C40.1731 134.787 40.0447 134.097 40.0447 133.32C40.0447 132.543 40.1731 131.857 40.4297 131.263C40.6864 130.662 41.0384 130.192 41.4857 129.855C41.9404 129.51 42.4647 129.338 43.0587 129.338C43.6527 129.338 44.1734 129.51 44.6207 129.855C45.0754 130.192 45.4311 130.662 45.6877 131.263C45.9517 131.857 46.0837 132.543 46.0837 133.32C46.0837 134.097 45.9554 134.787 45.6987 135.388C45.4421 135.982 45.0864 136.451 44.6317 136.796C44.1771 137.133 43.6527 137.302 43.0587 137.302ZM43.0587 136.466C43.4694 136.466 43.8324 136.33 44.1477 136.059C44.4704 135.788 44.7197 135.417 44.8957 134.948C45.0791 134.479 45.1707 133.936 45.1707 133.32C45.1707 132.704 45.0791 132.161 44.8957 131.692C44.7197 131.215 44.4704 130.845 44.1477 130.581C43.8324 130.31 43.4694 130.174 43.0587 130.174C42.6481 130.174 42.2851 130.31 41.9697 130.581C41.6544 130.845 41.4051 131.215 41.2217 131.692C41.0457 132.161 40.9577 132.704 40.9577 133.32C40.9577 133.936 41.0457 134.479 41.2217 134.948C41.4051 135.417 41.6544 135.788 41.9697 136.059C42.2924 136.33 42.6554 136.466 43.0587 136.466ZM48.3676 134.53L47.9826 133.683L52.0306 129.47H53.1966L48.3676 134.53ZM47.7186 137.17V129.47H48.6096V137.17H47.7186ZM52.2066 137.17L49.0496 133.254L49.6546 132.66L53.3396 137.17H52.2066Z" fill="#8A8A8A"/>
<path d="M29.0755 110.65C28.4668 110.65 27.9242 110.481 27.4475 110.144C26.9782 109.799 26.6078 109.33 26.3365 108.736C26.0725 108.134 25.9405 107.445 25.9405 106.668C25.9405 105.89 26.0725 105.205 26.3365 104.611C26.6005 104.009 26.9672 103.54 27.4365 103.203C27.9058 102.858 28.4412 102.686 29.0425 102.686C29.4238 102.686 29.7905 102.77 30.1425 102.939C30.4945 103.1 30.8062 103.327 31.0775 103.621C31.3562 103.914 31.5725 104.251 31.7265 104.633L30.9345 105.04C30.8172 104.739 30.6595 104.479 30.4615 104.259C30.2708 104.031 30.0508 103.855 29.8015 103.731C29.5522 103.599 29.2992 103.533 29.0425 103.533C28.6245 103.533 28.2505 103.668 27.9205 103.94C27.5978 104.204 27.3448 104.57 27.1615 105.04C26.9782 105.509 26.8865 106.052 26.8865 106.668C26.8865 107.276 26.9782 107.819 27.1615 108.296C27.3448 108.772 27.6015 109.143 27.9315 109.407C28.2615 109.671 28.6428 109.803 29.0755 109.803C29.3395 109.803 29.5925 109.737 29.8345 109.605C30.0838 109.465 30.3038 109.275 30.4945 109.033C30.6925 108.783 30.8465 108.501 30.9565 108.186L31.7595 108.593C31.6055 108.989 31.3892 109.344 31.1105 109.66C30.8318 109.975 30.5165 110.221 30.1645 110.397C29.8198 110.565 29.4568 110.65 29.0755 110.65ZM25.0715 107.691V107.064H29.8785V107.691H25.0715ZM25.0715 106.272V105.645H29.8785V106.272H25.0715ZM36.4027 110.518V108.648H32.8497V107.933L36.3587 102.818H37.3047V107.823H38.8777V108.648H37.3047V110.518H36.4027ZM33.9167 107.823H36.4027V104.171L33.9167 107.823ZM42.9487 110.65C42.3621 110.65 41.8414 110.481 41.3867 110.144C40.9321 109.799 40.5764 109.33 40.3197 108.736C40.0631 108.134 39.9347 107.445 39.9347 106.668C39.9347 105.89 40.0631 105.205 40.3197 104.611C40.5764 104.009 40.9284 103.54 41.3757 103.203C41.8304 102.858 42.3547 102.686 42.9487 102.686C43.5427 102.686 44.0634 102.858 44.5107 103.203C44.9654 103.54 45.3211 104.009 45.5777 104.611C45.8417 105.205 45.9737 105.89 45.9737 106.668C45.9737 107.445 45.8454 108.134 45.5887 108.736C45.3321 109.33 44.9764 109.799 44.5217 110.144C44.0671 110.481 43.5427 110.65 42.9487 110.65ZM42.9487 109.814C43.3594 109.814 43.7224 109.678 44.0377 109.407C44.3604 109.135 44.6097 108.765 44.7857 108.296C44.9691 107.826 45.0607 107.284 45.0607 106.668C45.0607 106.052 44.9691 105.509 44.7857 105.04C44.6097 104.563 44.3604 104.193 44.0377 103.929C43.7224 103.657 43.3594 103.522 42.9487 103.522C42.5381 103.522 42.1751 103.657 41.8597 103.929C41.5444 104.193 41.2951 104.563 41.1117 105.04C40.9357 105.509 40.8477 106.052 40.8477 106.668C40.8477 107.284 40.9357 107.826 41.1117 108.296C41.2951 108.765 41.5444 109.135 41.8597 109.407C42.1824 109.678 42.5454 109.814 42.9487 109.814ZM48.3676 107.878L47.9826 107.031L52.0306 102.818H53.1966L48.3676 107.878ZM47.7186 110.518V102.818H48.6096V110.518H47.7186ZM52.2066 110.518L49.0496 106.602L49.6546 106.008L53.3396 110.518H52.2066Z" fill="#8A8A8A"/>
<path d="M30.4392 165.954C29.8305 165.954 29.2878 165.786 28.8112 165.448C28.3418 165.104 27.9715 164.634 27.7002 164.04C27.4362 163.439 27.3042 162.75 27.3042 161.972C27.3042 161.195 27.4362 160.509 27.7002 159.915C27.9642 159.314 28.3308 158.845 28.8002 158.507C29.2695 158.163 29.8048 157.99 30.4062 157.99C30.7875 157.99 31.1542 158.075 31.5062 158.243C31.8582 158.405 32.1698 158.632 32.4412 158.925C32.7198 159.219 32.9362 159.556 33.0902 159.937L32.2982 160.344C32.1808 160.044 32.0232 159.783 31.8252 159.563C31.6345 159.336 31.4145 159.16 31.1652 159.035C30.9158 158.903 30.6628 158.837 30.4062 158.837C29.9882 158.837 29.6142 158.973 29.2842 159.244C28.9615 159.508 28.7085 159.875 28.5252 160.344C28.3418 160.814 28.2502 161.356 28.2502 161.972C28.2502 162.581 28.3418 163.124 28.5252 163.6C28.7085 164.077 28.9652 164.447 29.2952 164.711C29.6252 164.975 30.0065 165.107 30.4392 165.107C30.7032 165.107 30.9562 165.041 31.1982 164.909C31.4475 164.77 31.6675 164.579 31.8582 164.337C32.0562 164.088 32.2102 163.806 32.3202 163.49L33.1232 163.897C32.9692 164.293 32.7528 164.649 32.4742 164.964C32.1955 165.28 31.8802 165.525 31.5282 165.701C31.1835 165.87 30.8205 165.954 30.4392 165.954ZM26.4352 162.995V162.368H31.2422V162.995H26.4352ZM26.4352 161.576V160.949H31.2422V161.576H26.4352ZM34.2574 165.822V165.052C34.2574 164.81 34.305 164.572 34.4004 164.337C34.503 164.095 34.646 163.857 34.8294 163.622C35.02 163.388 35.251 163.168 35.5224 162.962L37.1174 161.763C37.308 161.631 37.473 161.481 37.6124 161.312C37.759 161.136 37.8727 160.957 37.9534 160.773C38.034 160.583 38.0744 160.399 38.0744 160.223C38.0744 159.967 38.012 159.736 37.8874 159.53C37.7627 159.318 37.5867 159.149 37.3594 159.024C37.132 158.9 36.8644 158.837 36.5564 158.837C36.2557 158.837 35.9917 158.896 35.7644 159.013C35.537 159.123 35.35 159.274 35.2034 159.464C35.0567 159.648 34.9504 159.846 34.8844 160.058L33.9384 159.871C34.0264 159.541 34.184 159.233 34.4114 158.947C34.646 158.661 34.943 158.43 35.3024 158.254C35.6617 158.078 36.0614 157.99 36.5014 157.99C37.0147 157.99 37.4584 158.089 37.8324 158.287C38.2064 158.478 38.496 158.742 38.7014 159.079C38.914 159.409 39.0204 159.787 39.0204 160.212C39.0204 160.616 38.9104 160.997 38.6904 161.356C38.4704 161.716 38.1514 162.064 37.7334 162.401L36.2264 163.545C35.933 163.765 35.7057 163.996 35.5444 164.238C35.3904 164.48 35.3024 164.733 35.2804 164.997H39.1304V165.822H34.2574ZM43.4049 165.954C42.8182 165.954 42.2976 165.786 41.8429 165.448C41.3882 165.104 41.0326 164.634 40.7759 164.04C40.5192 163.439 40.3909 162.75 40.3909 161.972C40.3909 161.195 40.5192 160.509 40.7759 159.915C41.0326 159.314 41.3846 158.845 41.8319 158.507C42.2866 158.163 42.8109 157.99 43.4049 157.99C43.9989 157.99 44.5196 158.163 44.9669 158.507C45.4216 158.845 45.7772 159.314 46.0339 159.915C46.2979 160.509 46.4299 161.195 46.4299 161.972C46.4299 162.75 46.3016 163.439 46.0449 164.04C45.7882 164.634 45.4326 165.104 44.9779 165.448C44.5232 165.786 43.9989 165.954 43.4049 165.954ZM43.4049 165.118C43.8156 165.118 44.1786 164.983 44.4939 164.711C44.8166 164.44 45.0659 164.07 45.2419 163.6C45.4252 163.131 45.5169 162.588 45.5169 161.972C45.5169 161.356 45.4252 160.814 45.2419 160.344C45.0659 159.868 44.8166 159.497 44.4939 159.233C44.1786 158.962 43.8156 158.826 43.4049 158.826C42.9942 158.826 42.6312 158.962 42.3159 159.233C42.0006 159.497 41.7512 159.868 41.5679 160.344C41.3919 160.814 41.3039 161.356 41.3039 161.972C41.3039 162.588 41.3919 163.131 41.5679 163.6C41.7512 164.07 42.0006 164.44 42.3159 164.711C42.6386 164.983 43.0016 165.118 43.4049 165.118ZM48.7138 163.182L48.3288 162.335L52.3768 158.122H53.5428L48.7138 163.182ZM48.0648 165.822V158.122H48.9558V165.822H48.0648ZM52.5528 165.822L49.3958 161.906L50.0008 161.312L53.6858 165.822H52.5528Z" fill="#8A8A8A"/>
<path d="M49.5624 193.068C48.9224 193.068 48.3544 192.884 47.8584 192.516C47.3624 192.14 46.9744 191.628 46.6944 190.98C46.4144 190.324 46.2744 189.572 46.2744 188.724C46.2744 187.876 46.4144 187.128 46.6944 186.48C46.9744 185.824 47.3584 185.312 47.8464 184.944C48.3424 184.568 48.9144 184.38 49.5624 184.38C50.2104 184.38 50.7784 184.568 51.2664 184.944C51.7624 185.312 52.1504 185.824 52.4304 186.48C52.7184 187.128 52.8624 187.876 52.8624 188.724C52.8624 189.572 52.7224 190.324 52.4424 190.98C52.1624 191.628 51.7744 192.14 51.2784 192.516C50.7824 192.884 50.2104 193.068 49.5624 193.068ZM49.5624 192.156C50.0104 192.156 50.4064 192.008 50.7504 191.712C51.1024 191.416 51.3744 191.012 51.5664 190.5C51.7664 189.988 51.8664 189.396 51.8664 188.724C51.8664 188.052 51.7664 187.46 51.5664 186.948C51.3744 186.428 51.1024 186.024 50.7504 185.736C50.4064 185.44 50.0104 185.292 49.5624 185.292C49.1144 185.292 48.7184 185.44 48.3744 185.736C48.0304 186.024 47.7584 186.428 47.5584 186.948C47.3664 187.46 47.2704 188.052 47.2704 188.724C47.2704 189.396 47.3664 189.988 47.5584 190.5C47.7584 191.012 48.0304 191.416 48.3744 191.712C48.7264 192.008 49.1224 192.156 49.5624 192.156Z" fill="#8A8A8A"/>
<path d="M269.017 210.4L265.645 202H266.665L270.085 210.4H269.017ZM262.189 210.4L265.609 202H266.641L263.269 210.4H262.189ZM263.809 208.012V207.1H268.477V208.012H263.809ZM271.342 212.8V204.4H272.242L272.302 205.504V212.8H271.342ZM274.33 210.544C273.826 210.544 273.382 210.412 272.998 210.148C272.622 209.884 272.33 209.516 272.122 209.044C271.914 208.564 271.81 208.016 271.81 207.4C271.81 206.776 271.914 206.228 272.122 205.756C272.33 205.284 272.622 204.916 272.998 204.652C273.382 204.388 273.826 204.256 274.33 204.256C274.866 204.256 275.338 204.388 275.746 204.652C276.154 204.916 276.47 205.284 276.694 205.756C276.926 206.228 277.042 206.776 277.042 207.4C277.042 208.016 276.926 208.564 276.694 209.044C276.47 209.516 276.154 209.884 275.746 210.148C275.338 210.412 274.866 210.544 274.33 210.544ZM274.114 209.668C274.49 209.668 274.822 209.572 275.11 209.38C275.406 209.188 275.638 208.92 275.806 208.576C275.982 208.232 276.07 207.84 276.07 207.4C276.07 206.96 275.986 206.568 275.818 206.224C275.658 205.88 275.43 205.612 275.134 205.42C274.838 205.228 274.502 205.132 274.126 205.132C273.774 205.132 273.458 205.228 273.178 205.42C272.906 205.612 272.69 205.88 272.53 206.224C272.378 206.568 272.302 206.96 272.302 207.4C272.302 207.84 272.378 208.232 272.53 208.576C272.69 208.92 272.906 209.188 273.178 209.38C273.45 209.572 273.762 209.668 274.114 209.668ZM279.14 207.148C279.14 206.5 279.264 205.976 279.512 205.576C279.76 205.168 280.076 204.868 280.46 204.676C280.852 204.476 281.264 204.376 281.696 204.376V205.276C281.344 205.276 281.004 205.336 280.676 205.456C280.356 205.568 280.092 205.756 279.884 206.02C279.676 206.284 279.572 206.644 279.572 207.1L279.14 207.148ZM278.612 210.4V204.4H279.572V210.4H278.612Z" fill="white"/>
<path d="M269.017 210.4L265.645 202H266.665L270.085 210.4H269.017ZM262.189 210.4L265.609 202H266.641L263.269 210.4H262.189ZM263.809 208.012V207.1H268.477V208.012H263.809ZM271.342 212.8V204.4H272.242L272.302 205.504V212.8H271.342ZM274.33 210.544C273.826 210.544 273.382 210.412 272.998 210.148C272.622 209.884 272.33 209.516 272.122 209.044C271.914 208.564 271.81 208.016 271.81 207.4C271.81 206.776 271.914 206.228 272.122 205.756C272.33 205.284 272.622 204.916 272.998 204.652C273.382 204.388 273.826 204.256 274.33 204.256C274.866 204.256 275.338 204.388 275.746 204.652C276.154 204.916 276.47 205.284 276.694 205.756C276.926 206.228 277.042 206.776 277.042 207.4C277.042 208.016 276.926 208.564 276.694 209.044C276.47 209.516 276.154 209.884 275.746 210.148C275.338 210.412 274.866 210.544 274.33 210.544ZM274.114 209.668C274.49 209.668 274.822 209.572 275.11 209.38C275.406 209.188 275.638 208.92 275.806 208.576C275.982 208.232 276.07 207.84 276.07 207.4C276.07 206.96 275.986 206.568 275.818 206.224C275.658 205.88 275.43 205.612 275.134 205.42C274.838 205.228 274.502 205.132 274.126 205.132C273.774 205.132 273.458 205.228 273.178 205.42C272.906 205.612 272.69 205.88 272.53 206.224C272.378 206.568 272.302 206.96 272.302 207.4C272.302 207.84 272.378 208.232 272.53 208.576C272.69 208.92 272.906 209.188 273.178 209.38C273.45 209.572 273.762 209.668 274.114 209.668ZM279.14 207.148C279.14 206.5 279.264 205.976 279.512 205.576C279.76 205.168 280.076 204.868 280.46 204.676C280.852 204.476 281.264 204.376 281.696 204.376V205.276C281.344 205.276 281.004 205.336 280.676 205.456C280.356 205.568 280.092 205.756 279.884 206.02C279.676 206.284 279.572 206.644 279.572 207.1L279.14 207.148ZM278.612 210.4V204.4H279.572V210.4H278.612Z" fill="#8A8A8A"/>
<path d="M380.555 210.544C380.267 210.544 379.999 210.5 379.751 210.412C379.511 210.332 379.295 210.224 379.103 210.088C378.911 209.944 378.747 209.784 378.611 209.608C378.475 209.424 378.363 209.236 378.275 209.044L379.043 208.6C379.211 208.896 379.415 209.14 379.655 209.332C379.903 209.524 380.207 209.62 380.567 209.62C380.855 209.62 381.135 209.552 381.407 209.416C381.687 209.28 381.915 209.052 382.091 208.732C382.267 208.412 382.355 207.992 382.355 207.472V202H383.363V207.868C383.363 208.308 383.283 208.696 383.123 209.032C382.971 209.368 382.759 209.648 382.487 209.872C382.223 210.096 381.923 210.264 381.587 210.376C381.251 210.488 380.907 210.544 380.555 210.544ZM389.563 210.4L389.503 209.296V204.4H390.463V210.4H389.563ZM385.291 207.472V204.4H386.251V207.472H385.291ZM386.251 207.472C386.251 208.064 386.319 208.516 386.455 208.828C386.591 209.14 386.779 209.356 387.019 209.476C387.267 209.588 387.543 209.644 387.847 209.644C388.367 209.644 388.771 209.456 389.059 209.08C389.355 208.704 389.503 208.18 389.503 207.508H389.971C389.971 208.14 389.879 208.684 389.695 209.14C389.511 209.596 389.243 209.944 388.891 210.184C388.547 210.424 388.123 210.544 387.619 210.544C387.155 210.544 386.747 210.452 386.395 210.268C386.043 210.076 385.771 209.776 385.579 209.368C385.387 208.952 385.291 208.416 385.291 207.76V207.472H386.251ZM392.379 210.4V204.4H393.279L393.339 205.504V210.4H392.379ZM396.591 210.4V207.328H397.551V210.4H396.591ZM396.591 207.328C396.591 206.736 396.523 206.284 396.387 205.972C396.251 205.66 396.063 205.448 395.823 205.336C395.583 205.216 395.311 205.156 395.007 205.156C394.479 205.156 394.067 205.344 393.771 205.72C393.483 206.088 393.339 206.612 393.339 207.292H392.871C392.871 206.66 392.963 206.116 393.147 205.66C393.331 205.204 393.599 204.856 393.951 204.616C394.303 204.376 394.727 204.256 395.223 204.256C395.695 204.256 396.103 204.352 396.447 204.544C396.799 204.728 397.071 205.024 397.263 205.432C397.463 205.84 397.559 206.376 397.551 207.04V207.328H396.591Z" fill="white"/>
<path d="M380.555 210.544C380.267 210.544 379.999 210.5 379.751 210.412C379.511 210.332 379.295 210.224 379.103 210.088C378.911 209.944 378.747 209.784 378.611 209.608C378.475 209.424 378.363 209.236 378.275 209.044L379.043 208.6C379.211 208.896 379.415 209.14 379.655 209.332C379.903 209.524 380.207 209.62 380.567 209.62C380.855 209.62 381.135 209.552 381.407 209.416C381.687 209.28 381.915 209.052 382.091 208.732C382.267 208.412 382.355 207.992 382.355 207.472V202H383.363V207.868C383.363 208.308 383.283 208.696 383.123 209.032C382.971 209.368 382.759 209.648 382.487 209.872C382.223 210.096 381.923 210.264 381.587 210.376C381.251 210.488 380.907 210.544 380.555 210.544ZM389.563 210.4L389.503 209.296V204.4H390.463V210.4H389.563ZM385.291 207.472V204.4H386.251V207.472H385.291ZM386.251 207.472C386.251 208.064 386.319 208.516 386.455 208.828C386.591 209.14 386.779 209.356 387.019 209.476C387.267 209.588 387.543 209.644 387.847 209.644C388.367 209.644 388.771 209.456 389.059 209.08C389.355 208.704 389.503 208.18 389.503 207.508H389.971C389.971 208.14 389.879 208.684 389.695 209.14C389.511 209.596 389.243 209.944 388.891 210.184C388.547 210.424 388.123 210.544 387.619 210.544C387.155 210.544 386.747 210.452 386.395 210.268C386.043 210.076 385.771 209.776 385.579 209.368C385.387 208.952 385.291 208.416 385.291 207.76V207.472H386.251ZM392.379 210.4V204.4H393.279L393.339 205.504V210.4H392.379ZM396.591 210.4V207.328H397.551V210.4H396.591ZM396.591 207.328C396.591 206.736 396.523 206.284 396.387 205.972C396.251 205.66 396.063 205.448 395.823 205.336C395.583 205.216 395.311 205.156 395.007 205.156C394.479 205.156 394.067 205.344 393.771 205.72C393.483 206.088 393.339 206.612 393.339 207.292H392.871C392.871 206.66 392.963 206.116 393.147 205.66C393.331 205.204 393.599 204.856 393.951 204.616C394.303 204.376 394.727 204.256 395.223 204.256C395.695 204.256 396.103 204.352 396.447 204.544C396.799 204.728 397.071 205.024 397.263 205.432C397.463 205.84 397.559 206.376 397.551 207.04V207.328H396.591Z" fill="#8A8A8A"/>
<path d="M320.627 210.4V202H321.683L324.587 206.296L327.491 202H328.535V210.4H327.527V203.632L324.587 208.012L321.647 203.656V210.4H320.627ZM334.436 210.4L334.388 209.416V207.232C334.388 206.76 334.336 206.372 334.232 206.068C334.128 205.756 333.964 205.52 333.74 205.36C333.516 205.2 333.224 205.12 332.864 205.12C332.536 205.12 332.252 205.188 332.012 205.324C331.78 205.452 331.588 205.66 331.436 205.948L330.572 205.612C330.724 205.332 330.908 205.092 331.124 204.892C331.34 204.684 331.592 204.528 331.88 204.424C332.168 204.312 332.496 204.256 332.864 204.256C333.424 204.256 333.884 204.368 334.244 204.592C334.612 204.808 334.888 205.132 335.072 205.564C335.256 205.988 335.344 206.516 335.336 207.148L335.324 210.4H334.436ZM332.636 210.544C331.932 210.544 331.38 210.384 330.98 210.064C330.588 209.736 330.392 209.284 330.392 208.708C330.392 208.1 330.592 207.636 330.992 207.316C331.4 206.988 331.968 206.824 332.696 206.824H334.412V207.628H332.912C332.352 207.628 331.952 207.72 331.712 207.904C331.48 208.088 331.364 208.352 331.364 208.696C331.364 209.008 331.48 209.256 331.712 209.44C331.944 209.616 332.268 209.704 332.684 209.704C333.028 209.704 333.328 209.632 333.584 209.488C333.84 209.336 334.036 209.124 334.172 208.852C334.316 208.572 334.388 208.244 334.388 207.868H334.796C334.796 208.684 334.612 209.336 334.244 209.824C333.876 210.304 333.34 210.544 332.636 210.544ZM337.543 212.944C337.391 212.944 337.215 212.912 337.015 212.848C336.815 212.792 336.603 212.716 336.379 212.62L336.739 211.816C336.923 211.896 337.083 211.956 337.219 211.996C337.363 212.036 337.475 212.056 337.555 212.056C337.771 212.056 337.947 211.996 338.083 211.876C338.227 211.764 338.347 211.6 338.443 211.384L339.127 209.752L341.347 204.4H342.379L339.499 211.24C339.347 211.592 339.187 211.896 339.019 212.152C338.859 212.408 338.663 212.604 338.431 212.74C338.199 212.876 337.903 212.944 337.543 212.944ZM338.863 210.4L336.271 204.4H337.291L339.523 209.74L339.811 210.4H338.863Z" fill="white"/>
<path d="M320.627 210.4V202H321.683L324.587 206.296L327.491 202H328.535V210.4H327.527V203.632L324.587 208.012L321.647 203.656V210.4H320.627ZM334.436 210.4L334.388 209.416V207.232C334.388 206.76 334.336 206.372 334.232 206.068C334.128 205.756 333.964 205.52 333.74 205.36C333.516 205.2 333.224 205.12 332.864 205.12C332.536 205.12 332.252 205.188 332.012 205.324C331.78 205.452 331.588 205.66 331.436 205.948L330.572 205.612C330.724 205.332 330.908 205.092 331.124 204.892C331.34 204.684 331.592 204.528 331.88 204.424C332.168 204.312 332.496 204.256 332.864 204.256C333.424 204.256 333.884 204.368 334.244 204.592C334.612 204.808 334.888 205.132 335.072 205.564C335.256 205.988 335.344 206.516 335.336 207.148L335.324 210.4H334.436ZM332.636 210.544C331.932 210.544 331.38 210.384 330.98 210.064C330.588 209.736 330.392 209.284 330.392 208.708C330.392 208.1 330.592 207.636 330.992 207.316C331.4 206.988 331.968 206.824 332.696 206.824H334.412V207.628H332.912C332.352 207.628 331.952 207.72 331.712 207.904C331.48 208.088 331.364 208.352 331.364 208.696C331.364 209.008 331.48 209.256 331.712 209.44C331.944 209.616 332.268 209.704 332.684 209.704C333.028 209.704 333.328 209.632 333.584 209.488C333.84 209.336 334.036 209.124 334.172 208.852C334.316 208.572 334.388 208.244 334.388 207.868H334.796C334.796 208.684 334.612 209.336 334.244 209.824C333.876 210.304 333.34 210.544 332.636 210.544ZM337.543 212.944C337.391 212.944 337.215 212.912 337.015 212.848C336.815 212.792 336.603 212.716 336.379 212.62L336.739 211.816C336.923 211.896 337.083 211.956 337.219 211.996C337.363 212.036 337.475 212.056 337.555 212.056C337.771 212.056 337.947 211.996 338.083 211.876C338.227 211.764 338.347 211.6 338.443 211.384L339.127 209.752L341.347 204.4H342.379L339.499 211.24C339.347 211.592 339.187 211.896 339.019 212.152C338.859 212.408 338.663 212.604 338.431 212.74C338.199 212.876 337.903 212.944 337.543 212.944ZM338.863 210.4L336.271 204.4H337.291L339.523 209.74L339.811 210.4H338.863Z" fill="#8A8A8A"/>
<path d="M83.8054 210.544C83.5174 210.544 83.2494 210.5 83.0014 210.412C82.7614 210.332 82.5454 210.224 82.3534 210.088C82.1614 209.944 81.9974 209.784 81.8614 209.608C81.7254 209.424 81.6134 209.236 81.5254 209.044L82.2934 208.6C82.4614 208.896 82.6654 209.14 82.9054 209.332C83.1534 209.524 83.4574 209.62 83.8174 209.62C84.1054 209.62 84.3854 209.552 84.6574 209.416C84.9374 209.28 85.1654 209.052 85.3414 208.732C85.5174 208.412 85.6054 207.992 85.6054 207.472V202H86.6134V207.868C86.6134 208.308 86.5334 208.696 86.3734 209.032C86.2214 209.368 86.0094 209.648 85.7374 209.872C85.4734 210.096 85.1734 210.264 84.8374 210.376C84.5014 210.488 84.1574 210.544 83.8054 210.544ZM92.3932 210.4L92.3452 209.416V207.232C92.3452 206.76 92.2932 206.372 92.1892 206.068C92.0852 205.756 91.9212 205.52 91.6972 205.36C91.4732 205.2 91.1812 205.12 90.8212 205.12C90.4932 205.12 90.2092 205.188 89.9692 205.324C89.7372 205.452 89.5452 205.66 89.3932 205.948L88.5292 205.612C88.6812 205.332 88.8652 205.092 89.0812 204.892C89.2972 204.684 89.5492 204.528 89.8372 204.424C90.1252 204.312 90.4532 204.256 90.8212 204.256C91.3812 204.256 91.8412 204.368 92.2012 204.592C92.5692 204.808 92.8452 205.132 93.0292 205.564C93.2132 205.988 93.3012 206.516 93.2932 207.148L93.2812 210.4H92.3932ZM90.5932 210.544C89.8892 210.544 89.3372 210.384 88.9372 210.064C88.5452 209.736 88.3492 209.284 88.3492 208.708C88.3492 208.1 88.5492 207.636 88.9492 207.316C89.3572 206.988 89.9252 206.824 90.6532 206.824H92.3692V207.628H90.8692C90.3092 207.628 89.9092 207.72 89.6692 207.904C89.4372 208.088 89.3212 208.352 89.3212 208.696C89.3212 209.008 89.4372 209.256 89.6692 209.44C89.9012 209.616 90.2252 209.704 90.6412 209.704C90.9852 209.704 91.2852 209.632 91.5412 209.488C91.7972 209.336 91.9932 209.124 92.1292 208.852C92.2732 208.572 92.3452 208.244 92.3452 207.868H92.7532C92.7532 208.684 92.5692 209.336 92.2012 209.824C91.8332 210.304 91.2972 210.544 90.5932 210.544ZM95.0544 210.4V204.4H95.9544L96.0144 205.504V210.4H95.0544ZM99.2664 210.4V207.328H100.226V210.4H99.2664ZM99.2664 207.328C99.2664 206.736 99.1984 206.284 99.0624 205.972C98.9264 205.66 98.7384 205.448 98.4984 205.336C98.2584 205.216 97.9864 205.156 97.6824 205.156C97.1544 205.156 96.7424 205.344 96.4464 205.72C96.1584 206.088 96.0144 206.612 96.0144 207.292H95.5464C95.5464 206.66 95.6384 206.116 95.8224 205.66C96.0064 205.204 96.2744 204.856 96.6264 204.616C96.9784 204.376 97.4024 204.256 97.8984 204.256C98.3704 204.256 98.7784 204.352 99.1224 204.544C99.4744 204.728 99.7464 205.024 99.9384 205.432C100.138 205.84 100.234 206.376 100.226 207.04V207.328H99.2664Z" fill="white"/>
<path d="M83.8054 210.544C83.5174 210.544 83.2494 210.5 83.0014 210.412C82.7614 210.332 82.5454 210.224 82.3534 210.088C82.1614 209.944 81.9974 209.784 81.8614 209.608C81.7254 209.424 81.6134 209.236 81.5254 209.044L82.2934 208.6C82.4614 208.896 82.6654 209.14 82.9054 209.332C83.1534 209.524 83.4574 209.62 83.8174 209.62C84.1054 209.62 84.3854 209.552 84.6574 209.416C84.9374 209.28 85.1654 209.052 85.3414 208.732C85.5174 208.412 85.6054 207.992 85.6054 207.472V202H86.6134V207.868C86.6134 208.308 86.5334 208.696 86.3734 209.032C86.2214 209.368 86.0094 209.648 85.7374 209.872C85.4734 210.096 85.1734 210.264 84.8374 210.376C84.5014 210.488 84.1574 210.544 83.8054 210.544ZM92.3932 210.4L92.3452 209.416V207.232C92.3452 206.76 92.2932 206.372 92.1892 206.068C92.0852 205.756 91.9212 205.52 91.6972 205.36C91.4732 205.2 91.1812 205.12 90.8212 205.12C90.4932 205.12 90.2092 205.188 89.9692 205.324C89.7372 205.452 89.5452 205.66 89.3932 205.948L88.5292 205.612C88.6812 205.332 88.8652 205.092 89.0812 204.892C89.2972 204.684 89.5492 204.528 89.8372 204.424C90.1252 204.312 90.4532 204.256 90.8212 204.256C91.3812 204.256 91.8412 204.368 92.2012 204.592C92.5692 204.808 92.8452 205.132 93.0292 205.564C93.2132 205.988 93.3012 206.516 93.2932 207.148L93.2812 210.4H92.3932ZM90.5932 210.544C89.8892 210.544 89.3372 210.384 88.9372 210.064C88.5452 209.736 88.3492 209.284 88.3492 208.708C88.3492 208.1 88.5492 207.636 88.9492 207.316C89.3572 206.988 89.9252 206.824 90.6532 206.824H92.3692V207.628H90.8692C90.3092 207.628 89.9092 207.72 89.6692 207.904C89.4372 208.088 89.3212 208.352 89.3212 208.696C89.3212 209.008 89.4372 209.256 89.6692 209.44C89.9012 209.616 90.2252 209.704 90.6412 209.704C90.9852 209.704 91.2852 209.632 91.5412 209.488C91.7972 209.336 91.9932 209.124 92.1292 208.852C92.2732 208.572 92.3452 208.244 92.3452 207.868H92.7532C92.7532 208.684 92.5692 209.336 92.2012 209.824C91.8332 210.304 91.2972 210.544 90.5932 210.544ZM95.0544 210.4V204.4H95.9544L96.0144 205.504V210.4H95.0544ZM99.2664 210.4V207.328H100.226V210.4H99.2664ZM99.2664 207.328C99.2664 206.736 99.1984 206.284 99.0624 205.972C98.9264 205.66 98.7384 205.448 98.4984 205.336C98.2584 205.216 97.9864 205.156 97.6824 205.156C97.1544 205.156 96.7424 205.344 96.4464 205.72C96.1584 206.088 96.0144 206.612 96.0144 207.292H95.5464C95.5464 206.66 95.6384 206.116 95.8224 205.66C96.0064 205.204 96.2744 204.856 96.6264 204.616C96.9784 204.376 97.4024 204.256 97.8984 204.256C98.3704 204.256 98.7784 204.352 99.1224 204.544C99.4744 204.728 99.7464 205.024 99.9384 205.432C100.138 205.84 100.234 206.376 100.226 207.04V207.328H99.2664Z" fill="#8A8A8A"/>
<path d="M142.512 210.4V202H147.504V202.924H143.532V205.792H147.036V206.716H143.532V210.4H142.512ZM151.55 210.544C150.966 210.544 150.45 210.412 150.002 210.148C149.554 209.876 149.202 209.504 148.946 209.032C148.698 208.56 148.574 208.016 148.574 207.4C148.574 206.784 148.698 206.24 148.946 205.768C149.202 205.296 149.55 204.928 149.99 204.664C150.438 204.392 150.95 204.256 151.526 204.256C152.086 204.256 152.57 204.396 152.978 204.676C153.386 204.948 153.702 205.332 153.926 205.828C154.15 206.324 154.262 206.908 154.262 207.58H149.306L149.546 207.376C149.546 207.856 149.63 208.268 149.798 208.612C149.974 208.956 150.218 209.22 150.53 209.404C150.842 209.58 151.198 209.668 151.598 209.668C152.022 209.668 152.378 209.568 152.666 209.368C152.962 209.168 153.19 208.904 153.35 208.576L154.178 208.996C154.026 209.308 153.822 209.58 153.566 209.812C153.318 210.044 153.022 210.224 152.678 210.352C152.342 210.48 151.966 210.544 151.55 210.544ZM149.606 206.968L149.354 206.776H153.494L153.242 206.98C153.242 206.596 153.166 206.264 153.014 205.984C152.862 205.704 152.658 205.488 152.402 205.336C152.146 205.184 151.85 205.108 151.514 205.108C151.186 205.108 150.874 205.184 150.578 205.336C150.29 205.488 150.054 205.704 149.87 205.984C149.694 206.256 149.606 206.584 149.606 206.968ZM155.713 210.4V202H156.673V209.284L156.625 210.4H155.713ZM158.701 210.544C158.197 210.544 157.753 210.412 157.369 210.148C156.993 209.884 156.701 209.516 156.493 209.044C156.285 208.564 156.181 208.016 156.181 207.4C156.181 206.776 156.285 206.228 156.493 205.756C156.701 205.284 156.993 204.916 157.369 204.652C157.753 204.388 158.197 204.256 158.701 204.256C159.237 204.256 159.709 204.388 160.117 204.652C160.525 204.916 160.841 205.284 161.065 205.756C161.297 206.228 161.413 206.776 161.413 207.4C161.413 208.016 161.297 208.564 161.065 209.044C160.841 209.516 160.525 209.884 160.117 210.148C159.709 210.412 159.237 210.544 158.701 210.544ZM158.485 209.668C158.861 209.668 159.193 209.572 159.481 209.38C159.777 209.188 160.009 208.92 160.177 208.576C160.353 208.232 160.441 207.84 160.441 207.4C160.441 206.96 160.357 206.568 160.189 206.224C160.029 205.88 159.801 205.612 159.505 205.42C159.209 205.228 158.873 205.132 158.497 205.132C158.145 205.132 157.829 205.228 157.549 205.42C157.277 205.612 157.061 205.88 156.901 206.224C156.749 206.568 156.673 206.96 156.673 207.4C156.673 207.84 156.749 208.232 156.901 208.576C157.061 208.92 157.277 209.188 157.549 209.38C157.821 209.572 158.133 209.668 158.485 209.668Z" fill="white"/>
<path d="M142.512 210.4V202H147.504V202.924H143.532V205.792H147.036V206.716H143.532V210.4H142.512ZM151.55 210.544C150.966 210.544 150.45 210.412 150.002 210.148C149.554 209.876 149.202 209.504 148.946 209.032C148.698 208.56 148.574 208.016 148.574 207.4C148.574 206.784 148.698 206.24 148.946 205.768C149.202 205.296 149.55 204.928 149.99 204.664C150.438 204.392 150.95 204.256 151.526 204.256C152.086 204.256 152.57 204.396 152.978 204.676C153.386 204.948 153.702 205.332 153.926 205.828C154.15 206.324 154.262 206.908 154.262 207.58H149.306L149.546 207.376C149.546 207.856 149.63 208.268 149.798 208.612C149.974 208.956 150.218 209.22 150.53 209.404C150.842 209.58 151.198 209.668 151.598 209.668C152.022 209.668 152.378 209.568 152.666 209.368C152.962 209.168 153.19 208.904 153.35 208.576L154.178 208.996C154.026 209.308 153.822 209.58 153.566 209.812C153.318 210.044 153.022 210.224 152.678 210.352C152.342 210.48 151.966 210.544 151.55 210.544ZM149.606 206.968L149.354 206.776H153.494L153.242 206.98C153.242 206.596 153.166 206.264 153.014 205.984C152.862 205.704 152.658 205.488 152.402 205.336C152.146 205.184 151.85 205.108 151.514 205.108C151.186 205.108 150.874 205.184 150.578 205.336C150.29 205.488 150.054 205.704 149.87 205.984C149.694 206.256 149.606 206.584 149.606 206.968ZM155.713 210.4V202H156.673V209.284L156.625 210.4H155.713ZM158.701 210.544C158.197 210.544 157.753 210.412 157.369 210.148C156.993 209.884 156.701 209.516 156.493 209.044C156.285 208.564 156.181 208.016 156.181 207.4C156.181 206.776 156.285 206.228 156.493 205.756C156.701 205.284 156.993 204.916 157.369 204.652C157.753 204.388 158.197 204.256 158.701 204.256C159.237 204.256 159.709 204.388 160.117 204.652C160.525 204.916 160.841 205.284 161.065 205.756C161.297 206.228 161.413 206.776 161.413 207.4C161.413 208.016 161.297 208.564 161.065 209.044C160.841 209.516 160.525 209.884 160.117 210.148C159.709 210.412 159.237 210.544 158.701 210.544ZM158.485 209.668C158.861 209.668 159.193 209.572 159.481 209.38C159.777 209.188 160.009 208.92 160.177 208.576C160.353 208.232 160.441 207.84 160.441 207.4C160.441 206.96 160.357 206.568 160.189 206.224C160.029 205.88 159.801 205.612 159.505 205.42C159.209 205.228 158.873 205.132 158.497 205.132C158.145 205.132 157.829 205.228 157.549 205.42C157.277 205.612 157.061 205.88 156.901 206.224C156.749 206.568 156.673 206.96 156.673 207.4C156.673 207.84 156.749 208.232 156.901 208.576C157.061 208.92 157.277 209.188 157.549 209.38C157.821 209.572 158.133 209.668 158.485 209.668Z" fill="#8A8A8A"/>
<path d="M202.368 210.4V202H203.424L206.328 206.296L209.232 202H210.276V210.4H209.268V203.632L206.328 208.012L203.388 203.656V210.4H202.368ZM216.176 210.4L216.128 209.416V207.232C216.128 206.76 216.076 206.372 215.972 206.068C215.868 205.756 215.704 205.52 215.48 205.36C215.256 205.2 214.964 205.12 214.604 205.12C214.276 205.12 213.992 205.188 213.752 205.324C213.52 205.452 213.328 205.66 213.176 205.948L212.312 205.612C212.464 205.332 212.648 205.092 212.864 204.892C213.08 204.684 213.332 204.528 213.62 204.424C213.908 204.312 214.236 204.256 214.604 204.256C215.164 204.256 215.624 204.368 215.984 204.592C216.352 204.808 216.628 205.132 216.812 205.564C216.996 205.988 217.084 206.516 217.076 207.148L217.064 210.4H216.176ZM214.376 210.544C213.672 210.544 213.12 210.384 212.72 210.064C212.328 209.736 212.132 209.284 212.132 208.708C212.132 208.1 212.332 207.636 212.732 207.316C213.14 206.988 213.708 206.824 214.436 206.824H216.152V207.628H214.652C214.092 207.628 213.692 207.72 213.452 207.904C213.22 208.088 213.104 208.352 213.104 208.696C213.104 209.008 213.22 209.256 213.452 209.44C213.684 209.616 214.008 209.704 214.424 209.704C214.768 209.704 215.068 209.632 215.324 209.488C215.58 209.336 215.776 209.124 215.912 208.852C216.056 208.572 216.128 208.244 216.128 207.868H216.536C216.536 208.684 216.352 209.336 215.984 209.824C215.616 210.304 215.08 210.544 214.376 210.544ZM219.366 207.148C219.366 206.5 219.49 205.976 219.738 205.576C219.986 205.168 220.302 204.868 220.686 204.676C221.078 204.476 221.49 204.376 221.922 204.376V205.276C221.57 205.276 221.23 205.336 220.902 205.456C220.582 205.568 220.318 205.756 220.11 206.02C219.902 206.284 219.798 206.644 219.798 207.1L219.366 207.148ZM218.838 210.4V204.4H219.798V210.4H218.838Z" fill="white"/>
<path d="M202.368 210.4V202H203.424L206.328 206.296L209.232 202H210.276V210.4H209.268V203.632L206.328 208.012L203.388 203.656V210.4H202.368ZM216.176 210.4L216.128 209.416V207.232C216.128 206.76 216.076 206.372 215.972 206.068C215.868 205.756 215.704 205.52 215.48 205.36C215.256 205.2 214.964 205.12 214.604 205.12C214.276 205.12 213.992 205.188 213.752 205.324C213.52 205.452 213.328 205.66 213.176 205.948L212.312 205.612C212.464 205.332 212.648 205.092 212.864 204.892C213.08 204.684 213.332 204.528 213.62 204.424C213.908 204.312 214.236 204.256 214.604 204.256C215.164 204.256 215.624 204.368 215.984 204.592C216.352 204.808 216.628 205.132 216.812 205.564C216.996 205.988 217.084 206.516 217.076 207.148L217.064 210.4H216.176ZM214.376 210.544C213.672 210.544 213.12 210.384 212.72 210.064C212.328 209.736 212.132 209.284 212.132 208.708C212.132 208.1 212.332 207.636 212.732 207.316C213.14 206.988 213.708 206.824 214.436 206.824H216.152V207.628H214.652C214.092 207.628 213.692 207.72 213.452 207.904C213.22 208.088 213.104 208.352 213.104 208.696C213.104 209.008 213.22 209.256 213.452 209.44C213.684 209.616 214.008 209.704 214.424 209.704C214.768 209.704 215.068 209.632 215.324 209.488C215.58 209.336 215.776 209.124 215.912 208.852C216.056 208.572 216.128 208.244 216.128 207.868H216.536C216.536 208.684 216.352 209.336 215.984 209.824C215.616 210.304 215.08 210.544 214.376 210.544ZM219.366 207.148C219.366 206.5 219.49 205.976 219.738 205.576C219.986 205.168 220.302 204.868 220.686 204.676C221.078 204.476 221.49 204.376 221.922 204.376V205.276C221.57 205.276 221.23 205.336 220.902 205.456C220.582 205.568 220.318 205.756 220.11 206.02C219.902 206.284 219.798 206.644 219.798 207.1L219.366 207.148ZM218.838 210.4V204.4H219.798V210.4H218.838Z" fill="#8A8A8A"/>
<line x1="417.818" y1="78.4727" x2="65.8179" y2="78.4726" stroke="#D7DBED" stroke-linecap="round" stroke-dasharray="4 4"/>
<line x1="417.818" y1="106.473" x2="65.8179" y2="106.473" stroke="#D7DBED" stroke-linecap="round" stroke-dasharray="4 4"/>
<line x1="417.818" y1="133.473" x2="65.8179" y2="133.473" stroke="#D7DBED" stroke-linecap="round" stroke-dasharray="4 4"/>
<line x1="417.818" y1="161.473" x2="65.8179" y2="161.473" stroke="#D7DBED" stroke-linecap="round" stroke-dasharray="4 4"/>
<line x1="417.818" y1="188.473" x2="65.8179" y2="188.473" stroke="#D7DBED" stroke-linecap="round"/>
<rect x="87.0186" y="154.139" width="5.09567" height="34.4745" rx="2.54783" fill="#FD1F9B"/>
<path d="M95 157.001C95 155.42 96.2814 154.139 97.8621 154.139C99.4427 154.139 100.724 155.42 100.724 157.001V185.621C100.724 187.202 99.4427 188.483 97.8621 188.483C96.2814 188.483 95 187.202 95 185.621V157.001Z" fill="#30D987"/>
<path d="M104.54 177.512C104.54 176.195 105.608 175.127 106.925 175.127C108.242 175.127 109.31 176.195 109.31 177.512V186.098C109.31 187.415 108.242 188.483 106.925 188.483C105.608 188.483 104.54 187.415 104.54 186.098V177.512Z" fill="#9563FF"/>
<rect x="77.7339" y="80.6777" width="5.09567" height="107.643" rx="2.54783" fill="#017EFA"/>
<rect x="137.184" y="88.2207" width="5.09567" height="100.101" rx="2.54783" fill="#017EFA"/>
<rect x="196.633" y="88.2207" width="5.09567" height="100.101" rx="2.54783" fill="#017EFA"/>
<rect x="255.232" y="102.619" width="5.09567" height="85.703" rx="2.54783" fill="#017EFA"/>
<rect x="313.833" y="78.6211" width="5.09567" height="109.7" rx="2.54783" fill="#017EFA"/>
<rect x="372.434" y="78.6211" width="5.09567" height="109.7" rx="2.54783" fill="#017EFA"/>
<rect x="263.668" y="166.541" width="5.09567" height="22.0722" rx="2.54783" fill="#FD1F9B"/>
<rect x="280.653" y="171.311" width="5.09567" height="17.8419" rx="2.54783" fill="#9563FF"/>
<rect x="272.161" y="160.816" width="5.09567" height="27.7968" rx="2.54783" fill="#30D987"/>
<rect x="145.563" y="152.23" width="5.72414" height="36.2529" rx="2.86207" fill="#FD1F9B"/>
<rect x="163.453" y="175.127" width="5.09567" height="13.4851" rx="2.54783" fill="#9563FF"/>
<rect x="154.96" y="164.633" width="5.09567" height="23.9783" rx="2.54783" fill="#30D987"/>
<rect x="380.786" y="139.625" width="5.54566" height="48.9866" rx="2.77283" fill="#FD1F9B"/>
<rect x="397.423" y="172.832" width="5.54566" height="15.8046" rx="2.77283" fill="#9563FF"/>
<rect x="389.793" y="151.275" width="4.77011" height="37.2069" rx="2.38506" fill="#30D987"/>
<rect x="204.713" y="166.541" width="4.77011" height="21.9425" rx="2.38506" fill="#FD1F9B"/>
<rect x="221.885" y="181.805" width="5.72414" height="6.67816" rx="2.86207" fill="#9563FF"/>
<rect x="213.561" y="171.311" width="5.09567" height="17.3018" rx="2.54783" fill="#30D987"/>
<rect x="322" y="154" width="5" height="34" rx="2.5" fill="#FD1F9B"/>
<rect x="339.253" y="173.219" width="5.09567" height="15.2795" rx="2.54783" fill="#9563FF"/>
<rect x="330.761" y="147.461" width="5.09567" height="41.038" rx="2.54783" fill="#30D987"/>
<rect x="27.1592" y="241.4" width="8" height="8" rx="4" fill="#017EFA"/>
<path d="M50.5912 250.568C49.6578 250.568 48.8318 250.354 48.1132 249.924C47.3945 249.486 46.8298 248.888 46.4192 248.132C46.0085 247.367 45.8032 246.49 45.8032 245.5C45.8032 244.511 46.0038 243.638 46.4052 242.882C46.8158 242.117 47.3758 241.52 48.0852 241.09C48.8038 240.652 49.6252 240.432 50.5492 240.432C51.1372 240.432 51.7018 240.54 52.2432 240.754C52.7845 240.96 53.2698 241.254 53.6992 241.636C54.1285 242.01 54.4598 242.444 54.6932 242.938L53.6712 243.456C53.4845 243.064 53.2278 242.724 52.9012 242.434C52.5745 242.145 52.2105 241.921 51.8092 241.762C51.4078 241.594 50.9878 241.51 50.5492 241.51C49.8678 241.51 49.2565 241.683 48.7152 242.028C48.1738 242.364 47.7492 242.831 47.4412 243.428C47.1425 244.026 46.9932 244.716 46.9932 245.5C46.9932 246.284 47.1472 246.98 47.4552 247.586C47.7632 248.193 48.1878 248.669 48.7292 249.014C49.2798 249.35 49.9005 249.518 50.5912 249.518C51.0392 249.518 51.4638 249.43 51.8652 249.252C52.2665 249.066 52.6258 248.814 52.9432 248.496C53.2698 248.179 53.5265 247.815 53.7132 247.404L54.7492 247.922C54.5065 248.436 54.1705 248.893 53.7412 249.294C53.3212 249.696 52.8358 250.008 52.2852 250.232C51.7438 250.456 51.1792 250.568 50.5912 250.568ZM60.681 250.4L60.625 249.252V246.704C60.625 246.154 60.5644 245.701 60.443 245.346C60.3217 244.982 60.1304 244.707 59.869 244.52C59.6077 244.334 59.267 244.24 58.847 244.24C58.4644 244.24 58.133 244.32 57.853 244.478C57.5824 244.628 57.3584 244.87 57.181 245.206L56.173 244.814C56.3504 244.488 56.565 244.208 56.817 243.974C57.069 243.732 57.363 243.55 57.699 243.428C58.035 243.298 58.4177 243.232 58.847 243.232C59.5004 243.232 60.037 243.363 60.457 243.624C60.8864 243.876 61.2084 244.254 61.423 244.758C61.6377 245.253 61.7404 245.869 61.731 246.606L61.717 250.4H60.681ZM58.581 250.568C57.7597 250.568 57.1157 250.382 56.649 250.008C56.1917 249.626 55.963 249.098 55.963 248.426C55.963 247.717 56.1964 247.176 56.663 246.802C57.139 246.42 57.8017 246.228 58.651 246.228H60.653V247.166H58.903C58.2497 247.166 57.783 247.274 57.503 247.488C57.2324 247.703 57.097 248.011 57.097 248.412C57.097 248.776 57.2324 249.066 57.503 249.28C57.7737 249.486 58.1517 249.588 58.637 249.588C59.0384 249.588 59.3884 249.504 59.687 249.336C59.9857 249.159 60.2144 248.912 60.373 248.594C60.541 248.268 60.625 247.885 60.625 247.446H61.101C61.101 248.398 60.8864 249.159 60.457 249.728C60.0277 250.288 59.4024 250.568 58.581 250.568ZM66.0957 250.568C65.5824 250.568 65.1344 250.494 64.7517 250.344C64.3691 250.186 64.0471 249.98 63.7857 249.728C63.5337 249.476 63.3517 249.201 63.2397 248.902L64.2197 248.496C64.3784 248.814 64.6164 249.07 64.9337 249.266C65.2511 249.462 65.6011 249.56 65.9837 249.56C66.4224 249.56 66.7911 249.476 67.0897 249.308C67.3884 249.131 67.5377 248.884 67.5377 248.566C67.5377 248.277 67.4257 248.044 67.2017 247.866C66.9871 247.689 66.6651 247.544 66.2357 247.432L65.5637 247.25C64.9291 247.082 64.4344 246.83 64.0797 246.494C63.7251 246.149 63.5477 245.762 63.5477 245.332C63.5477 244.67 63.7624 244.156 64.1917 243.792C64.6304 243.419 65.2791 243.232 66.1377 243.232C66.5484 243.232 66.9217 243.293 67.2577 243.414C67.5937 243.536 67.8831 243.708 68.1257 243.932C68.3684 244.147 68.5457 244.404 68.6577 244.702L67.6777 245.136C67.5564 244.819 67.3557 244.59 67.0757 244.45C66.7957 244.31 66.4551 244.24 66.0537 244.24C65.6244 244.24 65.2884 244.334 65.0457 244.52C64.8031 244.698 64.6817 244.95 64.6817 245.276C64.6817 245.463 64.7797 245.64 64.9757 245.808C65.1811 245.967 65.4797 246.098 65.8717 246.2L66.5717 246.382C67.0291 246.494 67.4117 246.662 67.7197 246.886C68.0277 247.101 68.2611 247.348 68.4197 247.628C68.5784 247.908 68.6577 248.207 68.6577 248.524C68.6577 248.944 68.5457 249.308 68.3217 249.616C68.0977 249.924 67.7944 250.162 67.4117 250.33C67.0291 250.489 66.5904 250.568 66.0957 250.568ZM70.3072 250.4V240.6H71.4272V250.4H70.3072ZM75.2352 250.4V246.816H76.3552V250.4H75.2352ZM75.2352 246.816C75.2352 246.126 75.1512 245.598 74.9832 245.234C74.8246 244.87 74.6052 244.623 74.3252 244.492C74.0452 244.352 73.7279 244.282 73.3732 244.282C72.7572 244.282 72.2766 244.502 71.9312 244.94C71.5952 245.37 71.4272 245.981 71.4272 246.774H70.8812C70.8812 246.037 70.9886 245.402 71.2032 244.87C71.4272 244.338 71.7446 243.932 72.1552 243.652C72.5659 243.372 73.0606 243.232 73.6392 243.232C74.1806 243.232 74.6566 243.344 75.0672 243.568C75.4779 243.783 75.7952 244.128 76.0192 244.604C76.2526 245.08 76.3646 245.706 76.3552 246.48V246.816H75.2352ZM81.8529 250.4V240.6H82.9729V250.4H81.8529ZM88.163 250.568C87.4817 250.568 86.875 250.414 86.343 250.106C85.8204 249.789 85.4097 249.355 85.111 248.804C84.8124 248.254 84.663 247.619 84.663 246.9C84.663 246.182 84.8077 245.547 85.097 244.996C85.3957 244.446 85.8064 244.016 86.329 243.708C86.861 243.391 87.463 243.232 88.135 243.232C88.8257 243.232 89.4324 243.391 89.955 243.708C90.487 244.016 90.8977 244.446 91.187 244.996C91.4857 245.547 91.635 246.182 91.635 246.9C91.635 247.619 91.4857 248.254 91.187 248.804C90.8977 249.355 90.4917 249.789 89.969 250.106C89.4464 250.414 88.8444 250.568 88.163 250.568ZM88.163 249.532C88.6297 249.532 89.0357 249.42 89.381 249.196C89.7264 248.972 89.997 248.664 90.193 248.272C90.3984 247.88 90.501 247.423 90.501 246.9C90.501 246.378 90.3984 245.92 90.193 245.528C89.997 245.136 89.7217 244.828 89.367 244.604C89.0124 244.38 88.6017 244.268 88.135 244.268C87.6777 244.268 87.2717 244.38 86.917 244.604C86.5717 244.828 86.2964 245.136 86.091 245.528C85.895 245.92 85.797 246.378 85.797 246.9C85.797 247.414 85.895 247.871 86.091 248.272C86.2964 248.664 86.5764 248.972 86.931 249.196C87.295 249.42 87.7057 249.532 88.163 249.532ZM97.6421 250.4L97.5861 249.252V246.704C97.5861 246.154 97.5255 245.701 97.4041 245.346C97.2828 244.982 97.0915 244.707 96.8301 244.52C96.5688 244.334 96.2281 244.24 95.8081 244.24C95.4255 244.24 95.0941 244.32 94.8141 244.478C94.5435 244.628 94.3195 244.87 94.1421 245.206L93.1341 244.814C93.3115 244.488 93.5261 244.208 93.7781 243.974C94.0301 243.732 94.3241 243.55 94.6601 243.428C94.9961 243.298 95.3788 243.232 95.8081 243.232C96.4615 243.232 96.9981 243.363 97.4181 243.624C97.8475 243.876 98.1695 244.254 98.3841 244.758C98.5988 245.253 98.7015 245.869 98.6921 246.606L98.6781 250.4H97.6421ZM95.5421 250.568C94.7208 250.568 94.0768 250.382 93.6101 250.008C93.1528 249.626 92.9241 249.098 92.9241 248.426C92.9241 247.717 93.1575 247.176 93.6241 246.802C94.1001 246.42 94.7628 246.228 95.6121 246.228H97.6141V247.166H95.8641C95.2108 247.166 94.7441 247.274 94.4641 247.488C94.1935 247.703 94.0581 248.011 94.0581 248.412C94.0581 248.776 94.1935 249.066 94.4641 249.28C94.7348 249.486 95.1128 249.588 95.5981 249.588C95.9995 249.588 96.3495 249.504 96.6481 249.336C96.9468 249.159 97.1755 248.912 97.3341 248.594C97.5021 248.268 97.5861 247.885 97.5861 247.446H98.0621C98.0621 248.398 97.8475 249.159 97.4181 249.728C96.9888 250.288 96.3635 250.568 95.5421 250.568ZM100.607 250.4V243.4H101.657L101.727 244.688V250.4H100.607ZM105.521 250.4V246.816H106.641V250.4H105.521ZM105.521 246.816C105.521 246.126 105.442 245.598 105.283 245.234C105.124 244.87 104.905 244.623 104.625 244.492C104.345 244.352 104.028 244.282 103.673 244.282C103.057 244.282 102.576 244.502 102.231 244.94C101.895 245.37 101.727 245.981 101.727 246.774H101.181C101.181 246.037 101.288 245.402 101.503 244.87C101.718 244.338 102.03 243.932 102.441 243.652C102.852 243.372 103.346 243.232 103.925 243.232C104.476 243.232 104.952 243.344 105.353 243.568C105.764 243.783 106.081 244.128 106.305 244.604C106.538 245.08 106.65 245.706 106.641 246.48V246.816H105.521Z" fill="#525256"/>
<rect x="128.159" y="241.4" width="8" height="8" rx="4" fill="#FD1F9B"/>
<path d="M151.591 250.568C150.658 250.568 149.832 250.354 149.113 249.924C148.395 249.486 147.83 248.888 147.419 248.132C147.009 247.367 146.803 246.49 146.803 245.5C146.803 244.511 147.004 243.638 147.405 242.882C147.816 242.117 148.376 241.52 149.085 241.09C149.804 240.652 150.625 240.432 151.549 240.432C152.137 240.432 152.702 240.54 153.243 240.754C153.785 240.96 154.27 241.254 154.699 241.636C155.129 242.01 155.46 242.444 155.693 242.938L154.671 243.456C154.485 243.064 154.228 242.724 153.901 242.434C153.575 242.145 153.211 241.921 152.809 241.762C152.408 241.594 151.988 241.51 151.549 241.51C150.868 241.51 150.257 241.683 149.715 242.028C149.174 242.364 148.749 242.831 148.441 243.428C148.143 244.026 147.993 244.716 147.993 245.5C147.993 246.284 148.147 246.98 148.455 247.586C148.763 248.193 149.188 248.669 149.729 249.014C150.28 249.35 150.901 249.518 151.591 249.518C152.039 249.518 152.464 249.43 152.865 249.252C153.267 249.066 153.626 248.814 153.943 248.496C154.27 248.179 154.527 247.815 154.713 247.404L155.749 247.922C155.507 248.436 155.171 248.893 154.741 249.294C154.321 249.696 153.836 250.008 153.285 250.232C152.744 250.456 152.179 250.568 151.591 250.568ZM161.681 250.4L161.625 249.252V246.704C161.625 246.154 161.564 245.701 161.443 245.346C161.322 244.982 161.13 244.707 160.869 244.52C160.608 244.334 160.267 244.24 159.847 244.24C159.464 244.24 159.133 244.32 158.853 244.478C158.582 244.628 158.358 244.87 158.181 245.206L157.173 244.814C157.35 244.488 157.565 244.208 157.817 243.974C158.069 243.732 158.363 243.55 158.699 243.428C159.035 243.298 159.418 243.232 159.847 243.232C160.5 243.232 161.037 243.363 161.457 243.624C161.886 243.876 162.208 244.254 162.423 244.758C162.638 245.253 162.74 245.869 162.731 246.606L162.717 250.4H161.681ZM159.581 250.568C158.76 250.568 158.116 250.382 157.649 250.008C157.192 249.626 156.963 249.098 156.963 248.426C156.963 247.717 157.196 247.176 157.663 246.802C158.139 246.42 158.802 246.228 159.651 246.228H161.653V247.166H159.903C159.25 247.166 158.783 247.274 158.503 247.488C158.232 247.703 158.097 248.011 158.097 248.412C158.097 248.776 158.232 249.066 158.503 249.28C158.774 249.486 159.152 249.588 159.637 249.588C160.038 249.588 160.388 249.504 160.687 249.336C160.986 249.159 161.214 248.912 161.373 248.594C161.541 248.268 161.625 247.885 161.625 247.446H162.101C162.101 248.398 161.886 249.159 161.457 249.728C161.028 250.288 160.402 250.568 159.581 250.568ZM167.096 250.568C166.582 250.568 166.134 250.494 165.752 250.344C165.369 250.186 165.047 249.98 164.786 249.728C164.534 249.476 164.352 249.201 164.24 248.902L165.22 248.496C165.378 248.814 165.616 249.07 165.934 249.266C166.251 249.462 166.601 249.56 166.984 249.56C167.422 249.56 167.791 249.476 168.09 249.308C168.388 249.131 168.538 248.884 168.538 248.566C168.538 248.277 168.426 248.044 168.202 247.866C167.987 247.689 167.665 247.544 167.236 247.432L166.564 247.25C165.929 247.082 165.434 246.83 165.08 246.494C164.725 246.149 164.548 245.762 164.548 245.332C164.548 244.67 164.762 244.156 165.192 243.792C165.63 243.419 166.279 243.232 167.138 243.232C167.548 243.232 167.922 243.293 168.258 243.414C168.594 243.536 168.883 243.708 169.126 243.932C169.368 244.147 169.546 244.404 169.658 244.702L168.678 245.136C168.556 244.819 168.356 244.59 168.076 244.45C167.796 244.31 167.455 244.24 167.054 244.24C166.624 244.24 166.288 244.334 166.046 244.52C165.803 244.698 165.682 244.95 165.682 245.276C165.682 245.463 165.78 245.64 165.976 245.808C166.181 245.967 166.48 246.098 166.872 246.2L167.572 246.382C168.029 246.494 168.412 246.662 168.72 246.886C169.028 247.101 169.261 247.348 169.42 247.628C169.578 247.908 169.658 248.207 169.658 248.524C169.658 248.944 169.546 249.308 169.322 249.616C169.098 249.924 168.794 250.162 168.412 250.33C168.029 250.489 167.59 250.568 167.096 250.568ZM171.307 250.4V240.6H172.427V250.4H171.307ZM176.235 250.4V246.816H177.355V250.4H176.235ZM176.235 246.816C176.235 246.126 176.151 245.598 175.983 245.234C175.825 244.87 175.605 244.623 175.325 244.492C175.045 244.352 174.728 244.282 174.373 244.282C173.757 244.282 173.277 244.502 172.931 244.94C172.595 245.37 172.427 245.981 172.427 246.774H171.881C171.881 246.037 171.989 245.402 172.203 244.87C172.427 244.338 172.745 243.932 173.155 243.652C173.566 243.372 174.061 243.232 174.639 243.232C175.181 243.232 175.657 243.344 176.067 243.568C176.478 243.783 176.795 244.128 177.019 244.604C177.253 245.08 177.365 245.706 177.355 246.48V246.816H176.235ZM183.175 250.4V240.6H186.269C186.941 240.6 187.515 240.703 187.991 240.908C188.467 241.114 188.836 241.417 189.097 241.818C189.358 242.21 189.489 242.691 189.489 243.26C189.489 243.736 189.382 244.156 189.167 244.52C188.952 244.875 188.649 245.164 188.257 245.388C188.742 245.622 189.116 245.934 189.377 246.326C189.648 246.718 189.783 247.185 189.783 247.726C189.783 248.296 189.657 248.781 189.405 249.182C189.153 249.574 188.794 249.878 188.327 250.092C187.87 250.298 187.319 250.4 186.675 250.4H183.175ZM184.351 249.336H186.619C187.235 249.336 187.716 249.192 188.061 248.902C188.416 248.604 188.593 248.198 188.593 247.684C188.593 247.134 188.392 246.704 187.991 246.396C187.59 246.079 187.03 245.92 186.311 245.92H184.351V249.336ZM184.351 244.898H186.563C187.104 244.898 187.529 244.754 187.837 244.464C188.145 244.175 188.299 243.774 188.299 243.26C188.299 242.728 188.117 242.322 187.753 242.042C187.398 241.753 186.894 241.608 186.241 241.608H184.351V244.898ZM195.863 250.4L195.807 249.252V246.704C195.807 246.154 195.747 245.701 195.625 245.346C195.504 244.982 195.313 244.707 195.051 244.52C194.79 244.334 194.449 244.24 194.029 244.24C193.647 244.24 193.315 244.32 193.035 244.478C192.765 244.628 192.541 244.87 192.363 245.206L191.355 244.814C191.533 244.488 191.747 244.208 191.999 243.974C192.251 243.732 192.545 243.55 192.881 243.428C193.217 243.298 193.6 243.232 194.029 243.232C194.683 243.232 195.219 243.363 195.639 243.624C196.069 243.876 196.391 244.254 196.605 244.758C196.82 245.253 196.923 245.869 196.913 246.606L196.899 250.4H195.863ZM193.763 250.568C192.942 250.568 192.298 250.382 191.831 250.008C191.374 249.626 191.145 249.098 191.145 248.426C191.145 247.717 191.379 247.176 191.845 246.802C192.321 246.42 192.984 246.228 193.833 246.228H195.835V247.166H194.085C193.432 247.166 192.965 247.274 192.685 247.488C192.415 247.703 192.279 248.011 192.279 248.412C192.279 248.776 192.415 249.066 192.685 249.28C192.956 249.486 193.334 249.588 193.819 249.588C194.221 249.588 194.571 249.504 194.869 249.336C195.168 249.159 195.397 248.912 195.555 248.594C195.723 248.268 195.807 247.885 195.807 247.446H196.283C196.283 248.398 196.069 249.159 195.639 249.728C195.21 250.288 194.585 250.568 193.763 250.568ZM201.95 250.568C201.259 250.568 200.648 250.414 200.116 250.106C199.584 249.789 199.169 249.355 198.87 248.804C198.571 248.254 198.422 247.619 198.422 246.9C198.422 246.182 198.567 245.547 198.856 244.996C199.155 244.446 199.57 244.016 200.102 243.708C200.634 243.391 201.241 243.232 201.922 243.232C202.594 243.232 203.196 243.386 203.728 243.694C204.26 244.002 204.666 244.436 204.946 244.996L203.924 245.458C203.737 245.085 203.467 244.796 203.112 244.59C202.757 244.376 202.351 244.268 201.894 244.268C201.437 244.268 201.031 244.38 200.676 244.604C200.331 244.828 200.055 245.141 199.85 245.542C199.654 245.934 199.556 246.387 199.556 246.9C199.556 247.414 199.654 247.871 199.85 248.272C200.055 248.664 200.335 248.972 200.69 249.196C201.054 249.42 201.465 249.532 201.922 249.532C202.379 249.532 202.785 249.416 203.14 249.182C203.504 248.949 203.779 248.622 203.966 248.202L204.988 248.664C204.708 249.262 204.302 249.728 203.77 250.064C203.238 250.4 202.631 250.568 201.95 250.568ZM207.634 248.146L206.92 247.376L210.644 243.4H212.058L207.634 248.146ZM206.542 250.4V240.6H207.662V250.4H206.542ZM210.952 250.4L208.292 246.382L209.02 245.598L212.338 250.4H210.952Z" fill="#525256"/>
<rect x="233.159" y="241.4" width="8" height="8" rx="4" fill="#30D987"/>
<path d="M256.633 250.568C255.691 250.568 254.855 250.354 254.127 249.924C253.399 249.495 252.83 248.898 252.419 248.132C252.009 247.367 251.803 246.49 251.803 245.5C251.803 244.502 252.004 243.624 252.405 242.868C252.816 242.103 253.381 241.506 254.099 241.076C254.818 240.647 255.649 240.432 256.591 240.432C257.534 240.432 258.365 240.652 259.083 241.09C259.811 241.52 260.376 242.117 260.777 242.882C261.179 243.638 261.379 244.511 261.379 245.5C261.379 246.49 261.179 247.367 260.777 248.132C260.376 248.898 259.816 249.495 259.097 249.924C258.388 250.354 257.567 250.568 256.633 250.568ZM256.633 249.49C257.333 249.49 257.949 249.322 258.481 248.986C259.013 248.641 259.429 248.17 259.727 247.572C260.035 246.975 260.189 246.284 260.189 245.5C260.189 244.726 260.035 244.04 259.727 243.442C259.419 242.836 258.995 242.364 258.453 242.028C257.921 241.683 257.301 241.51 256.591 241.51C255.891 241.51 255.271 241.683 254.729 242.028C254.188 242.364 253.763 242.836 253.455 243.442C253.147 244.04 252.993 244.726 252.993 245.5C252.993 246.284 253.147 246.975 253.455 247.572C253.763 248.17 254.193 248.641 254.743 248.986C255.294 249.322 255.924 249.49 256.633 249.49ZM263.148 250.4V243.4H264.198L264.268 244.688V250.4H263.148ZM268.062 250.4V246.816H269.182V250.4H268.062ZM268.062 246.816C268.062 246.126 267.983 245.598 267.824 245.234C267.666 244.87 267.446 244.623 267.166 244.492C266.886 244.352 266.569 244.282 266.214 244.282C265.598 244.282 265.118 244.502 264.772 244.94C264.436 245.37 264.268 245.981 264.268 246.774H263.722C263.722 246.037 263.83 245.402 264.044 244.87C264.259 244.338 264.572 243.932 264.982 243.652C265.393 243.372 265.888 243.232 266.466 243.232C267.017 243.232 267.493 243.344 267.894 243.568C268.305 243.783 268.622 244.128 268.846 244.604C269.08 245.08 269.192 245.706 269.182 246.48V246.816H268.062ZM271.095 250.4V240.6H272.215V250.4H271.095ZM274.381 250.4V243.4H275.501V250.4H274.381ZM274.955 241.776C274.768 241.776 274.605 241.706 274.465 241.566C274.325 241.426 274.255 241.263 274.255 241.076C274.255 240.88 274.325 240.717 274.465 240.586C274.605 240.446 274.768 240.376 274.955 240.376C275.151 240.376 275.314 240.446 275.445 240.586C275.585 240.717 275.655 240.88 275.655 241.076C275.655 241.263 275.585 241.426 275.445 241.566C275.314 241.706 275.151 241.776 274.955 241.776ZM277.705 250.4V243.4H278.755L278.825 244.688V250.4H277.705ZM282.619 250.4V246.816H283.739V250.4H282.619ZM282.619 246.816C282.619 246.126 282.54 245.598 282.381 245.234C282.222 244.87 282.003 244.623 281.723 244.492C281.443 244.352 281.126 244.282 280.771 244.282C280.155 244.282 279.674 244.502 279.329 244.94C278.993 245.37 278.825 245.981 278.825 246.774H278.279C278.279 246.037 278.386 245.402 278.601 244.87C278.816 244.338 279.128 243.932 279.539 243.652C279.95 243.372 280.444 243.232 281.023 243.232C281.574 243.232 282.05 243.344 282.451 243.568C282.862 243.783 283.179 244.128 283.403 244.604C283.636 245.08 283.748 245.706 283.739 246.48V246.816H282.619ZM288.718 250.568C288.036 250.568 287.434 250.414 286.912 250.106C286.389 249.789 285.978 249.355 285.68 248.804C285.39 248.254 285.246 247.619 285.246 246.9C285.246 246.182 285.39 245.547 285.68 244.996C285.978 244.446 286.384 244.016 286.898 243.708C287.42 243.391 288.018 243.232 288.69 243.232C289.343 243.232 289.908 243.396 290.384 243.722C290.86 244.04 291.228 244.488 291.49 245.066C291.751 245.645 291.882 246.326 291.882 247.11H286.1L286.38 246.872C286.38 247.432 286.478 247.913 286.674 248.314C286.879 248.716 287.164 249.024 287.528 249.238C287.892 249.444 288.307 249.546 288.774 249.546C289.268 249.546 289.684 249.43 290.02 249.196C290.365 248.963 290.631 248.655 290.818 248.272L291.784 248.762C291.606 249.126 291.368 249.444 291.07 249.714C290.78 249.985 290.435 250.195 290.034 250.344C289.642 250.494 289.203 250.568 288.718 250.568ZM286.45 246.396L286.156 246.172H290.986L290.692 246.41C290.692 245.962 290.603 245.575 290.426 245.248C290.248 244.922 290.01 244.67 289.712 244.492C289.413 244.315 289.068 244.226 288.676 244.226C288.293 244.226 287.929 244.315 287.584 244.492C287.248 244.67 286.972 244.922 286.758 245.248C286.552 245.566 286.45 245.948 286.45 246.396ZM297.033 250.4V240.6H298.153V250.4H297.033ZM303.343 250.568C302.662 250.568 302.055 250.414 301.523 250.106C301.001 249.789 300.59 249.355 300.291 248.804C299.993 248.254 299.843 247.619 299.843 246.9C299.843 246.182 299.988 245.547 300.277 244.996C300.576 244.446 300.987 244.016 301.509 243.708C302.041 243.391 302.643 243.232 303.315 243.232C304.006 243.232 304.613 243.391 305.135 243.708C305.667 244.016 306.078 244.446 306.367 244.996C306.666 245.547 306.815 246.182 306.815 246.9C306.815 247.619 306.666 248.254 306.367 248.804C306.078 249.355 305.672 249.789 305.149 250.106C304.627 250.414 304.025 250.568 303.343 250.568ZM303.343 249.532C303.81 249.532 304.216 249.42 304.561 249.196C304.907 248.972 305.177 248.664 305.373 248.272C305.579 247.88 305.681 247.423 305.681 246.9C305.681 246.378 305.579 245.92 305.373 245.528C305.177 245.136 304.902 244.828 304.547 244.604C304.193 244.38 303.782 244.268 303.315 244.268C302.858 244.268 302.452 244.38 302.097 244.604C301.752 244.828 301.477 245.136 301.271 245.528C301.075 245.92 300.977 246.378 300.977 246.9C300.977 247.414 301.075 247.871 301.271 248.272C301.477 248.664 301.757 248.972 302.111 249.196C302.475 249.42 302.886 249.532 303.343 249.532ZM312.823 250.4L312.767 249.252V246.704C312.767 246.154 312.706 245.701 312.585 245.346C312.463 244.982 312.272 244.707 312.011 244.52C311.749 244.334 311.409 244.24 310.989 244.24C310.606 244.24 310.275 244.32 309.995 244.478C309.724 244.628 309.5 244.87 309.323 245.206L308.315 244.814C308.492 244.488 308.707 244.208 308.959 243.974C309.211 243.732 309.505 243.55 309.841 243.428C310.177 243.298 310.559 243.232 310.989 243.232C311.642 243.232 312.179 243.363 312.599 243.624C313.028 243.876 313.35 244.254 313.565 244.758C313.779 245.253 313.882 245.869 313.873 246.606L313.859 250.4H312.823ZM310.723 250.568C309.901 250.568 309.257 250.382 308.791 250.008C308.333 249.626 308.105 249.098 308.105 248.426C308.105 247.717 308.338 247.176 308.805 246.802C309.281 246.42 309.943 246.228 310.793 246.228H312.795V247.166H311.045C310.391 247.166 309.925 247.274 309.645 247.488C309.374 247.703 309.239 248.011 309.239 248.412C309.239 248.776 309.374 249.066 309.645 249.28C309.915 249.486 310.293 249.588 310.779 249.588C311.18 249.588 311.53 249.504 311.829 249.336C312.127 249.159 312.356 248.912 312.515 248.594C312.683 248.268 312.767 247.885 312.767 247.446H313.243C313.243 248.398 313.028 249.159 312.599 249.728C312.169 250.288 311.544 250.568 310.723 250.568ZM315.787 250.4V243.4H316.837L316.907 244.688V250.4H315.787ZM320.701 250.4V246.816H321.821V250.4H320.701ZM320.701 246.816C320.701 246.126 320.622 245.598 320.463 245.234C320.305 244.87 320.085 244.623 319.805 244.492C319.525 244.352 319.208 244.282 318.853 244.282C318.237 244.282 317.757 244.502 317.411 244.94C317.075 245.37 316.907 245.981 316.907 246.774H316.361C316.361 246.037 316.469 245.402 316.683 244.87C316.898 244.338 317.211 243.932 317.621 243.652C318.032 243.372 318.527 243.232 319.105 243.232C319.656 243.232 320.132 243.344 320.533 243.568C320.944 243.783 321.261 244.128 321.485 244.604C321.719 245.08 321.831 245.706 321.821 246.48V246.816H320.701Z" fill="#525256"/>
<rect x="343.159" y="241.4" width="8" height="8" rx="4" fill="#9563FF"/>
<path d="M364.435 250.4V241.678H361.313V240.6H368.733V241.678H365.611V250.4H364.435ZM372.236 250.568C371.555 250.568 370.948 250.414 370.416 250.106C369.894 249.789 369.483 249.355 369.184 248.804C368.886 248.254 368.736 247.619 368.736 246.9C368.736 246.182 368.881 245.547 369.17 244.996C369.469 244.446 369.88 244.016 370.402 243.708C370.934 243.391 371.536 243.232 372.208 243.232C372.899 243.232 373.506 243.391 374.028 243.708C374.56 244.016 374.971 244.446 375.26 244.996C375.559 245.547 375.708 246.182 375.708 246.9C375.708 247.619 375.559 248.254 375.26 248.804C374.971 249.355 374.565 249.789 374.042 250.106C373.52 250.414 372.918 250.568 372.236 250.568ZM372.236 249.532C372.703 249.532 373.109 249.42 373.454 249.196C373.8 248.972 374.07 248.664 374.266 248.272C374.472 247.88 374.574 247.423 374.574 246.9C374.574 246.378 374.472 245.92 374.266 245.528C374.07 245.136 373.795 244.828 373.44 244.604C373.086 244.38 372.675 244.268 372.208 244.268C371.751 244.268 371.345 244.38 370.99 244.604C370.645 244.828 370.37 245.136 370.164 245.528C369.968 245.92 369.87 246.378 369.87 246.9C369.87 247.414 369.968 247.871 370.164 248.272C370.37 248.664 370.65 248.972 371.004 249.196C371.368 249.42 371.779 249.532 372.236 249.532ZM377.474 253.2V243.4H378.524L378.594 244.688V253.2H377.474ZM380.96 250.568C380.372 250.568 379.854 250.414 379.406 250.106C378.967 249.798 378.626 249.369 378.384 248.818C378.141 248.258 378.02 247.619 378.02 246.9C378.02 246.172 378.141 245.533 378.384 244.982C378.626 244.432 378.967 244.002 379.406 243.694C379.854 243.386 380.372 243.232 380.96 243.232C381.585 243.232 382.136 243.386 382.612 243.694C383.088 244.002 383.456 244.432 383.718 244.982C383.988 245.533 384.124 246.172 384.124 246.9C384.124 247.619 383.988 248.258 383.718 248.818C383.456 249.369 383.088 249.798 382.612 250.106C382.136 250.414 381.585 250.568 380.96 250.568ZM380.708 249.546C381.146 249.546 381.534 249.434 381.87 249.21C382.215 248.986 382.486 248.674 382.682 248.272C382.887 247.871 382.99 247.414 382.99 246.9C382.99 246.387 382.892 245.93 382.696 245.528C382.509 245.127 382.243 244.814 381.898 244.59C381.552 244.366 381.16 244.254 380.722 244.254C380.311 244.254 379.942 244.366 379.616 244.59C379.298 244.814 379.046 245.127 378.86 245.528C378.682 245.93 378.594 246.387 378.594 246.9C378.594 247.414 378.682 247.871 378.86 248.272C379.046 248.674 379.298 248.986 379.616 249.21C379.933 249.434 380.297 249.546 380.708 249.546ZM389.414 250.4V240.6H390.534V250.4H389.414ZM395.724 250.568C395.043 250.568 394.436 250.414 393.904 250.106C393.382 249.789 392.971 249.355 392.672 248.804C392.374 248.254 392.224 247.619 392.224 246.9C392.224 246.182 392.369 245.547 392.658 244.996C392.957 244.446 393.368 244.016 393.89 243.708C394.422 243.391 395.024 243.232 395.696 243.232C396.387 243.232 396.994 243.391 397.516 243.708C398.048 244.016 398.459 244.446 398.748 244.996C399.047 245.547 399.196 246.182 399.196 246.9C399.196 247.619 399.047 248.254 398.748 248.804C398.459 249.355 398.053 249.789 397.53 250.106C397.008 250.414 396.406 250.568 395.724 250.568ZM395.724 249.532C396.191 249.532 396.597 249.42 396.942 249.196C397.288 248.972 397.558 248.664 397.754 248.272C397.96 247.88 398.062 247.423 398.062 246.9C398.062 246.378 397.96 245.92 397.754 245.528C397.558 245.136 397.283 244.828 396.928 244.604C396.574 244.38 396.163 244.268 395.696 244.268C395.239 244.268 394.833 244.38 394.478 244.604C394.133 244.828 393.858 245.136 393.652 245.528C393.456 245.92 393.358 246.378 393.358 246.9C393.358 247.414 393.456 247.871 393.652 248.272C393.858 248.664 394.138 248.972 394.492 249.196C394.856 249.42 395.267 249.532 395.724 249.532ZM405.203 250.4L405.147 249.252V246.704C405.147 246.154 405.087 245.701 404.965 245.346C404.844 244.982 404.653 244.707 404.391 244.52C404.13 244.334 403.789 244.24 403.369 244.24C402.987 244.24 402.655 244.32 402.375 244.478C402.105 244.628 401.881 244.87 401.703 245.206L400.695 244.814C400.873 244.488 401.087 244.208 401.339 243.974C401.591 243.732 401.885 243.55 402.221 243.428C402.557 243.298 402.94 243.232 403.369 243.232C404.023 243.232 404.559 243.363 404.979 243.624C405.409 243.876 405.731 244.254 405.945 244.758C406.16 245.253 406.263 245.869 406.253 246.606L406.239 250.4H405.203ZM403.103 250.568C402.282 250.568 401.638 250.382 401.171 250.008C400.714 249.626 400.485 249.098 400.485 248.426C400.485 247.717 400.719 247.176 401.185 246.802C401.661 246.42 402.324 246.228 403.173 246.228H405.175V247.166H403.425C402.772 247.166 402.305 247.274 402.025 247.488C401.755 247.703 401.619 248.011 401.619 248.412C401.619 248.776 401.755 249.066 402.025 249.28C402.296 249.486 402.674 249.588 403.159 249.588C403.561 249.588 403.911 249.504 404.209 249.336C404.508 249.159 404.737 248.912 404.895 248.594C405.063 248.268 405.147 247.885 405.147 247.446H405.623C405.623 248.398 405.409 249.159 404.979 249.728C404.55 250.288 403.925 250.568 403.103 250.568ZM408.168 250.4V243.4H409.218L409.288 244.688V250.4H408.168ZM413.082 250.4V246.816H414.202V250.4H413.082ZM413.082 246.816C413.082 246.126 413.003 245.598 412.844 245.234C412.685 244.87 412.466 244.623 412.186 244.492C411.906 244.352 411.589 244.282 411.234 244.282C410.618 244.282 410.137 244.502 409.792 244.94C409.456 245.37 409.288 245.981 409.288 246.774H408.742C408.742 246.037 408.849 245.402 409.064 244.87C409.279 244.338 409.591 243.932 410.002 243.652C410.413 243.372 410.907 243.232 411.486 243.232C412.037 243.232 412.513 243.344 412.914 243.568C413.325 243.783 413.642 244.128 413.866 244.604C414.099 245.08 414.211 245.706 414.202 246.48V246.816H413.082Z" fill="#525256"/>
</svg>
