<svg width="440" height="501" viewBox="0 0 440 501" fill="none" xmlns="http://www.w3.org/2000/svg">
<g clip-path="url(#clip0_2105_1038)">
<path d="M439.487 499.695L0.822269 250.043L309.962 74.0714L309.962 216.774L251.564 250.108L439.487 357.431L439.487 499.695Z" stroke="#C2C6D8" stroke-miterlimit="10"/>
<path d="M435.415 492.707L9.03125 250.043L305.891 81.0595L305.891 214.42L243.372 250.108L435.415 359.785L435.415 492.707Z" stroke="#C2C6D8" stroke-miterlimit="10"/>
<path d="M431.343 485.711L17.2402 250.043L301.819 88.048L301.819 212.067L235.18 250.108L431.343 362.139L431.343 485.711Z" stroke="#C2C6D8" stroke-miterlimit="10"/>
<path d="M427.272 478.723L25.457 250.043L297.747 95.0443L297.747 209.713L226.995 250.108L427.272 364.484L427.272 478.723Z" stroke="#C2C6D8" stroke-miterlimit="10"/>
<path d="M423.2 471.734L33.6655 250.043L293.675 102.032L293.675 207.359L218.803 250.108L423.2 366.838L423.2 471.734Z" stroke="#C2C6D8" stroke-miterlimit="10"/>
<path d="M419.128 464.746L41.8745 250.043L289.604 109.029L289.604 205.005L210.61 250.108L419.128 369.192L419.128 464.746Z" stroke="#C2C6D8" stroke-miterlimit="10"/>
<path d="M415.056 457.75L50.0835 250.043L285.532 116.017L285.532 202.66L202.418 250.108L415.056 371.546L415.056 457.75Z" stroke="#C2C6D8" stroke-miterlimit="10"/>
<path d="M410.984 450.762L58.3003 250.043L281.46 123.005L281.46 200.306L194.226 250.1L410.984 373.891L410.984 450.762Z" stroke="#C2C6D8" stroke-miterlimit="10"/>
<path d="M406.912 443.773L66.5088 250.043L277.388 130.002L277.388 197.952L186.041 250.1L406.912 376.245L406.912 443.773Z" stroke="#C2C6D8" stroke-miterlimit="10"/>
<path d="M402.841 436.775L74.7178 250.041L273.316 136.988L273.316 195.597L177.849 250.098L402.841 378.597L402.841 436.775Z" stroke="#C2C6D8" stroke-miterlimit="10"/>
<path d="M398.769 429.787L82.9268 250.041L269.245 143.976L269.245 193.243L169.656 250.098L398.769 380.951L398.769 429.787Z" stroke="#C2C6D8" stroke-miterlimit="10"/>
<path d="M394.697 422.801L91.1436 250.043L265.173 150.974L265.173 190.899L161.464 250.1L394.697 383.298L394.697 422.801Z" stroke="#C2C6D8" stroke-miterlimit="10"/>
<path d="M390.625 415.813L99.3521 250.043L261.101 157.963L261.101 188.545L153.271 250.1L390.625 385.652L390.625 415.813Z" stroke="#C2C6D8" stroke-miterlimit="10"/>
<path d="M386.553 408.814L107.561 250.041L257.029 164.957L257.029 186.19L145.079 250.098L386.553 388.004L386.553 408.814Z" stroke="#C2C6D8" stroke-miterlimit="10"/>
<path d="M382.482 401.016L117.398 250.043L252.957 172.758L252.957 183.025L136.08 250.099L382.482 390.359L382.482 401.016Z" stroke="#C2C6D8" stroke-miterlimit="10"/>
<path d="M332.456 266.097L332.456 62.7735L439.153 0.707326L439.593 327.084L332.456 266.097Z" stroke="#C2C6D8" stroke-miterlimit="10"/>
<path d="M336.527 263.742L336.527 65.1012L435.098 7.76693L435.513 320.086L336.527 263.742Z" stroke="#C2C6D8" stroke-miterlimit="10"/>
<path d="M340.599 261.388L340.599 67.4309L431.034 14.8366L431.433 313.09L340.599 261.388Z" stroke="#C2C6D8" stroke-miterlimit="10"/>
<path d="M344.671 259.027L344.671 69.7686L426.97 21.8981L427.345 306.094L344.671 259.027Z" stroke="#C2C6D8" stroke-miterlimit="10"/>
<path d="M348.743 256.673L348.743 72.0983L422.907 28.9596L423.265 299.098L348.743 256.673Z" stroke="#C2C6D8" stroke-miterlimit="10"/>
<path d="M352.814 254.32L352.814 74.4279L418.843 36.0211L419.185 292.102L352.814 254.32Z" stroke="#C2C6D8" stroke-miterlimit="10"/>
<path d="M356.886 251.966L356.886 76.7575L414.779 43.0826L415.105 285.105L356.886 251.966Z" stroke="#C2C6D8" stroke-miterlimit="10"/>
<path d="M360.958 249.605L360.958 79.0872L410.724 50.1441L411.025 278.109L360.958 249.605Z" stroke="#C2C6D8" stroke-miterlimit="10"/>
<path d="M365.03 247.251L365.03 81.4168L406.66 57.2056L406.945 271.113L365.03 247.251Z" stroke="#C2C6D8" stroke-miterlimit="10"/>
<path d="M369.102 244.896L369.102 83.7445L402.596 64.2651L402.865 264.115L369.102 244.896Z" stroke="#C2C6D8" stroke-miterlimit="10"/>
<path d="M373.173 242.542L373.173 86.0742L398.533 71.3267L398.777 257.119L373.173 242.542Z" stroke="#C2C6D8" stroke-miterlimit="10"/>
<path d="M377.245 240.18L377.245 88.4038L394.469 78.3882L394.697 250.123L377.245 240.18Z" stroke="#C2C6D8" stroke-miterlimit="10"/>
<path d="M381.317 237.827L381.317 90.7416L390.405 85.4497L390.617 243.127L381.317 237.827Z" stroke="#C2C6D8" stroke-miterlimit="10"/>
<path d="M378.198 393.426L127.122 249.912L249.276 180.151" stroke="#C2C6D8" stroke-miterlimit="10"/>
<path d="M386.187 236.643L386.187 92.609" stroke="#C2C6D8" stroke-miterlimit="10"/>
</g>
<defs>
<clipPath id="clip0_2105_1038">
<rect width="500.392" height="440" fill="white" transform="translate(0 500.393) rotate(-90)"/>
</clipPath>
</defs>
</svg>
