<svg width="592" height="553" viewBox="0 0 592 553" fill="none" xmlns="http://www.w3.org/2000/svg">
<rect x="214.669" width="155.122" height="54" rx="27" fill="white"/>
<circle cx="241.669" cy="27" r="19" fill="#19C5C7"/>
<g clip-path="url(#clip0_1573_2308)">
<path d="M238.106 27C238.106 27.9448 238.482 28.851 239.15 29.5191C239.818 30.1872 240.724 30.5625 241.669 30.5625C242.614 30.5625 243.52 30.1872 244.188 29.5191C244.856 28.851 245.231 27.9448 245.231 27C245.231 26.0552 244.856 25.149 244.188 24.4809C243.52 23.8128 242.614 23.4375 241.669 23.4375C240.724 23.4375 239.818 23.8128 239.15 24.4809C238.482 25.149 238.106 26.0552 238.106 27Z" stroke="white" stroke-width="1.5" stroke-linecap="round" stroke-linejoin="round"/>
<path d="M230.981 22.25C230.981 21.6201 231.232 21.016 231.677 20.5706C232.122 20.1252 232.727 19.875 233.356 19.875H249.981C250.611 19.875 251.215 20.1252 251.661 20.5706C252.106 21.016 252.356 21.6201 252.356 22.25V31.75C252.356 32.3799 252.106 32.984 251.661 33.4294C251.215 33.8748 250.611 34.125 249.981 34.125H233.356C232.727 34.125 232.122 33.8748 231.677 33.4294C231.232 32.984 230.981 32.3799 230.981 31.75V22.25Z" stroke="white" stroke-width="1.5" stroke-linecap="round" stroke-linejoin="round"/>
<path d="M248.794 27H248.804" stroke="white" stroke-width="1.5" stroke-linecap="round" stroke-linejoin="round"/>
<path d="M234.544 27H234.554" stroke="white" stroke-width="1.5" stroke-linecap="round" stroke-linejoin="round"/>
</g>
<path d="M279.113 33.6506C275.675 33.6506 272.669 31.1666 272.669 27.0086C272.669 22.8506 275.783 20.3486 279.095 20.3486C282.335 20.3486 284.261 22.2566 284.837 24.4886L282.803 25.1726C282.425 23.6246 281.237 22.3826 279.095 22.3826C276.989 22.3826 274.883 23.9126 274.883 27.0086C274.883 29.9966 276.935 31.5806 279.113 31.5806C281.255 31.5806 282.479 30.2126 282.911 28.7726L284.891 29.4206C284.315 31.5806 282.371 33.6506 279.113 33.6506Z" fill="black"/>
<path d="M286.065 31.0046C286.065 29.4386 287.217 28.5746 288.711 28.3586L290.961 28.0166C291.465 27.9446 291.609 27.6926 291.609 27.3866C291.609 26.6486 291.105 26.0546 289.953 26.0546C288.855 26.0546 288.243 26.7566 288.153 27.6386L286.245 27.2066C286.407 25.6946 287.775 24.3446 289.935 24.3446C292.635 24.3446 293.661 25.8746 293.661 27.6206V31.9766C293.661 32.7686 293.751 33.2906 293.769 33.3806H291.825C291.807 33.3266 291.735 32.9666 291.735 32.2646C291.321 32.9306 290.457 33.6506 289.035 33.6506C287.199 33.6506 286.065 32.3906 286.065 31.0046ZM289.431 32.0126C290.601 32.0126 291.609 31.4546 291.609 29.7446V29.3486L289.323 29.6906C288.675 29.7986 288.153 30.1586 288.153 30.8786C288.153 31.4726 288.603 32.0126 289.431 32.0126Z" fill="black"/>
<path d="M295.411 31.0046L297.229 30.5006C297.301 31.2926 297.895 31.9946 299.011 31.9946C299.875 31.9946 300.325 31.5266 300.325 30.9866C300.325 30.5186 300.001 30.1586 299.299 30.0146L298.003 29.7266C296.455 29.3846 295.645 28.3766 295.645 27.1706C295.645 25.6406 297.049 24.3446 298.867 24.3446C301.315 24.3446 302.107 25.9286 302.251 26.7926L300.487 27.2966C300.415 26.7926 300.037 25.9826 298.867 25.9826C298.129 25.9826 297.607 26.4506 297.607 26.9906C297.607 27.4586 297.949 27.8006 298.489 27.9086L299.821 28.1786C301.477 28.5386 302.341 29.5466 302.341 30.8426C302.341 32.1746 301.261 33.6506 299.029 33.6506C296.491 33.6506 295.519 31.9946 295.411 31.0046Z" fill="black"/>
<path d="M306.499 28.2326V33.3806H304.411V20.3486H306.499V25.4606C307.093 24.6866 308.083 24.3626 309.001 24.3626C311.161 24.3626 312.205 25.9106 312.205 27.8366V33.3806H310.117V28.1966C310.117 27.1166 309.631 26.2526 308.317 26.2526C307.165 26.2526 306.535 27.1166 306.499 28.2326Z" fill="black"/>
<path d="M321.3 33.3806H319.212V20.3486H321.3V33.3806Z" fill="black"/>
<path d="M327.845 31.7786C329.141 31.7786 330.293 30.8246 330.293 28.9886C330.293 27.1706 329.141 26.2346 327.845 26.2346C326.567 26.2346 325.397 27.1706 325.397 28.9886C325.397 30.8066 326.567 31.7786 327.845 31.7786ZM327.845 24.3446C330.473 24.3446 332.399 26.3066 332.399 28.9886C332.399 31.6886 330.473 33.6506 327.845 33.6506C325.235 33.6506 323.309 31.6886 323.309 28.9886C323.309 26.3066 325.235 24.3446 327.845 24.3446Z" fill="black"/>
<path d="M333.877 31.0046C333.877 29.4386 335.029 28.5746 336.523 28.3586L338.773 28.0166C339.277 27.9446 339.421 27.6926 339.421 27.3866C339.421 26.6486 338.917 26.0546 337.765 26.0546C336.667 26.0546 336.055 26.7566 335.965 27.6386L334.057 27.2066C334.219 25.6946 335.587 24.3446 337.747 24.3446C340.447 24.3446 341.473 25.8746 341.473 27.6206V31.9766C341.473 32.7686 341.563 33.2906 341.581 33.3806H339.637C339.619 33.3266 339.547 32.9666 339.547 32.2646C339.133 32.9306 338.269 33.6506 336.847 33.6506C335.011 33.6506 333.877 32.3906 333.877 31.0046ZM337.243 32.0126C338.413 32.0126 339.421 31.4546 339.421 29.7446V29.3486L337.135 29.6906C336.487 29.7986 335.965 30.1586 335.965 30.8786C335.965 31.4726 336.415 32.0126 337.243 32.0126Z" fill="black"/>
<path d="M346.085 28.3226V33.3806H343.997V24.6146H346.031V25.7846C346.607 24.7766 347.651 24.3626 348.623 24.3626C350.765 24.3626 351.791 25.9106 351.791 27.8366V33.3806H349.703V28.1966C349.703 27.1166 349.217 26.2526 347.903 26.2526C346.715 26.2526 346.085 27.1706 346.085 28.3226Z" fill="black"/>
<rect x="190.275" y="498.863" width="194.673" height="54" rx="27" fill="white"/>
<circle cx="217.275" cy="525.863" r="19" fill="#FF6822"/>
<g clip-path="url(#clip1_1573_2308)">
<path d="M208.406 525.864H205.873L217.273 514.464L228.673 525.864H226.14" stroke="white" stroke-width="1.5" stroke-linecap="round" stroke-linejoin="round"/>
<path d="M208.406 525.864V534.731C208.406 535.403 208.673 536.047 209.148 536.522C209.623 536.997 210.268 537.264 210.94 537.264H223.606C224.278 537.264 224.922 536.997 225.398 536.522C225.873 536.047 226.14 535.403 226.14 534.731V525.864" stroke="white" stroke-width="1.5" stroke-linecap="round" stroke-linejoin="round"/>
<path d="M213.473 537.264V529.664C213.473 528.992 213.74 528.348 214.215 527.873C214.69 527.398 215.334 527.131 216.006 527.131H218.54C219.211 527.131 219.856 527.398 220.331 527.873C220.806 528.348 221.073 528.992 221.073 529.664V537.264" stroke="white" stroke-width="1.5" stroke-linecap="round" stroke-linejoin="round"/>
</g>
<path d="M262.315 530.534H260.173V521.138L256.195 530.534H254.323L250.381 521.174V530.534H248.275V517.772H251.155L255.295 527.51L259.381 517.772H262.315V530.534Z" fill="black"/>
<path d="M269.016 528.932C270.312 528.932 271.464 527.978 271.464 526.142C271.464 524.324 270.312 523.388 269.016 523.388C267.738 523.388 266.568 524.324 266.568 526.142C266.568 527.96 267.738 528.932 269.016 528.932ZM269.016 521.498C271.644 521.498 273.57 523.46 273.57 526.142C273.57 528.842 271.644 530.804 269.016 530.804C266.406 530.804 264.48 528.842 264.48 526.142C264.48 523.46 266.406 521.498 269.016 521.498Z" fill="black"/>
<path d="M280.718 521.714V523.838C280.484 523.802 280.25 523.784 280.034 523.784C278.414 523.784 277.676 524.72 277.676 526.358V530.534H275.588V521.768H277.622V523.172C278.036 522.218 279.008 521.66 280.16 521.66C280.412 521.66 280.628 521.696 280.718 521.714Z" fill="black"/>
<path d="M285.493 519.086V521.768H287.311V523.622H285.493V527.69C285.493 528.464 285.835 528.788 286.609 528.788C286.897 528.788 287.239 528.734 287.329 528.716V530.444C287.203 530.498 286.807 530.642 286.051 530.642C284.431 530.642 283.423 529.67 283.423 528.032V523.622H281.803V521.768H282.253C283.189 521.768 283.603 521.174 283.603 520.4V519.086H285.493Z" fill="black"/>
<path d="M288.739 531.02L290.665 530.516C290.809 531.596 291.655 532.406 292.861 532.406C294.517 532.406 295.345 531.56 295.345 529.778V528.86C294.967 529.544 294.085 530.138 292.807 530.138C290.467 530.138 288.757 528.338 288.757 525.872C288.757 523.532 290.395 521.606 292.807 521.606C294.175 521.606 295.021 522.164 295.399 522.884V521.768H297.415V529.706C297.415 532.046 296.209 534.224 292.915 534.224C290.593 534.224 288.973 532.784 288.739 531.02ZM293.149 528.356C294.481 528.356 295.399 527.384 295.399 525.872C295.399 524.378 294.445 523.406 293.149 523.406C291.817 523.406 290.863 524.378 290.863 525.872C290.863 527.402 291.781 528.356 293.149 528.356Z" fill="black"/>
<path d="M299.341 528.158C299.341 526.592 300.493 525.728 301.987 525.512L304.237 525.17C304.741 525.098 304.885 524.846 304.885 524.54C304.885 523.802 304.381 523.208 303.229 523.208C302.131 523.208 301.519 523.91 301.429 524.792L299.521 524.36C299.683 522.848 301.051 521.498 303.211 521.498C305.911 521.498 306.937 523.028 306.937 524.774V529.13C306.937 529.922 307.027 530.444 307.045 530.534H305.101C305.083 530.48 305.011 530.12 305.011 529.418C304.597 530.084 303.733 530.804 302.311 530.804C300.475 530.804 299.341 529.544 299.341 528.158ZM302.707 529.166C303.877 529.166 304.885 528.608 304.885 526.898V526.502L302.599 526.844C301.951 526.952 301.429 527.312 301.429 528.032C301.429 528.626 301.879 529.166 302.707 529.166Z" fill="black"/>
<path d="M308.813 531.02L310.739 530.516C310.883 531.596 311.729 532.406 312.935 532.406C314.591 532.406 315.419 531.56 315.419 529.778V528.86C315.041 529.544 314.159 530.138 312.881 530.138C310.541 530.138 308.831 528.338 308.831 525.872C308.831 523.532 310.469 521.606 312.881 521.606C314.249 521.606 315.095 522.164 315.473 522.884V521.768H317.489V529.706C317.489 532.046 316.283 534.224 312.989 534.224C310.667 534.224 309.047 532.784 308.813 531.02ZM313.223 528.356C314.555 528.356 315.473 527.384 315.473 525.872C315.473 524.378 314.519 523.406 313.223 523.406C311.891 523.406 310.937 524.378 310.937 525.872C310.937 527.402 311.855 528.356 313.223 528.356Z" fill="black"/>
<path d="M321.501 525.188H325.803C325.767 524.162 325.083 523.244 323.643 523.244C322.329 523.244 321.573 524.252 321.501 525.188ZM326.037 527.474L327.801 528.032C327.333 529.562 325.947 530.804 323.841 530.804C321.465 530.804 319.359 529.076 319.359 526.106C319.359 523.334 321.411 521.498 323.625 521.498C326.325 521.498 327.909 523.28 327.909 526.052C327.909 526.394 327.873 526.682 327.855 526.718H321.447C321.501 528.05 322.545 529.004 323.841 529.004C325.101 529.004 325.749 528.338 326.037 527.474Z" fill="black"/>
<path d="M336.457 530.534H334.369V517.502H336.457V530.534Z" fill="black"/>
<path d="M343.002 528.932C344.298 528.932 345.45 527.978 345.45 526.142C345.45 524.324 344.298 523.388 343.002 523.388C341.724 523.388 340.554 524.324 340.554 526.142C340.554 527.96 341.724 528.932 343.002 528.932ZM343.002 521.498C345.63 521.498 347.556 523.46 347.556 526.142C347.556 528.842 345.63 530.804 343.002 530.804C340.392 530.804 338.466 528.842 338.466 526.142C338.466 523.46 340.392 521.498 343.002 521.498Z" fill="black"/>
<path d="M349.034 528.158C349.034 526.592 350.186 525.728 351.68 525.512L353.93 525.17C354.434 525.098 354.578 524.846 354.578 524.54C354.578 523.802 354.074 523.208 352.922 523.208C351.824 523.208 351.212 523.91 351.122 524.792L349.214 524.36C349.376 522.848 350.744 521.498 352.904 521.498C355.604 521.498 356.63 523.028 356.63 524.774V529.13C356.63 529.922 356.72 530.444 356.738 530.534H354.794C354.776 530.48 354.704 530.12 354.704 529.418C354.29 530.084 353.426 530.804 352.004 530.804C350.168 530.804 349.034 529.544 349.034 528.158ZM352.4 529.166C353.57 529.166 354.578 528.608 354.578 526.898V526.502L352.292 526.844C351.644 526.952 351.122 527.312 351.122 528.032C351.122 528.626 351.572 529.166 352.4 529.166Z" fill="black"/>
<path d="M361.242 525.476V530.534H359.154V521.768H361.188V522.938C361.764 521.93 362.808 521.516 363.78 521.516C365.922 521.516 366.948 523.064 366.948 524.99V530.534H364.86V525.35C364.86 524.27 364.374 523.406 363.06 523.406C361.872 523.406 361.242 524.324 361.242 525.476Z" fill="black"/>
<rect y="164.662" width="177.713" height="54" rx="27" fill="white"/>
<circle cx="27" cy="191.662" r="19" fill="#FFCC81"/>
<g clip-path="url(#clip2_1573_2308)">
<path d="M15.5977 186.596C15.5977 185.588 15.998 184.622 16.7107 183.909C17.4233 183.196 18.3898 182.796 19.3977 182.796H34.5977C35.6055 182.796 36.572 183.196 37.2847 183.909C37.9973 184.622 38.3977 185.588 38.3977 186.596V196.729C38.3977 197.737 37.9973 198.704 37.2847 199.416C36.572 200.129 35.6055 200.529 34.5977 200.529H19.3977C18.3898 200.529 17.4233 200.129 16.7107 199.416C15.998 198.704 15.5977 197.737 15.5977 196.729V186.596Z" stroke="white" stroke-width="1.5" stroke-linecap="round" stroke-linejoin="round"/>
<path d="M15.5977 189.13H38.3977" stroke="white" stroke-width="1.5" stroke-linecap="round" stroke-linejoin="round"/>
<path d="M20.6643 195.463H20.6743" stroke="white" stroke-width="1.5" stroke-linecap="round" stroke-linejoin="round"/>
<path d="M25.731 195.463H28.2643" stroke="white" stroke-width="1.5" stroke-linecap="round" stroke-linejoin="round"/>
</g>
<path d="M65.16 199.152C61.34 199.152 58 196.392 58 191.772C58 187.152 61.46 184.372 65.14 184.372C68.74 184.372 70.88 186.492 71.52 188.972L69.26 189.732C68.84 188.012 67.52 186.632 65.14 186.632C62.8 186.632 60.46 188.332 60.46 191.772C60.46 195.092 62.74 196.852 65.16 196.852C67.54 196.852 68.9 195.332 69.38 193.732L71.58 194.452C70.94 196.852 68.78 199.152 65.16 199.152Z" fill="black"/>
<path d="M79.2819 189.052V191.412C79.0219 191.372 78.7619 191.352 78.5219 191.352C76.7219 191.352 75.9019 192.392 75.9019 194.212V198.852H73.5819V189.112H75.8419V190.672C76.3019 189.612 77.3819 188.992 78.6619 188.992C78.9419 188.992 79.1819 189.032 79.2819 189.052Z" fill="black"/>
<path d="M82.7409 192.912H87.5209C87.4809 191.772 86.7209 190.752 85.1209 190.752C83.6609 190.752 82.8209 191.872 82.7409 192.912ZM87.7809 195.452L89.7409 196.072C89.2209 197.772 87.6809 199.152 85.3409 199.152C82.7009 199.152 80.3609 197.232 80.3609 193.932C80.3609 190.852 82.6409 188.812 85.1009 188.812C88.1009 188.812 89.8609 190.792 89.8609 193.872C89.8609 194.252 89.8209 194.572 89.8009 194.612H82.6809C82.7409 196.092 83.9009 197.152 85.3409 197.152C86.7409 197.152 87.4609 196.412 87.7809 195.452Z" fill="black"/>
<path d="M93.638 193.952C93.638 195.812 94.678 197.052 96.258 197.052C97.778 197.052 98.838 195.792 98.838 193.932C98.838 192.072 97.798 190.912 96.278 190.912C94.758 190.912 93.638 192.092 93.638 193.952ZM101.078 184.372V197.072C101.078 197.952 101.158 198.692 101.178 198.852H98.958C98.918 198.632 98.858 197.992 98.858 197.592C98.398 198.412 97.378 199.092 95.998 199.092C93.198 199.092 91.318 196.892 91.318 193.952C91.318 191.152 93.218 188.852 95.958 188.852C97.658 188.852 98.518 189.632 98.818 190.252V184.372H101.078Z" fill="black"/>
<path d="M106.409 198.852H104.109V189.112H106.409V198.852ZM103.749 185.692C103.749 184.852 104.429 184.172 105.249 184.172C106.089 184.172 106.769 184.852 106.769 185.692C106.769 186.532 106.089 187.192 105.249 187.192C104.429 187.192 103.749 186.532 103.749 185.692Z" fill="black"/>
<path d="M112.342 186.132V189.112H114.362V191.172H112.342V195.692C112.342 196.552 112.722 196.912 113.582 196.912C113.902 196.912 114.282 196.852 114.382 196.832V198.752C114.242 198.812 113.802 198.972 112.962 198.972C111.162 198.972 110.042 197.892 110.042 196.072V191.172H108.242V189.112H108.742C109.782 189.112 110.242 188.452 110.242 187.592V186.132H112.342Z" fill="black"/>
<path d="M125.908 190.952C124.488 190.952 123.228 192.012 123.228 193.972C123.228 195.932 124.488 197.032 125.948 197.032C127.468 197.032 128.168 195.972 128.388 195.232L130.428 195.972C129.968 197.492 128.508 199.152 125.948 199.152C123.088 199.152 120.908 196.932 120.908 193.972C120.908 190.972 123.088 188.812 125.888 188.812C128.508 188.812 129.948 190.452 130.348 192.012L128.268 192.772C128.048 191.912 127.388 190.952 125.908 190.952Z" fill="black"/>
<path d="M131.83 196.212C131.83 194.472 133.11 193.512 134.77 193.272L137.27 192.892C137.83 192.812 137.99 192.532 137.99 192.192C137.99 191.372 137.43 190.712 136.15 190.712C134.93 190.712 134.25 191.492 134.15 192.472L132.03 191.992C132.21 190.312 133.73 188.812 136.13 188.812C139.13 188.812 140.27 190.512 140.27 192.452V197.292C140.27 198.172 140.37 198.752 140.39 198.852H138.23C138.21 198.792 138.13 198.392 138.13 197.612C137.67 198.352 136.71 199.152 135.13 199.152C133.09 199.152 131.83 197.752 131.83 196.212ZM135.57 197.332C136.87 197.332 137.99 196.712 137.99 194.812V194.372L135.45 194.752C134.73 194.872 134.15 195.272 134.15 196.072C134.15 196.732 134.65 197.332 135.57 197.332Z" fill="black"/>
<path d="M148.774 189.052V191.412C148.514 191.372 148.254 191.352 148.014 191.352C146.214 191.352 145.394 192.392 145.394 194.212V198.852H143.074V189.112H145.334V190.672C145.794 189.612 146.874 188.992 148.154 188.992C148.434 188.992 148.674 189.032 148.774 189.052Z" fill="black"/>
<path d="M152.173 193.952C152.173 195.812 153.213 197.052 154.793 197.052C156.313 197.052 157.373 195.792 157.373 193.932C157.373 192.072 156.333 190.912 154.813 190.912C153.293 190.912 152.173 192.092 152.173 193.952ZM159.613 184.372V197.072C159.613 197.952 159.693 198.692 159.713 198.852H157.493C157.453 198.632 157.393 197.992 157.393 197.592C156.933 198.412 155.913 199.092 154.533 199.092C151.733 199.092 149.853 196.892 149.853 193.952C149.853 191.152 151.753 188.852 154.493 188.852C156.193 188.852 157.053 189.632 157.353 190.252V184.372H159.613Z" fill="black"/>
<rect x="372.013" y="396.406" width="171" height="54" rx="27" fill="white"/>
<circle cx="399.013" cy="423.406" r="19" fill="#19C5C7"/>
<g clip-path="url(#clip3_1573_2308)">
<path d="M397.744 423.407C397.744 423.906 397.842 424.401 398.033 424.862C398.224 425.323 398.504 425.742 398.857 426.094C399.21 426.447 399.628 426.727 400.089 426.918C400.55 427.109 401.045 427.207 401.544 427.207C402.043 427.207 402.537 427.109 402.998 426.918C403.459 426.727 403.878 426.447 404.231 426.094C404.584 425.742 404.863 425.323 405.054 424.862C405.245 424.401 405.344 423.906 405.344 423.407C405.344 422.908 405.245 422.414 405.054 421.953C404.863 421.492 404.584 421.073 404.231 420.72C403.878 420.368 403.459 420.088 402.998 419.897C402.537 419.706 402.043 419.607 401.544 419.607C401.045 419.607 400.55 419.706 400.089 419.897C399.628 420.088 399.21 420.368 398.857 420.72C398.504 421.073 398.224 421.492 398.033 421.953C397.842 422.414 397.744 422.908 397.744 423.407Z" stroke="white" stroke-width="1.5" stroke-linecap="round" stroke-linejoin="round"/>
<path d="M399.01 420.576C398.464 420.087 397.787 419.766 397.062 419.653C396.337 419.54 395.595 419.639 394.925 419.938C394.255 420.237 393.686 420.724 393.287 421.34C392.888 421.956 392.676 422.674 392.676 423.407C392.676 424.141 392.888 424.859 393.287 425.475C393.686 426.09 394.255 426.577 394.925 426.877C395.595 427.176 396.337 427.275 397.062 427.162C397.787 427.049 398.464 426.728 399.01 426.238" stroke="white" stroke-width="1.5" stroke-linecap="round" stroke-linejoin="round"/>
<path d="M387.61 417.073C387.61 416.401 387.877 415.757 388.352 415.282C388.827 414.807 389.472 414.54 390.144 414.54H407.877C408.549 414.54 409.193 414.807 409.668 415.282C410.143 415.757 410.41 416.401 410.41 417.073V429.74C410.41 430.412 410.143 431.056 409.668 431.531C409.193 432.006 408.549 432.273 407.877 432.273H390.144C389.472 432.273 388.827 432.006 388.352 431.531C387.877 431.056 387.61 430.412 387.61 429.74V417.073Z" stroke="white" stroke-width="1.5" stroke-linecap="round" stroke-linejoin="round"/>
</g>
<path d="M445.583 429.906H443.441V420.51L439.463 429.906H437.591L433.649 420.546V429.906H431.543V417.144H434.423L438.563 426.882L442.649 417.144H445.583V429.906ZM447.873 427.53C447.873 425.964 449.025 425.1 450.519 424.884L452.769 424.542C453.273 424.47 453.417 424.218 453.417 423.912C453.417 423.174 452.913 422.58 451.761 422.58C450.663 422.58 450.051 423.282 449.961 424.164L448.053 423.732C448.215 422.22 449.583 420.87 451.743 420.87C454.443 420.87 455.469 422.4 455.469 424.146V428.502C455.469 429.294 455.559 429.816 455.577 429.906H453.633C453.615 429.852 453.543 429.492 453.543 428.79C453.129 429.456 452.265 430.176 450.843 430.176C449.007 430.176 447.873 428.916 447.873 427.53ZM451.239 428.538C452.409 428.538 453.417 427.98 453.417 426.27V425.874L451.131 426.216C450.483 426.324 449.961 426.684 449.961 427.404C449.961 427.998 450.411 428.538 451.239 428.538ZM457.22 427.53L459.038 427.026C459.11 427.818 459.704 428.52 460.82 428.52C461.684 428.52 462.134 428.052 462.134 427.512C462.134 427.044 461.81 426.684 461.108 426.54L459.812 426.252C458.264 425.91 457.454 424.902 457.454 423.696C457.454 422.166 458.858 420.87 460.676 420.87C463.124 420.87 463.916 422.454 464.06 423.318L462.296 423.822C462.224 423.318 461.846 422.508 460.676 422.508C459.938 422.508 459.416 422.976 459.416 423.516C459.416 423.984 459.758 424.326 460.298 424.434L461.63 424.704C463.286 425.064 464.15 426.072 464.15 427.368C464.15 428.7 463.07 430.176 460.838 430.176C458.3 430.176 457.328 428.52 457.22 427.53ZM468.866 418.458V421.14H470.684V422.994H468.866V427.062C468.866 427.836 469.208 428.16 469.982 428.16C470.27 428.16 470.612 428.106 470.702 428.088V429.816C470.576 429.87 470.18 430.014 469.424 430.014C467.804 430.014 466.796 429.042 466.796 427.404V422.994H465.176V421.14H465.626C466.562 421.14 466.976 420.546 466.976 419.772V418.458H468.866ZM474.2 424.56H478.502C478.466 423.534 477.782 422.616 476.342 422.616C475.028 422.616 474.272 423.624 474.2 424.56ZM478.736 426.846L480.5 427.404C480.032 428.934 478.646 430.176 476.54 430.176C474.164 430.176 472.058 428.448 472.058 425.478C472.058 422.706 474.11 420.87 476.324 420.87C479.024 420.87 480.608 422.652 480.608 425.424C480.608 425.766 480.572 426.054 480.554 426.09H474.146C474.2 427.422 475.244 428.376 476.54 428.376C477.8 428.376 478.448 427.71 478.736 426.846ZM487.733 421.086V423.21C487.499 423.174 487.265 423.156 487.049 423.156C485.429 423.156 484.691 424.092 484.691 425.73V429.906H482.603V421.14H484.637V422.544C485.051 421.59 486.023 421.032 487.175 421.032C487.427 421.032 487.643 421.068 487.733 421.086ZM493.204 422.796C491.926 422.796 490.792 423.75 490.792 425.514C490.792 427.278 491.926 428.268 493.24 428.268C494.608 428.268 495.238 427.314 495.436 426.648L497.272 427.314C496.858 428.682 495.544 430.176 493.24 430.176C490.666 430.176 488.704 428.178 488.704 425.514C488.704 422.814 490.666 420.87 493.186 420.87C495.544 420.87 496.84 422.346 497.2 423.75L495.328 424.434C495.13 423.66 494.536 422.796 493.204 422.796ZM498.534 427.53C498.534 425.964 499.686 425.1 501.18 424.884L503.43 424.542C503.934 424.47 504.078 424.218 504.078 423.912C504.078 423.174 503.574 422.58 502.422 422.58C501.324 422.58 500.712 423.282 500.622 424.164L498.714 423.732C498.876 422.22 500.244 420.87 502.404 420.87C505.104 420.87 506.13 422.4 506.13 424.146V428.502C506.13 429.294 506.22 429.816 506.238 429.906H504.294C504.276 429.852 504.204 429.492 504.204 428.79C503.79 429.456 502.926 430.176 501.504 430.176C499.668 430.176 498.534 428.916 498.534 427.53ZM501.9 428.538C503.07 428.538 504.078 427.98 504.078 426.27V425.874L501.792 426.216C501.144 426.324 500.622 426.684 500.622 427.404C500.622 427.998 501.072 428.538 501.9 428.538ZM513.784 421.086V423.21C513.55 423.174 513.316 423.156 513.1 423.156C511.48 423.156 510.742 424.092 510.742 425.73V429.906H508.654V421.14H510.688V422.544C511.102 421.59 512.074 421.032 513.226 421.032C513.478 421.032 513.694 421.068 513.784 421.086ZM516.843 425.496C516.843 427.17 517.779 428.286 519.201 428.286C520.569 428.286 521.523 427.152 521.523 425.478C521.523 423.804 520.587 422.76 519.219 422.76C517.851 422.76 516.843 423.822 516.843 425.496ZM523.539 416.874V428.304C523.539 429.096 523.611 429.762 523.629 429.906H521.631C521.595 429.708 521.541 429.132 521.541 428.772C521.127 429.51 520.209 430.122 518.967 430.122C516.447 430.122 514.755 428.142 514.755 425.496C514.755 422.976 516.465 420.906 518.931 420.906C520.461 420.906 521.235 421.608 521.505 422.166V416.874H523.539Z" fill="black"/>
<rect x="407.384" y="164.662" width="184.62" height="54" rx="27" fill="white"/>
<circle cx="434.384" cy="191.662" r="19" fill="#49C6FD"/>
<g clip-path="url(#clip4_1573_2308)">
<path d="M438.181 190.396V190.406" stroke="white" stroke-width="1.5" stroke-linecap="round" stroke-linejoin="round"/>
<path d="M425.734 187.075C425.178 186.648 424.752 186.075 424.501 185.421C424.25 184.767 424.185 184.056 424.314 183.367C424.442 182.678 424.758 182.038 425.227 181.518C425.696 180.997 426.3 180.616 426.972 180.418C427.644 180.219 428.358 180.21 429.034 180.392C429.711 180.573 430.324 180.938 430.807 181.447C431.289 181.955 431.621 182.587 431.767 183.272C431.912 183.958 431.865 184.67 431.631 185.33" stroke="white" stroke-width="1.5" stroke-linecap="round" stroke-linejoin="round"/>
<path d="M439.448 181.529V186.346C441.016 187.254 442.209 188.689 442.815 190.396H444.514C444.85 190.396 445.172 190.529 445.409 190.767C445.647 191.005 445.78 191.327 445.78 191.663V194.196C445.78 194.532 445.647 194.854 445.409 195.092C445.172 195.329 444.85 195.463 444.514 195.463H442.814C442.388 196.666 441.665 197.743 440.714 198.595V201.163C440.714 201.667 440.513 202.15 440.157 202.506C439.801 202.862 439.317 203.063 438.814 203.063C438.31 203.063 437.826 202.862 437.47 202.506C437.114 202.15 436.914 201.667 436.914 201.163V200.424C436.495 200.494 436.071 200.529 435.647 200.529H430.58C430.156 200.529 429.732 200.494 429.314 200.424V201.163C429.314 201.667 429.113 202.15 428.757 202.506C428.401 202.862 427.917 203.063 427.414 203.063C426.91 203.063 426.426 202.862 426.07 202.506C425.714 202.15 425.514 201.667 425.514 201.163V198.629V198.595C424.366 197.569 423.557 196.219 423.194 194.723C422.83 193.227 422.93 191.656 423.479 190.218C424.028 188.78 425.002 187.542 426.27 186.669C427.538 185.796 429.041 185.329 430.58 185.329H433.747L439.447 181.529H439.448Z" stroke="white" stroke-width="1.5" stroke-linecap="round" stroke-linejoin="round"/>
</g>
<path d="M475.464 196.423L474.258 193.219H468.858L467.67 196.423H465.384L470.352 183.661H472.854L477.822 196.423H475.464ZM471.558 186.001L469.614 191.221H473.502L471.558 186.001Z" fill="black"/>
<path d="M482.991 189.313C481.713 189.313 480.579 190.267 480.579 192.031C480.579 193.795 481.713 194.785 483.027 194.785C484.395 194.785 485.025 193.831 485.223 193.165L487.059 193.831C486.645 195.199 485.331 196.693 483.027 196.693C480.453 196.693 478.491 194.695 478.491 192.031C478.491 189.331 480.453 187.387 482.973 187.387C485.331 187.387 486.627 188.863 486.987 190.267L485.115 190.951C484.917 190.177 484.323 189.313 482.991 189.313Z" fill="black"/>
<path d="M491.559 184.975V187.657H493.377V189.511H491.559V193.579C491.559 194.353 491.901 194.677 492.675 194.677C492.963 194.677 493.305 194.623 493.395 194.605V196.333C493.269 196.387 492.873 196.531 492.117 196.531C490.497 196.531 489.489 195.559 489.489 193.921V189.511H487.869V187.657H488.319C489.255 187.657 489.669 187.063 489.669 186.289V184.975H491.559Z" fill="black"/>
<path d="M497.593 196.423H495.523V187.657H497.593V196.423ZM495.199 184.579C495.199 183.823 495.811 183.211 496.549 183.211C497.305 183.211 497.917 183.823 497.917 184.579C497.917 185.335 497.305 185.929 496.549 185.929C495.811 185.929 495.199 185.335 495.199 184.579Z" fill="black"/>
<path d="M508.206 187.657L504.768 196.423H502.68L499.116 187.657H501.42L503.742 193.921L506.01 187.657H508.206Z" fill="black"/>
<path d="M510.938 191.077H515.24C515.204 190.051 514.52 189.133 513.08 189.133C511.766 189.133 511.01 190.141 510.938 191.077ZM515.474 193.363L517.238 193.921C516.77 195.451 515.384 196.693 513.278 196.693C510.902 196.693 508.796 194.965 508.796 191.995C508.796 189.223 510.848 187.387 513.062 187.387C515.762 187.387 517.346 189.169 517.346 191.941C517.346 192.283 517.31 192.571 517.292 192.607H510.884C510.938 193.939 511.982 194.893 513.278 194.893C514.538 194.893 515.186 194.227 515.474 193.363Z" fill="black"/>
<path d="M523.032 194.047L524.85 193.543C524.922 194.335 525.516 195.037 526.632 195.037C527.496 195.037 527.946 194.569 527.946 194.029C527.946 193.561 527.622 193.201 526.92 193.057L525.624 192.769C524.076 192.427 523.266 191.419 523.266 190.213C523.266 188.683 524.67 187.387 526.488 187.387C528.936 187.387 529.728 188.971 529.872 189.835L528.108 190.339C528.036 189.835 527.658 189.025 526.488 189.025C525.75 189.025 525.228 189.493 525.228 190.033C525.228 190.501 525.57 190.843 526.11 190.951L527.442 191.221C529.098 191.581 529.962 192.589 529.962 193.885C529.962 195.217 528.882 196.693 526.65 196.693C524.112 196.693 523.14 195.037 523.032 194.047Z" fill="black"/>
<path d="M531.369 194.047C531.369 192.481 532.521 191.617 534.015 191.401L536.265 191.059C536.769 190.987 536.913 190.735 536.913 190.429C536.913 189.691 536.409 189.097 535.257 189.097C534.159 189.097 533.547 189.799 533.457 190.681L531.549 190.249C531.711 188.737 533.079 187.387 535.239 187.387C537.939 187.387 538.965 188.917 538.965 190.663V195.019C538.965 195.811 539.055 196.333 539.073 196.423H537.129C537.111 196.369 537.039 196.009 537.039 195.307C536.625 195.973 535.761 196.693 534.339 196.693C532.503 196.693 531.369 195.433 531.369 194.047ZM534.735 195.055C535.905 195.055 536.913 194.497 536.913 192.787V192.391L534.627 192.733C533.979 192.841 533.457 193.201 533.457 193.921C533.457 194.515 533.907 195.055 534.735 195.055Z" fill="black"/>
<path d="M549.321 187.657L545.883 196.423H543.795L540.231 187.657H542.535L544.857 193.921L547.125 187.657H549.321Z" fill="black"/>
<path d="M552.928 196.423H550.858V187.657H552.928V196.423ZM550.534 184.579C550.534 183.823 551.146 183.211 551.884 183.211C552.64 183.211 553.252 183.823 553.252 184.579C553.252 185.335 552.64 185.929 551.884 185.929C551.146 185.929 550.534 185.335 550.534 184.579Z" fill="black"/>
<path d="M557.71 191.365V196.423H555.622V187.657H557.656V188.827C558.232 187.819 559.276 187.405 560.248 187.405C562.39 187.405 563.416 188.953 563.416 190.879V196.423H561.328V191.239C561.328 190.159 560.842 189.295 559.528 189.295C558.34 189.295 557.71 190.213 557.71 191.365Z" fill="black"/>
<path d="M565.328 196.909L567.254 196.405C567.398 197.485 568.244 198.295 569.45 198.295C571.106 198.295 571.934 197.449 571.934 195.667V194.749C571.556 195.433 570.674 196.027 569.396 196.027C567.056 196.027 565.346 194.227 565.346 191.761C565.346 189.421 566.984 187.495 569.396 187.495C570.764 187.495 571.61 188.053 571.988 188.773V187.657H574.004V195.595C574.004 197.935 572.798 200.113 569.504 200.113C567.182 200.113 565.562 198.673 565.328 196.909ZM569.738 194.245C571.07 194.245 571.988 193.273 571.988 191.761C571.988 190.267 571.034 189.295 569.738 189.295C568.406 189.295 567.452 190.267 567.452 191.761C567.452 193.291 568.37 194.245 569.738 194.245Z" fill="black"/>
<rect x="25.6133" y="396.406" width="136.583" height="54" rx="27" fill="white"/>
<circle cx="52.6133" cy="423.406" r="19" fill="#3EA0FD"/>
<g clip-path="url(#clip5_1573_2308)">
<path d="M43.7441 429.74C43.7441 430.412 44.011 431.057 44.4861 431.532C44.9612 432.007 45.6056 432.274 46.2775 432.274C46.9494 432.274 47.5937 432.007 48.0688 431.532C48.5439 431.057 48.8108 430.412 48.8108 429.74C48.8108 429.068 48.5439 428.424 48.0688 427.949C47.5937 427.474 46.9494 427.207 46.2775 427.207C45.6056 427.207 44.9612 427.474 44.4861 427.949C44.011 428.424 43.7441 429.068 43.7441 429.74Z" stroke="white" stroke-width="1.5" stroke-linecap="round" stroke-linejoin="round"/>
<path d="M56.4109 429.74C56.4109 430.412 56.6778 431.057 57.1529 431.532C57.628 432.007 58.2723 432.274 58.9442 432.274C59.6161 432.274 60.2605 432.007 60.7356 431.532C61.2107 431.057 61.4776 430.412 61.4776 429.74C61.4776 429.068 61.2107 428.424 60.7356 427.949C60.2605 427.474 59.6161 427.207 58.9442 427.207C58.2723 427.207 57.628 427.474 57.1529 427.949C56.6778 428.424 56.4109 429.068 56.4109 429.74Z" stroke="white" stroke-width="1.5" stroke-linecap="round" stroke-linejoin="round"/>
<path d="M43.7443 429.74H41.2109V422.14M41.2109 422.14L43.7443 415.807H55.1443L60.2109 422.14M41.2109 422.14H60.2109M60.2109 422.14H61.4776C62.1495 422.14 62.7939 422.407 63.2689 422.882C63.744 423.357 64.0109 424.001 64.0109 424.673V429.74H61.4776M56.4109 429.74H48.8109M52.6109 422.14V415.807" stroke="white" stroke-width="1.5" stroke-linecap="round" stroke-linejoin="round"/>
</g>
<path d="M91.6233 428.167H83.6133V415.405H85.7733V426.115H91.6233V428.167Z" fill="black"/>
<path d="M94.8405 422.821H99.1425C99.1065 421.795 98.4225 420.877 96.9825 420.877C95.6685 420.877 94.9125 421.885 94.8405 422.821ZM99.3765 425.107L101.141 425.665C100.673 427.195 99.2865 428.437 97.1805 428.437C94.8045 428.437 92.6985 426.709 92.6985 423.739C92.6985 420.967 94.7505 419.131 96.9645 419.131C99.6645 419.131 101.249 420.913 101.249 423.685C101.249 424.027 101.213 424.315 101.194 424.351H94.7865C94.8405 425.683 95.8845 426.637 97.1805 426.637C98.4405 426.637 99.0885 425.971 99.3765 425.107Z" fill="black"/>
<path d="M102.704 425.791C102.704 424.225 103.856 423.361 105.35 423.145L107.6 422.803C108.104 422.731 108.248 422.479 108.248 422.173C108.248 421.435 107.744 420.841 106.592 420.841C105.494 420.841 104.882 421.543 104.792 422.425L102.884 421.993C103.046 420.481 104.414 419.131 106.574 419.131C109.274 419.131 110.3 420.661 110.3 422.407V426.763C110.3 427.555 110.39 428.077 110.408 428.167H108.464C108.446 428.113 108.374 427.753 108.374 427.051C107.96 427.717 107.096 428.437 105.674 428.437C103.838 428.437 102.704 427.177 102.704 425.791ZM106.07 426.799C107.24 426.799 108.248 426.241 108.248 424.531V424.135L105.962 424.477C105.314 424.585 104.792 424.945 104.792 425.665C104.792 426.259 105.242 426.799 106.07 426.799Z" fill="black"/>
<path d="M112.05 425.791L113.868 425.287C113.94 426.079 114.534 426.781 115.65 426.781C116.514 426.781 116.964 426.313 116.964 425.773C116.964 425.305 116.64 424.945 115.938 424.801L114.642 424.513C113.094 424.171 112.284 423.163 112.284 421.957C112.284 420.427 113.688 419.131 115.506 419.131C117.954 419.131 118.746 420.715 118.89 421.579L117.126 422.083C117.054 421.579 116.676 420.769 115.506 420.769C114.768 420.769 114.246 421.237 114.246 421.777C114.246 422.245 114.588 422.587 115.128 422.695L116.46 422.965C118.116 423.325 118.98 424.333 118.98 425.629C118.98 426.961 117.9 428.437 115.668 428.437C113.13 428.437 112.158 426.781 112.05 425.791Z" fill="black"/>
<path d="M123.12 428.167H121.05V419.401H123.12V428.167ZM120.726 416.323C120.726 415.567 121.338 414.955 122.076 414.955C122.832 414.955 123.444 415.567 123.444 416.323C123.444 417.079 122.832 417.673 122.076 417.673C121.338 417.673 120.726 417.079 120.726 416.323Z" fill="black"/>
<path d="M127.902 423.109V428.167H125.814V419.401H127.848V420.571C128.424 419.563 129.468 419.149 130.44 419.149C132.582 419.149 133.608 420.697 133.608 422.623V428.167H131.52V422.983C131.52 421.903 131.034 421.039 129.72 421.039C128.532 421.039 127.902 421.957 127.902 423.109Z" fill="black"/>
<path d="M135.52 428.653L137.446 428.149C137.59 429.229 138.436 430.039 139.642 430.039C141.298 430.039 142.126 429.193 142.126 427.411V426.493C141.748 427.177 140.866 427.771 139.588 427.771C137.248 427.771 135.538 425.971 135.538 423.505C135.538 421.165 137.176 419.239 139.588 419.239C140.956 419.239 141.802 419.797 142.18 420.517V419.401H144.196V427.339C144.196 429.679 142.99 431.857 139.696 431.857C137.374 431.857 135.754 430.417 135.52 428.653ZM139.93 425.989C141.262 425.989 142.18 425.017 142.18 423.505C142.18 422.011 141.226 421.039 139.93 421.039C138.598 421.039 137.644 422.011 137.644 423.505C137.644 425.035 138.562 425.989 139.93 425.989Z" fill="black"/>
<defs>
<clipPath id="clip0_1573_2308">
<rect width="28.5" height="28.5" fill="white" transform="translate(227.419 12.75)"/>
</clipPath>
<clipPath id="clip1_1573_2308">
<rect width="30.4" height="30.4" fill="white" transform="translate(202.073 510.664)"/>
</clipPath>
<clipPath id="clip2_1573_2308">
<rect width="30.4" height="30.4" fill="white" transform="translate(11.7976 176.463)"/>
</clipPath>
<clipPath id="clip3_1573_2308">
<rect width="30.4" height="30.4" fill="white" transform="translate(383.81 408.207)"/>
</clipPath>
<clipPath id="clip4_1573_2308">
<rect width="30.4" height="30.4" fill="white" transform="translate(419.181 176.463)"/>
</clipPath>
<clipPath id="clip5_1573_2308">
<rect width="30.4" height="30.4" fill="white" transform="translate(37.4109 408.207)"/>
</clipPath>
</defs>
</svg>
