<svg width="725" height="653" viewBox="0 0 725 653" fill="none" xmlns="http://www.w3.org/2000/svg">
<path opacity="0.9" d="M616.146 287.923C616.354 289.232 616.551 290.545 616.739 291.861L615.751 292.003C615.844 292.656 615.935 293.311 616.023 293.966L617.014 293.833C617.191 295.148 617.357 296.467 617.515 297.788L616.523 297.906C616.602 298.565 616.679 299.224 616.752 299.884L617.743 299.773C617.89 301.093 618.028 302.416 618.155 303.741H618.156L617.161 303.837C617.224 304.493 617.284 305.151 617.342 305.809L618.337 305.721C618.453 307.041 618.559 308.365 618.655 309.691L617.659 309.765C617.707 310.425 617.753 311.086 617.796 311.748L618.792 311.684C618.878 313.012 618.955 314.342 619.021 315.676L618.023 315.726C618.056 316.383 618.086 317.041 618.113 317.7L619.11 317.659C619.166 318.982 619.212 320.308 619.247 321.636L618.249 321.662C618.267 322.324 618.281 322.987 618.294 323.649L619.294 323.63V323.629C619.319 324.96 619.333 326.294 619.338 327.63L618.34 327.634C618.341 327.966 618.342 328.299 618.342 328.632C618.342 328.965 618.341 329.297 618.34 329.63L619.338 329.633C619.333 330.969 619.319 332.302 619.294 333.633L618.294 333.614C618.281 334.277 618.267 334.939 618.249 335.601L619.247 335.626C619.212 336.954 619.166 338.28 619.11 339.604L618.113 339.562C618.086 340.222 618.056 340.88 618.023 341.538L619.021 341.586C618.955 342.919 618.878 344.25 618.792 345.578L617.796 345.515C617.753 346.177 617.707 346.838 617.659 347.499L618.655 347.57C618.559 348.897 618.453 350.221 618.337 351.542L617.342 351.455C617.284 352.113 617.224 352.77 617.161 353.427L618.155 353.521C618.028 354.846 617.89 356.169 617.743 357.489L616.752 357.38C616.679 358.04 616.602 358.698 616.523 359.356L617.515 359.474C617.357 360.795 617.191 362.114 617.014 363.43L616.023 363.297C615.935 363.952 615.844 364.606 615.751 365.26L616.739 365.4C616.551 366.716 616.354 368.029 616.146 369.339L615.16 369.184C615.056 369.839 614.95 370.494 614.841 371.148L615.826 371.312C615.607 372.625 615.378 373.935 615.14 375.242L614.158 375.063C614.039 375.714 613.918 376.365 613.794 377.014L614.775 377.2C614.527 378.504 614.269 379.805 614.001 381.103L613.022 380.901C612.888 381.552 612.752 382.201 612.612 382.85L613.588 383.059C613.308 384.361 613.019 385.66 612.72 386.955L611.747 386.73C611.598 387.375 611.447 388.019 611.293 388.662L612.264 388.895C611.955 390.186 611.636 391.473 611.308 392.757L610.341 392.51C610.177 393.152 610.009 393.794 609.84 394.435L610.807 394.689C610.467 395.977 610.115 397.261 609.756 398.541L608.795 398.271C608.616 398.909 608.434 399.546 608.25 400.182L609.209 400.458C608.84 401.734 608.461 403.006 608.073 404.274L607.119 403.982C606.925 404.615 606.729 405.246 606.53 405.877L607.482 406.177C607.082 407.448 606.675 408.715 606.256 409.978L605.307 409.662C605.098 410.291 604.887 410.918 604.674 411.545L605.62 411.866C605.192 413.124 604.753 414.378 604.306 415.627L603.365 415.291C603.143 415.913 602.918 416.534 602.69 417.154L603.629 417.498C603.17 418.749 602.701 419.994 602.224 421.235L601.291 420.878C601.053 421.496 600.814 422.114 600.571 422.729L601.5 423.095C601.013 424.331 600.518 425.564 600.013 426.791L599.089 426.411C598.837 427.023 598.583 427.633 598.327 428.242L599.247 428.629C598.731 429.856 598.206 431.078 597.672 432.295L596.757 431.894C596.49 432.5 596.222 433.106 595.951 433.71L596.861 434.118C596.317 435.331 595.765 436.539 595.203 437.742L594.299 437.32C594.019 437.92 593.737 438.518 593.452 439.114L594.354 439.544C593.781 440.745 593.2 441.94 592.609 443.131L591.715 442.688C591.421 443.281 591.124 443.873 590.825 444.464L591.718 444.915C591.118 446.102 590.507 447.282 589.89 448.458L589.006 447.994C588.698 448.58 588.388 449.164 588.076 449.747L588.957 450.219C588.33 451.391 587.693 452.557 587.049 453.719L586.176 453.235C585.854 453.814 585.531 454.392 585.205 454.969L586.074 455.46C585.42 456.618 584.757 457.77 584.085 458.916L583.224 458.411C582.889 458.982 582.553 459.552 582.214 460.12L583.071 460.631C582.391 461.773 581.703 462.91 581.005 464.04L580.154 463.515C579.806 464.078 579.456 464.64 579.104 465.201L579.949 465.732C579.242 466.858 578.527 467.979 577.803 469.093L576.965 468.549C576.604 469.104 576.242 469.658 575.877 470.21L576.711 470.76C575.978 471.869 575.237 472.971 574.487 474.068L573.663 473.505C573.289 474.052 572.914 474.598 572.536 475.142L573.356 475.711C572.598 476.803 571.83 477.889 571.056 478.969L570.245 478.387C569.859 478.925 569.471 479.461 569.081 479.996L569.889 480.584C569.106 481.658 568.315 482.725 567.516 483.786L566.718 483.186C566.319 483.715 565.919 484.243 565.517 484.769L566.31 485.375C565.502 486.431 564.686 487.48 563.862 488.523L563.078 487.905C562.668 488.425 562.256 488.943 561.842 489.459L562.621 490.083C561.789 491.12 560.951 492.15 560.104 493.174L559.333 492.537C558.911 493.047 558.487 493.556 558.061 494.062L558.825 494.704C557.97 495.722 557.107 496.733 556.236 497.737L555.481 497.083C555.048 497.583 554.612 498.081 554.175 498.578L554.924 499.238C554.045 500.236 553.159 501.225 552.266 502.209L551.527 501.538C551.082 502.028 550.634 502.516 550.186 503.003L550.921 503.681C550.02 504.658 549.11 505.627 548.194 506.59L547.471 505.902C547.015 506.382 546.557 506.86 546.097 507.336L546.815 508.03C545.892 508.986 544.96 509.934 544.022 510.876L543.315 510.172C542.848 510.641 542.379 511.108 541.908 511.573L542.61 512.283C541.665 513.218 540.713 514.145 539.754 515.065L539.063 514.345C538.586 514.803 538.106 515.259 537.625 515.714L538.31 516.438C537.343 517.351 536.371 518.257 535.391 519.155L534.716 518.419C534.228 518.866 533.738 519.312 533.246 519.755L533.915 520.496C532.928 521.386 531.935 522.269 530.935 523.144L530.277 522.392C529.779 522.827 529.279 523.261 528.777 523.693L529.429 524.45C528.422 525.317 527.408 526.177 526.388 527.029L525.747 526.263C525.239 526.687 524.729 527.109 524.218 527.529L524.852 528.301C523.825 529.144 522.792 529.981 521.753 530.809L521.131 530.027C520.613 530.44 520.094 530.85 519.573 531.259L520.189 532.045C519.144 532.865 518.091 533.676 517.032 534.48L516.428 533.686C515.901 534.086 515.372 534.485 514.842 534.882L515.439 535.682C514.376 536.477 513.305 537.264 512.229 538.043L511.644 537.234C511.108 537.622 510.57 538.009 510.031 538.393L510.61 539.206C509.528 539.977 508.439 540.74 507.345 541.495L506.777 540.673C506.232 541.049 505.686 541.423 505.138 541.795L505.698 542.621C504.599 543.367 503.494 544.104 502.383 544.833L501.835 543.998C501.282 544.361 500.727 544.722 500.171 545.081L500.712 545.92C499.595 546.64 498.473 547.353 497.345 548.057L496.816 547.209C496.254 547.559 495.691 547.908 495.126 548.254L495.647 549.105C494.515 549.8 493.377 550.485 492.233 551.162L491.725 550.303C491.155 550.64 490.585 550.975 490.013 551.308L490.516 552.172C489.367 552.84 488.212 553.499 487.053 554.149L486.564 553.278C485.987 553.602 485.407 553.924 484.827 554.244L485.31 555.119C484.146 555.76 482.977 556.393 481.803 557.017L481.335 556.135C480.751 556.445 480.166 556.753 479.579 557.059L480.04 557.943C478.862 558.557 477.68 559.163 476.491 559.76L476.043 558.868C475.451 559.165 474.858 559.46 474.264 559.753L474.704 560.648C473.512 561.235 472.315 561.814 471.113 562.383L470.687 561.479C470.089 561.762 469.49 562.043 468.89 562.321L469.31 563.227C468.105 563.785 466.895 564.336 465.681 564.877L465.275 563.965C464.67 564.234 464.063 564.501 463.456 564.766L463.855 565.682C462.637 566.213 461.414 566.734 460.186 567.247L459.801 566.326C459.191 566.581 458.581 566.833 457.969 567.083L458.346 568.008C457.117 568.51 455.884 569.003 454.646 569.486L454.282 568.557C453.666 568.798 453.048 569.036 452.429 569.272L452.784 570.206C451.542 570.68 450.295 571.146 449.044 571.602L448.702 570.663C448.082 570.889 447.46 571.113 446.838 571.334L447.172 572.274C445.922 572.719 444.667 573.154 443.408 573.58L443.089 572.634C442.462 572.846 441.833 573.056 441.204 573.264L441.517 574.212C440.253 574.628 438.986 575.034 437.714 575.432L437.416 574.479C436.785 574.677 436.153 574.871 435.521 575.063L435.811 576.02C434.542 576.405 433.269 576.781 431.992 577.147L431.718 576.188C431.082 576.37 430.445 576.551 429.807 576.729L430.074 577.69C428.793 578.048 427.509 578.395 426.22 578.733L425.967 577.768C425.326 577.936 424.684 578.101 424.042 578.264L424.287 579.231C423.003 579.558 421.716 579.876 420.424 580.183L420.193 579.21C419.55 579.363 418.905 579.513 418.26 579.661L418.482 580.635C417.187 580.932 415.888 581.219 414.585 581.497L414.378 580.521C413.729 580.659 413.078 580.795 412.428 580.929L412.628 581.907C411.331 582.173 410.03 582.429 408.726 582.676L408.54 581.694C407.891 581.817 407.241 581.938 406.59 582.056L406.768 583.038C405.46 583.275 404.15 583.503 402.836 583.72L402.674 582.734C402.02 582.843 401.364 582.949 400.708 583.052L400.862 584.038C399.553 584.244 398.24 584.44 396.924 584.627L396.784 583.638C396.13 583.73 395.476 583.821 394.82 583.909L394.953 584.899C393.637 585.076 392.318 585.241 390.996 585.397L390.88 584.405C390.222 584.483 389.562 584.559 388.902 584.632L389.011 585.624C387.691 585.77 386.369 585.907 385.044 586.033L384.949 585.038C384.293 585.1 383.635 585.16 382.978 585.218L383.063 586.213C381.742 586.328 380.418 586.434 379.092 586.529L379.021 585.533C378.36 585.581 377.698 585.626 377.036 585.669L377.1 586.665C375.772 586.751 374.441 586.826 373.107 586.892L373.06 585.895C372.402 585.927 371.743 585.957 371.084 585.984L371.125 586.981C369.802 587.036 368.476 587.082 367.147 587.117L367.122 586.118C366.461 586.136 365.798 586.152 365.136 586.164L365.154 587.163C363.823 587.188 362.49 587.202 361.154 587.207L361.151 586.209C360.819 586.21 360.485 586.211 360.152 586.211C359.82 586.211 359.487 586.21 359.154 586.209L359.15 587.207C357.815 587.202 356.481 587.188 355.15 587.163H355.151L355.17 586.164C354.507 586.152 353.845 586.136 353.184 586.118L353.157 587.117C351.829 587.082 350.503 587.036 349.18 586.981L349.222 585.984C348.563 585.957 347.904 585.927 347.246 585.895L347.197 586.892C345.864 586.826 344.533 586.751 343.205 586.665L343.269 585.669C342.607 585.626 341.945 585.581 341.284 585.533L341.213 586.529C339.886 586.434 338.562 586.328 337.241 586.213L337.328 585.218C336.67 585.16 336.013 585.1 335.356 585.038L335.262 586.033H335.261C333.935 585.907 332.613 585.77 331.294 585.624L331.403 584.632C330.743 584.559 330.084 584.483 329.426 584.405L329.309 585.397C327.986 585.241 326.667 585.076 325.351 584.899H325.352L325.484 583.909C324.829 583.821 324.175 583.73 323.521 583.638L323.381 584.627C322.065 584.44 320.752 584.244 319.442 584.038L319.598 583.052C318.942 582.949 318.286 582.843 317.632 582.734L317.469 583.72C316.155 583.503 314.844 583.275 313.537 583.038L313.716 582.056C313.065 581.938 312.414 581.817 311.765 581.694L311.579 582.676C310.275 582.429 308.974 582.173 307.677 581.907L307.878 580.929C307.227 580.795 306.577 580.659 305.928 580.521L305.72 581.497C304.417 581.219 303.117 580.932 301.821 580.635L302.045 579.661C301.4 579.513 300.756 579.363 300.112 579.21L299.881 580.182C298.589 579.875 297.301 579.558 296.017 579.231L296.263 578.264C295.62 578.101 294.979 577.935 294.339 577.768L294.085 578.733C292.796 578.395 291.511 578.048 290.23 577.69L290.499 576.729C289.861 576.551 289.224 576.37 288.588 576.188L288.312 577.147C287.036 576.781 285.763 576.405 284.494 576.02L284.784 575.063C284.152 574.871 283.52 574.676 282.89 574.479L282.591 575.432C281.319 575.034 280.051 574.628 278.788 574.212L279.102 573.264C278.472 573.056 277.844 572.847 277.217 572.635L276.896 573.58C275.638 573.154 274.383 572.719 273.133 572.274L273.468 571.334C272.845 571.113 272.224 570.889 271.604 570.663L271.261 571.602C270.009 571.146 268.762 570.68 267.52 570.205L267.877 569.272C267.258 569.036 266.64 568.798 266.023 568.557L265.659 569.486C264.421 569.003 263.188 568.51 261.959 568.008L262.337 567.083C261.725 566.833 261.114 566.581 260.505 566.326L260.119 567.247C258.891 566.734 257.668 566.213 256.449 565.682L256.849 564.766C256.241 564.501 255.635 564.234 255.03 563.965L254.624 564.877C253.409 564.336 252.2 563.785 250.995 563.227L251.416 562.321C250.816 562.043 250.217 561.762 249.619 561.479L249.191 562.383C247.989 561.814 246.792 561.235 245.601 560.648L246.042 559.753C245.448 559.46 244.854 559.165 244.263 558.868L243.813 559.761C242.625 559.164 241.442 558.558 240.265 557.944L240.727 557.059C240.14 556.753 239.555 556.445 238.971 556.135L238.502 557.017C237.328 556.393 236.159 555.76 234.995 555.119L235.479 554.244C234.898 553.924 234.319 553.602 233.741 553.278L233.252 554.149C232.092 553.499 230.938 552.84 229.789 552.172H229.79L230.292 551.308C229.72 550.975 229.149 550.64 228.58 550.303L228.071 551.162C226.928 550.485 225.79 549.8 224.657 549.105L225.18 548.254C224.615 547.908 224.051 547.559 223.489 547.209L222.96 548.057C221.832 547.353 220.709 546.64 219.593 545.92L220.135 545.081C219.579 544.722 219.024 544.361 218.471 543.998L217.922 544.834C216.811 544.105 215.706 543.367 214.606 542.621L215.168 541.795C214.62 541.423 214.073 541.05 213.527 540.674L212.96 541.496C211.865 540.741 210.777 539.977 209.694 539.206L210.274 538.394C209.735 538.01 209.198 537.623 208.662 537.235L208.075 538.043C206.999 537.264 205.929 536.477 204.865 535.682L205.464 534.882C204.933 534.485 204.404 534.087 203.877 533.687L203.272 534.481C202.214 533.677 201.161 532.865 200.115 532.045L200.732 531.259C200.212 530.85 199.692 530.44 199.175 530.027L198.552 530.809C197.512 529.981 196.479 529.145 195.453 528.302L196.088 527.53C195.576 527.11 195.067 526.687 194.559 526.263L193.917 527.029C192.897 526.177 191.883 525.317 190.876 524.45L191.528 523.693C191.027 523.261 190.527 522.827 190.028 522.392L189.37 523.144C188.37 522.269 187.376 521.386 186.39 520.496L187.06 519.755C186.568 519.312 186.078 518.866 185.59 518.419L184.914 519.155C183.934 518.257 182.96 517.352 181.994 516.439L182.681 515.714C182.199 515.259 181.72 514.803 181.242 514.345L180.551 515.064C179.592 514.145 178.639 513.218 177.694 512.283L178.397 511.573C177.927 511.108 177.457 510.641 176.99 510.172L176.282 510.876C175.344 509.934 174.413 508.986 173.489 508.03L174.209 507.336C173.749 506.86 173.291 506.382 172.835 505.902L172.11 506.591C171.194 505.628 170.285 504.659 169.384 503.682L170.12 503.003C169.671 502.516 169.223 502.028 168.778 501.538L168.039 502.209C167.146 501.225 166.259 500.236 165.381 499.238L166.131 498.578C165.693 498.081 165.258 497.583 164.824 497.083L164.068 497.737C163.198 496.733 162.335 495.722 161.479 494.705L162.245 494.062C161.819 493.556 161.394 493.047 160.972 492.537L160.202 493.174C159.355 492.15 158.516 491.12 157.685 490.083L158.464 489.459C158.05 488.943 157.638 488.425 157.228 487.905L156.442 488.523C155.619 487.48 154.803 486.431 153.995 485.375L154.789 484.769C154.387 484.243 153.986 483.716 153.588 483.187L152.789 483.787C151.99 482.726 151.199 481.658 150.416 480.584L151.225 479.996C150.835 479.461 150.446 478.925 150.061 478.388L149.249 478.97C148.474 477.89 147.707 476.803 146.948 475.711L147.77 475.142C147.392 474.598 147.016 474.053 146.643 473.506L145.817 474.068C145.068 472.971 144.326 471.869 143.594 470.76L144.429 470.21C144.064 469.658 143.7 469.104 143.34 468.549L142.502 469.093C141.778 467.979 141.063 466.858 140.355 465.732L141.202 465.202C140.85 464.641 140.499 464.078 140.151 463.515L139.301 464.04H139.3C138.602 462.91 137.914 461.773 137.233 460.631L138.092 460.12C137.753 459.552 137.417 458.982 137.082 458.411L136.22 458.916C135.548 457.77 134.885 456.618 134.23 455.46L135.101 454.969C134.775 454.392 134.451 453.814 134.13 453.235L133.256 453.72C132.611 452.558 131.975 451.391 131.348 450.219L132.229 449.748C131.917 449.165 131.607 448.58 131.3 447.994L130.415 448.458C129.797 447.282 129.187 446.102 128.587 444.915L129.48 444.464C129.182 443.873 128.885 443.281 128.591 442.688L127.695 443.131C127.105 441.94 126.524 440.745 125.951 439.544L126.854 439.114C126.569 438.518 126.287 437.919 126.007 437.32L125.102 437.743C124.539 436.54 123.986 435.331 123.442 434.118L124.354 433.71C124.084 433.106 123.814 432.5 123.548 431.894L122.633 432.295C122.098 431.078 121.574 429.856 121.058 428.629L121.979 428.242C121.722 427.633 121.468 427.023 121.217 426.412L120.292 426.791C119.787 425.564 119.291 424.331 118.805 423.095L119.734 422.729C119.492 422.113 119.251 421.496 119.014 420.878L118.081 421.235C117.604 419.994 117.134 418.748 116.676 417.498L117.615 417.154C117.388 416.534 117.162 415.913 116.939 415.291L115.999 415.627C115.552 414.378 115.113 413.124 114.685 411.866L115.632 411.545C115.418 410.918 115.207 410.291 114.998 409.662L114.049 409.977C113.63 408.714 113.221 407.448 112.821 406.177L113.774 405.877C113.576 405.247 113.38 404.615 113.187 403.982L112.23 404.274C111.842 403.006 111.464 401.734 111.095 400.458L112.055 400.182C111.871 399.546 111.69 398.909 111.511 398.271L110.549 398.541C110.189 397.261 109.838 395.977 109.498 394.688L110.465 394.435C110.296 393.794 110.129 393.152 109.965 392.51L108.997 392.757C108.669 391.473 108.35 390.186 108.041 388.895L109.013 388.663C108.859 388.02 108.708 387.375 108.559 386.73L107.584 386.955C107.285 385.66 106.996 384.361 106.717 383.059L107.693 382.85C107.554 382.201 107.418 381.552 107.283 380.901L106.304 381.103C106.036 379.805 105.778 378.504 105.529 377.2L106.511 377.014C106.387 376.365 106.266 375.715 106.147 375.064L105.164 375.242C104.926 373.935 104.697 372.625 104.479 371.312L105.465 371.148C105.356 370.494 105.249 369.839 105.146 369.184L104.157 369.339C103.95 368.029 103.752 366.716 103.564 365.4L104.555 365.261C104.461 364.607 104.371 363.952 104.282 363.297L103.291 363.43C103.114 362.114 102.947 360.795 102.789 359.474L103.781 359.356C103.703 358.698 103.627 358.039 103.554 357.38L102.561 357.489C102.414 356.17 102.276 354.847 102.149 353.521L103.145 353.427C103.082 352.77 103.022 352.113 102.964 351.455L101.967 351.543C101.851 350.222 101.746 348.897 101.649 347.57L102.646 347.499C102.598 346.838 102.553 346.177 102.51 345.515L101.513 345.579C101.427 344.251 101.349 342.92 101.283 341.586L102.282 341.538C102.25 340.88 102.22 340.222 102.192 339.562L101.194 339.604C101.139 338.28 101.093 336.954 101.058 335.626L102.057 335.601C102.039 334.939 102.023 334.277 102.011 333.614L101.011 333.633C100.985 332.302 100.971 330.969 100.966 329.633L101.966 329.63L101.964 328.632C101.964 328.299 101.965 327.966 101.966 327.634L100.966 327.63C100.971 326.294 100.985 324.96 101.011 323.629L101.012 323.63L102.011 323.649C102.023 322.987 102.039 322.325 102.057 321.663L101.058 321.636C101.093 320.308 101.139 318.982 101.194 317.659L102.192 317.701C102.22 317.042 102.25 316.383 102.282 315.726L101.284 315.676C101.35 314.342 101.427 313.012 101.513 311.684L102.51 311.749C102.553 311.087 102.598 310.425 102.646 309.765L101.649 309.692C101.746 308.365 101.851 307.041 101.967 305.72L101.968 305.721L102.964 305.809C103.022 305.151 103.082 304.493 103.145 303.837L102.149 303.741C102.276 302.416 102.414 301.093 102.561 299.773L103.554 299.884C103.627 299.224 103.703 298.565 103.781 297.907L102.789 297.788C102.946 296.467 103.114 295.148 103.291 293.833L104.282 293.967C104.371 293.312 104.461 292.657 104.555 292.003L103.564 291.862C103.752 290.546 103.95 289.233 104.157 287.924L105.146 288.08C105.249 287.424 105.356 286.769 105.465 286.115L104.479 285.95C104.697 284.637 104.926 283.326 105.164 282.02L106.147 282.199C106.266 281.548 106.387 280.898 106.511 280.249L105.529 280.062C105.778 278.758 106.036 277.457 106.304 276.16L107.283 276.362C107.418 275.712 107.554 275.063 107.693 274.414L106.717 274.204C106.889 273.402 107.064 272.6 107.244 271.801L107.584 270.308L108.559 270.533C108.708 269.888 108.859 269.244 109.013 268.601L108.041 268.368C108.35 267.077 108.669 265.789 108.997 264.506L109.965 264.754C110.129 264.112 110.296 263.47 110.465 262.829L109.498 262.574C109.838 261.286 110.188 260.002 110.548 258.722L111.511 258.992C111.69 258.355 111.871 257.718 112.055 257.082L111.095 256.805C111.438 255.619 111.788 254.437 112.147 253.259L112.23 252.988L113.187 253.281C113.38 252.649 113.576 252.016 113.774 251.386L112.821 251.086C113.221 249.815 113.63 248.548 114.049 247.286L114.998 247.602C115.207 246.973 115.418 246.345 115.632 245.719L114.685 245.396C115.113 244.139 115.551 242.885 115.998 241.636L116.939 241.973C117.162 241.351 117.388 240.729 117.615 240.109L116.676 239.765C117.135 238.514 117.604 237.268 118.081 236.026L119.014 236.386C119.251 235.767 119.492 235.15 119.734 234.534L118.805 234.168C119.291 232.931 119.787 231.699 120.292 230.472L121.217 230.852C121.468 230.24 121.722 229.63 121.979 229.021L121.058 228.634C121.556 227.448 122.063 226.267 122.579 225.09L122.633 224.968L123.548 225.369C123.814 224.763 124.084 224.158 124.354 223.554L123.441 223.145C123.985 221.931 124.538 220.723 125.101 219.52L126.007 219.943C126.287 219.344 126.569 218.746 126.854 218.149L125.951 217.719C126.524 216.518 127.105 215.322 127.695 214.132L128.591 214.576C128.885 213.983 129.182 213.39 129.48 212.799L128.588 212.349L128.587 212.348C129.187 211.161 129.797 209.98 130.415 208.804L131.3 209.269C131.607 208.683 131.917 208.099 132.229 207.516L131.348 207.044C131.975 205.872 132.611 204.705 133.256 203.543L134.13 204.028C134.451 203.449 134.775 202.871 135.101 202.295L134.23 201.803C134.885 200.645 135.548 199.493 136.22 198.347L137.082 198.853C137.417 198.282 137.753 197.712 138.092 197.144L137.233 196.632C137.914 195.49 138.602 194.353 139.3 193.223L139.301 193.224L140.151 193.749C140.499 193.185 140.85 192.622 141.202 192.062L140.354 191.53C140.831 190.771 141.312 190.014 141.797 189.26L142.502 188.17L143.34 188.714C143.7 188.159 144.063 187.606 144.428 187.054L143.594 186.503C144.326 185.394 145.067 184.291 145.816 183.194L146.643 183.758C147.016 183.211 147.392 182.666 147.77 182.122L146.948 181.552L146.947 181.551C147.706 180.459 148.473 179.373 149.248 178.293L150.061 178.876C150.446 178.338 150.834 177.802 151.224 177.268L150.416 176.679C151.199 175.605 151.99 174.537 152.789 173.476L153.588 174.077C153.986 173.548 154.387 173.021 154.789 172.495L153.995 171.888C154.803 170.832 155.619 169.782 156.442 168.738L157.227 169.358C157.637 168.839 158.05 168.321 158.464 167.805L157.685 167.179C158.516 166.142 159.354 165.112 160.201 164.089L160.972 164.727C161.394 164.216 161.818 163.708 162.244 163.201L161.479 162.558C162.335 161.54 163.198 160.529 164.068 159.525L164.824 160.181C165.258 159.681 165.693 159.182 166.131 158.686L165.381 158.024C166.259 157.027 167.145 156.036 168.038 155.053L168.778 155.726C169.223 155.236 169.67 154.746 170.119 154.26L169.385 153.582L169.384 153.581C170.285 152.604 171.194 151.635 172.11 150.672L172.835 151.361C173.291 150.882 173.749 150.404 174.209 149.928L173.49 149.232C174.413 148.277 175.345 147.328 176.282 146.387L176.99 147.092C177.457 146.623 177.926 146.156 178.396 145.69L177.693 144.979C178.638 144.045 179.591 143.118 180.551 142.198L181.242 142.919C181.72 142.461 182.199 142.004 182.681 141.55L181.994 140.823C182.901 139.967 183.813 139.117 184.732 138.273L184.914 138.107L185.59 138.845C186.078 138.398 186.567 137.952 187.059 137.509L186.39 136.767C187.376 135.877 188.369 134.993 189.369 134.118L189.37 134.119L190.028 134.872C190.527 134.436 191.027 134.002 191.528 133.57L190.876 132.812C191.883 131.945 192.897 131.085 193.917 130.233L194.558 131.001C195.066 130.577 195.576 130.154 196.088 129.733L195.453 128.961C196.479 128.117 197.512 127.282 198.552 126.454L199.175 127.236C199.692 126.824 200.212 126.413 200.732 126.005L200.115 125.218C201.161 124.398 202.214 123.586 203.272 122.781L203.877 123.577C204.404 123.177 204.933 122.778 205.464 122.382L204.865 121.581C205.929 120.786 206.999 119.998 208.075 119.219L208.662 120.028C209.198 119.64 209.735 119.254 210.274 118.87L209.694 118.056C210.777 117.285 211.865 116.521 212.96 115.767L213.527 116.59C214.073 116.214 214.62 115.841 215.168 115.469L214.606 114.642C215.677 113.916 216.752 113.197 217.834 112.486L217.922 112.429L218.471 113.265C219.024 112.902 219.579 112.541 220.135 112.183L219.593 111.342C220.316 110.875 221.041 110.412 221.77 109.952L222.96 109.206L223.489 110.055C224.051 109.704 224.615 109.356 225.18 109.01L224.657 108.157C225.79 107.463 226.927 106.777 228.071 106.1L228.58 106.961C229.149 106.624 229.72 106.289 230.292 105.956L229.789 105.092L229.788 105.091C230.937 104.423 232.092 103.764 233.252 103.113L233.741 103.985C234.319 103.661 234.897 103.338 235.478 103.019L234.995 102.144C236.158 101.502 237.327 100.87 238.501 100.246L238.971 101.129C239.555 100.819 240.14 100.511 240.727 100.205L240.264 99.3193C241.357 98.7494 242.454 98.1856 243.556 97.6309L243.813 97.502L244.262 98.3955C244.854 98.0984 245.447 97.8034 246.042 97.5107L245.6 96.6143C246.792 96.0273 247.989 95.449 249.191 94.8799L249.619 95.7842C250.216 95.5015 250.815 95.2207 251.415 94.9424L250.995 94.0352C252.2 93.4763 253.409 92.9266 254.624 92.3857L255.03 93.2988C255.635 93.0295 256.241 92.7628 256.849 92.498L256.449 91.5811C257.668 91.0498 258.891 90.5277 260.119 90.0146L260.504 90.9375C261.114 90.6828 261.725 90.4298 262.337 90.1797L261.959 89.2549C263.188 88.7527 264.421 88.2592 265.659 87.7754L266.023 88.707C266.64 88.4661 267.258 88.2266 267.877 87.9902L267.52 87.0576C268.762 86.5831 270.009 86.117 271.261 85.6611L271.604 86.6006C272.224 86.3747 272.845 86.151 273.468 85.9297L273.133 84.9883C274.383 84.5438 275.637 84.1074 276.896 83.6816L277.217 84.6289C277.844 84.4169 278.472 84.2074 279.102 84L278.788 83.0498C280.051 82.6335 281.319 82.2275 282.591 81.8301L282.889 82.7842C283.519 82.5871 284.151 82.3925 284.784 82.2002L284.493 81.2432C285.762 80.8574 287.035 80.482 288.312 80.1152L288.588 81.0752C289.224 80.8926 289.861 80.713 290.499 80.5352L290.23 79.5723C291.511 79.2151 292.796 78.8672 294.085 78.5293L294.339 79.4961C294.979 79.3282 295.62 79.1621 296.263 78.999L296.017 78.0312C297.301 77.7051 298.589 77.388 299.881 77.0811L300.112 78.0537C300.756 77.9009 301.4 77.7506 302.045 77.6025L301.821 76.627C303.117 76.3297 304.417 76.0435 305.72 75.7656L305.928 76.7432C306.577 76.6048 307.226 76.4684 307.877 76.335L307.677 75.3555C308.974 75.0894 310.275 74.8336 311.579 74.5869L311.765 75.5684C312.414 75.4455 313.065 75.325 313.716 75.207L313.537 74.2246C314.844 73.9878 316.155 73.7592 317.469 73.542L317.632 74.5293C318.286 74.4211 318.942 74.3152 319.598 74.2119L319.442 73.2246C320.752 73.0185 322.065 72.8222 323.381 72.6357L323.521 73.625C324.175 73.5324 324.829 73.4422 325.484 73.3545L325.352 72.3633C326.667 72.1871 327.987 72.0216 329.309 71.8652L329.426 72.8574C330.084 72.7795 330.743 72.7048 331.403 72.6318L331.293 71.6387C332.613 71.4928 333.936 71.3555 335.262 71.2295L335.356 72.2256C336.013 72.1632 336.67 72.1024 337.328 72.0449L337.241 71.0498C338.562 70.9344 339.886 70.829 341.213 70.7334L341.284 71.7305C341.945 71.6829 342.606 71.6374 343.269 71.5947L343.205 70.5967C344.533 70.5112 345.864 70.4366 347.197 70.3711L347.246 71.3691C347.904 71.3368 348.562 71.3067 349.221 71.2793L349.18 70.2812C350.503 70.2263 351.828 70.1796 353.156 70.1445L353.157 70.1455L353.184 71.1445C353.845 71.127 354.507 71.1121 355.17 71.0996L355.151 70.0996C356.482 70.0745 357.815 70.0597 359.15 70.0547L359.154 71.0547C359.487 71.0534 359.82 71.0527 360.152 71.0527C360.485 71.0527 360.819 71.0534 361.151 71.0547L361.153 70.0547C362.489 70.0597 363.822 70.0745 365.153 70.0996L365.136 71.0996C365.798 71.1121 366.461 71.127 367.122 71.1445L367.148 70.1455V70.1445C368.476 70.1796 369.802 70.2263 371.125 70.2812L371.084 71.2793C371.743 71.3067 372.402 71.3368 373.06 71.3691L373.107 70.3711C374.441 70.4366 375.772 70.5112 377.1 70.5967L377.036 71.5947C377.698 71.6374 378.36 71.6829 379.021 71.7305L379.092 70.7334C380.418 70.829 381.742 70.9344 383.063 71.0498L382.978 72.0449C383.635 72.1024 384.293 72.1632 384.949 72.2256L385.043 71.2295C386.369 71.3555 387.691 71.4928 389.011 71.6387L388.902 72.6318C389.562 72.7048 390.222 72.7796 390.88 72.8574L390.996 71.8652C392.318 72.0216 393.637 72.1872 394.952 72.3633L394.82 73.3545C395.476 73.4422 396.13 73.5324 396.784 73.625L396.924 72.6357C398.24 72.8222 399.553 73.0185 400.862 73.2246L400.708 74.2119C401.364 74.3151 402.019 74.4212 402.673 74.5293L402.836 73.542C404.15 73.7592 405.46 73.9878 406.768 74.2246L406.59 75.207C407.241 75.325 407.891 75.4456 408.54 75.5684L408.726 74.5869C410.03 74.8336 411.331 75.0894 412.628 75.3555H412.629L412.428 76.335C413.078 76.4684 413.728 76.6048 414.377 76.7432L414.585 75.7656C415.888 76.0434 417.187 76.3297 418.482 76.627L418.26 77.6025C418.905 77.7506 419.55 77.9008 420.193 78.0537L420.423 77.0801C421.715 77.387 423.003 77.7051 424.287 78.0312L424.042 78.999C424.684 79.1622 425.326 79.3281 425.967 79.4961L426.22 78.5293C427.509 78.8672 428.793 79.2151 430.074 79.5723L429.807 80.5352C430.444 80.713 431.081 80.8926 431.717 81.0752L431.992 80.1152C433.269 80.482 434.543 80.8565 435.812 81.2422V81.2432L435.521 82.2002C436.153 82.3926 436.785 82.5871 437.416 82.7842L437.713 81.8301C438.985 82.2275 440.252 82.6335 441.516 83.0498L441.204 84C441.833 84.2073 442.461 84.4169 443.088 84.6289L443.407 83.6816C444.667 84.1075 445.921 84.5437 447.172 84.9883L446.838 85.9297C447.46 86.151 448.082 86.3747 448.702 86.6006L449.043 85.6611C450.295 86.117 451.542 86.5822 452.784 87.0566L452.429 87.9902C453.048 88.2266 453.666 88.4651 454.282 88.7061L454.646 87.7754C455.884 88.2592 457.117 88.7527 458.346 89.2549L457.969 90.1797C458.581 90.4298 459.191 90.6829 459.801 90.9375L460.186 90.0146C461.413 90.5276 462.636 91.0499 463.854 91.5811H463.855L463.456 92.4971C464.063 92.7619 464.67 93.0295 465.274 93.2988L465.681 92.3857C466.895 92.9266 468.105 93.4763 469.31 94.0352L468.89 94.9424C469.49 95.2207 470.088 95.5014 470.686 95.7842L471.113 94.8799C472.315 95.4489 473.512 96.0274 474.704 96.6143L474.264 97.5107C474.858 97.8034 475.451 98.0984 476.043 98.3955L476.49 97.502C477.679 98.0986 478.862 98.705 480.04 99.3193L479.579 100.205C480.166 100.511 480.751 100.819 481.335 101.129L481.803 100.246C482.977 100.87 484.145 101.502 485.309 102.144L484.827 103.019C485.407 103.338 485.987 103.661 486.564 103.985L487.053 103.113C488.212 103.764 489.367 104.423 490.516 105.091V105.092L490.013 105.956C490.585 106.289 491.156 106.623 491.725 106.96L492.233 106.1C493.377 106.777 494.515 107.462 495.647 108.156L495.126 109.009C495.691 109.355 496.254 109.704 496.816 110.055L497.345 109.206C498.473 109.91 499.595 110.621 500.712 111.342L500.171 112.183C500.727 112.541 501.282 112.902 501.835 113.265L502.382 112.429C503.493 113.158 504.598 113.895 505.697 114.641L505.138 115.468C505.686 115.84 506.232 116.214 506.777 116.59L507.345 115.768C508.439 116.522 509.528 117.286 510.61 118.057L510.03 118.87C510.569 119.254 511.108 119.64 511.644 120.028L512.229 119.219C513.305 119.998 514.375 120.785 515.438 121.58L514.841 122.381C515.371 122.777 515.9 123.177 516.428 123.577L517.032 122.781C518.091 123.585 519.144 124.397 520.189 125.217V125.218L519.573 126.005C520.094 126.413 520.613 126.824 521.131 127.236L521.753 126.454C522.792 127.282 523.825 128.117 524.852 128.961L524.218 129.733C524.729 130.154 525.239 130.577 525.747 131.001L526.388 130.233V130.232C527.408 131.084 528.422 131.945 529.429 132.812L528.777 133.57C529.279 134.002 529.779 134.435 530.277 134.871L530.936 134.119V134.118C531.936 134.993 532.929 135.876 533.915 136.766L533.246 137.509C533.738 137.952 534.228 138.398 534.716 138.845L535.391 138.107C536.371 139.005 537.343 139.911 538.31 140.823L537.624 141.55C538.105 142.004 538.585 142.461 539.062 142.919L539.754 142.197C540.713 143.117 541.665 144.044 542.61 144.979L541.908 145.689C542.379 146.155 542.848 146.623 543.315 147.092L544.021 146.387C544.959 147.328 545.891 148.276 546.814 149.232L546.096 149.928C546.556 150.404 547.014 150.882 547.471 151.361L548.194 150.672C549.11 151.635 550.02 152.604 550.921 153.581V153.582L550.186 154.26C550.634 154.746 551.081 155.235 551.526 155.725L552.266 155.053C553.159 156.036 554.045 157.027 554.924 158.024H554.925L554.174 158.685C554.611 159.181 555.048 159.681 555.481 160.181L556.235 159.525C557.106 160.529 557.97 161.54 558.825 162.558L558.061 163.201C558.487 163.708 558.911 164.216 559.333 164.727L560.103 164.089C560.95 165.112 561.789 166.142 562.62 167.179L561.842 167.805C562.256 168.321 562.668 168.839 563.078 169.358L563.862 168.738C564.686 169.781 565.502 170.831 566.31 171.887L565.517 172.495C565.919 173.021 566.32 173.548 566.718 174.077L567.515 173.476C568.314 174.537 569.106 175.604 569.889 176.678L569.081 177.268C569.471 177.802 569.859 178.338 570.245 178.876L571.056 178.293C571.831 179.373 572.598 180.459 573.356 181.551H573.357L572.536 182.121C572.914 182.665 573.289 183.211 573.663 183.758L574.487 183.193C575.237 184.29 575.977 185.393 576.71 186.502L575.877 187.054C576.242 187.606 576.604 188.159 576.965 188.714L577.803 188.169C578.527 189.283 579.242 190.403 579.949 191.529L579.104 192.062C579.456 192.622 579.806 193.184 580.154 193.748L581.004 193.223C581.702 194.353 582.391 195.489 583.071 196.631L582.214 197.144C582.553 197.712 582.889 198.281 583.224 198.852L584.085 198.347C584.757 199.493 585.42 200.645 586.074 201.803L585.205 202.295C585.531 202.871 585.854 203.449 586.176 204.028L587.049 203.543C587.694 204.705 588.33 205.872 588.957 207.044L588.076 207.516C588.388 208.099 588.698 208.683 589.006 209.269L589.89 208.804C590.507 209.98 591.117 211.161 591.717 212.348H591.718L590.825 212.799C591.124 213.39 591.421 213.983 591.715 214.576L592.609 214.132C593.2 215.322 593.781 216.518 594.354 217.719L593.452 218.149C593.736 218.746 594.019 219.344 594.299 219.943L595.203 219.52C595.765 220.722 596.317 221.931 596.861 223.144L595.951 223.553C596.222 224.157 596.49 224.763 596.757 225.369L597.672 224.968C598.206 226.185 598.731 227.407 599.247 228.634L598.327 229.021C598.583 229.63 598.837 230.24 599.089 230.852L600.012 230.471C600.517 231.698 601.013 232.931 601.5 234.168L600.571 234.534C600.814 235.15 601.053 235.767 601.291 236.386L602.223 236.026C602.7 237.268 603.17 238.513 603.629 239.764V239.765L602.69 240.109C602.918 240.729 603.143 241.351 603.365 241.973L604.306 241.635C604.753 242.884 605.191 244.138 605.619 245.396H605.62L604.674 245.719C604.887 246.345 605.098 246.973 605.307 247.602L606.256 247.286V247.285C606.675 248.548 607.082 249.815 607.482 251.086L606.53 251.386C606.729 252.016 606.925 252.649 607.119 253.281L608.073 252.988C608.461 254.256 608.84 255.528 609.209 256.804L608.25 257.082C608.434 257.718 608.616 258.355 608.795 258.992L609.756 258.722C610.115 260.002 610.466 261.285 610.806 262.573H610.807L609.84 262.829C610.009 263.469 610.176 264.111 610.34 264.753L611.308 264.506C611.636 265.789 611.955 267.077 612.264 268.368H612.265L611.293 268.601C611.447 269.244 611.598 269.888 611.747 270.533L612.72 270.308C613.019 271.603 613.308 272.902 613.588 274.204L612.612 274.414C612.752 275.063 612.888 275.712 613.022 276.362L614.001 276.16C614.269 277.457 614.527 278.758 614.775 280.062L613.794 280.249C613.918 280.898 614.039 281.548 614.158 282.199L615.14 282.02C615.378 283.326 615.607 284.637 615.826 285.95H615.827L614.841 286.114C614.95 286.768 615.056 287.424 615.16 288.08L616.146 287.923Z" stroke="white" stroke-width="2" stroke-linejoin="round" stroke-dasharray="2 4"/>
<circle opacity="0.9" cx="360.152" cy="328.023" r="164.361" stroke="white" stroke-width="1.82" stroke-linejoin="round" stroke-dasharray="2 4"/>
<g filter="url(#filter0_d_1204_6487)">
<rect x="265.624" y="46" width="158" height="54" rx="27" fill="white" shape-rendering="crispEdges"/>
<circle cx="292.624" cy="73" r="19" fill="#19C5C7"/>
<g clip-path="url(#clip0_1204_6487)">
<path d="M289.062 73C289.062 73.9448 289.437 74.851 290.105 75.5191C290.773 76.1872 291.679 76.5625 292.624 76.5625C293.569 76.5625 294.475 76.1872 295.143 75.5191C295.811 74.851 296.187 73.9448 296.187 73C296.187 72.0552 295.811 71.149 295.143 70.4809C294.475 69.8128 293.569 69.4375 292.624 69.4375C291.679 69.4375 290.773 69.8128 290.105 70.4809C289.437 71.149 289.062 72.0552 289.062 73Z" stroke="white" stroke-width="1.5" stroke-linecap="round" stroke-linejoin="round"/>
<path d="M281.937 68.25C281.937 67.6201 282.187 67.016 282.632 66.5706C283.078 66.1252 283.682 65.875 284.312 65.875H300.937C301.566 65.875 302.171 66.1252 302.616 66.5706C303.061 67.016 303.312 67.6201 303.312 68.25V77.75C303.312 78.3799 303.061 78.984 302.616 79.4294C302.171 79.8748 301.566 80.125 300.937 80.125H284.312C283.682 80.125 283.078 79.8748 282.632 79.4294C282.187 78.984 281.937 78.3799 281.937 77.75V68.25Z" stroke="white" stroke-width="1.5" stroke-linecap="round" stroke-linejoin="round"/>
<path d="M299.749 73H299.759" stroke="white" stroke-width="1.5" stroke-linecap="round" stroke-linejoin="round"/>
<path d="M285.499 73H285.509" stroke="white" stroke-width="1.5" stroke-linecap="round" stroke-linejoin="round"/>
</g>
<path d="M330.824 79.77C327.386 79.77 324.38 77.286 324.38 73.128C324.38 68.97 327.494 66.468 330.806 66.468C334.046 66.468 335.972 68.376 336.548 70.608L334.514 71.292C334.136 69.744 332.948 68.502 330.806 68.502C328.7 68.502 326.594 70.032 326.594 73.128C326.594 76.116 328.646 77.7 330.824 77.7C332.966 77.7 334.19 76.332 334.622 74.892L336.602 75.54C336.026 77.7 334.082 79.77 330.824 79.77ZM337.776 77.124C337.776 75.558 338.928 74.694 340.422 74.478L342.672 74.136C343.176 74.064 343.32 73.812 343.32 73.506C343.32 72.768 342.816 72.174 341.664 72.174C340.566 72.174 339.954 72.876 339.864 73.758L337.956 73.326C338.118 71.814 339.486 70.464 341.646 70.464C344.346 70.464 345.372 71.994 345.372 73.74V78.096C345.372 78.888 345.462 79.41 345.48 79.5H343.536C343.518 79.446 343.446 79.086 343.446 78.384C343.032 79.05 342.168 79.77 340.746 79.77C338.91 79.77 337.776 78.51 337.776 77.124ZM341.142 78.132C342.312 78.132 343.32 77.574 343.32 75.864V75.468L341.034 75.81C340.386 75.918 339.864 76.278 339.864 76.998C339.864 77.592 340.314 78.132 341.142 78.132ZM347.122 77.124L348.94 76.62C349.012 77.412 349.606 78.114 350.722 78.114C351.586 78.114 352.036 77.646 352.036 77.106C352.036 76.638 351.712 76.278 351.01 76.134L349.714 75.846C348.166 75.504 347.356 74.496 347.356 73.29C347.356 71.76 348.76 70.464 350.578 70.464C353.026 70.464 353.818 72.048 353.962 72.912L352.198 73.416C352.126 72.912 351.748 72.102 350.578 72.102C349.84 72.102 349.318 72.57 349.318 73.11C349.318 73.578 349.66 73.92 350.2 74.028L351.532 74.298C353.188 74.658 354.052 75.666 354.052 76.962C354.052 78.294 352.972 79.77 350.74 79.77C348.202 79.77 347.23 78.114 347.122 77.124ZM358.21 74.352V79.5H356.122V66.468H358.21V71.58C358.804 70.806 359.794 70.482 360.712 70.482C362.872 70.482 363.916 72.03 363.916 73.956V79.5H361.828V74.316C361.828 73.236 361.342 72.372 360.028 72.372C358.876 72.372 358.246 73.236 358.21 74.352ZM373.011 79.5H370.923V66.468H373.011V79.5ZM379.556 77.898C380.852 77.898 382.004 76.944 382.004 75.108C382.004 73.29 380.852 72.354 379.556 72.354C378.278 72.354 377.108 73.29 377.108 75.108C377.108 76.926 378.278 77.898 379.556 77.898ZM379.556 70.464C382.184 70.464 384.11 72.426 384.11 75.108C384.11 77.808 382.184 79.77 379.556 79.77C376.946 79.77 375.02 77.808 375.02 75.108C375.02 72.426 376.946 70.464 379.556 70.464ZM385.588 77.124C385.588 75.558 386.74 74.694 388.234 74.478L390.484 74.136C390.988 74.064 391.132 73.812 391.132 73.506C391.132 72.768 390.628 72.174 389.476 72.174C388.378 72.174 387.766 72.876 387.676 73.758L385.768 73.326C385.93 71.814 387.298 70.464 389.458 70.464C392.158 70.464 393.184 71.994 393.184 73.74V78.096C393.184 78.888 393.274 79.41 393.292 79.5H391.348C391.33 79.446 391.258 79.086 391.258 78.384C390.844 79.05 389.98 79.77 388.558 79.77C386.722 79.77 385.588 78.51 385.588 77.124ZM388.954 78.132C390.124 78.132 391.132 77.574 391.132 75.864V75.468L388.846 75.81C388.198 75.918 387.676 76.278 387.676 76.998C387.676 77.592 388.126 78.132 388.954 78.132ZM397.796 74.442V79.5H395.708V70.734H397.742V71.904C398.318 70.896 399.362 70.482 400.334 70.482C402.476 70.482 403.502 72.03 403.502 73.956V79.5H401.414V74.316C401.414 73.236 400.928 72.372 399.614 72.372C398.426 72.372 397.796 73.29 397.796 74.442Z" fill="black"/>
</g>
<path d="M42.26 140L41.054 136.796H35.654L34.466 140H32.18L37.148 127.238H39.65L44.618 140H42.26ZM38.354 129.578L36.41 134.798H40.298L38.354 129.578ZM47.3751 135.59C47.3751 137.264 48.3111 138.38 49.7331 138.38C51.1011 138.38 52.0551 137.246 52.0551 135.572C52.0551 133.898 51.1191 132.854 49.7511 132.854C48.3831 132.854 47.3751 133.916 47.3751 135.59ZM54.0711 126.968V138.398C54.0711 139.19 54.1431 139.856 54.1611 140H52.1631C52.1271 139.802 52.0731 139.226 52.0731 138.866C51.6591 139.604 50.7411 140.216 49.4991 140.216C46.9791 140.216 45.2871 138.236 45.2871 135.59C45.2871 133.07 46.9971 131 49.4631 131C50.9931 131 51.7671 131.702 52.0371 132.26V126.968H54.0711ZM58.2032 135.59C58.2032 137.264 59.1392 138.38 60.5612 138.38C61.9292 138.38 62.8832 137.246 62.8832 135.572C62.8832 133.898 61.9472 132.854 60.5792 132.854C59.2112 132.854 58.2032 133.916 58.2032 135.59ZM64.8992 126.968V138.398C64.8992 139.19 64.9712 139.856 64.9892 140H62.9912C62.9552 139.802 62.9012 139.226 62.9012 138.866C62.4872 139.604 61.5692 140.216 60.3272 140.216C57.8072 140.216 56.1152 138.236 56.1152 135.59C56.1152 133.07 57.8252 131 60.2912 131C61.8212 131 62.5952 131.702 62.8652 132.26V126.968H64.8992ZM74.1622 143.42H72.0922V131.234H74.1082V132.422C74.5402 131.666 75.5482 131.036 76.8982 131.036C79.4902 131.036 80.9482 133.016 80.9482 135.608C80.9482 138.236 79.3462 140.216 76.8262 140.216C75.5662 140.216 74.6122 139.676 74.1622 139.01V143.42ZM78.8602 135.608C78.8602 133.97 77.9062 132.89 76.5022 132.89C75.1342 132.89 74.1442 133.97 74.1442 135.608C74.1442 137.282 75.1342 138.362 76.5022 138.362C77.8882 138.362 78.8602 137.282 78.8602 135.608ZM88.0855 131.18V133.304C87.8515 133.268 87.6175 133.25 87.4015 133.25C85.7815 133.25 85.0435 134.186 85.0435 135.824V140H82.9555V131.234H84.9895V132.638C85.4035 131.684 86.3755 131.126 87.5275 131.126C87.7795 131.126 87.9955 131.162 88.0855 131.18ZM93.5926 138.398C94.8886 138.398 96.0406 137.444 96.0406 135.608C96.0406 133.79 94.8886 132.854 93.5926 132.854C92.3146 132.854 91.1446 133.79 91.1446 135.608C91.1446 137.426 92.3146 138.398 93.5926 138.398ZM93.5926 130.964C96.2206 130.964 98.1466 132.926 98.1466 135.608C98.1466 138.308 96.2206 140.27 93.5926 140.27C90.9826 140.27 89.0566 138.308 89.0566 135.608C89.0566 132.926 90.9826 130.964 93.5926 130.964ZM101.568 135.59C101.568 137.264 102.504 138.38 103.926 138.38C105.294 138.38 106.248 137.246 106.248 135.572C106.248 133.898 105.312 132.854 103.944 132.854C102.576 132.854 101.568 133.916 101.568 135.59ZM108.264 126.968V138.398C108.264 139.19 108.336 139.856 108.354 140H106.356C106.32 139.802 106.266 139.226 106.266 138.866C105.852 139.604 104.934 140.216 103.692 140.216C101.172 140.216 99.4805 138.236 99.4805 135.59C99.4805 133.07 101.19 131 103.656 131C105.186 131 105.96 131.702 106.23 132.26V126.968H108.264ZM116.646 139.028C116.214 139.82 115.188 140.252 114.162 140.252C112.074 140.252 110.85 138.704 110.85 136.76V131.234H112.938V136.382C112.938 137.462 113.442 138.38 114.702 138.38C115.908 138.38 116.538 137.57 116.538 136.418V131.234H118.626V138.398C118.626 139.118 118.68 139.676 118.716 140H116.718C116.682 139.802 116.646 139.388 116.646 139.028ZM125.092 132.89C123.814 132.89 122.68 133.844 122.68 135.608C122.68 137.372 123.814 138.362 125.128 138.362C126.496 138.362 127.126 137.408 127.324 136.742L129.16 137.408C128.746 138.776 127.432 140.27 125.128 140.27C122.554 140.27 120.592 138.272 120.592 135.608C120.592 132.908 122.554 130.964 125.074 130.964C127.432 130.964 128.728 132.44 129.088 133.844L127.216 134.528C127.018 133.754 126.424 132.89 125.092 132.89ZM133.66 128.552V131.234H135.478V133.088H133.66V137.156C133.66 137.93 134.002 138.254 134.776 138.254C135.064 138.254 135.406 138.2 135.496 138.182V139.91C135.37 139.964 134.974 140.108 134.218 140.108C132.598 140.108 131.59 139.136 131.59 137.498V133.088H129.97V131.234H130.42C131.356 131.234 131.77 130.64 131.77 129.866V128.552H133.66Z" fill="white"/>
<path d="M41.414 371.027H33.53V358.265H41.414V360.281H35.69V363.665H40.874V365.627H35.69V369.011H41.414V371.027ZM44.9669 366.617C44.9669 368.291 45.9029 369.407 47.3249 369.407C48.6929 369.407 49.6469 368.273 49.6469 366.599C49.6469 364.925 48.7109 363.881 47.3429 363.881C45.9749 363.881 44.9669 364.943 44.9669 366.617ZM51.6629 357.995V369.425C51.6629 370.217 51.7349 370.883 51.7529 371.027H49.7549C49.7189 370.829 49.6649 370.253 49.6649 369.893C49.2509 370.631 48.3329 371.243 47.0909 371.243C44.5709 371.243 42.8789 369.263 42.8789 366.617C42.8789 364.097 44.5889 362.027 47.0549 362.027C48.5849 362.027 49.3589 362.729 49.6289 363.287V357.995H51.6629ZM56.461 371.027H54.391V362.261H56.461V371.027ZM54.067 359.183C54.067 358.427 54.679 357.815 55.417 357.815C56.173 357.815 56.785 358.427 56.785 359.183C56.785 359.939 56.173 360.533 55.417 360.533C54.679 360.533 54.067 359.939 54.067 359.183ZM61.8007 359.579V362.261H63.6187V364.115H61.8007V368.183C61.8007 368.957 62.1427 369.281 62.9167 369.281C63.2047 369.281 63.5467 369.227 63.6367 369.209V370.937C63.5107 370.991 63.1147 371.135 62.3587 371.135C60.7387 371.135 59.7307 370.163 59.7307 368.525V364.115H58.1107V362.261H58.5607C59.4967 362.261 59.9107 361.667 59.9107 360.893V359.579H61.8007Z" fill="white"/>
<path d="M570.69 137.02H572.958C575.172 137.02 577.008 135.598 577.008 132.646C577.008 129.658 575.19 128.218 572.976 128.218H570.69V137.02ZM573.03 139H568.53V126.238H573.048C576.522 126.238 579.258 128.542 579.258 132.646C579.258 136.732 576.486 139 573.03 139ZM582.833 133.654H587.135C587.099 132.628 586.415 131.71 584.975 131.71C583.661 131.71 582.905 132.718 582.833 133.654ZM587.369 135.94L589.133 136.498C588.665 138.028 587.279 139.27 585.173 139.27C582.797 139.27 580.691 137.542 580.691 134.572C580.691 131.8 582.743 129.964 584.957 129.964C587.657 129.964 589.241 131.746 589.241 134.518C589.241 134.86 589.205 135.148 589.187 135.184H582.779C582.833 136.516 583.877 137.47 585.173 137.47C586.433 137.47 587.081 136.804 587.369 135.94ZM593.325 139H591.237V125.968H593.325V139ZM597.476 133.654H601.778C601.742 132.628 601.058 131.71 599.618 131.71C598.304 131.71 597.548 132.718 597.476 133.654ZM602.012 135.94L603.776 136.498C603.308 138.028 601.922 139.27 599.816 139.27C597.44 139.27 595.334 137.542 595.334 134.572C595.334 131.8 597.386 129.964 599.6 129.964C602.3 129.964 603.884 131.746 603.884 134.518C603.884 134.86 603.848 135.148 603.83 135.184H597.422C597.476 136.516 598.52 137.47 599.816 137.47C601.076 137.47 601.724 136.804 602.012 135.94ZM608.525 127.552V130.234H610.343V132.088H608.525V136.156C608.525 136.93 608.867 137.254 609.641 137.254C609.929 137.254 610.271 137.2 610.361 137.182V138.91C610.235 138.964 609.839 139.108 609.083 139.108C607.463 139.108 606.455 138.136 606.455 136.498V132.088H604.835V130.234H605.285C606.221 130.234 606.635 129.64 606.635 128.866V127.552H608.525ZM613.859 133.654H618.161C618.125 132.628 617.441 131.71 616.001 131.71C614.687 131.71 613.931 132.718 613.859 133.654ZM618.395 135.94L620.159 136.498C619.691 138.028 618.305 139.27 616.199 139.27C613.823 139.27 611.717 137.542 611.717 134.572C611.717 131.8 613.769 129.964 615.983 129.964C618.683 129.964 620.267 131.746 620.267 134.518C620.267 134.86 620.231 135.148 620.213 135.184H613.805C613.859 136.516 614.903 137.47 616.199 137.47C617.459 137.47 618.107 136.804 618.395 135.94Z" fill="white"/>
<path d="M661.69 364.106H663.94C665.308 364.106 666.136 363.35 666.136 362.144C666.136 360.92 665.308 360.146 663.94 360.146H661.69V364.106ZM664.264 366.014H661.69V371H659.53V358.238H664.264C666.712 358.238 668.332 359.894 668.332 362.126C668.332 364.376 666.712 366.014 664.264 366.014ZM675.533 370.028C675.101 370.82 674.075 371.252 673.049 371.252C670.961 371.252 669.737 369.704 669.737 367.76V362.234H671.825V367.382C671.825 368.462 672.329 369.38 673.589 369.38C674.795 369.38 675.425 368.57 675.425 367.418V362.234H677.513V369.398C677.513 370.118 677.567 370.676 677.603 371H675.605C675.569 370.802 675.533 370.388 675.533 370.028ZM682.249 371H680.215V357.968H682.267V363.314C682.663 362.63 683.671 362 685.021 362C687.649 362 689.071 363.998 689.071 366.572C689.071 369.218 687.505 371.216 684.949 371.216C683.707 371.216 682.753 370.676 682.249 369.83V371ZM686.965 366.59C686.965 364.844 685.993 363.854 684.607 363.854C683.275 363.854 682.249 364.844 682.249 366.59C682.249 368.318 683.275 369.362 684.607 369.362C685.975 369.362 686.965 368.318 686.965 366.59ZM693.167 371H691.079V357.968H693.167V371ZM697.93 371H695.86V362.234H697.93V371ZM695.536 359.156C695.536 358.4 696.148 357.788 696.886 357.788C697.642 357.788 698.254 358.4 698.254 359.156C698.254 359.912 697.642 360.506 696.886 360.506C696.148 360.506 695.536 359.912 695.536 359.156ZM699.849 368.624L701.667 368.12C701.739 368.912 702.333 369.614 703.449 369.614C704.313 369.614 704.763 369.146 704.763 368.606C704.763 368.138 704.439 367.778 703.737 367.634L702.441 367.346C700.893 367.004 700.083 365.996 700.083 364.79C700.083 363.26 701.487 361.964 703.305 361.964C705.753 361.964 706.545 363.548 706.689 364.412L704.925 364.916C704.853 364.412 704.475 363.602 703.305 363.602C702.567 363.602 702.045 364.07 702.045 364.61C702.045 365.078 702.387 365.42 702.927 365.528L704.259 365.798C705.915 366.158 706.779 367.166 706.779 368.462C706.779 369.794 705.699 371.27 703.467 371.27C700.929 371.27 699.957 369.614 699.849 368.624ZM710.938 365.852V371H708.85V357.968H710.938V363.08C711.532 362.306 712.522 361.982 713.44 361.982C715.6 361.982 716.644 363.53 716.644 365.456V371H714.556V365.816C714.556 364.736 714.07 363.872 712.756 363.872C711.604 363.872 710.974 364.736 710.938 365.852Z" fill="white"/>
<g filter="url(#filter1_d_1204_6487)">
<rect x="241.23" y="544.863" width="198" height="54" rx="27" fill="white" shape-rendering="crispEdges"/>
<circle cx="268.23" cy="571.863" r="19" fill="#FF6822"/>
<g clip-path="url(#clip1_1204_6487)">
<path d="M259.361 571.865H256.828L268.228 560.465L279.628 571.865H277.095" stroke="white" stroke-width="1.5" stroke-linecap="round" stroke-linejoin="round"/>
<path d="M259.361 571.863V580.73C259.361 581.402 259.628 582.046 260.103 582.521C260.578 582.996 261.223 583.263 261.895 583.263H274.561C275.233 583.263 275.878 582.996 276.353 582.521C276.828 582.046 277.095 581.402 277.095 580.73V571.863" stroke="white" stroke-width="1.5" stroke-linecap="round" stroke-linejoin="round"/>
<path d="M264.429 583.264V575.664C264.429 574.992 264.696 574.348 265.171 573.873C265.646 573.398 266.29 573.131 266.962 573.131H269.495C270.167 573.131 270.812 573.398 271.287 573.873C271.762 574.348 272.029 574.992 272.029 575.664V583.264" stroke="white" stroke-width="1.5" stroke-linecap="round" stroke-linejoin="round"/>
</g>
<path d="M314.8 578.363H312.658V568.967L308.68 578.363H306.808L302.866 569.003V578.363H300.76V565.601H303.64L307.78 575.339L311.866 565.601H314.8V578.363ZM321.501 576.761C322.797 576.761 323.949 575.807 323.949 573.971C323.949 572.153 322.797 571.217 321.501 571.217C320.223 571.217 319.053 572.153 319.053 573.971C319.053 575.789 320.223 576.761 321.501 576.761ZM321.501 569.327C324.129 569.327 326.055 571.289 326.055 573.971C326.055 576.671 324.129 578.633 321.501 578.633C318.891 578.633 316.965 576.671 316.965 573.971C316.965 571.289 318.891 569.327 321.501 569.327ZM333.203 569.543V571.667C332.969 571.631 332.735 571.613 332.519 571.613C330.899 571.613 330.161 572.549 330.161 574.187V578.363H328.073V569.597H330.107V571.001C330.521 570.047 331.493 569.489 332.645 569.489C332.897 569.489 333.113 569.525 333.203 569.543ZM337.978 566.915V569.597H339.796V571.451H337.978V575.519C337.978 576.293 338.32 576.617 339.094 576.617C339.382 576.617 339.724 576.563 339.814 576.545V578.273C339.688 578.327 339.292 578.471 338.536 578.471C336.916 578.471 335.908 577.499 335.908 575.861V571.451H334.288V569.597H334.738C335.674 569.597 336.088 569.003 336.088 568.229V566.915H337.978ZM341.224 578.849L343.15 578.345C343.294 579.425 344.14 580.235 345.346 580.235C347.002 580.235 347.83 579.389 347.83 577.607V576.689C347.452 577.373 346.57 577.967 345.292 577.967C342.952 577.967 341.242 576.167 341.242 573.701C341.242 571.361 342.88 569.435 345.292 569.435C346.66 569.435 347.506 569.993 347.884 570.713V569.597H349.9V577.535C349.9 579.875 348.694 582.053 345.4 582.053C343.078 582.053 341.458 580.613 341.224 578.849ZM345.634 576.185C346.966 576.185 347.884 575.213 347.884 573.701C347.884 572.207 346.93 571.235 345.634 571.235C344.302 571.235 343.348 572.207 343.348 573.701C343.348 575.231 344.266 576.185 345.634 576.185ZM351.826 575.987C351.826 574.421 352.978 573.557 354.472 573.341L356.722 572.999C357.226 572.927 357.37 572.675 357.37 572.369C357.37 571.631 356.866 571.037 355.714 571.037C354.616 571.037 354.004 571.739 353.914 572.621L352.006 572.189C352.168 570.677 353.536 569.327 355.696 569.327C358.396 569.327 359.422 570.857 359.422 572.603V576.959C359.422 577.751 359.512 578.273 359.53 578.363H357.586C357.568 578.309 357.496 577.949 357.496 577.247C357.082 577.913 356.218 578.633 354.796 578.633C352.96 578.633 351.826 577.373 351.826 575.987ZM355.192 576.995C356.362 576.995 357.37 576.437 357.37 574.727V574.331L355.084 574.673C354.436 574.781 353.914 575.141 353.914 575.861C353.914 576.455 354.364 576.995 355.192 576.995ZM361.298 578.849L363.224 578.345C363.368 579.425 364.214 580.235 365.42 580.235C367.076 580.235 367.904 579.389 367.904 577.607V576.689C367.526 577.373 366.644 577.967 365.366 577.967C363.026 577.967 361.316 576.167 361.316 573.701C361.316 571.361 362.954 569.435 365.366 569.435C366.734 569.435 367.58 569.993 367.958 570.713V569.597H369.974V577.535C369.974 579.875 368.768 582.053 365.474 582.053C363.152 582.053 361.532 580.613 361.298 578.849ZM365.708 576.185C367.04 576.185 367.958 575.213 367.958 573.701C367.958 572.207 367.004 571.235 365.708 571.235C364.376 571.235 363.422 572.207 363.422 573.701C363.422 575.231 364.34 576.185 365.708 576.185ZM373.986 573.017H378.288C378.252 571.991 377.568 571.073 376.128 571.073C374.814 571.073 374.058 572.081 373.986 573.017ZM378.522 575.303L380.286 575.861C379.818 577.391 378.432 578.633 376.326 578.633C373.95 578.633 371.844 576.905 371.844 573.935C371.844 571.163 373.896 569.327 376.11 569.327C378.81 569.327 380.394 571.109 380.394 573.881C380.394 574.223 380.358 574.511 380.34 574.547H373.932C373.986 575.879 375.03 576.833 376.326 576.833C377.586 576.833 378.234 576.167 378.522 575.303ZM388.942 578.363H386.854V565.331H388.942V578.363ZM395.487 576.761C396.783 576.761 397.935 575.807 397.935 573.971C397.935 572.153 396.783 571.217 395.487 571.217C394.209 571.217 393.039 572.153 393.039 573.971C393.039 575.789 394.209 576.761 395.487 576.761ZM395.487 569.327C398.115 569.327 400.041 571.289 400.041 573.971C400.041 576.671 398.115 578.633 395.487 578.633C392.877 578.633 390.951 576.671 390.951 573.971C390.951 571.289 392.877 569.327 395.487 569.327ZM401.519 575.987C401.519 574.421 402.671 573.557 404.165 573.341L406.415 572.999C406.919 572.927 407.063 572.675 407.063 572.369C407.063 571.631 406.559 571.037 405.407 571.037C404.309 571.037 403.697 571.739 403.607 572.621L401.699 572.189C401.861 570.677 403.229 569.327 405.389 569.327C408.089 569.327 409.115 570.857 409.115 572.603V576.959C409.115 577.751 409.205 578.273 409.223 578.363H407.279C407.261 578.309 407.189 577.949 407.189 577.247C406.775 577.913 405.911 578.633 404.489 578.633C402.653 578.633 401.519 577.373 401.519 575.987ZM404.885 576.995C406.055 576.995 407.063 576.437 407.063 574.727V574.331L404.777 574.673C404.129 574.781 403.607 575.141 403.607 575.861C403.607 576.455 404.057 576.995 404.885 576.995ZM413.727 573.305V578.363H411.639V569.597H413.673V570.767C414.249 569.759 415.293 569.345 416.265 569.345C418.407 569.345 419.433 570.893 419.433 572.819V578.363H417.345V573.179C417.345 572.099 416.859 571.235 415.545 571.235C414.357 571.235 413.727 572.153 413.727 573.305Z" fill="black"/>
</g>
<g filter="url(#filter2_d_1204_6487)">
<rect x="50.9551" y="210.662" width="180" height="54" rx="27" fill="white" shape-rendering="crispEdges"/>
<circle cx="77.9551" cy="237.662" r="19" fill="#FFCC81"/>
<g clip-path="url(#clip2_1204_6487)">
<path d="M66.5527 232.597C66.5527 231.589 66.9531 230.623 67.6657 229.91C68.3784 229.197 69.3449 228.797 70.3527 228.797H85.5527C86.5606 228.797 87.5271 229.197 88.2397 229.91C88.9524 230.623 89.3527 231.589 89.3527 232.597V242.73C89.3527 243.738 88.9524 244.705 88.2397 245.417C87.5271 246.13 86.5606 246.53 85.5527 246.53H70.3527C69.3449 246.53 68.3784 246.13 67.6657 245.417C66.9531 244.705 66.5527 243.738 66.5527 242.73V232.597Z" stroke="white" stroke-width="1.5" stroke-linecap="round" stroke-linejoin="round"/>
<path d="M66.5527 235.129H89.3527" stroke="white" stroke-width="1.5" stroke-linecap="round" stroke-linejoin="round"/>
<path d="M71.6191 241.463H71.6291" stroke="white" stroke-width="1.5" stroke-linecap="round" stroke-linejoin="round"/>
<path d="M76.6865 241.463H79.2199" stroke="white" stroke-width="1.5" stroke-linecap="round" stroke-linejoin="round"/>
</g>
<path d="M116.955 245.462C113.135 245.462 109.795 242.702 109.795 238.082C109.795 233.462 113.255 230.682 116.935 230.682C120.535 230.682 122.675 232.802 123.315 235.282L121.055 236.042C120.635 234.322 119.315 232.942 116.935 232.942C114.595 232.942 112.255 234.642 112.255 238.082C112.255 241.402 114.535 243.162 116.955 243.162C119.335 243.162 120.695 241.642 121.175 240.042L123.375 240.762C122.735 243.162 120.575 245.462 116.955 245.462ZM131.077 235.362V237.722C130.817 237.682 130.557 237.662 130.317 237.662C128.517 237.662 127.697 238.702 127.697 240.522V245.162H125.377V235.422H127.637V236.982C128.097 235.922 129.177 235.302 130.457 235.302C130.737 235.302 130.977 235.342 131.077 235.362ZM134.536 239.222H139.316C139.276 238.082 138.516 237.062 136.916 237.062C135.456 237.062 134.616 238.182 134.536 239.222ZM139.576 241.762L141.536 242.382C141.016 244.082 139.476 245.462 137.136 245.462C134.496 245.462 132.156 243.542 132.156 240.242C132.156 237.162 134.436 235.122 136.896 235.122C139.896 235.122 141.656 237.102 141.656 240.182C141.656 240.562 141.616 240.882 141.596 240.922H134.476C134.536 242.402 135.696 243.462 137.136 243.462C138.536 243.462 139.256 242.722 139.576 241.762ZM145.433 240.262C145.433 242.122 146.473 243.362 148.053 243.362C149.573 243.362 150.633 242.102 150.633 240.242C150.633 238.382 149.593 237.222 148.073 237.222C146.553 237.222 145.433 238.402 145.433 240.262ZM152.873 230.682V243.382C152.873 244.262 152.953 245.002 152.973 245.162H150.753C150.713 244.942 150.653 244.302 150.653 243.902C150.193 244.722 149.173 245.402 147.793 245.402C144.993 245.402 143.113 243.202 143.113 240.262C143.113 237.462 145.013 235.162 147.753 235.162C149.453 235.162 150.313 235.942 150.613 236.562V230.682H152.873ZM158.204 245.162H155.904V235.422H158.204V245.162ZM155.544 232.002C155.544 231.162 156.224 230.482 157.044 230.482C157.884 230.482 158.564 231.162 158.564 232.002C158.564 232.842 157.884 233.502 157.044 233.502C156.224 233.502 155.544 232.842 155.544 232.002ZM164.137 232.442V235.422H166.157V237.482H164.137V242.002C164.137 242.862 164.517 243.222 165.377 243.222C165.697 243.222 166.077 243.162 166.177 243.142V245.062C166.037 245.122 165.597 245.282 164.757 245.282C162.957 245.282 161.837 244.202 161.837 242.382V237.482H160.037V235.422H160.537C161.577 235.422 162.037 234.762 162.037 233.902V232.442H164.137ZM177.703 237.262C176.283 237.262 175.023 238.322 175.023 240.282C175.023 242.242 176.283 243.342 177.743 243.342C179.263 243.342 179.963 242.282 180.183 241.542L182.223 242.282C181.763 243.802 180.303 245.462 177.743 245.462C174.883 245.462 172.703 243.242 172.703 240.282C172.703 237.282 174.883 235.122 177.683 235.122C180.303 235.122 181.743 236.762 182.143 238.322L180.063 239.082C179.843 238.222 179.183 237.262 177.703 237.262ZM183.625 242.522C183.625 240.782 184.905 239.822 186.565 239.582L189.065 239.202C189.625 239.122 189.785 238.842 189.785 238.502C189.785 237.682 189.225 237.022 187.945 237.022C186.725 237.022 186.045 237.802 185.945 238.782L183.825 238.302C184.005 236.622 185.525 235.122 187.925 235.122C190.925 235.122 192.065 236.822 192.065 238.762V243.602C192.065 244.482 192.165 245.062 192.185 245.162H190.025C190.005 245.102 189.925 244.702 189.925 243.922C189.465 244.662 188.505 245.462 186.925 245.462C184.885 245.462 183.625 244.062 183.625 242.522ZM187.365 243.642C188.665 243.642 189.785 243.022 189.785 241.122V240.682L187.245 241.062C186.525 241.182 185.945 241.582 185.945 242.382C185.945 243.042 186.445 243.642 187.365 243.642ZM200.569 235.362V237.722C200.309 237.682 200.049 237.662 199.809 237.662C198.009 237.662 197.189 238.702 197.189 240.522V245.162H194.869V235.422H197.129V236.982C197.589 235.922 198.669 235.302 199.949 235.302C200.229 235.302 200.469 235.342 200.569 235.362ZM203.968 240.262C203.968 242.122 205.008 243.362 206.588 243.362C208.108 243.362 209.168 242.102 209.168 240.242C209.168 238.382 208.128 237.222 206.608 237.222C205.088 237.222 203.968 238.402 203.968 240.262ZM211.408 230.682V243.382C211.408 244.262 211.488 245.002 211.508 245.162H209.288C209.248 244.942 209.188 244.302 209.188 243.902C208.728 244.722 207.708 245.402 206.328 245.402C203.528 245.402 201.648 243.202 201.648 240.262C201.648 237.462 203.548 235.162 206.288 235.162C207.988 235.162 208.848 235.942 209.148 236.562V230.682H211.408Z" fill="black"/>
</g>
<g filter="url(#filter3_d_1204_6487)">
<rect x="422.968" y="442.406" width="171" height="54" rx="27" fill="white" shape-rendering="crispEdges"/>
<circle cx="449.968" cy="469.406" r="19" fill="#19C5C7"/>
<g clip-path="url(#clip3_1204_6487)">
<path d="M448.699 469.407C448.699 469.906 448.798 470.401 448.988 470.862C449.179 471.323 449.459 471.742 449.812 472.094C450.165 472.447 450.584 472.727 451.045 472.918C451.506 473.109 452 473.207 452.499 473.207C452.998 473.207 453.492 473.109 453.953 472.918C454.414 472.727 454.833 472.447 455.186 472.094C455.539 471.742 455.819 471.323 456.01 470.862C456.201 470.401 456.299 469.906 456.299 469.407C456.299 468.908 456.201 468.414 456.01 467.953C455.819 467.492 455.539 467.073 455.186 466.72C454.833 466.368 454.414 466.088 453.953 465.897C453.492 465.706 452.998 465.607 452.499 465.607C452 465.607 451.506 465.706 451.045 465.897C450.584 466.088 450.165 466.368 449.812 466.72C449.459 467.073 449.179 467.492 448.988 467.953C448.798 468.414 448.699 468.908 448.699 469.407Z" stroke="white" stroke-width="1.5" stroke-linecap="round" stroke-linejoin="round"/>
<path d="M449.966 466.576C449.419 466.087 448.742 465.766 448.017 465.653C447.293 465.54 446.55 465.639 445.88 465.938C445.211 466.237 444.642 466.724 444.242 467.34C443.843 467.956 443.631 468.674 443.631 469.407C443.631 470.141 443.843 470.859 444.242 471.475C444.642 472.09 445.211 472.577 445.88 472.877C446.55 473.176 447.293 473.275 448.017 473.162C448.742 473.049 449.419 472.728 449.966 472.238" stroke="white" stroke-width="1.5" stroke-linecap="round" stroke-linejoin="round"/>
<path d="M438.565 463.074C438.565 462.402 438.832 461.758 439.307 461.283C439.783 460.808 440.427 460.541 441.099 460.541H458.832C459.504 460.541 460.148 460.808 460.623 461.283C461.099 461.758 461.365 462.402 461.365 463.074V475.741C461.365 476.413 461.099 477.057 460.623 477.532C460.148 478.007 459.504 478.274 458.832 478.274H441.099C440.427 478.274 439.783 478.007 439.307 477.532C438.832 477.057 438.565 476.413 438.565 475.741V463.074Z" stroke="white" stroke-width="1.5" stroke-linecap="round" stroke-linejoin="round"/>
</g>
<path d="M496.538 475.906H494.396V466.51L490.418 475.906H488.546L484.604 466.546V475.906H482.498V463.144H485.378L489.518 472.882L493.604 463.144H496.538V475.906ZM498.829 473.53C498.829 471.964 499.981 471.1 501.475 470.884L503.725 470.542C504.229 470.47 504.373 470.218 504.373 469.912C504.373 469.174 503.869 468.58 502.717 468.58C501.619 468.58 501.007 469.282 500.917 470.164L499.009 469.732C499.171 468.22 500.539 466.87 502.699 466.87C505.399 466.87 506.425 468.4 506.425 470.146V474.502C506.425 475.294 506.515 475.816 506.533 475.906H504.589C504.571 475.852 504.499 475.492 504.499 474.79C504.085 475.456 503.221 476.176 501.799 476.176C499.963 476.176 498.829 474.916 498.829 473.53ZM502.195 474.538C503.365 474.538 504.373 473.98 504.373 472.27V471.874L502.087 472.216C501.439 472.324 500.917 472.684 500.917 473.404C500.917 473.998 501.367 474.538 502.195 474.538ZM508.175 473.53L509.993 473.026C510.065 473.818 510.659 474.52 511.775 474.52C512.639 474.52 513.089 474.052 513.089 473.512C513.089 473.044 512.765 472.684 512.063 472.54L510.767 472.252C509.219 471.91 508.409 470.902 508.409 469.696C508.409 468.166 509.813 466.87 511.631 466.87C514.079 466.87 514.871 468.454 515.015 469.318L513.251 469.822C513.179 469.318 512.801 468.508 511.631 468.508C510.893 468.508 510.371 468.976 510.371 469.516C510.371 469.984 510.713 470.326 511.253 470.434L512.585 470.704C514.241 471.064 515.105 472.072 515.105 473.368C515.105 474.7 514.025 476.176 511.793 476.176C509.255 476.176 508.283 474.52 508.175 473.53ZM519.821 464.458V467.14H521.639V468.994H519.821V473.062C519.821 473.836 520.163 474.16 520.937 474.16C521.225 474.16 521.567 474.106 521.657 474.088V475.816C521.531 475.87 521.135 476.014 520.379 476.014C518.759 476.014 517.751 475.042 517.751 473.404V468.994H516.131V467.14H516.581C517.517 467.14 517.931 466.546 517.931 465.772V464.458H519.821ZM525.155 470.56H529.457C529.421 469.534 528.737 468.616 527.297 468.616C525.983 468.616 525.227 469.624 525.155 470.56ZM529.691 472.846L531.455 473.404C530.987 474.934 529.601 476.176 527.495 476.176C525.119 476.176 523.013 474.448 523.013 471.478C523.013 468.706 525.065 466.87 527.279 466.87C529.979 466.87 531.563 468.652 531.563 471.424C531.563 471.766 531.527 472.054 531.509 472.09H525.101C525.155 473.422 526.199 474.376 527.495 474.376C528.755 474.376 529.403 473.71 529.691 472.846ZM538.688 467.086V469.21C538.454 469.174 538.22 469.156 538.004 469.156C536.384 469.156 535.646 470.092 535.646 471.73V475.906H533.558V467.14H535.592V468.544C536.006 467.59 536.978 467.032 538.13 467.032C538.382 467.032 538.598 467.068 538.688 467.086ZM544.159 468.796C542.881 468.796 541.747 469.75 541.747 471.514C541.747 473.278 542.881 474.268 544.195 474.268C545.563 474.268 546.193 473.314 546.391 472.648L548.227 473.314C547.813 474.682 546.499 476.176 544.195 476.176C541.621 476.176 539.659 474.178 539.659 471.514C539.659 468.814 541.621 466.87 544.141 466.87C546.499 466.87 547.795 468.346 548.155 469.75L546.283 470.434C546.085 469.66 545.491 468.796 544.159 468.796ZM549.489 473.53C549.489 471.964 550.641 471.1 552.135 470.884L554.385 470.542C554.889 470.47 555.033 470.218 555.033 469.912C555.033 469.174 554.529 468.58 553.377 468.58C552.279 468.58 551.667 469.282 551.577 470.164L549.669 469.732C549.831 468.22 551.199 466.87 553.359 466.87C556.059 466.87 557.085 468.4 557.085 470.146V474.502C557.085 475.294 557.175 475.816 557.193 475.906H555.249C555.231 475.852 555.159 475.492 555.159 474.79C554.745 475.456 553.881 476.176 552.459 476.176C550.623 476.176 549.489 474.916 549.489 473.53ZM552.855 474.538C554.025 474.538 555.033 473.98 555.033 472.27V471.874L552.747 472.216C552.099 472.324 551.577 472.684 551.577 473.404C551.577 473.998 552.027 474.538 552.855 474.538ZM564.739 467.086V469.21C564.505 469.174 564.271 469.156 564.055 469.156C562.435 469.156 561.697 470.092 561.697 471.73V475.906H559.609V467.14H561.643V468.544C562.057 467.59 563.029 467.032 564.181 467.032C564.433 467.032 564.649 467.068 564.739 467.086ZM567.798 471.496C567.798 473.17 568.734 474.286 570.156 474.286C571.524 474.286 572.478 473.152 572.478 471.478C572.478 469.804 571.542 468.76 570.174 468.76C568.806 468.76 567.798 469.822 567.798 471.496ZM574.494 462.874V474.304C574.494 475.096 574.566 475.762 574.584 475.906H572.586C572.55 475.708 572.496 475.132 572.496 474.772C572.082 475.51 571.164 476.122 569.922 476.122C567.402 476.122 565.71 474.142 565.71 471.496C565.71 468.976 567.42 466.906 569.886 466.906C571.416 466.906 572.19 467.608 572.46 468.166V462.874H574.494Z" fill="black"/>
</g>
<g filter="url(#filter4_d_1204_6487)">
<rect x="458.339" y="210.662" width="187" height="54" rx="27" fill="white" shape-rendering="crispEdges"/>
<circle cx="485.339" cy="237.662" r="19" fill="#49C6FD"/>
<g clip-path="url(#clip4_1204_6487)">
<path d="M489.137 236.396V236.406" stroke="white" stroke-width="1.5" stroke-linecap="round" stroke-linejoin="round"/>
<path d="M476.689 233.075C476.134 232.648 475.707 232.075 475.457 231.421C475.206 230.767 475.141 230.056 475.269 229.367C475.397 228.678 475.713 228.038 476.182 227.518C476.652 226.997 477.255 226.616 477.927 226.418C478.599 226.219 479.313 226.21 479.99 226.392C480.667 226.573 481.28 226.938 481.762 227.447C482.244 227.955 482.577 228.587 482.722 229.272C482.868 229.958 482.821 230.67 482.587 231.33" stroke="white" stroke-width="1.5" stroke-linecap="round" stroke-linejoin="round"/>
<path d="M490.404 227.529V232.346C491.971 233.254 493.165 234.689 493.771 236.396H495.469C495.805 236.396 496.127 236.529 496.365 236.767C496.602 237.005 496.736 237.327 496.736 237.663V240.196C496.736 240.532 496.602 240.854 496.365 241.092C496.127 241.329 495.805 241.463 495.469 241.463H493.769C493.344 242.666 492.62 243.743 491.669 244.595V247.163C491.669 247.667 491.469 248.15 491.113 248.506C490.756 248.862 490.273 249.063 489.769 249.063C489.265 249.063 488.782 248.862 488.426 248.506C488.069 248.15 487.869 247.667 487.869 247.163V246.424C487.451 246.494 487.027 246.529 486.602 246.529H481.536C481.111 246.529 480.688 246.494 480.269 246.424V247.163C480.269 247.667 480.069 248.15 479.713 248.506C479.356 248.862 478.873 249.063 478.369 249.063C477.865 249.063 477.382 248.862 477.026 248.506C476.669 248.15 476.469 247.667 476.469 247.163V244.629V244.595C475.321 243.569 474.512 242.219 474.149 240.723C473.786 239.227 473.886 237.656 474.435 236.218C474.984 234.78 475.957 233.542 477.225 232.669C478.493 231.796 479.996 231.329 481.536 231.329H484.702L490.402 227.529H490.404Z" stroke="white" stroke-width="1.5" stroke-linecap="round" stroke-linejoin="round"/>
</g>
<path d="M526.599 244.162L525.393 240.958H519.993L518.805 244.162H516.519L521.487 231.4H523.989L528.957 244.162H526.599ZM522.693 233.74L520.749 238.96H524.637L522.693 233.74ZM534.126 237.052C532.848 237.052 531.714 238.006 531.714 239.77C531.714 241.534 532.848 242.524 534.162 242.524C535.53 242.524 536.16 241.57 536.358 240.904L538.194 241.57C537.78 242.938 536.466 244.432 534.162 244.432C531.588 244.432 529.626 242.434 529.626 239.77C529.626 237.07 531.588 235.126 534.108 235.126C536.466 235.126 537.762 236.602 538.122 238.006L536.25 238.69C536.052 237.916 535.458 237.052 534.126 237.052ZM542.694 232.714V235.396H544.512V237.25H542.694V241.318C542.694 242.092 543.036 242.416 543.81 242.416C544.098 242.416 544.44 242.362 544.53 242.344V244.072C544.404 244.126 544.008 244.27 543.252 244.27C541.632 244.27 540.624 243.298 540.624 241.66V237.25H539.004V235.396H539.454C540.39 235.396 540.804 234.802 540.804 234.028V232.714H542.694ZM548.728 244.162H546.658V235.396H548.728V244.162ZM546.334 232.318C546.334 231.562 546.946 230.95 547.684 230.95C548.44 230.95 549.052 231.562 549.052 232.318C549.052 233.074 548.44 233.668 547.684 233.668C546.946 233.668 546.334 233.074 546.334 232.318ZM559.341 235.396L555.903 244.162H553.815L550.251 235.396H552.555L554.877 241.66L557.145 235.396H559.341ZM562.073 238.816H566.375C566.339 237.79 565.655 236.872 564.215 236.872C562.901 236.872 562.145 237.88 562.073 238.816ZM566.609 241.102L568.373 241.66C567.905 243.19 566.519 244.432 564.413 244.432C562.037 244.432 559.931 242.704 559.931 239.734C559.931 236.962 561.983 235.126 564.197 235.126C566.897 235.126 568.481 236.908 568.481 239.68C568.481 240.022 568.445 240.31 568.427 240.346H562.019C562.073 241.678 563.117 242.632 564.413 242.632C565.673 242.632 566.321 241.966 566.609 241.102ZM574.167 241.786L575.985 241.282C576.057 242.074 576.651 242.776 577.767 242.776C578.631 242.776 579.081 242.308 579.081 241.768C579.081 241.3 578.757 240.94 578.055 240.796L576.759 240.508C575.211 240.166 574.401 239.158 574.401 237.952C574.401 236.422 575.805 235.126 577.623 235.126C580.071 235.126 580.863 236.71 581.007 237.574L579.243 238.078C579.171 237.574 578.793 236.764 577.623 236.764C576.885 236.764 576.363 237.232 576.363 237.772C576.363 238.24 576.705 238.582 577.245 238.69L578.577 238.96C580.233 239.32 581.097 240.328 581.097 241.624C581.097 242.956 580.017 244.432 577.785 244.432C575.247 244.432 574.275 242.776 574.167 241.786ZM582.504 241.786C582.504 240.22 583.656 239.356 585.15 239.14L587.4 238.798C587.904 238.726 588.048 238.474 588.048 238.168C588.048 237.43 587.544 236.836 586.392 236.836C585.294 236.836 584.682 237.538 584.592 238.42L582.684 237.988C582.846 236.476 584.214 235.126 586.374 235.126C589.074 235.126 590.1 236.656 590.1 238.402V242.758C590.1 243.55 590.19 244.072 590.208 244.162H588.264C588.246 244.108 588.174 243.748 588.174 243.046C587.76 243.712 586.896 244.432 585.474 244.432C583.638 244.432 582.504 243.172 582.504 241.786ZM585.87 242.794C587.04 242.794 588.048 242.236 588.048 240.526V240.13L585.762 240.472C585.114 240.58 584.592 240.94 584.592 241.66C584.592 242.254 585.042 242.794 585.87 242.794ZM600.457 235.396L597.019 244.162H594.931L591.367 235.396H593.671L595.993 241.66L598.261 235.396H600.457ZM604.064 244.162H601.994V235.396H604.064V244.162ZM601.67 232.318C601.67 231.562 602.282 230.95 603.02 230.95C603.776 230.95 604.388 231.562 604.388 232.318C604.388 233.074 603.776 233.668 603.02 233.668C602.282 233.668 601.67 233.074 601.67 232.318ZM608.845 239.104V244.162H606.757V235.396H608.791V236.566C609.367 235.558 610.411 235.144 611.383 235.144C613.525 235.144 614.551 236.692 614.551 238.618V244.162H612.463V238.978C612.463 237.898 611.977 237.034 610.663 237.034C609.475 237.034 608.845 237.952 608.845 239.104ZM616.463 244.648L618.389 244.144C618.533 245.224 619.379 246.034 620.585 246.034C622.241 246.034 623.069 245.188 623.069 243.406V242.488C622.691 243.172 621.809 243.766 620.531 243.766C618.191 243.766 616.481 241.966 616.481 239.5C616.481 237.16 618.119 235.234 620.531 235.234C621.899 235.234 622.745 235.792 623.123 236.512V235.396H625.139V243.334C625.139 245.674 623.933 247.852 620.639 247.852C618.317 247.852 616.697 246.412 616.463 244.648ZM620.873 241.984C622.205 241.984 623.123 241.012 623.123 239.5C623.123 238.006 622.169 237.034 620.873 237.034C619.541 237.034 618.587 238.006 618.587 239.5C618.587 241.03 619.505 241.984 620.873 241.984Z" fill="black"/>
</g>
<g filter="url(#filter5_d_1204_6487)">
<rect x="76.5684" y="442.406" width="140" height="54" rx="27" fill="white" shape-rendering="crispEdges"/>
<circle cx="103.568" cy="469.406" r="19" fill="#3EA0FD"/>
<g clip-path="url(#clip5_1204_6487)">
<path d="M94.6992 475.74C94.6992 476.412 94.9661 477.057 95.4412 477.532C95.9163 478.007 96.5607 478.274 97.2326 478.274C97.9044 478.274 98.5488 478.007 99.0239 477.532C99.499 477.057 99.7659 476.412 99.7659 475.74C99.7659 475.068 99.499 474.424 99.0239 473.949C98.5488 473.474 97.9044 473.207 97.2326 473.207C96.5607 473.207 95.9163 473.474 95.4412 473.949C94.9661 474.424 94.6992 475.068 94.6992 475.74Z" stroke="white" stroke-width="1.5" stroke-linecap="round" stroke-linejoin="round"/>
<path d="M107.366 475.74C107.366 476.412 107.633 477.057 108.108 477.532C108.583 478.007 109.228 478.274 109.9 478.274C110.571 478.274 111.216 478.007 111.691 477.532C112.166 477.057 112.433 476.412 112.433 475.74C112.433 475.068 112.166 474.424 111.691 473.949C111.216 473.474 110.571 473.207 109.9 473.207C109.228 473.207 108.583 473.474 108.108 473.949C107.633 474.424 107.366 475.068 107.366 475.74Z" stroke="white" stroke-width="1.5" stroke-linecap="round" stroke-linejoin="round"/>
<path d="M94.6993 475.74H92.166V468.14M92.166 468.14L94.6993 461.807H106.099L111.166 468.14M92.166 468.14H111.166M111.166 468.14H112.433C113.105 468.14 113.749 468.407 114.224 468.882C114.699 469.357 114.966 470.001 114.966 470.673V475.74H112.433M107.366 475.74H99.766M103.566 468.14V461.807" stroke="white" stroke-width="1.5" stroke-linecap="round" stroke-linejoin="round"/>
</g>
<path d="M144.108 475.906H136.098V463.144H138.258V473.854H144.108V475.906ZM147.326 470.56H151.628C151.592 469.534 150.908 468.616 149.468 468.616C148.154 468.616 147.398 469.624 147.326 470.56ZM151.862 472.846L153.626 473.404C153.158 474.934 151.772 476.176 149.666 476.176C147.29 476.176 145.184 474.448 145.184 471.478C145.184 468.706 147.236 466.87 149.45 466.87C152.15 466.87 153.734 468.652 153.734 471.424C153.734 471.766 153.698 472.054 153.68 472.09H147.272C147.326 473.422 148.37 474.376 149.666 474.376C150.926 474.376 151.574 473.71 151.862 472.846ZM155.189 473.53C155.189 471.964 156.341 471.1 157.835 470.884L160.085 470.542C160.589 470.47 160.733 470.218 160.733 469.912C160.733 469.174 160.229 468.58 159.077 468.58C157.979 468.58 157.367 469.282 157.277 470.164L155.369 469.732C155.531 468.22 156.899 466.87 159.059 466.87C161.759 466.87 162.785 468.4 162.785 470.146V474.502C162.785 475.294 162.875 475.816 162.893 475.906H160.949C160.931 475.852 160.859 475.492 160.859 474.79C160.445 475.456 159.581 476.176 158.159 476.176C156.323 476.176 155.189 474.916 155.189 473.53ZM158.555 474.538C159.725 474.538 160.733 473.98 160.733 472.27V471.874L158.447 472.216C157.799 472.324 157.277 472.684 157.277 473.404C157.277 473.998 157.727 474.538 158.555 474.538ZM164.535 473.53L166.353 473.026C166.425 473.818 167.019 474.52 168.135 474.52C168.999 474.52 169.449 474.052 169.449 473.512C169.449 473.044 169.125 472.684 168.423 472.54L167.127 472.252C165.579 471.91 164.769 470.902 164.769 469.696C164.769 468.166 166.173 466.87 167.991 466.87C170.439 466.87 171.231 468.454 171.375 469.318L169.611 469.822C169.539 469.318 169.161 468.508 167.991 468.508C167.253 468.508 166.731 468.976 166.731 469.516C166.731 469.984 167.073 470.326 167.613 470.434L168.945 470.704C170.601 471.064 171.465 472.072 171.465 473.368C171.465 474.7 170.385 476.176 168.153 476.176C165.615 476.176 164.643 474.52 164.535 473.53ZM175.606 475.906H173.536V467.14H175.606V475.906ZM173.212 464.062C173.212 463.306 173.824 462.694 174.562 462.694C175.318 462.694 175.93 463.306 175.93 464.062C175.93 464.818 175.318 465.412 174.562 465.412C173.824 465.412 173.212 464.818 173.212 464.062ZM180.387 470.848V475.906H178.299V467.14H180.333V468.31C180.909 467.302 181.953 466.888 182.925 466.888C185.067 466.888 186.093 468.436 186.093 470.362V475.906H184.005V470.722C184.005 469.642 183.519 468.778 182.205 468.778C181.017 468.778 180.387 469.696 180.387 470.848ZM188.005 476.392L189.931 475.888C190.075 476.968 190.921 477.778 192.127 477.778C193.783 477.778 194.611 476.932 194.611 475.15V474.232C194.233 474.916 193.351 475.51 192.073 475.51C189.733 475.51 188.023 473.71 188.023 471.244C188.023 468.904 189.661 466.978 192.073 466.978C193.441 466.978 194.287 467.536 194.665 468.256V467.14H196.681V475.078C196.681 477.418 195.475 479.596 192.181 479.596C189.859 479.596 188.239 478.156 188.005 476.392ZM192.415 473.728C193.747 473.728 194.665 472.756 194.665 471.244C194.665 469.75 193.711 468.778 192.415 468.778C191.083 468.778 190.129 469.75 190.129 471.244C190.129 472.774 191.047 473.728 192.415 473.728Z" fill="black"/>
</g>
<circle cx="106.399" cy="364.26" r="26.0606" fill="#FFCC81"/>
<g clip-path="url(#clip6_1204_6487)">
<path d="M94.8174 375.843H100.609L115.811 360.641C116.191 360.261 116.493 359.809 116.698 359.313C116.904 358.816 117.01 358.283 117.01 357.745C117.01 357.208 116.904 356.675 116.698 356.178C116.493 355.681 116.191 355.23 115.811 354.85C115.43 354.47 114.979 354.168 114.482 353.962C113.985 353.756 113.453 353.65 112.915 353.65C112.377 353.65 111.845 353.756 111.348 353.962C110.851 354.168 110.4 354.47 110.019 354.85L94.8174 370.052V375.843Z" stroke="white" stroke-width="1.5" stroke-linecap="round" stroke-linejoin="round"/>
<path d="M108.572 356.297L114.364 362.088" stroke="white" stroke-width="1.5" stroke-linecap="round" stroke-linejoin="round"/>
</g>
<circle cx="183.207" cy="137.945" r="26.0606" fill="#3397F6"/>
<g clip-path="url(#clip7_1204_6487)">
<path d="M183.208 127.811V148.08" stroke="white" stroke-width="1.5" stroke-linecap="round" stroke-linejoin="round"/>
<path d="M173.073 137.945H193.343" stroke="white" stroke-width="1.5" stroke-linecap="round" stroke-linejoin="round"/>
</g>
<circle cx="527.481" cy="132.457" r="26.0606" fill="#FF6822"/>
<g clip-path="url(#clip8_1204_6487)">
<path d="M535.71 124.229L519.251 140.688" stroke="white" stroke-width="1.5" stroke-linecap="round" stroke-linejoin="round"/>
<path d="M519.251 124.229L535.71 140.688" stroke="white" stroke-width="1.5" stroke-linecap="round" stroke-linejoin="round"/>
</g>
<circle cx="616.639" cy="364.26" r="26.0606" fill="#97EB91"/>
<g clip-path="url(#clip9_1204_6487)">
<path d="M607.037 364.26L613.895 371.118L627.611 357.402" stroke="white" stroke-width="1.5" stroke-linecap="round" stroke-linejoin="round"/>
</g>
<defs>
<filter id="filter0_d_1204_6487" x="215.624" y="0" width="258" height="154" filterUnits="userSpaceOnUse" color-interpolation-filters="sRGB">
<feFlood flood-opacity="0" result="BackgroundImageFix"/>
<feColorMatrix in="SourceAlpha" type="matrix" values="0 0 0 0 0 0 0 0 0 0 0 0 0 0 0 0 0 0 127 0" result="hardAlpha"/>
<feOffset dy="4"/>
<feGaussianBlur stdDeviation="25"/>
<feComposite in2="hardAlpha" operator="out"/>
<feColorMatrix type="matrix" values="0 0 0 0 0 0 0 0 0 0 0 0 0 0 0 0 0 0 0.1 0"/>
<feBlend mode="normal" in2="BackgroundImageFix" result="effect1_dropShadow_1204_6487"/>
<feBlend mode="normal" in="SourceGraphic" in2="effect1_dropShadow_1204_6487" result="shape"/>
</filter>
<filter id="filter1_d_1204_6487" x="191.23" y="498.863" width="298" height="154" filterUnits="userSpaceOnUse" color-interpolation-filters="sRGB">
<feFlood flood-opacity="0" result="BackgroundImageFix"/>
<feColorMatrix in="SourceAlpha" type="matrix" values="0 0 0 0 0 0 0 0 0 0 0 0 0 0 0 0 0 0 127 0" result="hardAlpha"/>
<feOffset dy="4"/>
<feGaussianBlur stdDeviation="25"/>
<feComposite in2="hardAlpha" operator="out"/>
<feColorMatrix type="matrix" values="0 0 0 0 0 0 0 0 0 0 0 0 0 0 0 0 0 0 0.1 0"/>
<feBlend mode="normal" in2="BackgroundImageFix" result="effect1_dropShadow_1204_6487"/>
<feBlend mode="normal" in="SourceGraphic" in2="effect1_dropShadow_1204_6487" result="shape"/>
</filter>
<filter id="filter2_d_1204_6487" x="0.955078" y="164.662" width="280" height="154" filterUnits="userSpaceOnUse" color-interpolation-filters="sRGB">
<feFlood flood-opacity="0" result="BackgroundImageFix"/>
<feColorMatrix in="SourceAlpha" type="matrix" values="0 0 0 0 0 0 0 0 0 0 0 0 0 0 0 0 0 0 127 0" result="hardAlpha"/>
<feOffset dy="4"/>
<feGaussianBlur stdDeviation="25"/>
<feComposite in2="hardAlpha" operator="out"/>
<feColorMatrix type="matrix" values="0 0 0 0 0 0 0 0 0 0 0 0 0 0 0 0 0 0 0.1 0"/>
<feBlend mode="normal" in2="BackgroundImageFix" result="effect1_dropShadow_1204_6487"/>
<feBlend mode="normal" in="SourceGraphic" in2="effect1_dropShadow_1204_6487" result="shape"/>
</filter>
<filter id="filter3_d_1204_6487" x="372.968" y="396.406" width="271" height="154" filterUnits="userSpaceOnUse" color-interpolation-filters="sRGB">
<feFlood flood-opacity="0" result="BackgroundImageFix"/>
<feColorMatrix in="SourceAlpha" type="matrix" values="0 0 0 0 0 0 0 0 0 0 0 0 0 0 0 0 0 0 127 0" result="hardAlpha"/>
<feOffset dy="4"/>
<feGaussianBlur stdDeviation="25"/>
<feComposite in2="hardAlpha" operator="out"/>
<feColorMatrix type="matrix" values="0 0 0 0 0 0 0 0 0 0 0 0 0 0 0 0 0 0 0.1 0"/>
<feBlend mode="normal" in2="BackgroundImageFix" result="effect1_dropShadow_1204_6487"/>
<feBlend mode="normal" in="SourceGraphic" in2="effect1_dropShadow_1204_6487" result="shape"/>
</filter>
<filter id="filter4_d_1204_6487" x="408.339" y="164.662" width="287" height="154" filterUnits="userSpaceOnUse" color-interpolation-filters="sRGB">
<feFlood flood-opacity="0" result="BackgroundImageFix"/>
<feColorMatrix in="SourceAlpha" type="matrix" values="0 0 0 0 0 0 0 0 0 0 0 0 0 0 0 0 0 0 127 0" result="hardAlpha"/>
<feOffset dy="4"/>
<feGaussianBlur stdDeviation="25"/>
<feComposite in2="hardAlpha" operator="out"/>
<feColorMatrix type="matrix" values="0 0 0 0 0 0 0 0 0 0 0 0 0 0 0 0 0 0 0.1 0"/>
<feBlend mode="normal" in2="BackgroundImageFix" result="effect1_dropShadow_1204_6487"/>
<feBlend mode="normal" in="SourceGraphic" in2="effect1_dropShadow_1204_6487" result="shape"/>
</filter>
<filter id="filter5_d_1204_6487" x="26.5684" y="396.406" width="240" height="154" filterUnits="userSpaceOnUse" color-interpolation-filters="sRGB">
<feFlood flood-opacity="0" result="BackgroundImageFix"/>
<feColorMatrix in="SourceAlpha" type="matrix" values="0 0 0 0 0 0 0 0 0 0 0 0 0 0 0 0 0 0 127 0" result="hardAlpha"/>
<feOffset dy="4"/>
<feGaussianBlur stdDeviation="25"/>
<feComposite in2="hardAlpha" operator="out"/>
<feColorMatrix type="matrix" values="0 0 0 0 0 0 0 0 0 0 0 0 0 0 0 0 0 0 0.1 0"/>
<feBlend mode="normal" in2="BackgroundImageFix" result="effect1_dropShadow_1204_6487"/>
<feBlend mode="normal" in="SourceGraphic" in2="effect1_dropShadow_1204_6487" result="shape"/>
</filter>
<clipPath id="clip0_1204_6487">
<rect width="28.5" height="28.5" fill="white" transform="translate(278.374 58.75)"/>
</clipPath>
<clipPath id="clip1_1204_6487">
<rect width="30.4" height="30.4" fill="white" transform="translate(253.028 556.664)"/>
</clipPath>
<clipPath id="clip2_1204_6487">
<rect width="30.4" height="30.4" fill="white" transform="translate(62.7529 222.463)"/>
</clipPath>
<clipPath id="clip3_1204_6487">
<rect width="30.4" height="30.4" fill="white" transform="translate(434.766 454.207)"/>
</clipPath>
<clipPath id="clip4_1204_6487">
<rect width="30.4" height="30.4" fill="white" transform="translate(470.137 222.463)"/>
</clipPath>
<clipPath id="clip5_1204_6487">
<rect width="30.4" height="30.4" fill="white" transform="translate(88.3662 454.207)"/>
</clipPath>
<clipPath id="clip6_1204_6487">
<rect width="34.7475" height="34.7475" fill="white" transform="translate(89.0264 346.887)"/>
</clipPath>
<clipPath id="clip7_1204_6487">
<rect width="34.7475" height="34.7475" fill="white" transform="translate(165.834 120.572)"/>
</clipPath>
<clipPath id="clip8_1204_6487">
<rect width="32.9187" height="32.9187" fill="white" transform="translate(511.021 115.998)"/>
</clipPath>
<clipPath id="clip9_1204_6487">
<rect width="32.9187" height="32.9187" fill="white" transform="translate(600.179 347.801)"/>
</clipPath>
</defs>
</svg>
