<svg width="651" height="741" viewBox="0 0 651 741" fill="none" xmlns="http://www.w3.org/2000/svg">
<g clip-path="url(#clip0_2105_1007)">
<path d="M650.241 739.32L1.2168 369.948L458.604 109.59L458.604 320.725L372.201 370.044L650.241 528.834L650.241 739.32Z" stroke="#E0E4F4" stroke-miterlimit="10"/>
<path d="M644.217 728.98L13.3623 369.948L452.58 119.929L452.58 317.242L360.08 370.044L644.217 532.316L644.217 728.98Z" stroke="#E0E4F4" stroke-miterlimit="10"/>
<path d="M638.192 718.631L25.5073 369.95L446.555 130.271L446.555 313.762L347.959 370.046L638.192 535.8L638.192 718.631Z" stroke="#E0E4F4" stroke-miterlimit="10"/>
<path d="M632.167 708.291L37.6646 369.949L440.53 140.621L440.53 310.279L335.85 370.045L632.167 539.27L632.167 708.291Z" stroke="#E0E4F4" stroke-miterlimit="10"/>
<path d="M626.143 697.951L49.8101 369.949L434.506 150.96L434.506 306.796L323.729 370.045L626.143 542.752L626.143 697.951Z" stroke="#E0E4F4" stroke-miterlimit="10"/>
<path d="M620.119 687.611L61.9551 369.948L428.482 161.311L428.482 303.313L311.608 370.044L620.119 546.234L620.119 687.611Z" stroke="#E0E4F4" stroke-miterlimit="10"/>
<path d="M614.095 677.26L74.1006 369.948L422.457 171.651L422.457 299.842L299.487 370.044L614.095 549.717L614.095 677.26Z" stroke="#E0E4F4" stroke-miterlimit="10"/>
<path d="M608.07 666.922L86.2578 369.95L416.433 181.991L416.433 296.361L287.365 370.034L608.07 553.189L608.07 666.922Z" stroke="#E0E4F4" stroke-miterlimit="10"/>
<path d="M602.045 656.582L98.4028 369.949L410.408 192.342L410.408 292.878L275.256 370.033L602.045 556.671L602.045 656.582Z" stroke="#E0E4F4" stroke-miterlimit="10"/>
<path d="M596.021 646.23L110.548 369.949L404.384 202.682L404.384 289.396L263.135 370.033L596.021 560.153L596.021 646.23Z" stroke="#E0E4F4" stroke-miterlimit="10"/>
<path d="M589.997 635.891L122.693 369.949L398.359 213.02L398.359 285.913L251.014 370.033L589.997 563.635L589.997 635.891Z" stroke="#E0E4F4" stroke-miterlimit="10"/>
<path d="M583.972 625.551L134.851 369.948L392.335 223.371L392.335 282.442L238.893 370.032L583.972 567.105L583.972 625.551Z" stroke="#E0E4F4" stroke-miterlimit="10"/>
<path d="M577.948 615.213L146.996 369.95L386.311 233.712L386.311 278.961L226.772 370.034L577.948 570.589L577.948 615.213Z" stroke="#E0E4F4" stroke-miterlimit="10"/>
<path d="M571.924 604.861L159.142 369.949L380.286 244.064L380.286 275.478L214.651 370.034L571.924 574.071L571.924 604.861Z" stroke="#E0E4F4" stroke-miterlimit="10"/>
<path d="M565.899 593.32L173.696 369.949L374.262 255.603L374.262 270.794L201.336 370.033L565.899 577.553L565.899 593.32Z" stroke="#E0E4F4" stroke-miterlimit="10"/>
<path d="M491.883 393.701L491.883 92.8742L649.747 1.04455L650.398 483.934L491.883 393.701Z" stroke="#E0E4F4" stroke-miterlimit="10"/>
<path d="M497.907 390.218L497.907 96.3205L643.747 11.4919L644.361 473.582L497.907 390.218Z" stroke="#E0E4F4" stroke-miterlimit="10"/>
<path d="M503.932 386.738L503.932 99.7688L637.734 21.9532L638.325 463.232L503.932 386.738Z" stroke="#E0E4F4" stroke-miterlimit="10"/>
<path d="M509.956 383.243L509.956 103.227L631.722 32.4004L632.276 452.881L509.956 383.243Z" stroke="#E0E4F4" stroke-miterlimit="10"/>
<path d="M515.98 379.76L515.98 106.673L625.709 42.8478L626.24 442.529L515.98 379.76Z" stroke="#E0E4F4" stroke-miterlimit="10"/>
<path d="M522.005 376.278L522.005 110.12L619.697 53.2951L620.203 432.178L522.005 376.278Z" stroke="#E0E4F4" stroke-miterlimit="10"/>
<path d="M528.029 372.795L528.029 113.566L613.685 63.7423L614.167 421.826L528.029 372.795Z" stroke="#E0E4F4" stroke-miterlimit="10"/>
<path d="M534.054 369.3L534.054 117.012L607.684 74.1896L608.13 411.475L534.054 369.3Z" stroke="#E0E4F4" stroke-miterlimit="10"/>
<path d="M540.078 365.818L540.078 120.459L601.672 84.637L602.094 401.123L540.078 365.818Z" stroke="#E0E4F4" stroke-miterlimit="10"/>
<path d="M546.103 362.335L546.103 123.905L595.66 95.0842L596.057 390.771L546.103 362.335Z" stroke="#E0E4F4" stroke-miterlimit="10"/>
<path d="M552.127 358.853L552.127 127.351L589.647 105.532L590.009 380.42L552.127 358.853Z" stroke="#E0E4F4" stroke-miterlimit="10"/>
<path d="M558.151 355.358L558.151 130.797L583.635 115.979L583.972 370.068L558.151 355.358Z" stroke="#E0E4F4" stroke-miterlimit="10"/>
<path d="M564.176 351.875L564.176 134.256L577.622 126.426L577.936 359.717L564.176 351.875Z" stroke="#E0E4F4" stroke-miterlimit="10"/>
<path d="M559.561 582.092L188.083 369.756L368.815 266.542" stroke="#E0E4F4" stroke-miterlimit="10"/>
<path d="M571.381 350.123L571.381 137.019" stroke="#E0E4F4" stroke-miterlimit="10"/>
</g>
<defs>
<clipPath id="clip0_2105_1007">
<rect width="740.353" height="651" fill="white" transform="translate(0 740.354) rotate(-90)"/>
</clipPath>
</defs>
</svg>
