<svg width="696" height="653" viewBox="0 0 696 653" fill="none" xmlns="http://www.w3.org/2000/svg">
<ellipse opacity="0.9" cx="360.189" cy="328.579" rx="259.189" ry="258.579" fill="white" fill-opacity="0.2"/>
<circle opacity="0.9" cx="360.271" cy="328.271" r="165.271" fill="white" fill-opacity="0.3"/>
<circle cx="360.5" cy="328.5" r="85.5" fill="white"/>
<g filter="url(#filter0_d_1990_1665)">
<rect x="265.624" y="46" width="158" height="54" rx="27" fill="white" shape-rendering="crispEdges"/>
<circle cx="292.624" cy="73" r="19" fill="#19C5C7"/>
<g clip-path="url(#clip0_1990_1665)">
<path d="M289.062 73C289.062 73.9448 289.437 74.851 290.105 75.5191C290.773 76.1872 291.679 76.5625 292.624 76.5625C293.569 76.5625 294.475 76.1872 295.143 75.5191C295.811 74.851 296.187 73.9448 296.187 73C296.187 72.0552 295.811 71.149 295.143 70.4809C294.475 69.8128 293.569 69.4375 292.624 69.4375C291.679 69.4375 290.773 69.8128 290.105 70.4809C289.437 71.149 289.062 72.0552 289.062 73Z" stroke="white" stroke-width="1.5" stroke-linecap="round" stroke-linejoin="round"/>
<path d="M281.937 68.25C281.937 67.6201 282.187 67.016 282.632 66.5706C283.078 66.1252 283.682 65.875 284.312 65.875H300.937C301.566 65.875 302.171 66.1252 302.616 66.5706C303.061 67.016 303.312 67.6201 303.312 68.25V77.75C303.312 78.3799 303.061 78.984 302.616 79.4294C302.171 79.8748 301.566 80.125 300.937 80.125H284.312C283.682 80.125 283.078 79.8748 282.632 79.4294C282.187 78.984 281.937 78.3799 281.937 77.75V68.25Z" stroke="white" stroke-width="1.5" stroke-linecap="round" stroke-linejoin="round"/>
<path d="M299.749 73H299.759" stroke="white" stroke-width="1.5" stroke-linecap="round" stroke-linejoin="round"/>
<path d="M285.499 73H285.509" stroke="white" stroke-width="1.5" stroke-linecap="round" stroke-linejoin="round"/>
</g>
<path d="M330.824 79.77C327.386 79.77 324.38 77.286 324.38 73.128C324.38 68.97 327.494 66.468 330.806 66.468C334.046 66.468 335.972 68.376 336.548 70.608L334.514 71.292C334.136 69.744 332.948 68.502 330.806 68.502C328.7 68.502 326.594 70.032 326.594 73.128C326.594 76.116 328.646 77.7 330.824 77.7C332.966 77.7 334.19 76.332 334.622 74.892L336.602 75.54C336.026 77.7 334.082 79.77 330.824 79.77ZM337.776 77.124C337.776 75.558 338.928 74.694 340.422 74.478L342.672 74.136C343.176 74.064 343.32 73.812 343.32 73.506C343.32 72.768 342.816 72.174 341.664 72.174C340.566 72.174 339.954 72.876 339.864 73.758L337.956 73.326C338.118 71.814 339.486 70.464 341.646 70.464C344.346 70.464 345.372 71.994 345.372 73.74V78.096C345.372 78.888 345.462 79.41 345.48 79.5H343.536C343.518 79.446 343.446 79.086 343.446 78.384C343.032 79.05 342.168 79.77 340.746 79.77C338.91 79.77 337.776 78.51 337.776 77.124ZM341.142 78.132C342.312 78.132 343.32 77.574 343.32 75.864V75.468L341.034 75.81C340.386 75.918 339.864 76.278 339.864 76.998C339.864 77.592 340.314 78.132 341.142 78.132ZM347.122 77.124L348.94 76.62C349.012 77.412 349.606 78.114 350.722 78.114C351.586 78.114 352.036 77.646 352.036 77.106C352.036 76.638 351.712 76.278 351.01 76.134L349.714 75.846C348.166 75.504 347.356 74.496 347.356 73.29C347.356 71.76 348.76 70.464 350.578 70.464C353.026 70.464 353.818 72.048 353.962 72.912L352.198 73.416C352.126 72.912 351.748 72.102 350.578 72.102C349.84 72.102 349.318 72.57 349.318 73.11C349.318 73.578 349.66 73.92 350.2 74.028L351.532 74.298C353.188 74.658 354.052 75.666 354.052 76.962C354.052 78.294 352.972 79.77 350.74 79.77C348.202 79.77 347.23 78.114 347.122 77.124ZM358.21 74.352V79.5H356.122V66.468H358.21V71.58C358.804 70.806 359.794 70.482 360.712 70.482C362.872 70.482 363.916 72.03 363.916 73.956V79.5H361.828V74.316C361.828 73.236 361.342 72.372 360.028 72.372C358.876 72.372 358.246 73.236 358.21 74.352ZM373.011 79.5H370.923V66.468H373.011V79.5ZM379.556 77.898C380.852 77.898 382.004 76.944 382.004 75.108C382.004 73.29 380.852 72.354 379.556 72.354C378.278 72.354 377.108 73.29 377.108 75.108C377.108 76.926 378.278 77.898 379.556 77.898ZM379.556 70.464C382.184 70.464 384.11 72.426 384.11 75.108C384.11 77.808 382.184 79.77 379.556 79.77C376.946 79.77 375.02 77.808 375.02 75.108C375.02 72.426 376.946 70.464 379.556 70.464ZM385.588 77.124C385.588 75.558 386.74 74.694 388.234 74.478L390.484 74.136C390.988 74.064 391.132 73.812 391.132 73.506C391.132 72.768 390.628 72.174 389.476 72.174C388.378 72.174 387.766 72.876 387.676 73.758L385.768 73.326C385.93 71.814 387.298 70.464 389.458 70.464C392.158 70.464 393.184 71.994 393.184 73.74V78.096C393.184 78.888 393.274 79.41 393.292 79.5H391.348C391.33 79.446 391.258 79.086 391.258 78.384C390.844 79.05 389.98 79.77 388.558 79.77C386.722 79.77 385.588 78.51 385.588 77.124ZM388.954 78.132C390.124 78.132 391.132 77.574 391.132 75.864V75.468L388.846 75.81C388.198 75.918 387.676 76.278 387.676 76.998C387.676 77.592 388.126 78.132 388.954 78.132ZM397.796 74.442V79.5H395.708V70.734H397.742V71.904C398.318 70.896 399.362 70.482 400.334 70.482C402.476 70.482 403.502 72.03 403.502 73.956V79.5H401.414V74.316C401.414 73.236 400.928 72.372 399.614 72.372C398.426 72.372 397.796 73.29 397.796 74.442Z" fill="black"/>
</g>
<path d="M42.26 140L41.054 136.796H35.654L34.466 140H32.18L37.148 127.238H39.65L44.618 140H42.26ZM38.354 129.578L36.41 134.798H40.298L38.354 129.578ZM47.3751 135.59C47.3751 137.264 48.3111 138.38 49.7331 138.38C51.1011 138.38 52.0551 137.246 52.0551 135.572C52.0551 133.898 51.1191 132.854 49.7511 132.854C48.3831 132.854 47.3751 133.916 47.3751 135.59ZM54.0711 126.968V138.398C54.0711 139.19 54.1431 139.856 54.1611 140H52.1631C52.1271 139.802 52.0731 139.226 52.0731 138.866C51.6591 139.604 50.7411 140.216 49.4991 140.216C46.9791 140.216 45.2871 138.236 45.2871 135.59C45.2871 133.07 46.9971 131 49.4631 131C50.9931 131 51.7671 131.702 52.0371 132.26V126.968H54.0711ZM58.2032 135.59C58.2032 137.264 59.1392 138.38 60.5612 138.38C61.9292 138.38 62.8832 137.246 62.8832 135.572C62.8832 133.898 61.9472 132.854 60.5792 132.854C59.2112 132.854 58.2032 133.916 58.2032 135.59ZM64.8992 126.968V138.398C64.8992 139.19 64.9712 139.856 64.9892 140H62.9912C62.9552 139.802 62.9012 139.226 62.9012 138.866C62.4872 139.604 61.5692 140.216 60.3272 140.216C57.8072 140.216 56.1152 138.236 56.1152 135.59C56.1152 133.07 57.8252 131 60.2912 131C61.8212 131 62.5952 131.702 62.8652 132.26V126.968H64.8992ZM74.1622 143.42H72.0922V131.234H74.1082V132.422C74.5402 131.666 75.5482 131.036 76.8982 131.036C79.4902 131.036 80.9482 133.016 80.9482 135.608C80.9482 138.236 79.3462 140.216 76.8262 140.216C75.5662 140.216 74.6122 139.676 74.1622 139.01V143.42ZM78.8602 135.608C78.8602 133.97 77.9062 132.89 76.5022 132.89C75.1342 132.89 74.1442 133.97 74.1442 135.608C74.1442 137.282 75.1342 138.362 76.5022 138.362C77.8882 138.362 78.8602 137.282 78.8602 135.608ZM88.0855 131.18V133.304C87.8515 133.268 87.6175 133.25 87.4015 133.25C85.7815 133.25 85.0435 134.186 85.0435 135.824V140H82.9555V131.234H84.9895V132.638C85.4035 131.684 86.3755 131.126 87.5275 131.126C87.7795 131.126 87.9955 131.162 88.0855 131.18ZM93.5926 138.398C94.8886 138.398 96.0406 137.444 96.0406 135.608C96.0406 133.79 94.8886 132.854 93.5926 132.854C92.3146 132.854 91.1446 133.79 91.1446 135.608C91.1446 137.426 92.3146 138.398 93.5926 138.398ZM93.5926 130.964C96.2206 130.964 98.1466 132.926 98.1466 135.608C98.1466 138.308 96.2206 140.27 93.5926 140.27C90.9826 140.27 89.0566 138.308 89.0566 135.608C89.0566 132.926 90.9826 130.964 93.5926 130.964ZM101.568 135.59C101.568 137.264 102.504 138.38 103.926 138.38C105.294 138.38 106.248 137.246 106.248 135.572C106.248 133.898 105.312 132.854 103.944 132.854C102.576 132.854 101.568 133.916 101.568 135.59ZM108.264 126.968V138.398C108.264 139.19 108.336 139.856 108.354 140H106.356C106.32 139.802 106.266 139.226 106.266 138.866C105.852 139.604 104.934 140.216 103.692 140.216C101.172 140.216 99.4805 138.236 99.4805 135.59C99.4805 133.07 101.19 131 103.656 131C105.186 131 105.96 131.702 106.23 132.26V126.968H108.264ZM116.646 139.028C116.214 139.82 115.188 140.252 114.162 140.252C112.074 140.252 110.85 138.704 110.85 136.76V131.234H112.938V136.382C112.938 137.462 113.442 138.38 114.702 138.38C115.908 138.38 116.538 137.57 116.538 136.418V131.234H118.626V138.398C118.626 139.118 118.68 139.676 118.716 140H116.718C116.682 139.802 116.646 139.388 116.646 139.028ZM125.092 132.89C123.814 132.89 122.68 133.844 122.68 135.608C122.68 137.372 123.814 138.362 125.128 138.362C126.496 138.362 127.126 137.408 127.324 136.742L129.16 137.408C128.746 138.776 127.432 140.27 125.128 140.27C122.554 140.27 120.592 138.272 120.592 135.608C120.592 132.908 122.554 130.964 125.074 130.964C127.432 130.964 128.728 132.44 129.088 133.844L127.216 134.528C127.018 133.754 126.424 132.89 125.092 132.89ZM133.66 128.552V131.234H135.478V133.088H133.66V137.156C133.66 137.93 134.002 138.254 134.776 138.254C135.064 138.254 135.406 138.2 135.496 138.182V139.91C135.37 139.964 134.974 140.108 134.218 140.108C132.598 140.108 131.59 139.136 131.59 137.498V133.088H129.97V131.234H130.42C131.356 131.234 131.77 130.64 131.77 129.866V128.552H133.66Z" fill="white"/>
<path d="M41.414 368.027H33.53V355.265H41.414V357.281H35.69V360.665H40.874V362.627H35.69V366.011H41.414V368.027ZM44.9669 363.617C44.9669 365.291 45.9029 366.407 47.3249 366.407C48.6929 366.407 49.6469 365.273 49.6469 363.599C49.6469 361.925 48.7109 360.881 47.3429 360.881C45.9749 360.881 44.9669 361.943 44.9669 363.617ZM51.6629 354.995V366.425C51.6629 367.217 51.7349 367.883 51.7529 368.027H49.7549C49.7189 367.829 49.6649 367.253 49.6649 366.893C49.2509 367.631 48.3329 368.243 47.0909 368.243C44.5709 368.243 42.8789 366.263 42.8789 363.617C42.8789 361.097 44.5889 359.027 47.0549 359.027C48.5849 359.027 49.3589 359.729 49.6289 360.287V354.995H51.6629ZM56.461 368.027H54.391V359.261H56.461V368.027ZM54.067 356.183C54.067 355.427 54.679 354.815 55.417 354.815C56.173 354.815 56.785 355.427 56.785 356.183C56.785 356.939 56.173 357.533 55.417 357.533C54.679 357.533 54.067 356.939 54.067 356.183ZM61.8007 356.579V359.261H63.6187V361.115H61.8007V365.183C61.8007 365.957 62.1427 366.281 62.9167 366.281C63.2047 366.281 63.5467 366.227 63.6367 366.209V367.937C63.5107 367.991 63.1147 368.135 62.3587 368.135C60.7387 368.135 59.7307 367.163 59.7307 365.525V361.115H58.1107V359.261H58.5607C59.4967 359.261 59.9107 358.667 59.9107 357.893V356.579H61.8007Z" fill="white"/>
<path d="M570.69 137.02H572.958C575.172 137.02 577.008 135.598 577.008 132.646C577.008 129.658 575.19 128.218 572.976 128.218H570.69V137.02ZM573.03 139H568.53V126.238H573.048C576.522 126.238 579.258 128.542 579.258 132.646C579.258 136.732 576.486 139 573.03 139ZM582.833 133.654H587.135C587.099 132.628 586.415 131.71 584.975 131.71C583.661 131.71 582.905 132.718 582.833 133.654ZM587.369 135.94L589.133 136.498C588.665 138.028 587.279 139.27 585.173 139.27C582.797 139.27 580.691 137.542 580.691 134.572C580.691 131.8 582.743 129.964 584.957 129.964C587.657 129.964 589.241 131.746 589.241 134.518C589.241 134.86 589.205 135.148 589.187 135.184H582.779C582.833 136.516 583.877 137.47 585.173 137.47C586.433 137.47 587.081 136.804 587.369 135.94ZM593.325 139H591.237V125.968H593.325V139ZM597.476 133.654H601.778C601.742 132.628 601.058 131.71 599.618 131.71C598.304 131.71 597.548 132.718 597.476 133.654ZM602.012 135.94L603.776 136.498C603.308 138.028 601.922 139.27 599.816 139.27C597.44 139.27 595.334 137.542 595.334 134.572C595.334 131.8 597.386 129.964 599.6 129.964C602.3 129.964 603.884 131.746 603.884 134.518C603.884 134.86 603.848 135.148 603.83 135.184H597.422C597.476 136.516 598.52 137.47 599.816 137.47C601.076 137.47 601.724 136.804 602.012 135.94ZM608.525 127.552V130.234H610.343V132.088H608.525V136.156C608.525 136.93 608.867 137.254 609.641 137.254C609.929 137.254 610.271 137.2 610.361 137.182V138.91C610.235 138.964 609.839 139.108 609.083 139.108C607.463 139.108 606.455 138.136 606.455 136.498V132.088H604.835V130.234H605.285C606.221 130.234 606.635 129.64 606.635 128.866V127.552H608.525ZM613.859 133.654H618.161C618.125 132.628 617.441 131.71 616.001 131.71C614.687 131.71 613.931 132.718 613.859 133.654ZM618.395 135.94L620.159 136.498C619.691 138.028 618.305 139.27 616.199 139.27C613.823 139.27 611.717 137.542 611.717 134.572C611.717 131.8 613.769 129.964 615.983 129.964C618.683 129.964 620.267 131.746 620.267 134.518C620.267 134.86 620.231 135.148 620.213 135.184H613.805C613.859 136.516 614.903 137.47 616.199 137.47C617.459 137.47 618.107 136.804 618.395 135.94Z" fill="white"/>
<g filter="url(#filter1_d_1990_1665)">
<rect x="241.23" y="544.863" width="198" height="54" rx="27" fill="white" shape-rendering="crispEdges"/>
<circle cx="268.23" cy="571.863" r="19" fill="#FF6822"/>
<g clip-path="url(#clip1_1990_1665)">
<path d="M259.361 571.865H256.828L268.228 560.465L279.628 571.865H277.094" stroke="white" stroke-width="1.5" stroke-linecap="round" stroke-linejoin="round"/>
<path d="M259.361 571.863V580.73C259.361 581.402 259.628 582.046 260.103 582.521C260.578 582.996 261.223 583.263 261.895 583.263H274.561C275.233 583.263 275.878 582.996 276.353 582.521C276.828 582.046 277.095 581.402 277.095 580.73V571.863" stroke="white" stroke-width="1.5" stroke-linecap="round" stroke-linejoin="round"/>
<path d="M264.428 583.264V575.664C264.428 574.992 264.695 574.348 265.17 573.873C265.645 573.398 266.289 573.131 266.961 573.131H269.494C270.166 573.131 270.811 573.398 271.286 573.873C271.761 574.348 272.028 574.992 272.028 575.664V583.264" stroke="white" stroke-width="1.5" stroke-linecap="round" stroke-linejoin="round"/>
</g>
<path d="M314.8 578.363H312.658V568.967L308.68 578.363H306.808L302.866 569.003V578.363H300.76V565.601H303.64L307.78 575.339L311.866 565.601H314.8V578.363ZM321.501 576.761C322.797 576.761 323.949 575.807 323.949 573.971C323.949 572.153 322.797 571.217 321.501 571.217C320.223 571.217 319.053 572.153 319.053 573.971C319.053 575.789 320.223 576.761 321.501 576.761ZM321.501 569.327C324.129 569.327 326.055 571.289 326.055 573.971C326.055 576.671 324.129 578.633 321.501 578.633C318.891 578.633 316.965 576.671 316.965 573.971C316.965 571.289 318.891 569.327 321.501 569.327ZM333.203 569.543V571.667C332.969 571.631 332.735 571.613 332.519 571.613C330.899 571.613 330.161 572.549 330.161 574.187V578.363H328.073V569.597H330.107V571.001C330.521 570.047 331.493 569.489 332.645 569.489C332.897 569.489 333.113 569.525 333.203 569.543ZM337.978 566.915V569.597H339.796V571.451H337.978V575.519C337.978 576.293 338.32 576.617 339.094 576.617C339.382 576.617 339.724 576.563 339.814 576.545V578.273C339.688 578.327 339.292 578.471 338.536 578.471C336.916 578.471 335.908 577.499 335.908 575.861V571.451H334.288V569.597H334.738C335.674 569.597 336.088 569.003 336.088 568.229V566.915H337.978ZM341.224 578.849L343.15 578.345C343.294 579.425 344.14 580.235 345.346 580.235C347.002 580.235 347.83 579.389 347.83 577.607V576.689C347.452 577.373 346.57 577.967 345.292 577.967C342.952 577.967 341.242 576.167 341.242 573.701C341.242 571.361 342.88 569.435 345.292 569.435C346.66 569.435 347.506 569.993 347.884 570.713V569.597H349.9V577.535C349.9 579.875 348.694 582.053 345.4 582.053C343.078 582.053 341.458 580.613 341.224 578.849ZM345.634 576.185C346.966 576.185 347.884 575.213 347.884 573.701C347.884 572.207 346.93 571.235 345.634 571.235C344.302 571.235 343.348 572.207 343.348 573.701C343.348 575.231 344.266 576.185 345.634 576.185ZM351.826 575.987C351.826 574.421 352.978 573.557 354.472 573.341L356.722 572.999C357.226 572.927 357.37 572.675 357.37 572.369C357.37 571.631 356.866 571.037 355.714 571.037C354.616 571.037 354.004 571.739 353.914 572.621L352.006 572.189C352.168 570.677 353.536 569.327 355.696 569.327C358.396 569.327 359.422 570.857 359.422 572.603V576.959C359.422 577.751 359.512 578.273 359.53 578.363H357.586C357.568 578.309 357.496 577.949 357.496 577.247C357.082 577.913 356.218 578.633 354.796 578.633C352.96 578.633 351.826 577.373 351.826 575.987ZM355.192 576.995C356.362 576.995 357.37 576.437 357.37 574.727V574.331L355.084 574.673C354.436 574.781 353.914 575.141 353.914 575.861C353.914 576.455 354.364 576.995 355.192 576.995ZM361.298 578.849L363.224 578.345C363.368 579.425 364.214 580.235 365.42 580.235C367.076 580.235 367.904 579.389 367.904 577.607V576.689C367.526 577.373 366.644 577.967 365.366 577.967C363.026 577.967 361.316 576.167 361.316 573.701C361.316 571.361 362.954 569.435 365.366 569.435C366.734 569.435 367.58 569.993 367.958 570.713V569.597H369.974V577.535C369.974 579.875 368.768 582.053 365.474 582.053C363.152 582.053 361.532 580.613 361.298 578.849ZM365.708 576.185C367.04 576.185 367.958 575.213 367.958 573.701C367.958 572.207 367.004 571.235 365.708 571.235C364.376 571.235 363.422 572.207 363.422 573.701C363.422 575.231 364.34 576.185 365.708 576.185ZM373.986 573.017H378.288C378.252 571.991 377.568 571.073 376.128 571.073C374.814 571.073 374.058 572.081 373.986 573.017ZM378.522 575.303L380.286 575.861C379.818 577.391 378.432 578.633 376.326 578.633C373.95 578.633 371.844 576.905 371.844 573.935C371.844 571.163 373.896 569.327 376.11 569.327C378.81 569.327 380.394 571.109 380.394 573.881C380.394 574.223 380.358 574.511 380.34 574.547H373.932C373.986 575.879 375.03 576.833 376.326 576.833C377.586 576.833 378.234 576.167 378.522 575.303ZM388.942 578.363H386.854V565.331H388.942V578.363ZM395.487 576.761C396.783 576.761 397.935 575.807 397.935 573.971C397.935 572.153 396.783 571.217 395.487 571.217C394.209 571.217 393.039 572.153 393.039 573.971C393.039 575.789 394.209 576.761 395.487 576.761ZM395.487 569.327C398.115 569.327 400.041 571.289 400.041 573.971C400.041 576.671 398.115 578.633 395.487 578.633C392.877 578.633 390.951 576.671 390.951 573.971C390.951 571.289 392.877 569.327 395.487 569.327ZM401.519 575.987C401.519 574.421 402.671 573.557 404.165 573.341L406.415 572.999C406.919 572.927 407.063 572.675 407.063 572.369C407.063 571.631 406.559 571.037 405.407 571.037C404.309 571.037 403.697 571.739 403.607 572.621L401.699 572.189C401.861 570.677 403.229 569.327 405.389 569.327C408.089 569.327 409.115 570.857 409.115 572.603V576.959C409.115 577.751 409.205 578.273 409.223 578.363H407.279C407.261 578.309 407.189 577.949 407.189 577.247C406.775 577.913 405.911 578.633 404.489 578.633C402.653 578.633 401.519 577.373 401.519 575.987ZM404.885 576.995C406.055 576.995 407.063 576.437 407.063 574.727V574.331L404.777 574.673C404.129 574.781 403.607 575.141 403.607 575.861C403.607 576.455 404.057 576.995 404.885 576.995ZM413.727 573.305V578.363H411.639V569.597H413.673V570.767C414.249 569.759 415.293 569.345 416.265 569.345C418.407 569.345 419.433 570.893 419.433 572.819V578.363H417.345V573.179C417.345 572.099 416.859 571.235 415.545 571.235C414.357 571.235 413.727 572.153 413.727 573.305Z" fill="black"/>
</g>
<g filter="url(#filter2_d_1990_1665)">
<rect x="50.9551" y="210.662" width="180" height="54" rx="27" fill="white" shape-rendering="crispEdges"/>
<circle cx="77.9551" cy="237.662" r="19" fill="#FFCC81"/>
<g clip-path="url(#clip2_1990_1665)">
<path d="M66.5522 232.597C66.5522 231.589 66.9526 230.623 67.6652 229.91C68.3779 229.197 69.3444 228.797 70.3522 228.797H85.5522C86.5601 228.797 87.5266 229.197 88.2393 229.91C88.9519 230.623 89.3523 231.589 89.3523 232.597V242.73C89.3523 243.738 88.9519 244.705 88.2393 245.417C87.5266 246.13 86.5601 246.53 85.5522 246.53H70.3522C69.3444 246.53 68.3779 246.13 67.6652 245.417C66.9526 244.705 66.5522 243.738 66.5522 242.73V232.597Z" stroke="white" stroke-width="1.5" stroke-linecap="round" stroke-linejoin="round"/>
<path d="M66.5522 235.129H89.3523" stroke="white" stroke-width="1.5" stroke-linecap="round" stroke-linejoin="round"/>
<path d="M71.6191 241.463H71.6291" stroke="white" stroke-width="1.5" stroke-linecap="round" stroke-linejoin="round"/>
<path d="M76.6855 241.463H79.2189" stroke="white" stroke-width="1.5" stroke-linecap="round" stroke-linejoin="round"/>
</g>
<path d="M116.955 245.462C113.135 245.462 109.795 242.702 109.795 238.082C109.795 233.462 113.255 230.682 116.935 230.682C120.535 230.682 122.675 232.802 123.315 235.282L121.055 236.042C120.635 234.322 119.315 232.942 116.935 232.942C114.595 232.942 112.255 234.642 112.255 238.082C112.255 241.402 114.535 243.162 116.955 243.162C119.335 243.162 120.695 241.642 121.175 240.042L123.375 240.762C122.735 243.162 120.575 245.462 116.955 245.462ZM131.077 235.362V237.722C130.817 237.682 130.557 237.662 130.317 237.662C128.517 237.662 127.697 238.702 127.697 240.522V245.162H125.377V235.422H127.637V236.982C128.097 235.922 129.177 235.302 130.457 235.302C130.737 235.302 130.977 235.342 131.077 235.362ZM134.536 239.222H139.316C139.276 238.082 138.516 237.062 136.916 237.062C135.456 237.062 134.616 238.182 134.536 239.222ZM139.576 241.762L141.536 242.382C141.016 244.082 139.476 245.462 137.136 245.462C134.496 245.462 132.156 243.542 132.156 240.242C132.156 237.162 134.436 235.122 136.896 235.122C139.896 235.122 141.656 237.102 141.656 240.182C141.656 240.562 141.616 240.882 141.596 240.922H134.476C134.536 242.402 135.696 243.462 137.136 243.462C138.536 243.462 139.256 242.722 139.576 241.762ZM145.433 240.262C145.433 242.122 146.473 243.362 148.053 243.362C149.573 243.362 150.633 242.102 150.633 240.242C150.633 238.382 149.593 237.222 148.073 237.222C146.553 237.222 145.433 238.402 145.433 240.262ZM152.873 230.682V243.382C152.873 244.262 152.953 245.002 152.973 245.162H150.753C150.713 244.942 150.653 244.302 150.653 243.902C150.193 244.722 149.173 245.402 147.793 245.402C144.993 245.402 143.113 243.202 143.113 240.262C143.113 237.462 145.013 235.162 147.753 235.162C149.453 235.162 150.313 235.942 150.613 236.562V230.682H152.873ZM158.204 245.162H155.904V235.422H158.204V245.162ZM155.544 232.002C155.544 231.162 156.224 230.482 157.044 230.482C157.884 230.482 158.564 231.162 158.564 232.002C158.564 232.842 157.884 233.502 157.044 233.502C156.224 233.502 155.544 232.842 155.544 232.002ZM164.137 232.442V235.422H166.157V237.482H164.137V242.002C164.137 242.862 164.517 243.222 165.377 243.222C165.697 243.222 166.077 243.162 166.177 243.142V245.062C166.037 245.122 165.597 245.282 164.757 245.282C162.957 245.282 161.837 244.202 161.837 242.382V237.482H160.037V235.422H160.537C161.577 235.422 162.037 234.762 162.037 233.902V232.442H164.137ZM177.703 237.262C176.283 237.262 175.023 238.322 175.023 240.282C175.023 242.242 176.283 243.342 177.743 243.342C179.263 243.342 179.963 242.282 180.183 241.542L182.223 242.282C181.763 243.802 180.303 245.462 177.743 245.462C174.883 245.462 172.703 243.242 172.703 240.282C172.703 237.282 174.883 235.122 177.683 235.122C180.303 235.122 181.743 236.762 182.143 238.322L180.063 239.082C179.843 238.222 179.183 237.262 177.703 237.262ZM183.625 242.522C183.625 240.782 184.905 239.822 186.565 239.582L189.065 239.202C189.625 239.122 189.785 238.842 189.785 238.502C189.785 237.682 189.225 237.022 187.945 237.022C186.725 237.022 186.045 237.802 185.945 238.782L183.825 238.302C184.005 236.622 185.525 235.122 187.925 235.122C190.925 235.122 192.065 236.822 192.065 238.762V243.602C192.065 244.482 192.165 245.062 192.185 245.162H190.025C190.005 245.102 189.925 244.702 189.925 243.922C189.465 244.662 188.505 245.462 186.925 245.462C184.885 245.462 183.625 244.062 183.625 242.522ZM187.365 243.642C188.665 243.642 189.785 243.022 189.785 241.122V240.682L187.245 241.062C186.525 241.182 185.945 241.582 185.945 242.382C185.945 243.042 186.445 243.642 187.365 243.642ZM200.569 235.362V237.722C200.309 237.682 200.049 237.662 199.809 237.662C198.009 237.662 197.189 238.702 197.189 240.522V245.162H194.869V235.422H197.129V236.982C197.589 235.922 198.669 235.302 199.949 235.302C200.229 235.302 200.469 235.342 200.569 235.362ZM203.968 240.262C203.968 242.122 205.008 243.362 206.588 243.362C208.108 243.362 209.168 242.102 209.168 240.242C209.168 238.382 208.128 237.222 206.608 237.222C205.088 237.222 203.968 238.402 203.968 240.262ZM211.408 230.682V243.382C211.408 244.262 211.488 245.002 211.508 245.162H209.288C209.248 244.942 209.188 244.302 209.188 243.902C208.728 244.722 207.708 245.402 206.328 245.402C203.528 245.402 201.648 243.202 201.648 240.262C201.648 237.462 203.548 235.162 206.288 235.162C207.988 235.162 208.848 235.942 209.148 236.562V230.682H211.408Z" fill="black"/>
</g>
<g filter="url(#filter3_d_1990_1665)">
<rect x="422.968" y="442.406" width="171" height="54" rx="27" fill="white" shape-rendering="crispEdges"/>
<circle cx="449.968" cy="469.406" r="19" fill="#19C5C7"/>
<g clip-path="url(#clip3_1990_1665)">
<path d="M448.698 469.407C448.698 469.906 448.797 470.401 448.987 470.862C449.178 471.323 449.458 471.742 449.811 472.094C450.164 472.447 450.583 472.727 451.044 472.918C451.505 473.109 451.999 473.207 452.498 473.207C452.997 473.207 453.491 473.109 453.952 472.918C454.413 472.727 454.832 472.447 455.185 472.094C455.538 471.742 455.818 471.323 456.009 470.862C456.2 470.401 456.298 469.906 456.298 469.407C456.298 468.908 456.2 468.414 456.009 467.953C455.818 467.492 455.538 467.073 455.185 466.72C454.832 466.368 454.413 466.088 453.952 465.897C453.491 465.706 452.997 465.607 452.498 465.607C451.999 465.607 451.505 465.706 451.044 465.897C450.583 466.088 450.164 466.368 449.811 466.72C449.458 467.073 449.178 467.492 448.987 467.953C448.797 468.414 448.698 468.908 448.698 469.407Z" stroke="white" stroke-width="1.5" stroke-linecap="round" stroke-linejoin="round"/>
<path d="M449.965 466.576C449.419 466.087 448.742 465.766 448.017 465.653C447.292 465.54 446.55 465.639 445.88 465.938C445.21 466.237 444.641 466.724 444.242 467.34C443.843 467.956 443.63 468.674 443.63 469.407C443.63 470.141 443.843 470.859 444.242 471.475C444.641 472.09 445.21 472.577 445.88 472.877C446.55 473.176 447.292 473.275 448.017 473.162C448.742 473.049 449.419 472.728 449.965 472.238" stroke="white" stroke-width="1.5" stroke-linecap="round" stroke-linejoin="round"/>
<path d="M438.565 463.074C438.565 462.402 438.832 461.758 439.307 461.283C439.782 460.808 440.426 460.541 441.098 460.541H458.832C459.503 460.541 460.148 460.808 460.623 461.283C461.098 461.758 461.365 462.402 461.365 463.074V475.741C461.365 476.413 461.098 477.057 460.623 477.532C460.148 478.007 459.503 478.274 458.832 478.274H441.098C440.426 478.274 439.782 478.007 439.307 477.532C438.832 477.057 438.565 476.413 438.565 475.741V463.074Z" stroke="white" stroke-width="1.5" stroke-linecap="round" stroke-linejoin="round"/>
</g>
<path d="M496.538 475.906H494.396V466.51L490.418 475.906H488.546L484.604 466.546V475.906H482.498V463.144H485.378L489.518 472.882L493.604 463.144H496.538V475.906ZM498.829 473.53C498.829 471.964 499.981 471.1 501.475 470.884L503.725 470.542C504.229 470.47 504.373 470.218 504.373 469.912C504.373 469.174 503.869 468.58 502.717 468.58C501.619 468.58 501.007 469.282 500.917 470.164L499.009 469.732C499.171 468.22 500.539 466.87 502.699 466.87C505.399 466.87 506.425 468.4 506.425 470.146V474.502C506.425 475.294 506.515 475.816 506.533 475.906H504.589C504.571 475.852 504.499 475.492 504.499 474.79C504.085 475.456 503.221 476.176 501.799 476.176C499.963 476.176 498.829 474.916 498.829 473.53ZM502.195 474.538C503.365 474.538 504.373 473.98 504.373 472.27V471.874L502.087 472.216C501.439 472.324 500.917 472.684 500.917 473.404C500.917 473.998 501.367 474.538 502.195 474.538ZM508.175 473.53L509.993 473.026C510.065 473.818 510.659 474.52 511.775 474.52C512.639 474.52 513.089 474.052 513.089 473.512C513.089 473.044 512.765 472.684 512.063 472.54L510.767 472.252C509.219 471.91 508.409 470.902 508.409 469.696C508.409 468.166 509.813 466.87 511.631 466.87C514.079 466.87 514.871 468.454 515.015 469.318L513.251 469.822C513.179 469.318 512.801 468.508 511.631 468.508C510.893 468.508 510.371 468.976 510.371 469.516C510.371 469.984 510.713 470.326 511.253 470.434L512.585 470.704C514.241 471.064 515.105 472.072 515.105 473.368C515.105 474.7 514.025 476.176 511.793 476.176C509.255 476.176 508.283 474.52 508.175 473.53ZM519.821 464.458V467.14H521.639V468.994H519.821V473.062C519.821 473.836 520.163 474.16 520.937 474.16C521.225 474.16 521.567 474.106 521.657 474.088V475.816C521.531 475.87 521.135 476.014 520.379 476.014C518.759 476.014 517.751 475.042 517.751 473.404V468.994H516.131V467.14H516.581C517.517 467.14 517.931 466.546 517.931 465.772V464.458H519.821ZM525.155 470.56H529.457C529.421 469.534 528.737 468.616 527.297 468.616C525.983 468.616 525.227 469.624 525.155 470.56ZM529.691 472.846L531.455 473.404C530.987 474.934 529.601 476.176 527.495 476.176C525.119 476.176 523.013 474.448 523.013 471.478C523.013 468.706 525.065 466.87 527.279 466.87C529.979 466.87 531.563 468.652 531.563 471.424C531.563 471.766 531.527 472.054 531.509 472.09H525.101C525.155 473.422 526.199 474.376 527.495 474.376C528.755 474.376 529.403 473.71 529.691 472.846ZM538.688 467.086V469.21C538.454 469.174 538.22 469.156 538.004 469.156C536.384 469.156 535.646 470.092 535.646 471.73V475.906H533.558V467.14H535.592V468.544C536.006 467.59 536.978 467.032 538.13 467.032C538.382 467.032 538.598 467.068 538.688 467.086ZM544.159 468.796C542.881 468.796 541.747 469.75 541.747 471.514C541.747 473.278 542.881 474.268 544.195 474.268C545.563 474.268 546.193 473.314 546.391 472.648L548.227 473.314C547.813 474.682 546.499 476.176 544.195 476.176C541.621 476.176 539.659 474.178 539.659 471.514C539.659 468.814 541.621 466.87 544.141 466.87C546.499 466.87 547.795 468.346 548.155 469.75L546.283 470.434C546.085 469.66 545.491 468.796 544.159 468.796ZM549.489 473.53C549.489 471.964 550.641 471.1 552.135 470.884L554.385 470.542C554.889 470.47 555.033 470.218 555.033 469.912C555.033 469.174 554.529 468.58 553.377 468.58C552.279 468.58 551.667 469.282 551.577 470.164L549.669 469.732C549.831 468.22 551.199 466.87 553.359 466.87C556.059 466.87 557.085 468.4 557.085 470.146V474.502C557.085 475.294 557.175 475.816 557.193 475.906H555.249C555.231 475.852 555.159 475.492 555.159 474.79C554.745 475.456 553.881 476.176 552.459 476.176C550.623 476.176 549.489 474.916 549.489 473.53ZM552.855 474.538C554.025 474.538 555.033 473.98 555.033 472.27V471.874L552.747 472.216C552.099 472.324 551.577 472.684 551.577 473.404C551.577 473.998 552.027 474.538 552.855 474.538ZM564.739 467.086V469.21C564.505 469.174 564.271 469.156 564.055 469.156C562.435 469.156 561.697 470.092 561.697 471.73V475.906H559.609V467.14H561.643V468.544C562.057 467.59 563.029 467.032 564.181 467.032C564.433 467.032 564.649 467.068 564.739 467.086ZM567.798 471.496C567.798 473.17 568.734 474.286 570.156 474.286C571.524 474.286 572.478 473.152 572.478 471.478C572.478 469.804 571.542 468.76 570.174 468.76C568.806 468.76 567.798 469.822 567.798 471.496ZM574.494 462.874V474.304C574.494 475.096 574.566 475.762 574.584 475.906H572.586C572.55 475.708 572.496 475.132 572.496 474.772C572.082 475.51 571.164 476.122 569.922 476.122C567.402 476.122 565.71 474.142 565.71 471.496C565.71 468.976 567.42 466.906 569.886 466.906C571.416 466.906 572.19 467.608 572.46 468.166V462.874H574.494Z" fill="black"/>
</g>
<g filter="url(#filter4_d_1990_1665)">
<rect x="458.339" y="210.662" width="187" height="54" rx="27" fill="white" shape-rendering="crispEdges"/>
<circle cx="485.339" cy="237.662" r="19" fill="#49C6FD"/>
<g clip-path="url(#clip4_1990_1665)">
<path d="M489.136 236.396V236.406" stroke="white" stroke-width="1.5" stroke-linecap="round" stroke-linejoin="round"/>
<path d="M476.689 233.075C476.133 232.648 475.707 232.075 475.456 231.421C475.205 230.767 475.141 230.056 475.269 229.367C475.397 228.678 475.713 228.038 476.182 227.518C476.651 226.997 477.255 226.616 477.927 226.418C478.599 226.219 479.313 226.21 479.989 226.392C480.666 226.573 481.279 226.938 481.762 227.447C482.244 227.955 482.576 228.587 482.722 229.272C482.867 229.958 482.82 230.67 482.587 231.33" stroke="white" stroke-width="1.5" stroke-linecap="round" stroke-linejoin="round"/>
<path d="M490.403 227.529V232.346C491.97 233.254 493.164 234.689 493.77 236.396H495.468C495.804 236.396 496.126 236.529 496.364 236.767C496.601 237.005 496.735 237.327 496.735 237.663V240.196C496.735 240.532 496.601 240.854 496.364 241.092C496.126 241.329 495.804 241.463 495.468 241.463H493.768C493.343 242.666 492.619 243.743 491.668 244.595V247.163C491.668 247.667 491.468 248.15 491.112 248.506C490.755 248.862 490.272 249.063 489.768 249.063C489.264 249.063 488.781 248.862 488.425 248.506C488.068 248.15 487.868 247.667 487.868 247.163V246.424C487.45 246.494 487.026 246.529 486.601 246.529H481.535C481.11 246.529 480.687 246.494 480.268 246.424V247.163C480.268 247.667 480.068 248.15 479.712 248.506C479.355 248.862 478.872 249.063 478.368 249.063C477.864 249.063 477.381 248.862 477.025 248.506C476.668 248.15 476.468 247.667 476.468 247.163V244.629V244.595C475.321 243.569 474.512 242.219 474.148 240.723C473.785 239.227 473.885 237.656 474.434 236.218C474.983 234.78 475.956 233.542 477.224 232.669C478.492 231.796 479.995 231.329 481.535 231.329H484.701L490.401 227.529H490.403Z" stroke="white" stroke-width="1.5" stroke-linecap="round" stroke-linejoin="round"/>
</g>
<path d="M526.599 244.162L525.393 240.958H519.993L518.805 244.162H516.519L521.487 231.4H523.989L528.957 244.162H526.599ZM522.693 233.74L520.749 238.96H524.637L522.693 233.74ZM534.126 237.052C532.848 237.052 531.714 238.006 531.714 239.77C531.714 241.534 532.848 242.524 534.162 242.524C535.53 242.524 536.16 241.57 536.358 240.904L538.194 241.57C537.78 242.938 536.466 244.432 534.162 244.432C531.588 244.432 529.626 242.434 529.626 239.77C529.626 237.07 531.588 235.126 534.108 235.126C536.466 235.126 537.762 236.602 538.122 238.006L536.25 238.69C536.052 237.916 535.458 237.052 534.126 237.052ZM542.694 232.714V235.396H544.512V237.25H542.694V241.318C542.694 242.092 543.036 242.416 543.81 242.416C544.098 242.416 544.44 242.362 544.53 242.344V244.072C544.404 244.126 544.008 244.27 543.252 244.27C541.632 244.27 540.624 243.298 540.624 241.66V237.25H539.004V235.396H539.454C540.39 235.396 540.804 234.802 540.804 234.028V232.714H542.694ZM548.728 244.162H546.658V235.396H548.728V244.162ZM546.334 232.318C546.334 231.562 546.946 230.95 547.684 230.95C548.44 230.95 549.052 231.562 549.052 232.318C549.052 233.074 548.44 233.668 547.684 233.668C546.946 233.668 546.334 233.074 546.334 232.318ZM559.341 235.396L555.903 244.162H553.815L550.251 235.396H552.555L554.877 241.66L557.145 235.396H559.341ZM562.073 238.816H566.375C566.339 237.79 565.655 236.872 564.215 236.872C562.901 236.872 562.145 237.88 562.073 238.816ZM566.609 241.102L568.373 241.66C567.905 243.19 566.519 244.432 564.413 244.432C562.037 244.432 559.931 242.704 559.931 239.734C559.931 236.962 561.983 235.126 564.197 235.126C566.897 235.126 568.481 236.908 568.481 239.68C568.481 240.022 568.445 240.31 568.427 240.346H562.019C562.073 241.678 563.117 242.632 564.413 242.632C565.673 242.632 566.321 241.966 566.609 241.102ZM574.167 241.786L575.985 241.282C576.057 242.074 576.651 242.776 577.767 242.776C578.631 242.776 579.081 242.308 579.081 241.768C579.081 241.3 578.757 240.94 578.055 240.796L576.759 240.508C575.211 240.166 574.401 239.158 574.401 237.952C574.401 236.422 575.805 235.126 577.623 235.126C580.071 235.126 580.863 236.71 581.007 237.574L579.243 238.078C579.171 237.574 578.793 236.764 577.623 236.764C576.885 236.764 576.363 237.232 576.363 237.772C576.363 238.24 576.705 238.582 577.245 238.69L578.577 238.96C580.233 239.32 581.097 240.328 581.097 241.624C581.097 242.956 580.017 244.432 577.785 244.432C575.247 244.432 574.275 242.776 574.167 241.786ZM582.504 241.786C582.504 240.22 583.656 239.356 585.15 239.14L587.4 238.798C587.904 238.726 588.048 238.474 588.048 238.168C588.048 237.43 587.544 236.836 586.392 236.836C585.294 236.836 584.682 237.538 584.592 238.42L582.684 237.988C582.846 236.476 584.214 235.126 586.374 235.126C589.074 235.126 590.1 236.656 590.1 238.402V242.758C590.1 243.55 590.19 244.072 590.208 244.162H588.264C588.246 244.108 588.174 243.748 588.174 243.046C587.76 243.712 586.896 244.432 585.474 244.432C583.638 244.432 582.504 243.172 582.504 241.786ZM585.87 242.794C587.04 242.794 588.048 242.236 588.048 240.526V240.13L585.762 240.472C585.114 240.58 584.592 240.94 584.592 241.66C584.592 242.254 585.042 242.794 585.87 242.794ZM600.457 235.396L597.019 244.162H594.931L591.367 235.396H593.671L595.993 241.66L598.261 235.396H600.457ZM604.064 244.162H601.994V235.396H604.064V244.162ZM601.67 232.318C601.67 231.562 602.282 230.95 603.02 230.95C603.776 230.95 604.388 231.562 604.388 232.318C604.388 233.074 603.776 233.668 603.02 233.668C602.282 233.668 601.67 233.074 601.67 232.318ZM608.845 239.104V244.162H606.757V235.396H608.791V236.566C609.367 235.558 610.411 235.144 611.383 235.144C613.525 235.144 614.551 236.692 614.551 238.618V244.162H612.463V238.978C612.463 237.898 611.977 237.034 610.663 237.034C609.475 237.034 608.845 237.952 608.845 239.104ZM616.463 244.648L618.389 244.144C618.533 245.224 619.379 246.034 620.585 246.034C622.241 246.034 623.069 245.188 623.069 243.406V242.488C622.691 243.172 621.809 243.766 620.531 243.766C618.191 243.766 616.481 241.966 616.481 239.5C616.481 237.16 618.119 235.234 620.531 235.234C621.899 235.234 622.745 235.792 623.123 236.512V235.396H625.139V243.334C625.139 245.674 623.933 247.852 620.639 247.852C618.317 247.852 616.697 246.412 616.463 244.648ZM620.873 241.984C622.205 241.984 623.123 241.012 623.123 239.5C623.123 238.006 622.169 237.034 620.873 237.034C619.541 237.034 618.587 238.006 618.587 239.5C618.587 241.03 619.505 241.984 620.873 241.984Z" fill="black"/>
</g>
<g filter="url(#filter5_d_1990_1665)">
<rect x="76.5684" y="442.406" width="140" height="54" rx="27" fill="white" shape-rendering="crispEdges"/>
<circle cx="103.568" cy="469.406" r="19" fill="#3EA0FD"/>
<g clip-path="url(#clip5_1990_1665)">
<path d="M94.6992 475.74C94.6992 476.412 94.9661 477.057 95.4412 477.532C95.9163 478.007 96.5607 478.274 97.2326 478.274C97.9044 478.274 98.5488 478.007 99.0239 477.532C99.499 477.057 99.7659 476.412 99.7659 475.74C99.7659 475.068 99.499 474.424 99.0239 473.949C98.5488 473.474 97.9044 473.207 97.2326 473.207C96.5607 473.207 95.9163 473.474 95.4412 473.949C94.9661 474.424 94.6992 475.068 94.6992 475.74Z" stroke="white" stroke-width="1.5" stroke-linecap="round" stroke-linejoin="round"/>
<path d="M107.366 475.74C107.366 476.412 107.633 477.057 108.108 477.532C108.583 478.007 109.227 478.274 109.899 478.274C110.571 478.274 111.215 478.007 111.69 477.532C112.165 477.057 112.432 476.412 112.432 475.74C112.432 475.068 112.165 474.424 111.69 473.949C111.215 473.474 110.571 473.207 109.899 473.207C109.227 473.207 108.583 473.474 108.108 473.949C107.633 474.424 107.366 475.068 107.366 475.74Z" stroke="white" stroke-width="1.5" stroke-linecap="round" stroke-linejoin="round"/>
<path d="M94.6989 475.74H92.1655V468.14M92.1655 468.14L94.6989 461.807H106.099L111.166 468.14M92.1655 468.14H111.166M111.166 468.14H112.432C113.104 468.14 113.748 468.407 114.224 468.882C114.699 469.357 114.966 470.001 114.966 470.673V475.74H112.432M107.366 475.74H99.7655M103.566 468.14V461.807" stroke="white" stroke-width="1.5" stroke-linecap="round" stroke-linejoin="round"/>
</g>
<path d="M144.108 475.906H136.098V463.144H138.258V473.854H144.108V475.906ZM147.326 470.56H151.628C151.592 469.534 150.908 468.616 149.468 468.616C148.154 468.616 147.398 469.624 147.326 470.56ZM151.862 472.846L153.626 473.404C153.158 474.934 151.772 476.176 149.666 476.176C147.29 476.176 145.184 474.448 145.184 471.478C145.184 468.706 147.236 466.87 149.45 466.87C152.15 466.87 153.734 468.652 153.734 471.424C153.734 471.766 153.698 472.054 153.68 472.09H147.272C147.326 473.422 148.37 474.376 149.666 474.376C150.926 474.376 151.574 473.71 151.862 472.846ZM155.189 473.53C155.189 471.964 156.341 471.1 157.835 470.884L160.085 470.542C160.589 470.47 160.733 470.218 160.733 469.912C160.733 469.174 160.229 468.58 159.077 468.58C157.979 468.58 157.367 469.282 157.277 470.164L155.369 469.732C155.531 468.22 156.899 466.87 159.059 466.87C161.759 466.87 162.785 468.4 162.785 470.146V474.502C162.785 475.294 162.875 475.816 162.893 475.906H160.949C160.931 475.852 160.859 475.492 160.859 474.79C160.445 475.456 159.581 476.176 158.159 476.176C156.323 476.176 155.189 474.916 155.189 473.53ZM158.555 474.538C159.725 474.538 160.733 473.98 160.733 472.27V471.874L158.447 472.216C157.799 472.324 157.277 472.684 157.277 473.404C157.277 473.998 157.727 474.538 158.555 474.538ZM164.535 473.53L166.353 473.026C166.425 473.818 167.019 474.52 168.135 474.52C168.999 474.52 169.449 474.052 169.449 473.512C169.449 473.044 169.125 472.684 168.423 472.54L167.127 472.252C165.579 471.91 164.769 470.902 164.769 469.696C164.769 468.166 166.173 466.87 167.991 466.87C170.439 466.87 171.231 468.454 171.375 469.318L169.611 469.822C169.539 469.318 169.161 468.508 167.991 468.508C167.253 468.508 166.731 468.976 166.731 469.516C166.731 469.984 167.073 470.326 167.613 470.434L168.945 470.704C170.601 471.064 171.465 472.072 171.465 473.368C171.465 474.7 170.385 476.176 168.153 476.176C165.615 476.176 164.643 474.52 164.535 473.53ZM175.606 475.906H173.536V467.14H175.606V475.906ZM173.212 464.062C173.212 463.306 173.824 462.694 174.562 462.694C175.318 462.694 175.93 463.306 175.93 464.062C175.93 464.818 175.318 465.412 174.562 465.412C173.824 465.412 173.212 464.818 173.212 464.062ZM180.387 470.848V475.906H178.299V467.14H180.333V468.31C180.909 467.302 181.953 466.888 182.925 466.888C185.067 466.888 186.093 468.436 186.093 470.362V475.906H184.005V470.722C184.005 469.642 183.519 468.778 182.205 468.778C181.017 468.778 180.387 469.696 180.387 470.848ZM188.005 476.392L189.931 475.888C190.075 476.968 190.921 477.778 192.127 477.778C193.783 477.778 194.611 476.932 194.611 475.15V474.232C194.233 474.916 193.351 475.51 192.073 475.51C189.733 475.51 188.023 473.71 188.023 471.244C188.023 468.904 189.661 466.978 192.073 466.978C193.441 466.978 194.287 467.536 194.665 468.256V467.14H196.681V475.078C196.681 477.418 195.475 479.596 192.181 479.596C189.859 479.596 188.239 478.156 188.005 476.392ZM192.415 473.728C193.747 473.728 194.665 472.756 194.665 471.244C194.665 469.75 193.711 468.778 192.415 468.778C191.083 468.778 190.129 469.75 190.129 471.244C190.129 472.774 191.047 473.728 192.415 473.728Z" fill="black"/>
</g>
<circle cx="106.399" cy="364.26" r="26.0606" fill="#FFCC81"/>
<g clip-path="url(#clip6_1990_1665)">
<path d="M94.8179 375.843H100.609L115.811 360.641C116.191 360.261 116.493 359.809 116.699 359.313C116.905 358.816 117.011 358.283 117.011 357.745C117.011 357.208 116.905 356.675 116.699 356.178C116.493 355.681 116.191 355.23 115.811 354.85C115.431 354.47 114.979 354.168 114.483 353.962C113.986 353.756 113.453 353.65 112.916 353.65C112.378 353.65 111.845 353.756 111.348 353.962C110.852 354.168 110.4 354.47 110.02 354.85L94.8179 370.052V375.843Z" stroke="white" stroke-width="1.5" stroke-linecap="round" stroke-linejoin="round"/>
<path d="M108.572 356.297L114.364 362.088" stroke="white" stroke-width="1.5" stroke-linecap="round" stroke-linejoin="round"/>
</g>
<circle cx="183.207" cy="137.945" r="26.0606" fill="#3397F6"/>
<g clip-path="url(#clip7_1990_1665)">
<path d="M183.208 127.811V148.08" stroke="white" stroke-width="1.5" stroke-linecap="round" stroke-linejoin="round"/>
<path d="M173.074 137.945H193.343" stroke="white" stroke-width="1.5" stroke-linecap="round" stroke-linejoin="round"/>
</g>
<circle cx="527.481" cy="132.457" r="26.0606" fill="#FF6822"/>
<g clip-path="url(#clip8_1990_1665)">
<path d="M535.71 124.229L519.251 140.688" stroke="white" stroke-width="1.5" stroke-linecap="round" stroke-linejoin="round"/>
<path d="M519.251 124.229L535.71 140.688" stroke="white" stroke-width="1.5" stroke-linecap="round" stroke-linejoin="round"/>
</g>
<circle cx="612.639" cy="354.26" r="26.0606" fill="#97EB91"/>
<g clip-path="url(#clip9_1990_1665)">
<path d="M603.037 354.26L609.895 361.118L623.611 347.402" stroke="white" stroke-width="1.5" stroke-linecap="round" stroke-linejoin="round"/>
</g>
<g clip-path="url(#clip10_1990_1665)">
<path d="M361.647 324.902L369.46 320.494L369.46 300.743L326.195 324.793L326 324.899L387.333 359L387.333 339.249L361.647 324.902Z" fill="black"/>
<path opacity="0.6" d="M372.225 327.626L387.334 336.256L387.334 291L372.225 299.537L372.225 327.626Z" fill="#21B1FE"/>
</g>
<defs>
<filter id="filter0_d_1990_1665" x="215.624" y="0" width="258" height="154" filterUnits="userSpaceOnUse" color-interpolation-filters="sRGB">
<feFlood flood-opacity="0" result="BackgroundImageFix"/>
<feColorMatrix in="SourceAlpha" type="matrix" values="0 0 0 0 0 0 0 0 0 0 0 0 0 0 0 0 0 0 127 0" result="hardAlpha"/>
<feOffset dy="4"/>
<feGaussianBlur stdDeviation="25"/>
<feComposite in2="hardAlpha" operator="out"/>
<feColorMatrix type="matrix" values="0 0 0 0 0 0 0 0 0 0 0 0 0 0 0 0 0 0 0.1 0"/>
<feBlend mode="normal" in2="BackgroundImageFix" result="effect1_dropShadow_1990_1665"/>
<feBlend mode="normal" in="SourceGraphic" in2="effect1_dropShadow_1990_1665" result="shape"/>
</filter>
<filter id="filter1_d_1990_1665" x="191.23" y="498.863" width="298" height="154" filterUnits="userSpaceOnUse" color-interpolation-filters="sRGB">
<feFlood flood-opacity="0" result="BackgroundImageFix"/>
<feColorMatrix in="SourceAlpha" type="matrix" values="0 0 0 0 0 0 0 0 0 0 0 0 0 0 0 0 0 0 127 0" result="hardAlpha"/>
<feOffset dy="4"/>
<feGaussianBlur stdDeviation="25"/>
<feComposite in2="hardAlpha" operator="out"/>
<feColorMatrix type="matrix" values="0 0 0 0 0 0 0 0 0 0 0 0 0 0 0 0 0 0 0.1 0"/>
<feBlend mode="normal" in2="BackgroundImageFix" result="effect1_dropShadow_1990_1665"/>
<feBlend mode="normal" in="SourceGraphic" in2="effect1_dropShadow_1990_1665" result="shape"/>
</filter>
<filter id="filter2_d_1990_1665" x="0.955078" y="164.662" width="280" height="154" filterUnits="userSpaceOnUse" color-interpolation-filters="sRGB">
<feFlood flood-opacity="0" result="BackgroundImageFix"/>
<feColorMatrix in="SourceAlpha" type="matrix" values="0 0 0 0 0 0 0 0 0 0 0 0 0 0 0 0 0 0 127 0" result="hardAlpha"/>
<feOffset dy="4"/>
<feGaussianBlur stdDeviation="25"/>
<feComposite in2="hardAlpha" operator="out"/>
<feColorMatrix type="matrix" values="0 0 0 0 0 0 0 0 0 0 0 0 0 0 0 0 0 0 0.1 0"/>
<feBlend mode="normal" in2="BackgroundImageFix" result="effect1_dropShadow_1990_1665"/>
<feBlend mode="normal" in="SourceGraphic" in2="effect1_dropShadow_1990_1665" result="shape"/>
</filter>
<filter id="filter3_d_1990_1665" x="372.968" y="396.406" width="271" height="154" filterUnits="userSpaceOnUse" color-interpolation-filters="sRGB">
<feFlood flood-opacity="0" result="BackgroundImageFix"/>
<feColorMatrix in="SourceAlpha" type="matrix" values="0 0 0 0 0 0 0 0 0 0 0 0 0 0 0 0 0 0 127 0" result="hardAlpha"/>
<feOffset dy="4"/>
<feGaussianBlur stdDeviation="25"/>
<feComposite in2="hardAlpha" operator="out"/>
<feColorMatrix type="matrix" values="0 0 0 0 0 0 0 0 0 0 0 0 0 0 0 0 0 0 0.1 0"/>
<feBlend mode="normal" in2="BackgroundImageFix" result="effect1_dropShadow_1990_1665"/>
<feBlend mode="normal" in="SourceGraphic" in2="effect1_dropShadow_1990_1665" result="shape"/>
</filter>
<filter id="filter4_d_1990_1665" x="408.339" y="164.662" width="287" height="154" filterUnits="userSpaceOnUse" color-interpolation-filters="sRGB">
<feFlood flood-opacity="0" result="BackgroundImageFix"/>
<feColorMatrix in="SourceAlpha" type="matrix" values="0 0 0 0 0 0 0 0 0 0 0 0 0 0 0 0 0 0 127 0" result="hardAlpha"/>
<feOffset dy="4"/>
<feGaussianBlur stdDeviation="25"/>
<feComposite in2="hardAlpha" operator="out"/>
<feColorMatrix type="matrix" values="0 0 0 0 0 0 0 0 0 0 0 0 0 0 0 0 0 0 0.1 0"/>
<feBlend mode="normal" in2="BackgroundImageFix" result="effect1_dropShadow_1990_1665"/>
<feBlend mode="normal" in="SourceGraphic" in2="effect1_dropShadow_1990_1665" result="shape"/>
</filter>
<filter id="filter5_d_1990_1665" x="26.5684" y="396.406" width="240" height="154" filterUnits="userSpaceOnUse" color-interpolation-filters="sRGB">
<feFlood flood-opacity="0" result="BackgroundImageFix"/>
<feColorMatrix in="SourceAlpha" type="matrix" values="0 0 0 0 0 0 0 0 0 0 0 0 0 0 0 0 0 0 127 0" result="hardAlpha"/>
<feOffset dy="4"/>
<feGaussianBlur stdDeviation="25"/>
<feComposite in2="hardAlpha" operator="out"/>
<feColorMatrix type="matrix" values="0 0 0 0 0 0 0 0 0 0 0 0 0 0 0 0 0 0 0.1 0"/>
<feBlend mode="normal" in2="BackgroundImageFix" result="effect1_dropShadow_1990_1665"/>
<feBlend mode="normal" in="SourceGraphic" in2="effect1_dropShadow_1990_1665" result="shape"/>
</filter>
<clipPath id="clip0_1990_1665">
<rect width="28.5" height="28.5" fill="white" transform="translate(278.374 58.75)"/>
</clipPath>
<clipPath id="clip1_1990_1665">
<rect width="30.4" height="30.4" fill="white" transform="translate(253.028 556.664)"/>
</clipPath>
<clipPath id="clip2_1990_1665">
<rect width="30.4" height="30.4" fill="white" transform="translate(62.7524 222.463)"/>
</clipPath>
<clipPath id="clip3_1990_1665">
<rect width="30.4" height="30.4" fill="white" transform="translate(434.765 454.207)"/>
</clipPath>
<clipPath id="clip4_1990_1665">
<rect width="30.4" height="30.4" fill="white" transform="translate(470.136 222.463)"/>
</clipPath>
<clipPath id="clip5_1990_1665">
<rect width="30.4" height="30.4" fill="white" transform="translate(88.3657 454.207)"/>
</clipPath>
<clipPath id="clip6_1990_1665">
<rect width="34.7475" height="34.7475" fill="white" transform="translate(89.0269 346.887)"/>
</clipPath>
<clipPath id="clip7_1990_1665">
<rect width="34.7475" height="34.7475" fill="white" transform="translate(165.834 120.572)"/>
</clipPath>
<clipPath id="clip8_1990_1665">
<rect width="32.9187" height="32.9187" fill="white" transform="translate(511.021 115.998)"/>
</clipPath>
<clipPath id="clip9_1990_1665">
<rect width="32.9187" height="32.9187" fill="white" transform="translate(596.179 337.801)"/>
</clipPath>
<clipPath id="clip10_1990_1665">
<rect width="68" height="61.3333" fill="white" transform="translate(326 359) rotate(-90)"/>
</clipPath>
</defs>
</svg>
