<svg width="685" height="553" viewBox="0 0 685 553" fill="none" xmlns="http://www.w3.org/2000/svg">
<path d="M10.2599 93.9998L9.05393 90.7958H3.65393L2.46593 93.9998H0.179932L5.14793 81.2378H7.64993L12.6179 93.9998H10.2599ZM6.35393 83.5778L4.40993 88.7978H8.29793L6.35393 83.5778Z" fill="white"/>
<path d="M15.375 89.5898C15.375 91.2638 16.311 92.3798 17.733 92.3798C19.101 92.3798 20.055 91.2458 20.055 89.5718C20.055 87.8978 19.119 86.8538 17.751 86.8538C16.383 86.8538 15.375 87.9158 15.375 89.5898ZM22.071 80.9678V92.3978C22.071 93.1898 22.143 93.8558 22.161 93.9998H20.163C20.127 93.8018 20.073 93.2258 20.073 92.8658C19.659 93.6038 18.741 94.2158 17.499 94.2158C14.979 94.2158 13.287 92.2358 13.287 89.5898C13.287 87.0698 14.997 84.9998 17.463 84.9998C18.993 84.9998 19.767 85.7018 20.037 86.2598V80.9678H22.071Z" fill="white"/>
<path d="M26.2031 89.5898C26.2031 91.2638 27.1391 92.3798 28.5611 92.3798C29.9291 92.3798 30.8832 91.2458 30.8832 89.5718C30.8832 87.8978 29.9472 86.8538 28.5792 86.8538C27.2112 86.8538 26.2031 87.9158 26.2031 89.5898ZM32.8992 80.9678V92.3978C32.8992 93.1898 32.9712 93.8558 32.9892 93.9998H30.9912C30.9552 93.8018 30.9012 93.2258 30.9012 92.8658C30.4872 93.6038 29.5691 94.2158 28.3272 94.2158C25.8072 94.2158 24.1152 92.2358 24.1152 89.5898C24.1152 87.0698 25.8252 84.9998 28.2912 84.9998C29.8212 84.9998 30.5952 85.7018 30.8652 86.2598V80.9678H32.8992Z" fill="white"/>
<path d="M42.1621 97.4198H40.0921V85.2338H42.1081V86.4218C42.5401 85.6658 43.5481 85.0358 44.8981 85.0358C47.4901 85.0358 48.9481 87.0158 48.9481 89.6078C48.9481 92.2358 47.3461 94.2158 44.8261 94.2158C43.5661 94.2158 42.6121 93.6758 42.1621 93.0098V97.4198ZM46.8601 89.6078C46.8601 87.9698 45.9061 86.8898 44.5021 86.8898C43.1341 86.8898 42.1441 87.9698 42.1441 89.6078C42.1441 91.2818 43.1341 92.3618 44.5021 92.3618C45.8881 92.3618 46.8601 91.2818 46.8601 89.6078Z" fill="white"/>
<path d="M56.0854 85.1798V87.3038C55.8514 87.2678 55.6174 87.2498 55.4014 87.2498C53.7814 87.2498 53.0434 88.1858 53.0434 89.8238V93.9998H50.9554V85.2338H52.9894V86.6378C53.4034 85.6838 54.3754 85.1258 55.5274 85.1258C55.7794 85.1258 55.9954 85.1618 56.0854 85.1798Z" fill="white"/>
<path d="M61.5926 92.3978C62.8886 92.3978 64.0406 91.4438 64.0406 89.6078C64.0406 87.7898 62.8886 86.8538 61.5926 86.8538C60.3146 86.8538 59.1446 87.7898 59.1446 89.6078C59.1446 91.4258 60.3146 92.3978 61.5926 92.3978ZM61.5926 84.9638C64.2206 84.9638 66.1466 86.9258 66.1466 89.6078C66.1466 92.3078 64.2206 94.2698 61.5926 94.2698C58.9826 94.2698 57.0566 92.3078 57.0566 89.6078C57.0566 86.9258 58.9826 84.9638 61.5926 84.9638Z" fill="white"/>
<path d="M69.5684 89.5898C69.5684 91.2638 70.5044 92.3798 71.9264 92.3798C73.2944 92.3798 74.2484 91.2458 74.2484 89.5718C74.2484 87.8978 73.3124 86.8538 71.9444 86.8538C70.5764 86.8538 69.5684 87.9158 69.5684 89.5898ZM76.2644 80.9678V92.3978C76.2644 93.1898 76.3364 93.8558 76.3544 93.9998H74.3564C74.3204 93.8018 74.2664 93.2258 74.2664 92.8658C73.8524 93.6038 72.9344 94.2158 71.6924 94.2158C69.1724 94.2158 67.4804 92.2358 67.4804 89.5898C67.4804 87.0698 69.1904 84.9998 71.6564 84.9998C73.1864 84.9998 73.9604 85.7018 74.2304 86.2598V80.9678H76.2644Z" fill="white"/>
<path d="M84.6458 93.0278C84.2138 93.8198 83.1878 94.2518 82.1618 94.2518C80.0738 94.2518 78.8498 92.7038 78.8498 90.7598V85.2338H80.9378V90.3818C80.9378 91.4618 81.4418 92.3798 82.7018 92.3798C83.9078 92.3798 84.5378 91.5698 84.5378 90.4178V85.2338H86.6258V92.3978C86.6258 93.1178 86.6798 93.6758 86.7158 93.9998H84.7178C84.6818 93.8018 84.6458 93.3878 84.6458 93.0278Z" fill="white"/>
<path d="M93.0917 86.8898C91.8137 86.8898 90.6797 87.8438 90.6797 89.6078C90.6797 91.3718 91.8137 92.3618 93.1277 92.3618C94.4957 92.3618 95.1257 91.4078 95.3237 90.7418L97.1597 91.4078C96.7457 92.7758 95.4317 94.2698 93.1277 94.2698C90.5537 94.2698 88.5917 92.2718 88.5917 89.6078C88.5917 86.9078 90.5537 84.9638 93.0737 84.9638C95.4317 84.9638 96.7277 86.4398 97.0877 87.8438L95.2157 88.5278C95.0177 87.7538 94.4237 86.8898 93.0917 86.8898Z" fill="white"/>
<path d="M101.66 82.5518V85.2338H103.478V87.0878H101.66V91.1558C101.66 91.9298 102.002 92.2538 102.776 92.2538C103.064 92.2538 103.406 92.1998 103.496 92.1818V93.9098C103.37 93.9638 102.974 94.1078 102.218 94.1078C100.598 94.1078 99.59 93.1358 99.59 91.4978V87.0878H97.97V85.2338H98.42C99.356 85.2338 99.77 84.6398 99.77 83.8658V82.5518H101.66Z" fill="white"/>
<path d="M9.41393 325.027H1.52993V312.265H9.41393V314.281H3.68993V317.665H8.87393V319.627H3.68993V323.011H9.41393V325.027Z" fill="white"/>
<path d="M12.9668 320.617C12.9668 322.291 13.9028 323.407 15.3248 323.407C16.6928 323.407 17.6468 322.273 17.6468 320.599C17.6468 318.925 16.7108 317.881 15.3428 317.881C13.9748 317.881 12.9668 318.943 12.9668 320.617ZM19.6628 311.995V323.425C19.6628 324.217 19.7348 324.883 19.7528 325.027H17.7548C17.7188 324.829 17.6648 324.253 17.6648 323.893C17.2508 324.631 16.3328 325.243 15.0908 325.243C12.5708 325.243 10.8788 323.263 10.8788 320.617C10.8788 318.097 12.5888 316.027 15.0548 316.027C16.5848 316.027 17.3588 316.729 17.6288 317.287V311.995H19.6628Z" fill="white"/>
<path d="M24.4609 325.027H22.3909V316.261H24.4609V325.027ZM22.0669 313.183C22.0669 312.427 22.6789 311.815 23.4169 311.815C24.1729 311.815 24.7849 312.427 24.7849 313.183C24.7849 313.939 24.1729 314.533 23.4169 314.533C22.6789 314.533 22.0669 313.939 22.0669 313.183Z" fill="white"/>
<path d="M29.8006 313.579V316.261H31.6186V318.115H29.8006V322.183C29.8006 322.957 30.1426 323.281 30.9166 323.281C31.2046 323.281 31.5466 323.227 31.6366 323.209V324.937C31.5106 324.991 31.1146 325.135 30.3586 325.135C28.7386 325.135 27.7306 324.163 27.7306 322.525V318.115H26.1106V316.261H26.5606C27.4966 316.261 27.9106 315.667 27.9106 314.893V313.579H29.8006Z" fill="white"/>
<path d="M538.69 91.0198H540.958C543.172 91.0198 545.008 89.5978 545.008 86.6458C545.008 83.6578 543.19 82.2178 540.976 82.2178H538.69V91.0198ZM541.03 92.9998H536.53V80.2378H541.048C544.522 80.2378 547.258 82.5418 547.258 86.6458C547.258 90.7318 544.486 92.9998 541.03 92.9998Z" fill="white"/>
<path d="M550.833 87.6538H555.135C555.099 86.6278 554.415 85.7098 552.975 85.7098C551.661 85.7098 550.905 86.7178 550.833 87.6538ZM555.369 89.9398L557.133 90.4978C556.665 92.0278 555.279 93.2698 553.173 93.2698C550.797 93.2698 548.691 91.5418 548.691 88.5718C548.691 85.7998 550.743 83.9638 552.957 83.9638C555.657 83.9638 557.241 85.7458 557.241 88.5178C557.241 88.8598 557.205 89.1478 557.187 89.1838H550.779C550.833 90.5158 551.877 91.4698 553.173 91.4698C554.433 91.4698 555.081 90.8038 555.369 89.9398Z" fill="white"/>
<path d="M561.325 92.9998H559.237V79.9678H561.325V92.9998Z" fill="white"/>
<path d="M565.476 87.6538H569.778C569.742 86.6278 569.058 85.7098 567.618 85.7098C566.304 85.7098 565.548 86.7178 565.476 87.6538ZM570.012 89.9398L571.776 90.4978C571.308 92.0278 569.922 93.2698 567.816 93.2698C565.44 93.2698 563.334 91.5418 563.334 88.5718C563.334 85.7998 565.386 83.9638 567.6 83.9638C570.3 83.9638 571.884 85.7458 571.884 88.5178C571.884 88.8598 571.848 89.1478 571.83 89.1838H565.422C565.476 90.5158 566.52 91.4698 567.816 91.4698C569.076 91.4698 569.724 90.8038 570.012 89.9398Z" fill="white"/>
<path d="M576.525 81.5518V84.2338H578.343V86.0878H576.525V90.1558C576.525 90.9298 576.867 91.2538 577.641 91.2538C577.929 91.2538 578.271 91.1998 578.361 91.1818V92.9098C578.235 92.9638 577.839 93.1078 577.083 93.1078C575.463 93.1078 574.455 92.1358 574.455 90.4978V86.0878H572.835V84.2338H573.285C574.221 84.2338 574.635 83.6398 574.635 82.8658V81.5518H576.525Z" fill="white"/>
<path d="M581.859 87.6538H586.161C586.125 86.6278 585.441 85.7098 584.001 85.7098C582.687 85.7098 581.931 86.7178 581.859 87.6538ZM586.395 89.9398L588.159 90.4978C587.691 92.0278 586.305 93.2698 584.199 93.2698C581.823 93.2698 579.717 91.5418 579.717 88.5718C579.717 85.7998 581.769 83.9638 583.983 83.9638C586.683 83.9638 588.267 85.7458 588.267 88.5178C588.267 88.8598 588.231 89.1478 588.213 89.1838H581.805C581.859 90.5158 582.903 91.4698 584.199 91.4698C585.459 91.4698 586.107 90.8038 586.395 89.9398Z" fill="white"/>
<path d="M629.69 318.106H631.94C633.308 318.106 634.136 317.35 634.136 316.144C634.136 314.92 633.308 314.146 631.94 314.146H629.69V318.106ZM632.264 320.014H629.69V325H627.53V312.238H632.264C634.712 312.238 636.332 313.894 636.332 316.126C636.332 318.376 634.712 320.014 632.264 320.014Z" fill="white"/>
<path d="M643.532 324.028C643.1 324.82 642.075 325.252 641.049 325.252C638.961 325.252 637.737 323.704 637.737 321.76V316.234H639.825V321.382C639.825 322.462 640.329 323.38 641.589 323.38C642.795 323.38 643.424 322.57 643.424 321.418V316.234H645.513V323.398C645.513 324.118 645.566 324.676 645.602 325H643.604C643.568 324.802 643.532 324.388 643.532 324.028Z" fill="white"/>
<path d="M650.249 325H648.215V311.968H650.267V317.314C650.663 316.63 651.671 316 653.021 316C655.649 316 657.071 317.998 657.071 320.572C657.071 323.218 655.505 325.216 652.949 325.216C651.707 325.216 650.753 324.676 650.249 323.83V325ZM654.965 320.59C654.965 318.844 653.993 317.854 652.607 317.854C651.275 317.854 650.249 318.844 650.249 320.59C650.249 322.318 651.275 323.362 652.607 323.362C653.975 323.362 654.965 322.318 654.965 320.59Z" fill="white"/>
<path d="M661.166 325H659.078V311.968H661.166V325Z" fill="white"/>
<path d="M665.93 325H663.86V316.234H665.93V325ZM663.536 313.156C663.536 312.4 664.148 311.788 664.886 311.788C665.642 311.788 666.254 312.4 666.254 313.156C666.254 313.912 665.642 314.506 664.886 314.506C664.148 314.506 663.536 313.912 663.536 313.156Z" fill="white"/>
<path d="M667.849 322.624L669.667 322.12C669.739 322.912 670.333 323.614 671.449 323.614C672.313 323.614 672.763 323.146 672.763 322.606C672.763 322.138 672.439 321.778 671.737 321.634L670.441 321.346C668.893 321.004 668.083 319.996 668.083 318.79C668.083 317.26 669.487 315.964 671.305 315.964C673.753 315.964 674.545 317.548 674.689 318.412L672.925 318.916C672.853 318.412 672.475 317.602 671.305 317.602C670.567 317.602 670.045 318.07 670.045 318.61C670.045 319.078 670.387 319.42 670.927 319.528L672.259 319.798C673.915 320.158 674.779 321.166 674.779 322.462C674.779 323.794 673.699 325.27 671.467 325.27C668.929 325.27 667.957 323.614 667.849 322.624Z" fill="white"/>
<path d="M678.938 319.852V325H676.85V311.968H678.938V317.08C679.532 316.306 680.522 315.982 681.44 315.982C683.6 315.982 684.644 317.53 684.644 319.456V325H682.556V319.816C682.556 318.736 682.07 317.872 680.756 317.872C679.604 317.872 678.974 318.736 678.938 319.852Z" fill="white"/>
<circle cx="74.3995" cy="318.26" r="26.0606" fill="#FFCC81"/>
<g clip-path="url(#clip0_1573_2529)">
<path d="M62.8179 329.842H68.6091L83.8111 314.64C84.1914 314.26 84.493 313.808 84.6988 313.312C84.9046 312.815 85.0105 312.282 85.0105 311.744C85.0105 311.207 84.9046 310.674 84.6988 310.177C84.493 309.681 84.1914 309.229 83.8111 308.849C83.4309 308.469 82.9794 308.167 82.4826 307.961C81.9858 307.755 81.4533 307.649 80.9155 307.649C80.3778 307.649 79.8453 307.755 79.3484 307.961C78.8516 308.167 78.4002 308.469 78.0199 308.849L62.8179 324.051V329.842Z" stroke="white" stroke-width="2" stroke-linecap="round" stroke-linejoin="round"/>
<path d="M76.572 310.297L82.3633 316.088" stroke="white" stroke-width="2" stroke-linecap="round" stroke-linejoin="round"/>
</g>
<circle cx="151.207" cy="91.9454" r="26.0606" fill="#3397F6"/>
<g clip-path="url(#clip1_1573_2529)">
<path d="M151.208 81.8105V102.08" stroke="white" stroke-width="2" stroke-linecap="round" stroke-linejoin="round"/>
<path d="M141.073 91.9453H161.343" stroke="white" stroke-width="2" stroke-linecap="round" stroke-linejoin="round"/>
</g>
<circle cx="495.481" cy="86.4571" r="26.0606" fill="#FF6822"/>
<g clip-path="url(#clip2_1573_2529)">
<path d="M503.711 78.2266L487.251 94.6859" stroke="white" stroke-width="2" stroke-linecap="round" stroke-linejoin="round"/>
<path d="M487.251 78.2266L503.711 94.6859" stroke="white" stroke-width="2" stroke-linecap="round" stroke-linejoin="round"/>
</g>
<circle cx="584.639" cy="318.26" r="26.0606" fill="#97EB91"/>
<g clip-path="url(#clip3_1573_2529)">
<path d="M575.037 318.259L581.895 325.117L595.611 311.401" stroke="white" stroke-width="2" stroke-linecap="round" stroke-linejoin="round"/>
</g>
<defs>
<clipPath id="clip0_1573_2529">
<rect width="34.7475" height="34.7475" fill="white" transform="translate(57.0266 300.886)"/>
</clipPath>
<clipPath id="clip1_1573_2529">
<rect width="34.7475" height="34.7475" fill="white" transform="translate(133.834 74.5713)"/>
</clipPath>
<clipPath id="clip2_1573_2529">
<rect width="32.9187" height="32.9187" fill="white" transform="translate(479.022 69.9971)"/>
</clipPath>
<clipPath id="clip3_1573_2529">
<rect width="32.9187" height="32.9187" fill="white" transform="translate(568.179 301.8)"/>
</clipPath>
</defs>
</svg>
