<?xml version="1.0" encoding="UTF-8" standalone="no" ?>
<!DOCTYPE svg PUBLIC "-//W3C//DTD SVG 1.1//EN" "http://www.w3.org/Graphics/SVG/1.1/DTD/svg11.dtd">
<svg xmlns="http://www.w3.org/2000/svg" xmlns:xlink="http://www.w3.org/1999/xlink" version="1.1" width="1080" height="1080" viewBox="0 0 1080 1080" xml:space="preserve">
<desc>Created with Fabric.js 5.2.4</desc>
<defs>
</defs>
<g transform="matrix(1 0 0 1 540 540)" id="87d565f7-570c-4ff7-95fa-f95e38c43f60"  >
<rect style="stroke: none; stroke-width: 1; stroke-dasharray: none; stroke-linecap: butt; stroke-dashoffset: 0; stroke-linejoin: miter; stroke-miterlimit: 4; fill: rgb(255,255,255); fill-rule: nonzero; opacity: 1; visibility: hidden;" vector-effect="non-scaling-stroke"  x="-540" y="-540" rx="0" ry="0" width="1080" height="1080" />
</g>
<g transform="matrix(1 0 0 1 540 540)" id="117538ac-5d47-4222-900c-4f8b7360a0d0"  >
</g>
<g transform="matrix(1 0 0 1 540 540)"  >
<g style="" vector-effect="non-scaling-stroke"   >
		<g transform="matrix(1 0 0 1 23.3 -0.45)"  >
<path style="stroke: none; stroke-width: 1; stroke-dasharray: none; stroke-linecap: butt; stroke-dashoffset: 0; stroke-linejoin: miter; stroke-miterlimit: 4; fill: rgb(255,255,255); fill-rule: nonzero; opacity: 1;" vector-effect="non-scaling-stroke"  transform=" translate(-127, -81.2)" d="M 127 126.9 C 101.9 126.9 81.3 106.30000000000001 81.3 81.2 C 81.3 56.099999999999994 101.9 35.5 127 35.5 C 152.1 35.5 172.7 56.1 172.7 81.2 C 172.7 106.30000000000001 152.1 126.9 127 126.9 z M 127 47.5 C 108.5 47.5 93.2 62.7 93.2 81.3 C 93.2 99.89999999999999 108.4 115 127 115 C 145.6 115 160.8 99.8 160.8 81.2 C 160.8 62.60000000000001 145.9 47.5 127 47.5 z" stroke-linecap="round" />
</g>
		<g transform="matrix(1 0 0 1 23.3 0)"  >
<path style="stroke: none; stroke-width: 1; stroke-dasharray: none; stroke-linecap: butt; stroke-dashoffset: 0; stroke-linejoin: miter; stroke-miterlimit: 4; fill: rgb(255,255,255); fill-rule: nonzero; opacity: 1;" vector-effect="non-scaling-stroke"  transform=" translate(-127, -81.65)" d="M 127 160.3 C 83.8 160.3 48.400000000000006 124.9 48.400000000000006 81.70000000000002 C 48.400000000000006 38.50000000000003 83.7 3 127 3 C 170.3 3 205.6 38.4 205.6 81.6 C 205.6 124.79999999999998 170.6 160.3 127 160.3 z M 127 14.5 C 89.9 14.5 59.900000000000006 44.6 59.900000000000006 81.6 C 59.900000000000006 118.6 90 148.7 127 148.7 C 164 148.7 194.1 118.6 194.1 81.6 C 194.1 44.599999999999994 164 14.5 127 14.5 z" stroke-linecap="round" />
</g>
		<g transform="matrix(1 0 0 1 23.3 -0.05)"  >
<path style="stroke: none; stroke-width: 1; stroke-dasharray: none; stroke-linecap: butt; stroke-dashoffset: 0; stroke-linejoin: miter; stroke-miterlimit: 4; fill: rgb(255,255,255); fill-rule: nonzero; opacity: 1;" vector-effect="non-scaling-stroke"  transform=" translate(-127, -81.6)" d="M 127 94 C 134 94 139.4 88.2 139.4 81.6 C 139.4 74.6 133.6 69.19999999999999 127 69.19999999999999 C 120.4 69.19999999999999 114.6 74.99999999999999 114.6 81.6 C 114.6 88.2 120 94 127 94 z" stroke-linecap="round" />
</g>
		<g transform="matrix(1 0 0 1 -56.2 -0.45)"  >
<path style="stroke: none; stroke-width: 1; stroke-dasharray: none; stroke-linecap: butt; stroke-dashoffset: 0; stroke-linejoin: miter; stroke-miterlimit: 4; fill: rgb(255,255,255); fill-rule: nonzero; opacity: 1;" vector-effect="non-scaling-stroke"  transform=" translate(-47.5, -81.2)" d="M 47.5 126.9 C 22.4 126.9 1.7999999999999972 106.30000000000001 1.7999999999999972 81.2 C 1.7999999999999972 56.099999999999994 22.4 35.5 47.5 35.5 C 72.6 35.5 93.2 56.1 93.2 81.2 C 93.2 106.30000000000001 72.6 126.9 47.5 126.9 z M 47.5 47.5 C 29 47.5 13.700000000000003 62.7 13.700000000000003 81.3 C 13.700000000000003 99.89999999999999 29 115 47.5 115 C 66 115 81.3 99.8 81.3 81.2 C 81.3 62.60000000000001 66 47.5 47.5 47.5 z" stroke-linecap="round" />
</g>
		<g transform="matrix(1 0 0 1 -56.6 -0.45)"  >
<path style="stroke: none; stroke-width: 1; stroke-dasharray: none; stroke-linecap: butt; stroke-dashoffset: 0; stroke-linejoin: miter; stroke-miterlimit: 4; fill: rgb(255,255,255); fill-rule: nonzero; opacity: 1;" vector-effect="non-scaling-stroke"  transform=" translate(-47.1, -81.2)" d="M 47.1 94 C 54.1 94 59.900000000000006 88.2 59.900000000000006 81.2 C 59.900000000000006 74.2 54.10000000000001 68.4 47.10000000000001 68.4 C 40.10000000000001 68.4 34.30000000000001 74.2 34.30000000000001 81.2 C 34.30000000000001 88.2 40.1 94 47.1 94 z" stroke-linecap="round" />
</g>
</g>
</g>
</svg>