<?xml version="1.0" encoding="UTF-8"?>
<svg id="Layer_1" xmlns="http://www.w3.org/2000/svg" version="1.1" viewBox="0 0 275.3 59.4">
  <!-- Generator: Adobe Illustrator 29.1.0, SVG Export Plug-In . SVG Version: 2.1.0 Build 142)  -->
  <defs>
    <style>
      .st0 {
        fill-rule: evenodd;
      }
    </style>
  </defs>
  <path class="st0" d="M99.2,30.1c-2.4,13.5-10.8,15.3-17.9,15.3s-13.5-4.9-11.7-15.3c1.4-8.2,6.3-15.8,18.1-15.2,8.3.4,13.1,6.1,11.5,15.3h0ZM86.3,20.7c-2.6,0-5.5,1.3-7.2,9.4-1.9,8.9,1.9,9.5,3.7,9.5s5.2-.9,6.9-9.5c1.2-6,.3-9.4-3.4-9.4h0Z"/>
  <path class="st0" d="M117.1,44.2l-.4.4c-1.8.3-3.8.6-5,.6-4.2,0-10.3-.6-7.7-11.1,1.8-7.1,3-12.4,3-12.4h-3.9c0,.1-.3-.3-.3-.3l1.6-5.6.4-.3h3.6l1.6-7.1.4-.4c4.1-.9,5.2-1.2,9.1-2.3l.3.3-2.4,9.6h5.6c0-.1.2.3.2.3-.8,2.3-1,2.9-1.7,5.5l-.4.4h-5.1c0-.1-1,4.2-2.5,10.1-1.6,6.4-.7,6.1.8,6.7,1.3.5,3.1-.1,4.1-.5l.3.3-1.7,5.7h0Z"/>
  <path class="st0" d="M137.1,17.5c1.4-1,3.8-2.6,7.4-2.6,5.5,0,9.2,4.1,9.2,11.2s-1.4,8.7-4.2,12.1c-5.5,6.7-12.4,6.6-18.2,6.6l-3.1,13.2-.4.3c-1.3,0-2.5,0-3.8,0-1.9,0-3.5.1-5.6.2l-.3-.4s1.9-5.9,4.4-15.9c2.5-10.6,4.9-22.9,5.1-25.4l.4-.4,9.4-1.5.3.4-.7,2.4h0ZM132.6,38.7c2.6.3,5.5-.6,7.4-2.2,2.2-1.9,4.2-5.7,4.2-9.9s-3-5.2-4.1-5.2c-1.6,0-2.8.8-4,1.6l-3.5,15.7h0Z"/>
  <path class="st0" d="M154.2,44.4c.4-1.7,2.7-11.5,5.2-22.5,2.1-9.5,3.5-15.4,4-19.8l.4-.4,6-1.1.3.4-1.5,6.1-2.5,10.6c2.3-1.3,4.5-2.5,8.1-2.5,5.5,0,10,3.7,10,10.7s-.9,8.1-4.6,12.4c-5,5.7-11.1,6.1-18.2,6.4h-6.9c0,0-.3-.3-.3-.3h0ZM161,40.4c3.1.1,7.7,0,11.3-2.4,4.1-2.8,6-7.7,6-11.3,0-5-3-7-6.6-7s-4.8,1.2-6.6,2.3c0,0-3.9,16.9-4.2,18.3h0Z"/>
  <path class="st0" d="M213.8,27.1c-1.9,8.5-2.3,10.6-3.4,17.2l-.4.4h-5.2c0,.1-.3-.3-.3-.3l.4-2.2c-.9.8-3.4,2.8-8.1,2.8s-10.2-4-10.2-10.9,2.1-9.1,4.4-11.9c5.1-6,12.3-6.3,17.3-6.3h7.6c0,0,.3.5.3.5l-2.5,10.7h0ZM209.7,20.1c-.8,0-1.7,0-2.5,0-1.8,0-5.4.1-8.7,2.3-5.8,4-5.9,11.1-5.9,11.4,0,2.7,1.4,6.9,6.5,6.9s4-.4,6.6-2.7l4-17.8h0Z"/>
  <path class="st0" d="M241.1,44.3l-.4.3-5.6.2-.2-.4c.8-3.7,4.2-16.2,4.3-20,0-3.3-2-4.4-4.6-4.4s-5.7,1.7-7.3,2.9c-2,9.3-2.7,12.2-4.5,21.4l-.4.3-5.6.2-.3-.4s1.7-6.8,3.2-13.8c1.2-5.5,2.2-10,2.6-13.8l.4-.4c2.6-.3,3.2-.4,5.9-1l.3.4-.8,2.8c2.2-1.4,4.9-3.4,9.5-3.4s7.8.5,7.8,7.2-3.5,18-4,21.9h0Z"/>
  <path class="st0" d="M262.2,27.9l8.6,16.3-.3.4-6.1.2-.4-.3c-1.4-3.9-7.7-16.1-7.7-16.1-1.6,7-1.9,8.7-3.3,16l-.4.3h-5.6c0,.1-.2-.2-.2-.2,0,0,2.9-12.2,5.5-23.6,1.2-5.3,3-13.7,3.8-18.8l.4-.3,6-1,.3.4c-1.1,3.8-6.3,26.4-6.3,26.4,4-3.5,10.5-10.4,11.4-11.3l.6-.3h6.4l.2.5c-1.6,1.2-4.5,3.9-5.5,4.8l-7.2,6.6h0Z"/>
  <path class="st0" d="M.4,27.9C.4,12.9,12.6.7,27.6.7v9.9c-9.6,0-17.4,7.8-17.4,17.4s7.8,17.4,17.4,17.4,17.4-7.7,17.4-17.5h9.9c0,15.1-12.2,27.3-27.3,27.3S.4,43,.4,27.9H.4Z"/>
  <path class="st0" d="M15.6,27.9c0-6.7,5.4-12.1,12.1-12.1s12.1,5.4,12.1,12.1-5.4,12.1-12.1,12.1-12.1-5.4-12.1-12.1h0Z"/>
  <path class="st0" d="M36.1,12.6c0-3.8,3.1-6.9,6.9-6.9s6.9,3.1,6.9,6.9-3.1,6.9-6.9,6.9-6.9-3.1-6.9-6.9h0Z"/>
</svg>