<svg width="494" height="434" viewBox="0 0 494 434" fill="none" xmlns="http://www.w3.org/2000/svg">
<g filter="url(#filter0_d_1692_5638)">
<rect x="60" y="56" width="374" height="313.964" rx="20" fill="white" shape-rendering="crispEdges"/>
<path d="M113.9 101L112.56 97.44H106.56L105.24 101H102.7L108.22 86.82H111L116.52 101H113.9ZM109.56 89.42L107.4 95.22H111.72L109.56 89.42ZM126.277 91.26L122.457 101H120.137L116.177 91.26H118.737L121.317 98.22L123.837 91.26H126.277ZM129.311 95.06H134.091C134.051 93.92 133.291 92.9 131.691 92.9C130.231 92.9 129.391 94.02 129.311 95.06ZM134.351 97.6L136.311 98.22C135.791 99.92 134.251 101.3 131.911 101.3C129.271 101.3 126.931 99.38 126.931 96.08C126.931 93 129.211 90.96 131.671 90.96C134.671 90.96 136.431 92.94 136.431 96.02C136.431 96.4 136.391 96.72 136.371 96.76H129.251C129.311 98.24 130.471 99.3 131.911 99.3C133.311 99.3 134.031 98.56 134.351 97.6ZM144.348 91.2V93.56C144.088 93.52 143.828 93.5 143.588 93.5C141.788 93.5 140.968 94.54 140.968 96.36V101H138.648V91.26H140.908V92.82C141.368 91.76 142.448 91.14 143.728 91.14C144.008 91.14 144.248 91.18 144.348 91.2ZM145.705 98.36C145.705 96.62 146.985 95.66 148.645 95.42L151.145 95.04C151.705 94.96 151.865 94.68 151.865 94.34C151.865 93.52 151.305 92.86 150.025 92.86C148.805 92.86 148.125 93.64 148.025 94.62L145.905 94.14C146.085 92.46 147.605 90.96 150.005 90.96C153.005 90.96 154.145 92.66 154.145 94.6V99.44C154.145 100.32 154.245 100.9 154.265 101H152.105C152.085 100.94 152.005 100.54 152.005 99.76C151.545 100.5 150.585 101.3 149.005 101.3C146.965 101.3 145.705 99.9 145.705 98.36ZM149.445 99.48C150.745 99.48 151.865 98.86 151.865 96.96V96.52L149.325 96.9C148.605 97.02 148.025 97.42 148.025 98.22C148.025 98.88 148.525 99.48 149.445 99.48ZM156.23 101.54L158.37 100.98C158.53 102.18 159.47 103.08 160.81 103.08C162.65 103.08 163.57 102.14 163.57 100.16V99.14C163.15 99.9 162.17 100.56 160.75 100.56C158.15 100.56 156.25 98.56 156.25 95.82C156.25 93.22 158.07 91.08 160.75 91.08C162.27 91.08 163.21 91.7 163.63 92.5V91.26H165.87V100.08C165.87 102.68 164.53 105.1 160.87 105.1C158.29 105.1 156.49 103.5 156.23 101.54ZM161.13 98.58C162.61 98.58 163.63 97.5 163.63 95.82C163.63 94.16 162.57 93.08 161.13 93.08C159.65 93.08 158.59 94.16 158.59 95.82C158.59 97.52 159.61 98.58 161.13 98.58ZM170.327 95.06H175.107C175.067 93.92 174.307 92.9 172.707 92.9C171.247 92.9 170.407 94.02 170.327 95.06ZM175.367 97.6L177.327 98.22C176.807 99.92 175.267 101.3 172.927 101.3C170.287 101.3 167.947 99.38 167.947 96.08C167.947 93 170.227 90.96 172.687 90.96C175.687 90.96 177.447 92.94 177.447 96.02C177.447 96.4 177.407 96.72 177.387 96.76H170.267C170.327 98.24 171.487 99.3 172.927 99.3C174.327 99.3 175.047 98.56 175.367 97.6ZM191.985 101L189.005 95.4H187.245V101H184.825V86.82H190.265C193.005 86.82 194.705 88.72 194.705 91.12C194.705 93.14 193.485 94.68 191.505 95.16L194.705 101H191.985ZM187.245 93.28H189.825C191.305 93.28 192.265 92.42 192.265 91.12C192.265 89.8 191.305 88.94 189.825 88.94H187.245V93.28ZM206.908 101L205.568 97.44H199.568L198.248 101H195.708L201.228 86.82H204.008L209.528 101H206.908ZM202.568 89.42L200.408 95.22H204.728L202.568 89.42ZM215.328 98.36L217.348 97.8C217.428 98.68 218.088 99.46 219.328 99.46C220.288 99.46 220.788 98.94 220.788 98.34C220.788 97.82 220.428 97.42 219.648 97.26L218.208 96.94C216.488 96.56 215.588 95.44 215.588 94.1C215.588 92.4 217.148 90.96 219.168 90.96C221.888 90.96 222.768 92.72 222.928 93.68L220.968 94.24C220.888 93.68 220.468 92.78 219.168 92.78C218.348 92.78 217.768 93.3 217.768 93.9C217.768 94.42 218.148 94.8 218.748 94.92L220.228 95.22C222.068 95.62 223.028 96.74 223.028 98.18C223.028 99.66 221.828 101.3 219.348 101.3C216.528 101.3 215.448 99.46 215.328 98.36ZM229.51 93.1C228.09 93.1 226.83 94.16 226.83 96.12C226.83 98.08 228.09 99.18 229.55 99.18C231.07 99.18 231.77 98.12 231.99 97.38L234.03 98.12C233.57 99.64 232.11 101.3 229.55 101.3C226.69 101.3 224.51 99.08 224.51 96.12C224.51 93.12 226.69 90.96 229.49 90.96C232.11 90.96 233.55 92.6 233.95 94.16L231.87 94.92C231.65 94.06 230.99 93.1 229.51 93.1ZM240.272 99.22C241.712 99.22 242.992 98.16 242.992 96.12C242.992 94.1 241.712 93.06 240.272 93.06C238.852 93.06 237.552 94.1 237.552 96.12C237.552 98.14 238.852 99.22 240.272 99.22ZM240.272 90.96C243.192 90.96 245.332 93.14 245.332 96.12C245.332 99.12 243.192 101.3 240.272 101.3C237.372 101.3 235.232 99.12 235.232 96.12C235.232 93.14 237.372 90.96 240.272 90.96ZM253.274 91.2V93.56C253.014 93.52 252.754 93.5 252.514 93.5C250.714 93.5 249.894 94.54 249.894 96.36V101H247.574V91.26H249.834V92.82C250.294 91.76 251.374 91.14 252.654 91.14C252.934 91.14 253.174 91.18 253.274 91.2ZM256.733 95.06H261.513C261.473 93.92 260.713 92.9 259.113 92.9C257.653 92.9 256.813 94.02 256.733 95.06ZM261.773 97.6L263.733 98.22C263.213 99.92 261.673 101.3 259.333 101.3C256.693 101.3 254.353 99.38 254.353 96.08C254.353 93 256.633 90.96 259.093 90.96C262.093 90.96 263.853 92.94 263.853 96.02C263.853 96.4 263.813 96.72 263.793 96.76H256.673C256.733 98.24 257.893 99.3 259.333 99.3C260.733 99.3 261.453 98.56 261.773 97.6ZM265.21 98.36L267.23 97.8C267.31 98.68 267.97 99.46 269.21 99.46C270.17 99.46 270.67 98.94 270.67 98.34C270.67 97.82 270.31 97.42 269.53 97.26L268.09 96.94C266.37 96.56 265.47 95.44 265.47 94.1C265.47 92.4 267.03 90.96 269.05 90.96C271.77 90.96 272.65 92.72 272.81 93.68L270.85 94.24C270.77 93.68 270.35 92.78 269.05 92.78C268.23 92.78 267.65 93.3 267.65 93.9C267.65 94.42 268.03 94.8 268.63 94.92L270.11 95.22C271.95 95.62 272.91 96.74 272.91 98.18C272.91 99.66 271.71 101.3 269.23 101.3C266.41 101.3 265.33 99.46 265.21 98.36ZM284.492 88.5C283.872 88.5 283.052 88.78 283.052 89.98V91.26H285.312V93.28H283.052V101H280.712V93.28H279.012V91.26H280.712V89.92C280.712 87.74 282.112 86.42 284.112 86.42C284.692 86.42 285.172 86.54 285.332 86.62V88.6C285.192 88.56 284.932 88.5 284.492 88.5ZM291.151 99.22C292.591 99.22 293.871 98.16 293.871 96.12C293.871 94.1 292.591 93.06 291.151 93.06C289.731 93.06 288.431 94.1 288.431 96.12C288.431 98.14 289.731 99.22 291.151 99.22ZM291.151 90.96C294.071 90.96 296.211 93.14 296.211 96.12C296.211 99.12 294.071 101.3 291.151 101.3C288.251 101.3 286.111 99.12 286.111 96.12C286.111 93.14 288.251 90.96 291.151 90.96ZM304.153 91.2V93.56C303.893 93.52 303.633 93.5 303.393 93.5C301.593 93.5 300.773 94.54 300.773 96.36V101H298.453V91.26H300.713V92.82C301.173 91.76 302.253 91.14 303.533 91.14C303.813 91.14 304.053 91.18 304.153 91.2ZM312.812 93.9C312.812 97.32 315.172 99.02 317.552 99.02C319.952 99.02 322.312 97.32 322.312 93.9C322.312 90.48 319.952 88.78 317.552 88.78C315.172 88.78 312.812 90.48 312.812 93.9ZM310.352 93.9C310.352 89.26 313.832 86.52 317.552 86.52C321.272 86.52 324.772 89.26 324.772 93.9C324.772 98.56 321.272 101.3 317.552 101.3C313.832 101.3 310.352 98.56 310.352 93.9ZM332.805 91.2V93.56C332.545 93.52 332.285 93.5 332.045 93.5C330.245 93.5 329.425 94.54 329.425 96.36V101H327.105V91.26H329.365V92.82C329.825 91.76 330.905 91.14 332.185 91.14C332.465 91.14 332.705 91.18 332.805 91.2ZM336.205 96.1C336.205 97.96 337.245 99.2 338.825 99.2C340.345 99.2 341.405 97.94 341.405 96.08C341.405 94.22 340.365 93.06 338.845 93.06C337.325 93.06 336.205 94.24 336.205 96.1ZM343.645 86.52V99.22C343.645 100.1 343.725 100.84 343.745 101H341.525C341.485 100.78 341.425 100.14 341.425 99.74C340.965 100.56 339.945 101.24 338.565 101.24C335.765 101.24 333.885 99.04 333.885 96.1C333.885 93.3 335.785 91 338.525 91C340.225 91 341.085 91.78 341.385 92.4V86.52H343.645ZM348.976 101H346.676V91.26H348.976V101ZM346.316 87.84C346.316 87 346.996 86.32 347.816 86.32C348.656 86.32 349.336 87 349.336 87.84C349.336 88.68 348.656 89.34 347.816 89.34C346.996 89.34 346.316 88.68 346.316 87.84ZM354.289 95.38V101H351.969V91.26H354.229V92.56C354.869 91.44 356.029 90.98 357.109 90.98C359.489 90.98 360.629 92.7 360.629 94.84V101H358.309V95.24C358.309 94.04 357.769 93.08 356.309 93.08C354.989 93.08 354.289 94.1 354.289 95.38ZM362.853 98.36C362.853 96.62 364.133 95.66 365.793 95.42L368.293 95.04C368.853 94.96 369.013 94.68 369.013 94.34C369.013 93.52 368.453 92.86 367.173 92.86C365.953 92.86 365.273 93.64 365.173 94.62L363.053 94.14C363.233 92.46 364.753 90.96 367.153 90.96C370.153 90.96 371.293 92.66 371.293 94.6V99.44C371.293 100.32 371.393 100.9 371.413 101H369.253C369.233 100.94 369.153 100.54 369.153 99.76C368.693 100.5 367.733 101.3 366.153 101.3C364.113 101.3 362.853 99.9 362.853 98.36ZM366.593 99.48C367.893 99.48 369.013 98.86 369.013 96.96V96.52L366.473 96.9C365.753 97.02 365.173 97.42 365.173 98.22C365.173 98.88 365.673 99.48 366.593 99.48ZM379.798 91.2V93.56C379.538 93.52 379.278 93.5 379.038 93.5C377.238 93.5 376.418 94.54 376.418 96.36V101H374.098V91.26H376.358V92.82C376.818 91.76 377.898 91.14 379.178 91.14C379.458 91.14 379.698 91.18 379.798 91.2ZM385.046 104.94H382.566L384.906 99.84L380.746 91.26H383.366L386.166 97.42L388.786 91.26H391.246L385.046 104.94Z" fill="white"/>
<path d="M113.9 101L112.56 97.44H106.56L105.24 101H102.7L108.22 86.82H111L116.52 101H113.9ZM109.56 89.42L107.4 95.22H111.72L109.56 89.42ZM126.277 91.26L122.457 101H120.137L116.177 91.26H118.737L121.317 98.22L123.837 91.26H126.277ZM129.311 95.06H134.091C134.051 93.92 133.291 92.9 131.691 92.9C130.231 92.9 129.391 94.02 129.311 95.06ZM134.351 97.6L136.311 98.22C135.791 99.92 134.251 101.3 131.911 101.3C129.271 101.3 126.931 99.38 126.931 96.08C126.931 93 129.211 90.96 131.671 90.96C134.671 90.96 136.431 92.94 136.431 96.02C136.431 96.4 136.391 96.72 136.371 96.76H129.251C129.311 98.24 130.471 99.3 131.911 99.3C133.311 99.3 134.031 98.56 134.351 97.6ZM144.348 91.2V93.56C144.088 93.52 143.828 93.5 143.588 93.5C141.788 93.5 140.968 94.54 140.968 96.36V101H138.648V91.26H140.908V92.82C141.368 91.76 142.448 91.14 143.728 91.14C144.008 91.14 144.248 91.18 144.348 91.2ZM145.705 98.36C145.705 96.62 146.985 95.66 148.645 95.42L151.145 95.04C151.705 94.96 151.865 94.68 151.865 94.34C151.865 93.52 151.305 92.86 150.025 92.86C148.805 92.86 148.125 93.64 148.025 94.62L145.905 94.14C146.085 92.46 147.605 90.96 150.005 90.96C153.005 90.96 154.145 92.66 154.145 94.6V99.44C154.145 100.32 154.245 100.9 154.265 101H152.105C152.085 100.94 152.005 100.54 152.005 99.76C151.545 100.5 150.585 101.3 149.005 101.3C146.965 101.3 145.705 99.9 145.705 98.36ZM149.445 99.48C150.745 99.48 151.865 98.86 151.865 96.96V96.52L149.325 96.9C148.605 97.02 148.025 97.42 148.025 98.22C148.025 98.88 148.525 99.48 149.445 99.48ZM156.23 101.54L158.37 100.98C158.53 102.18 159.47 103.08 160.81 103.08C162.65 103.08 163.57 102.14 163.57 100.16V99.14C163.15 99.9 162.17 100.56 160.75 100.56C158.15 100.56 156.25 98.56 156.25 95.82C156.25 93.22 158.07 91.08 160.75 91.08C162.27 91.08 163.21 91.7 163.63 92.5V91.26H165.87V100.08C165.87 102.68 164.53 105.1 160.87 105.1C158.29 105.1 156.49 103.5 156.23 101.54ZM161.13 98.58C162.61 98.58 163.63 97.5 163.63 95.82C163.63 94.16 162.57 93.08 161.13 93.08C159.65 93.08 158.59 94.16 158.59 95.82C158.59 97.52 159.61 98.58 161.13 98.58ZM170.327 95.06H175.107C175.067 93.92 174.307 92.9 172.707 92.9C171.247 92.9 170.407 94.02 170.327 95.06ZM175.367 97.6L177.327 98.22C176.807 99.92 175.267 101.3 172.927 101.3C170.287 101.3 167.947 99.38 167.947 96.08C167.947 93 170.227 90.96 172.687 90.96C175.687 90.96 177.447 92.94 177.447 96.02C177.447 96.4 177.407 96.72 177.387 96.76H170.267C170.327 98.24 171.487 99.3 172.927 99.3C174.327 99.3 175.047 98.56 175.367 97.6ZM191.985 101L189.005 95.4H187.245V101H184.825V86.82H190.265C193.005 86.82 194.705 88.72 194.705 91.12C194.705 93.14 193.485 94.68 191.505 95.16L194.705 101H191.985ZM187.245 93.28H189.825C191.305 93.28 192.265 92.42 192.265 91.12C192.265 89.8 191.305 88.94 189.825 88.94H187.245V93.28ZM206.908 101L205.568 97.44H199.568L198.248 101H195.708L201.228 86.82H204.008L209.528 101H206.908ZM202.568 89.42L200.408 95.22H204.728L202.568 89.42ZM215.328 98.36L217.348 97.8C217.428 98.68 218.088 99.46 219.328 99.46C220.288 99.46 220.788 98.94 220.788 98.34C220.788 97.82 220.428 97.42 219.648 97.26L218.208 96.94C216.488 96.56 215.588 95.44 215.588 94.1C215.588 92.4 217.148 90.96 219.168 90.96C221.888 90.96 222.768 92.72 222.928 93.68L220.968 94.24C220.888 93.68 220.468 92.78 219.168 92.78C218.348 92.78 217.768 93.3 217.768 93.9C217.768 94.42 218.148 94.8 218.748 94.92L220.228 95.22C222.068 95.62 223.028 96.74 223.028 98.18C223.028 99.66 221.828 101.3 219.348 101.3C216.528 101.3 215.448 99.46 215.328 98.36ZM229.51 93.1C228.09 93.1 226.83 94.16 226.83 96.12C226.83 98.08 228.09 99.18 229.55 99.18C231.07 99.18 231.77 98.12 231.99 97.38L234.03 98.12C233.57 99.64 232.11 101.3 229.55 101.3C226.69 101.3 224.51 99.08 224.51 96.12C224.51 93.12 226.69 90.96 229.49 90.96C232.11 90.96 233.55 92.6 233.95 94.16L231.87 94.92C231.65 94.06 230.99 93.1 229.51 93.1ZM240.272 99.22C241.712 99.22 242.992 98.16 242.992 96.12C242.992 94.1 241.712 93.06 240.272 93.06C238.852 93.06 237.552 94.1 237.552 96.12C237.552 98.14 238.852 99.22 240.272 99.22ZM240.272 90.96C243.192 90.96 245.332 93.14 245.332 96.12C245.332 99.12 243.192 101.3 240.272 101.3C237.372 101.3 235.232 99.12 235.232 96.12C235.232 93.14 237.372 90.96 240.272 90.96ZM253.274 91.2V93.56C253.014 93.52 252.754 93.5 252.514 93.5C250.714 93.5 249.894 94.54 249.894 96.36V101H247.574V91.26H249.834V92.82C250.294 91.76 251.374 91.14 252.654 91.14C252.934 91.14 253.174 91.18 253.274 91.2ZM256.733 95.06H261.513C261.473 93.92 260.713 92.9 259.113 92.9C257.653 92.9 256.813 94.02 256.733 95.06ZM261.773 97.6L263.733 98.22C263.213 99.92 261.673 101.3 259.333 101.3C256.693 101.3 254.353 99.38 254.353 96.08C254.353 93 256.633 90.96 259.093 90.96C262.093 90.96 263.853 92.94 263.853 96.02C263.853 96.4 263.813 96.72 263.793 96.76H256.673C256.733 98.24 257.893 99.3 259.333 99.3C260.733 99.3 261.453 98.56 261.773 97.6ZM265.21 98.36L267.23 97.8C267.31 98.68 267.97 99.46 269.21 99.46C270.17 99.46 270.67 98.94 270.67 98.34C270.67 97.82 270.31 97.42 269.53 97.26L268.09 96.94C266.37 96.56 265.47 95.44 265.47 94.1C265.47 92.4 267.03 90.96 269.05 90.96C271.77 90.96 272.65 92.72 272.81 93.68L270.85 94.24C270.77 93.68 270.35 92.78 269.05 92.78C268.23 92.78 267.65 93.3 267.65 93.9C267.65 94.42 268.03 94.8 268.63 94.92L270.11 95.22C271.95 95.62 272.91 96.74 272.91 98.18C272.91 99.66 271.71 101.3 269.23 101.3C266.41 101.3 265.33 99.46 265.21 98.36ZM284.492 88.5C283.872 88.5 283.052 88.78 283.052 89.98V91.26H285.312V93.28H283.052V101H280.712V93.28H279.012V91.26H280.712V89.92C280.712 87.74 282.112 86.42 284.112 86.42C284.692 86.42 285.172 86.54 285.332 86.62V88.6C285.192 88.56 284.932 88.5 284.492 88.5ZM291.151 99.22C292.591 99.22 293.871 98.16 293.871 96.12C293.871 94.1 292.591 93.06 291.151 93.06C289.731 93.06 288.431 94.1 288.431 96.12C288.431 98.14 289.731 99.22 291.151 99.22ZM291.151 90.96C294.071 90.96 296.211 93.14 296.211 96.12C296.211 99.12 294.071 101.3 291.151 101.3C288.251 101.3 286.111 99.12 286.111 96.12C286.111 93.14 288.251 90.96 291.151 90.96ZM304.153 91.2V93.56C303.893 93.52 303.633 93.5 303.393 93.5C301.593 93.5 300.773 94.54 300.773 96.36V101H298.453V91.26H300.713V92.82C301.173 91.76 302.253 91.14 303.533 91.14C303.813 91.14 304.053 91.18 304.153 91.2ZM312.812 93.9C312.812 97.32 315.172 99.02 317.552 99.02C319.952 99.02 322.312 97.32 322.312 93.9C322.312 90.48 319.952 88.78 317.552 88.78C315.172 88.78 312.812 90.48 312.812 93.9ZM310.352 93.9C310.352 89.26 313.832 86.52 317.552 86.52C321.272 86.52 324.772 89.26 324.772 93.9C324.772 98.56 321.272 101.3 317.552 101.3C313.832 101.3 310.352 98.56 310.352 93.9ZM332.805 91.2V93.56C332.545 93.52 332.285 93.5 332.045 93.5C330.245 93.5 329.425 94.54 329.425 96.36V101H327.105V91.26H329.365V92.82C329.825 91.76 330.905 91.14 332.185 91.14C332.465 91.14 332.705 91.18 332.805 91.2ZM336.205 96.1C336.205 97.96 337.245 99.2 338.825 99.2C340.345 99.2 341.405 97.94 341.405 96.08C341.405 94.22 340.365 93.06 338.845 93.06C337.325 93.06 336.205 94.24 336.205 96.1ZM343.645 86.52V99.22C343.645 100.1 343.725 100.84 343.745 101H341.525C341.485 100.78 341.425 100.14 341.425 99.74C340.965 100.56 339.945 101.24 338.565 101.24C335.765 101.24 333.885 99.04 333.885 96.1C333.885 93.3 335.785 91 338.525 91C340.225 91 341.085 91.78 341.385 92.4V86.52H343.645ZM348.976 101H346.676V91.26H348.976V101ZM346.316 87.84C346.316 87 346.996 86.32 347.816 86.32C348.656 86.32 349.336 87 349.336 87.84C349.336 88.68 348.656 89.34 347.816 89.34C346.996 89.34 346.316 88.68 346.316 87.84ZM354.289 95.38V101H351.969V91.26H354.229V92.56C354.869 91.44 356.029 90.98 357.109 90.98C359.489 90.98 360.629 92.7 360.629 94.84V101H358.309V95.24C358.309 94.04 357.769 93.08 356.309 93.08C354.989 93.08 354.289 94.1 354.289 95.38ZM362.853 98.36C362.853 96.62 364.133 95.66 365.793 95.42L368.293 95.04C368.853 94.96 369.013 94.68 369.013 94.34C369.013 93.52 368.453 92.86 367.173 92.86C365.953 92.86 365.273 93.64 365.173 94.62L363.053 94.14C363.233 92.46 364.753 90.96 367.153 90.96C370.153 90.96 371.293 92.66 371.293 94.6V99.44C371.293 100.32 371.393 100.9 371.413 101H369.253C369.233 100.94 369.153 100.54 369.153 99.76C368.693 100.5 367.733 101.3 366.153 101.3C364.113 101.3 362.853 99.9 362.853 98.36ZM366.593 99.48C367.893 99.48 369.013 98.86 369.013 96.96V96.52L366.473 96.9C365.753 97.02 365.173 97.42 365.173 98.22C365.173 98.88 365.673 99.48 366.593 99.48ZM379.798 91.2V93.56C379.538 93.52 379.278 93.5 379.038 93.5C377.238 93.5 376.418 94.54 376.418 96.36V101H374.098V91.26H376.358V92.82C376.818 91.76 377.898 91.14 379.178 91.14C379.458 91.14 379.698 91.18 379.798 91.2ZM385.046 104.94H382.566L384.906 99.84L380.746 91.26H383.366L386.166 97.42L388.786 91.26H391.246L385.046 104.94Z" fill="#3D3D4F"/>
<circle cx="171" cy="124.5" r="5" fill="#49D5B2"/>
<path d="M190.801 122.364C190.741 121.86 190.5 121.469 190.075 121.19C189.651 120.912 189.131 120.773 188.514 120.773C188.063 120.773 187.669 120.846 187.331 120.991C186.996 121.137 186.734 121.338 186.545 121.593C186.36 121.848 186.267 122.138 186.267 122.463C186.267 122.735 186.332 122.969 186.461 123.164C186.594 123.356 186.763 123.517 186.968 123.646C187.174 123.772 187.389 123.877 187.614 123.96C187.84 124.039 188.047 124.104 188.236 124.153L189.27 124.432C189.535 124.501 189.83 124.598 190.155 124.72C190.483 124.843 190.796 125.01 191.094 125.222C191.396 125.431 191.645 125.7 191.84 126.028C192.036 126.356 192.134 126.759 192.134 127.236C192.134 127.786 191.989 128.283 191.701 128.727C191.416 129.171 190.998 129.524 190.448 129.786C189.901 130.048 189.237 130.179 188.455 130.179C187.725 130.179 187.094 130.061 186.56 129.826C186.03 129.591 185.612 129.263 185.308 128.842C185.006 128.421 184.835 127.932 184.795 127.375H186.068C186.101 127.759 186.231 128.078 186.456 128.33C186.685 128.578 186.973 128.764 187.321 128.886C187.672 129.006 188.05 129.065 188.455 129.065C188.925 129.065 189.348 128.989 189.722 128.837C190.097 128.681 190.393 128.465 190.612 128.19C190.831 127.912 190.94 127.587 190.94 127.216C190.94 126.878 190.846 126.603 190.657 126.391C190.468 126.179 190.219 126.006 189.911 125.874C189.603 125.741 189.27 125.625 188.912 125.526L187.659 125.168C186.864 124.939 186.234 124.612 185.77 124.188C185.306 123.764 185.074 123.209 185.074 122.523C185.074 121.953 185.228 121.455 185.536 121.031C185.848 120.604 186.265 120.272 186.789 120.037C187.316 119.798 187.904 119.679 188.554 119.679C189.21 119.679 189.794 119.797 190.304 120.032C190.814 120.264 191.219 120.582 191.517 120.987C191.819 121.391 191.978 121.85 191.994 122.364H190.801ZM197.343 130.159C196.608 130.159 195.973 129.997 195.439 129.672C194.909 129.344 194.5 128.886 194.211 128.3C193.926 127.71 193.784 127.024 193.784 126.241C193.784 125.459 193.926 124.77 194.211 124.173C194.5 123.573 194.901 123.106 195.414 122.771C195.931 122.433 196.535 122.264 197.224 122.264C197.622 122.264 198.014 122.33 198.402 122.463C198.79 122.596 199.143 122.811 199.461 123.109C199.779 123.404 200.033 123.795 200.222 124.283C200.411 124.77 200.505 125.37 200.505 126.082V126.58H194.619V125.565H199.312C199.312 125.134 199.226 124.75 199.054 124.412C198.884 124.074 198.643 123.807 198.328 123.612C198.016 123.416 197.648 123.318 197.224 123.318C196.757 123.318 196.352 123.434 196.011 123.666C195.673 123.895 195.413 124.193 195.23 124.561C195.048 124.929 194.957 125.323 194.957 125.744V126.42C194.957 126.997 195.056 127.486 195.255 127.887C195.457 128.285 195.737 128.588 196.095 128.797C196.453 129.002 196.869 129.105 197.343 129.105C197.652 129.105 197.93 129.062 198.179 128.976C198.43 128.886 198.648 128.754 198.83 128.578C199.012 128.399 199.153 128.177 199.252 127.912L200.386 128.23C200.267 128.615 200.066 128.953 199.784 129.244C199.503 129.533 199.155 129.758 198.74 129.92C198.326 130.08 197.86 130.159 197.343 130.159ZM202.43 130V122.364H203.564V123.517H203.643C203.782 123.139 204.034 122.833 204.399 122.597C204.763 122.362 205.174 122.244 205.632 122.244C205.718 122.244 205.826 122.246 205.955 122.249C206.084 122.253 206.182 122.258 206.248 122.264V123.457C206.208 123.447 206.117 123.433 205.975 123.413C205.836 123.389 205.688 123.378 205.532 123.378C205.161 123.378 204.83 123.456 204.538 123.612C204.25 123.764 204.021 123.976 203.852 124.248C203.686 124.516 203.603 124.823 203.603 125.168V130H202.43ZM214.256 122.364L211.432 130H210.239L207.415 122.364H208.688L210.796 128.449H210.875L212.983 122.364H214.256ZM215.944 130V122.364H217.118V130H215.944ZM216.541 121.091C216.312 121.091 216.115 121.013 215.949 120.857C215.787 120.701 215.706 120.514 215.706 120.295C215.706 120.077 215.787 119.889 215.949 119.734C216.115 119.578 216.312 119.5 216.541 119.5C216.77 119.5 216.965 119.578 217.128 119.734C217.293 119.889 217.376 120.077 217.376 120.295C217.376 120.514 217.293 120.701 217.128 120.857C216.965 121.013 216.77 121.091 216.541 121.091ZM222.509 130.159C221.793 130.159 221.177 129.99 220.66 129.652C220.142 129.314 219.745 128.848 219.466 128.255C219.188 127.662 219.049 126.984 219.049 126.222C219.049 125.446 219.191 124.762 219.476 124.168C219.765 123.572 220.166 123.106 220.679 122.771C221.196 122.433 221.8 122.264 222.489 122.264C223.026 122.264 223.51 122.364 223.941 122.562C224.372 122.761 224.725 123.04 225 123.398C225.275 123.756 225.446 124.173 225.512 124.651H224.338C224.249 124.303 224.05 123.994 223.742 123.726C223.437 123.454 223.026 123.318 222.509 123.318C222.052 123.318 221.651 123.437 221.306 123.676C220.964 123.911 220.698 124.245 220.505 124.675C220.316 125.103 220.222 125.605 220.222 126.182C220.222 126.772 220.315 127.286 220.5 127.723C220.689 128.161 220.954 128.5 221.296 128.742C221.641 128.984 222.045 129.105 222.509 129.105C222.814 129.105 223.091 129.052 223.339 128.946C223.588 128.84 223.798 128.688 223.971 128.489C224.143 128.29 224.266 128.051 224.338 127.773H225.512C225.446 128.223 225.281 128.629 225.02 128.991C224.761 129.349 224.418 129.634 223.99 129.846C223.566 130.055 223.072 130.159 222.509 130.159ZM230.569 130.159C229.833 130.159 229.198 129.997 228.665 129.672C228.134 129.344 227.725 128.886 227.437 128.3C227.152 127.71 227.009 127.024 227.009 126.241C227.009 125.459 227.152 124.77 227.437 124.173C227.725 123.573 228.126 123.106 228.64 122.771C229.157 122.433 229.76 122.264 230.449 122.264C230.847 122.264 231.24 122.33 231.628 122.463C232.015 122.596 232.368 122.811 232.687 123.109C233.005 123.404 233.258 123.795 233.447 124.283C233.636 124.77 233.731 125.37 233.731 126.082V126.58H227.844V125.565H232.537C232.537 125.134 232.451 124.75 232.279 124.412C232.11 124.074 231.868 123.807 231.553 123.612C231.242 123.416 230.874 123.318 230.449 123.318C229.982 123.318 229.578 123.434 229.236 123.666C228.898 123.895 228.638 124.193 228.456 124.561C228.273 124.929 228.182 125.323 228.182 125.744V126.42C228.182 126.997 228.282 127.486 228.481 127.887C228.683 128.285 228.963 128.588 229.321 128.797C229.679 129.002 230.095 129.105 230.569 129.105C230.877 129.105 231.155 129.062 231.404 128.976C231.656 128.886 231.873 128.754 232.055 128.578C232.237 128.399 232.378 128.177 232.478 127.912L233.611 128.23C233.492 128.615 233.291 128.953 233.01 129.244C232.728 129.533 232.38 129.758 231.966 129.92C231.551 130.08 231.086 130.159 230.569 130.159Z" fill="#848484"/>
<circle cx="260" cy="124.5" r="5" fill="white"/>
<circle cx="260" cy="124.5" r="5" fill="#3D3D4F"/>
<path d="M274.651 130H273.358L277.097 119.818H278.369L282.108 130H280.815L277.773 121.429H277.693L274.651 130ZM275.128 126.023H280.338V127.116H275.128V126.023ZM288.962 122.364L286.138 130H284.945L282.121 122.364H283.394L285.502 128.449H285.581L287.689 122.364H288.962ZM293.579 130.159C292.843 130.159 292.209 129.997 291.675 129.672C291.145 129.344 290.735 128.886 290.447 128.3C290.162 127.71 290.019 127.024 290.019 126.241C290.019 125.459 290.162 124.77 290.447 124.173C290.735 123.573 291.136 123.106 291.65 122.771C292.167 122.433 292.77 122.264 293.46 122.264C293.857 122.264 294.25 122.33 294.638 122.463C295.026 122.596 295.379 122.811 295.697 123.109C296.015 123.404 296.269 123.795 296.458 124.283C296.646 124.77 296.741 125.37 296.741 126.082V126.58H290.855V125.565H295.548C295.548 125.134 295.462 124.75 295.289 124.412C295.12 124.074 294.878 123.807 294.563 123.612C294.252 123.416 293.884 123.318 293.46 123.318C292.992 123.318 292.588 123.434 292.247 123.666C291.909 123.895 291.648 124.193 291.466 124.561C291.284 124.929 291.193 125.323 291.193 125.744V126.42C291.193 126.997 291.292 127.486 291.491 127.887C291.693 128.285 291.973 128.588 292.331 128.797C292.689 129.002 293.105 129.105 293.579 129.105C293.887 129.105 294.166 129.062 294.414 128.976C294.666 128.886 294.883 128.754 295.066 128.578C295.248 128.399 295.389 128.177 295.488 127.912L296.622 128.23C296.502 128.615 296.302 128.953 296.02 129.244C295.738 129.533 295.39 129.758 294.976 129.92C294.562 130.08 294.096 130.159 293.579 130.159ZM298.666 130V122.364H299.799V123.517H299.879C300.018 123.139 300.27 122.833 300.634 122.597C300.999 122.362 301.41 122.244 301.867 122.244C301.954 122.244 302.061 122.246 302.191 122.249C302.32 122.253 302.418 122.258 302.484 122.264V123.457C302.444 123.447 302.353 123.433 302.21 123.413C302.071 123.389 301.924 123.378 301.768 123.378C301.397 123.378 301.065 123.456 300.774 123.612C300.485 123.764 300.257 123.976 300.088 124.248C299.922 124.516 299.839 124.823 299.839 125.168V130H298.666ZM306.262 130.179C305.778 130.179 305.339 130.088 304.944 129.906C304.55 129.72 304.237 129.453 304.005 129.105C303.773 128.754 303.657 128.33 303.657 127.832C303.657 127.395 303.743 127.04 303.915 126.768C304.088 126.493 304.318 126.278 304.606 126.122C304.895 125.966 305.213 125.85 305.561 125.774C305.912 125.695 306.265 125.632 306.62 125.585C307.084 125.526 307.46 125.481 307.748 125.451C308.04 125.418 308.252 125.363 308.385 125.287C308.521 125.211 308.589 125.078 308.589 124.889V124.849C308.589 124.359 308.454 123.978 308.186 123.706C307.921 123.434 307.518 123.298 306.978 123.298C306.418 123.298 305.979 123.421 305.66 123.666C305.342 123.911 305.118 124.173 304.989 124.452L303.876 124.054C304.074 123.59 304.34 123.229 304.671 122.97C305.006 122.708 305.37 122.526 305.765 122.423C306.162 122.317 306.554 122.264 306.938 122.264C307.183 122.264 307.465 122.294 307.783 122.354C308.105 122.41 308.415 122.528 308.713 122.707C309.014 122.886 309.265 123.156 309.464 123.517C309.662 123.878 309.762 124.362 309.762 124.969V130H308.589V128.966H308.529C308.449 129.132 308.317 129.309 308.131 129.498C307.946 129.687 307.699 129.848 307.39 129.98C307.082 130.113 306.706 130.179 306.262 130.179ZM306.441 129.125C306.905 129.125 307.296 129.034 307.614 128.852C307.936 128.669 308.178 128.434 308.34 128.146C308.506 127.857 308.589 127.554 308.589 127.236V126.162C308.539 126.222 308.429 126.276 308.26 126.326C308.095 126.372 307.903 126.414 307.684 126.45C307.468 126.483 307.258 126.513 307.052 126.54C306.85 126.563 306.686 126.583 306.56 126.599C306.255 126.639 305.97 126.704 305.705 126.793C305.443 126.879 305.231 127.01 305.069 127.186C304.91 127.358 304.83 127.594 304.83 127.892C304.83 128.3 304.981 128.608 305.282 128.817C305.587 129.022 305.974 129.125 306.441 129.125ZM315.126 133.023C314.559 133.023 314.072 132.95 313.664 132.804C313.256 132.661 312.917 132.473 312.645 132.237C312.376 132.005 312.163 131.757 312.004 131.491L312.938 130.835C313.044 130.974 313.179 131.134 313.341 131.312C313.503 131.495 313.725 131.652 314.007 131.785C314.292 131.921 314.665 131.989 315.126 131.989C315.742 131.989 316.251 131.839 316.652 131.541C317.053 131.243 317.254 130.776 317.254 130.139V128.588H317.154C317.068 128.727 316.945 128.9 316.786 129.105C316.631 129.307 316.405 129.488 316.11 129.647C315.818 129.803 315.424 129.881 314.927 129.881C314.31 129.881 313.757 129.735 313.266 129.443C312.779 129.152 312.393 128.727 312.108 128.17C311.826 127.614 311.685 126.937 311.685 126.142C311.685 125.36 311.823 124.679 312.098 124.099C312.373 123.515 312.756 123.065 313.247 122.746C313.737 122.425 314.304 122.264 314.947 122.264C315.444 122.264 315.838 122.347 316.13 122.513C316.425 122.675 316.65 122.861 316.806 123.07C316.965 123.275 317.088 123.444 317.174 123.577H317.293V122.364H318.427V130.219C318.427 130.875 318.278 131.409 317.979 131.82C317.684 132.234 317.287 132.537 316.786 132.729C316.289 132.925 315.736 133.023 315.126 133.023ZM315.086 128.827C315.557 128.827 315.954 128.719 316.279 128.504C316.604 128.288 316.851 127.978 317.02 127.574C317.189 127.17 317.274 126.686 317.274 126.122C317.274 125.572 317.191 125.086 317.025 124.665C316.859 124.245 316.614 123.915 316.289 123.676C315.964 123.437 315.563 123.318 315.086 123.318C314.589 123.318 314.175 123.444 313.843 123.696C313.515 123.948 313.268 124.286 313.102 124.71C312.94 125.134 312.859 125.605 312.859 126.122C312.859 126.652 312.942 127.121 313.107 127.529C313.276 127.933 313.525 128.252 313.853 128.484C314.184 128.712 314.595 128.827 315.086 128.827ZM323.916 130.159C323.181 130.159 322.546 129.997 322.012 129.672C321.482 129.344 321.073 128.886 320.784 128.3C320.499 127.71 320.357 127.024 320.357 126.241C320.357 125.459 320.499 124.77 320.784 124.173C321.073 123.573 321.474 123.106 321.987 122.771C322.504 122.433 323.108 122.264 323.797 122.264C324.195 122.264 324.588 122.33 324.975 122.463C325.363 122.596 325.716 122.811 326.034 123.109C326.352 123.404 326.606 123.795 326.795 124.283C326.984 124.77 327.078 125.37 327.078 126.082V126.58H321.192V125.565H325.885C325.885 125.134 325.799 124.75 325.627 124.412C325.458 124.074 325.216 123.807 324.901 123.612C324.589 123.416 324.221 123.318 323.797 123.318C323.33 123.318 322.925 123.434 322.584 123.666C322.246 123.895 321.986 124.193 321.803 124.561C321.621 124.929 321.53 125.323 321.53 125.744V126.42C321.53 126.997 321.629 127.486 321.828 127.887C322.03 128.285 322.311 128.588 322.668 128.797C323.026 129.002 323.442 129.105 323.916 129.105C324.225 129.105 324.503 129.062 324.752 128.976C325.003 128.886 325.221 128.754 325.403 128.578C325.585 128.399 325.726 128.177 325.825 127.912L326.959 128.23C326.84 128.615 326.639 128.953 326.357 129.244C326.076 129.533 325.728 129.758 325.313 129.92C324.899 130.08 324.433 130.159 323.916 130.159Z" fill="#848484"/>
<path d="M414 252.551H134.522V253.375H414V252.551Z" fill="#E0E1E0"/>
<path d="M414 184.125H134.522V184.949H414V184.125Z" fill="#E0E1E0"/>
<path d="M414 316.031H134.522V316.856H414V316.031Z" fill="#E0E1E0"/>
<path d="M99.8145 315.882C99.8145 314.854 99.9938 314.068 100.412 313.463C100.89 312.738 101.548 312.375 102.445 312.375C103.341 312.375 103.999 312.738 104.477 313.463C104.896 314.068 105.075 314.854 105.075 315.882C105.075 316.91 104.896 317.696 104.477 318.301C103.999 319.026 103.341 319.389 102.445 319.389C101.548 319.389 100.89 319.026 100.412 318.301C99.9938 317.696 99.8145 316.91 99.8145 315.882ZM100.831 315.882C100.831 316.91 101.01 317.636 101.428 318.059C101.727 318.361 102.026 318.482 102.505 318.482C102.983 318.482 103.282 318.361 103.581 318.059C103.999 317.636 104.178 316.91 104.178 315.882C104.178 314.854 103.999 314.129 103.581 313.705C103.282 313.403 102.983 313.282 102.505 313.282C102.026 313.282 101.727 313.403 101.428 313.705C101.01 314.129 100.831 314.854 100.831 315.882Z" fill="#595959"/>
<path d="M102.099 255.687H101.249V251.169H99.8145V250.474C100.24 250.474 100.558 250.358 100.824 250.127C101.09 249.895 101.249 249.605 101.355 249.258H102.152V255.687H102.099Z" fill="#595959"/>
<path d="M100.864 182.209L99.9718 182.086C99.9718 182.025 99.9718 181.902 99.9718 181.84C99.9718 181.225 100.129 180.732 100.496 180.302C100.864 179.871 101.336 179.625 101.965 179.625C102.595 179.625 103.067 179.81 103.381 180.24C103.749 180.671 103.906 181.163 103.906 181.717C103.906 182.578 103.539 183.317 102.804 183.809L101.65 184.67C101.231 184.978 101.021 185.286 100.916 185.655H103.906V186.639H99.8145C99.8145 186.085 99.9194 185.532 100.129 185.101C100.339 184.67 100.706 184.24 101.178 183.87L102.175 183.132C102.7 182.701 102.962 182.271 102.962 181.717C102.962 181.163 102.857 181.102 102.7 180.856C102.49 180.609 102.227 180.486 101.913 180.486C101.598 180.486 101.283 180.609 101.073 180.856C100.864 181.102 100.811 181.471 100.811 181.84C100.811 182.209 100.811 182.025 100.811 182.148L100.864 182.209Z" fill="#595959"/>
<path d="M134.522 217.1H412.351" stroke="#595959" stroke-width="1.2" stroke-linecap="round" stroke-linejoin="round" stroke-dasharray="1 3"/>
<path d="M145.422 336.469V327.741H150.689V328.679H146.478V331.628H150.416V332.565H146.478V335.531H150.757V336.469H145.422ZM156.327 331.636V332.574H152.509V331.636H156.327ZM161.046 336.588C160.404 336.588 159.857 336.413 159.406 336.064C158.954 335.712 158.609 335.202 158.37 334.534C158.131 333.864 158.012 333.054 158.012 332.105C158.012 331.162 158.131 330.357 158.37 329.689C158.611 329.018 158.958 328.507 159.41 328.155C159.864 327.8 160.41 327.622 161.046 327.622C161.682 327.622 162.227 327.8 162.678 328.155C163.133 328.507 163.479 329.018 163.718 329.689C163.959 330.357 164.08 331.162 164.08 332.105C164.08 333.054 163.961 333.864 163.722 334.534C163.484 335.202 163.138 335.712 162.687 336.064C162.235 336.413 161.688 336.588 161.046 336.588ZM161.046 335.651C161.682 335.651 162.177 335.344 162.529 334.73C162.881 334.116 163.057 333.241 163.057 332.105C163.057 331.349 162.977 330.706 162.815 330.175C162.656 329.643 162.425 329.239 162.124 328.96C161.826 328.682 161.467 328.543 161.046 328.543C160.415 328.543 159.923 328.854 159.567 329.476C159.212 330.095 159.035 330.972 159.035 332.105C159.035 332.861 159.114 333.503 159.273 334.031C159.432 334.56 159.661 334.962 159.959 335.237C160.261 335.513 160.623 335.651 161.046 335.651ZM168.666 336.588C168.024 336.588 167.477 336.413 167.026 336.064C166.574 335.712 166.229 335.202 165.99 334.534C165.751 333.864 165.632 333.054 165.632 332.105C165.632 331.162 165.751 330.357 165.99 329.689C166.231 329.018 166.578 328.507 167.03 328.155C167.484 327.8 168.03 327.622 168.666 327.622C169.302 327.622 169.847 327.8 170.298 328.155C170.753 328.507 171.099 329.018 171.338 329.689C171.579 330.357 171.7 331.162 171.7 332.105C171.7 333.054 171.581 333.864 171.342 334.534C171.104 335.202 170.758 335.712 170.307 336.064C169.855 336.413 169.308 336.588 168.666 336.588ZM168.666 335.651C169.302 335.651 169.797 335.344 170.149 334.73C170.501 334.116 170.677 333.241 170.677 332.105C170.677 331.349 170.597 330.706 170.435 330.175C170.276 329.643 170.045 329.239 169.744 328.96C169.446 328.682 169.087 328.543 168.666 328.543C168.035 328.543 167.543 328.854 167.187 329.476C166.832 330.095 166.655 330.972 166.655 332.105C166.655 332.861 166.734 333.503 166.893 334.031C167.052 334.56 167.281 334.962 167.579 335.237C167.881 335.513 168.243 335.651 168.666 335.651ZM176.286 336.588C175.644 336.588 175.097 336.413 174.646 336.064C174.194 335.712 173.849 335.202 173.61 334.534C173.371 333.864 173.252 333.054 173.252 332.105C173.252 331.162 173.371 330.357 173.61 329.689C173.851 329.018 174.198 328.507 174.65 328.155C175.104 327.8 175.65 327.622 176.286 327.622C176.922 327.622 177.467 327.8 177.918 328.155C178.373 328.507 178.719 329.018 178.958 329.689C179.199 330.357 179.32 331.162 179.32 332.105C179.32 333.054 179.201 333.864 178.962 334.534C178.724 335.202 178.378 335.712 177.927 336.064C177.475 336.413 176.928 336.588 176.286 336.588ZM176.286 335.651C176.922 335.651 177.417 335.344 177.769 334.73C178.121 334.116 178.297 333.241 178.297 332.105C178.297 331.349 178.217 330.706 178.055 330.175C177.896 329.643 177.665 329.239 177.364 328.96C177.066 328.682 176.707 328.543 176.286 328.543C175.655 328.543 175.163 328.854 174.807 329.476C174.452 330.095 174.275 330.972 174.275 332.105C174.275 332.861 174.354 333.503 174.513 334.031C174.672 334.56 174.901 334.962 175.199 335.237C175.501 335.513 175.863 335.651 176.286 335.651ZM183.906 336.588C183.264 336.588 182.717 336.413 182.266 336.064C181.814 335.712 181.469 335.202 181.23 334.534C180.991 333.864 180.872 333.054 180.872 332.105C180.872 331.162 180.991 330.357 181.23 329.689C181.471 329.018 181.818 328.507 182.27 328.155C182.724 327.8 183.27 327.622 183.906 327.622C184.542 327.622 185.087 327.8 185.538 328.155C185.993 328.507 186.339 329.018 186.578 329.689C186.819 330.357 186.94 331.162 186.94 332.105C186.94 333.054 186.821 333.864 186.582 334.534C186.344 335.202 185.998 335.712 185.547 336.064C185.095 336.413 184.548 336.588 183.906 336.588ZM183.906 335.651C184.542 335.651 185.037 335.344 185.389 334.73C185.741 334.116 185.917 333.241 185.917 332.105C185.917 331.349 185.837 330.706 185.675 330.175C185.516 329.643 185.285 329.239 184.984 328.96C184.686 328.682 184.327 328.543 183.906 328.543C183.275 328.543 182.783 328.854 182.427 329.476C182.072 330.095 181.895 330.972 181.895 332.105C181.895 332.861 181.974 333.503 182.133 334.031C182.292 334.56 182.521 334.962 182.819 335.237C183.121 335.513 183.483 335.651 183.906 335.651ZM191.475 336.588C190.89 336.588 190.373 336.484 189.924 336.277C189.478 336.067 189.13 335.778 188.88 335.412C188.63 335.043 188.506 334.622 188.509 334.151C188.506 333.781 188.579 333.44 188.726 333.128C188.874 332.812 189.076 332.55 189.332 332.339C189.59 332.126 189.878 331.991 190.197 331.935V331.884C189.779 331.776 189.447 331.541 189.199 331.18C188.952 330.817 188.83 330.403 188.833 329.94C188.83 329.497 188.942 329.101 189.17 328.751C189.397 328.402 189.709 328.126 190.107 327.925C190.508 327.723 190.964 327.622 191.475 327.622C191.981 327.622 192.432 327.723 192.83 327.925C193.228 328.126 193.54 328.402 193.768 328.751C193.998 329.101 194.114 329.497 194.117 329.94C194.114 330.403 193.988 330.817 193.738 331.18C193.491 331.541 193.162 331.776 192.753 331.884V331.935C193.069 331.991 193.353 332.126 193.606 332.339C193.859 332.55 194.06 332.812 194.211 333.128C194.361 333.44 194.438 333.781 194.441 334.151C194.438 334.622 194.31 335.043 194.057 335.412C193.807 335.778 193.459 336.067 193.013 336.277C192.57 336.484 192.057 336.588 191.475 336.588ZM191.475 335.651C191.87 335.651 192.211 335.587 192.498 335.459C192.785 335.331 193.006 335.151 193.162 334.918C193.319 334.685 193.398 334.412 193.401 334.099C193.398 333.77 193.313 333.479 193.145 333.226C192.978 332.973 192.749 332.774 192.459 332.629C192.172 332.484 191.844 332.412 191.475 332.412C191.103 332.412 190.77 332.484 190.478 332.629C190.188 332.774 189.959 332.973 189.792 333.226C189.627 333.479 189.546 333.77 189.549 334.099C189.546 334.412 189.621 334.685 189.775 334.918C189.931 335.151 190.154 335.331 190.444 335.459C190.734 335.587 191.077 335.651 191.475 335.651ZM191.475 331.509C191.787 331.509 192.064 331.446 192.306 331.321C192.55 331.196 192.742 331.021 192.881 330.797C193.02 330.572 193.091 330.31 193.094 330.009C193.091 329.713 193.022 329.456 192.886 329.237C192.749 329.016 192.56 328.845 192.319 328.726C192.077 328.604 191.796 328.543 191.475 328.543C191.148 328.543 190.863 328.604 190.618 328.726C190.374 328.845 190.185 329.016 190.052 329.237C189.918 329.456 189.853 329.713 189.856 330.009C189.853 330.31 189.92 330.572 190.056 330.797C190.195 331.021 190.387 331.196 190.631 331.321C190.876 331.446 191.157 331.509 191.475 331.509Z" fill="#848484"/>
<path d="M206.946 336.469V327.741H212.213V328.679H208.003V331.628H211.94V332.565H208.003V335.531H212.281V336.469H206.946ZM217.851 331.636V332.574H214.033V331.636H217.851ZM222.571 336.588C221.928 336.588 221.382 336.413 220.93 336.064C220.478 335.712 220.133 335.202 219.894 334.534C219.656 333.864 219.536 333.054 219.536 332.105C219.536 331.162 219.656 330.357 219.894 329.689C220.136 329.018 220.482 328.507 220.934 328.155C221.389 327.8 221.934 327.622 222.571 327.622C223.207 327.622 223.751 327.8 224.203 328.155C224.657 328.507 225.004 329.018 225.242 329.689C225.484 330.357 225.605 331.162 225.605 332.105C225.605 333.054 225.485 333.864 225.247 334.534C225.008 335.202 224.663 335.712 224.211 336.064C223.759 336.413 223.213 336.588 222.571 336.588ZM222.571 335.651C223.207 335.651 223.701 335.344 224.053 334.73C224.406 334.116 224.582 333.241 224.582 332.105C224.582 331.349 224.501 330.706 224.339 330.175C224.18 329.643 223.95 329.239 223.649 328.96C223.35 328.682 222.991 328.543 222.571 328.543C221.94 328.543 221.447 328.854 221.092 329.476C220.737 330.095 220.559 330.972 220.559 332.105C220.559 332.861 220.639 333.503 220.798 334.031C220.957 334.56 221.186 334.962 221.484 335.237C221.785 335.513 222.147 335.651 222.571 335.651ZM230.191 336.588C229.549 336.588 229.002 336.413 228.55 336.064C228.098 335.712 227.753 335.202 227.514 334.534C227.276 333.864 227.156 333.054 227.156 332.105C227.156 331.162 227.276 330.357 227.514 329.689C227.756 329.018 228.102 328.507 228.554 328.155C229.009 327.8 229.554 327.622 230.191 327.622C230.827 327.622 231.371 327.8 231.823 328.155C232.277 328.507 232.624 329.018 232.862 329.689C233.104 330.357 233.225 331.162 233.225 332.105C233.225 333.054 233.105 333.864 232.867 334.534C232.628 335.202 232.283 335.712 231.831 336.064C231.379 336.413 230.833 336.588 230.191 336.588ZM230.191 335.651C230.827 335.651 231.321 335.344 231.674 334.73C232.026 334.116 232.202 333.241 232.202 332.105C232.202 331.349 232.121 330.706 231.959 330.175C231.8 329.643 231.57 329.239 231.269 328.96C230.97 328.682 230.611 328.543 230.191 328.543C229.56 328.543 229.067 328.854 228.712 329.476C228.357 330.095 228.179 330.972 228.179 332.105C228.179 332.861 228.259 333.503 228.418 334.031C228.577 334.56 228.806 334.962 229.104 335.237C229.405 335.513 229.767 335.651 230.191 335.651ZM237.811 336.588C237.168 336.588 236.622 336.413 236.17 336.064C235.718 335.712 235.373 335.202 235.134 334.534C234.896 333.864 234.776 333.054 234.776 332.105C234.776 331.162 234.896 330.357 235.134 329.689C235.376 329.018 235.722 328.507 236.174 328.155C236.629 327.8 237.174 327.622 237.811 327.622C238.447 327.622 238.991 327.8 239.443 328.155C239.897 328.507 240.244 329.018 240.482 329.689C240.724 330.357 240.845 331.162 240.845 332.105C240.845 333.054 240.725 333.864 240.487 334.534C240.248 335.202 239.903 335.712 239.451 336.064C238.999 336.413 238.453 336.588 237.811 336.588ZM237.811 335.651C238.447 335.651 238.941 335.344 239.293 334.73C239.646 334.116 239.822 333.241 239.822 332.105C239.822 331.349 239.741 330.706 239.579 330.175C239.42 329.643 239.19 329.239 238.889 328.96C238.59 328.682 238.231 328.543 237.811 328.543C237.18 328.543 236.687 328.854 236.332 329.476C235.977 330.095 235.799 330.972 235.799 332.105C235.799 332.861 235.879 333.503 236.038 334.031C236.197 334.56 236.426 334.962 236.724 335.237C237.025 335.513 237.387 335.651 237.811 335.651ZM245.431 336.588C244.788 336.588 244.242 336.413 243.79 336.064C243.338 335.712 242.993 335.202 242.754 334.534C242.516 333.864 242.396 333.054 242.396 332.105C242.396 331.162 242.516 330.357 242.754 329.689C242.996 329.018 243.342 328.507 243.794 328.155C244.249 327.8 244.794 327.622 245.431 327.622C246.067 327.622 246.611 327.8 247.063 328.155C247.517 328.507 247.864 329.018 248.102 329.689C248.344 330.357 248.465 331.162 248.465 332.105C248.465 333.054 248.345 333.864 248.107 334.534C247.868 335.202 247.523 335.712 247.071 336.064C246.619 336.413 246.073 336.588 245.431 336.588ZM245.431 335.651C246.067 335.651 246.561 335.344 246.913 334.73C247.266 334.116 247.442 333.241 247.442 332.105C247.442 331.349 247.361 330.706 247.199 330.175C247.04 329.643 246.81 329.239 246.509 328.96C246.21 328.682 245.851 328.543 245.431 328.543C244.8 328.543 244.307 328.854 243.952 329.476C243.597 330.095 243.419 330.972 243.419 332.105C243.419 332.861 243.499 333.503 243.658 334.031C243.817 334.56 244.046 334.962 244.344 335.237C244.645 335.513 245.007 335.651 245.431 335.651ZM252.982 327.622C253.34 327.625 253.698 327.693 254.056 327.827C254.414 327.96 254.741 328.182 255.036 328.491C255.332 328.798 255.569 329.217 255.748 329.749C255.927 330.28 256.016 330.946 256.016 331.747C256.016 332.523 255.943 333.212 255.795 333.814C255.65 334.413 255.44 334.919 255.164 335.331C254.891 335.743 254.559 336.055 254.167 336.268C253.778 336.482 253.337 336.588 252.846 336.588C252.357 336.588 251.921 336.491 251.538 336.298C251.157 336.102 250.845 335.831 250.6 335.484C250.359 335.135 250.204 334.73 250.136 334.27H251.176C251.269 334.67 251.455 335.001 251.734 335.263C252.015 335.521 252.386 335.651 252.846 335.651C253.519 335.651 254.051 335.357 254.44 334.768C254.832 334.18 255.028 333.349 255.028 332.276H254.96C254.801 332.514 254.612 332.72 254.393 332.893C254.174 333.067 253.931 333.2 253.664 333.294C253.397 333.388 253.113 333.435 252.812 333.435C252.312 333.435 251.853 333.311 251.435 333.064C251.021 332.814 250.688 332.472 250.438 332.037C250.191 331.599 250.068 331.099 250.068 330.537C250.068 330.003 250.187 329.514 250.426 329.071C250.667 328.625 251.005 328.27 251.44 328.006C251.877 327.741 252.391 327.614 252.982 327.622ZM252.982 328.56C252.624 328.56 252.302 328.649 252.015 328.828C251.731 329.004 251.505 329.243 251.337 329.544C251.173 329.842 251.09 330.173 251.09 330.537C251.09 330.901 251.17 331.232 251.329 331.53C251.491 331.825 251.711 332.061 251.989 332.237C252.271 332.411 252.59 332.497 252.948 332.497C253.218 332.497 253.47 332.445 253.703 332.339C253.935 332.232 254.139 332.085 254.312 331.901C254.488 331.713 254.626 331.501 254.725 331.266C254.825 331.027 254.874 330.778 254.874 330.52C254.874 330.179 254.792 329.859 254.627 329.561C254.465 329.263 254.241 329.021 253.954 328.837C253.67 328.652 253.346 328.56 252.982 328.56Z" fill="#848484"/>
<path d="M277.706 336.469V327.741H282.973V328.679H278.762V331.628H282.7V332.565H278.762V335.531H283.041V336.469H277.706ZM288.611 331.636V332.574H284.793V331.636H288.611ZM293.33 336.588C292.688 336.588 292.141 336.413 291.69 336.064C291.238 335.712 290.893 335.202 290.654 334.534C290.415 333.864 290.296 333.054 290.296 332.105C290.296 331.162 290.415 330.357 290.654 329.689C290.896 329.018 291.242 328.507 291.694 328.155C292.148 327.8 292.694 327.622 293.33 327.622C293.967 327.622 294.511 327.8 294.962 328.155C295.417 328.507 295.763 329.018 296.002 329.689C296.244 330.357 296.364 331.162 296.364 332.105C296.364 333.054 296.245 333.864 296.006 334.534C295.768 335.202 295.423 335.712 294.971 336.064C294.519 336.413 293.972 336.588 293.33 336.588ZM293.33 335.651C293.967 335.651 294.461 335.344 294.813 334.73C295.165 334.116 295.342 333.241 295.342 332.105C295.342 331.349 295.261 330.706 295.099 330.175C294.94 329.643 294.709 329.239 294.408 328.96C294.11 328.682 293.751 328.543 293.33 328.543C292.7 328.543 292.207 328.854 291.852 329.476C291.496 330.095 291.319 330.972 291.319 332.105C291.319 332.861 291.398 333.503 291.558 334.031C291.717 334.56 291.945 334.962 292.244 335.237C292.545 335.513 292.907 335.651 293.33 335.651ZM300.95 336.588C300.308 336.588 299.761 336.413 299.31 336.064C298.858 335.712 298.513 335.202 298.274 334.534C298.035 333.864 297.916 333.054 297.916 332.105C297.916 331.162 298.035 330.357 298.274 329.689C298.516 329.018 298.862 328.507 299.314 328.155C299.768 327.8 300.314 327.622 300.95 327.622C301.587 327.622 302.131 327.8 302.582 328.155C303.037 328.507 303.383 329.018 303.622 329.689C303.864 330.357 303.984 331.162 303.984 332.105C303.984 333.054 303.865 333.864 303.626 334.534C303.388 335.202 303.043 335.712 302.591 336.064C302.139 336.413 301.592 336.588 300.95 336.588ZM300.95 335.651C301.587 335.651 302.081 335.344 302.433 334.73C302.785 334.116 302.962 333.241 302.962 332.105C302.962 331.349 302.881 330.706 302.719 330.175C302.56 329.643 302.329 329.239 302.028 328.96C301.73 328.682 301.371 328.543 300.95 328.543C300.32 328.543 299.827 328.854 299.472 329.476C299.116 330.095 298.939 330.972 298.939 332.105C298.939 332.861 299.018 333.503 299.178 334.031C299.337 334.56 299.565 334.962 299.864 335.237C300.165 335.513 300.527 335.651 300.95 335.651ZM308.57 336.588C307.928 336.588 307.381 336.413 306.93 336.064C306.478 335.712 306.133 335.202 305.894 334.534C305.655 333.864 305.536 333.054 305.536 332.105C305.536 331.162 305.655 330.357 305.894 329.689C306.136 329.018 306.482 328.507 306.934 328.155C307.388 327.8 307.934 327.622 308.57 327.622C309.207 327.622 309.751 327.8 310.202 328.155C310.657 328.507 311.003 329.018 311.242 329.689C311.484 330.357 311.604 331.162 311.604 332.105C311.604 333.054 311.485 333.864 311.246 334.534C311.008 335.202 310.663 335.712 310.211 336.064C309.759 336.413 309.212 336.588 308.57 336.588ZM308.57 335.651C309.207 335.651 309.701 335.344 310.053 334.73C310.405 334.116 310.582 333.241 310.582 332.105C310.582 331.349 310.501 330.706 310.339 330.175C310.18 329.643 309.949 329.239 309.648 328.96C309.35 328.682 308.991 328.543 308.57 328.543C307.94 328.543 307.447 328.854 307.092 329.476C306.736 330.095 306.559 330.972 306.559 332.105C306.559 332.861 306.638 333.503 306.798 334.031C306.957 334.56 307.185 334.962 307.484 335.237C307.785 335.513 308.147 335.651 308.57 335.651ZM316.412 327.741V336.469H315.355V328.849H315.304L313.173 330.264V329.19L315.355 327.741H316.412ZM321.888 336.588C321.246 336.588 320.699 336.413 320.248 336.064C319.796 335.712 319.451 335.202 319.212 334.534C318.974 333.864 318.854 333.054 318.854 332.105C318.854 331.162 318.974 330.357 319.212 329.689C319.454 329.018 319.8 328.507 320.252 328.155C320.707 327.8 321.252 327.622 321.888 327.622C322.525 327.622 323.069 327.8 323.52 328.155C323.975 328.507 324.322 329.018 324.56 329.689C324.802 330.357 324.922 331.162 324.922 332.105C324.922 333.054 324.803 333.864 324.564 334.534C324.326 335.202 323.981 335.712 323.529 336.064C323.077 336.413 322.53 336.588 321.888 336.588ZM321.888 335.651C322.525 335.651 323.019 335.344 323.371 334.73C323.724 334.116 323.9 333.241 323.9 332.105C323.9 331.349 323.819 330.706 323.657 330.175C323.498 329.643 323.268 329.239 322.966 328.96C322.668 328.682 322.309 328.543 321.888 328.543C321.258 328.543 320.765 328.854 320.41 329.476C320.055 330.095 319.877 330.972 319.877 332.105C319.877 332.861 319.957 333.503 320.116 334.031C320.275 334.56 320.503 334.962 320.802 335.237C321.103 335.513 321.465 335.651 321.888 335.651Z" fill="#848484"/>
<path d="M350.074 336.469V327.741H355.341V328.679H351.131V331.628H355.068V332.565H351.131V335.531H355.409V336.469H350.074ZM360.979 331.636V332.574H357.161V331.636H360.979ZM365.698 336.588C365.056 336.588 364.509 336.413 364.058 336.064C363.606 335.712 363.261 335.202 363.022 334.534C362.784 333.864 362.664 333.054 362.664 332.105C362.664 331.162 362.784 330.357 363.022 329.689C363.264 329.018 363.61 328.507 364.062 328.155C364.517 327.8 365.062 327.622 365.698 327.622C366.335 327.622 366.879 327.8 367.33 328.155C367.785 328.507 368.132 329.018 368.37 329.689C368.612 330.357 368.732 331.162 368.732 332.105C368.732 333.054 368.613 333.864 368.374 334.534C368.136 335.202 367.791 335.712 367.339 336.064C366.887 336.413 366.34 336.588 365.698 336.588ZM365.698 335.651C366.335 335.651 366.829 335.344 367.181 334.73C367.534 334.116 367.71 333.241 367.71 332.105C367.71 331.349 367.629 330.706 367.467 330.175C367.308 329.643 367.078 329.239 366.776 328.96C366.478 328.682 366.119 328.543 365.698 328.543C365.068 328.543 364.575 328.854 364.22 329.476C363.865 330.095 363.687 330.972 363.687 332.105C363.687 332.861 363.767 333.503 363.926 334.031C364.085 334.56 364.313 334.962 364.612 335.237C364.913 335.513 365.275 335.651 365.698 335.651ZM373.318 336.588C372.676 336.588 372.129 336.413 371.678 336.064C371.226 335.712 370.881 335.202 370.642 334.534C370.404 333.864 370.284 333.054 370.284 332.105C370.284 331.162 370.404 330.357 370.642 329.689C370.884 329.018 371.23 328.507 371.682 328.155C372.137 327.8 372.682 327.622 373.318 327.622C373.955 327.622 374.499 327.8 374.95 328.155C375.405 328.507 375.752 329.018 375.99 329.689C376.232 330.357 376.352 331.162 376.352 332.105C376.352 333.054 376.233 333.864 375.994 334.534C375.756 335.202 375.411 335.712 374.959 336.064C374.507 336.413 373.96 336.588 373.318 336.588ZM373.318 335.651C373.955 335.651 374.449 335.344 374.801 334.73C375.154 334.116 375.33 333.241 375.33 332.105C375.33 331.349 375.249 330.706 375.087 330.175C374.928 329.643 374.698 329.239 374.396 328.96C374.098 328.682 373.739 328.543 373.318 328.543C372.688 328.543 372.195 328.854 371.84 329.476C371.485 330.095 371.307 330.972 371.307 332.105C371.307 332.861 371.387 333.503 371.546 334.031C371.705 334.56 371.933 334.962 372.232 335.237C372.533 335.513 372.895 335.651 373.318 335.651ZM380.938 336.588C380.296 336.588 379.749 336.413 379.298 336.064C378.846 335.712 378.501 335.202 378.262 334.534C378.024 333.864 377.904 333.054 377.904 332.105C377.904 331.162 378.024 330.357 378.262 329.689C378.504 329.018 378.85 328.507 379.302 328.155C379.757 327.8 380.302 327.622 380.938 327.622C381.575 327.622 382.119 327.8 382.57 328.155C383.025 328.507 383.372 329.018 383.61 329.689C383.852 330.357 383.972 331.162 383.972 332.105C383.972 333.054 383.853 333.864 383.614 334.534C383.376 335.202 383.031 335.712 382.579 336.064C382.127 336.413 381.58 336.588 380.938 336.588ZM380.938 335.651C381.575 335.651 382.069 335.344 382.421 334.73C382.774 334.116 382.95 333.241 382.95 332.105C382.95 331.349 382.869 330.706 382.707 330.175C382.548 329.643 382.318 329.239 382.016 328.96C381.718 328.682 381.359 328.543 380.938 328.543C380.308 328.543 379.815 328.854 379.46 329.476C379.105 330.095 378.927 330.972 378.927 332.105C378.927 332.861 379.007 333.503 379.166 334.031C379.325 334.56 379.553 334.962 379.852 335.237C380.153 335.513 380.515 335.651 380.938 335.651ZM388.78 327.741V336.469H387.723V328.849H387.672L385.541 330.264V329.19L387.723 327.741H388.78ZM394.478 327.741V336.469H393.421V328.849H393.37L391.239 330.264V329.19L393.421 327.741H394.478Z" fill="#848484"/>
<rect x="280.475" y="186.355" width="42.9876" height="24.2929" rx="12.1464" fill="white"/>
<rect x="280.475" y="186.355" width="42.9876" height="24.2929" rx="12.1464" stroke="#E0E1E0"/>
<path d="M293.94 194.275V203.002H292.884V195.383H292.832L290.702 196.797V195.724L292.884 194.275H293.94ZM296.805 203.07C296.594 203.07 296.414 202.995 296.263 202.844C296.113 202.694 296.038 202.513 296.038 202.303C296.038 202.093 296.113 201.912 296.263 201.762C296.414 201.611 296.594 201.536 296.805 201.536C297.015 201.536 297.195 201.611 297.346 201.762C297.496 201.912 297.572 202.093 297.572 202.303C297.572 202.442 297.536 202.57 297.465 202.687C297.397 202.803 297.305 202.897 297.188 202.968C297.075 203.036 296.947 203.07 296.805 203.07ZM302.031 203.121C301.531 203.121 301.081 203.022 300.68 202.823C300.279 202.624 299.958 202.351 299.717 202.005C299.475 201.658 299.343 201.263 299.321 200.82H300.343C300.383 201.215 300.562 201.542 300.88 201.8C301.201 202.056 301.585 202.184 302.031 202.184C302.389 202.184 302.707 202.1 302.985 201.932C303.267 201.765 303.487 201.535 303.646 201.242C303.808 200.947 303.889 200.613 303.889 200.241C303.889 199.86 303.805 199.52 303.637 199.222C303.473 198.921 303.245 198.684 302.956 198.51C302.666 198.337 302.335 198.249 301.963 198.246C301.696 198.243 301.421 198.285 301.14 198.37C300.859 198.452 300.627 198.559 300.446 198.689L299.457 198.57L299.985 194.275H304.519V195.212H300.872L300.565 197.786H300.616C300.795 197.644 301.019 197.526 301.289 197.432C301.559 197.339 301.84 197.292 302.133 197.292C302.667 197.292 303.143 197.42 303.561 197.675C303.981 197.928 304.311 198.275 304.549 198.715C304.791 199.155 304.912 199.658 304.912 200.224C304.912 200.78 304.787 201.278 304.537 201.715C304.289 202.15 303.948 202.493 303.514 202.746C303.079 202.996 302.585 203.121 302.031 203.121ZM306.724 203.002V202.235L309.605 199.081C309.943 198.712 310.222 198.391 310.44 198.118C310.659 197.843 310.821 197.584 310.926 197.343C311.034 197.099 311.088 196.843 311.088 196.576C311.088 196.269 311.014 196.003 310.866 195.779C310.722 195.555 310.523 195.381 310.27 195.259C310.017 195.137 309.733 195.076 309.418 195.076C309.082 195.076 308.79 195.145 308.54 195.285C308.293 195.421 308.101 195.613 307.964 195.86C307.831 196.107 307.764 196.397 307.764 196.729H306.758C306.758 196.218 306.876 195.769 307.112 195.383C307.348 194.996 307.669 194.695 308.075 194.479C308.484 194.263 308.943 194.155 309.452 194.155C309.963 194.155 310.416 194.263 310.811 194.479C311.206 194.695 311.516 194.986 311.74 195.353C311.964 195.719 312.077 196.127 312.077 196.576C312.077 196.897 312.018 197.211 311.902 197.518C311.788 197.822 311.589 198.161 311.305 198.536C311.024 198.908 310.633 199.363 310.133 199.9L308.173 201.996V202.064H312.23V203.002H306.724Z" fill="black"/>
<rect x="150.305" y="190.752" width="42.9876" height="24.2929" rx="12.1464" fill="white"/>
<rect x="150.305" y="190.752" width="42.9876" height="24.2929" rx="12.1464" stroke="#E0E1E0"/>
<path d="M163.77 198.671V207.398H162.714V199.779H162.662L160.532 201.194V200.12L162.714 198.671H163.77ZM166.635 207.467C166.425 207.467 166.244 207.391 166.094 207.241C165.943 207.09 165.868 206.91 165.868 206.7C165.868 206.489 165.943 206.309 166.094 206.158C166.244 206.008 166.425 205.933 166.635 205.933C166.845 205.933 167.025 206.008 167.176 206.158C167.326 206.309 167.402 206.489 167.402 206.7C167.402 206.839 167.366 206.967 167.295 207.083C167.227 207.2 167.135 207.293 167.018 207.364C166.905 207.433 166.777 207.467 166.635 207.467ZM169.105 205.609V204.739L172.94 198.671H173.571V200.018H173.145L170.247 204.603V204.671H175.412V205.609H169.105ZM173.213 207.398V205.344V204.94V198.671H174.219V207.398H173.213ZM179.856 207.518C179.356 207.518 178.906 207.418 178.505 207.219C178.104 207.021 177.783 206.748 177.542 206.401C177.301 206.055 177.168 205.66 177.146 205.217H178.168C178.208 205.612 178.387 205.938 178.705 206.197C179.026 206.452 179.41 206.58 179.856 206.58C180.214 206.58 180.532 206.496 180.81 206.329C181.092 206.161 181.312 205.931 181.471 205.638C181.633 205.343 181.714 205.009 181.714 204.637C181.714 204.256 181.63 203.917 181.462 203.619C181.298 203.317 181.07 203.08 180.781 202.907C180.491 202.734 180.16 202.646 179.788 202.643C179.521 202.64 179.247 202.681 178.965 202.766C178.684 202.849 178.453 202.955 178.271 203.086L177.282 202.967L177.81 198.671H182.345V199.609H178.697L178.39 202.183H178.441C178.62 202.04 178.845 201.923 179.114 201.829C179.384 201.735 179.666 201.688 179.958 201.688C180.492 201.688 180.968 201.816 181.386 202.072C181.806 202.325 182.136 202.671 182.374 203.112C182.616 203.552 182.737 204.055 182.737 204.62C182.737 205.177 182.612 205.674 182.362 206.112C182.114 206.546 181.774 206.89 181.339 207.143C180.904 207.393 180.41 207.518 179.856 207.518Z" fill="black"/>
<rect x="80.5" y="204.188" width="42.9876" height="24.2929" rx="12.1464" fill="#595959"/>
<rect x="80.5" y="204.188" width="42.9876" height="24.2929" rx="12.1464" stroke="#595959"/>
<path d="M93.9657 212.107V220.834H92.9089V213.215H92.8578L90.7271 214.629V213.556L92.9089 212.107H93.9657ZM96.83 220.902C96.6198 220.902 96.4394 220.827 96.2889 220.676C96.1383 220.526 96.063 220.345 96.063 220.135C96.063 219.925 96.1383 219.744 96.2889 219.594C96.4394 219.443 96.6198 219.368 96.83 219.368C97.0403 219.368 97.2207 219.443 97.3712 219.594C97.5218 219.744 97.5971 219.925 97.5971 220.135C97.5971 220.274 97.5616 220.402 97.4906 220.519C97.4224 220.635 97.33 220.729 97.2136 220.8C97.0999 220.868 96.9721 220.902 96.83 220.902ZM102.098 220.953C101.74 220.948 101.382 220.879 101.024 220.749C100.666 220.618 100.339 220.398 100.044 220.088C99.7483 219.776 99.5111 219.354 99.3322 218.823C99.1532 218.289 99.0637 217.618 99.0637 216.811C99.0637 216.039 99.1361 215.354 99.281 214.757C99.4259 214.158 99.6361 213.654 99.9117 213.244C100.187 212.833 100.52 212.52 100.909 212.307C101.301 212.094 101.743 211.987 102.234 211.987C102.723 211.987 103.157 212.085 103.538 212.281C103.922 212.475 104.234 212.744 104.476 213.091C104.717 213.438 104.873 213.837 104.944 214.289H103.905C103.808 213.896 103.621 213.571 103.342 213.313C103.064 213.054 102.694 212.925 102.234 212.925C101.558 212.925 101.025 213.219 100.636 213.807C100.25 214.395 100.055 215.22 100.052 216.283H100.121C100.28 216.041 100.469 215.835 100.687 215.665C100.909 215.492 101.153 215.358 101.42 215.264C101.687 215.171 101.97 215.124 102.268 215.124C102.768 215.124 103.226 215.249 103.64 215.499C104.055 215.746 104.388 216.088 104.638 216.526C104.888 216.96 105.013 217.459 105.013 218.021C105.013 218.561 104.892 219.056 104.65 219.504C104.409 219.95 104.069 220.306 103.632 220.57C103.197 220.831 102.686 220.959 102.098 220.953ZM102.098 220.016C102.456 220.016 102.777 219.926 103.061 219.747C103.348 219.568 103.574 219.328 103.738 219.027C103.906 218.726 103.99 218.391 103.99 218.021C103.99 217.661 103.909 217.333 103.747 217.037C103.588 216.739 103.368 216.502 103.086 216.325C102.808 216.149 102.49 216.061 102.132 216.061C101.862 216.061 101.611 216.115 101.378 216.223C101.145 216.328 100.94 216.473 100.764 216.658C100.591 216.843 100.454 217.054 100.355 217.293C100.255 217.529 100.206 217.777 100.206 218.039C100.206 218.385 100.287 218.709 100.449 219.01C100.613 219.311 100.838 219.554 101.122 219.739C101.409 219.923 101.734 220.016 102.098 220.016ZM109.655 220.953C109.013 220.953 108.466 220.779 108.014 220.429C107.563 220.077 107.217 219.567 106.979 218.899C106.74 218.229 106.621 217.419 106.621 216.47C106.621 215.527 106.74 214.722 106.979 214.054C107.22 213.384 107.567 212.872 108.019 212.52C108.473 212.165 109.019 211.987 109.655 211.987C110.291 211.987 110.835 212.165 111.287 212.52C111.742 212.872 112.088 213.384 112.327 214.054C112.568 214.722 112.689 215.527 112.689 216.47C112.689 217.419 112.57 218.229 112.331 218.899C112.092 219.567 111.747 220.077 111.296 220.429C110.844 220.779 110.297 220.953 109.655 220.953ZM109.655 220.016C110.291 220.016 110.786 219.709 111.138 219.095C111.49 218.482 111.666 217.607 111.666 216.47C111.666 215.715 111.585 215.071 111.423 214.54C111.264 214.009 111.034 213.604 110.733 213.325C110.435 213.047 110.075 212.908 109.655 212.908C109.024 212.908 108.531 213.219 108.176 213.841C107.821 214.46 107.644 215.337 107.644 216.47C107.644 217.226 107.723 217.868 107.882 218.396C108.041 218.925 108.27 219.327 108.568 219.602C108.869 219.878 109.232 220.016 109.655 220.016Z" fill="white"/>
<rect x="211.816" y="158.865" width="40.7882" height="24.2929" rx="12.1464" fill="white"/>
<rect x="211.816" y="158.865" width="40.7882" height="24.2929" rx="12.1464" stroke="#E0E1E0"/>
<path d="M225.183 166.784V175.512H224.126V167.892H224.075L221.944 169.307V168.233L224.126 166.784H225.183ZM228.047 175.58C227.837 175.58 227.656 175.505 227.506 175.354C227.355 175.203 227.28 175.023 227.28 174.813C227.28 174.603 227.355 174.422 227.506 174.272C227.656 174.121 227.837 174.046 228.047 174.046C228.257 174.046 228.437 174.121 228.588 174.272C228.739 174.422 228.814 174.603 228.814 174.813C228.814 174.952 228.778 175.08 228.707 175.196C228.639 175.313 228.547 175.407 228.43 175.478C228.317 175.546 228.189 175.58 228.047 175.58ZM233.247 175.631C232.662 175.631 232.145 175.527 231.696 175.32C231.25 175.11 230.902 174.821 230.652 174.455C230.402 174.086 230.279 173.665 230.282 173.194C230.279 172.824 230.351 172.483 230.499 172.171C230.647 171.855 230.848 171.593 231.104 171.382C231.363 171.169 231.651 171.034 231.969 170.978V170.926C231.551 170.819 231.219 170.584 230.972 170.223C230.725 169.86 230.603 169.446 230.605 168.983C230.603 168.54 230.715 168.144 230.942 167.794C231.169 167.445 231.482 167.169 231.88 166.968C232.28 166.766 232.736 166.665 233.247 166.665C233.753 166.665 234.205 166.766 234.603 166.968C235 167.169 235.313 167.445 235.54 167.794C235.77 168.144 235.887 168.54 235.89 168.983C235.887 169.446 235.76 169.86 235.51 170.223C235.263 170.584 234.935 170.819 234.526 170.926V170.978C234.841 171.034 235.125 171.169 235.378 171.382C235.631 171.593 235.833 171.855 235.983 172.171C236.134 172.483 236.211 172.824 236.213 173.194C236.211 173.665 236.083 174.086 235.83 174.455C235.58 174.821 235.232 175.11 234.786 175.32C234.343 175.527 233.83 175.631 233.247 175.631ZM233.247 174.694C233.642 174.694 233.983 174.63 234.27 174.502C234.557 174.374 234.779 174.194 234.935 173.961C235.091 173.728 235.171 173.455 235.174 173.142C235.171 172.813 235.086 172.522 234.918 172.269C234.75 172.016 234.522 171.817 234.232 171.672C233.945 171.527 233.617 171.455 233.247 171.455C232.875 171.455 232.543 171.527 232.25 171.672C231.961 171.817 231.732 172.016 231.564 172.269C231.399 172.522 231.318 172.813 231.321 173.142C231.318 173.455 231.394 173.728 231.547 173.961C231.703 174.194 231.926 174.374 232.216 174.502C232.506 174.63 232.85 174.694 233.247 174.694ZM233.247 170.551C233.56 170.551 233.837 170.489 234.078 170.364C234.323 170.239 234.515 170.064 234.654 169.84C234.793 169.615 234.864 169.353 234.867 169.051C234.864 168.756 234.794 168.499 234.658 168.28C234.522 168.059 234.333 167.888 234.091 167.769C233.85 167.647 233.568 167.586 233.247 167.586C232.921 167.586 232.635 167.647 232.391 167.769C232.147 167.888 231.958 168.059 231.824 168.28C231.691 168.499 231.625 168.756 231.628 169.051C231.625 169.353 231.692 169.615 231.828 169.84C231.968 170.064 232.159 170.239 232.404 170.364C232.648 170.489 232.929 170.551 233.247 170.551ZM241.035 166.784V175.512H239.978V167.892H239.927L237.796 169.307V168.233L239.978 166.784H241.035Z" fill="black"/>
<rect x="350.232" y="179.76" width="42.9876" height="24.2929" rx="12.1464" fill="white"/>
<rect x="350.232" y="179.76" width="42.9876" height="24.2929" rx="12.1464" stroke="#E0E1E0"/>
<path d="M363.698 187.679V196.406H362.641V188.787H362.59L360.46 190.202V189.128L362.641 187.679H363.698ZM366.562 196.474C366.352 196.474 366.172 196.399 366.021 196.249C365.871 196.098 365.795 195.918 365.795 195.707C365.795 195.497 365.871 195.317 366.021 195.166C366.172 195.016 366.352 194.94 366.562 194.94C366.773 194.94 366.953 195.016 367.104 195.166C367.254 195.317 367.33 195.497 367.33 195.707C367.33 195.847 367.294 195.974 367.223 196.091C367.155 196.207 367.062 196.301 366.946 196.372C366.832 196.44 366.705 196.474 366.562 196.474ZM371.83 196.526C371.472 196.52 371.114 196.452 370.756 196.321C370.398 196.19 370.072 195.97 369.776 195.661C369.481 195.348 369.244 194.926 369.065 194.395C368.886 193.861 368.796 193.19 368.796 192.384C368.796 191.611 368.869 190.926 369.013 190.33C369.158 189.73 369.369 189.226 369.644 188.817C369.92 188.405 370.252 188.092 370.641 187.879C371.033 187.666 371.475 187.56 371.967 187.56C372.455 187.56 372.89 187.658 373.271 187.854C373.654 188.047 373.967 188.317 374.208 188.663C374.45 189.01 374.606 189.409 374.677 189.861H373.637C373.54 189.469 373.353 189.143 373.075 188.885C372.796 188.626 372.427 188.497 371.967 188.497C371.29 188.497 370.758 188.791 370.369 189.379C369.982 189.967 369.788 190.793 369.785 191.855H369.853C370.012 191.614 370.201 191.408 370.42 191.237C370.641 191.064 370.886 190.93 371.153 190.837C371.42 190.743 371.702 190.696 372.001 190.696C372.501 190.696 372.958 190.821 373.373 191.071C373.788 191.318 374.12 191.661 374.37 192.098C374.62 192.533 374.745 193.031 374.745 193.594C374.745 194.134 374.624 194.628 374.383 195.077C374.141 195.523 373.802 195.878 373.364 196.142C372.93 196.403 372.418 196.531 371.83 196.526ZM371.83 195.588C372.188 195.588 372.509 195.499 372.793 195.32C373.08 195.141 373.306 194.901 373.471 194.599C373.638 194.298 373.722 193.963 373.722 193.594C373.722 193.233 373.641 192.905 373.479 192.609C373.32 192.311 373.1 192.074 372.819 191.898C372.54 191.722 372.222 191.634 371.864 191.634C371.594 191.634 371.343 191.687 371.11 191.795C370.877 191.901 370.673 192.045 370.496 192.23C370.323 192.415 370.187 192.626 370.087 192.865C369.988 193.101 369.938 193.349 369.938 193.611C369.938 193.957 370.019 194.281 370.181 194.582C370.346 194.884 370.57 195.126 370.854 195.311C371.141 195.496 371.467 195.588 371.83 195.588ZM379.268 196.526C378.768 196.526 378.318 196.426 377.917 196.227C377.517 196.028 377.196 195.756 376.954 195.409C376.713 195.062 376.581 194.668 376.558 194.224H377.581C377.62 194.619 377.799 194.946 378.117 195.205C378.438 195.46 378.822 195.588 379.268 195.588C379.626 195.588 379.944 195.504 380.223 195.337C380.504 195.169 380.724 194.939 380.883 194.646C381.045 194.351 381.126 194.017 381.126 193.645C381.126 193.264 381.042 192.925 380.875 192.626C380.71 192.325 380.483 192.088 380.193 191.915C379.903 191.741 379.572 191.653 379.2 191.651C378.933 191.648 378.659 191.689 378.377 191.774C378.096 191.857 377.865 191.963 377.683 192.094L376.694 191.974L377.223 187.679H381.757V188.616H378.109L377.802 191.19H377.853C378.032 191.048 378.257 190.93 378.527 190.837C378.796 190.743 379.078 190.696 379.37 190.696C379.904 190.696 380.38 190.824 380.798 191.08C381.218 191.332 381.548 191.679 381.786 192.119C382.028 192.56 382.149 193.062 382.149 193.628C382.149 194.185 382.024 194.682 381.774 195.119C381.527 195.554 381.186 195.898 380.751 196.151C380.316 196.401 379.822 196.526 379.268 196.526Z" fill="black"/>
<path d="M189.392 316.591V244.277C189.392 234.407 181.51 226.416 171.797 226.416C162.085 226.416 154.202 234.407 154.202 244.277V316.591H189.392Z" fill="url(#paint0_linear_1692_5638)"/>
<path d="M250.906 316.593V210.271C250.906 200.356 242.777 192.328 232.761 192.328C222.734 192.328 214.616 200.367 214.616 210.271V316.593H250.906Z" fill="url(#paint1_linear_1692_5638)"/>
<path d="M320.663 316.593V238.781C320.663 228.911 312.534 220.92 302.518 220.92C292.491 220.92 284.373 228.922 284.373 238.781V316.593H320.663Z" fill="url(#paint2_linear_1692_5638)"/>
<path d="M390.423 316.59V232.96C390.423 222.051 382.294 213.219 372.278 213.219C362.251 213.219 354.133 222.063 354.133 232.96V316.59H390.423Z" fill="url(#paint3_linear_1692_5638)"/>
</g>
<defs>
<filter id="filter0_d_1692_5638" x="0" y="0" width="494" height="433.965" filterUnits="userSpaceOnUse" color-interpolation-filters="sRGB">
<feFlood flood-opacity="0" result="BackgroundImageFix"/>
<feColorMatrix in="SourceAlpha" type="matrix" values="0 0 0 0 0 0 0 0 0 0 0 0 0 0 0 0 0 0 127 0" result="hardAlpha"/>
<feOffset dy="4"/>
<feGaussianBlur stdDeviation="30"/>
<feComposite in2="hardAlpha" operator="out"/>
<feColorMatrix type="matrix" values="0 0 0 0 0 0 0 0 0 0 0 0 0 0 0 0 0 0 0.22 0"/>
<feBlend mode="normal" in2="BackgroundImageFix" result="effect1_dropShadow_1692_5638"/>
<feBlend mode="normal" in="SourceGraphic" in2="effect1_dropShadow_1692_5638" result="shape"/>
</filter>
<linearGradient id="paint0_linear_1692_5638" x1="163.943" y1="223.308" x2="163.931" y2="316.827" gradientUnits="userSpaceOnUse">
<stop offset="0.0673077" stop-color="#3AE28E"/>
<stop offset="1" stop-color="#00D6E1"/>
</linearGradient>
<linearGradient id="paint1_linear_1692_5638" x1="224.661" y1="188.045" x2="224.64" y2="316.918" gradientUnits="userSpaceOnUse">
<stop offset="0.0673077" stop-color="#3AE28E"/>
<stop offset="1" stop-color="#00D6E1"/>
</linearGradient>
<linearGradient id="paint2_linear_1692_5638" x1="294.418" y1="217.622" x2="294.406" y2="316.843" gradientUnits="userSpaceOnUse">
<stop offset="0.0673077" stop-color="#3AE28E"/>
<stop offset="1" stop-color="#00D6E1"/>
</linearGradient>
<linearGradient id="paint3_linear_1692_5638" x1="364.178" y1="209.656" x2="364.163" y2="316.86" gradientUnits="userSpaceOnUse">
<stop offset="0.0673077" stop-color="#3AE28E"/>
<stop offset="1" stop-color="#00D6E1"/>
</linearGradient>
</defs>
</svg>
