<svg style="transform: rotate(180deg);" width="580" height="510" viewBox="0 0 580 510" fill="none" xmlns="http://www.w3.org/2000/svg">
<g clip-path="url(#clip0_1878_1554)">
<path d="M0.808594 509.405L290.178 0.953125L494.145 359.275H328.74L290.103 291.586L165.706 509.405H0.808594Z" stroke="#C2C6D8" stroke-miterlimit="10"/>
<path d="M8.90918 504.686L290.179 10.4688L486.046 354.556H331.469L290.104 282.091L162.978 504.686H8.90918Z" stroke="#C2C6D8" stroke-miterlimit="10"/>
<path d="M17.0186 499.966L290.179 19.9824L477.946 349.835H334.197L290.104 272.594L160.25 499.966H17.0186Z" stroke="#C2C6D8" stroke-miterlimit="10"/>
<path d="M25.1182 495.247L290.178 29.5078L469.836 345.117H336.925L290.103 263.109L157.531 495.247H25.1182Z" stroke="#C2C6D8" stroke-miterlimit="10"/>
<path d="M33.2188 490.527L290.179 39.0215L461.737 340.396H339.654L290.104 253.612L154.803 490.527H33.2188Z" stroke="#C2C6D8" stroke-miterlimit="10"/>
<path d="M41.3184 485.808L290.179 48.5371L453.627 335.678H342.382L290.103 244.117L152.075 485.808H41.3184Z" stroke="#C2C6D8" stroke-miterlimit="10"/>
<path d="M49.4277 481.087L290.179 58.0508L445.527 330.957H345.1L290.103 234.62L149.346 481.087H49.4277Z" stroke="#C2C6D8" stroke-miterlimit="10"/>
<path d="M57.5273 476.369L290.178 67.5762L437.427 326.239H347.828L290.112 225.126L146.627 476.369H57.5273Z" stroke="#C2C6D8" stroke-miterlimit="10"/>
<path d="M65.6279 471.648L290.179 77.0898L429.318 321.518H350.557L290.113 215.638L143.9 471.648H65.6279Z" stroke="#C2C6D8" stroke-miterlimit="10"/>
<path d="M73.7373 466.93L290.179 86.6055L421.218 316.799H353.285L290.113 206.144L141.171 466.93H73.7373Z" stroke="#C2C6D8" stroke-miterlimit="10"/>
<path d="M81.8369 462.209L290.179 96.1191L413.118 312.079H356.013L290.113 196.647L138.443 462.209H81.8369Z" stroke="#C2C6D8" stroke-miterlimit="10"/>
<path d="M89.9375 457.489L290.179 105.643L405.009 307.358H358.733L290.113 187.15L135.725 457.489H89.9375Z" stroke="#C2C6D8" stroke-miterlimit="10"/>
<path d="M98.0371 452.77L290.179 115.158L396.909 302.64H361.461L290.113 177.655L132.996 452.77H98.0371Z" stroke="#C2C6D8" stroke-miterlimit="10"/>
<path d="M106.146 448.051L290.179 124.674L388.799 297.921H364.189L290.113 168.16L130.268 448.051H106.146Z" stroke="#C2C6D8" stroke-miterlimit="10"/>
<path d="M115.188 443.332L290.179 136.076L379.759 293.201H367.858L290.113 157.73L127.54 443.332H115.188Z" stroke="#C2C6D8" stroke-miterlimit="10"/>
<path d="M271.571 385.346H507.242L579.182 509.018L200.882 509.528L271.571 385.346Z" stroke="#C2C6D8" stroke-miterlimit="10"/>
<path d="M274.299 390.066H504.542L570.997 504.319L208.991 504.8L274.299 390.066Z" stroke="#C2C6D8" stroke-miterlimit="10"/>
<path d="M277.027 394.785H501.842L562.803 499.607L217.101 500.07L277.027 394.785Z" stroke="#C2C6D8" stroke-miterlimit="10"/>
<path d="M279.765 399.504H499.132L554.619 494.896L225.21 495.331L279.765 399.504Z" stroke="#C2C6D8" stroke-miterlimit="10"/>
<path d="M282.493 404.225H496.432L546.434 490.187L233.319 490.603L282.493 404.225Z" stroke="#C2C6D8" stroke-miterlimit="10"/>
<path d="M285.221 408.943H493.732L538.249 485.476L241.429 485.873L285.221 408.943Z" stroke="#C2C6D8" stroke-miterlimit="10"/>
<path d="M287.949 413.664H491.032L530.065 480.767L249.538 481.145L287.949 413.664Z" stroke="#C2C6D8" stroke-miterlimit="10"/>
<path d="M290.687 418.383H488.332L521.88 476.066L257.647 476.415L290.687 418.383Z" stroke="#C2C6D8" stroke-miterlimit="10"/>
<path d="M293.415 423.104H485.632L513.695 471.357L265.757 471.687L293.415 423.104Z" stroke="#C2C6D8" stroke-miterlimit="10"/>
<path d="M296.144 427.822H482.932L505.511 466.646L273.866 466.957L296.144 427.822Z" stroke="#C2C6D8" stroke-miterlimit="10"/>
<path d="M298.872 432.541H480.232L497.326 461.935L281.976 462.218L298.872 432.541Z" stroke="#C2C6D8" stroke-miterlimit="10"/>
<path d="M301.609 437.262H477.532L489.141 457.226L290.085 457.49L301.609 437.262Z" stroke="#C2C6D8" stroke-miterlimit="10"/>
<path d="M304.338 441.98H474.823L480.957 452.515L298.194 452.76L304.338 441.98Z" stroke="#C2C6D8" stroke-miterlimit="10"/>
<path d="M123.983 438.366L290.329 147.346L371.188 288.934" stroke="#C2C6D8" stroke-miterlimit="10"/>
<path d="M305.711 447.625H472.659" stroke="#E4E7F5" stroke-miterlimit="10"/>
</g>
<defs>
<clipPath id="clip0_1878_1554">
<rect width="580" height="510" fill="white"/>
</clipPath>
</defs>
</svg>
