<svg width="501" height="440" viewBox="0 0 501 440" fill="none" xmlns="http://www.w3.org/2000/svg">
<g clip-path="url(#clip0_2105_1135)">
<path d="M499.694 0.51327L250.042 439.178L74.0699 130.038L216.772 130.038L250.106 188.436L357.43 0.513283L499.694 0.51327Z" stroke="#C2C6D8" stroke-miterlimit="10"/>
<path d="M492.706 4.58485L250.042 430.969L81.0585 134.109L214.419 134.109L250.107 196.628L359.784 4.58487L492.706 4.58485Z" stroke="#C2C6D8" stroke-miterlimit="10"/>
<path d="M485.709 8.65654L250.042 422.76L88.0465 138.181L212.065 138.181L250.107 204.82L362.137 8.65655L485.709 8.65654Z" stroke="#C2C6D8" stroke-miterlimit="10"/>
<path d="M478.721 12.7284L250.042 414.543L95.0428 142.253L209.711 142.253L250.107 213.005L364.483 12.7284L478.721 12.7284Z" stroke="#C2C6D8" stroke-miterlimit="10"/>
<path d="M471.733 16.8L250.042 406.334L102.031 146.324L207.357 146.324L250.107 221.197L366.837 16.8L471.733 16.8Z" stroke="#C2C6D8" stroke-miterlimit="10"/>
<path d="M464.745 20.8716L250.042 398.125L109.028 150.396L205.004 150.396L250.107 229.389L369.191 20.8716L464.745 20.8716Z" stroke="#C2C6D8" stroke-miterlimit="10"/>
<path d="M457.749 24.9432L250.042 389.916L116.016 154.468L202.658 154.468L250.107 237.581L371.544 24.9432L457.749 24.9432Z" stroke="#C2C6D8" stroke-miterlimit="10"/>
<path d="M450.76 29.0151L250.042 381.699L123.004 158.54L200.304 158.54L250.099 245.774L373.89 29.0151L450.76 29.0151Z" stroke="#C2C6D8" stroke-miterlimit="10"/>
<path d="M443.772 33.0867L250.042 373.49L130 162.611L197.951 162.611L250.098 253.958L376.244 33.0867L443.772 33.0867Z" stroke="#C2C6D8" stroke-miterlimit="10"/>
<path d="M436.776 37.1602L250.042 365.283L136.989 166.685L195.597 166.685L250.099 262.152L378.598 37.1602L436.776 37.1602Z" stroke="#C2C6D8" stroke-miterlimit="10"/>
<path d="M429.788 41.2318L250.042 357.074L143.977 170.756L193.243 170.756L250.099 270.345L380.951 41.2318L429.788 41.2318Z" stroke="#C2C6D8" stroke-miterlimit="10"/>
<path d="M422.799 45.3038L250.042 348.857L150.973 174.828L190.898 174.828L250.099 278.537L383.297 45.3038L422.799 45.3038Z" stroke="#C2C6D8" stroke-miterlimit="10"/>
<path d="M415.811 49.3754L250.042 340.648L157.961 178.9L188.544 178.9L250.099 286.73L385.65 49.3754L415.811 49.3754Z" stroke="#C2C6D8" stroke-miterlimit="10"/>
<path d="M408.815 53.447L250.042 332.439L164.958 182.971L186.19 182.971L250.099 294.922L388.004 53.447L408.815 53.447Z" stroke="#C2C6D8" stroke-miterlimit="10"/>
<path d="M401.015 57.5184L250.042 322.602L172.758 187.043L183.025 187.043L250.099 303.92L390.358 57.5184L401.015 57.5184Z" stroke="#C2C6D8" stroke-miterlimit="10"/>
<path d="M266.096 107.545L62.772 107.545L0.705851 0.847172L327.083 0.407406L266.096 107.545Z" stroke="#C2C6D8" stroke-miterlimit="10"/>
<path d="M263.742 103.473L65.1017 103.473L7.76741 4.90222L320.086 4.48691L263.742 103.473Z" stroke="#C2C6D8" stroke-miterlimit="10"/>
<path d="M261.388 99.4004L67.4309 99.4004L14.8366 8.96547L313.09 8.56637L261.388 99.4004Z" stroke="#C2C6D8" stroke-miterlimit="10"/>
<path d="M259.027 95.3301L69.7686 95.3301L21.8981 13.0306L306.094 12.656L259.027 95.3301Z" stroke="#C2C6D8" stroke-miterlimit="10"/>
<path d="M256.673 91.2578L72.0978 91.2578L28.9591 17.0938L299.097 16.7355L256.673 91.2578Z" stroke="#C2C6D8" stroke-miterlimit="10"/>
<path d="M254.319 87.1856L74.4274 87.1856L36.0206 21.157L292.101 20.815L254.319 87.1856Z" stroke="#C2C6D8" stroke-miterlimit="10"/>
<path d="M251.965 83.1133L76.7566 83.1133L43.0816 25.2203L285.104 24.8945L251.965 83.1133Z" stroke="#C2C6D8" stroke-miterlimit="10"/>
<path d="M249.604 79.043L79.0862 79.043L50.1431 29.2773L278.108 28.976L249.604 79.043Z" stroke="#C2C6D8" stroke-miterlimit="10"/>
<path d="M247.25 74.9707L81.4158 74.9707L57.2046 33.3405L271.112 33.0555L247.25 74.9707Z" stroke="#C2C6D8" stroke-miterlimit="10"/>
<path d="M244.896 70.8984L83.7445 70.8985L64.2651 37.4037L264.115 37.135L244.896 70.8984Z" stroke="#C2C6D8" stroke-miterlimit="10"/>
<path d="M242.542 66.8262L86.0742 66.8262L71.3267 41.4669L257.119 41.2226L242.542 66.8262Z" stroke="#C2C6D8" stroke-miterlimit="10"/>
<path d="M240.18 62.7539L88.4038 62.7539L78.3882 45.5301L250.123 45.3021L240.18 62.7539Z" stroke="#C2C6D8" stroke-miterlimit="10"/>
<path d="M237.827 58.6836L90.7416 58.6836L85.4497 49.5953L243.127 49.3836L237.827 58.6836Z" stroke="#C2C6D8" stroke-miterlimit="10"/>
<path d="M393.426 61.8028L249.912 312.879L180.152 190.725" stroke="#C2C6D8" stroke-miterlimit="10"/>
<path d="M236.642 53.8125L92.608 53.8125" stroke="#C2C6D8" stroke-miterlimit="10"/>
</g>
<defs>
<clipPath id="clip0_2105_1135">
<rect width="500.392" height="440" fill="white" transform="translate(500.392 440) rotate(180)"/>
</clipPath>
</defs>
</svg>
