<svg width="321" height="166" viewBox="0 0 321 166" fill="none" xmlns="http://www.w3.org/2000/svg">
<g opacity="0.8" filter="url(#filter0_d_1957_1903)">
<rect x="50" y="46" width="220.683" height="66" rx="16" fill="white" shape-rendering="crispEdges"/>
<path d="M65 79C65 69.0589 73.0589 61 83 61C92.9411 61 101 69.0589 101 79C101 88.9411 92.9411 97 83 97C73.0589 97 65 88.9411 65 79Z" fill="#FF5C52"/>
<path d="M73 83.5V74.5H76.0581C76.646 74.5 77.1469 74.6304 77.5607 74.8911C77.9745 75.1489 78.2899 75.5078 78.5069 75.9678C78.7264 76.4248 78.8361 76.9521 78.8361 77.5498C78.8361 78.1475 78.7251 78.6748 78.5031 79.1318C78.281 79.5889 77.9593 79.9448 77.538 80.1997C77.1191 80.4546 76.6119 80.582 76.0165 80.582H74.0673V79.0571H75.7515C76.0669 79.0571 76.3268 78.9941 76.5312 78.8682C76.7381 78.7393 76.892 78.562 76.9929 78.3364C77.0964 78.1079 77.1481 77.8457 77.1481 77.5498C77.1481 77.251 77.0964 76.9902 76.9929 76.7676C76.892 76.542 76.7381 76.3677 76.5312 76.2446C76.3243 76.1187 76.0619 76.0557 75.744 76.0557H74.6388V83.5H73Z" fill="white"/>
<path d="M82.7549 83.5H80.0072V74.5H82.7776C83.5573 74.5 84.2285 74.6802 84.7911 75.0405C85.3538 75.3979 85.7865 75.9121 86.0893 76.583C86.3946 77.2539 86.5473 78.0566 86.5473 78.9912C86.5473 79.9287 86.3946 80.7344 86.0893 81.4082C85.7865 82.082 85.3513 82.5991 84.7836 82.9595C84.2184 83.3198 83.5422 83.5 82.7549 83.5ZM81.646 81.8696H82.6868C83.1713 81.8696 83.5788 81.77 83.9093 81.5708C84.2424 81.3687 84.4922 81.0566 84.6587 80.6348C84.8277 80.21 84.9123 79.6621 84.9123 78.9912C84.9123 78.3262 84.8277 77.7827 84.6587 77.3608C84.4922 76.939 84.2436 76.6284 83.9131 76.4292C83.5825 76.23 83.175 76.1304 82.6906 76.1304H81.646V81.8696Z" fill="white"/>
<path d="M87.8678 83.5V74.5H93V76.0688H89.5066V78.2134H92.6594V79.7822H89.5066V83.5H87.8678Z" fill="white"/>
<path d="M119.692 73.144C118.884 73.144 118.168 72.96 117.544 72.592C116.92 72.224 116.432 71.712 116.08 71.056C115.728 70.4 115.552 69.648 115.552 68.8C115.552 67.944 115.724 67.192 116.068 66.544C116.42 65.888 116.904 65.376 117.52 65.008C118.136 64.64 118.848 64.456 119.656 64.456C120.464 64.456 121.176 64.644 121.792 65.02C122.416 65.388 122.9 65.9 123.244 66.556C123.588 67.204 123.76 67.952 123.76 68.8C123.76 69.648 123.588 70.4 123.244 71.056C122.9 71.712 122.42 72.224 121.804 72.592C121.196 72.96 120.492 73.144 119.692 73.144ZM119.692 72.22C120.292 72.22 120.82 72.076 121.276 71.788C121.732 71.492 122.088 71.088 122.344 70.576C122.608 70.064 122.74 69.472 122.74 68.8C122.74 68.136 122.608 67.548 122.344 67.036C122.08 66.516 121.716 66.112 121.252 65.824C120.796 65.528 120.264 65.38 119.656 65.38C119.056 65.38 118.524 65.528 118.06 65.824C117.596 66.112 117.232 66.516 116.968 67.036C116.704 67.548 116.572 68.136 116.572 68.8C116.572 69.472 116.704 70.064 116.968 70.576C117.232 71.088 117.6 71.492 118.072 71.788C118.544 72.076 119.084 72.22 119.692 72.22ZM126.006 73V66.316C126.006 65.692 126.15 65.224 126.438 64.912C126.734 64.592 127.182 64.432 127.782 64.432C127.942 64.432 128.122 64.46 128.322 64.516C128.522 64.572 128.734 64.652 128.958 64.756L128.598 65.512C128.414 65.44 128.258 65.384 128.13 65.344C128.002 65.304 127.894 65.284 127.806 65.284C127.526 65.284 127.314 65.376 127.17 65.56C127.034 65.736 126.966 66.012 126.966 66.388V73H126.006ZM124.902 67.828V67H128.706V67.828H124.902ZM130.686 73V66.316C130.686 65.692 130.83 65.224 131.118 64.912C131.414 64.592 131.862 64.432 132.462 64.432C132.622 64.432 132.802 64.46 133.002 64.516C133.202 64.572 133.414 64.652 133.638 64.756L133.278 65.512C133.094 65.44 132.938 65.384 132.81 65.344C132.682 65.304 132.574 65.284 132.486 65.284C132.206 65.284 131.994 65.376 131.85 65.56C131.714 65.736 131.646 66.012 131.646 66.388V73H130.686ZM129.582 67.828V67H133.386V67.828H129.582ZM137.359 73.144C136.775 73.144 136.259 73.012 135.811 72.748C135.363 72.476 135.011 72.104 134.755 71.632C134.507 71.16 134.383 70.616 134.383 70C134.383 69.384 134.507 68.84 134.755 68.368C135.011 67.896 135.359 67.528 135.799 67.264C136.247 66.992 136.759 66.856 137.335 66.856C137.895 66.856 138.379 66.996 138.787 67.276C139.195 67.548 139.511 67.932 139.735 68.428C139.959 68.924 140.071 69.508 140.071 70.18H135.115L135.355 69.976C135.355 70.456 135.439 70.868 135.607 71.212C135.783 71.556 136.027 71.82 136.339 72.004C136.651 72.18 137.007 72.268 137.407 72.268C137.831 72.268 138.187 72.168 138.475 71.968C138.771 71.768 138.999 71.504 139.159 71.176L139.987 71.596C139.835 71.908 139.631 72.18 139.375 72.412C139.127 72.644 138.831 72.824 138.487 72.952C138.151 73.08 137.775 73.144 137.359 73.144ZM135.415 69.568L135.163 69.376H139.303L139.051 69.58C139.051 69.196 138.975 68.864 138.823 68.584C138.671 68.304 138.467 68.088 138.211 67.936C137.955 67.784 137.659 67.708 137.323 67.708C136.995 67.708 136.683 67.784 136.387 67.936C136.099 68.088 135.863 68.304 135.679 68.584C135.503 68.856 135.415 69.184 135.415 69.568ZM142.059 69.748C142.059 69.1 142.183 68.576 142.431 68.176C142.679 67.768 142.995 67.468 143.379 67.276C143.771 67.076 144.183 66.976 144.615 66.976V67.876C144.263 67.876 143.923 67.936 143.595 68.056C143.275 68.168 143.011 68.356 142.803 68.62C142.595 68.884 142.491 69.244 142.491 69.7L142.059 69.748ZM141.531 73V67H142.491V73H141.531ZM152.051 73.144C151.411 73.144 150.843 72.96 150.347 72.592C149.851 72.216 149.463 71.704 149.183 71.056C148.903 70.4 148.763 69.648 148.763 68.8C148.763 67.952 148.903 67.204 149.183 66.556C149.463 65.9 149.847 65.388 150.335 65.02C150.831 64.644 151.403 64.456 152.051 64.456C152.699 64.456 153.267 64.644 153.755 65.02C154.251 65.388 154.639 65.9 154.919 66.556C155.207 67.204 155.351 67.952 155.351 68.8C155.351 69.648 155.211 70.4 154.931 71.056C154.651 71.704 154.263 72.216 153.767 72.592C153.271 72.96 152.699 73.144 152.051 73.144ZM152.051 72.232C152.499 72.232 152.895 72.084 153.239 71.788C153.591 71.492 153.863 71.088 154.055 70.576C154.255 70.064 154.355 69.472 154.355 68.8C154.355 68.128 154.255 67.536 154.055 67.024C153.863 66.504 153.591 66.1 153.239 65.812C152.895 65.516 152.499 65.368 152.051 65.368C151.603 65.368 151.207 65.516 150.863 65.812C150.519 66.1 150.247 66.504 150.047 67.024C149.855 67.536 149.759 68.128 149.759 68.8C149.759 69.472 149.855 70.064 150.047 70.576C150.247 71.088 150.519 71.492 150.863 71.788C151.215 72.084 151.611 72.232 152.051 72.232ZM158.752 73V65.14L158.836 64.6H159.748V73H158.752ZM156.868 66.76V65.836C157.036 65.844 157.236 65.788 157.468 65.668C157.7 65.548 157.94 65.392 158.188 65.2C158.436 65.008 158.652 64.808 158.836 64.6L159.46 65.284C159.196 65.564 158.92 65.816 158.632 66.04C158.344 66.264 158.052 66.444 157.756 66.58C157.46 66.708 157.164 66.768 156.868 66.76ZM165.195 73.144C164.555 73.144 163.987 72.96 163.491 72.592C162.995 72.216 162.607 71.704 162.327 71.056C162.047 70.4 161.907 69.648 161.907 68.8C161.907 67.952 162.047 67.204 162.327 66.556C162.607 65.9 162.991 65.388 163.479 65.02C163.975 64.644 164.547 64.456 165.195 64.456C165.843 64.456 166.411 64.644 166.899 65.02C167.395 65.388 167.783 65.9 168.063 66.556C168.351 67.204 168.495 67.952 168.495 68.8C168.495 69.648 168.355 70.4 168.075 71.056C167.795 71.704 167.407 72.216 166.911 72.592C166.415 72.96 165.843 73.144 165.195 73.144ZM165.195 72.232C165.643 72.232 166.039 72.084 166.383 71.788C166.735 71.492 167.007 71.088 167.199 70.576C167.399 70.064 167.499 69.472 167.499 68.8C167.499 68.128 167.399 67.536 167.199 67.024C167.007 66.504 166.735 66.1 166.383 65.812C166.039 65.516 165.643 65.368 165.195 65.368C164.747 65.368 164.351 65.516 164.007 65.812C163.663 66.1 163.391 66.504 163.191 67.024C162.999 67.536 162.903 68.128 162.903 68.8C162.903 69.472 162.999 70.064 163.191 70.576C163.391 71.088 163.663 71.492 164.007 71.788C164.359 72.084 164.755 72.232 165.195 72.232ZM171.897 73V65.14L171.981 64.6H172.893V73H171.897ZM170.013 66.76V65.836C170.181 65.844 170.381 65.788 170.613 65.668C170.845 65.548 171.085 65.392 171.333 65.2C171.581 65.008 171.797 64.808 171.981 64.6L172.605 65.284C172.341 65.564 172.065 65.816 171.777 66.04C171.489 66.264 171.197 66.444 170.901 66.58C170.605 66.708 170.309 66.768 170.013 66.76ZM178.34 73.144C177.7 73.144 177.132 72.96 176.636 72.592C176.14 72.216 175.752 71.704 175.472 71.056C175.192 70.4 175.052 69.648 175.052 68.8C175.052 67.952 175.192 67.204 175.472 66.556C175.752 65.9 176.136 65.388 176.624 65.02C177.12 64.644 177.692 64.456 178.34 64.456C178.988 64.456 179.556 64.644 180.044 65.02C180.54 65.388 180.928 65.9 181.208 66.556C181.496 67.204 181.64 67.952 181.64 68.8C181.64 69.648 181.5 70.4 181.22 71.056C180.94 71.704 180.552 72.216 180.056 72.592C179.56 72.96 178.988 73.144 178.34 73.144ZM178.34 72.232C178.788 72.232 179.184 72.084 179.528 71.788C179.88 71.492 180.152 71.088 180.344 70.576C180.544 70.064 180.644 69.472 180.644 68.8C180.644 68.128 180.544 67.536 180.344 67.024C180.152 66.504 179.88 66.1 179.528 65.812C179.184 65.516 178.788 65.368 178.34 65.368C177.892 65.368 177.496 65.516 177.152 65.812C176.808 66.1 176.536 66.504 176.336 67.024C176.144 67.536 176.048 68.128 176.048 68.8C176.048 69.472 176.144 70.064 176.336 70.576C176.536 71.088 176.808 71.492 177.152 71.788C177.504 72.084 177.9 72.232 178.34 72.232ZM183.122 73V72.16C183.122 71.896 183.174 71.636 183.278 71.38C183.39 71.116 183.546 70.856 183.746 70.6C183.954 70.344 184.206 70.104 184.502 69.88L186.242 68.572C186.45 68.428 186.63 68.264 186.782 68.08C186.942 67.888 187.066 67.692 187.154 67.492C187.242 67.284 187.286 67.084 187.286 66.892C187.286 66.612 187.218 66.36 187.082 66.136C186.946 65.904 186.754 65.72 186.506 65.584C186.258 65.448 185.966 65.38 185.63 65.38C185.302 65.38 185.014 65.444 184.766 65.572C184.518 65.692 184.314 65.856 184.154 66.064C183.994 66.264 183.878 66.48 183.806 66.712L182.774 66.508C182.87 66.148 183.042 65.812 183.29 65.5C183.546 65.188 183.87 64.936 184.262 64.744C184.654 64.552 185.09 64.456 185.57 64.456C186.13 64.456 186.614 64.564 187.022 64.78C187.43 64.988 187.746 65.276 187.97 65.644C188.202 66.004 188.318 66.416 188.318 66.88C188.318 67.32 188.198 67.736 187.958 68.128C187.718 68.52 187.37 68.9 186.914 69.268L185.27 70.516C184.95 70.756 184.702 71.008 184.526 71.272C184.358 71.536 184.262 71.812 184.238 72.1H188.438V73H183.122Z" fill="#666666"/>
<path d="M121.304 94.192C120.195 94.192 119.213 93.9467 118.36 93.456C117.507 92.9653 116.835 92.2827 116.344 91.408C115.864 90.5333 115.624 89.5307 115.624 88.4C115.624 87.2693 115.864 86.272 116.344 85.408C116.835 84.5333 117.501 83.8507 118.344 83.36C119.187 82.8587 120.157 82.608 121.256 82.608C122.365 82.608 123.341 82.8587 124.184 83.36C125.037 83.8507 125.699 84.5333 126.168 85.408C126.648 86.272 126.888 87.2693 126.888 88.4C126.888 89.5307 126.648 90.5333 126.168 91.408C125.699 92.2827 125.043 92.9653 124.2 93.456C123.368 93.9467 122.403 94.192 121.304 94.192ZM121.304 92.496C122.029 92.496 122.669 92.32 123.224 91.968C123.779 91.616 124.211 91.136 124.52 90.528C124.84 89.9093 125 89.2 125 88.4C125 87.6107 124.84 86.9067 124.52 86.288C124.2 85.6693 123.757 85.1893 123.192 84.848C122.637 84.496 121.992 84.32 121.256 84.32C120.531 84.32 119.885 84.496 119.32 84.848C118.765 85.1893 118.323 85.6693 117.992 86.288C117.672 86.896 117.512 87.6 117.512 88.4C117.512 89.2 117.672 89.9093 117.992 90.528C118.323 91.136 118.771 91.616 119.336 91.968C119.912 92.32 120.568 92.496 121.304 92.496ZM129.323 94V85.152C129.323 84.3093 129.531 83.664 129.947 83.216C130.374 82.7573 131.014 82.528 131.867 82.528C132.145 82.528 132.438 82.576 132.747 82.672C133.067 82.7573 133.371 82.8747 133.659 83.024L133.003 84.352C132.801 84.256 132.619 84.1867 132.459 84.144C132.31 84.1013 132.177 84.08 132.059 84.08C131.739 84.08 131.499 84.1867 131.339 84.4C131.19 84.6027 131.115 84.9387 131.115 85.408V94H129.323ZM127.947 87.472V86H133.211V87.472H127.947ZM135.464 94V85.152C135.464 84.3093 135.672 83.664 136.088 83.216C136.515 82.7573 137.155 82.528 138.008 82.528C138.285 82.528 138.579 82.576 138.888 82.672C139.208 82.7573 139.512 82.8747 139.8 83.024L139.144 84.352C138.941 84.256 138.76 84.1867 138.6 84.144C138.451 84.1013 138.317 84.08 138.2 84.08C137.88 84.08 137.64 84.1867 137.48 84.4C137.331 84.6027 137.256 84.9387 137.256 85.408V94H135.464ZM134.088 87.472V86H139.352V87.472H134.088ZM144.232 94.192C143.453 94.192 142.76 94.016 142.152 93.664C141.555 93.3013 141.08 92.8053 140.728 92.176C140.387 91.5467 140.216 90.8213 140.216 90C140.216 89.1787 140.392 88.4533 140.744 87.824C141.096 87.1947 141.576 86.704 142.184 86.352C142.803 85.9893 143.507 85.808 144.296 85.808C145.011 85.808 145.656 85.9947 146.232 86.368C146.808 86.7307 147.261 87.2587 147.592 87.952C147.933 88.6453 148.104 89.472 148.104 90.432H141.816L142.056 90.208C142.056 90.6987 142.163 91.1253 142.376 91.488C142.589 91.84 142.872 92.112 143.224 92.304C143.576 92.496 143.965 92.592 144.392 92.592C144.883 92.592 145.288 92.4853 145.608 92.272C145.928 92.048 146.179 91.76 146.36 91.408L147.944 92.08C147.72 92.5067 147.432 92.88 147.08 93.2C146.739 93.52 146.328 93.7653 145.848 93.936C145.379 94.1067 144.84 94.192 144.232 94.192ZM142.168 89.28L141.912 89.056H146.424L146.184 89.28C146.184 88.8427 146.088 88.4853 145.896 88.208C145.704 87.92 145.459 87.7067 145.16 87.568C144.872 87.4187 144.568 87.344 144.248 87.344C143.928 87.344 143.608 87.4187 143.288 87.568C142.968 87.7067 142.701 87.92 142.488 88.208C142.275 88.4853 142.168 88.8427 142.168 89.28ZM150.66 89.744C150.66 88.88 150.826 88.1707 151.156 87.616C151.487 87.0613 151.914 86.6507 152.436 86.384C152.97 86.1067 153.524 85.968 154.1 85.968V87.68C153.61 87.68 153.146 87.7493 152.708 87.888C152.282 88.016 151.935 88.2293 151.668 88.528C151.402 88.8267 151.268 89.2213 151.268 89.712L150.66 89.744ZM149.476 94V86H151.268V94H149.476ZM162.892 94.192C162.071 94.192 161.346 94.016 160.716 93.664C160.087 93.3013 159.591 92.8053 159.228 92.176C158.876 91.5467 158.7 90.8213 158.7 90C158.7 89.1787 158.876 88.4533 159.228 87.824C159.591 87.1947 160.082 86.704 160.7 86.352C161.33 85.9893 162.05 85.808 162.86 85.808C163.65 85.808 164.364 86 165.004 86.384C165.644 86.7573 166.119 87.296 166.428 88L164.764 88.64C164.594 88.288 164.332 88.0053 163.98 87.792C163.628 87.5787 163.228 87.472 162.78 87.472C162.343 87.472 161.954 87.584 161.612 87.808C161.271 88.0213 161.004 88.32 160.812 88.704C160.62 89.0773 160.524 89.5093 160.524 90C160.524 90.4907 160.62 90.928 160.812 91.312C161.015 91.6853 161.287 91.984 161.628 92.208C161.98 92.4213 162.375 92.528 162.812 92.528C163.26 92.528 163.66 92.416 164.012 92.192C164.364 91.9573 164.626 91.6427 164.796 91.248L166.46 91.888C166.151 92.6133 165.676 93.1787 165.036 93.584C164.407 93.9893 163.692 94.192 162.892 94.192ZM171.531 94.192C170.731 94.192 170.017 94.016 169.387 93.664C168.769 93.3013 168.283 92.8053 167.931 92.176C167.579 91.5467 167.403 90.8213 167.403 90C167.403 89.1787 167.574 88.4533 167.915 87.824C168.267 87.1947 168.753 86.704 169.371 86.352C169.99 85.9893 170.699 85.808 171.499 85.808C172.299 85.808 173.009 85.9893 173.627 86.352C174.246 86.704 174.726 87.1947 175.067 87.824C175.419 88.4533 175.595 89.1787 175.595 90C175.595 90.8213 175.425 91.5467 175.083 92.176C174.742 92.8053 174.262 93.3013 173.643 93.664C173.025 94.016 172.321 94.192 171.531 94.192ZM171.531 92.544C171.969 92.544 172.358 92.4373 172.699 92.224C173.041 92 173.307 91.7013 173.499 91.328C173.691 90.944 173.787 90.5013 173.787 90C173.787 89.4987 173.686 89.0613 173.483 88.688C173.291 88.304 173.025 88.0053 172.683 87.792C172.342 87.568 171.947 87.456 171.499 87.456C171.051 87.456 170.657 87.5627 170.315 87.776C169.974 87.9893 169.707 88.288 169.515 88.672C169.323 89.056 169.227 89.4987 169.227 90C169.227 90.5013 169.323 90.944 169.515 91.328C169.718 91.7013 169.99 92 170.331 92.224C170.683 92.4373 171.083 92.544 171.531 92.544ZM177.148 94V86H178.828L178.94 87.472V94H177.148ZM182.572 94V89.904H184.364V94H182.572ZM182.572 89.904C182.572 89.264 182.498 88.7733 182.348 88.432C182.21 88.08 182.007 87.8347 181.74 87.696C181.484 87.5573 181.18 87.488 180.828 87.488C180.231 87.4773 179.767 87.6747 179.436 88.08C179.106 88.4853 178.94 89.0667 178.94 89.824H178.268C178.268 88.9813 178.391 88.2613 178.636 87.664C178.882 87.056 179.234 86.5973 179.692 86.288C180.151 85.968 180.695 85.808 181.324 85.808C181.964 85.808 182.508 85.936 182.956 86.192C183.415 86.448 183.762 86.848 183.996 87.392C184.242 87.9253 184.364 88.624 184.364 89.488V89.904H182.572ZM186.98 94V85.152C186.98 84.3093 187.188 83.664 187.604 83.216C188.03 82.7573 188.67 82.528 189.524 82.528C189.801 82.528 190.094 82.576 190.404 82.672C190.724 82.7573 191.028 82.8747 191.316 83.024L190.66 84.352C190.457 84.256 190.276 84.1867 190.116 84.144C189.966 84.1013 189.833 84.08 189.716 84.08C189.396 84.08 189.156 84.1867 188.996 84.4C188.846 84.6027 188.772 84.9387 188.772 85.408V94H186.98ZM185.604 87.472V86H190.868V87.472H185.604ZM192.432 94V86H194.208V94H192.432ZM193.328 84.48C193.04 84.48 192.789 84.3787 192.576 84.176C192.373 83.9627 192.272 83.712 192.272 83.424C192.272 83.136 192.373 82.8907 192.576 82.688C192.789 82.4853 193.04 82.384 193.328 82.384C193.616 82.384 193.861 82.4853 194.064 82.688C194.277 82.8907 194.384 83.136 194.384 83.424C194.384 83.712 194.277 83.9627 194.064 84.176C193.861 84.3787 193.616 84.48 193.328 84.48ZM197.504 89.744C197.504 88.88 197.669 88.1707 198 87.616C198.331 87.0613 198.757 86.6507 199.28 86.384C199.813 86.1067 200.368 85.968 200.944 85.968V87.68C200.453 87.68 199.989 87.7493 199.552 87.888C199.125 88.016 198.779 88.2293 198.512 88.528C198.245 88.8267 198.112 89.2213 198.112 89.712L197.504 89.744ZM196.32 94V86H198.112V94H196.32ZM202.133 94V86H203.813L203.893 87.072C204.138 86.656 204.453 86.3413 204.837 86.128C205.221 85.9147 205.658 85.808 206.149 85.808C206.789 85.808 207.333 85.952 207.781 86.24C208.229 86.528 208.554 86.9653 208.757 87.552C208.991 86.9867 209.322 86.5547 209.749 86.256C210.175 85.9573 210.677 85.808 211.253 85.808C212.181 85.808 212.895 86.1067 213.397 86.704C213.898 87.2907 214.143 88.1973 214.133 89.424V94H212.357V89.904C212.357 89.264 212.287 88.7733 212.149 88.432C212.01 88.08 211.823 87.8347 211.589 87.696C211.354 87.5573 211.082 87.488 210.773 87.488C210.218 87.4773 209.786 87.6747 209.477 88.08C209.178 88.4853 209.029 89.0667 209.029 89.824V94H207.237V89.904C207.237 89.264 207.167 88.7733 207.029 88.432C206.901 88.08 206.719 87.8347 206.485 87.696C206.25 87.5573 205.978 87.488 205.669 87.488C205.114 87.4773 204.682 87.6747 204.373 88.08C204.074 88.4853 203.925 89.0667 203.925 89.824V94H202.133ZM219.529 94.192C218.75 94.192 218.057 94.016 217.449 93.664C216.851 93.3013 216.377 92.8053 216.025 92.176C215.683 91.5467 215.513 90.8213 215.513 90C215.513 89.1787 215.689 88.4533 216.041 87.824C216.393 87.1947 216.873 86.704 217.481 86.352C218.099 85.9893 218.803 85.808 219.593 85.808C220.307 85.808 220.953 85.9947 221.529 86.368C222.105 86.7307 222.558 87.2587 222.889 87.952C223.23 88.6453 223.401 89.472 223.401 90.432H217.113L217.353 90.208C217.353 90.6987 217.459 91.1253 217.673 91.488C217.886 91.84 218.169 92.112 218.521 92.304C218.873 92.496 219.262 92.592 219.689 92.592C220.179 92.592 220.585 92.4853 220.905 92.272C221.225 92.048 221.475 91.76 221.657 91.408L223.241 92.08C223.017 92.5067 222.729 92.88 222.377 93.2C222.035 93.52 221.625 93.7653 221.145 93.936C220.675 94.1067 220.137 94.192 219.529 94.192ZM217.465 89.28L217.209 89.056H221.721L221.481 89.28C221.481 88.8427 221.385 88.4853 221.193 88.208C221.001 87.92 220.755 87.7067 220.457 87.568C220.169 87.4187 219.865 87.344 219.545 87.344C219.225 87.344 218.905 87.4187 218.585 87.568C218.265 87.7067 217.998 87.92 217.785 88.208C217.571 88.4853 217.465 88.8427 217.465 89.28ZM230.549 94L230.469 92.512V82.8H232.245V94H230.549ZM227.941 94.192C227.216 94.192 226.581 94.0213 226.037 93.68C225.504 93.328 225.083 92.8373 224.773 92.208C224.475 91.5787 224.325 90.8427 224.325 90C224.325 89.1467 224.475 88.4107 224.773 87.792C225.083 87.1627 225.504 86.6773 226.037 86.336C226.581 85.984 227.216 85.808 227.941 85.808C228.613 85.808 229.189 85.984 229.669 86.336C230.16 86.6773 230.533 87.1627 230.789 87.792C231.045 88.4107 231.173 89.1467 231.173 90C231.173 90.8427 231.045 91.5787 230.789 92.208C230.533 92.8373 230.16 93.328 229.669 93.68C229.189 94.0213 228.613 94.192 227.941 94.192ZM228.389 92.56C228.795 92.56 229.152 92.4533 229.461 92.24C229.781 92.016 230.027 91.712 230.197 91.328C230.379 90.944 230.469 90.5013 230.469 90C230.469 89.4987 230.379 89.056 230.197 88.672C230.027 88.288 229.781 87.9893 229.461 87.776C229.152 87.5627 228.789 87.456 228.373 87.456C227.947 87.456 227.568 87.5627 227.237 87.776C226.907 87.9893 226.645 88.288 226.453 88.672C226.272 89.056 226.176 89.4987 226.165 90C226.176 90.5013 226.272 90.944 226.453 91.328C226.645 91.712 226.907 92.016 227.237 92.24C227.579 92.4533 227.963 92.56 228.389 92.56ZM234.818 90.512L234.706 82.8H236.674L236.562 90.512H234.818ZM235.682 94.24C235.373 94.24 235.106 94.128 234.882 93.904C234.669 93.68 234.562 93.4133 234.562 93.104C234.562 92.7947 234.669 92.5333 234.882 92.32C235.106 92.096 235.373 91.984 235.682 91.984C235.992 91.984 236.258 92.096 236.482 92.32C236.706 92.5333 236.818 92.7947 236.818 93.104C236.818 93.4133 236.706 93.68 236.482 93.904C236.258 94.128 235.992 94.24 235.682 94.24Z" fill="white"/>
<path d="M121.304 94.192C120.195 94.192 119.213 93.9467 118.36 93.456C117.507 92.9653 116.835 92.2827 116.344 91.408C115.864 90.5333 115.624 89.5307 115.624 88.4C115.624 87.2693 115.864 86.272 116.344 85.408C116.835 84.5333 117.501 83.8507 118.344 83.36C119.187 82.8587 120.157 82.608 121.256 82.608C122.365 82.608 123.341 82.8587 124.184 83.36C125.037 83.8507 125.699 84.5333 126.168 85.408C126.648 86.272 126.888 87.2693 126.888 88.4C126.888 89.5307 126.648 90.5333 126.168 91.408C125.699 92.2827 125.043 92.9653 124.2 93.456C123.368 93.9467 122.403 94.192 121.304 94.192ZM121.304 92.496C122.029 92.496 122.669 92.32 123.224 91.968C123.779 91.616 124.211 91.136 124.52 90.528C124.84 89.9093 125 89.2 125 88.4C125 87.6107 124.84 86.9067 124.52 86.288C124.2 85.6693 123.757 85.1893 123.192 84.848C122.637 84.496 121.992 84.32 121.256 84.32C120.531 84.32 119.885 84.496 119.32 84.848C118.765 85.1893 118.323 85.6693 117.992 86.288C117.672 86.896 117.512 87.6 117.512 88.4C117.512 89.2 117.672 89.9093 117.992 90.528C118.323 91.136 118.771 91.616 119.336 91.968C119.912 92.32 120.568 92.496 121.304 92.496ZM129.323 94V85.152C129.323 84.3093 129.531 83.664 129.947 83.216C130.374 82.7573 131.014 82.528 131.867 82.528C132.145 82.528 132.438 82.576 132.747 82.672C133.067 82.7573 133.371 82.8747 133.659 83.024L133.003 84.352C132.801 84.256 132.619 84.1867 132.459 84.144C132.31 84.1013 132.177 84.08 132.059 84.08C131.739 84.08 131.499 84.1867 131.339 84.4C131.19 84.6027 131.115 84.9387 131.115 85.408V94H129.323ZM127.947 87.472V86H133.211V87.472H127.947ZM135.464 94V85.152C135.464 84.3093 135.672 83.664 136.088 83.216C136.515 82.7573 137.155 82.528 138.008 82.528C138.285 82.528 138.579 82.576 138.888 82.672C139.208 82.7573 139.512 82.8747 139.8 83.024L139.144 84.352C138.941 84.256 138.76 84.1867 138.6 84.144C138.451 84.1013 138.317 84.08 138.2 84.08C137.88 84.08 137.64 84.1867 137.48 84.4C137.331 84.6027 137.256 84.9387 137.256 85.408V94H135.464ZM134.088 87.472V86H139.352V87.472H134.088ZM144.232 94.192C143.453 94.192 142.76 94.016 142.152 93.664C141.555 93.3013 141.08 92.8053 140.728 92.176C140.387 91.5467 140.216 90.8213 140.216 90C140.216 89.1787 140.392 88.4533 140.744 87.824C141.096 87.1947 141.576 86.704 142.184 86.352C142.803 85.9893 143.507 85.808 144.296 85.808C145.011 85.808 145.656 85.9947 146.232 86.368C146.808 86.7307 147.261 87.2587 147.592 87.952C147.933 88.6453 148.104 89.472 148.104 90.432H141.816L142.056 90.208C142.056 90.6987 142.163 91.1253 142.376 91.488C142.589 91.84 142.872 92.112 143.224 92.304C143.576 92.496 143.965 92.592 144.392 92.592C144.883 92.592 145.288 92.4853 145.608 92.272C145.928 92.048 146.179 91.76 146.36 91.408L147.944 92.08C147.72 92.5067 147.432 92.88 147.08 93.2C146.739 93.52 146.328 93.7653 145.848 93.936C145.379 94.1067 144.84 94.192 144.232 94.192ZM142.168 89.28L141.912 89.056H146.424L146.184 89.28C146.184 88.8427 146.088 88.4853 145.896 88.208C145.704 87.92 145.459 87.7067 145.16 87.568C144.872 87.4187 144.568 87.344 144.248 87.344C143.928 87.344 143.608 87.4187 143.288 87.568C142.968 87.7067 142.701 87.92 142.488 88.208C142.275 88.4853 142.168 88.8427 142.168 89.28ZM150.66 89.744C150.66 88.88 150.826 88.1707 151.156 87.616C151.487 87.0613 151.914 86.6507 152.436 86.384C152.97 86.1067 153.524 85.968 154.1 85.968V87.68C153.61 87.68 153.146 87.7493 152.708 87.888C152.282 88.016 151.935 88.2293 151.668 88.528C151.402 88.8267 151.268 89.2213 151.268 89.712L150.66 89.744ZM149.476 94V86H151.268V94H149.476ZM162.892 94.192C162.071 94.192 161.346 94.016 160.716 93.664C160.087 93.3013 159.591 92.8053 159.228 92.176C158.876 91.5467 158.7 90.8213 158.7 90C158.7 89.1787 158.876 88.4533 159.228 87.824C159.591 87.1947 160.082 86.704 160.7 86.352C161.33 85.9893 162.05 85.808 162.86 85.808C163.65 85.808 164.364 86 165.004 86.384C165.644 86.7573 166.119 87.296 166.428 88L164.764 88.64C164.594 88.288 164.332 88.0053 163.98 87.792C163.628 87.5787 163.228 87.472 162.78 87.472C162.343 87.472 161.954 87.584 161.612 87.808C161.271 88.0213 161.004 88.32 160.812 88.704C160.62 89.0773 160.524 89.5093 160.524 90C160.524 90.4907 160.62 90.928 160.812 91.312C161.015 91.6853 161.287 91.984 161.628 92.208C161.98 92.4213 162.375 92.528 162.812 92.528C163.26 92.528 163.66 92.416 164.012 92.192C164.364 91.9573 164.626 91.6427 164.796 91.248L166.46 91.888C166.151 92.6133 165.676 93.1787 165.036 93.584C164.407 93.9893 163.692 94.192 162.892 94.192ZM171.531 94.192C170.731 94.192 170.017 94.016 169.387 93.664C168.769 93.3013 168.283 92.8053 167.931 92.176C167.579 91.5467 167.403 90.8213 167.403 90C167.403 89.1787 167.574 88.4533 167.915 87.824C168.267 87.1947 168.753 86.704 169.371 86.352C169.99 85.9893 170.699 85.808 171.499 85.808C172.299 85.808 173.009 85.9893 173.627 86.352C174.246 86.704 174.726 87.1947 175.067 87.824C175.419 88.4533 175.595 89.1787 175.595 90C175.595 90.8213 175.425 91.5467 175.083 92.176C174.742 92.8053 174.262 93.3013 173.643 93.664C173.025 94.016 172.321 94.192 171.531 94.192ZM171.531 92.544C171.969 92.544 172.358 92.4373 172.699 92.224C173.041 92 173.307 91.7013 173.499 91.328C173.691 90.944 173.787 90.5013 173.787 90C173.787 89.4987 173.686 89.0613 173.483 88.688C173.291 88.304 173.025 88.0053 172.683 87.792C172.342 87.568 171.947 87.456 171.499 87.456C171.051 87.456 170.657 87.5627 170.315 87.776C169.974 87.9893 169.707 88.288 169.515 88.672C169.323 89.056 169.227 89.4987 169.227 90C169.227 90.5013 169.323 90.944 169.515 91.328C169.718 91.7013 169.99 92 170.331 92.224C170.683 92.4373 171.083 92.544 171.531 92.544ZM177.148 94V86H178.828L178.94 87.472V94H177.148ZM182.572 94V89.904H184.364V94H182.572ZM182.572 89.904C182.572 89.264 182.498 88.7733 182.348 88.432C182.21 88.08 182.007 87.8347 181.74 87.696C181.484 87.5573 181.18 87.488 180.828 87.488C180.231 87.4773 179.767 87.6747 179.436 88.08C179.106 88.4853 178.94 89.0667 178.94 89.824H178.268C178.268 88.9813 178.391 88.2613 178.636 87.664C178.882 87.056 179.234 86.5973 179.692 86.288C180.151 85.968 180.695 85.808 181.324 85.808C181.964 85.808 182.508 85.936 182.956 86.192C183.415 86.448 183.762 86.848 183.996 87.392C184.242 87.9253 184.364 88.624 184.364 89.488V89.904H182.572ZM186.98 94V85.152C186.98 84.3093 187.188 83.664 187.604 83.216C188.03 82.7573 188.67 82.528 189.524 82.528C189.801 82.528 190.094 82.576 190.404 82.672C190.724 82.7573 191.028 82.8747 191.316 83.024L190.66 84.352C190.457 84.256 190.276 84.1867 190.116 84.144C189.966 84.1013 189.833 84.08 189.716 84.08C189.396 84.08 189.156 84.1867 188.996 84.4C188.846 84.6027 188.772 84.9387 188.772 85.408V94H186.98ZM185.604 87.472V86H190.868V87.472H185.604ZM192.432 94V86H194.208V94H192.432ZM193.328 84.48C193.04 84.48 192.789 84.3787 192.576 84.176C192.373 83.9627 192.272 83.712 192.272 83.424C192.272 83.136 192.373 82.8907 192.576 82.688C192.789 82.4853 193.04 82.384 193.328 82.384C193.616 82.384 193.861 82.4853 194.064 82.688C194.277 82.8907 194.384 83.136 194.384 83.424C194.384 83.712 194.277 83.9627 194.064 84.176C193.861 84.3787 193.616 84.48 193.328 84.48ZM197.504 89.744C197.504 88.88 197.669 88.1707 198 87.616C198.331 87.0613 198.757 86.6507 199.28 86.384C199.813 86.1067 200.368 85.968 200.944 85.968V87.68C200.453 87.68 199.989 87.7493 199.552 87.888C199.125 88.016 198.779 88.2293 198.512 88.528C198.245 88.8267 198.112 89.2213 198.112 89.712L197.504 89.744ZM196.32 94V86H198.112V94H196.32ZM202.133 94V86H203.813L203.893 87.072C204.138 86.656 204.453 86.3413 204.837 86.128C205.221 85.9147 205.658 85.808 206.149 85.808C206.789 85.808 207.333 85.952 207.781 86.24C208.229 86.528 208.554 86.9653 208.757 87.552C208.991 86.9867 209.322 86.5547 209.749 86.256C210.175 85.9573 210.677 85.808 211.253 85.808C212.181 85.808 212.895 86.1067 213.397 86.704C213.898 87.2907 214.143 88.1973 214.133 89.424V94H212.357V89.904C212.357 89.264 212.287 88.7733 212.149 88.432C212.01 88.08 211.823 87.8347 211.589 87.696C211.354 87.5573 211.082 87.488 210.773 87.488C210.218 87.4773 209.786 87.6747 209.477 88.08C209.178 88.4853 209.029 89.0667 209.029 89.824V94H207.237V89.904C207.237 89.264 207.167 88.7733 207.029 88.432C206.901 88.08 206.719 87.8347 206.485 87.696C206.25 87.5573 205.978 87.488 205.669 87.488C205.114 87.4773 204.682 87.6747 204.373 88.08C204.074 88.4853 203.925 89.0667 203.925 89.824V94H202.133ZM219.529 94.192C218.75 94.192 218.057 94.016 217.449 93.664C216.851 93.3013 216.377 92.8053 216.025 92.176C215.683 91.5467 215.513 90.8213 215.513 90C215.513 89.1787 215.689 88.4533 216.041 87.824C216.393 87.1947 216.873 86.704 217.481 86.352C218.099 85.9893 218.803 85.808 219.593 85.808C220.307 85.808 220.953 85.9947 221.529 86.368C222.105 86.7307 222.558 87.2587 222.889 87.952C223.23 88.6453 223.401 89.472 223.401 90.432H217.113L217.353 90.208C217.353 90.6987 217.459 91.1253 217.673 91.488C217.886 91.84 218.169 92.112 218.521 92.304C218.873 92.496 219.262 92.592 219.689 92.592C220.179 92.592 220.585 92.4853 220.905 92.272C221.225 92.048 221.475 91.76 221.657 91.408L223.241 92.08C223.017 92.5067 222.729 92.88 222.377 93.2C222.035 93.52 221.625 93.7653 221.145 93.936C220.675 94.1067 220.137 94.192 219.529 94.192ZM217.465 89.28L217.209 89.056H221.721L221.481 89.28C221.481 88.8427 221.385 88.4853 221.193 88.208C221.001 87.92 220.755 87.7067 220.457 87.568C220.169 87.4187 219.865 87.344 219.545 87.344C219.225 87.344 218.905 87.4187 218.585 87.568C218.265 87.7067 217.998 87.92 217.785 88.208C217.571 88.4853 217.465 88.8427 217.465 89.28ZM230.549 94L230.469 92.512V82.8H232.245V94H230.549ZM227.941 94.192C227.216 94.192 226.581 94.0213 226.037 93.68C225.504 93.328 225.083 92.8373 224.773 92.208C224.475 91.5787 224.325 90.8427 224.325 90C224.325 89.1467 224.475 88.4107 224.773 87.792C225.083 87.1627 225.504 86.6773 226.037 86.336C226.581 85.984 227.216 85.808 227.941 85.808C228.613 85.808 229.189 85.984 229.669 86.336C230.16 86.6773 230.533 87.1627 230.789 87.792C231.045 88.4107 231.173 89.1467 231.173 90C231.173 90.8427 231.045 91.5787 230.789 92.208C230.533 92.8373 230.16 93.328 229.669 93.68C229.189 94.0213 228.613 94.192 227.941 94.192ZM228.389 92.56C228.795 92.56 229.152 92.4533 229.461 92.24C229.781 92.016 230.027 91.712 230.197 91.328C230.379 90.944 230.469 90.5013 230.469 90C230.469 89.4987 230.379 89.056 230.197 88.672C230.027 88.288 229.781 87.9893 229.461 87.776C229.152 87.5627 228.789 87.456 228.373 87.456C227.947 87.456 227.568 87.5627 227.237 87.776C226.907 87.9893 226.645 88.288 226.453 88.672C226.272 89.056 226.176 89.4987 226.165 90C226.176 90.5013 226.272 90.944 226.453 91.328C226.645 91.712 226.907 92.016 227.237 92.24C227.579 92.4533 227.963 92.56 228.389 92.56ZM234.818 90.512L234.706 82.8H236.674L236.562 90.512H234.818ZM235.682 94.24C235.373 94.24 235.106 94.128 234.882 93.904C234.669 93.68 234.562 93.4133 234.562 93.104C234.562 92.7947 234.669 92.5333 234.882 92.32C235.106 92.096 235.373 91.984 235.682 91.984C235.992 91.984 236.258 92.096 236.482 92.32C236.706 92.5333 236.818 92.7947 236.818 93.104C236.818 93.4133 236.706 93.68 236.482 93.904C236.258 94.128 235.992 94.24 235.682 94.24Z" fill="#282828"/>
</g>
<circle cx="267.533" cy="48.0355" r="10.2953" fill="white"/>
<path d="M267.281 54.6961L273.889 42.7111L271.509 41.3987L266.213 51.0037L261.368 48.3323L260.056 50.7123L267.281 54.6961ZM271.186 61.2831C269.362 61.8106 267.548 61.9601 265.743 61.7318C263.939 61.5034 262.271 60.9674 260.741 60.1238C259.211 59.2802 257.868 58.1562 256.712 56.752C255.556 55.3478 254.714 53.7336 254.186 51.9095C253.659 50.0853 253.509 48.2709 253.738 46.4663C253.966 44.6617 254.502 42.9944 255.346 41.4644C256.189 39.9344 257.313 38.5913 258.717 37.4351C260.121 36.2788 261.736 35.437 263.56 34.9095C265.384 34.382 267.198 34.2324 269.003 34.4608C270.808 34.6891 272.475 35.2251 274.005 36.0688C275.535 36.9124 276.878 38.0363 278.034 39.4405C279.191 40.8447 280.032 42.4589 280.56 44.2831C281.087 46.1073 281.237 47.9216 281.009 49.7262C280.78 51.5308 280.244 53.1981 279.401 54.7281C278.557 56.2581 277.433 57.6012 276.029 58.7575C274.625 59.9137 273.01 60.7556 271.186 61.2831Z" fill="#62D264"/>
<defs>
<filter id="filter0_d_1957_1903" x="0" y="0" width="320.683" height="166" filterUnits="userSpaceOnUse" color-interpolation-filters="sRGB">
<feFlood flood-opacity="0" result="BackgroundImageFix"/>
<feColorMatrix in="SourceAlpha" type="matrix" values="0 0 0 0 0 0 0 0 0 0 0 0 0 0 0 0 0 0 127 0" result="hardAlpha"/>
<feOffset dy="4"/>
<feGaussianBlur stdDeviation="25"/>
<feComposite in2="hardAlpha" operator="out"/>
<feColorMatrix type="matrix" values="0 0 0 0 0 0 0 0 0 0 0 0 0 0 0 0 0 0 0.1 0"/>
<feBlend mode="normal" in2="BackgroundImageFix" result="effect1_dropShadow_1957_1903"/>
<feBlend mode="normal" in="SourceGraphic" in2="effect1_dropShadow_1957_1903" result="shape"/>
</filter>
</defs>
</svg>
