<svg width="600" height="410" viewBox="0 0 600 410" fill="none" xmlns="http://www.w3.org/2000/svg">
<rect width="600" height="410" rx="26" fill="white"/>
<path d="M86.9514 277.071C86.3335 253.188 128.633 99.7451 298.207 95.3578C467.782 90.9705 518.86 243.748 519.845 281.81" stroke="#8A8A8A" stroke-width="1.2" stroke-miterlimit="10" stroke-dasharray="3 4"/>
<circle cx="508.854" cy="278.908" r="43.1467" fill="#64D868" stroke="#D0F7D2" stroke-width="10"/>
<circle cx="155.996" cy="145.473" r="43.1467" fill="#FFBF49" stroke="#FFF0D5" stroke-width="10"/>
<circle cx="429.698" cy="146.35" r="43.1467" fill="#B7E157" stroke="#E6F5C2" stroke-width="10"/>
<circle cx="300.953" cy="93.0198" r="43.1467" fill="#FFD849" stroke="#FFF3CA" stroke-width="10"/>
<circle cx="91.1467" cy="278.908" r="43.1467" fill="#FF5C52" stroke="#FFECEB" stroke-width="10"/>
<path d="M60.6532 350.971V339.771H64.6052C65.3732 339.771 66.0505 339.92 66.6372 340.219C67.2239 340.517 67.6825 340.933 68.0132 341.467C68.3439 341.989 68.5092 342.597 68.5092 343.291C68.5092 343.984 68.3332 344.597 67.9812 345.131C67.6399 345.664 67.1652 346.085 66.5572 346.395C65.9492 346.693 65.2612 346.843 64.4932 346.843H62.5092V350.971H60.6532ZM66.8612 350.971L64.2372 346.427L65.6772 345.435L68.9572 350.971H66.8612ZM62.5092 345.131H64.6852C65.0479 345.131 65.3679 345.051 65.6452 344.891C65.9332 344.731 66.1625 344.512 66.3332 344.235C66.5145 343.957 66.6052 343.643 66.6052 343.291C66.6052 342.757 66.4132 342.32 66.0292 341.979C65.6452 341.637 65.1492 341.467 64.5412 341.467H62.5092V345.131ZM74.3927 351.163C73.614 351.163 72.9207 350.987 72.3127 350.635C71.7154 350.272 71.2407 349.776 70.8887 349.147C70.5474 348.517 70.3767 347.792 70.3767 346.971C70.3767 346.149 70.5527 345.424 70.9047 344.795C71.2567 344.165 71.7367 343.675 72.3447 343.323C72.9634 342.96 73.6674 342.779 74.4567 342.779C75.1714 342.779 75.8167 342.965 76.3927 343.339C76.9687 343.701 77.422 344.229 77.7527 344.923C78.094 345.616 78.2647 346.443 78.2647 347.403H71.9767L72.2167 347.179C72.2167 347.669 72.3234 348.096 72.5367 348.459C72.75 348.811 73.0327 349.083 73.3847 349.275C73.7367 349.467 74.126 349.563 74.5527 349.563C75.0434 349.563 75.4487 349.456 75.7687 349.243C76.0887 349.019 76.3394 348.731 76.5207 348.379L78.1047 349.051C77.8807 349.477 77.5927 349.851 77.2407 350.171C76.8994 350.491 76.4887 350.736 76.0087 350.907C75.5394 351.077 75.0007 351.163 74.3927 351.163ZM72.3287 346.251L72.0727 346.027H76.5847L76.3447 346.251C76.3447 345.813 76.2487 345.456 76.0567 345.179C75.8647 344.891 75.6194 344.677 75.3207 344.539C75.0327 344.389 74.7287 344.315 74.4087 344.315C74.0887 344.315 73.7687 344.389 73.4487 344.539C73.1287 344.677 72.862 344.891 72.6487 345.179C72.4354 345.456 72.3287 345.813 72.3287 346.251ZM85.6532 354.171V344.459L85.7492 342.971H87.4452V354.171H85.6532ZM83.1252 351.163C82.3999 351.163 81.7652 350.992 81.2212 350.651C80.6879 350.299 80.2665 349.808 79.9572 349.179C79.6585 348.549 79.5092 347.813 79.5092 346.971C79.5092 346.117 79.6585 345.381 79.9572 344.763C80.2665 344.133 80.6879 343.648 81.2212 343.307C81.7652 342.955 82.3999 342.779 83.1252 342.779C83.7972 342.779 84.3732 342.955 84.8532 343.307C85.3439 343.648 85.7172 344.133 85.9732 344.763C86.2292 345.381 86.3572 346.117 86.3572 346.971C86.3572 347.813 86.2292 348.549 85.9732 349.179C85.7172 349.808 85.3439 350.299 84.8532 350.651C84.3732 350.992 83.7972 351.163 83.1252 351.163ZM83.5732 349.531C83.9785 349.531 84.3359 349.424 84.6452 349.211C84.9652 348.987 85.2105 348.683 85.3812 348.299C85.5625 347.915 85.6532 347.472 85.6532 346.971C85.6532 346.469 85.5625 346.027 85.3812 345.643C85.2105 345.259 84.9652 344.96 84.6452 344.747C84.3359 344.533 83.9732 344.427 83.5572 344.427C83.1305 344.427 82.7519 344.533 82.4212 344.747C82.0905 344.96 81.8292 345.259 81.6372 345.643C81.4559 346.027 81.3599 346.469 81.3492 346.971C81.3599 347.472 81.4559 347.915 81.6372 348.299C81.8292 348.683 82.0905 348.987 82.4212 349.211C82.7625 349.424 83.1465 349.531 83.5732 349.531ZM95.0122 350.971L94.9162 349.499V342.971H96.6922V350.971H95.0122ZM89.4762 347.067V342.971H91.2682V347.067H89.4762ZM91.2682 347.067C91.2682 347.696 91.3429 348.187 91.4922 348.539C91.6415 348.891 91.8442 349.136 92.1002 349.275C92.3669 349.413 92.6709 349.483 93.0122 349.483C93.6202 349.493 94.0895 349.296 94.4202 348.891C94.7509 348.485 94.9162 347.904 94.9162 347.147H95.5882C95.5882 347.989 95.4602 348.715 95.2042 349.323C94.9589 349.92 94.6069 350.379 94.1482 350.699C93.7002 351.008 93.1562 351.163 92.5162 351.163C91.8869 351.163 91.3429 351.035 90.8842 350.779C90.4362 350.523 90.0895 350.123 89.8442 349.579C89.5989 349.035 89.4762 348.336 89.4762 347.483V347.067H91.2682ZM102.571 351.163C101.793 351.163 101.099 350.987 100.491 350.635C99.8941 350.272 99.4194 349.776 99.0674 349.147C98.7261 348.517 98.5554 347.792 98.5554 346.971C98.5554 346.149 98.7314 345.424 99.0834 344.795C99.4354 344.165 99.9154 343.675 100.523 343.323C101.142 342.96 101.846 342.779 102.635 342.779C103.35 342.779 103.995 342.965 104.571 343.339C105.147 343.701 105.601 344.229 105.931 344.923C106.273 345.616 106.443 346.443 106.443 347.403H100.155L100.395 347.179C100.395 347.669 100.502 348.096 100.715 348.459C100.929 348.811 101.211 349.083 101.563 349.275C101.915 349.467 102.305 349.563 102.731 349.563C103.222 349.563 103.627 349.456 103.947 349.243C104.267 349.019 104.518 348.731 104.699 348.379L106.283 349.051C106.059 349.477 105.771 349.851 105.419 350.171C105.078 350.491 104.667 350.736 104.187 350.907C103.718 351.077 103.179 351.163 102.571 351.163ZM100.507 346.251L100.251 346.027H104.763L104.523 346.251C104.523 345.813 104.427 345.456 104.235 345.179C104.043 344.891 103.798 344.677 103.499 344.539C103.211 344.389 102.907 344.315 102.587 344.315C102.267 344.315 101.947 344.389 101.627 344.539C101.307 344.677 101.041 344.891 100.827 345.179C100.614 345.456 100.507 345.813 100.507 346.251ZM111.048 351.163C110.515 351.163 110.024 351.083 109.576 350.923C109.128 350.763 108.744 350.539 108.424 350.251C108.104 349.952 107.859 349.605 107.688 349.211L109.24 348.523C109.4 348.821 109.635 349.072 109.944 349.275C110.264 349.477 110.616 349.579 111 349.579C111.416 349.579 111.747 349.509 111.992 349.371C112.248 349.221 112.376 349.019 112.376 348.763C112.376 348.517 112.28 348.331 112.088 348.203C111.896 348.064 111.624 347.952 111.272 347.867L110.52 347.659C109.763 347.467 109.171 347.163 108.744 346.747C108.317 346.32 108.104 345.835 108.104 345.291C108.104 344.491 108.36 343.872 108.872 343.435C109.395 342.997 110.141 342.779 111.112 342.779C111.603 342.779 112.051 342.853 112.456 343.003C112.872 343.141 113.229 343.344 113.528 343.611C113.827 343.867 114.035 344.171 114.152 344.523L112.664 345.195C112.557 344.928 112.355 344.725 112.056 344.587C111.757 344.437 111.427 344.363 111.064 344.363C110.701 344.363 110.419 344.443 110.216 344.603C110.013 344.752 109.912 344.965 109.912 345.243C109.912 345.403 110.003 345.552 110.184 345.691C110.365 345.819 110.627 345.925 110.968 346.011L111.912 346.235C112.435 346.363 112.861 346.565 113.192 346.843C113.523 347.109 113.768 347.413 113.928 347.755C114.088 348.085 114.168 348.421 114.168 348.763C114.168 349.243 114.029 349.664 113.752 350.027C113.485 350.389 113.117 350.672 112.648 350.875C112.179 351.067 111.645 351.163 111.048 351.163ZM119.093 351.163C118.25 351.163 117.605 350.955 117.157 350.539C116.72 350.112 116.501 349.504 116.501 348.715V340.475H118.277V348.379C118.277 348.752 118.362 349.035 118.533 349.227C118.714 349.419 118.976 349.515 119.317 349.515C119.424 349.515 119.541 349.493 119.669 349.451C119.797 349.408 119.941 349.328 120.101 349.211L120.757 350.571C120.48 350.763 120.202 350.907 119.925 351.003C119.648 351.109 119.37 351.163 119.093 351.163ZM115.173 344.507V342.971H120.437V344.507H115.173Z" fill="black"/>
<path d="M141.931 220.323C140.822 220.323 139.84 220.078 138.987 219.587C138.134 219.096 137.462 218.414 136.971 217.539C136.491 216.664 136.251 215.662 136.251 214.531C136.251 213.4 136.491 212.403 136.971 211.539C137.462 210.664 138.128 209.982 138.971 209.491C139.814 208.99 140.784 208.739 141.883 208.739C142.992 208.739 143.968 208.99 144.811 209.491C145.664 209.982 146.326 210.664 146.795 211.539C147.275 212.403 147.515 213.4 147.515 214.531C147.515 215.662 147.275 216.664 146.795 217.539C146.326 218.414 145.67 219.096 144.827 219.587C143.995 220.078 143.03 220.323 141.931 220.323ZM141.931 218.627C142.656 218.627 143.296 218.451 143.851 218.099C144.406 217.747 144.838 217.267 145.147 216.659C145.467 216.04 145.627 215.331 145.627 214.531C145.627 213.742 145.467 213.038 145.147 212.419C144.827 211.8 144.384 211.32 143.819 210.979C143.264 210.627 142.619 210.451 141.883 210.451C141.158 210.451 140.512 210.627 139.947 210.979C139.392 211.32 138.95 211.8 138.619 212.419C138.299 213.027 138.139 213.731 138.139 214.531C138.139 215.331 138.299 216.04 138.619 216.659C138.95 217.267 139.398 217.747 139.963 218.099C140.539 218.451 141.195 218.627 141.931 218.627ZM150.27 220.131V211.283C150.27 210.44 150.478 209.795 150.894 209.347C151.321 208.888 151.961 208.659 152.814 208.659C153.092 208.659 153.385 208.707 153.694 208.803C154.014 208.888 154.318 209.006 154.606 209.155L153.95 210.483C153.748 210.387 153.566 210.318 153.406 210.275C153.257 210.232 153.124 210.211 153.006 210.211C152.686 210.211 152.446 210.318 152.286 210.531C152.137 210.734 152.062 211.07 152.062 211.539V220.131H150.27ZM148.894 213.603V212.131H154.158V213.603H148.894ZM156.731 220.131V211.283C156.731 210.44 156.939 209.795 157.355 209.347C157.781 208.888 158.421 208.659 159.275 208.659C159.552 208.659 159.845 208.707 160.155 208.803C160.475 208.888 160.779 209.006 161.067 209.155L160.411 210.483C160.208 210.387 160.027 210.318 159.867 210.275C159.717 210.232 159.584 210.211 159.467 210.211C159.147 210.211 158.907 210.318 158.747 210.531C158.597 210.734 158.523 211.07 158.523 211.539V220.131H156.731ZM155.355 213.603V212.131H160.619V213.603H155.355ZM165.819 220.323C165.04 220.323 164.347 220.147 163.739 219.795C163.141 219.432 162.667 218.936 162.315 218.307C161.973 217.678 161.803 216.952 161.803 216.131C161.803 215.31 161.979 214.584 162.331 213.955C162.683 213.326 163.163 212.835 163.771 212.483C164.389 212.12 165.093 211.939 165.883 211.939C166.597 211.939 167.243 212.126 167.819 212.499C168.395 212.862 168.848 213.39 169.179 214.083C169.52 214.776 169.691 215.603 169.691 216.563H163.403L163.643 216.339C163.643 216.83 163.749 217.256 163.963 217.619C164.176 217.971 164.459 218.243 164.811 218.435C165.163 218.627 165.552 218.723 165.979 218.723C166.469 218.723 166.875 218.616 167.195 218.403C167.515 218.179 167.765 217.891 167.947 217.539L169.531 218.211C169.307 218.638 169.019 219.011 168.667 219.331C168.325 219.651 167.915 219.896 167.435 220.067C166.965 220.238 166.427 220.323 165.819 220.323ZM163.755 215.411L163.499 215.187H168.011L167.771 215.411C167.771 214.974 167.675 214.616 167.483 214.339C167.291 214.051 167.045 213.838 166.747 213.699C166.459 213.55 166.155 213.475 165.835 213.475C165.515 213.475 165.195 213.55 164.875 213.699C164.555 213.838 164.288 214.051 164.075 214.339C163.861 214.616 163.755 214.974 163.755 215.411ZM172.567 215.875C172.567 215.011 172.733 214.302 173.063 213.747C173.394 213.192 173.821 212.782 174.343 212.515C174.877 212.238 175.431 212.099 176.007 212.099V213.811C175.517 213.811 175.053 213.88 174.615 214.019C174.189 214.147 173.842 214.36 173.575 214.659C173.309 214.958 173.175 215.352 173.175 215.843L172.567 215.875ZM171.383 220.131V212.131H173.175V220.131H171.383Z" fill="black"/>
<path d="M277.394 169.584L273.026 158.384H274.882L279.362 169.584H277.394ZM268.45 169.584L272.914 158.384H274.786L270.418 169.584H268.45ZM270.546 166.832V165.184H277.25V166.832H270.546ZM280.885 172.784V161.584H282.565L282.677 163.056V172.784H280.885ZM285.205 169.776C284.533 169.776 283.952 169.605 283.461 169.264C282.981 168.912 282.613 168.421 282.357 167.792C282.101 167.163 281.973 166.427 281.973 165.584C281.973 164.731 282.101 163.995 282.357 163.376C282.613 162.747 282.981 162.261 283.461 161.92C283.952 161.568 284.533 161.392 285.205 161.392C285.93 161.392 286.56 161.568 287.093 161.92C287.637 162.261 288.058 162.747 288.357 163.376C288.666 163.995 288.821 164.731 288.821 165.584C288.821 166.427 288.666 167.163 288.357 167.792C288.058 168.421 287.637 168.912 287.093 169.264C286.56 169.605 285.93 169.776 285.205 169.776ZM284.757 168.144C285.184 168.144 285.562 168.037 285.893 167.824C286.224 167.6 286.485 167.296 286.677 166.912C286.88 166.528 286.981 166.085 286.981 165.584C286.981 165.083 286.885 164.64 286.693 164.256C286.512 163.872 286.256 163.573 285.925 163.36C285.594 163.147 285.21 163.04 284.773 163.04C284.368 163.04 284.005 163.147 283.685 163.36C283.365 163.573 283.114 163.872 282.933 164.256C282.762 164.64 282.677 165.083 282.677 165.584C282.677 166.085 282.762 166.528 282.933 166.912C283.114 167.296 283.36 167.6 283.669 167.824C283.989 168.037 284.352 168.144 284.757 168.144ZM290.752 172.784V161.584H292.432L292.544 163.056V172.784H290.752ZM295.072 169.776C294.4 169.776 293.819 169.605 293.328 169.264C292.848 168.912 292.48 168.421 292.224 167.792C291.968 167.163 291.84 166.427 291.84 165.584C291.84 164.731 291.968 163.995 292.224 163.376C292.48 162.747 292.848 162.261 293.328 161.92C293.819 161.568 294.4 161.392 295.072 161.392C295.797 161.392 296.427 161.568 296.96 161.92C297.504 162.261 297.925 162.747 298.224 163.376C298.533 163.995 298.688 164.731 298.688 165.584C298.688 166.427 298.533 167.163 298.224 167.792C297.925 168.421 297.504 168.912 296.96 169.264C296.427 169.605 295.797 169.776 295.072 169.776ZM294.624 168.144C295.051 168.144 295.429 168.037 295.76 167.824C296.091 167.6 296.352 167.296 296.544 166.912C296.747 166.528 296.848 166.085 296.848 165.584C296.848 165.083 296.752 164.64 296.56 164.256C296.379 163.872 296.123 163.573 295.792 163.36C295.461 163.147 295.077 163.04 294.64 163.04C294.235 163.04 293.872 163.147 293.552 163.36C293.232 163.573 292.981 163.872 292.8 164.256C292.629 164.64 292.544 165.083 292.544 165.584C292.544 166.085 292.629 166.528 292.8 166.912C292.981 167.296 293.227 167.6 293.536 167.824C293.856 168.037 294.219 168.144 294.624 168.144ZM301.723 165.328C301.723 164.464 301.888 163.755 302.219 163.2C302.55 162.645 302.976 162.235 303.499 161.968C304.032 161.691 304.587 161.552 305.163 161.552V163.264C304.672 163.264 304.208 163.333 303.771 163.472C303.344 163.6 302.998 163.813 302.731 164.112C302.464 164.411 302.331 164.805 302.331 165.296L301.723 165.328ZM300.539 169.584V161.584H302.331V169.584H300.539ZM310.351 169.776C309.551 169.776 308.837 169.6 308.207 169.248C307.589 168.885 307.103 168.389 306.751 167.76C306.399 167.131 306.223 166.405 306.223 165.584C306.223 164.763 306.394 164.037 306.735 163.408C307.087 162.779 307.573 162.288 308.191 161.936C308.81 161.573 309.519 161.392 310.319 161.392C311.119 161.392 311.829 161.573 312.447 161.936C313.066 162.288 313.546 162.779 313.887 163.408C314.239 164.037 314.415 164.763 314.415 165.584C314.415 166.405 314.245 167.131 313.903 167.76C313.562 168.389 313.082 168.885 312.463 169.248C311.845 169.6 311.141 169.776 310.351 169.776ZM310.351 168.128C310.789 168.128 311.178 168.021 311.519 167.808C311.861 167.584 312.127 167.285 312.319 166.912C312.511 166.528 312.607 166.085 312.607 165.584C312.607 165.083 312.506 164.645 312.303 164.272C312.111 163.888 311.845 163.589 311.503 163.376C311.162 163.152 310.767 163.04 310.319 163.04C309.871 163.04 309.477 163.147 309.135 163.36C308.794 163.573 308.527 163.872 308.335 164.256C308.143 164.64 308.047 165.083 308.047 165.584C308.047 166.085 308.143 166.528 308.335 166.912C308.538 167.285 308.81 167.584 309.151 167.808C309.503 168.021 309.903 168.128 310.351 168.128ZM318.567 169.584L321.687 161.584H323.543L320.247 169.584H318.567ZM318.439 169.584L315.127 161.584H316.967L320.103 169.584H318.439ZM329.645 169.584L329.565 168.08V165.472C329.565 164.928 329.506 164.475 329.389 164.112C329.282 163.739 329.101 163.456 328.845 163.264C328.599 163.061 328.269 162.96 327.853 162.96C327.469 162.96 327.133 163.04 326.845 163.2C326.557 163.36 326.311 163.611 326.109 163.952L324.541 163.376C324.711 163.024 324.935 162.699 325.213 162.4C325.501 162.091 325.858 161.845 326.285 161.664C326.722 161.483 327.245 161.392 327.853 161.392C328.631 161.392 329.282 161.547 329.805 161.856C330.327 162.155 330.711 162.587 330.957 163.152C331.213 163.717 331.341 164.4 331.341 165.2L331.293 169.584H329.645ZM327.341 169.776C326.381 169.776 325.634 169.563 325.101 169.136C324.578 168.709 324.317 168.107 324.317 167.328C324.317 166.496 324.594 165.861 325.149 165.424C325.714 164.987 326.498 164.768 327.501 164.768H329.645V166.144H328.077C327.362 166.144 326.861 166.245 326.573 166.448C326.285 166.64 326.141 166.917 326.141 167.28C326.141 167.589 326.263 167.835 326.509 168.016C326.765 168.187 327.117 168.272 327.565 168.272C327.97 168.272 328.322 168.181 328.621 168C328.919 167.819 329.149 167.579 329.309 167.28C329.479 166.981 329.565 166.645 329.565 166.272H330.093C330.093 167.36 329.874 168.219 329.437 168.848C328.999 169.467 328.301 169.776 327.341 169.776ZM333.475 169.584V158.384H335.267V169.584H333.475Z" fill="black"/>
<path d="M404.168 219.203V208.003H406.024V219.203H404.168ZM408.667 219.203V211.203H410.347L410.459 212.675V219.203H408.667ZM414.091 219.203V215.107H415.883V219.203H414.091ZM414.091 215.107C414.091 214.467 414.017 213.976 413.867 213.635C413.729 213.283 413.526 213.038 413.259 212.899C413.003 212.76 412.699 212.691 412.347 212.691C411.75 212.68 411.286 212.878 410.955 213.283C410.625 213.688 410.459 214.27 410.459 215.027H409.787C409.787 214.184 409.91 213.464 410.155 212.867C410.401 212.259 410.753 211.8 411.211 211.491C411.67 211.171 412.214 211.011 412.843 211.011C413.483 211.011 414.027 211.139 414.475 211.395C414.934 211.651 415.281 212.051 415.515 212.595C415.761 213.128 415.883 213.827 415.883 214.691V215.107H414.091ZM420.407 219.203L423.527 211.203H425.383L422.087 219.203H420.407ZM420.279 219.203L416.967 211.203H418.807L421.943 219.203H420.279ZM430.284 219.395C429.484 219.395 428.77 219.219 428.14 218.867C427.522 218.504 427.036 218.008 426.684 217.379C426.332 216.75 426.156 216.024 426.156 215.203C426.156 214.382 426.327 213.656 426.668 213.027C427.02 212.398 427.506 211.907 428.124 211.555C428.743 211.192 429.452 211.011 430.252 211.011C431.052 211.011 431.762 211.192 432.38 211.555C432.999 211.907 433.479 212.398 433.82 213.027C434.172 213.656 434.348 214.382 434.348 215.203C434.348 216.024 434.178 216.75 433.836 217.379C433.495 218.008 433.015 218.504 432.396 218.867C431.778 219.219 431.074 219.395 430.284 219.395ZM430.284 217.747C430.722 217.747 431.111 217.64 431.452 217.427C431.794 217.203 432.06 216.904 432.252 216.531C432.444 216.147 432.54 215.704 432.54 215.203C432.54 214.702 432.439 214.264 432.236 213.891C432.044 213.507 431.778 213.208 431.436 212.995C431.095 212.771 430.7 212.659 430.252 212.659C429.804 212.659 429.41 212.766 429.068 212.979C428.727 213.192 428.46 213.491 428.268 213.875C428.076 214.259 427.98 214.702 427.98 215.203C427.98 215.704 428.076 216.147 428.268 216.531C428.471 216.904 428.743 217.203 429.084 217.427C429.436 217.64 429.836 217.747 430.284 217.747ZM436.333 219.203V211.203H438.109V219.203H436.333ZM437.229 209.683C436.941 209.683 436.691 209.582 436.477 209.379C436.275 209.166 436.173 208.915 436.173 208.627C436.173 208.339 436.275 208.094 436.477 207.891C436.691 207.688 436.941 207.587 437.229 207.587C437.517 207.587 437.763 207.688 437.965 207.891C438.179 208.094 438.285 208.339 438.285 208.627C438.285 208.915 438.179 209.166 437.965 209.379C437.763 209.582 437.517 209.683 437.229 209.683ZM444.285 219.395C443.464 219.395 442.739 219.219 442.109 218.867C441.48 218.504 440.984 218.008 440.621 217.379C440.269 216.75 440.093 216.024 440.093 215.203C440.093 214.382 440.269 213.656 440.621 213.027C440.984 212.398 441.475 211.907 442.093 211.555C442.723 211.192 443.443 211.011 444.253 211.011C445.043 211.011 445.757 211.203 446.397 211.587C447.037 211.96 447.512 212.499 447.821 213.203L446.157 213.843C445.987 213.491 445.725 213.208 445.373 212.995C445.021 212.782 444.621 212.675 444.173 212.675C443.736 212.675 443.347 212.787 443.005 213.011C442.664 213.224 442.397 213.523 442.205 213.907C442.013 214.28 441.917 214.712 441.917 215.203C441.917 215.694 442.013 216.131 442.205 216.515C442.408 216.888 442.68 217.187 443.021 217.411C443.373 217.624 443.768 217.731 444.205 217.731C444.653 217.731 445.053 217.619 445.405 217.395C445.757 217.16 446.019 216.846 446.189 216.451L447.853 217.091C447.544 217.816 447.069 218.382 446.429 218.787C445.8 219.192 445.085 219.395 444.285 219.395ZM453.132 219.395C452.354 219.395 451.66 219.219 451.052 218.867C450.455 218.504 449.98 218.008 449.628 217.379C449.287 216.75 449.116 216.024 449.116 215.203C449.116 214.382 449.292 213.656 449.644 213.027C449.996 212.398 450.476 211.907 451.084 211.555C451.703 211.192 452.407 211.011 453.196 211.011C453.911 211.011 454.556 211.198 455.132 211.571C455.708 211.934 456.162 212.462 456.492 213.155C456.834 213.848 457.004 214.675 457.004 215.635H450.716L450.956 215.411C450.956 215.902 451.063 216.328 451.276 216.691C451.49 217.043 451.772 217.315 452.124 217.507C452.476 217.699 452.866 217.795 453.292 217.795C453.783 217.795 454.188 217.688 454.508 217.475C454.828 217.251 455.079 216.963 455.26 216.611L456.844 217.283C456.62 217.71 456.332 218.083 455.98 218.403C455.639 218.723 455.228 218.968 454.748 219.139C454.279 219.31 453.74 219.395 453.132 219.395ZM451.068 214.483L450.812 214.259H455.324L455.084 214.483C455.084 214.046 454.988 213.688 454.796 213.411C454.604 213.123 454.359 212.91 454.06 212.771C453.772 212.622 453.468 212.547 453.148 212.547C452.828 212.547 452.508 212.622 452.188 212.771C451.868 212.91 451.602 213.123 451.388 213.411C451.175 213.688 451.068 214.046 451.068 214.483Z" fill="black"/>
<path d="M478.825 350.971V339.771H482.777C483.545 339.771 484.222 339.925 484.809 340.235C485.396 340.544 485.854 340.976 486.185 341.531C486.516 342.075 486.681 342.709 486.681 343.435C486.681 344.139 486.526 344.768 486.217 345.323C485.908 345.877 485.476 346.315 484.921 346.635C484.377 346.944 483.742 347.099 483.017 347.099H480.681V350.971H478.825ZM480.681 345.387H482.985C483.518 345.387 483.956 345.205 484.297 344.843C484.638 344.48 484.809 344.011 484.809 343.435C484.809 342.848 484.617 342.373 484.233 342.011C483.849 341.648 483.353 341.467 482.745 341.467H480.681V345.387ZM493.033 350.971L492.953 349.467V346.859C492.953 346.315 492.894 345.861 492.777 345.499C492.67 345.125 492.489 344.843 492.233 344.651C491.987 344.448 491.657 344.347 491.241 344.347C490.857 344.347 490.521 344.427 490.233 344.587C489.945 344.747 489.699 344.997 489.497 345.339L487.929 344.763C488.099 344.411 488.323 344.085 488.601 343.787C488.889 343.477 489.246 343.232 489.673 343.051C490.11 342.869 490.633 342.779 491.241 342.779C492.019 342.779 492.67 342.933 493.193 343.243C493.715 343.541 494.099 343.973 494.345 344.539C494.601 345.104 494.729 345.787 494.729 346.587L494.681 350.971H493.033ZM490.729 351.163C489.769 351.163 489.022 350.949 488.489 350.523C487.966 350.096 487.705 349.493 487.705 348.715C487.705 347.883 487.982 347.248 488.537 346.811C489.102 346.373 489.886 346.155 490.889 346.155H493.033V347.531H491.465C490.75 347.531 490.249 347.632 489.961 347.835C489.673 348.027 489.529 348.304 489.529 348.667C489.529 348.976 489.651 349.221 489.897 349.403C490.153 349.573 490.505 349.659 490.953 349.659C491.358 349.659 491.71 349.568 492.009 349.387C492.307 349.205 492.537 348.965 492.697 348.667C492.867 348.368 492.953 348.032 492.953 347.659H493.481C493.481 348.747 493.262 349.605 492.825 350.235C492.387 350.853 491.689 351.163 490.729 351.163ZM497.94 354.363C497.684 354.363 497.396 354.315 497.076 354.219C496.767 354.123 496.468 354 496.18 353.851L496.852 352.395C497.055 352.491 497.241 352.565 497.412 352.619C497.583 352.683 497.721 352.715 497.828 352.715C498.084 352.715 498.297 352.645 498.468 352.507C498.649 352.379 498.793 352.187 498.9 351.931L499.844 349.723L502.548 342.971H504.5L500.788 351.819C500.564 352.331 500.335 352.779 500.1 353.163C499.876 353.547 499.593 353.84 499.252 354.043C498.911 354.256 498.473 354.363 497.94 354.363ZM499.364 350.971L495.78 342.971H497.732L500.516 349.707L501.092 350.971H499.364ZM505.887 350.971V342.971H507.567L507.647 344.043C507.892 343.627 508.207 343.312 508.591 343.099C508.975 342.885 509.412 342.779 509.903 342.779C510.543 342.779 511.087 342.923 511.535 343.211C511.983 343.499 512.308 343.936 512.511 344.523C512.745 343.957 513.076 343.525 513.503 343.227C513.929 342.928 514.431 342.779 515.007 342.779C515.935 342.779 516.649 343.077 517.151 343.675C517.652 344.261 517.897 345.168 517.887 346.395V350.971H516.111V346.875C516.111 346.235 516.041 345.744 515.903 345.403C515.764 345.051 515.577 344.805 515.343 344.667C515.108 344.528 514.836 344.459 514.527 344.459C513.972 344.448 513.54 344.645 513.231 345.051C512.932 345.456 512.783 346.037 512.783 346.795V350.971H510.991V346.875C510.991 346.235 510.921 345.744 510.783 345.403C510.655 345.051 510.473 344.805 510.239 344.667C510.004 344.528 509.732 344.459 509.423 344.459C508.868 344.448 508.436 344.645 508.127 345.051C507.828 345.456 507.679 346.037 507.679 346.795V350.971H505.887ZM523.603 351.163C522.824 351.163 522.131 350.987 521.523 350.635C520.925 350.272 520.451 349.776 520.099 349.147C519.757 348.517 519.587 347.792 519.587 346.971C519.587 346.149 519.763 345.424 520.115 344.795C520.467 344.165 520.947 343.675 521.555 343.323C522.173 342.96 522.877 342.779 523.667 342.779C524.381 342.779 525.027 342.965 525.603 343.339C526.179 343.701 526.632 344.229 526.963 344.923C527.304 345.616 527.475 346.443 527.475 347.403H521.187L521.427 347.179C521.427 347.669 521.533 348.096 521.747 348.459C521.96 348.811 522.243 349.083 522.595 349.275C522.947 349.467 523.336 349.563 523.763 349.563C524.253 349.563 524.659 349.456 524.979 349.243C525.299 349.019 525.549 348.731 525.731 348.379L527.315 349.051C527.091 349.477 526.803 349.851 526.451 350.171C526.109 350.491 525.699 350.736 525.219 350.907C524.749 351.077 524.211 351.163 523.603 351.163ZM521.539 346.251L521.283 346.027H525.795L525.555 346.251C525.555 345.813 525.459 345.456 525.267 345.179C525.075 344.891 524.829 344.677 524.531 344.539C524.243 344.389 523.939 344.315 523.619 344.315C523.299 344.315 522.979 344.389 522.659 344.539C522.339 344.677 522.072 344.891 521.859 345.179C521.645 345.456 521.539 345.813 521.539 346.251ZM529.167 350.971V342.971H530.847L530.959 344.443V350.971H529.167ZM534.591 350.971V346.875H536.383V350.971H534.591ZM534.591 346.875C534.591 346.235 534.517 345.744 534.367 345.403C534.229 345.051 534.026 344.805 533.759 344.667C533.503 344.528 533.199 344.459 532.847 344.459C532.25 344.448 531.786 344.645 531.455 345.051C531.125 345.456 530.959 346.037 530.959 346.795H530.287C530.287 345.952 530.41 345.232 530.655 344.635C530.901 344.027 531.253 343.568 531.711 343.259C532.17 342.939 532.714 342.779 533.343 342.779C533.983 342.779 534.527 342.907 534.975 343.163C535.434 343.419 535.781 343.819 536.015 344.363C536.261 344.896 536.383 345.595 536.383 346.459V346.875H534.591ZM541.702 351.163C540.86 351.163 540.214 350.955 539.766 350.539C539.329 350.112 539.11 349.504 539.11 348.715V340.475H540.886V348.379C540.886 348.752 540.972 349.035 541.142 349.227C541.324 349.419 541.585 349.515 541.926 349.515C542.033 349.515 542.15 349.493 542.278 349.451C542.406 349.408 542.55 349.328 542.71 349.211L543.366 350.571C543.089 350.763 542.812 350.907 542.534 351.003C542.257 351.109 541.98 351.163 541.702 351.163ZM537.782 344.507V342.971H543.046V344.507H537.782Z" fill="black"/>
<path d="M303.976 87.7757L297.435 81.235L299.231 79.4811L303.976 84.2259L313.507 74.7363L315.261 76.4902L303.976 87.7757ZM293.524 100.418L305.714 103.867L315.74 100.76C315.653 100.379 315.475 100.087 315.203 99.8833C314.932 99.6798 314.628 99.578 314.292 99.578H306.069C305.335 99.578 304.711 99.55 304.199 99.494C303.686 99.4381 303.16 99.3153 302.619 99.1258L298.827 97.8724L299.574 95.4047L302.975 96.5871C303.483 96.7593 304.07 96.8766 304.735 96.939C305.4 97.0014 306.347 97.0413 307.574 97.0587C307.574 96.643 307.48 96.2844 307.293 95.9829C307.106 95.6814 306.859 95.4779 306.554 95.3724L296.809 91.7936C296.776 91.783 296.747 91.775 296.72 91.7697C296.693 91.7641 296.663 91.7613 296.631 91.7613H293.524V100.418ZM285.126 105.327V89.2424H296.615C296.789 89.2424 296.967 89.2606 297.146 89.2969C297.326 89.3336 297.494 89.3799 297.652 89.4359L307.438 93.0407C308.2 93.3226 308.834 93.8216 309.337 94.5376C309.841 95.2537 310.093 96.094 310.093 97.0587H314.292C315.498 97.0587 316.481 97.4479 317.24 98.2264C317.999 99.0046 318.378 100.015 318.378 101.258V102.614L305.798 106.522L293.524 103.021V105.327H285.126ZM287.645 102.808H291.004V91.7613H287.645V102.808Z" fill="white"/>
<path d="M154.379 162.168C153.999 162.168 153.619 162.092 153.237 161.94C152.856 161.788 152.513 161.56 152.207 161.257L140.861 149.91C140.553 149.603 140.328 149.265 140.187 148.894C140.046 148.523 139.976 148.146 139.976 147.762C139.976 147.379 140.046 146.996 140.187 146.615C140.328 146.234 140.553 145.89 140.861 145.585L155.253 131.167C155.532 130.888 155.862 130.667 156.242 130.503C156.622 130.338 157.015 130.256 157.42 130.256H168.809C169.658 130.256 170.378 130.555 170.972 131.152C171.565 131.75 171.861 132.469 171.861 133.308V144.697C171.861 145.107 171.786 145.497 171.634 145.868C171.482 146.239 171.263 146.563 170.977 146.838L156.542 161.257C156.238 161.56 155.897 161.788 155.517 161.94C155.138 162.092 154.758 162.168 154.379 162.168ZM154.003 159.487C154.111 159.594 154.237 159.648 154.383 159.648C154.528 159.648 154.655 159.594 154.762 159.487L169.197 145.042C169.251 144.989 169.289 144.929 169.31 144.865C169.331 144.8 169.342 144.736 169.342 144.671V133.308C169.342 133.157 169.291 133.034 169.189 132.937C169.087 132.84 168.96 132.791 168.809 132.791H157.237L142.657 147.381C142.549 147.489 142.495 147.615 142.495 147.76C142.495 147.906 142.549 148.032 142.657 148.14L154.003 159.487ZM165.095 139.122C165.682 139.122 166.182 138.918 166.593 138.51C167.005 138.102 167.21 137.606 167.21 137.022C167.21 136.435 167.005 135.935 166.596 135.524C166.185 135.113 165.687 134.907 165.102 134.907C164.516 134.907 164.018 135.112 163.609 135.522C163.2 135.932 162.995 136.43 162.995 137.016C162.995 137.602 163.199 138.099 163.608 138.508C164.016 138.917 164.512 139.122 165.095 139.122Z" fill="white"/>
<path d="M495.545 272.998H522.418V269.478C522.418 269.348 522.364 269.23 522.256 269.122C522.149 269.015 522.03 268.961 521.901 268.961H496.062C495.932 268.961 495.814 269.015 495.706 269.122C495.599 269.23 495.545 269.348 495.545 269.478V272.998ZM493.025 269.478C493.025 268.629 493.319 267.911 493.907 267.323C494.495 266.735 495.213 266.441 496.062 266.441H521.901C522.749 266.441 523.468 266.735 524.055 267.323C524.643 267.911 524.937 268.629 524.937 269.478V278.36H495.545V288.599C495.545 288.728 495.599 288.846 495.706 288.954C495.814 289.062 495.932 289.116 496.062 289.116H503.416V291.635H496.062C495.213 291.635 494.495 291.341 493.907 290.753C493.319 290.165 493.025 289.447 493.025 288.599V269.478ZM513.678 294.607L507.121 288.049L508.891 286.28L513.678 291.015L523.199 281.493L524.97 283.314L513.678 294.607ZM495.545 269.478V288.599C495.545 288.728 495.599 288.846 495.706 288.954C495.814 289.062 495.932 289.116 496.062 289.116H495.545V281.509V286.27V268.961H496.062C495.932 268.961 495.814 269.015 495.706 269.122C495.599 269.23 495.545 269.348 495.545 269.478Z" fill="white"/>
<path d="M415.213 161.973V130.449L417.539 132.516L419.929 130.449L422.319 132.516L424.709 130.449L427.099 132.516L429.489 130.449L431.879 132.516L434.27 130.449L436.66 132.516L439.05 130.449L441.44 132.516L443.766 130.449V161.973L441.44 159.906L439.05 161.973L436.66 159.906L434.27 161.973L431.879 159.906L429.489 161.973L427.099 159.906L424.709 161.973L422.319 159.906L419.929 161.973L417.539 159.906L415.213 161.973ZM419.832 153.672H439.147V151.153H419.832V153.672ZM419.832 147.471H439.147V144.951H419.832V147.471ZM419.832 141.269H439.147V138.75H419.832V141.269ZM417.732 158.136H441.246V134.286H417.732V158.136Z" fill="white"/>
<path d="M91.2751 285.223C91.6647 285.223 92.0022 285.081 92.2874 284.795C92.5729 284.51 92.7157 284.172 92.7157 283.783C92.7157 283.393 92.5729 283.055 92.2874 282.77C92.0022 282.485 91.6647 282.342 91.2751 282.342C90.8854 282.342 90.5479 282.485 90.2627 282.77C89.9772 283.055 89.8344 283.393 89.8344 283.783C89.8344 284.172 89.9772 284.51 90.2627 284.795C90.5479 285.081 90.8854 285.223 91.2751 285.223ZM90.2736 280.307H92.2765C92.2871 279.829 92.3161 279.452 92.3634 279.177C92.4107 278.901 92.4871 278.66 92.5927 278.453C92.7262 278.219 92.9034 277.974 93.1243 277.72C93.3448 277.466 93.6823 277.112 94.1366 276.658C94.7029 276.091 95.1222 275.533 95.3946 274.983C95.6673 274.433 95.8036 273.858 95.8036 273.259C95.8036 272.041 95.3885 271.065 94.5582 270.333C93.7282 269.601 92.6554 269.235 91.3397 269.235C90.2889 269.235 89.3538 269.522 88.5344 270.096C87.7151 270.67 87.1407 271.44 86.8112 272.407L88.6264 273.153C88.8654 272.52 89.2197 272.034 89.6891 271.694C90.1586 271.355 90.7088 271.186 91.3397 271.186C92.0331 271.186 92.6166 271.384 93.0902 271.78C93.5639 272.176 93.8007 272.687 93.8007 273.311C93.8007 273.809 93.6931 274.243 93.4778 274.614C93.2625 274.986 92.8729 275.417 92.3088 275.908C91.8758 276.278 91.5248 276.622 91.2557 276.938C90.9864 277.255 90.7818 277.567 90.6419 277.875C90.5019 278.166 90.4056 278.495 90.353 278.864C90.3001 279.232 90.2736 279.713 90.2736 280.307ZM91.2751 291.657C94.5609 288.716 97.0753 285.895 98.8184 283.193C100.562 280.492 101.433 278.126 101.433 276.095C101.433 273.033 100.46 270.516 98.5148 268.544C96.5693 266.572 94.1561 265.585 91.2751 265.585C88.394 265.585 85.9808 266.572 84.0353 268.544C82.0898 270.516 81.117 273.033 81.117 276.095C81.117 278.126 81.9886 280.492 83.7317 283.193C85.4748 285.895 87.9893 288.716 91.2751 291.657ZM91.2751 295.01C87.0481 291.347 83.8785 287.939 81.7662 284.784C79.6538 281.629 78.5977 278.733 78.5977 276.095C78.5977 272.219 79.8513 269.082 82.3586 266.682C84.8662 264.282 87.8384 263.082 91.2751 263.082C94.7117 263.082 97.6839 264.282 100.191 266.682C102.699 269.082 103.952 272.219 103.952 276.095C103.952 278.733 102.896 281.629 100.784 284.784C98.6716 287.939 95.502 291.347 91.2751 295.01Z" fill="white"/>
<g clip-path="url(#clip0_1780_1151)">
<path d="M404.921 349.34C404.941 348.36 405 347.401 405 346.422C405 288.362 357.762 241.287 299.5 241.287C241.238 241.287 194 288.362 194 346.422C194 347.401 194.039 348.36 194.079 349.34H404.921Z" fill="#F2F4FD"/>
<path d="M271.055 298.451H273.827C276.533 298.451 278.777 296.713 278.777 293.105C278.777 289.453 276.555 287.693 273.849 287.693H271.055V298.451ZM273.915 300.871H268.415V285.273H273.937C278.183 285.273 281.527 288.089 281.527 293.105C281.527 298.099 278.139 300.871 273.915 300.871ZM286.602 300.871H284.072V290.157H286.602V300.871ZM283.676 286.395C283.676 285.471 284.424 284.723 285.326 284.723C286.25 284.723 286.998 285.471 286.998 286.395C286.998 287.319 286.25 288.045 285.326 288.045C284.424 288.045 283.676 287.319 283.676 286.395ZM289.124 301.465L291.478 300.849C291.654 302.169 292.688 303.159 294.162 303.159C296.186 303.159 297.198 302.125 297.198 299.947V298.825C296.736 299.661 295.658 300.387 294.096 300.387C291.236 300.387 289.146 298.187 289.146 295.173C289.146 292.313 291.148 289.959 294.096 289.959C295.768 289.959 296.802 290.641 297.264 291.521V290.157H299.728V299.859C299.728 302.719 298.254 305.381 294.228 305.381C291.39 305.381 289.41 303.621 289.124 301.465ZM294.514 298.209C296.142 298.209 297.264 297.021 297.264 295.173C297.264 293.347 296.098 292.159 294.514 292.159C292.886 292.159 291.72 293.347 291.72 295.173C291.72 297.043 292.842 298.209 294.514 298.209ZM305.379 300.871H302.849V290.157H305.379V300.871ZM302.453 286.395C302.453 285.471 303.201 284.723 304.103 284.723C305.027 284.723 305.775 285.471 305.775 286.395C305.775 287.319 305.027 288.045 304.103 288.045C303.201 288.045 302.453 287.319 302.453 286.395ZM311.905 286.879V290.157H314.127V292.423H311.905V297.395C311.905 298.341 312.323 298.737 313.269 298.737C313.621 298.737 314.039 298.671 314.149 298.649V300.761C313.995 300.827 313.511 301.003 312.587 301.003C310.607 301.003 309.375 299.815 309.375 297.813V292.423H307.395V290.157H307.945C309.089 290.157 309.595 289.431 309.595 288.485V286.879H311.905ZM316.111 297.967C316.111 296.053 317.519 294.997 319.345 294.733L322.095 294.315C322.711 294.227 322.887 293.919 322.887 293.545C322.887 292.643 322.271 291.917 320.863 291.917C319.521 291.917 318.773 292.775 318.663 293.853L316.331 293.325C316.529 291.477 318.201 289.827 320.841 289.827C324.141 289.827 325.395 291.697 325.395 293.831V299.155C325.395 300.123 325.505 300.761 325.527 300.871H323.151C323.129 300.805 323.041 300.365 323.041 299.507C322.535 300.321 321.479 301.201 319.741 301.201C317.497 301.201 316.111 299.661 316.111 297.967ZM320.225 299.199C321.655 299.199 322.887 298.517 322.887 296.427V295.943L320.093 296.361C319.301 296.493 318.663 296.933 318.663 297.813C318.663 298.539 319.213 299.199 320.225 299.199ZM331.032 300.871H328.48V284.943H331.032V300.871ZM261.777 325.871H259.225V309.943H261.777V325.871ZM267.599 325.871H265.069V315.157H267.599V325.871ZM264.673 311.395C264.673 310.471 265.421 309.723 266.323 309.723C267.247 309.723 267.995 310.471 267.995 311.395C267.995 312.319 267.247 313.045 266.323 313.045C265.421 313.045 264.673 312.319 264.673 311.395ZM275.643 312.121C274.961 312.121 274.059 312.429 274.059 313.749V315.157H276.545V317.379H274.059V325.871H271.485V317.379H269.615V315.157H271.485V313.683C271.485 311.285 273.025 309.833 275.225 309.833C275.863 309.833 276.391 309.965 276.567 310.053V312.231C276.413 312.187 276.127 312.121 275.643 312.121ZM280.042 319.337H285.3C285.256 318.083 284.42 316.961 282.66 316.961C281.054 316.961 280.13 318.193 280.042 319.337ZM285.586 322.131L287.742 322.813C287.17 324.683 285.476 326.201 282.902 326.201C279.998 326.201 277.424 324.089 277.424 320.459C277.424 317.071 279.932 314.827 282.638 314.827C285.938 314.827 287.874 317.005 287.874 320.393C287.874 320.811 287.83 321.163 287.808 321.207H279.976C280.042 322.835 281.318 324.001 282.902 324.001C284.442 324.001 285.234 323.187 285.586 322.131ZM294.977 317.181C293.415 317.181 292.029 318.347 292.029 320.503C292.029 322.659 293.415 323.869 295.021 323.869C296.693 323.869 297.463 322.703 297.705 321.889L299.949 322.703C299.443 324.375 297.837 326.201 295.021 326.201C291.875 326.201 289.477 323.759 289.477 320.503C289.477 317.203 291.875 314.827 294.955 314.827C297.837 314.827 299.421 316.631 299.861 318.347L297.573 319.183C297.331 318.237 296.605 317.181 294.977 317.181ZM305.3 330.205H302.572L305.146 324.595L300.57 315.157H303.452L306.532 321.933L309.414 315.157H312.12L305.3 330.205ZM318.159 317.181C316.597 317.181 315.211 318.347 315.211 320.503C315.211 322.659 316.597 323.869 318.203 323.869C319.875 323.869 320.645 322.703 320.887 321.889L323.131 322.703C322.625 324.375 321.019 326.201 318.203 326.201C315.057 326.201 312.659 323.759 312.659 320.503C312.659 317.203 315.057 314.827 318.137 314.827C321.019 314.827 322.603 316.631 323.043 318.347L320.755 319.183C320.513 318.237 319.787 317.181 318.159 317.181ZM327.949 325.871H325.397V309.943H327.949V325.871ZM333.023 319.337H338.281C338.237 318.083 337.401 316.961 335.641 316.961C334.035 316.961 333.111 318.193 333.023 319.337ZM338.567 322.131L340.723 322.813C340.151 324.683 338.457 326.201 335.883 326.201C332.979 326.201 330.405 324.089 330.405 320.459C330.405 317.071 332.913 314.827 335.619 314.827C338.919 314.827 340.855 317.005 340.855 320.393C340.855 320.811 340.811 321.163 340.789 321.207H332.957C333.023 322.835 334.299 324.001 335.883 324.001C337.423 324.001 338.215 323.187 338.567 322.131Z" fill="white"/>
<path d="M271.055 298.451H273.827C276.533 298.451 278.777 296.713 278.777 293.105C278.777 289.453 276.555 287.693 273.849 287.693H271.055V298.451ZM273.915 300.871H268.415V285.273H273.937C278.183 285.273 281.527 288.089 281.527 293.105C281.527 298.099 278.139 300.871 273.915 300.871ZM286.602 300.871H284.072V290.157H286.602V300.871ZM283.676 286.395C283.676 285.471 284.424 284.723 285.326 284.723C286.25 284.723 286.998 285.471 286.998 286.395C286.998 287.319 286.25 288.045 285.326 288.045C284.424 288.045 283.676 287.319 283.676 286.395ZM289.124 301.465L291.478 300.849C291.654 302.169 292.688 303.159 294.162 303.159C296.186 303.159 297.198 302.125 297.198 299.947V298.825C296.736 299.661 295.658 300.387 294.096 300.387C291.236 300.387 289.146 298.187 289.146 295.173C289.146 292.313 291.148 289.959 294.096 289.959C295.768 289.959 296.802 290.641 297.264 291.521V290.157H299.728V299.859C299.728 302.719 298.254 305.381 294.228 305.381C291.39 305.381 289.41 303.621 289.124 301.465ZM294.514 298.209C296.142 298.209 297.264 297.021 297.264 295.173C297.264 293.347 296.098 292.159 294.514 292.159C292.886 292.159 291.72 293.347 291.72 295.173C291.72 297.043 292.842 298.209 294.514 298.209ZM305.379 300.871H302.849V290.157H305.379V300.871ZM302.453 286.395C302.453 285.471 303.201 284.723 304.103 284.723C305.027 284.723 305.775 285.471 305.775 286.395C305.775 287.319 305.027 288.045 304.103 288.045C303.201 288.045 302.453 287.319 302.453 286.395ZM311.905 286.879V290.157H314.127V292.423H311.905V297.395C311.905 298.341 312.323 298.737 313.269 298.737C313.621 298.737 314.039 298.671 314.149 298.649V300.761C313.995 300.827 313.511 301.003 312.587 301.003C310.607 301.003 309.375 299.815 309.375 297.813V292.423H307.395V290.157H307.945C309.089 290.157 309.595 289.431 309.595 288.485V286.879H311.905ZM316.111 297.967C316.111 296.053 317.519 294.997 319.345 294.733L322.095 294.315C322.711 294.227 322.887 293.919 322.887 293.545C322.887 292.643 322.271 291.917 320.863 291.917C319.521 291.917 318.773 292.775 318.663 293.853L316.331 293.325C316.529 291.477 318.201 289.827 320.841 289.827C324.141 289.827 325.395 291.697 325.395 293.831V299.155C325.395 300.123 325.505 300.761 325.527 300.871H323.151C323.129 300.805 323.041 300.365 323.041 299.507C322.535 300.321 321.479 301.201 319.741 301.201C317.497 301.201 316.111 299.661 316.111 297.967ZM320.225 299.199C321.655 299.199 322.887 298.517 322.887 296.427V295.943L320.093 296.361C319.301 296.493 318.663 296.933 318.663 297.813C318.663 298.539 319.213 299.199 320.225 299.199ZM331.032 300.871H328.48V284.943H331.032V300.871ZM261.777 325.871H259.225V309.943H261.777V325.871ZM267.599 325.871H265.069V315.157H267.599V325.871ZM264.673 311.395C264.673 310.471 265.421 309.723 266.323 309.723C267.247 309.723 267.995 310.471 267.995 311.395C267.995 312.319 267.247 313.045 266.323 313.045C265.421 313.045 264.673 312.319 264.673 311.395ZM275.643 312.121C274.961 312.121 274.059 312.429 274.059 313.749V315.157H276.545V317.379H274.059V325.871H271.485V317.379H269.615V315.157H271.485V313.683C271.485 311.285 273.025 309.833 275.225 309.833C275.863 309.833 276.391 309.965 276.567 310.053V312.231C276.413 312.187 276.127 312.121 275.643 312.121ZM280.042 319.337H285.3C285.256 318.083 284.42 316.961 282.66 316.961C281.054 316.961 280.13 318.193 280.042 319.337ZM285.586 322.131L287.742 322.813C287.17 324.683 285.476 326.201 282.902 326.201C279.998 326.201 277.424 324.089 277.424 320.459C277.424 317.071 279.932 314.827 282.638 314.827C285.938 314.827 287.874 317.005 287.874 320.393C287.874 320.811 287.83 321.163 287.808 321.207H279.976C280.042 322.835 281.318 324.001 282.902 324.001C284.442 324.001 285.234 323.187 285.586 322.131ZM294.977 317.181C293.415 317.181 292.029 318.347 292.029 320.503C292.029 322.659 293.415 323.869 295.021 323.869C296.693 323.869 297.463 322.703 297.705 321.889L299.949 322.703C299.443 324.375 297.837 326.201 295.021 326.201C291.875 326.201 289.477 323.759 289.477 320.503C289.477 317.203 291.875 314.827 294.955 314.827C297.837 314.827 299.421 316.631 299.861 318.347L297.573 319.183C297.331 318.237 296.605 317.181 294.977 317.181ZM305.3 330.205H302.572L305.146 324.595L300.57 315.157H303.452L306.532 321.933L309.414 315.157H312.12L305.3 330.205ZM318.159 317.181C316.597 317.181 315.211 318.347 315.211 320.503C315.211 322.659 316.597 323.869 318.203 323.869C319.875 323.869 320.645 322.703 320.887 321.889L323.131 322.703C322.625 324.375 321.019 326.201 318.203 326.201C315.057 326.201 312.659 323.759 312.659 320.503C312.659 317.203 315.057 314.827 318.137 314.827C321.019 314.827 322.603 316.631 323.043 318.347L320.755 319.183C320.513 318.237 319.787 317.181 318.159 317.181ZM327.949 325.871H325.397V309.943H327.949V325.871ZM333.023 319.337H338.281C338.237 318.083 337.401 316.961 335.641 316.961C334.035 316.961 333.111 318.193 333.023 319.337ZM338.567 322.131L340.723 322.813C340.151 324.683 338.457 326.201 335.883 326.201C332.979 326.201 330.405 324.089 330.405 320.459C330.405 317.071 332.913 314.827 335.619 314.827C338.919 314.827 340.855 317.005 340.855 320.393C340.855 320.811 340.811 321.163 340.789 321.207H332.957C333.023 322.835 334.299 324.001 335.883 324.001C337.423 324.001 338.215 323.187 338.567 322.131Z" fill="#3D3D4F"/>
</g>
<defs>
<clipPath id="clip0_1780_1151">
<rect width="211" height="108.052" fill="white" transform="translate(194 241.287)"/>
</clipPath>
</defs>
</svg>
