<svg width="600" height="410" viewBox="0 0 600 410" fill="none" xmlns="http://www.w3.org/2000/svg">
<rect width="600" height="410" rx="26" fill="white"/>
<path d="M47.3 54H44.92V43.56L40.5 54H38.42L34.04 43.6V54H31.7V39.82H34.9L39.5 50.64L44.04 39.82H47.3V54ZM54.7448 52.22C56.1848 52.22 57.4648 51.16 57.4648 49.12C57.4648 47.1 56.1848 46.06 54.7448 46.06C53.3248 46.06 52.0248 47.1 52.0248 49.12C52.0248 51.14 53.3248 52.22 54.7448 52.22ZM54.7448 43.96C57.6648 43.96 59.8048 46.14 59.8048 49.12C59.8048 52.12 57.6648 54.3 54.7448 54.3C51.8448 54.3 49.7048 52.12 49.7048 49.12C49.7048 46.14 51.8448 43.96 54.7448 43.96ZM64.3669 48.38V54H62.0469V44.26H64.3069V45.56C64.9469 44.44 66.1069 43.98 67.1869 43.98C69.5669 43.98 70.7069 45.7 70.7069 47.84V54H68.3869V48.24C68.3869 47.04 67.8469 46.08 66.3869 46.08C65.0669 46.08 64.3669 47.1 64.3669 48.38ZM76.4713 41.28V44.26H78.4913V46.32H76.4713V50.84C76.4713 51.7 76.8513 52.06 77.7113 52.06C78.0313 52.06 78.4113 52 78.5113 51.98V53.9C78.3713 53.96 77.9313 54.12 77.0913 54.12C75.2913 54.12 74.1713 53.04 74.1713 51.22V46.32H72.3713V44.26H72.8713C73.9113 44.26 74.3713 43.6 74.3713 42.74V41.28H76.4713ZM82.9216 48.28V54H80.6016V39.52H82.9216V45.2C83.5816 44.34 84.6816 43.98 85.7016 43.98C88.1016 43.98 89.2616 45.7 89.2616 47.84V54H86.9416V48.24C86.9416 47.04 86.4016 46.08 84.9416 46.08C83.6616 46.08 82.9616 47.04 82.9216 48.28ZM94.4059 54H92.0859V39.52H94.4059V54ZM100.358 57.94H97.8784L100.218 52.84L96.0584 44.26H98.6784L101.478 50.42L104.098 44.26H106.558L100.358 57.94ZM118.919 44.2V46.56C118.659 46.52 118.399 46.5 118.159 46.5C116.359 46.5 115.539 47.54 115.539 49.36V54H113.219V44.26H115.479V45.82C115.939 44.76 117.019 44.14 118.299 44.14C118.579 44.14 118.819 44.18 118.919 44.2ZM122.378 48.06H127.158C127.118 46.92 126.358 45.9 124.758 45.9C123.298 45.9 122.458 47.02 122.378 48.06ZM127.418 50.6L129.378 51.22C128.858 52.92 127.318 54.3 124.978 54.3C122.338 54.3 119.998 52.38 119.998 49.08C119.998 46 122.278 43.96 124.738 43.96C127.738 43.96 129.498 45.94 129.498 49.02C129.498 49.4 129.458 49.72 129.438 49.76H122.318C122.378 51.24 123.538 52.3 124.978 52.3C126.378 52.3 127.098 51.56 127.418 50.6ZM134.015 57.8H131.715V44.26H133.955V45.58C134.435 44.74 135.555 44.04 137.055 44.04C139.935 44.04 141.555 46.24 141.555 49.12C141.555 52.04 139.775 54.24 136.975 54.24C135.575 54.24 134.515 53.64 134.015 52.9V57.8ZM139.235 49.12C139.235 47.3 138.175 46.1 136.615 46.1C135.095 46.1 133.995 47.3 133.995 49.12C133.995 50.98 135.095 52.18 136.615 52.18C138.155 52.18 139.235 50.98 139.235 49.12ZM148.065 52.22C149.505 52.22 150.785 51.16 150.785 49.12C150.785 47.1 149.505 46.06 148.065 46.06C146.645 46.06 145.345 47.1 145.345 49.12C145.345 51.14 146.645 52.22 148.065 52.22ZM148.065 43.96C150.985 43.96 153.125 46.14 153.125 49.12C153.125 52.12 150.985 54.3 148.065 54.3C145.165 54.3 143.025 52.12 143.025 49.12C143.025 46.14 145.165 43.96 148.065 43.96ZM161.067 44.2V46.56C160.807 46.52 160.547 46.5 160.307 46.5C158.507 46.5 157.687 47.54 157.687 49.36V54H155.367V44.26H157.627V45.82C158.087 44.76 159.167 44.14 160.447 44.14C160.727 44.14 160.967 44.18 161.067 44.2ZM166.374 41.28V44.26H168.394V46.32H166.374V50.84C166.374 51.7 166.754 52.06 167.614 52.06C167.934 52.06 168.314 52 168.414 51.98V53.9C168.274 53.96 167.834 54.12 166.994 54.12C165.194 54.12 164.074 53.04 164.074 51.22V46.32H162.274V44.26H162.774C163.814 44.26 164.274 43.6 164.274 42.74V41.28H166.374ZM184.599 54L180.179 47.86L178.299 49.92V54H175.899V39.82H178.299V46.62L184.399 39.82H187.559L181.819 46.08L187.619 54H184.599ZM191.991 46.34H194.491C196.011 46.34 196.931 45.5 196.931 44.16C196.931 42.8 196.011 41.94 194.491 41.94H191.991V46.34ZM194.851 48.46H191.991V54H189.591V39.82H194.851C197.571 39.82 199.371 41.66 199.371 44.14C199.371 46.64 197.571 48.46 194.851 48.46ZM204.023 54H201.583V39.82H204.023V54Z" fill="white"/>
<path d="M47.3 54H44.92V43.56L40.5 54H38.42L34.04 43.6V54H31.7V39.82H34.9L39.5 50.64L44.04 39.82H47.3V54ZM54.7448 52.22C56.1848 52.22 57.4648 51.16 57.4648 49.12C57.4648 47.1 56.1848 46.06 54.7448 46.06C53.3248 46.06 52.0248 47.1 52.0248 49.12C52.0248 51.14 53.3248 52.22 54.7448 52.22ZM54.7448 43.96C57.6648 43.96 59.8048 46.14 59.8048 49.12C59.8048 52.12 57.6648 54.3 54.7448 54.3C51.8448 54.3 49.7048 52.12 49.7048 49.12C49.7048 46.14 51.8448 43.96 54.7448 43.96ZM64.3669 48.38V54H62.0469V44.26H64.3069V45.56C64.9469 44.44 66.1069 43.98 67.1869 43.98C69.5669 43.98 70.7069 45.7 70.7069 47.84V54H68.3869V48.24C68.3869 47.04 67.8469 46.08 66.3869 46.08C65.0669 46.08 64.3669 47.1 64.3669 48.38ZM76.4713 41.28V44.26H78.4913V46.32H76.4713V50.84C76.4713 51.7 76.8513 52.06 77.7113 52.06C78.0313 52.06 78.4113 52 78.5113 51.98V53.9C78.3713 53.96 77.9313 54.12 77.0913 54.12C75.2913 54.12 74.1713 53.04 74.1713 51.22V46.32H72.3713V44.26H72.8713C73.9113 44.26 74.3713 43.6 74.3713 42.74V41.28H76.4713ZM82.9216 48.28V54H80.6016V39.52H82.9216V45.2C83.5816 44.34 84.6816 43.98 85.7016 43.98C88.1016 43.98 89.2616 45.7 89.2616 47.84V54H86.9416V48.24C86.9416 47.04 86.4016 46.08 84.9416 46.08C83.6616 46.08 82.9616 47.04 82.9216 48.28ZM94.4059 54H92.0859V39.52H94.4059V54ZM100.358 57.94H97.8784L100.218 52.84L96.0584 44.26H98.6784L101.478 50.42L104.098 44.26H106.558L100.358 57.94ZM118.919 44.2V46.56C118.659 46.52 118.399 46.5 118.159 46.5C116.359 46.5 115.539 47.54 115.539 49.36V54H113.219V44.26H115.479V45.82C115.939 44.76 117.019 44.14 118.299 44.14C118.579 44.14 118.819 44.18 118.919 44.2ZM122.378 48.06H127.158C127.118 46.92 126.358 45.9 124.758 45.9C123.298 45.9 122.458 47.02 122.378 48.06ZM127.418 50.6L129.378 51.22C128.858 52.92 127.318 54.3 124.978 54.3C122.338 54.3 119.998 52.38 119.998 49.08C119.998 46 122.278 43.96 124.738 43.96C127.738 43.96 129.498 45.94 129.498 49.02C129.498 49.4 129.458 49.72 129.438 49.76H122.318C122.378 51.24 123.538 52.3 124.978 52.3C126.378 52.3 127.098 51.56 127.418 50.6ZM134.015 57.8H131.715V44.26H133.955V45.58C134.435 44.74 135.555 44.04 137.055 44.04C139.935 44.04 141.555 46.24 141.555 49.12C141.555 52.04 139.775 54.24 136.975 54.24C135.575 54.24 134.515 53.64 134.015 52.9V57.8ZM139.235 49.12C139.235 47.3 138.175 46.1 136.615 46.1C135.095 46.1 133.995 47.3 133.995 49.12C133.995 50.98 135.095 52.18 136.615 52.18C138.155 52.18 139.235 50.98 139.235 49.12ZM148.065 52.22C149.505 52.22 150.785 51.16 150.785 49.12C150.785 47.1 149.505 46.06 148.065 46.06C146.645 46.06 145.345 47.1 145.345 49.12C145.345 51.14 146.645 52.22 148.065 52.22ZM148.065 43.96C150.985 43.96 153.125 46.14 153.125 49.12C153.125 52.12 150.985 54.3 148.065 54.3C145.165 54.3 143.025 52.12 143.025 49.12C143.025 46.14 145.165 43.96 148.065 43.96ZM161.067 44.2V46.56C160.807 46.52 160.547 46.5 160.307 46.5C158.507 46.5 157.687 47.54 157.687 49.36V54H155.367V44.26H157.627V45.82C158.087 44.76 159.167 44.14 160.447 44.14C160.727 44.14 160.967 44.18 161.067 44.2ZM166.374 41.28V44.26H168.394V46.32H166.374V50.84C166.374 51.7 166.754 52.06 167.614 52.06C167.934 52.06 168.314 52 168.414 51.98V53.9C168.274 53.96 167.834 54.12 166.994 54.12C165.194 54.12 164.074 53.04 164.074 51.22V46.32H162.274V44.26H162.774C163.814 44.26 164.274 43.6 164.274 42.74V41.28H166.374ZM184.599 54L180.179 47.86L178.299 49.92V54H175.899V39.82H178.299V46.62L184.399 39.82H187.559L181.819 46.08L187.619 54H184.599ZM191.991 46.34H194.491C196.011 46.34 196.931 45.5 196.931 44.16C196.931 42.8 196.011 41.94 194.491 41.94H191.991V46.34ZM194.851 48.46H191.991V54H189.591V39.82H194.851C197.571 39.82 199.371 41.66 199.371 44.14C199.371 46.64 197.571 48.46 194.851 48.46ZM204.023 54H201.583V39.82H204.023V54Z" fill="#3D3D4F"/>
<path d="M128.58 356.297H129.637V362.536C129.637 363.093 129.535 363.566 129.33 363.955C129.126 364.344 128.837 364.639 128.465 364.841C128.093 365.043 127.654 365.144 127.149 365.144C126.671 365.144 126.247 365.057 125.874 364.884C125.502 364.708 125.21 364.458 124.997 364.134C124.783 363.81 124.677 363.425 124.677 362.979H125.717C125.717 363.226 125.778 363.442 125.9 363.627C126.025 363.809 126.195 363.951 126.411 364.053C126.627 364.155 126.873 364.206 127.149 364.206C127.453 364.206 127.711 364.142 127.924 364.014C128.137 363.887 128.299 363.699 128.41 363.452C128.524 363.202 128.58 362.897 128.58 362.536V356.297ZM133.569 365.178C133.154 365.178 132.778 365.1 132.44 364.943C132.102 364.784 131.833 364.556 131.634 364.257C131.435 363.956 131.336 363.593 131.336 363.166C131.336 362.791 131.41 362.487 131.557 362.255C131.705 362.019 131.903 361.834 132.15 361.701C132.397 361.567 132.67 361.468 132.968 361.402C133.269 361.334 133.572 361.28 133.876 361.24C134.273 361.189 134.596 361.151 134.843 361.125C135.093 361.097 135.275 361.05 135.388 360.985C135.505 360.919 135.563 360.806 135.563 360.644V360.61C135.563 360.189 135.448 359.862 135.218 359.63C134.991 359.397 134.646 359.28 134.182 359.28C133.702 359.28 133.326 359.385 133.053 359.595C132.78 359.806 132.589 360.03 132.478 360.269L131.523 359.928C131.694 359.53 131.921 359.22 132.205 358.999C132.492 358.774 132.805 358.618 133.143 358.53C133.484 358.439 133.819 358.394 134.148 358.394C134.359 358.394 134.6 358.419 134.873 358.47C135.148 358.519 135.414 358.62 135.67 358.773C135.928 358.926 136.143 359.158 136.313 359.468C136.484 359.777 136.569 360.192 136.569 360.712V365.024H135.563V364.138H135.512C135.444 364.28 135.33 364.432 135.171 364.594C135.012 364.756 134.8 364.894 134.536 365.007C134.272 365.121 133.95 365.178 133.569 365.178ZM133.722 364.274C134.12 364.274 134.455 364.196 134.728 364.04C135.003 363.884 135.211 363.682 135.35 363.435C135.492 363.188 135.563 362.928 135.563 362.655V361.735C135.521 361.786 135.427 361.833 135.282 361.875C135.14 361.915 134.975 361.951 134.788 361.982C134.603 362.01 134.423 362.036 134.246 362.059C134.073 362.078 133.932 362.095 133.825 362.11C133.563 362.144 133.319 362.199 133.092 362.276C132.867 362.35 132.685 362.462 132.546 362.612C132.41 362.76 132.342 362.962 132.342 363.218C132.342 363.567 132.471 363.831 132.729 364.01C132.991 364.186 133.322 364.274 133.722 364.274ZM139.434 361.087V365.024H138.428V358.479H139.4V359.502H139.485C139.639 359.169 139.872 358.902 140.184 358.701C140.497 358.496 140.9 358.394 141.394 358.394C141.838 358.394 142.225 358.485 142.558 358.666C142.89 358.845 143.149 359.118 143.333 359.485C143.518 359.848 143.61 360.309 143.61 360.865V365.024H142.605V360.934C142.605 360.419 142.471 360.019 142.204 359.732C141.937 359.442 141.57 359.297 141.105 359.297C140.784 359.297 140.497 359.367 140.244 359.506C139.994 359.645 139.796 359.848 139.651 360.115C139.507 360.382 139.434 360.706 139.434 361.087Z" fill="#8E8E8E"/>
<path d="M167.992 365.024V356.297H173.225V357.235H169.049V360.184H172.833V361.121H169.049V365.024H167.992ZM177.187 365.161C176.556 365.161 176.012 365.022 175.555 364.743C175.1 364.462 174.749 364.07 174.502 363.567C174.258 363.061 174.136 362.473 174.136 361.803C174.136 361.132 174.258 360.541 174.502 360.03C174.749 359.516 175.093 359.115 175.533 358.828C175.977 358.539 176.494 358.394 177.085 358.394C177.425 358.394 177.762 358.451 178.094 358.564C178.427 358.678 178.729 358.862 179.002 359.118C179.275 359.371 179.492 359.706 179.654 360.124C179.816 360.541 179.897 361.056 179.897 361.666V362.093H174.852V361.223H178.874C178.874 360.854 178.8 360.524 178.653 360.235C178.508 359.945 178.3 359.716 178.031 359.549C177.764 359.381 177.448 359.297 177.085 359.297C176.684 359.297 176.337 359.397 176.045 359.595C175.755 359.791 175.532 360.047 175.376 360.362C175.219 360.678 175.141 361.016 175.141 361.377V361.956C175.141 362.451 175.227 362.87 175.397 363.213C175.57 363.554 175.81 363.814 176.117 363.993C176.424 364.169 176.781 364.257 177.187 364.257C177.451 364.257 177.69 364.22 177.903 364.147C178.119 364.07 178.305 363.956 178.461 363.806C178.617 363.652 178.738 363.462 178.823 363.235L179.795 363.507C179.693 363.837 179.521 364.127 179.279 364.377C179.038 364.624 178.739 364.817 178.384 364.956C178.029 365.093 177.63 365.161 177.187 365.161ZM181.587 365.024V356.297H182.593V359.519H182.678C182.752 359.405 182.854 359.26 182.985 359.084C183.118 358.905 183.309 358.746 183.556 358.607C183.806 358.465 184.144 358.394 184.57 358.394C185.121 358.394 185.607 358.532 186.028 358.807C186.448 359.083 186.776 359.473 187.012 359.979C187.248 360.485 187.366 361.081 187.366 361.769C187.366 362.462 187.248 363.063 187.012 363.571C186.776 364.077 186.449 364.469 186.032 364.747C185.614 365.023 185.133 365.161 184.587 365.161C184.167 365.161 183.83 365.091 183.577 364.952C183.324 364.81 183.13 364.649 182.993 364.47C182.857 364.289 182.752 364.138 182.678 364.019H182.559V365.024H181.587ZM182.576 361.752C182.576 362.246 182.648 362.682 182.793 363.06C182.938 363.435 183.15 363.729 183.428 363.942C183.707 364.152 184.047 364.257 184.451 364.257C184.871 364.257 185.222 364.147 185.503 363.925C185.788 363.701 186.001 363.399 186.143 363.022C186.288 362.641 186.36 362.218 186.36 361.752C186.36 361.291 186.289 360.877 186.147 360.507C186.008 360.135 185.796 359.841 185.512 359.625C185.231 359.407 184.877 359.297 184.451 359.297C184.042 359.297 183.698 359.401 183.42 359.608C183.141 359.813 182.931 360.1 182.789 360.469C182.647 360.835 182.576 361.263 182.576 361.752Z" fill="#8E8E8E"/>
<path d="M211.871 356.297H213.133L216.099 363.541H216.201L219.167 356.297H220.428V365.024H219.439V358.394H219.354L216.627 365.024H215.672L212.945 358.394H212.86V365.024H211.871V356.297ZM224.361 365.178C223.946 365.178 223.57 365.1 223.232 364.943C222.893 364.784 222.625 364.556 222.426 364.257C222.227 363.956 222.128 363.593 222.128 363.166C222.128 362.791 222.202 362.487 222.349 362.255C222.497 362.019 222.695 361.834 222.942 361.701C223.189 361.567 223.462 361.468 223.76 361.402C224.061 361.334 224.364 361.28 224.668 361.24C225.065 361.189 225.388 361.151 225.635 361.125C225.885 361.097 226.067 361.05 226.18 360.985C226.297 360.919 226.355 360.806 226.355 360.644V360.61C226.355 360.189 226.24 359.862 226.01 359.63C225.783 359.397 225.438 359.28 224.974 359.28C224.494 359.28 224.118 359.385 223.845 359.595C223.572 359.806 223.381 360.03 223.27 360.269L222.315 359.928C222.486 359.53 222.713 359.22 222.997 358.999C223.284 358.774 223.597 358.618 223.935 358.53C224.276 358.439 224.611 358.394 224.94 358.394C225.151 358.394 225.392 358.419 225.665 358.47C225.94 358.519 226.206 358.62 226.462 358.773C226.72 358.926 226.935 359.158 227.105 359.468C227.276 359.777 227.361 360.192 227.361 360.712V365.024H226.355V364.138H226.304C226.236 364.28 226.122 364.432 225.963 364.594C225.804 364.756 225.592 364.894 225.328 365.007C225.064 365.121 224.742 365.178 224.361 365.178ZM224.514 364.274C224.912 364.274 225.247 364.196 225.52 364.04C225.795 363.884 226.003 363.682 226.142 363.435C226.284 363.188 226.355 362.928 226.355 362.655V361.735C226.313 361.786 226.219 361.833 226.074 361.875C225.932 361.915 225.767 361.951 225.58 361.982C225.395 362.01 225.215 362.036 225.038 362.059C224.865 362.078 224.724 362.095 224.617 362.11C224.355 362.144 224.111 362.199 223.884 362.276C223.659 362.35 223.477 362.462 223.338 362.612C223.202 362.76 223.134 362.962 223.134 363.218C223.134 363.567 223.263 363.831 223.521 364.01C223.783 364.186 224.114 364.274 224.514 364.274ZM229.22 365.024V358.479H230.192V359.468H230.26C230.379 359.144 230.595 358.881 230.908 358.679C231.22 358.478 231.573 358.377 231.965 358.377C232.039 358.377 232.131 358.378 232.242 358.381C232.353 358.384 232.436 358.388 232.493 358.394V359.416C232.459 359.408 232.381 359.395 232.259 359.378C232.139 359.358 232.013 359.348 231.879 359.348C231.561 359.348 231.277 359.415 231.027 359.549C230.78 359.679 230.584 359.861 230.439 360.094C230.297 360.324 230.226 360.587 230.226 360.882V365.024H229.22Z" fill="#8E8E8E"/>
<path d="M256.107 365.024H254.999L258.204 356.297H259.295L262.499 365.024H261.391L258.783 357.678H258.715L256.107 365.024ZM256.516 361.615H260.982V362.553H256.516V361.615ZM263.746 367.479V358.479H264.718V359.519H264.837C264.911 359.405 265.013 359.26 265.144 359.084C265.277 358.905 265.468 358.746 265.715 358.607C265.965 358.465 266.303 358.394 266.729 358.394C267.28 358.394 267.766 358.532 268.187 358.807C268.607 359.083 268.935 359.473 269.171 359.979C269.407 360.485 269.525 361.081 269.525 361.769C269.525 362.462 269.407 363.063 269.171 363.571C268.935 364.077 268.608 364.469 268.191 364.747C267.773 365.023 267.292 365.161 266.746 365.161C266.326 365.161 265.989 365.091 265.736 364.952C265.483 364.81 265.289 364.649 265.152 364.47C265.016 364.289 264.911 364.138 264.837 364.019H264.752V367.479H263.746ZM264.735 361.752C264.735 362.246 264.807 362.682 264.952 363.06C265.097 363.435 265.309 363.729 265.587 363.942C265.866 364.152 266.206 364.257 266.61 364.257C267.03 364.257 267.381 364.147 267.662 363.925C267.946 363.701 268.16 363.399 268.302 363.022C268.446 362.641 268.519 362.218 268.519 361.752C268.519 361.291 268.448 360.877 268.306 360.507C268.167 360.135 267.955 359.841 267.671 359.625C267.39 359.407 267.036 359.297 266.61 359.297C266.201 359.297 265.857 359.401 265.579 359.608C265.3 359.813 265.09 360.1 264.948 360.469C264.806 360.835 264.735 361.263 264.735 361.752ZM271.083 365.024V358.479H272.054V359.468H272.122C272.242 359.144 272.458 358.881 272.77 358.679C273.083 358.478 273.435 358.377 273.827 358.377C273.901 358.377 273.993 358.378 274.104 358.381C274.215 358.384 274.299 358.388 274.355 358.394V359.416C274.321 359.408 274.243 359.395 274.121 359.378C274.002 359.358 273.875 359.348 273.742 359.348C273.424 359.348 273.14 359.415 272.89 359.549C272.642 359.679 272.446 359.861 272.301 360.094C272.159 360.324 272.088 360.587 272.088 360.882V365.024H271.083Z" fill="#8E8E8E"/>
<path d="M424.869 365.024H423.761L426.965 356.297H428.056L431.261 365.024H430.153L427.545 357.678H427.477L424.869 365.024ZM425.278 361.615H429.744V362.553H425.278V361.615ZM436.633 362.348V358.479H437.639V365.024H436.633V363.916H436.565C436.411 364.249 436.173 364.532 435.849 364.764C435.525 364.995 435.116 365.11 434.622 365.11C434.212 365.11 433.849 365.02 433.531 364.841C433.212 364.659 432.962 364.387 432.781 364.023C432.599 363.657 432.508 363.195 432.508 362.638V358.479H433.514V362.57C433.514 363.047 433.647 363.428 433.914 363.712C434.184 363.996 434.528 364.138 434.945 364.138C435.195 364.138 435.45 364.074 435.708 363.946C435.97 363.818 436.188 363.622 436.364 363.358C436.543 363.094 436.633 362.757 436.633 362.348ZM442.147 367.615C441.661 367.615 441.243 367.553 440.894 367.428C440.544 367.306 440.253 367.144 440.02 366.942C439.79 366.743 439.607 366.53 439.47 366.303L440.272 365.74C440.363 365.86 440.478 365.996 440.617 366.149C440.756 366.306 440.946 366.441 441.188 366.554C441.432 366.671 441.752 366.729 442.147 366.729C442.675 366.729 443.111 366.601 443.455 366.345C443.799 366.09 443.97 365.689 443.97 365.144V363.814H443.885C443.811 363.934 443.706 364.081 443.57 364.257C443.436 364.431 443.243 364.585 442.99 364.722C442.74 364.855 442.402 364.922 441.976 364.922C441.448 364.922 440.973 364.797 440.553 364.547C440.135 364.297 439.804 363.934 439.56 363.456C439.319 362.979 439.198 362.399 439.198 361.718C439.198 361.047 439.316 360.463 439.551 359.966C439.787 359.466 440.115 359.08 440.536 358.807C440.956 358.532 441.442 358.394 441.993 358.394C442.419 358.394 442.757 358.465 443.007 358.607C443.26 358.746 443.453 358.905 443.587 359.084C443.723 359.26 443.828 359.405 443.902 359.519H444.005V358.479H444.976V365.212C444.976 365.774 444.848 366.232 444.593 366.584C444.34 366.939 443.999 367.199 443.57 367.364C443.144 367.532 442.669 367.615 442.147 367.615ZM442.113 364.019C442.516 364.019 442.857 363.926 443.135 363.742C443.414 363.557 443.625 363.291 443.77 362.945C443.915 362.598 443.988 362.184 443.988 361.701C443.988 361.229 443.917 360.813 443.774 360.452C443.632 360.091 443.422 359.809 443.144 359.604C442.865 359.399 442.522 359.297 442.113 359.297C441.686 359.297 441.331 359.405 441.047 359.621C440.766 359.837 440.554 360.127 440.412 360.49C440.273 360.854 440.203 361.257 440.203 361.701C440.203 362.155 440.274 362.557 440.417 362.907C440.561 363.253 440.774 363.526 441.056 363.725C441.34 363.921 441.692 364.019 442.113 364.019Z" fill="#8E8E8E"/>
<path d="M297.377 356.297H298.638L301.604 363.541H301.707L304.673 356.297H305.934V365.024H304.945V358.394H304.86L302.133 365.024H301.178L298.451 358.394H298.366V365.024H297.377V356.297ZM309.867 365.178C309.452 365.178 309.075 365.1 308.737 364.943C308.399 364.784 308.131 364.556 307.932 364.257C307.733 363.956 307.634 363.593 307.634 363.166C307.634 362.791 307.708 362.487 307.855 362.255C308.003 362.019 308.2 361.834 308.448 361.701C308.695 361.567 308.968 361.468 309.266 361.402C309.567 361.334 309.87 361.28 310.174 361.24C310.571 361.189 310.894 361.151 311.141 361.125C311.391 361.097 311.573 361.05 311.686 360.985C311.803 360.919 311.861 360.806 311.861 360.644V360.61C311.861 360.189 311.746 359.862 311.516 359.63C311.289 359.397 310.943 359.28 310.48 359.28C310 359.28 309.624 359.385 309.351 359.595C309.078 359.806 308.887 360.03 308.776 360.269L307.821 359.928C307.992 359.53 308.219 359.22 308.503 358.999C308.79 358.774 309.102 358.618 309.441 358.53C309.781 358.439 310.117 358.394 310.446 358.394C310.656 358.394 310.898 358.419 311.171 358.47C311.446 358.519 311.712 358.62 311.968 358.773C312.226 358.926 312.441 359.158 312.611 359.468C312.781 359.777 312.867 360.192 312.867 360.712V365.024H311.861V364.138H311.81C311.742 364.28 311.628 364.432 311.469 364.594C311.31 364.756 311.098 364.894 310.834 365.007C310.57 365.121 310.247 365.178 309.867 365.178ZM310.02 364.274C310.418 364.274 310.753 364.196 311.026 364.04C311.301 363.884 311.509 363.682 311.648 363.435C311.79 363.188 311.861 362.928 311.861 362.655V361.735C311.818 361.786 311.725 361.833 311.58 361.875C311.438 361.915 311.273 361.951 311.085 361.982C310.901 362.01 310.72 362.036 310.544 362.059C310.371 362.078 310.23 362.095 310.122 362.11C309.861 362.144 309.617 362.199 309.389 362.276C309.165 362.35 308.983 362.462 308.844 362.612C308.708 362.76 308.639 362.962 308.639 363.218C308.639 363.567 308.769 363.831 309.027 364.01C309.289 364.186 309.62 364.274 310.02 364.274ZM315.14 367.479C314.969 367.479 314.817 367.465 314.684 367.436C314.55 367.411 314.458 367.385 314.407 367.36L314.662 366.473C314.907 366.536 315.123 366.559 315.31 366.541C315.498 366.524 315.664 366.441 315.809 366.29C315.956 366.142 316.091 365.902 316.213 365.57L316.401 365.059L313.981 358.479H315.071L316.878 363.695H316.946L318.753 358.479H319.844L317.066 365.979C316.941 366.317 316.786 366.597 316.601 366.818C316.417 367.043 316.202 367.209 315.958 367.317C315.716 367.425 315.444 367.479 315.14 367.479Z" fill="#8E8E8E"/>
<path d="M344.596 356.297H345.653V362.536C345.653 363.093 345.551 363.566 345.346 363.955C345.141 364.344 344.853 364.639 344.481 364.841C344.109 365.043 343.67 365.144 343.164 365.144C342.687 365.144 342.262 365.057 341.89 364.884C341.518 364.708 341.225 364.458 341.012 364.134C340.799 363.81 340.693 363.425 340.693 362.979H341.732C341.732 363.226 341.793 363.442 341.916 363.627C342.041 363.809 342.211 363.951 342.427 364.053C342.643 364.155 342.889 364.206 343.164 364.206C343.468 364.206 343.727 364.142 343.94 364.014C344.153 363.887 344.315 363.699 344.426 363.452C344.539 363.202 344.596 362.897 344.596 362.536V356.297ZM351.783 362.348V358.479H352.789V365.024H351.783V363.916H351.715C351.562 364.249 351.323 364.532 350.999 364.764C350.675 364.995 350.266 365.11 349.772 365.11C349.363 365.11 348.999 365.02 348.681 364.841C348.363 364.659 348.113 364.387 347.931 364.023C347.749 363.657 347.658 363.195 347.658 362.638V358.479H348.664V362.57C348.664 363.047 348.798 363.428 349.065 363.712C349.334 363.996 349.678 364.138 350.096 364.138C350.346 364.138 350.6 364.074 350.859 363.946C351.12 363.818 351.339 363.622 351.515 363.358C351.694 363.094 351.783 362.757 351.783 362.348ZM355.661 361.087V365.024H354.655V358.479H355.627V359.502H355.712C355.865 359.169 356.098 358.902 356.411 358.701C356.723 358.496 357.127 358.394 357.621 358.394C358.064 358.394 358.452 358.485 358.784 358.666C359.117 358.845 359.375 359.118 359.56 359.485C359.744 359.848 359.837 360.309 359.837 360.865V365.024H358.831V360.934C358.831 360.419 358.698 360.019 358.431 359.732C358.164 359.442 357.797 359.297 357.331 359.297C357.01 359.297 356.723 359.367 356.47 359.506C356.22 359.645 356.023 359.848 355.878 360.115C355.733 360.382 355.661 360.706 355.661 361.087Z" fill="#8E8E8E"/>
<path d="M388.474 356.297H389.531V362.536C389.531 363.093 389.428 363.566 389.224 363.955C389.019 364.344 388.731 364.639 388.359 364.841C387.987 365.043 387.548 365.144 387.042 365.144C386.565 365.144 386.14 365.057 385.768 364.884C385.396 364.708 385.103 364.458 384.89 364.134C384.677 363.81 384.57 363.425 384.57 362.979H385.61C385.61 363.226 385.671 363.442 385.794 363.627C385.919 363.809 386.089 363.951 386.305 364.053C386.521 364.155 386.767 364.206 387.042 364.206C387.346 364.206 387.605 364.142 387.818 364.014C388.031 363.887 388.193 363.699 388.303 363.452C388.417 363.202 388.474 362.897 388.474 362.536V356.297ZM395.661 362.348V358.479H396.667V365.024H395.661V363.916H395.593C395.44 364.249 395.201 364.532 394.877 364.764C394.553 364.995 394.144 365.11 393.65 365.11C393.241 365.11 392.877 365.02 392.559 364.841C392.241 364.659 391.991 364.387 391.809 364.023C391.627 363.657 391.536 363.195 391.536 362.638V358.479H392.542V362.57C392.542 363.047 392.675 363.428 392.943 363.712C393.212 363.996 393.556 364.138 393.974 364.138C394.224 364.138 394.478 364.074 394.737 363.946C394.998 363.818 395.217 363.622 395.393 363.358C395.572 363.094 395.661 362.757 395.661 362.348ZM399.539 356.297V365.024H398.533V356.297H399.539Z" fill="#8E8E8E"/>
<path d="M473.162 358.479C473.11 358.047 472.903 357.712 472.539 357.473C472.176 357.235 471.73 357.115 471.201 357.115C470.815 357.115 470.477 357.178 470.187 357.303C469.9 357.428 469.676 357.6 469.514 357.818C469.355 358.037 469.275 358.286 469.275 358.564C469.275 358.797 469.331 358.997 469.441 359.165C469.555 359.33 469.7 359.468 469.876 359.578C470.052 359.686 470.237 359.776 470.43 359.847C470.623 359.915 470.801 359.97 470.963 360.013L471.849 360.252C472.076 360.311 472.329 360.394 472.608 360.499C472.889 360.604 473.157 360.747 473.413 360.929C473.672 361.108 473.885 361.338 474.052 361.62C474.22 361.901 474.304 362.246 474.304 362.655C474.304 363.127 474.18 363.553 473.933 363.934C473.689 364.314 473.331 364.617 472.859 364.841C472.39 365.066 471.821 365.178 471.15 365.178C470.525 365.178 469.984 365.077 469.527 364.875C469.072 364.674 468.714 364.392 468.453 364.032C468.194 363.671 468.048 363.252 468.014 362.774H469.105C469.133 363.104 469.244 363.377 469.437 363.593C469.633 363.806 469.88 363.965 470.179 364.07C470.48 364.172 470.804 364.223 471.15 364.223C471.554 364.223 471.916 364.158 472.237 364.027C472.558 363.894 472.812 363.709 473 363.473C473.187 363.235 473.281 362.956 473.281 362.638C473.281 362.348 473.2 362.112 473.038 361.931C472.876 361.749 472.663 361.601 472.399 361.487C472.135 361.374 471.849 361.274 471.542 361.189L470.468 360.882C469.787 360.686 469.247 360.407 468.849 360.043C468.451 359.679 468.252 359.203 468.252 358.615C468.252 358.127 468.385 357.701 468.649 357.337C468.916 356.97 469.274 356.686 469.723 356.485C470.174 356.28 470.679 356.178 471.235 356.178C471.798 356.178 472.298 356.279 472.735 356.48C473.173 356.679 473.52 356.952 473.775 357.299C474.034 357.645 474.17 358.039 474.184 358.479H473.162ZM478.673 365.161C478.042 365.161 477.498 365.022 477.041 364.743C476.587 364.462 476.236 364.07 475.988 363.567C475.744 363.061 475.622 362.473 475.622 361.803C475.622 361.132 475.744 360.541 475.988 360.03C476.236 359.516 476.579 359.115 477.02 358.828C477.463 358.539 477.98 358.394 478.571 358.394C478.912 358.394 479.248 358.451 479.581 358.564C479.913 358.678 480.216 358.862 480.488 359.118C480.761 359.371 480.979 359.706 481.14 360.124C481.302 360.541 481.383 361.056 481.383 361.666V362.093H476.338V361.223H480.361C480.361 360.854 480.287 360.524 480.139 360.235C479.994 359.945 479.787 359.716 479.517 359.549C479.25 359.381 478.935 359.297 478.571 359.297C478.17 359.297 477.824 359.397 477.531 359.595C477.241 359.791 477.018 360.047 476.862 360.362C476.706 360.678 476.628 361.016 476.628 361.377V361.956C476.628 362.451 476.713 362.87 476.883 363.213C477.057 363.554 477.297 363.814 477.604 363.993C477.91 364.169 478.267 364.257 478.673 364.257C478.937 364.257 479.176 364.22 479.389 364.147C479.605 364.07 479.791 363.956 479.947 363.806C480.104 363.652 480.224 363.462 480.31 363.235L481.281 363.507C481.179 363.837 481.007 364.127 480.765 364.377C480.524 364.624 480.226 364.817 479.871 364.956C479.515 365.093 479.116 365.161 478.673 365.161ZM482.937 367.479V358.479H483.909V359.519H484.028C484.102 359.405 484.204 359.26 484.335 359.084C484.468 358.905 484.659 358.746 484.906 358.607C485.156 358.465 485.494 358.394 485.92 358.394C486.471 358.394 486.957 358.532 487.378 358.807C487.798 359.083 488.126 359.473 488.362 359.979C488.598 360.485 488.716 361.081 488.716 361.769C488.716 362.462 488.598 363.063 488.362 363.571C488.126 364.077 487.799 364.469 487.382 364.747C486.964 365.023 486.483 365.161 485.937 365.161C485.517 365.161 485.18 365.091 484.927 364.952C484.674 364.81 484.48 364.649 484.343 364.47C484.207 364.289 484.102 364.138 484.028 364.019H483.943V367.479H482.937ZM483.926 361.752C483.926 362.246 483.998 362.682 484.143 363.06C484.288 363.435 484.5 363.729 484.778 363.942C485.057 364.152 485.397 364.257 485.801 364.257C486.221 364.257 486.572 364.147 486.853 363.925C487.137 363.701 487.351 363.399 487.493 363.022C487.637 362.641 487.71 362.218 487.71 361.752C487.71 361.291 487.639 360.877 487.497 360.507C487.358 360.135 487.146 359.841 486.862 359.625C486.581 359.407 486.227 359.297 485.801 359.297C485.392 359.297 485.048 359.401 484.77 359.608C484.491 359.813 484.281 360.1 484.139 360.469C483.997 360.835 483.926 361.263 483.926 361.752Z" fill="#8E8E8E"/>
<path d="M519.63 360.661C519.63 361.581 519.464 362.377 519.132 363.047C518.799 363.718 518.343 364.235 517.764 364.598C517.184 364.962 516.522 365.144 515.778 365.144C515.034 365.144 514.372 364.962 513.792 364.598C513.213 364.235 512.757 363.718 512.424 363.047C512.092 362.377 511.926 361.581 511.926 360.661C511.926 359.74 512.092 358.945 512.424 358.274C512.757 357.604 513.213 357.087 513.792 356.723C514.372 356.36 515.034 356.178 515.778 356.178C516.522 356.178 517.184 356.36 517.764 356.723C518.343 357.087 518.799 357.604 519.132 358.274C519.464 358.945 519.63 359.74 519.63 360.661ZM518.608 360.661C518.608 359.905 518.481 359.267 518.228 358.747C517.978 358.228 517.639 357.834 517.21 357.567C516.784 357.3 516.307 357.166 515.778 357.166C515.25 357.166 514.771 357.3 514.342 357.567C513.916 357.834 513.576 358.228 513.324 358.747C513.074 359.267 512.949 359.905 512.949 360.661C512.949 361.416 513.074 362.054 513.324 362.574C513.576 363.094 513.916 363.487 514.342 363.755C514.771 364.022 515.25 364.155 515.778 364.155C516.307 364.155 516.784 364.022 517.21 363.755C517.639 363.487 517.978 363.094 518.228 362.574C518.481 362.054 518.608 361.416 518.608 360.661ZM523.954 365.161C523.34 365.161 522.812 365.016 522.369 364.726C521.926 364.436 521.585 364.037 521.346 363.529C521.108 363.02 520.988 362.439 520.988 361.786C520.988 361.121 521.11 360.534 521.355 360.026C521.602 359.514 521.946 359.115 522.386 358.828C522.829 358.539 523.346 358.394 523.937 358.394C524.397 358.394 524.812 358.479 525.181 358.649C525.551 358.82 525.853 359.059 526.089 359.365C526.325 359.672 526.471 360.03 526.528 360.439H525.522C525.446 360.141 525.275 359.877 525.011 359.647C524.75 359.414 524.397 359.297 523.954 359.297C523.562 359.297 523.218 359.399 522.923 359.604C522.63 359.806 522.402 360.091 522.237 360.46C522.075 360.827 521.994 361.257 521.994 361.752C521.994 362.257 522.073 362.698 522.233 363.073C522.394 363.448 522.622 363.739 522.914 363.946C523.21 364.154 523.556 364.257 523.954 364.257C524.215 364.257 524.453 364.212 524.666 364.121C524.879 364.03 525.059 363.899 525.207 363.729C525.355 363.559 525.46 363.354 525.522 363.115H526.528C526.471 363.502 526.331 363.85 526.106 364.159C525.885 364.466 525.59 364.71 525.224 364.892C524.86 365.071 524.437 365.161 523.954 365.161ZM530.869 358.479V359.331H527.477V358.479H530.869ZM528.465 356.911H529.471V363.149C529.471 363.434 529.512 363.647 529.595 363.789C529.68 363.928 529.788 364.022 529.918 364.07C530.052 364.115 530.193 364.138 530.34 364.138C530.451 364.138 530.542 364.132 530.613 364.121C530.684 364.107 530.741 364.095 530.784 364.087L530.988 364.99C530.92 365.016 530.825 365.041 530.703 365.067C530.58 365.095 530.426 365.11 530.238 365.11C529.954 365.11 529.676 365.049 529.403 364.926C529.133 364.804 528.909 364.618 528.73 364.368C528.553 364.118 528.465 363.803 528.465 363.422V356.911Z" fill="#8E8E8E"/>
<rect x="45.4277" y="227.016" width="56.2539" height="25.8768" rx="12.9384" fill="#75C24A"/>
<path d="M67.0774 238.454C66.9837 238.167 66.8601 237.91 66.7067 237.683C66.5561 237.453 66.3757 237.257 66.1655 237.095C65.9581 236.933 65.7223 236.809 65.4581 236.724C65.1939 236.639 64.9041 236.596 64.5888 236.596C64.0717 236.596 63.6016 236.73 63.1783 236.997C62.755 237.264 62.4183 237.657 62.1683 238.177C61.9183 238.697 61.7933 239.335 61.7933 240.09C61.7933 240.846 61.9197 241.484 62.1726 242.004C62.4254 242.524 62.7678 242.917 63.1996 243.184C63.6314 243.451 64.1172 243.585 64.657 243.585C65.157 243.585 65.5973 243.478 65.978 243.265C66.3615 243.049 66.6598 242.745 66.8729 242.353C67.0888 241.958 67.1967 241.494 67.1967 240.96L67.5206 241.028H64.8956V240.09H68.2195V241.028C68.2195 241.747 68.0661 242.372 67.7592 242.903C67.4553 243.434 67.0348 243.846 66.4979 244.139C65.9638 244.429 65.3501 244.573 64.657 244.573C63.8842 244.573 63.2053 244.392 62.62 244.028C62.0376 243.664 61.5831 243.147 61.2564 242.477C60.9325 241.806 60.7706 241.011 60.7706 240.09C60.7706 239.4 60.8629 238.779 61.0476 238.228C61.2351 237.674 61.4993 237.203 61.8402 236.813C62.1811 236.424 62.5845 236.126 63.0504 235.919C63.5163 235.711 64.0291 235.608 64.5888 235.608C65.049 235.608 65.478 235.677 65.8757 235.816C66.2763 235.953 66.6328 236.147 66.9453 236.4C67.2607 236.65 67.5234 236.95 67.7337 237.299C67.9439 237.646 68.0888 238.031 68.1683 238.454H67.0774ZM72.6722 244.59C72.0813 244.59 71.5628 244.45 71.1168 244.169C70.6736 243.887 70.327 243.494 70.077 242.988C69.8299 242.483 69.7063 241.892 69.7063 241.215C69.7063 240.534 69.8299 239.938 70.077 239.43C70.327 238.921 70.6736 238.527 71.1168 238.245C71.5628 237.964 72.0813 237.823 72.6722 237.823C73.2631 237.823 73.7802 237.964 74.2233 238.245C74.6694 238.527 75.016 238.921 75.2631 239.43C75.5131 239.938 75.6381 240.534 75.6381 241.215C75.6381 241.892 75.5131 242.483 75.2631 242.988C75.016 243.494 74.6694 243.887 74.2233 244.169C73.7802 244.45 73.2631 244.59 72.6722 244.59ZM72.6722 243.687C73.1211 243.687 73.4904 243.572 73.7802 243.342C74.0699 243.112 74.2844 242.809 74.4236 242.434C74.5628 242.059 74.6324 241.653 74.6324 241.215C74.6324 240.778 74.5628 240.37 74.4236 239.992C74.2844 239.615 74.0699 239.309 73.7802 239.076C73.4904 238.843 73.1211 238.727 72.6722 238.727C72.2233 238.727 71.854 238.843 71.5642 239.076C71.2745 239.309 71.06 239.615 70.9208 239.992C70.7816 240.37 70.712 240.778 70.712 241.215C70.712 241.653 70.7816 242.059 70.9208 242.434C71.06 242.809 71.2745 243.112 71.5642 243.342C71.854 243.572 72.2233 243.687 72.6722 243.687ZM79.2194 244.608C78.8046 244.608 78.4282 244.529 78.0901 244.373C77.7521 244.214 77.4836 243.985 77.2847 243.687C77.0859 243.386 76.9864 243.022 76.9864 242.596C76.9864 242.221 77.0603 241.917 77.208 241.684C77.3558 241.448 77.5532 241.264 77.8004 241.13C78.0475 240.997 78.3203 240.897 78.6186 240.832C78.9197 240.764 79.2222 240.71 79.5262 240.67C79.9239 240.619 80.2464 240.581 80.4936 240.555C80.7436 240.527 80.9254 240.48 81.039 240.414C81.1555 240.349 81.2137 240.235 81.2137 240.073V240.039C81.2137 239.619 81.0987 239.292 80.8686 239.059C80.6413 238.826 80.2961 238.71 79.833 238.71C79.3529 238.71 78.9765 238.815 78.7038 239.025C78.4311 239.235 78.2393 239.46 78.1285 239.698L77.1739 239.358C77.3444 238.96 77.5717 238.65 77.8558 238.429C78.1427 238.204 78.4552 238.048 78.7933 237.96C79.1342 237.869 79.4694 237.823 79.7989 237.823C80.0092 237.823 80.2507 237.849 80.5234 237.9C80.7989 237.948 81.0646 238.049 81.3203 238.203C81.5788 238.356 81.7933 238.588 81.9637 238.897C82.1342 239.207 82.2194 239.622 82.2194 240.142V244.454H81.2137V243.568H81.1626C81.0944 243.71 80.9808 243.862 80.8217 244.024C80.6626 244.186 80.4509 244.323 80.1867 244.437C79.9225 244.551 79.6001 244.608 79.2194 244.608ZM79.3728 243.704C79.7705 243.704 80.1058 243.626 80.3785 243.47C80.6541 243.313 80.8614 243.112 81.0007 242.865C81.1427 242.617 81.2137 242.358 81.2137 242.085V241.164C81.1711 241.215 81.0774 241.262 80.9325 241.305C80.7904 241.345 80.6257 241.38 80.4382 241.411C80.2535 241.44 80.0731 241.465 79.897 241.488C79.7237 241.508 79.583 241.525 79.4751 241.539C79.2137 241.573 78.9694 241.629 78.7421 241.706C78.5177 241.779 78.3359 241.892 78.1967 242.042C78.0603 242.19 77.9921 242.392 77.9921 242.647C77.9921 242.997 78.1214 243.261 78.3799 243.44C78.6413 243.616 78.9722 243.704 79.3728 243.704ZM85.1807 235.727V244.454H84.175V235.727H85.1807Z" fill="white"/>
<rect x="45.4277" y="281.02" width="56.2539" height="25.8768" rx="12.9384" fill="#F3C316"/>
<path d="M60.6115 298.458V289.731H61.6683V297.521H65.7251V298.458H60.6115ZM67.3451 298.458V291.913H68.3508V298.458H67.3451ZM67.8565 290.822C67.6605 290.822 67.4914 290.755 67.3494 290.621C67.2102 290.488 67.1406 290.327 67.1406 290.14C67.1406 289.952 67.2102 289.792 67.3494 289.658C67.4914 289.525 67.6605 289.458 67.8565 289.458C68.0525 289.458 68.2201 289.525 68.3593 289.658C68.5014 289.792 68.5724 289.952 68.5724 290.14C68.5724 290.327 68.5014 290.488 68.3593 290.621C68.2201 290.755 68.0525 290.822 67.8565 290.822ZM70.3128 298.458V291.913H71.2844V292.935H71.3696C71.506 292.586 71.7262 292.315 72.0301 292.121C72.3341 291.925 72.6992 291.827 73.1253 291.827C73.5571 291.827 73.9165 291.925 74.2034 292.121C74.4932 292.315 74.719 292.586 74.881 292.935H74.9492C75.1168 292.597 75.3682 292.329 75.7034 292.13C76.0387 291.928 76.4406 291.827 76.9094 291.827C77.4946 291.827 77.9733 292.011 78.3455 292.377C78.7176 292.741 78.9037 293.307 78.9037 294.077V298.458H77.898V294.077C77.898 293.594 77.7659 293.249 77.5017 293.042C77.2375 292.834 76.9264 292.731 76.5685 292.731C76.1083 292.731 75.7517 292.87 75.4989 293.148C75.246 293.424 75.1196 293.773 75.1196 294.197V298.458H74.0969V293.975C74.0969 293.603 73.9762 293.303 73.7347 293.076C73.4932 292.846 73.1821 292.731 72.8014 292.731C72.5401 292.731 72.2958 292.8 72.0685 292.94C71.844 293.079 71.6622 293.272 71.523 293.519C71.3867 293.763 71.3185 294.046 71.3185 294.367V298.458H70.3128ZM80.8625 298.458V291.913H81.8682V298.458H80.8625ZM81.3739 290.822C81.1778 290.822 81.0088 290.755 80.8667 290.621C80.7275 290.488 80.6579 290.327 80.6579 290.14C80.6579 289.952 80.7275 289.792 80.8667 289.658C81.0088 289.525 81.1778 289.458 81.3739 289.458C81.5699 289.458 81.7375 289.525 81.8767 289.658C82.0187 289.792 82.0898 289.952 82.0898 290.14C82.0898 290.327 82.0187 290.488 81.8767 290.621C81.7375 290.755 81.5699 290.822 81.3739 290.822ZM86.6767 291.913V292.765H83.2847V291.913H86.6767ZM84.2733 290.344H85.279V296.583C85.279 296.867 85.3202 297.08 85.4026 297.222C85.4878 297.361 85.5958 297.455 85.7264 297.503C85.86 297.549 86.0006 297.572 86.1483 297.572C86.2591 297.572 86.35 297.566 86.4211 297.555C86.4921 297.54 86.5489 297.529 86.5915 297.521L86.7961 298.424C86.7279 298.449 86.6327 298.475 86.5105 298.501C86.3884 298.529 86.2336 298.543 86.0461 298.543C85.762 298.543 85.4836 298.482 85.2108 298.36C84.9409 298.238 84.7165 298.052 84.5375 297.802C84.3614 297.552 84.2733 297.236 84.2733 296.856V290.344Z" fill="white"/>
<path d="M94.415 295.276H553.447" stroke="#F3C316" stroke-width="1.2" stroke-linecap="round" stroke-linejoin="round" stroke-dasharray="1 3"/>
<path d="M94.415 240.147H553.447" stroke="#75C24A" stroke-width="1.2" stroke-linecap="round" stroke-linejoin="round" stroke-dasharray="1 3"/>
<path opacity="0.75" d="M254.508 344.136V215.477C254.508 209.108 259.434 203.853 265.632 203.853C271.829 203.853 276.755 209.108 276.755 215.477V344.136H254.508ZM234.01 344.136V244.457C234.01 238.088 229.084 232.833 222.887 232.833C216.69 232.833 211.764 238.088 211.764 244.457V344.136H234.01ZM191.424 344.136V233.948C191.424 227.579 186.498 222.324 180.301 222.324C174.104 222.324 169.178 227.579 169.178 233.948V344.136H191.424ZM319.34 344.136V209.426C319.34 203.057 314.414 197.802 308.217 197.802C302.02 197.802 297.094 203.057 297.094 209.426V343.976H319.34V344.136ZM361.926 344.136V239.839C361.926 233.47 357 228.215 350.803 228.215C344.606 228.215 339.68 233.47 339.68 239.839V343.976H361.926V344.136ZM404.671 344.136V289.36C404.671 282.991 399.745 277.736 393.548 277.736C387.35 277.736 382.424 282.991 382.424 289.36V344.136H404.671ZM447.256 344.136V215.477C447.256 209.108 442.33 203.853 436.133 203.853C429.936 203.853 425.01 209.108 425.01 215.477V344.136H447.256ZM490.001 344.136V201.942C490.001 195.573 485.075 190.318 478.878 190.318C472.681 190.318 467.755 195.573 467.755 201.942V344.136H490.001ZM532.587 344.136V239.839C532.587 233.47 527.661 228.215 521.464 228.215C515.266 228.215 510.34 233.47 510.34 239.839V343.976H532.587V344.136ZM148.68 343.658V201.624C148.68 195.255 143.754 190 137.557 190C131.36 190 126.434 195.255 126.434 201.624V343.817H148.68V343.658Z" fill="url(#paint0_linear_1778_766)"/>
<path d="M554.571 344.023H49.4111V345.149H554.571V344.023Z" fill="#E0E1E0"/>
<path d="M414.746 72.692C413.615 72.692 412.607 72.4467 411.722 71.956C410.847 71.4547 410.159 70.772 409.658 69.908C409.157 69.0333 408.906 68.036 408.906 66.916C408.906 65.7747 409.157 64.772 409.658 63.908C410.159 63.0333 410.847 62.3507 411.722 61.86C412.607 61.3587 413.615 61.108 414.746 61.108C415.397 61.108 416.005 61.2093 416.57 61.412C417.146 61.6147 417.663 61.892 418.122 62.244C418.581 62.5853 418.954 62.9853 419.242 63.444L417.738 64.404C417.535 64.0947 417.274 63.8173 416.954 63.572C416.634 63.3267 416.282 63.14 415.898 63.012C415.525 62.8733 415.141 62.804 414.746 62.804C413.978 62.804 413.295 62.98 412.698 63.332C412.111 63.684 411.647 64.1693 411.306 64.788C410.965 65.396 410.794 66.1053 410.794 66.916C410.794 67.7053 410.959 68.4093 411.29 69.028C411.631 69.6467 412.101 70.132 412.698 70.484C413.306 70.836 414.005 71.012 414.794 71.012C415.413 71.012 415.967 70.884 416.458 70.628C416.949 70.372 417.333 70.0147 417.61 69.556C417.898 69.0973 418.042 68.5693 418.042 67.972L419.818 67.748C419.818 68.7613 419.599 69.6413 419.162 70.388C418.735 71.124 418.138 71.6947 417.37 72.1C416.613 72.4947 415.738 72.692 414.746 72.692ZM415.354 68.116V66.612H419.818V67.86L418.826 68.116H415.354ZM426.906 72.692C425.797 72.692 424.815 72.4467 423.962 71.956C423.109 71.4653 422.437 70.7827 421.946 69.908C421.466 69.0333 421.226 68.0307 421.226 66.9C421.226 66.0467 421.365 65.268 421.642 64.564C421.919 63.86 422.309 63.252 422.81 62.74C423.311 62.2173 423.903 61.8173 424.586 61.54C425.279 61.252 426.037 61.108 426.858 61.108C427.967 61.108 428.943 61.3587 429.786 61.86C430.639 62.3507 431.301 63.0333 431.77 63.908C432.25 64.772 432.49 65.7693 432.49 66.9C432.49 68.0307 432.25 69.0333 431.77 69.908C431.301 70.7827 430.645 71.4653 429.802 71.956C428.97 72.4467 428.005 72.692 426.906 72.692ZM431.258 73.156L427.178 69.028L428.378 67.876L432.426 71.988L431.258 73.156ZM426.906 70.996C427.631 70.996 428.271 70.82 428.826 70.468C429.381 70.116 429.813 69.636 430.122 69.028C430.442 68.4093 430.602 67.7 430.602 66.9C430.602 66.1 430.442 65.396 430.122 64.788C429.802 64.1693 429.359 63.684 428.794 63.332C428.239 62.98 427.594 62.804 426.858 62.804C426.133 62.804 425.487 62.98 424.922 63.332C424.367 63.684 423.925 64.1693 423.594 64.788C423.274 65.396 423.114 66.1 423.114 66.9C423.114 67.7 423.274 68.4093 423.594 69.028C423.925 69.636 424.373 70.116 424.938 70.468C425.514 70.82 426.17 70.996 426.906 70.996ZM434.812 72.5V61.3H436.668V72.5H434.812Z" fill="#1A1919"/>
<circle cx="336" cy="94" r="5" fill="#59BE81"/>
<path d="M351.227 95.7727H352.386L353.358 97.0511L353.614 97.392L355.062 99.3182H353.903L352.949 98.0398L352.71 97.7159L351.227 95.7727ZM355.42 94.1364C355.42 95.0568 355.254 95.8523 354.922 96.5227C354.589 97.1932 354.134 97.7102 353.554 98.0739C352.974 98.4375 352.313 98.6193 351.568 98.6193C350.824 98.6193 350.162 98.4375 349.582 98.0739C349.003 97.7102 348.547 97.1932 348.214 96.5227C347.882 95.8523 347.716 95.0568 347.716 94.1364C347.716 93.2159 347.882 92.4205 348.214 91.75C348.547 91.0795 349.003 90.5625 349.582 90.1989C350.162 89.8352 350.824 89.6534 351.568 89.6534C352.313 89.6534 352.974 89.8352 353.554 90.1989C354.134 90.5625 354.589 91.0795 354.922 91.75C355.254 92.4205 355.42 93.2159 355.42 94.1364ZM354.398 94.1364C354.398 93.3807 354.271 92.7429 354.018 92.223C353.768 91.7031 353.429 91.3097 353 91.0426C352.574 90.7756 352.097 90.642 351.568 90.642C351.04 90.642 350.561 90.7756 350.132 91.0426C349.706 91.3097 349.366 91.7031 349.114 92.223C348.864 92.7429 348.739 93.3807 348.739 94.1364C348.739 94.892 348.864 95.5298 349.114 96.0497C349.366 96.5696 349.706 96.9631 350.132 97.2301C350.561 97.4972 351.04 97.6307 351.568 97.6307C352.097 97.6307 352.574 97.4972 353 97.2301C353.429 96.9631 353.768 96.5696 354.018 96.0497C354.271 95.5298 354.398 94.892 354.398 94.1364ZM359.84 98.6364C359.249 98.6364 358.731 98.4957 358.285 98.2145C357.842 97.9332 357.495 97.5398 357.245 97.0341C356.998 96.5284 356.874 95.9375 356.874 95.2614C356.874 94.5795 356.998 93.9844 357.245 93.4759C357.495 92.9673 357.842 92.5724 358.285 92.2912C358.731 92.0099 359.249 91.8693 359.84 91.8693C360.431 91.8693 360.948 92.0099 361.391 92.2912C361.837 92.5724 362.184 92.9673 362.431 93.4759C362.681 93.9844 362.806 94.5795 362.806 95.2614C362.806 95.9375 362.681 96.5284 362.431 97.0341C362.184 97.5398 361.837 97.9332 361.391 98.2145C360.948 98.4957 360.431 98.6364 359.84 98.6364ZM359.84 97.733C360.289 97.733 360.658 97.6179 360.948 97.3878C361.238 97.1577 361.452 96.8551 361.592 96.4801C361.731 96.1051 361.8 95.6989 361.8 95.2614C361.8 94.8239 361.731 94.4162 361.592 94.0384C361.452 93.6605 361.238 93.3551 360.948 93.1222C360.658 92.8892 360.289 92.7727 359.84 92.7727C359.391 92.7727 359.022 92.8892 358.732 93.1222C358.442 93.3551 358.228 93.6605 358.089 94.0384C357.95 94.4162 357.88 94.8239 357.88 95.2614C357.88 95.6989 357.95 96.1051 358.089 96.4801C358.228 96.8551 358.442 97.1577 358.732 97.3878C359.022 97.6179 359.391 97.733 359.84 97.733ZM369.37 91.9545C369.319 91.5227 369.112 91.1875 368.748 90.9489C368.385 90.7102 367.939 90.5909 367.41 90.5909C367.024 90.5909 366.686 90.6534 366.396 90.7784C366.109 90.9034 365.885 91.0753 365.723 91.294C365.564 91.5128 365.484 91.7614 365.484 92.0398C365.484 92.2727 365.539 92.473 365.65 92.6406C365.764 92.8054 365.909 92.9432 366.085 93.054C366.261 93.1619 366.446 93.2514 366.639 93.3224C366.832 93.3906 367.01 93.446 367.171 93.4886L368.058 93.7273C368.285 93.7869 368.538 93.8693 368.816 93.9744C369.098 94.0795 369.366 94.223 369.622 94.4048C369.88 94.5838 370.093 94.8139 370.261 95.0952C370.429 95.3764 370.512 95.7216 370.512 96.1307C370.512 96.6023 370.389 97.0284 370.142 97.4091C369.897 97.7898 369.539 98.0923 369.068 98.3168C368.599 98.5412 368.029 98.6534 367.359 98.6534C366.734 98.6534 366.193 98.5526 365.735 98.3509C365.281 98.1491 364.923 97.8679 364.662 97.5071C364.403 97.1463 364.257 96.7273 364.223 96.25H365.314C365.342 96.5795 365.453 96.8523 365.646 97.0682C365.842 97.2812 366.089 97.4403 366.387 97.5455C366.689 97.6477 367.012 97.6989 367.359 97.6989C367.762 97.6989 368.125 97.6335 368.446 97.5028C368.767 97.3693 369.021 97.1847 369.208 96.9489C369.396 96.7102 369.49 96.4318 369.49 96.1136C369.49 95.8239 369.409 95.5881 369.247 95.4062C369.085 95.2244 368.872 95.0767 368.608 94.9631C368.343 94.8494 368.058 94.75 367.751 94.6648L366.677 94.358C365.995 94.1619 365.456 93.8821 365.058 93.5185C364.66 93.1548 364.461 92.679 364.461 92.0909C364.461 91.6023 364.593 91.1761 364.858 90.8125C365.125 90.446 365.483 90.1619 365.931 89.9602C366.383 89.7557 366.887 89.6534 367.444 89.6534C368.007 89.6534 368.507 89.7543 368.944 89.956C369.382 90.1548 369.728 90.4276 369.984 90.7741C370.242 91.1207 370.379 91.5142 370.393 91.9545H369.37ZM377.655 98.6534C377.24 98.6534 376.864 98.5753 376.525 98.419C376.187 98.2599 375.919 98.0312 375.72 97.733C375.521 97.4318 375.422 97.0682 375.422 96.642C375.422 96.267 375.496 95.9631 375.643 95.7301C375.791 95.4943 375.989 95.3097 376.236 95.1761C376.483 95.0426 376.756 94.9432 377.054 94.8778C377.355 94.8097 377.658 94.7557 377.962 94.7159C378.359 94.6648 378.682 94.6264 378.929 94.6009C379.179 94.5724 379.361 94.5256 379.474 94.4602C379.591 94.3949 379.649 94.2812 379.649 94.1193V94.0852C379.649 93.6648 379.534 93.3381 379.304 93.1051C379.077 92.8722 378.731 92.7557 378.268 92.7557C377.788 92.7557 377.412 92.8608 377.139 93.071C376.866 93.2812 376.675 93.5057 376.564 93.7443L375.609 93.4034C375.78 93.0057 376.007 92.696 376.291 92.4744C376.578 92.25 376.891 92.0937 377.229 92.0057C377.569 91.9148 377.905 91.8693 378.234 91.8693C378.444 91.8693 378.686 91.8949 378.959 91.946C379.234 91.9943 379.5 92.0952 379.756 92.2486C380.014 92.402 380.229 92.6335 380.399 92.9432C380.569 93.2528 380.655 93.6676 380.655 94.1875V98.5H379.649V97.6136H379.598C379.53 97.7557 379.416 97.9077 379.257 98.0696C379.098 98.2315 378.886 98.3693 378.622 98.483C378.358 98.5966 378.035 98.6534 377.655 98.6534ZM377.808 97.75C378.206 97.75 378.541 97.6719 378.814 97.5156C379.089 97.3594 379.297 97.1577 379.436 96.9105C379.578 96.6634 379.649 96.4034 379.649 96.1307V95.2102C379.606 95.2614 379.513 95.3082 379.368 95.3509C379.226 95.3906 379.061 95.4261 378.873 95.4574C378.689 95.4858 378.508 95.5114 378.332 95.5341C378.159 95.554 378.018 95.571 377.91 95.5852C377.649 95.6193 377.405 95.6747 377.177 95.7514C376.953 95.8253 376.771 95.9375 376.632 96.0881C376.496 96.2358 376.427 96.4375 376.427 96.6932C376.427 97.0426 376.557 97.3068 376.815 97.4858C377.077 97.6619 377.408 97.75 377.808 97.75ZM382.747 98.5V89.7727H383.752V92.9943H383.838C383.911 92.8807 384.014 92.7358 384.144 92.5597C384.278 92.3807 384.468 92.2216 384.715 92.0824C384.965 91.9403 385.303 91.8693 385.73 91.8693C386.281 91.8693 386.767 92.0071 387.187 92.2827C387.607 92.5582 387.936 92.9489 388.171 93.4545C388.407 93.9602 388.525 94.5568 388.525 95.2443C388.525 95.9375 388.407 96.5384 388.171 97.0469C387.936 97.5526 387.609 97.9446 387.191 98.223C386.774 98.4986 386.292 98.6364 385.747 98.6364C385.326 98.6364 384.99 98.5668 384.737 98.4276C384.484 98.2855 384.289 98.125 384.153 97.946C384.017 97.7642 383.911 97.6136 383.838 97.4943H383.718V98.5H382.747ZM383.735 95.2273C383.735 95.7216 383.808 96.1577 383.953 96.5355C384.098 96.9105 384.309 97.2045 384.588 97.4176C384.866 97.6278 385.207 97.733 385.61 97.733C386.031 97.733 386.382 97.6222 386.663 97.4006C386.947 97.1761 387.16 96.875 387.302 96.4972C387.447 96.1165 387.519 95.6932 387.519 95.2273C387.519 94.767 387.448 94.3523 387.306 93.983C387.167 93.6108 386.955 93.3168 386.671 93.1009C386.39 92.8821 386.036 92.7727 385.61 92.7727C385.201 92.7727 384.857 92.8764 384.579 93.0838C384.301 93.2884 384.09 93.5753 383.948 93.9446C383.806 94.3111 383.735 94.7386 383.735 95.2273ZM392.843 98.6364C392.252 98.6364 391.733 98.4957 391.287 98.2145C390.844 97.9332 390.497 97.5398 390.247 97.0341C390 96.5284 389.877 95.9375 389.877 95.2614C389.877 94.5795 390 93.9844 390.247 93.4759C390.497 92.9673 390.844 92.5724 391.287 92.2912C391.733 92.0099 392.252 91.8693 392.843 91.8693C393.433 91.8693 393.95 92.0099 394.394 92.2912C394.84 92.5724 395.186 92.9673 395.433 93.4759C395.683 93.9844 395.808 94.5795 395.808 95.2614C395.808 95.9375 395.683 96.5284 395.433 97.0341C395.186 97.5398 394.84 97.9332 394.394 98.2145C393.95 98.4957 393.433 98.6364 392.843 98.6364ZM392.843 97.733C393.291 97.733 393.661 97.6179 393.95 97.3878C394.24 97.1577 394.455 96.8551 394.594 96.4801C394.733 96.1051 394.803 95.6989 394.803 95.2614C394.803 94.8239 394.733 94.4162 394.594 94.0384C394.455 93.6605 394.24 93.3551 393.95 93.1222C393.661 92.8892 393.291 92.7727 392.843 92.7727C392.394 92.7727 392.024 92.8892 391.735 93.1222C391.445 93.3551 391.23 93.6605 391.091 94.0384C390.952 94.4162 390.882 94.8239 390.882 95.2614C390.882 95.6989 390.952 96.1051 391.091 96.4801C391.23 96.8551 391.445 97.1577 391.735 97.3878C392.024 97.6179 392.394 97.733 392.843 97.733ZM402.581 91.9545L400.161 98.5H399.138L396.718 91.9545H397.809L399.616 97.1705H399.684L401.491 91.9545H402.581ZM406.539 98.6364C405.908 98.6364 405.364 98.4972 404.907 98.2188C404.452 97.9375 404.101 97.5455 403.854 97.0426C403.61 96.5369 403.488 95.9489 403.488 95.2784C403.488 94.608 403.61 94.017 403.854 93.5057C404.101 92.9915 404.445 92.5909 404.885 92.304C405.329 92.0142 405.846 91.8693 406.437 91.8693C406.777 91.8693 407.114 91.9261 407.447 92.0398C407.779 92.1534 408.081 92.3381 408.354 92.5938C408.627 92.8466 408.844 93.1818 409.006 93.5994C409.168 94.017 409.249 94.5312 409.249 95.142V95.5682H404.204V94.6989H408.226C408.226 94.3295 408.152 94 408.005 93.7102C407.86 93.4205 407.652 93.1918 407.383 93.0241C407.116 92.8565 406.8 92.7727 406.437 92.7727C406.036 92.7727 405.689 92.8722 405.397 93.071C405.107 93.267 404.884 93.5227 404.728 93.8381C404.572 94.1534 404.493 94.4915 404.493 94.8523V95.4318C404.493 95.9261 404.579 96.3452 404.749 96.6889C404.922 97.0298 405.162 97.2898 405.469 97.4688C405.776 97.6449 406.133 97.733 406.539 97.733C406.803 97.733 407.042 97.696 407.255 97.6222C407.471 97.5455 407.657 97.4318 407.813 97.2812C407.969 97.1278 408.09 96.9375 408.175 96.7102L409.147 96.983C409.045 97.3125 408.873 97.6023 408.631 97.8523C408.39 98.0994 408.091 98.2926 407.736 98.4318C407.381 98.5682 406.982 98.6364 406.539 98.6364ZM417.036 101.091C416.55 101.091 416.133 101.028 415.783 100.903C415.434 100.781 415.142 100.619 414.91 100.418C414.679 100.219 414.496 100.006 414.36 99.7784L415.161 99.2159C415.252 99.3352 415.367 99.4716 415.506 99.625C415.645 99.7812 415.836 99.9162 416.077 100.03C416.321 100.146 416.641 100.205 417.036 100.205C417.564 100.205 418 100.077 418.344 99.821C418.688 99.5653 418.86 99.1648 418.86 98.6193V97.2898H418.775C418.701 97.4091 418.596 97.5568 418.459 97.733C418.326 97.9062 418.133 98.0611 417.88 98.1974C417.63 98.331 417.292 98.3977 416.865 98.3977C416.337 98.3977 415.863 98.2727 415.442 98.0227C415.025 97.7727 414.694 97.4091 414.449 96.9318C414.208 96.4545 414.087 95.875 414.087 95.1932C414.087 94.5227 414.205 93.9389 414.441 93.4418C414.677 92.9418 415.005 92.5554 415.425 92.2827C415.846 92.0071 416.331 91.8693 416.883 91.8693C417.309 91.8693 417.647 91.9403 417.897 92.0824C418.15 92.2216 418.343 92.3807 418.476 92.5597C418.613 92.7358 418.718 92.8807 418.792 92.9943H418.894V91.9545H419.865V98.6875C419.865 99.25 419.738 99.7074 419.482 100.06C419.229 100.415 418.888 100.675 418.459 100.839C418.033 101.007 417.559 101.091 417.036 101.091ZM417.002 97.4943C417.405 97.4943 417.746 97.402 418.025 97.2173C418.303 97.0327 418.515 96.767 418.66 96.4205C418.804 96.0739 418.877 95.6591 418.877 95.1761C418.877 94.7045 418.806 94.2884 418.664 93.9276C418.522 93.5668 418.312 93.2841 418.033 93.0795C417.755 92.875 417.411 92.7727 417.002 92.7727C416.576 92.7727 416.221 92.8807 415.937 93.0966C415.655 93.3125 415.444 93.6023 415.302 93.9659C415.162 94.3295 415.093 94.733 415.093 95.1761C415.093 95.6307 415.164 96.0327 415.306 96.3821C415.451 96.7287 415.664 97.0014 415.945 97.2003C416.229 97.3963 416.581 97.4943 417.002 97.4943ZM424.485 98.6364C423.895 98.6364 423.376 98.4957 422.93 98.2145C422.487 97.9332 422.14 97.5398 421.89 97.0341C421.643 96.5284 421.52 95.9375 421.52 95.2614C421.52 94.5795 421.643 93.9844 421.89 93.4759C422.14 92.9673 422.487 92.5724 422.93 92.2912C423.376 92.0099 423.895 91.8693 424.485 91.8693C425.076 91.8693 425.593 92.0099 426.037 92.2912C426.483 92.5724 426.829 92.9673 427.076 93.4759C427.326 93.9844 427.451 94.5795 427.451 95.2614C427.451 95.9375 427.326 96.5284 427.076 97.0341C426.829 97.5398 426.483 97.9332 426.037 98.2145C425.593 98.4957 425.076 98.6364 424.485 98.6364ZM424.485 97.733C424.934 97.733 425.304 97.6179 425.593 97.3878C425.883 97.1577 426.098 96.8551 426.237 96.4801C426.376 96.1051 426.446 95.6989 426.446 95.2614C426.446 94.8239 426.376 94.4162 426.237 94.0384C426.098 93.6605 425.883 93.3551 425.593 93.1222C425.304 92.8892 424.934 92.7727 424.485 92.7727C424.037 92.7727 423.667 92.8892 423.378 93.1222C423.088 93.3551 422.873 93.6605 422.734 94.0384C422.595 94.4162 422.525 94.8239 422.525 95.2614C422.525 95.6989 422.595 96.1051 422.734 96.4801C422.873 96.8551 423.088 97.1577 423.378 97.3878C423.667 97.6179 424.037 97.733 424.485 97.733ZM431.033 98.6534C430.618 98.6534 430.241 98.5753 429.903 98.419C429.565 98.2599 429.297 98.0312 429.098 97.733C428.899 97.4318 428.8 97.0682 428.8 96.642C428.8 96.267 428.874 95.9631 429.021 95.7301C429.169 95.4943 429.366 95.3097 429.614 95.1761C429.861 95.0426 430.134 94.9432 430.432 94.8778C430.733 94.8097 431.036 94.7557 431.34 94.7159C431.737 94.6648 432.06 94.6264 432.307 94.6009C432.557 94.5724 432.739 94.5256 432.852 94.4602C432.969 94.3949 433.027 94.2812 433.027 94.1193V94.0852C433.027 93.6648 432.912 93.3381 432.682 93.1051C432.455 92.8722 432.109 92.7557 431.646 92.7557C431.166 92.7557 430.79 92.8608 430.517 93.071C430.244 93.2812 430.053 93.5057 429.942 93.7443L428.987 93.4034C429.158 93.0057 429.385 92.696 429.669 92.4744C429.956 92.25 430.268 92.0937 430.607 92.0057C430.947 91.9148 431.283 91.8693 431.612 91.8693C431.822 91.8693 432.064 91.8949 432.337 91.946C432.612 91.9943 432.878 92.0952 433.134 92.2486C433.392 92.402 433.607 92.6335 433.777 92.9432C433.947 93.2528 434.033 93.6676 434.033 94.1875V98.5H433.027V97.6136H432.976C432.908 97.7557 432.794 97.9077 432.635 98.0696C432.476 98.2315 432.264 98.3693 432 98.483C431.736 98.5966 431.413 98.6534 431.033 98.6534ZM431.186 97.75C431.584 97.75 431.919 97.6719 432.192 97.5156C432.467 97.3594 432.675 97.1577 432.814 96.9105C432.956 96.6634 433.027 96.4034 433.027 96.1307V95.2102C432.984 95.2614 432.891 95.3082 432.746 95.3509C432.604 95.3906 432.439 95.4261 432.251 95.4574C432.067 95.4858 431.886 95.5114 431.71 95.5341C431.537 95.554 431.396 95.571 431.288 95.5852C431.027 95.6193 430.783 95.6747 430.555 95.7514C430.331 95.8253 430.149 95.9375 430.01 96.0881C429.874 96.2358 429.805 96.4375 429.805 96.6932C429.805 97.0426 429.935 97.3068 430.193 97.4858C430.455 97.6619 430.786 97.75 431.186 97.75ZM436.994 89.7727V98.5H435.988V89.7727H436.994Z" fill="#1A1919"/>
<circle cx="268" cy="113" r="5" fill="#F6D364"/>
<path d="M283.227 114.773H284.386L285.358 116.051L285.614 116.392L287.062 118.318H285.903L284.949 117.04L284.71 116.716L283.227 114.773ZM287.42 113.136C287.42 114.057 287.254 114.852 286.922 115.523C286.589 116.193 286.134 116.71 285.554 117.074C284.974 117.438 284.313 117.619 283.568 117.619C282.824 117.619 282.162 117.438 281.582 117.074C281.003 116.71 280.547 116.193 280.214 115.523C279.882 114.852 279.716 114.057 279.716 113.136C279.716 112.216 279.882 111.42 280.214 110.75C280.547 110.08 281.003 109.562 281.582 109.199C282.162 108.835 282.824 108.653 283.568 108.653C284.313 108.653 284.974 108.835 285.554 109.199C286.134 109.562 286.589 110.08 286.922 110.75C287.254 111.42 287.42 112.216 287.42 113.136ZM286.398 113.136C286.398 112.381 286.271 111.743 286.018 111.223C285.768 110.703 285.429 110.31 285 110.043C284.574 109.776 284.097 109.642 283.568 109.642C283.04 109.642 282.561 109.776 282.132 110.043C281.706 110.31 281.366 110.703 281.114 111.223C280.864 111.743 280.739 112.381 280.739 113.136C280.739 113.892 280.864 114.53 281.114 115.05C281.366 115.57 281.706 115.963 282.132 116.23C282.561 116.497 283.04 116.631 283.568 116.631C284.097 116.631 284.574 116.497 285 116.23C285.429 115.963 285.768 115.57 286.018 115.05C286.271 114.53 286.398 113.892 286.398 113.136ZM291.84 117.636C291.249 117.636 290.731 117.496 290.285 117.214C289.842 116.933 289.495 116.54 289.245 116.034C288.998 115.528 288.874 114.937 288.874 114.261C288.874 113.58 288.998 112.984 289.245 112.476C289.495 111.967 289.842 111.572 290.285 111.291C290.731 111.01 291.249 110.869 291.84 110.869C292.431 110.869 292.948 111.01 293.391 111.291C293.837 111.572 294.184 111.967 294.431 112.476C294.681 112.984 294.806 113.58 294.806 114.261C294.806 114.937 294.681 115.528 294.431 116.034C294.184 116.54 293.837 116.933 293.391 117.214C292.948 117.496 292.431 117.636 291.84 117.636ZM291.84 116.733C292.289 116.733 292.658 116.618 292.948 116.388C293.238 116.158 293.452 115.855 293.592 115.48C293.731 115.105 293.8 114.699 293.8 114.261C293.8 113.824 293.731 113.416 293.592 113.038C293.452 112.661 293.238 112.355 292.948 112.122C292.658 111.889 292.289 111.773 291.84 111.773C291.391 111.773 291.022 111.889 290.732 112.122C290.442 112.355 290.228 112.661 290.089 113.038C289.95 113.416 289.88 113.824 289.88 114.261C289.88 114.699 289.95 115.105 290.089 115.48C290.228 115.855 290.442 116.158 290.732 116.388C291.022 116.618 291.391 116.733 291.84 116.733ZM301.37 110.955C301.319 110.523 301.112 110.188 300.748 109.949C300.385 109.71 299.939 109.591 299.41 109.591C299.024 109.591 298.686 109.653 298.396 109.778C298.109 109.903 297.885 110.075 297.723 110.294C297.564 110.513 297.484 110.761 297.484 111.04C297.484 111.273 297.539 111.473 297.65 111.641C297.764 111.805 297.909 111.943 298.085 112.054C298.261 112.162 298.446 112.251 298.639 112.322C298.832 112.391 299.01 112.446 299.171 112.489L300.058 112.727C300.285 112.787 300.538 112.869 300.816 112.974C301.098 113.08 301.366 113.223 301.622 113.405C301.88 113.584 302.093 113.814 302.261 114.095C302.429 114.376 302.512 114.722 302.512 115.131C302.512 115.602 302.389 116.028 302.142 116.409C301.897 116.79 301.539 117.092 301.068 117.317C300.599 117.541 300.029 117.653 299.359 117.653C298.734 117.653 298.193 117.553 297.735 117.351C297.281 117.149 296.923 116.868 296.662 116.507C296.403 116.146 296.257 115.727 296.223 115.25H297.314C297.342 115.58 297.453 115.852 297.646 116.068C297.842 116.281 298.089 116.44 298.387 116.545C298.689 116.648 299.012 116.699 299.359 116.699C299.762 116.699 300.125 116.634 300.446 116.503C300.767 116.369 301.021 116.185 301.208 115.949C301.396 115.71 301.49 115.432 301.49 115.114C301.49 114.824 301.409 114.588 301.247 114.406C301.085 114.224 300.872 114.077 300.608 113.963C300.343 113.849 300.058 113.75 299.751 113.665L298.677 113.358C297.995 113.162 297.456 112.882 297.058 112.518C296.66 112.155 296.461 111.679 296.461 111.091C296.461 110.602 296.593 110.176 296.858 109.812C297.125 109.446 297.483 109.162 297.931 108.96C298.383 108.756 298.887 108.653 299.444 108.653C300.007 108.653 300.507 108.754 300.944 108.956C301.382 109.155 301.728 109.428 301.984 109.774C302.242 110.121 302.379 110.514 302.393 110.955H301.37ZM307.865 117.5V108.773H308.871V111.994H308.956C309.03 111.881 309.132 111.736 309.263 111.56C309.396 111.381 309.587 111.222 309.834 111.082C310.084 110.94 310.422 110.869 310.848 110.869C311.399 110.869 311.885 111.007 312.305 111.283C312.726 111.558 313.054 111.949 313.29 112.455C313.525 112.96 313.643 113.557 313.643 114.244C313.643 114.938 313.525 115.538 313.29 116.047C313.054 116.553 312.727 116.945 312.31 117.223C311.892 117.499 311.41 117.636 310.865 117.636C310.444 117.636 310.108 117.567 309.855 117.428C309.602 117.286 309.408 117.125 309.271 116.946C309.135 116.764 309.03 116.614 308.956 116.494H308.837V117.5H307.865ZM308.854 114.227C308.854 114.722 308.926 115.158 309.071 115.536C309.216 115.911 309.427 116.205 309.706 116.418C309.984 116.628 310.325 116.733 310.729 116.733C311.149 116.733 311.5 116.622 311.781 116.401C312.065 116.176 312.278 115.875 312.42 115.497C312.565 115.116 312.638 114.693 312.638 114.227C312.638 113.767 312.567 113.352 312.425 112.983C312.285 112.611 312.074 112.317 311.79 112.101C311.508 111.882 311.155 111.773 310.729 111.773C310.319 111.773 309.976 111.876 309.697 112.084C309.419 112.288 309.209 112.575 309.067 112.945C308.925 113.311 308.854 113.739 308.854 114.227ZM318.046 117.636C317.415 117.636 316.871 117.497 316.414 117.219C315.959 116.938 315.609 116.545 315.361 116.043C315.117 115.537 314.995 114.949 314.995 114.278C314.995 113.608 315.117 113.017 315.361 112.506C315.609 111.991 315.952 111.591 316.393 111.304C316.836 111.014 317.353 110.869 317.944 110.869C318.285 110.869 318.621 110.926 318.954 111.04C319.286 111.153 319.589 111.338 319.861 111.594C320.134 111.847 320.351 112.182 320.513 112.599C320.675 113.017 320.756 113.531 320.756 114.142V114.568H315.711V113.699H319.734C319.734 113.33 319.66 113 319.512 112.71C319.367 112.42 319.16 112.192 318.89 112.024C318.623 111.857 318.307 111.773 317.944 111.773C317.543 111.773 317.197 111.872 316.904 112.071C316.614 112.267 316.391 112.523 316.235 112.838C316.079 113.153 316.001 113.491 316.001 113.852V114.432C316.001 114.926 316.086 115.345 316.256 115.689C316.43 116.03 316.67 116.29 316.976 116.469C317.283 116.645 317.64 116.733 318.046 116.733C318.31 116.733 318.549 116.696 318.762 116.622C318.978 116.545 319.164 116.432 319.32 116.281C319.476 116.128 319.597 115.937 319.682 115.71L320.654 115.983C320.552 116.312 320.38 116.602 320.138 116.852C319.897 117.099 319.599 117.293 319.243 117.432C318.888 117.568 318.489 117.636 318.046 117.636ZM325.253 110.955V111.807H321.861V110.955H325.253ZM322.849 109.386H323.855V115.625C323.855 115.909 323.896 116.122 323.979 116.264C324.064 116.403 324.172 116.497 324.302 116.545C324.436 116.591 324.577 116.614 324.724 116.614C324.835 116.614 324.926 116.608 324.997 116.597C325.068 116.582 325.125 116.571 325.167 116.562L325.372 117.466C325.304 117.491 325.209 117.517 325.086 117.543C324.964 117.571 324.809 117.585 324.622 117.585C324.338 117.585 324.059 117.524 323.787 117.402C323.517 117.28 323.292 117.094 323.113 116.844C322.937 116.594 322.849 116.278 322.849 115.898V109.386ZM328.368 117.5L326.374 110.955H327.431L328.846 115.966H328.914L330.312 110.955H331.385L332.766 115.949H332.834L334.249 110.955H335.306L333.312 117.5H332.323L330.891 112.472H330.789L329.357 117.5H328.368ZM339.277 117.636C338.646 117.636 338.102 117.497 337.645 117.219C337.19 116.938 336.84 116.545 336.592 116.043C336.348 115.537 336.226 114.949 336.226 114.278C336.226 113.608 336.348 113.017 336.592 112.506C336.84 111.991 337.183 111.591 337.624 111.304C338.067 111.014 338.584 110.869 339.175 110.869C339.516 110.869 339.852 110.926 340.185 111.04C340.517 111.153 340.82 111.338 341.092 111.594C341.365 111.847 341.583 112.182 341.744 112.599C341.906 113.017 341.987 113.531 341.987 114.142V114.568H336.942V113.699H340.965C340.965 113.33 340.891 113 340.743 112.71C340.598 112.42 340.391 112.192 340.121 112.024C339.854 111.857 339.538 111.773 339.175 111.773C338.774 111.773 338.428 111.872 338.135 112.071C337.845 112.267 337.622 112.523 337.466 112.838C337.31 113.153 337.232 113.491 337.232 113.852V114.432C337.232 114.926 337.317 115.345 337.487 115.689C337.661 116.03 337.901 116.29 338.208 116.469C338.514 116.645 338.871 116.733 339.277 116.733C339.541 116.733 339.78 116.696 339.993 116.622C340.209 116.545 340.395 116.432 340.551 116.281C340.708 116.128 340.828 115.937 340.913 115.71L341.885 115.983C341.783 116.312 341.611 116.602 341.369 116.852C341.128 117.099 340.83 117.293 340.475 117.432C340.119 117.568 339.72 117.636 339.277 117.636ZM346.381 117.636C345.751 117.636 345.207 117.497 344.749 117.219C344.295 116.938 343.944 116.545 343.697 116.043C343.453 115.537 343.33 114.949 343.33 114.278C343.33 113.608 343.453 113.017 343.697 112.506C343.944 111.991 344.288 111.591 344.728 111.304C345.171 111.014 345.688 110.869 346.279 110.869C346.62 110.869 346.957 110.926 347.289 111.04C347.622 111.153 347.924 111.338 348.197 111.594C348.47 111.847 348.687 112.182 348.849 112.599C349.011 113.017 349.092 113.531 349.092 114.142V114.568H344.046V113.699H348.069C348.069 113.33 347.995 113 347.847 112.71C347.703 112.42 347.495 112.192 347.225 112.024C346.958 111.857 346.643 111.773 346.279 111.773C345.879 111.773 345.532 111.872 345.239 112.071C344.95 112.267 344.727 112.523 344.57 112.838C344.414 113.153 344.336 113.491 344.336 113.852V114.432C344.336 114.926 344.421 115.345 344.592 115.689C344.765 116.03 345.005 116.29 345.312 116.469C345.619 116.645 345.975 116.733 346.381 116.733C346.646 116.733 346.884 116.696 347.097 116.622C347.313 116.545 347.499 116.432 347.656 116.281C347.812 116.128 347.933 115.937 348.018 115.71L348.989 115.983C348.887 116.312 348.715 116.602 348.474 116.852C348.232 117.099 347.934 117.293 347.579 117.432C347.224 117.568 346.825 117.636 346.381 117.636ZM351.747 113.562V117.5H350.742V110.955H351.713V111.977H351.798C351.952 111.645 352.185 111.378 352.497 111.176C352.81 110.972 353.213 110.869 353.707 110.869C354.151 110.869 354.538 110.96 354.871 111.142C355.203 111.321 355.462 111.594 355.646 111.96C355.831 112.324 355.923 112.784 355.923 113.341V117.5H354.918V113.409C354.918 112.895 354.784 112.494 354.517 112.207C354.25 111.918 353.884 111.773 353.418 111.773C353.097 111.773 352.81 111.842 352.557 111.982C352.307 112.121 352.109 112.324 351.965 112.591C351.82 112.858 351.747 113.182 351.747 113.562ZM364.018 120.091C363.532 120.091 363.115 120.028 362.765 119.903C362.416 119.781 362.125 119.619 361.892 119.418C361.662 119.219 361.478 119.006 361.342 118.778L362.143 118.216C362.234 118.335 362.349 118.472 362.488 118.625C362.628 118.781 362.818 118.916 363.059 119.03C363.304 119.146 363.623 119.205 364.018 119.205C364.547 119.205 364.983 119.077 365.326 118.821C365.67 118.565 365.842 118.165 365.842 117.619V116.29H365.757C365.683 116.409 365.578 116.557 365.441 116.733C365.308 116.906 365.115 117.061 364.862 117.197C364.612 117.331 364.274 117.398 363.848 117.398C363.319 117.398 362.845 117.273 362.424 117.023C362.007 116.773 361.676 116.409 361.431 115.932C361.19 115.455 361.069 114.875 361.069 114.193C361.069 113.523 361.187 112.939 361.423 112.442C361.659 111.942 361.987 111.555 362.407 111.283C362.828 111.007 363.314 110.869 363.865 110.869C364.291 110.869 364.629 110.94 364.879 111.082C365.132 111.222 365.325 111.381 365.458 111.56C365.595 111.736 365.7 111.881 365.774 111.994H365.876V110.955H366.848V117.688C366.848 118.25 366.72 118.707 366.464 119.06C366.211 119.415 365.87 119.675 365.441 119.839C365.015 120.007 364.541 120.091 364.018 120.091ZM363.984 116.494C364.387 116.494 364.728 116.402 365.007 116.217C365.285 116.033 365.497 115.767 365.642 115.42C365.787 115.074 365.859 114.659 365.859 114.176C365.859 113.705 365.788 113.288 365.646 112.928C365.504 112.567 365.294 112.284 365.015 112.08C364.737 111.875 364.393 111.773 363.984 111.773C363.558 111.773 363.203 111.881 362.919 112.097C362.637 112.312 362.426 112.602 362.284 112.966C362.145 113.33 362.075 113.733 362.075 114.176C362.075 114.631 362.146 115.033 362.288 115.382C362.433 115.729 362.646 116.001 362.927 116.2C363.211 116.396 363.564 116.494 363.984 116.494ZM371.468 117.636C370.877 117.636 370.358 117.496 369.912 117.214C369.469 116.933 369.122 116.54 368.872 116.034C368.625 115.528 368.502 114.937 368.502 114.261C368.502 113.58 368.625 112.984 368.872 112.476C369.122 111.967 369.469 111.572 369.912 111.291C370.358 111.01 370.877 110.869 371.468 110.869C372.059 110.869 372.576 111.01 373.019 111.291C373.465 111.572 373.811 111.967 374.059 112.476C374.309 112.984 374.434 113.58 374.434 114.261C374.434 114.937 374.309 115.528 374.059 116.034C373.811 116.54 373.465 116.933 373.019 117.214C372.576 117.496 372.059 117.636 371.468 117.636ZM371.468 116.733C371.917 116.733 372.286 116.618 372.576 116.388C372.865 116.158 373.08 115.855 373.219 115.48C373.358 115.105 373.428 114.699 373.428 114.261C373.428 113.824 373.358 113.416 373.219 113.038C373.08 112.661 372.865 112.355 372.576 112.122C372.286 111.889 371.917 111.773 371.468 111.773C371.019 111.773 370.649 111.889 370.36 112.122C370.07 112.355 369.855 112.661 369.716 113.038C369.577 113.416 369.507 113.824 369.507 114.261C369.507 114.699 369.577 115.105 369.716 115.48C369.855 115.855 370.07 116.158 370.36 116.388C370.649 116.618 371.019 116.733 371.468 116.733ZM378.015 117.653C377.6 117.653 377.224 117.575 376.886 117.419C376.548 117.26 376.279 117.031 376.08 116.733C375.881 116.432 375.782 116.068 375.782 115.642C375.782 115.267 375.856 114.963 376.004 114.73C376.151 114.494 376.349 114.31 376.596 114.176C376.843 114.043 377.116 113.943 377.414 113.878C377.715 113.81 378.018 113.756 378.322 113.716C378.719 113.665 379.042 113.626 379.289 113.601C379.539 113.572 379.721 113.526 379.834 113.46C379.951 113.395 380.009 113.281 380.009 113.119V113.085C380.009 112.665 379.894 112.338 379.664 112.105C379.437 111.872 379.092 111.756 378.629 111.756C378.148 111.756 377.772 111.861 377.499 112.071C377.227 112.281 377.035 112.506 376.924 112.744L375.969 112.403C376.14 112.006 376.367 111.696 376.651 111.474C376.938 111.25 377.251 111.094 377.589 111.006C377.93 110.915 378.265 110.869 378.594 110.869C378.805 110.869 379.046 110.895 379.319 110.946C379.594 110.994 379.86 111.095 380.116 111.249C380.374 111.402 380.589 111.634 380.759 111.943C380.93 112.253 381.015 112.668 381.015 113.188V117.5H380.009V116.614H379.958C379.89 116.756 379.776 116.908 379.617 117.07C379.458 117.232 379.246 117.369 378.982 117.483C378.718 117.597 378.396 117.653 378.015 117.653ZM378.168 116.75C378.566 116.75 378.901 116.672 379.174 116.516C379.45 116.359 379.657 116.158 379.796 115.911C379.938 115.663 380.009 115.403 380.009 115.131V114.21C379.967 114.261 379.873 114.308 379.728 114.351C379.586 114.391 379.421 114.426 379.234 114.457C379.049 114.486 378.869 114.511 378.692 114.534C378.519 114.554 378.379 114.571 378.271 114.585C378.009 114.619 377.765 114.675 377.538 114.751C377.313 114.825 377.131 114.937 376.992 115.088C376.856 115.236 376.788 115.437 376.788 115.693C376.788 116.043 376.917 116.307 377.175 116.486C377.437 116.662 377.768 116.75 378.168 116.75ZM383.976 108.773V117.5H382.97V108.773H383.976ZM391.359 117.653C390.944 117.653 390.568 117.575 390.23 117.419C389.892 117.26 389.623 117.031 389.425 116.733C389.226 116.432 389.126 116.068 389.126 115.642C389.126 115.267 389.2 114.963 389.348 114.73C389.496 114.494 389.693 114.31 389.94 114.176C390.187 114.043 390.46 113.943 390.758 113.878C391.06 113.81 391.362 113.756 391.666 113.716C392.064 113.665 392.386 113.626 392.633 113.601C392.883 113.572 393.065 113.526 393.179 113.46C393.295 113.395 393.354 113.281 393.354 113.119V113.085C393.354 112.665 393.239 112.338 393.008 112.105C392.781 111.872 392.436 111.756 391.973 111.756C391.493 111.756 391.116 111.861 390.844 112.071C390.571 112.281 390.379 112.506 390.268 112.744L389.314 112.403C389.484 112.006 389.712 111.696 389.996 111.474C390.283 111.25 390.595 111.094 390.933 111.006C391.274 110.915 391.609 110.869 391.939 110.869C392.149 110.869 392.39 110.895 392.663 110.946C392.939 110.994 393.204 111.095 393.46 111.249C393.719 111.402 393.933 111.634 394.104 111.943C394.274 112.253 394.359 112.668 394.359 113.188V117.5H393.354V116.614H393.302C393.234 116.756 393.121 116.908 392.962 117.07C392.802 117.232 392.591 117.369 392.327 117.483C392.062 117.597 391.74 117.653 391.359 117.653ZM391.513 116.75C391.91 116.75 392.246 116.672 392.518 116.516C392.794 116.359 393.001 116.158 393.14 115.911C393.283 115.663 393.354 115.403 393.354 115.131V114.21C393.311 114.261 393.217 114.308 393.072 114.351C392.93 114.391 392.765 114.426 392.578 114.457C392.393 114.486 392.213 114.511 392.037 114.534C391.864 114.554 391.723 114.571 391.615 114.585C391.354 114.619 391.109 114.675 390.882 114.751C390.658 114.825 390.476 114.937 390.337 115.088C390.2 115.236 390.132 115.437 390.132 115.693C390.132 116.043 390.261 116.307 390.52 116.486C390.781 116.662 391.112 116.75 391.513 116.75ZM397.321 113.562V117.5H396.315V110.955H397.286V111.977H397.372C397.525 111.645 397.758 111.378 398.071 111.176C398.383 110.972 398.786 110.869 399.281 110.869C399.724 110.869 400.112 110.96 400.444 111.142C400.776 111.321 401.035 111.594 401.22 111.96C401.404 112.324 401.497 112.784 401.497 113.341V117.5H400.491V113.409C400.491 112.895 400.357 112.494 400.09 112.207C399.823 111.918 399.457 111.773 398.991 111.773C398.67 111.773 398.383 111.842 398.13 111.982C397.88 112.121 397.683 112.324 397.538 112.591C397.393 112.858 397.321 113.182 397.321 113.562ZM405.926 117.636C405.38 117.636 404.899 117.499 404.481 117.223C404.064 116.945 403.737 116.553 403.501 116.047C403.265 115.538 403.148 114.938 403.148 114.244C403.148 113.557 403.265 112.96 403.501 112.455C403.737 111.949 404.065 111.558 404.486 111.283C404.906 111.007 405.392 110.869 405.943 110.869C406.369 110.869 406.706 110.94 406.953 111.082C407.203 111.222 407.393 111.381 407.524 111.56C407.657 111.736 407.761 111.881 407.835 111.994H407.92V108.773H408.926V117.5H407.954V116.494H407.835C407.761 116.614 407.656 116.764 407.52 116.946C407.383 117.125 407.189 117.286 406.936 117.428C406.683 117.567 406.346 117.636 405.926 117.636ZM406.062 116.733C406.466 116.733 406.807 116.628 407.085 116.418C407.363 116.205 407.575 115.911 407.72 115.536C407.865 115.158 407.937 114.722 407.937 114.227C407.937 113.739 407.866 113.311 407.724 112.945C407.582 112.575 407.372 112.288 407.094 112.084C406.815 111.876 406.471 111.773 406.062 111.773C405.636 111.773 405.281 111.882 404.997 112.101C404.716 112.317 404.504 112.611 404.362 112.983C404.223 113.352 404.153 113.767 404.153 114.227C404.153 114.693 404.224 115.116 404.366 115.497C404.511 115.875 404.724 116.176 405.005 116.401C405.29 116.622 405.642 116.733 406.062 116.733ZM415.528 108.773V117.5H414.522V108.773H415.528ZM417.49 117.5V110.955H418.496V117.5H417.49ZM418.002 109.864C417.805 109.864 417.636 109.797 417.494 109.663C417.355 109.53 417.286 109.369 417.286 109.182C417.286 108.994 417.355 108.834 417.494 108.7C417.636 108.567 417.805 108.5 418.002 108.5C418.198 108.5 418.365 108.567 418.504 108.7C418.646 108.834 418.717 108.994 418.717 109.182C418.717 109.369 418.646 109.53 418.504 109.663C418.365 109.797 418.198 109.864 418.002 109.864ZM420.458 117.5V110.955H421.429V111.977H421.515C421.651 111.628 421.871 111.357 422.175 111.163C422.479 110.967 422.844 110.869 423.27 110.869C423.702 110.869 424.061 110.967 424.348 111.163C424.638 111.357 424.864 111.628 425.026 111.977H425.094C425.262 111.639 425.513 111.371 425.848 111.172C426.184 110.97 426.586 110.869 427.054 110.869C427.64 110.869 428.118 111.053 428.49 111.419C428.863 111.783 429.049 112.349 429.049 113.119V117.5H428.043V113.119C428.043 112.636 427.911 112.291 427.647 112.084C427.383 111.876 427.071 111.773 426.713 111.773C426.253 111.773 425.897 111.912 425.644 112.19C425.391 112.466 425.265 112.815 425.265 113.239V117.5H424.242V113.017C424.242 112.645 424.121 112.345 423.88 112.118C423.638 111.888 423.327 111.773 422.946 111.773C422.685 111.773 422.441 111.842 422.213 111.982C421.989 112.121 421.807 112.314 421.668 112.561C421.532 112.805 421.463 113.088 421.463 113.409V117.5H420.458ZM431.007 117.5V110.955H432.013V117.5H431.007ZM431.519 109.864C431.323 109.864 431.154 109.797 431.012 109.663C430.873 109.53 430.803 109.369 430.803 109.182C430.803 108.994 430.873 108.834 431.012 108.7C431.154 108.567 431.323 108.5 431.519 108.5C431.715 108.5 431.882 108.567 432.022 108.7C432.164 108.834 432.235 108.994 432.235 109.182C432.235 109.369 432.164 109.53 432.022 109.663C431.882 109.797 431.715 109.864 431.519 109.864ZM436.822 110.955V111.807H433.43V110.955H436.822ZM434.418 109.386H435.424V115.625C435.424 115.909 435.465 116.122 435.548 116.264C435.633 116.403 435.741 116.497 435.871 116.545C436.005 116.591 436.146 116.614 436.293 116.614C436.404 116.614 436.495 116.608 436.566 116.597C436.637 116.582 436.694 116.571 436.737 116.562L436.941 117.466C436.873 117.491 436.778 117.517 436.656 117.543C436.533 117.571 436.379 117.585 436.191 117.585C435.907 117.585 435.629 117.524 435.356 117.402C435.086 117.28 434.862 117.094 434.683 116.844C434.506 116.594 434.418 116.278 434.418 115.898V109.386Z" fill="#1A1919"/>
<circle cx="338" cy="132" r="5" fill="#FF5460"/>
<path d="M352.227 133.773H353.386L354.358 135.051L354.614 135.392L356.062 137.318H354.903L353.949 136.04L353.71 135.716L352.227 133.773ZM356.42 132.136C356.42 133.057 356.254 133.852 355.922 134.523C355.589 135.193 355.134 135.71 354.554 136.074C353.974 136.438 353.313 136.619 352.568 136.619C351.824 136.619 351.162 136.438 350.582 136.074C350.003 135.71 349.547 135.193 349.214 134.523C348.882 133.852 348.716 133.057 348.716 132.136C348.716 131.216 348.882 130.42 349.214 129.75C349.547 129.08 350.003 128.562 350.582 128.199C351.162 127.835 351.824 127.653 352.568 127.653C353.313 127.653 353.974 127.835 354.554 128.199C355.134 128.562 355.589 129.08 355.922 129.75C356.254 130.42 356.42 131.216 356.42 132.136ZM355.398 132.136C355.398 131.381 355.271 130.743 355.018 130.223C354.768 129.703 354.429 129.31 354 129.043C353.574 128.776 353.097 128.642 352.568 128.642C352.04 128.642 351.561 128.776 351.132 129.043C350.706 129.31 350.366 129.703 350.114 130.223C349.864 130.743 349.739 131.381 349.739 132.136C349.739 132.892 349.864 133.53 350.114 134.05C350.366 134.57 350.706 134.963 351.132 135.23C351.561 135.497 352.04 135.631 352.568 135.631C353.097 135.631 353.574 135.497 354 135.23C354.429 134.963 354.768 134.57 355.018 134.05C355.271 133.53 355.398 132.892 355.398 132.136ZM360.84 136.636C360.249 136.636 359.731 136.496 359.285 136.214C358.842 135.933 358.495 135.54 358.245 135.034C357.998 134.528 357.874 133.937 357.874 133.261C357.874 132.58 357.998 131.984 358.245 131.476C358.495 130.967 358.842 130.572 359.285 130.291C359.731 130.01 360.249 129.869 360.84 129.869C361.431 129.869 361.948 130.01 362.391 130.291C362.837 130.572 363.184 130.967 363.431 131.476C363.681 131.984 363.806 132.58 363.806 133.261C363.806 133.937 363.681 134.528 363.431 135.034C363.184 135.54 362.837 135.933 362.391 136.214C361.948 136.496 361.431 136.636 360.84 136.636ZM360.84 135.733C361.289 135.733 361.658 135.618 361.948 135.388C362.238 135.158 362.452 134.855 362.592 134.48C362.731 134.105 362.8 133.699 362.8 133.261C362.8 132.824 362.731 132.416 362.592 132.038C362.452 131.661 362.238 131.355 361.948 131.122C361.658 130.889 361.289 130.773 360.84 130.773C360.391 130.773 360.022 130.889 359.732 131.122C359.442 131.355 359.228 131.661 359.089 132.038C358.95 132.416 358.88 132.824 358.88 133.261C358.88 133.699 358.95 134.105 359.089 134.48C359.228 134.855 359.442 135.158 359.732 135.388C360.022 135.618 360.391 135.733 360.84 135.733ZM370.37 129.955C370.319 129.523 370.112 129.188 369.748 128.949C369.385 128.71 368.939 128.591 368.41 128.591C368.024 128.591 367.686 128.653 367.396 128.778C367.109 128.903 366.885 129.075 366.723 129.294C366.564 129.513 366.484 129.761 366.484 130.04C366.484 130.273 366.539 130.473 366.65 130.641C366.764 130.805 366.909 130.943 367.085 131.054C367.261 131.162 367.446 131.251 367.639 131.322C367.832 131.391 368.01 131.446 368.171 131.489L369.058 131.727C369.285 131.787 369.538 131.869 369.816 131.974C370.098 132.08 370.366 132.223 370.622 132.405C370.88 132.584 371.093 132.814 371.261 133.095C371.429 133.376 371.512 133.722 371.512 134.131C371.512 134.602 371.389 135.028 371.142 135.409C370.897 135.79 370.539 136.092 370.068 136.317C369.599 136.541 369.029 136.653 368.359 136.653C367.734 136.653 367.193 136.553 366.735 136.351C366.281 136.149 365.923 135.868 365.662 135.507C365.403 135.146 365.257 134.727 365.223 134.25H366.314C366.342 134.58 366.453 134.852 366.646 135.068C366.842 135.281 367.089 135.44 367.387 135.545C367.689 135.648 368.012 135.699 368.359 135.699C368.762 135.699 369.125 135.634 369.446 135.503C369.767 135.369 370.021 135.185 370.208 134.949C370.396 134.71 370.49 134.432 370.49 134.114C370.49 133.824 370.409 133.588 370.247 133.406C370.085 133.224 369.872 133.077 369.608 132.963C369.343 132.849 369.058 132.75 368.751 132.665L367.677 132.358C366.995 132.162 366.456 131.882 366.058 131.518C365.66 131.155 365.461 130.679 365.461 130.091C365.461 129.602 365.593 129.176 365.858 128.812C366.125 128.446 366.483 128.162 366.931 127.96C367.383 127.756 367.887 127.653 368.444 127.653C369.007 127.653 369.507 127.754 369.944 127.956C370.382 128.155 370.728 128.428 370.984 128.774C371.242 129.121 371.379 129.514 371.393 129.955H370.37ZM376.865 136.5V127.773H377.871V130.994H377.956C378.03 130.881 378.132 130.736 378.263 130.56C378.396 130.381 378.587 130.222 378.834 130.082C379.084 129.94 379.422 129.869 379.848 129.869C380.399 129.869 380.885 130.007 381.305 130.283C381.726 130.558 382.054 130.949 382.29 131.455C382.525 131.96 382.643 132.557 382.643 133.244C382.643 133.938 382.525 134.538 382.29 135.047C382.054 135.553 381.727 135.945 381.31 136.223C380.892 136.499 380.41 136.636 379.865 136.636C379.444 136.636 379.108 136.567 378.855 136.428C378.602 136.286 378.408 136.125 378.271 135.946C378.135 135.764 378.03 135.614 377.956 135.494H377.837V136.5H376.865ZM377.854 133.227C377.854 133.722 377.926 134.158 378.071 134.536C378.216 134.911 378.427 135.205 378.706 135.418C378.984 135.628 379.325 135.733 379.729 135.733C380.149 135.733 380.5 135.622 380.781 135.401C381.065 135.176 381.278 134.875 381.42 134.497C381.565 134.116 381.638 133.693 381.638 133.227C381.638 132.767 381.567 132.352 381.425 131.983C381.285 131.611 381.074 131.317 380.79 131.101C380.508 130.882 380.155 130.773 379.729 130.773C379.319 130.773 378.976 130.876 378.697 131.084C378.419 131.288 378.209 131.575 378.067 131.945C377.925 132.311 377.854 132.739 377.854 133.227ZM387.046 136.636C386.415 136.636 385.871 136.497 385.414 136.219C384.959 135.938 384.609 135.545 384.361 135.043C384.117 134.537 383.995 133.949 383.995 133.278C383.995 132.608 384.117 132.017 384.361 131.506C384.609 130.991 384.952 130.591 385.393 130.304C385.836 130.014 386.353 129.869 386.944 129.869C387.285 129.869 387.621 129.926 387.954 130.04C388.286 130.153 388.589 130.338 388.861 130.594C389.134 130.847 389.351 131.182 389.513 131.599C389.675 132.017 389.756 132.531 389.756 133.142V133.568H384.711V132.699H388.734C388.734 132.33 388.66 132 388.512 131.71C388.367 131.42 388.16 131.192 387.89 131.024C387.623 130.857 387.307 130.773 386.944 130.773C386.543 130.773 386.197 130.872 385.904 131.071C385.614 131.267 385.391 131.523 385.235 131.838C385.079 132.153 385.001 132.491 385.001 132.852V133.432C385.001 133.926 385.086 134.345 385.256 134.689C385.43 135.03 385.67 135.29 385.976 135.469C386.283 135.645 386.64 135.733 387.046 135.733C387.31 135.733 387.549 135.696 387.762 135.622C387.978 135.545 388.164 135.432 388.32 135.281C388.476 135.128 388.597 134.937 388.682 134.71L389.654 134.983C389.552 135.312 389.38 135.602 389.138 135.852C388.897 136.099 388.599 136.293 388.243 136.432C387.888 136.568 387.489 136.636 387.046 136.636ZM392.412 127.773V136.5H391.406V127.773H392.412ZM397.033 136.636C396.442 136.636 395.923 136.496 395.477 136.214C395.034 135.933 394.688 135.54 394.438 135.034C394.19 134.528 394.067 133.937 394.067 133.261C394.067 132.58 394.19 131.984 394.438 131.476C394.688 130.967 395.034 130.572 395.477 130.291C395.923 130.01 396.442 129.869 397.033 129.869C397.624 129.869 398.141 130.01 398.584 130.291C399.03 130.572 399.377 130.967 399.624 131.476C399.874 131.984 399.999 132.58 399.999 133.261C399.999 133.937 399.874 134.528 399.624 135.034C399.377 135.54 399.03 135.933 398.584 136.214C398.141 136.496 397.624 136.636 397.033 136.636ZM397.033 135.733C397.482 135.733 397.851 135.618 398.141 135.388C398.431 135.158 398.645 134.855 398.784 134.48C398.923 134.105 398.993 133.699 398.993 133.261C398.993 132.824 398.923 132.416 398.784 132.038C398.645 131.661 398.431 131.355 398.141 131.122C397.851 130.889 397.482 130.773 397.033 130.773C396.584 130.773 396.215 130.889 395.925 131.122C395.635 131.355 395.421 131.661 395.281 132.038C395.142 132.416 395.073 132.824 395.073 133.261C395.073 133.699 395.142 134.105 395.281 134.48C395.421 134.855 395.635 135.158 395.925 135.388C396.215 135.618 396.584 135.733 397.033 135.733ZM402.914 136.5L400.92 129.955H401.977L403.391 134.966H403.46L404.857 129.955H405.931L407.312 134.949H407.38L408.795 129.955H409.852L407.857 136.5H406.869L405.437 131.472H405.335L403.903 136.5H402.914ZM415.802 127.773V136.5H414.796V127.773H415.802ZM417.764 136.5V129.955H418.77V136.5H417.764ZM418.275 128.864C418.079 128.864 417.91 128.797 417.768 128.663C417.629 128.53 417.559 128.369 417.559 128.182C417.559 127.994 417.629 127.834 417.768 127.7C417.91 127.567 418.079 127.5 418.275 127.5C418.471 127.5 418.639 127.567 418.778 127.7C418.92 127.834 418.991 127.994 418.991 128.182C418.991 128.369 418.92 128.53 418.778 128.663C418.639 128.797 418.471 128.864 418.275 128.864ZM420.732 136.5V129.955H421.703V130.977H421.788C421.925 130.628 422.145 130.357 422.449 130.163C422.753 129.967 423.118 129.869 423.544 129.869C423.976 129.869 424.335 129.967 424.622 130.163C424.912 130.357 425.138 130.628 425.3 130.977H425.368C425.536 130.639 425.787 130.371 426.122 130.172C426.457 129.97 426.859 129.869 427.328 129.869C427.913 129.869 428.392 130.053 428.764 130.419C429.136 130.783 429.322 131.349 429.322 132.119V136.5H428.317V132.119C428.317 131.636 428.185 131.291 427.92 131.084C427.656 130.876 427.345 130.773 426.987 130.773C426.527 130.773 426.17 130.912 425.918 131.19C425.665 131.466 425.538 131.815 425.538 132.239V136.5H424.516V132.017C424.516 131.645 424.395 131.345 424.153 131.118C423.912 130.888 423.601 130.773 423.22 130.773C422.959 130.773 422.715 130.842 422.487 130.982C422.263 131.121 422.081 131.314 421.942 131.561C421.805 131.805 421.737 132.088 421.737 132.409V136.5H420.732ZM431.281 136.5V129.955H432.287V136.5H431.281ZM431.793 128.864C431.597 128.864 431.428 128.797 431.285 128.663C431.146 128.53 431.077 128.369 431.077 128.182C431.077 127.994 431.146 127.834 431.285 127.7C431.428 127.567 431.597 127.5 431.793 127.5C431.989 127.5 432.156 127.567 432.295 127.7C432.437 127.834 432.509 127.994 432.509 128.182C432.509 128.369 432.437 128.53 432.295 128.663C432.156 128.797 431.989 128.864 431.793 128.864ZM437.095 129.955V130.807H433.703V129.955H437.095ZM434.692 128.386H435.698V134.625C435.698 134.909 435.739 135.122 435.821 135.264C435.907 135.403 436.015 135.497 436.145 135.545C436.279 135.591 436.419 135.614 436.567 135.614C436.678 135.614 436.769 135.608 436.84 135.597C436.911 135.582 436.968 135.571 437.01 135.562L437.215 136.466C437.147 136.491 437.051 136.517 436.929 136.543C436.807 136.571 436.652 136.585 436.465 136.585C436.181 136.585 435.902 136.524 435.63 136.402C435.36 136.28 435.135 136.094 434.956 135.844C434.78 135.594 434.692 135.278 434.692 134.898V128.386Z" fill="#1A1919"/>
<g opacity="0.8" clip-path="url(#clip0_1778_766)">
<path d="M533.128 69.7883C538.869 75.1235 542.952 82.207 544.545 90.1905C545.084 92.8902 547.422 94.8443 550.183 94.8057C553.701 94.7543 556.321 91.5146 555.641 88.0564C553.586 77.656 548.256 68.4127 540.769 61.4706C538.188 59.0794 534.066 59.645 532.178 62.6276C530.714 64.9288 531.125 67.937 533.128 69.8011V69.7883Z" fill="url(#paint1_linear_1778_766)"/>
<path d="M544.775 103.882C541.642 122.819 524.51 137.076 504.412 135.585C485.906 134.209 470.868 119.232 469.417 100.707C467.85 80.7418 481.784 63.6693 500.418 60.2368C503.115 59.7354 505.093 57.4213 505.093 54.6702C505.093 51.1348 501.882 48.4608 498.402 49.1036C474.155 53.5517 456.048 75.8052 458.167 101.774C460.119 125.699 479.485 144.982 503.385 146.846C529.532 148.878 551.839 130.34 555.91 105.721C556.488 102.224 553.778 99.0485 550.246 99.1128C547.511 99.1514 545.212 101.17 544.763 103.882H544.775Z" fill="url(#paint2_linear_1778_766)"/>
<path d="M509.396 54.6557C509.396 57.4068 511.373 59.7209 514.083 60.2223C516.793 60.7236 519.22 61.4436 521.621 62.4206C524.177 63.4619 527.118 62.5877 528.595 60.248C530.483 57.2783 529.211 53.3187 525.962 51.9817C522.713 50.6447 519.515 49.719 516.099 49.0891C512.683 48.4592 509.408 51.1075 509.408 54.6557H509.396Z" fill="url(#paint3_linear_1778_766)"/>
<path d="M491.884 104.803C490.681 104.803 489.61 104.607 488.673 104.217C487.741 103.821 487.009 103.282 486.478 102.6C485.946 101.917 485.681 101.144 485.681 100.279C485.681 99.6126 485.832 99.0007 486.134 98.4434C486.441 97.8809 486.858 97.4147 487.384 97.0449C487.91 96.6699 488.498 96.4303 489.149 96.3262V96.2168C488.295 96.0449 487.603 95.6309 487.071 94.9746C486.54 94.3132 486.274 93.5449 486.274 92.6699C486.274 91.8418 486.517 91.1048 487.001 90.459C487.485 89.8079 488.149 89.2975 488.993 88.9277C489.842 88.5527 490.806 88.3652 491.884 88.3652C492.962 88.3652 493.923 88.5527 494.767 88.9277C495.616 89.3027 496.282 89.8158 496.767 90.4668C497.251 91.1126 497.496 91.847 497.501 92.6699C497.496 93.5501 497.225 94.3184 496.688 94.9746C496.152 95.6309 495.465 96.0449 494.626 96.2168V96.3262C495.267 96.4303 495.847 96.6699 496.368 97.0449C496.894 97.4147 497.311 97.8809 497.618 98.4434C497.931 99.0007 498.09 99.6126 498.095 100.279C498.09 101.144 497.821 101.917 497.29 102.6C496.759 103.282 496.024 103.821 495.087 104.217C494.155 104.607 493.087 104.803 491.884 104.803ZM491.884 102.318C492.42 102.318 492.889 102.222 493.29 102.029C493.691 101.831 494.004 101.561 494.228 101.217C494.457 100.868 494.571 100.467 494.571 100.014C494.571 99.5501 494.454 99.1413 494.22 98.7871C493.985 98.4277 493.668 98.1465 493.267 97.9434C492.866 97.735 492.405 97.6309 491.884 97.6309C491.368 97.6309 490.907 97.735 490.501 97.9434C490.095 98.1465 489.774 98.4277 489.54 98.7871C489.311 99.1413 489.196 99.5501 489.196 100.014C489.196 100.467 489.308 100.868 489.532 101.217C489.756 101.561 490.071 101.831 490.478 102.029C490.884 102.222 491.353 102.318 491.884 102.318ZM491.884 95.1699C492.332 95.1699 492.73 95.0788 493.079 94.8965C493.428 94.7142 493.701 94.4616 493.899 94.1387C494.097 93.8158 494.196 93.4434 494.196 93.0215C494.196 92.6048 494.097 92.2402 493.899 91.9277C493.701 91.61 493.431 91.3626 493.087 91.1855C492.743 91.0033 492.342 90.9121 491.884 90.9121C491.431 90.9121 491.03 91.0033 490.681 91.1855C490.332 91.3626 490.058 91.61 489.86 91.9277C489.668 92.2402 489.571 92.6048 489.571 93.0215C489.571 93.4434 489.67 93.8158 489.868 94.1387C490.066 94.4616 490.34 94.7142 490.688 94.8965C491.037 95.0788 491.436 95.1699 491.884 95.1699ZM506.154 104.803C504.987 104.803 503.948 104.602 503.037 104.201C502.131 103.795 501.414 103.238 500.888 102.529C500.368 101.816 500.099 100.993 500.084 100.061H503.49C503.511 100.451 503.638 100.795 503.873 101.092C504.112 101.383 504.43 101.61 504.826 101.771C505.222 101.933 505.667 102.014 506.162 102.014C506.677 102.014 507.133 101.923 507.529 101.74C507.925 101.558 508.235 101.305 508.459 100.982C508.683 100.66 508.795 100.287 508.795 99.8652C508.795 99.4382 508.675 99.0605 508.435 98.7324C508.201 98.3991 507.862 98.1387 507.42 97.9512C506.982 97.7637 506.461 97.6699 505.857 97.6699H504.365V95.1855H505.857C506.368 95.1855 506.818 95.097 507.209 94.9199C507.605 94.7428 507.912 94.498 508.131 94.1855C508.349 93.8678 508.459 93.498 508.459 93.0762C508.459 92.6751 508.362 92.3236 508.17 92.0215C507.982 91.7142 507.717 91.4746 507.373 91.3027C507.034 91.1309 506.638 91.0449 506.185 91.0449C505.727 91.0449 505.308 91.1283 504.927 91.2949C504.547 91.4564 504.243 91.6882 504.013 91.9902C503.784 92.2923 503.662 92.6465 503.646 93.0527H500.404C500.42 92.1309 500.683 91.3184 501.193 90.6152C501.704 89.9121 502.391 89.3626 503.256 88.9668C504.125 88.5658 505.107 88.3652 506.201 88.3652C507.305 88.3652 508.271 88.5658 509.099 88.9668C509.927 89.3678 510.571 89.9095 511.029 90.5918C511.493 91.2689 511.722 92.0293 511.717 92.873C511.722 93.7689 511.443 94.5163 510.881 95.1152C510.323 95.7142 509.597 96.0944 508.701 96.2559V96.3809C509.878 96.5319 510.774 96.9408 511.388 97.6074C512.008 98.2689 512.315 99.097 512.31 100.092C512.315 101.003 512.052 101.813 511.521 102.521C510.995 103.23 510.269 103.787 509.342 104.193C508.414 104.6 507.352 104.803 506.154 104.803ZM523.28 101.584V100.74C523.28 100.1 523.415 99.5111 523.686 98.9746C523.962 98.4329 524.36 98.0007 524.881 97.6777C525.407 97.3496 526.048 97.1855 526.803 97.1855C527.569 97.1855 528.212 97.347 528.733 97.6699C529.259 97.9928 529.655 98.4251 529.92 98.9668C530.191 99.5033 530.327 100.094 530.327 100.74V101.584C530.327 102.225 530.191 102.816 529.92 103.357C529.65 103.894 529.251 104.324 528.725 104.646C528.199 104.975 527.558 105.139 526.803 105.139C526.038 105.139 525.394 104.975 524.873 104.646C524.353 104.324 523.957 103.894 523.686 103.357C523.415 102.816 523.28 102.225 523.28 101.584ZM525.553 100.74V101.584C525.553 101.954 525.642 102.303 525.819 102.631C526.001 102.959 526.329 103.123 526.803 103.123C527.277 103.123 527.6 102.962 527.772 102.639C527.949 102.316 528.038 101.964 528.038 101.584V100.74C528.038 100.36 527.954 100.006 527.788 99.6777C527.621 99.3496 527.293 99.1855 526.803 99.1855C526.334 99.1855 526.009 99.3496 525.827 99.6777C525.644 100.006 525.553 100.36 525.553 100.74ZM515.069 92.4277V91.584C515.069 90.9382 515.207 90.347 515.483 89.8105C515.759 89.2689 516.157 88.8366 516.678 88.5137C517.204 88.1908 517.84 88.0293 518.584 88.0293C519.355 88.0293 520.001 88.1908 520.522 88.5137C521.043 88.8366 521.439 89.2689 521.709 89.8105C521.98 90.347 522.116 90.9382 522.116 91.584V92.4277C522.116 93.0736 521.978 93.6647 521.702 94.2012C521.431 94.7376 521.032 95.1673 520.506 95.4902C519.985 95.8079 519.345 95.9668 518.584 95.9668C517.824 95.9668 517.181 95.8053 516.655 95.4824C516.134 95.1543 515.738 94.7246 515.467 94.1934C515.202 93.6569 515.069 93.0684 515.069 92.4277ZM517.358 91.584V92.4277C517.358 92.8079 517.446 93.1595 517.623 93.4824C517.806 93.8053 518.126 93.9668 518.584 93.9668C519.064 93.9668 519.389 93.8053 519.561 93.4824C519.738 93.1595 519.827 92.8079 519.827 92.4277V91.584C519.827 91.2038 519.743 90.8496 519.577 90.5215C519.41 90.1934 519.079 90.0293 518.584 90.0293C518.121 90.0293 517.801 90.196 517.623 90.5293C517.446 90.8626 517.358 91.2142 517.358 91.584ZM516.1 104.584L527.1 88.584H529.147L518.147 104.584H516.1Z" fill="black"/>
</g>
<defs>
<linearGradient id="paint0_linear_1778_766" x1="329.51" y1="191.592" x2="329.51" y2="338.881" gradientUnits="userSpaceOnUse">
<stop stop-color="#229E58"/>
<stop offset="0.3" stop-color="#8AC640"/>
<stop offset="0.7" stop-color="#F9C313"/>
<stop offset="1" stop-color="#F05425"/>
</linearGradient>
<linearGradient id="paint1_linear_1778_766" x1="521.802" y1="42.314" x2="551.873" y2="84.6583" gradientUnits="userSpaceOnUse">
<stop stop-color="#FF7733"/>
<stop offset="1" stop-color="#FFDD66"/>
</linearGradient>
<linearGradient id="paint2_linear_1778_766" x1="525.747" y1="39.6214" x2="463.189" y2="124.402" gradientUnits="userSpaceOnUse">
<stop offset="0.11" stop-color="#FAC401"/>
<stop offset="0.659463" stop-color="#83D33B"/>
<stop offset="1" stop-color="#239E58"/>
</linearGradient>
<linearGradient id="paint3_linear_1778_766" x1="499.045" y1="45.2295" x2="535.138" y2="68.9856" gradientUnits="userSpaceOnUse">
<stop offset="0.265" stop-color="#FF515D"/>
<stop offset="1" stop-color="#FFD12A"/>
</linearGradient>
<clipPath id="clip0_1778_766">
<rect width="98" height="98" fill="white" transform="translate(458 49)"/>
</clipPath>
</defs>
</svg>
