<svg width="741" height="651" viewBox="0 0 741 651" fill="none" xmlns="http://www.w3.org/2000/svg">
<g clip-path="url(#clip0_2105_1103)">
<path d="M739.32 0.759236L369.948 649.783L109.59 192.396L320.725 192.396L370.044 278.799L528.834 0.759254L739.32 0.759236Z" stroke="#C2C6D8" stroke-miterlimit="10"/>
<path d="M728.981 6.78435L369.949 637.639L119.93 198.422L317.243 198.422L370.045 290.921L532.317 6.78436L728.981 6.78435Z" stroke="#C2C6D8" stroke-miterlimit="10"/>
<path d="M718.63 12.8076L369.949 625.492L130.27 204.445L313.761 204.445L370.045 303.041L535.799 12.8076L718.63 12.8076Z" stroke="#C2C6D8" stroke-miterlimit="10"/>
<path d="M708.291 18.833L369.949 613.336L140.621 210.47L310.279 210.47L370.045 315.151L539.27 18.833L708.291 18.833Z" stroke="#C2C6D8" stroke-miterlimit="10"/>
<path d="M697.951 24.8562L369.949 601.189L150.96 216.493L306.796 216.493L370.045 327.271L542.752 24.8562L697.951 24.8562Z" stroke="#C2C6D8" stroke-miterlimit="10"/>
<path d="M687.612 30.8813L369.949 589.045L161.312 222.519L303.314 222.519L370.045 339.393L546.235 30.8813L687.612 30.8813Z" stroke="#C2C6D8" stroke-miterlimit="10"/>
<path d="M677.261 36.9064L369.949 576.9L171.652 228.544L299.843 228.544L370.045 351.514L549.718 36.9064L677.261 36.9064Z" stroke="#C2C6D8" stroke-miterlimit="10"/>
<path d="M666.921 42.93L369.949 564.742L181.99 234.567L296.36 234.567L370.033 363.635L553.188 42.93L666.921 42.93Z" stroke="#C2C6D8" stroke-miterlimit="10"/>
<path d="M656.582 48.9552L369.949 552.598L192.342 240.592L292.878 240.592L370.033 375.744L556.671 48.9552L656.582 48.9552Z" stroke="#C2C6D8" stroke-miterlimit="10"/>
<path d="M646.23 54.9784L369.949 540.451L202.682 246.616L289.395 246.616L370.033 387.864L560.153 54.9784L646.23 54.9784Z" stroke="#C2C6D8" stroke-miterlimit="10"/>
<path d="M635.891 61.0035L369.949 528.307L213.02 252.641L285.913 252.641L370.033 399.986L563.635 61.0035L635.891 61.0035Z" stroke="#C2C6D8" stroke-miterlimit="10"/>
<path d="M625.552 67.027L369.949 516.148L223.372 258.664L282.443 258.664L370.033 412.107L567.106 67.027L625.552 67.027Z" stroke="#C2C6D8" stroke-miterlimit="10"/>
<path d="M615.212 73.0522L369.949 504.004L233.711 264.689L278.96 264.689L370.033 424.228L570.588 73.0522L615.212 73.0522Z" stroke="#C2C6D8" stroke-miterlimit="10"/>
<path d="M604.86 79.0773L369.949 491.859L244.063 270.715L275.477 270.715L370.033 436.35L574.07 79.0773L604.86 79.0773Z" stroke="#C2C6D8" stroke-miterlimit="10"/>
<path d="M593.32 85.1002L369.949 477.303L255.603 276.737L270.794 276.737L370.033 449.663L577.553 85.1002L593.32 85.1002Z" stroke="#C2C6D8" stroke-miterlimit="10"/>
<path d="M393.702 159.117L92.8752 159.117L1.04551 1.253L483.935 0.602347L393.702 159.117Z" stroke="#C2C6D8" stroke-miterlimit="10"/>
<path d="M390.219 153.094L96.3215 153.094L11.4929 7.2543L473.583 6.63983L390.219 153.094Z" stroke="#C2C6D8" stroke-miterlimit="10"/>
<path d="M386.737 147.068L99.7678 147.068L21.9522 13.2658L463.231 12.6753L386.737 147.068Z" stroke="#C2C6D8" stroke-miterlimit="10"/>
<path d="M383.242 141.045L103.226 141.045L32.3994 19.2792L452.88 18.7249L383.242 141.045Z" stroke="#C2C6D8" stroke-miterlimit="10"/>
<path d="M379.759 135.02L106.672 135.02L42.8468 25.2905L442.528 24.7604L379.759 135.02Z" stroke="#C2C6D8" stroke-miterlimit="10"/>
<path d="M376.278 128.994L110.12 128.994L53.2951 31.302L432.178 30.7959L376.278 128.994Z" stroke="#C2C6D8" stroke-miterlimit="10"/>
<path d="M372.795 122.971L113.566 122.971L63.7423 37.3154L421.826 36.8334L372.795 122.971Z" stroke="#C2C6D8" stroke-miterlimit="10"/>
<path d="M369.3 116.945L117.012 116.945L74.1896 43.3147L411.475 42.8689L369.3 116.945Z" stroke="#C2C6D8" stroke-miterlimit="10"/>
<path d="M365.818 110.922L120.459 110.922L84.637 49.3281L401.123 48.9064L365.818 110.922Z" stroke="#C2C6D8" stroke-miterlimit="10"/>
<path d="M362.335 104.896L123.905 104.897L95.0842 55.3395L390.771 54.9419L362.335 104.896Z" stroke="#C2C6D8" stroke-miterlimit="10"/>
<path d="M358.853 98.873L127.351 98.8731L105.532 61.3529L380.42 60.9914L358.853 98.873Z" stroke="#C2C6D8" stroke-miterlimit="10"/>
<path d="M355.359 92.8477L130.798 92.8477L115.98 67.3643L370.069 67.0269L355.359 92.8477Z" stroke="#C2C6D8" stroke-miterlimit="10"/>
<path d="M351.876 86.8242L134.257 86.8242L126.427 73.3777L359.718 73.0644L351.876 86.8242Z" stroke="#C2C6D8" stroke-miterlimit="10"/>
<path d="M582.093 91.4395L369.757 462.918L266.543 282.185" stroke="#C2C6D8" stroke-miterlimit="10"/>
<path d="M350.123 79.6191L137.019 79.6192" stroke="#C2C6D8" stroke-miterlimit="10"/>
</g>
<defs>
<clipPath id="clip0_2105_1103">
<rect width="740.353" height="651" fill="white" transform="translate(740.354 651) rotate(180)"/>
</clipPath>
</defs>
</svg>
